<?xml version="1.0" encoding="UTF-8" standalone="no"?>
<!DOCTYPE svg PUBLIC "-//W3C//DTD SVG 1.1//EN"
 "http://www.w3.org/Graphics/SVG/1.1/DTD/svg11.dtd">
<!-- Generated by graphviz version 2.40.1 (20161225.0304)
 -->
<!-- Title: compactRelationshipsDiagram Pages: 1 -->
<svg width="528pt" height="670pt"
 viewBox="0.00 0.00 528.00 670.05" xmlns="http://www.w3.org/2000/svg" xmlns:xlink="http://www.w3.org/1999/xlink">
<g id="graph0" class="graph" transform="scale(1 1) rotate(0) translate(4 666.0547)">
<title>compactRelationshipsDiagram</title>
<polygon fill="#ffffff" stroke="transparent" points="-4,4 -4,-666.0547 524,-666.0547 524,4 -4,4"/>
<text text-anchor="middle" x="72.4936" y="-7.3" font-family="Helvetica,sans-Serif" font-size="11.00" fill="#000000">Generated by SchemaSpy</text>
<!-- containers -->
<g id="node1" class="node">
<title>containers</title>
<g id="a_node1"><a xlink:href="../../tables/containers.html" xlink:title="containers" target="_top">
<polygon fill="#ffffff" stroke="transparent" points="193.5,-487.0547 193.5,-658.0547 292.5,-658.0547 292.5,-487.0547 193.5,-487.0547"/>
<polygon fill="#f5f5f5" stroke="transparent" points="194,-634.5547 194,-657.5547 293,-657.5547 293,-634.5547 194,-634.5547"/>
<polygon fill="none" stroke="#000000" points="194,-634.5547 194,-657.5547 293,-657.5547 293,-634.5547 194,-634.5547"/>
<text text-anchor="start" x="199" y="-643.1547" font-family="Helvetica,sans-Serif" font-weight="bold" font-size="11.00" fill="#000000">containers</text>
<text text-anchor="start" x="258.5219" y="-642.6547" font-family="Helvetica,sans-Serif" font-size="11.00" fill="#000000">[table]</text>
<polygon fill="none" stroke="#000000" points="194,-612.5547 194,-634.5547 293,-634.5547 293,-612.5547 194,-612.5547"/>
<image xlink:href="../../images/primaryKeys.png" width="11px" height="12px" preserveAspectRatio="xMinYMin meet" x="199" y="-629.555"/>
<text text-anchor="start" x="218" y="-619.6547" font-family="Helvetica,sans-Serif" font-size="11.00" fill="#000000">container_id</text>
<polygon fill="none" stroke="#000000" points="194,-590.5547 194,-612.5547 293,-612.5547 293,-590.5547 194,-590.5547"/>
<image xlink:href="../../images/foreignKeys.png" width="11px" height="12px" preserveAspectRatio="xMinYMin meet" x="199" y="-607.555"/>
<text text-anchor="start" x="218" y="-597.6547" font-family="Helvetica,sans-Serif" font-size="11.00" fill="#000000">created_by</text>
<polygon fill="none" stroke="#000000" points="194,-568.5547 194,-590.5547 293,-590.5547 293,-568.5547 194,-568.5547"/>
<image xlink:href="../../images/foreignKeys.png" width="11px" height="12px" preserveAspectRatio="xMinYMin meet" x="199" y="-585.555"/>
<text text-anchor="start" x="218" y="-575.6547" font-family="Helvetica,sans-Serif" font-size="11.00" fill="#000000">updated_by</text>
<polygon fill="none" stroke="#000000" points="194,-546.5547 194,-568.5547 293,-568.5547 293,-546.5547 194,-546.5547"/>
<image xlink:href="../../images/foreignKeys.png" width="11px" height="12px" preserveAspectRatio="xMinYMin meet" x="199" y="-563.555"/>
<text text-anchor="start" x="218" y="-553.6547" font-family="Helvetica,sans-Serif" font-size="11.00" fill="#000000">order_id</text>
<polygon fill="none" stroke="#000000" points="194,-524.5547 194,-546.5547 293,-546.5547 293,-524.5547 194,-524.5547"/>
<image xlink:href="../../images/foreignKeys.png" width="11px" height="12px" preserveAspectRatio="xMinYMin meet" x="199" y="-541.555"/>
<text text-anchor="start" x="218" y="-531.6547" font-family="Helvetica,sans-Serif" font-size="11.00" fill="#000000">trailer_id</text>
<polygon fill="none" stroke="#000000" points="194,-505.5547 194,-524.5547 293,-524.5547 293,-505.5547 194,-505.5547"/>
<text text-anchor="start" x="197" y="-511.6547" font-family="Helvetica,sans-Serif" font-size="11.00" fill="#000000">...</text>
<polygon fill="#ffffff" stroke="transparent" points="194,-486.5547 194,-505.5547 224,-505.5547 224,-486.5547 194,-486.5547"/>
<polygon fill="none" stroke="#000000" points="194,-486.5547 194,-505.5547 224,-505.5547 224,-486.5547 194,-486.5547"/>
<text text-anchor="start" x="197" y="-492.6547" font-family="Helvetica,sans-Serif" font-size="11.00" fill="#000000">&lt; 4</text>
<polygon fill="#ffffff" stroke="transparent" points="224,-486.5547 224,-505.5547 267,-505.5547 267,-486.5547 224,-486.5547"/>
<polygon fill="none" stroke="#000000" points="224,-486.5547 224,-505.5547 267,-505.5547 267,-486.5547 224,-486.5547"/>
<text text-anchor="start" x="231.6105" y="-492.6547" font-family="Helvetica,sans-Serif" font-size="11.00" fill="#000000">5 rows</text>
<polygon fill="#ffffff" stroke="transparent" points="267,-486.5547 267,-505.5547 293,-505.5547 293,-486.5547 267,-486.5547"/>
<polygon fill="none" stroke="#000000" points="267,-486.5547 267,-505.5547 293,-505.5547 293,-486.5547 267,-486.5547"/>
<text text-anchor="start" x="274.4053" y="-492.6547" font-family="Helvetica,sans-Serif" font-size="11.00" fill="#000000">1 &gt;</text>
</a>
</g>
</g>
<!-- public.orders -->
<g id="node7" class="node">
<title>public.orders</title>
<g id="a_node7"><a xlink:href="../../../public/tables/orders.html" xlink:title="public.orders" target="_top">
<polygon fill="#ffffff" stroke="transparent" points="11,-557.0547 11,-618.0547 126,-618.0547 126,-557.0547 11,-557.0547"/>
<polygon fill="#f5f5f5" stroke="transparent" points="11.5,-594.5547 11.5,-617.5547 126.5,-617.5547 126.5,-594.5547 11.5,-594.5547"/>
<polygon fill="none" stroke="#000000" points="11.5,-594.5547 11.5,-617.5547 126.5,-617.5547 126.5,-594.5547 11.5,-594.5547"/>
<text text-anchor="start" x="16.5" y="-603.1547" font-family="Helvetica,sans-Serif" font-weight="bold" font-size="11.00" fill="#000000">public.orders</text>
<text text-anchor="start" x="92.0219" y="-602.6547" font-family="Helvetica,sans-Serif" font-size="11.00" fill="#000000">[table]</text>
<polygon fill="none" stroke="#000000" points="11.5,-575.5547 11.5,-594.5547 126.5,-594.5547 126.5,-575.5547 11.5,-575.5547"/>
<text text-anchor="start" x="14.5" y="-581.6547" font-family="Helvetica,sans-Serif" font-size="11.00" fill="#000000">...</text>
<polygon fill="#ffffff" stroke="transparent" points="11.5,-556.5547 11.5,-575.5547 45.5,-575.5547 45.5,-556.5547 11.5,-556.5547"/>
<polygon fill="none" stroke="#000000" points="11.5,-556.5547 11.5,-575.5547 45.5,-575.5547 45.5,-556.5547 11.5,-556.5547"/>
<text text-anchor="start" x="14.5" y="-562.6547" font-family="Helvetica,sans-Serif" font-size="11.00" fill="#000000"> &#160;</text>
<polygon fill="#ffffff" stroke="transparent" points="45.5,-556.5547 45.5,-575.5547 94.5,-575.5547 94.5,-556.5547 45.5,-556.5547"/>
<polygon fill="none" stroke="#000000" points="45.5,-556.5547 45.5,-575.5547 94.5,-575.5547 94.5,-556.5547 45.5,-556.5547"/>
<text text-anchor="start" x="59.1105" y="-562.6547" font-family="Helvetica,sans-Serif" font-size="11.00" fill="#000000">0 rows</text>
<polygon fill="#ffffff" stroke="transparent" points="94.5,-556.5547 94.5,-575.5547 126.5,-575.5547 126.5,-556.5547 94.5,-556.5547"/>
<polygon fill="none" stroke="#000000" points="94.5,-556.5547 94.5,-575.5547 126.5,-575.5547 126.5,-556.5547 94.5,-556.5547"/>
<text text-anchor="start" x="107.9053" y="-562.6547" font-family="Helvetica,sans-Serif" font-size="11.00" fill="#000000">1 &gt;</text>
</a>
</g>
</g>
<!-- containers&#45;&gt;public.orders -->
<g id="edge9" class="edge">
<title>containers:w&#45;&gt;public.orders:e</title>
<path fill="none" stroke="#000000" d="M179.4976,-558.1438C164.2323,-559.3367 148.68,-562.2264 134.2365,-565.7523"/>
<polygon fill="#000000" stroke="#000000" points="186.0066,-557.8794 194.1462,-561.1517 190.0033,-557.717 194,-557.5547 194,-557.5547 194,-557.5547 190.0033,-557.717 193.8538,-553.9576 186.0066,-557.8794 186.0066,-557.8794"/>
<ellipse fill="none" stroke="#000000" cx="182.8092" cy="-558.0094" rx="3.2" ry="3.2"/>
</g>
<!-- public.users -->
<g id="node8" class="node">
<title>public.users</title>
<g id="a_node8"><a xlink:href="../../../public/tables/users.html" xlink:title="public.users" target="_top">
<polygon fill="#ffffff" stroke="transparent" points="14,-214.0547 14,-275.0547 123,-275.0547 123,-214.0547 14,-214.0547"/>
<polygon fill="#f5f5f5" stroke="transparent" points="14.5,-251.5547 14.5,-274.5547 123.5,-274.5547 123.5,-251.5547 14.5,-251.5547"/>
<polygon fill="none" stroke="#000000" points="14.5,-251.5547 14.5,-274.5547 123.5,-274.5547 123.5,-251.5547 14.5,-251.5547"/>
<text text-anchor="start" x="19.5" y="-260.1547" font-family="Helvetica,sans-Serif" font-weight="bold" font-size="11.00" fill="#000000">public.users</text>
<text text-anchor="start" x="89.0219" y="-259.6547" font-family="Helvetica,sans-Serif" font-size="11.00" fill="#000000">[table]</text>
<polygon fill="none" stroke="#000000" points="14.5,-232.5547 14.5,-251.5547 123.5,-251.5547 123.5,-232.5547 14.5,-232.5547"/>
<text text-anchor="start" x="17.5" y="-238.6547" font-family="Helvetica,sans-Serif" font-size="11.00" fill="#000000">...</text>
<polygon fill="#ffffff" stroke="transparent" points="14.5,-213.5547 14.5,-232.5547 45.5,-232.5547 45.5,-213.5547 14.5,-213.5547"/>
<polygon fill="none" stroke="#000000" points="14.5,-213.5547 14.5,-232.5547 45.5,-232.5547 45.5,-213.5547 14.5,-213.5547"/>
<text text-anchor="start" x="17.5" y="-219.6547" font-family="Helvetica,sans-Serif" font-size="11.00" fill="#000000"> &#160;</text>
<polygon fill="#ffffff" stroke="transparent" points="45.5,-213.5547 45.5,-232.5547 92.5,-232.5547 92.5,-213.5547 45.5,-213.5547"/>
<polygon fill="none" stroke="#000000" points="45.5,-213.5547 45.5,-232.5547 92.5,-232.5547 92.5,-213.5547 45.5,-213.5547"/>
<text text-anchor="start" x="57.1105" y="-219.6547" font-family="Helvetica,sans-Serif" font-size="11.00" fill="#000000">0 rows</text>
<polygon fill="#ffffff" stroke="transparent" points="92.5,-213.5547 92.5,-232.5547 123.5,-232.5547 123.5,-213.5547 92.5,-213.5547"/>
<polygon fill="none" stroke="#000000" points="92.5,-213.5547 92.5,-232.5547 123.5,-232.5547 123.5,-213.5547 92.5,-213.5547"/>
<text text-anchor="start" x="104.9053" y="-219.6547" font-family="Helvetica,sans-Serif" font-size="11.00" fill="#000000">6 &gt;</text>
</a>
</g>
</g>
<!-- containers&#45;&gt;public.users -->
<g id="edge8" class="edge">
<title>containers:w&#45;&gt;public.users:e</title>
<path fill="none" stroke="#000000" d="M180.0067,-597.229C133.6993,-564.9143 166.8518,-361.0041 137,-307.5547 131.2487,-297.2571 123.2075,-287.7095 114.6499,-279.3216"/>
<polygon fill="#000000" stroke="#000000" points="186.3568,-599.1919 192.9368,-604.9941 190.1784,-600.3733 194,-601.5547 194,-601.5547 194,-601.5547 190.1784,-600.3733 195.0632,-598.1152 186.3568,-599.1919 186.3568,-599.1919"/>
<ellipse fill="none" stroke="#000000" cx="183.2996" cy="-598.2469" rx="3.2" ry="3.2"/>
</g>
<!-- containers&#45;&gt;public.users -->
<g id="edge11" class="edge">
<title>containers:w&#45;&gt;public.users:e</title>
<path fill="none" stroke="#000000" d="M179.43,-578.6626C81.0378,-565.5475 194.7082,-410.7185 137,-307.5547 131.2418,-297.2609 123.1976,-287.715 114.6393,-279.3275"/>
<polygon fill="#000000" stroke="#000000" points="186.015,-579.0657 193.78,-583.1479 190.0075,-579.3102 194,-579.5547 194,-579.5547 194,-579.5547 190.0075,-579.3102 194.22,-575.9614 186.015,-579.0657 186.015,-579.0657"/>
<ellipse fill="none" stroke="#000000" cx="182.8209" cy="-578.8702" rx="3.2" ry="3.2"/>
</g>
<!-- public.trailers -->
<g id="node9" class="node">
<title>public.trailers</title>
<g id="a_node9"><a xlink:href="../../../public/tables/trailers.html" xlink:title="public.trailers" target="_top">
<polygon fill="#ffffff" stroke="transparent" points="10,-475.0547 10,-536.0547 127,-536.0547 127,-475.0547 10,-475.0547"/>
<polygon fill="#f5f5f5" stroke="transparent" points="10.5,-512.5547 10.5,-535.5547 127.5,-535.5547 127.5,-512.5547 10.5,-512.5547"/>
<polygon fill="none" stroke="#000000" points="10.5,-512.5547 10.5,-535.5547 127.5,-535.5547 127.5,-512.5547 10.5,-512.5547"/>
<text text-anchor="start" x="15.5" y="-521.1547" font-family="Helvetica,sans-Serif" font-weight="bold" font-size="11.00" fill="#000000">public.trailers</text>
<text text-anchor="start" x="93.0219" y="-520.6547" font-family="Helvetica,sans-Serif" font-size="11.00" fill="#000000">[table]</text>
<polygon fill="none" stroke="#000000" points="10.5,-493.5547 10.5,-512.5547 127.5,-512.5547 127.5,-493.5547 10.5,-493.5547"/>
<text text-anchor="start" x="13.5" y="-499.6547" font-family="Helvetica,sans-Serif" font-size="11.00" fill="#000000">...</text>
<polygon fill="#ffffff" stroke="transparent" points="10.5,-474.5547 10.5,-493.5547 45.5,-493.5547 45.5,-474.5547 10.5,-474.5547"/>
<polygon fill="none" stroke="#000000" points="10.5,-474.5547 10.5,-493.5547 45.5,-493.5547 45.5,-474.5547 10.5,-474.5547"/>
<text text-anchor="start" x="13.5" y="-480.6547" font-family="Helvetica,sans-Serif" font-size="11.00" fill="#000000"> &#160;</text>
<polygon fill="#ffffff" stroke="transparent" points="45.5,-474.5547 45.5,-493.5547 94.5,-493.5547 94.5,-474.5547 45.5,-474.5547"/>
<polygon fill="none" stroke="#000000" points="45.5,-474.5547 45.5,-493.5547 94.5,-493.5547 94.5,-474.5547 45.5,-474.5547"/>
<text text-anchor="start" x="59.1105" y="-480.6547" font-family="Helvetica,sans-Serif" font-size="11.00" fill="#000000">0 rows</text>
<polygon fill="#ffffff" stroke="transparent" points="94.5,-474.5547 94.5,-493.5547 127.5,-493.5547 127.5,-474.5547 94.5,-474.5547"/>
<polygon fill="none" stroke="#000000" points="94.5,-474.5547 94.5,-493.5547 127.5,-493.5547 127.5,-474.5547 94.5,-474.5547"/>
<text text-anchor="start" x="108.9053" y="-480.6547" font-family="Helvetica,sans-Serif" font-size="11.00" fill="#000000">1 &gt;</text>
</a>
</g>
</g>
<!-- containers&#45;&gt;public.trailers -->
<g id="edge10" class="edge">
<title>containers:w&#45;&gt;public.trailers:e</title>
<path fill="none" stroke="#000000" d="M179.283,-534.9486C164.43,-533.7727 149.3116,-530.9957 135.2128,-527.594"/>
<polygon fill="#000000" stroke="#000000" points="186.0068,-535.2254 193.8519,-539.1516 190.0034,-535.39 194,-535.5547 194,-535.5547 194,-535.5547 190.0034,-535.39 194.1481,-531.9577 186.0068,-535.2254 186.0068,-535.2254"/>
<ellipse fill="none" stroke="#000000" cx="182.8095" cy="-535.0938" rx="3.2" ry="3.2"/>
</g>
<!-- container_legs -->
<g id="node2" class="node">
<title>container_legs</title>
<g id="a_node2"><a xlink:href="../../tables/container_legs.html" xlink:title="container_legs" target="_top">
<polygon fill="#ffffff" stroke="transparent" points="357,-266.0547 357,-525.0547 512,-525.0547 512,-266.0547 357,-266.0547"/>
<polygon fill="#f5f5f5" stroke="transparent" points="357.5,-501.5547 357.5,-524.5547 512.5,-524.5547 512.5,-501.5547 357.5,-501.5547"/>
<polygon fill="none" stroke="#000000" points="357.5,-501.5547 357.5,-524.5547 512.5,-524.5547 512.5,-501.5547 357.5,-501.5547"/>
<text text-anchor="start" x="362.5" y="-510.1547" font-family="Helvetica,sans-Serif" font-weight="bold" font-size="11.00" fill="#000000">container_legs</text>
<text text-anchor="start" x="477.5437" y="-509.6547" font-family="Helvetica,sans-Serif" font-size="11.00" fill="#000000">[table]</text>
<polygon fill="none" stroke="#000000" points="357.5,-479.5547 357.5,-501.5547 512.5,-501.5547 512.5,-479.5547 357.5,-479.5547"/>
<image xlink:href="../../images/primaryKeys.png" width="11px" height="12px" preserveAspectRatio="xMinYMin meet" x="362.5" y="-496.555"/>
<text text-anchor="start" x="377.5" y="-486.6547" font-family="Helvetica,sans-Serif" font-size="11.00" fill="#000000">container_leg_id</text>
<polygon fill="#ffffff" stroke="transparent" points="357.5,-457.5547 357.5,-479.5547 512.5,-479.5547 512.5,-457.5547 357.5,-457.5547"/>
<polygon fill="none" stroke="#000000" points="357.5,-457.5547 357.5,-479.5547 512.5,-479.5547 512.5,-457.5547 357.5,-457.5547"/>
<image xlink:href="../../images/foreignKeys.png" width="11px" height="12px" preserveAspectRatio="xMinYMin meet" x="362.5" y="-474.555"/>
<text text-anchor="start" x="377.5" y="-464.6547" font-family="Helvetica,sans-Serif" font-size="11.00" fill="#000000">container_id</text>
<polygon fill="#ffffff" stroke="transparent" points="357.5,-435.5547 357.5,-457.5547 512.5,-457.5547 512.5,-435.5547 357.5,-435.5547"/>
<polygon fill="none" stroke="#000000" points="357.5,-435.5547 357.5,-457.5547 512.5,-457.5547 512.5,-435.5547 357.5,-435.5547"/>
<text text-anchor="start" x="377.5" y="-442.6547" font-family="Helvetica,sans-Serif" font-size="11.00" fill="#000000">sequence_number</text>
<polygon fill="none" stroke="#000000" points="357.5,-413.5547 357.5,-435.5547 512.5,-435.5547 512.5,-413.5547 357.5,-413.5547"/>
<image xlink:href="../../images/foreignKeys.png" width="11px" height="12px" preserveAspectRatio="xMinYMin meet" x="362.5" y="-430.555"/>
<text text-anchor="start" x="377.5" y="-420.6547" font-family="Helvetica,sans-Serif" font-size="11.00" fill="#000000">origin_location_id</text>
<polygon fill="none" stroke="#000000" points="357.5,-391.5547 357.5,-413.5547 512.5,-413.5547 512.5,-391.5547 357.5,-391.5547"/>
<image xlink:href="../../images/foreignKeys.png" width="11px" height="12px" preserveAspectRatio="xMinYMin meet" x="362.5" y="-408.555"/>
<text text-anchor="start" x="377.5" y="-398.6547" font-family="Helvetica,sans-Serif" font-size="11.00" fill="#000000">destination_location_id</text>
<polygon fill="none" stroke="#000000" points="357.5,-369.5547 357.5,-391.5547 512.5,-391.5547 512.5,-369.5547 357.5,-369.5547"/>
<image xlink:href="../../images/foreignKeys.png" width="11px" height="12px" preserveAspectRatio="xMinYMin meet" x="362.5" y="-386.555"/>
<text text-anchor="start" x="377.5" y="-376.6547" font-family="Helvetica,sans-Serif" font-size="11.00" fill="#000000">carrier_id</text>
<polygon fill="none" stroke="#000000" points="357.5,-347.5547 357.5,-369.5547 512.5,-369.5547 512.5,-347.5547 357.5,-347.5547"/>
<image xlink:href="../../images/foreignKeys.png" width="11px" height="12px" preserveAspectRatio="xMinYMin meet" x="362.5" y="-364.555"/>
<text text-anchor="start" x="377.5" y="-354.6547" font-family="Helvetica,sans-Serif" font-size="11.00" fill="#000000">vehicle_id</text>
<polygon fill="none" stroke="#000000" points="357.5,-325.5547 357.5,-347.5547 512.5,-347.5547 512.5,-325.5547 357.5,-325.5547"/>
<image xlink:href="../../images/foreignKeys.png" width="11px" height="12px" preserveAspectRatio="xMinYMin meet" x="362.5" y="-342.555"/>
<text text-anchor="start" x="377.5" y="-332.6547" font-family="Helvetica,sans-Serif" font-size="11.00" fill="#000000">created_by</text>
<polygon fill="none" stroke="#000000" points="357.5,-303.5547 357.5,-325.5547 512.5,-325.5547 512.5,-303.5547 357.5,-303.5547"/>
<image xlink:href="../../images/foreignKeys.png" width="11px" height="12px" preserveAspectRatio="xMinYMin meet" x="362.5" y="-320.555"/>
<text text-anchor="start" x="377.5" y="-310.6547" font-family="Helvetica,sans-Serif" font-size="11.00" fill="#000000">updated_by</text>
<polygon fill="none" stroke="#000000" points="357.5,-284.5547 357.5,-303.5547 512.5,-303.5547 512.5,-284.5547 357.5,-284.5547"/>
<text text-anchor="start" x="360.5" y="-290.6547" font-family="Helvetica,sans-Serif" font-size="11.00" fill="#000000">...</text>
<polygon fill="#ffffff" stroke="transparent" points="357.5,-265.5547 357.5,-284.5547 433.5,-284.5547 433.5,-265.5547 357.5,-265.5547"/>
<polygon fill="none" stroke="#000000" points="357.5,-265.5547 357.5,-284.5547 433.5,-284.5547 433.5,-265.5547 357.5,-265.5547"/>
<text text-anchor="start" x="360.5" y="-271.6547" font-family="Helvetica,sans-Serif" font-size="11.00" fill="#000000">&lt; 7</text>
<polygon fill="#ffffff" stroke="transparent" points="433.5,-265.5547 433.5,-284.5547 472.5,-284.5547 472.5,-265.5547 433.5,-265.5547"/>
<polygon fill="none" stroke="#000000" points="433.5,-265.5547 433.5,-284.5547 472.5,-284.5547 472.5,-265.5547 433.5,-265.5547"/>
<text text-anchor="start" x="463.3862" y="-271.6547" font-family="Helvetica,sans-Serif" font-size="11.00" fill="#000000"> &#160;</text>
<polygon fill="#ffffff" stroke="transparent" points="472.5,-265.5547 472.5,-284.5547 512.5,-284.5547 512.5,-265.5547 472.5,-265.5547"/>
<polygon fill="none" stroke="#000000" points="472.5,-265.5547 472.5,-284.5547 512.5,-284.5547 512.5,-265.5547 472.5,-265.5547"/>
<text text-anchor="start" x="503.3862" y="-271.6547" font-family="Helvetica,sans-Serif" font-size="11.00" fill="#000000"> &#160;</text>
</a>
</g>
</g>
<!-- container_legs&#45;&gt;containers -->
<g id="edge2" class="edge">
<title>container_legs:w&#45;&gt;containers:e</title>
<path fill="none" stroke="#000000" d="M343.082,-471.1156C294.8683,-491.2686 361.9318,-623.5547 293,-623.5547"/>
<polygon fill="#000000" stroke="#000000" points="349.6233,-469.9538 358.1296,-472.0992 353.5616,-469.2542 357.5,-468.5547 357.5,-468.5547 357.5,-468.5547 353.5616,-469.2542 356.8704,-465.0101 349.6233,-469.9538 349.6233,-469.9538"/>
<ellipse fill="none" stroke="#000000" cx="346.4726" cy="-470.5135" rx="3.2" ry="3.2"/>
</g>
<!-- public.vehicles -->
<g id="node4" class="node">
<title>public.vehicles</title>
<g id="a_node4"><a xlink:href="../../../public/tables/vehicles.html" xlink:title="public.vehicles" target="_top">
<polygon fill="#ffffff" stroke="transparent" points="180.5,-103.0547 180.5,-164.0547 305.5,-164.0547 305.5,-103.0547 180.5,-103.0547"/>
<polygon fill="#f5f5f5" stroke="transparent" points="181,-140.5547 181,-163.5547 306,-163.5547 306,-140.5547 181,-140.5547"/>
<polygon fill="none" stroke="#000000" points="181,-140.5547 181,-163.5547 306,-163.5547 306,-140.5547 181,-140.5547"/>
<text text-anchor="start" x="186" y="-149.1547" font-family="Helvetica,sans-Serif" font-weight="bold" font-size="11.00" fill="#000000">public.vehicles</text>
<text text-anchor="start" x="271.5219" y="-148.6547" font-family="Helvetica,sans-Serif" font-size="11.00" fill="#000000">[table]</text>
<polygon fill="none" stroke="#000000" points="181,-121.5547 181,-140.5547 306,-140.5547 306,-121.5547 181,-121.5547"/>
<text text-anchor="start" x="184" y="-127.6547" font-family="Helvetica,sans-Serif" font-size="11.00" fill="#000000">...</text>
<polygon fill="#ffffff" stroke="transparent" points="181,-102.5547 181,-121.5547 220,-121.5547 220,-102.5547 181,-102.5547"/>
<polygon fill="none" stroke="#000000" points="181,-102.5547 181,-121.5547 220,-121.5547 220,-102.5547 181,-102.5547"/>
<text text-anchor="start" x="184" y="-108.6547" font-family="Helvetica,sans-Serif" font-size="11.00" fill="#000000"> &#160;</text>
<polygon fill="#ffffff" stroke="transparent" points="220,-102.5547 220,-121.5547 271,-121.5547 271,-102.5547 220,-102.5547"/>
<polygon fill="none" stroke="#000000" points="220,-102.5547 220,-121.5547 271,-121.5547 271,-102.5547 220,-102.5547"/>
<text text-anchor="start" x="235.6105" y="-108.6547" font-family="Helvetica,sans-Serif" font-size="11.00" fill="#000000">0 rows</text>
<polygon fill="#ffffff" stroke="transparent" points="271,-102.5547 271,-121.5547 306,-121.5547 306,-102.5547 271,-102.5547"/>
<polygon fill="none" stroke="#000000" points="271,-102.5547 271,-121.5547 306,-121.5547 306,-102.5547 271,-102.5547"/>
<text text-anchor="start" x="287.4053" y="-108.6547" font-family="Helvetica,sans-Serif" font-size="11.00" fill="#000000">1 &gt;</text>
</a>
</g>
</g>
<!-- container_legs&#45;&gt;public.vehicles -->
<g id="edge7" class="edge">
<title>container_legs:w&#45;&gt;public.vehicles:e</title>
<path fill="none" stroke="#000000" d="M343.0375,-357.0584C285.3149,-343.2632 362.7674,-237.3099 316,-174.5547 314.3497,-172.3402 312.5422,-170.2286 310.61,-168.2167"/>
<polygon fill="#000000" stroke="#000000" points="349.5425,-357.7314 357.1295,-362.1355 353.5212,-358.143 357.5,-358.5547 357.5,-358.5547 357.5,-358.5547 353.5212,-358.143 357.8705,-354.9738 349.5425,-357.7314 349.5425,-357.7314"/>
<ellipse fill="none" stroke="#000000" cx="346.3595" cy="-357.402" rx="3.2" ry="3.2"/>
</g>
<!-- public.carriers -->
<g id="node5" class="node">
<title>public.carriers</title>
<g id="a_node5"><a xlink:href="../../../public/tables/carriers.html" xlink:title="public.carriers" target="_top">
<polygon fill="#ffffff" stroke="transparent" points="8,-318.0547 8,-379.0547 129,-379.0547 129,-318.0547 8,-318.0547"/>
<polygon fill="#f5f5f5" stroke="transparent" points="8.5,-355.5547 8.5,-378.5547 129.5,-378.5547 129.5,-355.5547 8.5,-355.5547"/>
<polygon fill="none" stroke="#000000" points="8.5,-355.5547 8.5,-378.5547 129.5,-378.5547 129.5,-355.5547 8.5,-355.5547"/>
<text text-anchor="start" x="13.5" y="-364.1547" font-family="Helvetica,sans-Serif" font-weight="bold" font-size="11.00" fill="#000000">public.carriers</text>
<text text-anchor="start" x="95.0219" y="-363.6547" font-family="Helvetica,sans-Serif" font-size="11.00" fill="#000000">[table]</text>
<polygon fill="none" stroke="#000000" points="8.5,-336.5547 8.5,-355.5547 129.5,-355.5547 129.5,-336.5547 8.5,-336.5547"/>
<text text-anchor="start" x="11.5" y="-342.6547" font-family="Helvetica,sans-Serif" font-size="11.00" fill="#000000">...</text>
<polygon fill="#ffffff" stroke="transparent" points="8.5,-317.5547 8.5,-336.5547 45.5,-336.5547 45.5,-317.5547 8.5,-317.5547"/>
<polygon fill="none" stroke="#000000" points="8.5,-317.5547 8.5,-336.5547 45.5,-336.5547 45.5,-317.5547 8.5,-317.5547"/>
<text text-anchor="start" x="11.5" y="-323.6547" font-family="Helvetica,sans-Serif" font-size="11.00" fill="#000000"> &#160;</text>
<polygon fill="#ffffff" stroke="transparent" points="45.5,-317.5547 45.5,-336.5547 95.5,-336.5547 95.5,-317.5547 45.5,-317.5547"/>
<polygon fill="none" stroke="#000000" points="45.5,-317.5547 45.5,-336.5547 95.5,-336.5547 95.5,-317.5547 45.5,-317.5547"/>
<text text-anchor="start" x="60.1105" y="-323.6547" font-family="Helvetica,sans-Serif" font-size="11.00" fill="#000000">0 rows</text>
<polygon fill="#ffffff" stroke="transparent" points="95.5,-317.5547 95.5,-336.5547 129.5,-336.5547 129.5,-317.5547 95.5,-317.5547"/>
<polygon fill="none" stroke="#000000" points="95.5,-317.5547 95.5,-336.5547 129.5,-336.5547 129.5,-317.5547 95.5,-317.5547"/>
<text text-anchor="start" x="110.9053" y="-323.6547" font-family="Helvetica,sans-Serif" font-size="11.00" fill="#000000">2 &gt;</text>
</a>
</g>
</g>
<!-- container_legs&#45;&gt;public.carriers -->
<g id="edge1" class="edge">
<title>container_legs:w&#45;&gt;public.carriers:e</title>
<path fill="none" stroke="#000000" d="M342.9814,-380.5146C271.1622,-380.0961 247.8929,-376.344 170,-366.5547 159.3459,-365.2157 148.1104,-363.5156 137.1512,-361.6972"/>
<polygon fill="#000000" stroke="#000000" points="349.5,-380.5325 357.49,-384.1546 353.5,-380.5436 357.5,-380.5547 357.5,-380.5547 357.5,-380.5547 353.5,-380.5436 357.51,-376.9547 349.5,-380.5325 349.5,-380.5325"/>
<ellipse fill="none" stroke="#000000" cx="346.3" cy="-380.5236" rx="3.2" ry="3.2"/>
</g>
<!-- public.locations -->
<g id="node6" class="node">
<title>public.locations</title>
<g id="a_node6"><a xlink:href="../../../public/tables/locations.html" xlink:title="public.locations" target="_top">
<polygon fill="#ffffff" stroke="transparent" points="178,-405.0547 178,-466.0547 308,-466.0547 308,-405.0547 178,-405.0547"/>
<polygon fill="#f5f5f5" stroke="transparent" points="178,-442.5547 178,-465.5547 308,-465.5547 308,-442.5547 178,-442.5547"/>
<polygon fill="none" stroke="#000000" points="178,-442.5547 178,-465.5547 308,-465.5547 308,-442.5547 178,-442.5547"/>
<text text-anchor="start" x="183" y="-451.1547" font-family="Helvetica,sans-Serif" font-weight="bold" font-size="11.00" fill="#000000">public.locations</text>
<text text-anchor="start" x="273.5219" y="-450.6547" font-family="Helvetica,sans-Serif" font-size="11.00" fill="#000000">[table]</text>
<polygon fill="none" stroke="#000000" points="178,-423.5547 178,-442.5547 308,-442.5547 308,-423.5547 178,-423.5547"/>
<text text-anchor="start" x="181" y="-429.6547" font-family="Helvetica,sans-Serif" font-size="11.00" fill="#000000">...</text>
<polygon fill="#ffffff" stroke="transparent" points="178,-404.5547 178,-423.5547 219,-423.5547 219,-404.5547 178,-404.5547"/>
<polygon fill="none" stroke="#000000" points="178,-404.5547 178,-423.5547 219,-423.5547 219,-404.5547 178,-404.5547"/>
<text text-anchor="start" x="181" y="-410.6547" font-family="Helvetica,sans-Serif" font-size="11.00" fill="#000000"> &#160;</text>
<polygon fill="#ffffff" stroke="transparent" points="219,-404.5547 219,-423.5547 272,-423.5547 272,-404.5547 219,-404.5547"/>
<polygon fill="none" stroke="#000000" points="219,-404.5547 219,-423.5547 272,-423.5547 272,-404.5547 219,-404.5547"/>
<text text-anchor="start" x="236.6105" y="-410.6547" font-family="Helvetica,sans-Serif" font-size="11.00" fill="#000000">0 rows</text>
<polygon fill="#ffffff" stroke="transparent" points="272,-404.5547 272,-423.5547 308,-423.5547 308,-404.5547 272,-404.5547"/>
<polygon fill="none" stroke="#000000" points="272,-404.5547 272,-423.5547 308,-423.5547 308,-404.5547 272,-404.5547"/>
<text text-anchor="start" x="289.4053" y="-410.6547" font-family="Helvetica,sans-Serif" font-size="11.00" fill="#000000">2 &gt;</text>
</a>
</g>
</g>
<!-- container_legs&#45;&gt;public.locations -->
<g id="edge4" class="edge">
<title>container_legs:w&#45;&gt;public.locations:e</title>
<path fill="none" stroke="#000000" d="M342.9403,-403.3188C333.9229,-404.2282 324.8434,-405.8927 316.0294,-408.0039"/>
<polygon fill="#000000" stroke="#000000" points="349.511,-402.974 357.6887,-406.1497 353.5055,-402.7643 357.5,-402.5547 357.5,-402.5547 357.5,-402.5547 353.5055,-402.7643 357.3113,-398.9596 349.511,-402.974 349.511,-402.974"/>
<ellipse fill="none" stroke="#000000" cx="346.3154" cy="-403.1417" rx="3.2" ry="3.2"/>
</g>
<!-- container_legs&#45;&gt;public.locations -->
<g id="edge5" class="edge">
<title>container_legs:w&#45;&gt;public.locations:e</title>
<path fill="none" stroke="#000000" d="M342.8125,-424.8283C333.9667,-425.1426 324.9764,-425.7079 316.1981,-426.4207"/>
<polygon fill="#000000" stroke="#000000" points="349.5014,-424.7037 357.5671,-428.154 353.5007,-424.6292 357.5,-424.5547 357.5,-424.5547 357.5,-424.5547 353.5007,-424.6292 357.4329,-420.9553 349.5014,-424.7037 349.5014,-424.7037"/>
<ellipse fill="none" stroke="#000000" cx="346.3019" cy="-424.7633" rx="3.2" ry="3.2"/>
</g>
<!-- container_legs&#45;&gt;public.users -->
<g id="edge3" class="edge">
<title>container_legs:w&#45;&gt;public.users:e</title>
<path fill="none" stroke="#000000" d="M343.9442,-330.5018C312.7717,-295.9842 353.7575,-124.4325 316,-92.5547 266.4189,-50.6944 227.2225,-61.958 170,-92.5547 123.8287,-117.2422 95.0099,-173.2499 80.3557,-209.9484"/>
<polygon fill="#000000" stroke="#000000" points="350.1951,-333.2929 356.0322,-339.8419 353.8476,-334.9238 357.5,-336.5547 357.5,-336.5547 357.5,-336.5547 353.8476,-334.9238 358.9678,-333.2675 350.1951,-333.2929 350.1951,-333.2929"/>
<ellipse fill="none" stroke="#000000" cx="347.2732" cy="-331.9882" rx="3.2" ry="3.2"/>
</g>
<!-- container_legs&#45;&gt;public.users -->
<g id="edge6" class="edge">
<title>container_legs:w&#45;&gt;public.users:e</title>
<path fill="none" stroke="#000000" d="M343.9687,-308.7624C311.2053,-274.2118 355.0437,-95.6944 316,-62.5547 266.529,-20.5643 225.9527,-29.6933 170,-62.5547 115.8743,-94.343 88.4929,-166.6402 76.466,-209.9366"/>
<polygon fill="#000000" stroke="#000000" points="350.1455,-311.4064 356.0833,-317.8642 353.8227,-312.9805 357.5,-314.5547 357.5,-314.5547 357.5,-314.5547 353.8227,-312.9805 358.9167,-311.2451 350.1455,-311.4064 350.1455,-311.4064"/>
<ellipse fill="none" stroke="#000000" cx="347.2037" cy="-310.1471" rx="3.2" ry="3.2"/>
</g>
<!-- freight_bills -->
<g id="node3" class="node">
<title>freight_bills</title>
<g id="a_node3"><a xlink:href="../../tables/freight_bills.html" xlink:title="freight_bills" target="_top">
<polygon fill="#ffffff" stroke="transparent" points="189.5,-185.0547 189.5,-356.0547 296.5,-356.0547 296.5,-185.0547 189.5,-185.0547"/>
<polygon fill="#f5f5f5" stroke="transparent" points="190,-332.5547 190,-355.5547 297,-355.5547 297,-332.5547 190,-332.5547"/>
<polygon fill="none" stroke="#000000" points="190,-332.5547 190,-355.5547 297,-355.5547 297,-332.5547 190,-332.5547"/>
<text text-anchor="start" x="195" y="-341.1547" font-family="Helvetica,sans-Serif" font-weight="bold" font-size="11.00" fill="#000000">freight_bills</text>
<text text-anchor="start" x="262.5219" y="-340.6547" font-family="Helvetica,sans-Serif" font-size="11.00" fill="#000000">[table]</text>
<polygon fill="none" stroke="#000000" points="190,-310.5547 190,-332.5547 297,-332.5547 297,-310.5547 190,-310.5547"/>
<image xlink:href="../../images/primaryKeys.png" width="11px" height="12px" preserveAspectRatio="xMinYMin meet" x="195" y="-327.555"/>
<text text-anchor="start" x="211" y="-317.6547" font-family="Helvetica,sans-Serif" font-size="11.00" fill="#000000">freight_bill_id</text>
<polygon fill="none" stroke="#000000" points="190,-288.5547 190,-310.5547 297,-310.5547 297,-288.5547 190,-288.5547"/>
<image xlink:href="../../images/foreignKeys.png" width="11px" height="12px" preserveAspectRatio="xMinYMin meet" x="195" y="-305.555"/>
<text text-anchor="start" x="211" y="-295.6547" font-family="Helvetica,sans-Serif" font-size="11.00" fill="#000000">carrier_id</text>
<polygon fill="#ffffff" stroke="transparent" points="190,-266.5547 190,-288.5547 297,-288.5547 297,-266.5547 190,-266.5547"/>
<polygon fill="none" stroke="#000000" points="190,-266.5547 190,-288.5547 297,-288.5547 297,-266.5547 190,-266.5547"/>
<text text-anchor="start" x="211" y="-273.6547" font-family="Helvetica,sans-Serif" font-size="11.00" fill="#000000">bill_number</text>
<polygon fill="none" stroke="#000000" points="190,-244.5547 190,-266.5547 297,-266.5547 297,-244.5547 190,-244.5547"/>
<image xlink:href="../../images/foreignKeys.png" width="11px" height="12px" preserveAspectRatio="xMinYMin meet" x="195" y="-261.555"/>
<text text-anchor="start" x="211" y="-251.6547" font-family="Helvetica,sans-Serif" font-size="11.00" fill="#000000">created_by</text>
<polygon fill="none" stroke="#000000" points="190,-222.5547 190,-244.5547 297,-244.5547 297,-222.5547 190,-222.5547"/>
<image xlink:href="../../images/foreignKeys.png" width="11px" height="12px" preserveAspectRatio="xMinYMin meet" x="195" y="-239.555"/>
<text text-anchor="start" x="211" y="-229.6547" font-family="Helvetica,sans-Serif" font-size="11.00" fill="#000000">updated_by</text>
<polygon fill="none" stroke="#000000" points="190,-203.5547 190,-222.5547 297,-222.5547 297,-203.5547 190,-203.5547"/>
<text text-anchor="start" x="193" y="-209.6547" font-family="Helvetica,sans-Serif" font-size="11.00" fill="#000000">...</text>
<polygon fill="#ffffff" stroke="transparent" points="190,-184.5547 190,-203.5547 242,-203.5547 242,-184.5547 190,-184.5547"/>
<polygon fill="none" stroke="#000000" points="190,-184.5547 190,-203.5547 242,-203.5547 242,-184.5547 190,-184.5547"/>
<text text-anchor="start" x="193" y="-190.6547" font-family="Helvetica,sans-Serif" font-size="11.00" fill="#000000">&lt; 3</text>
<polygon fill="#ffffff" stroke="transparent" points="242,-184.5547 242,-203.5547 269,-203.5547 269,-184.5547 242,-184.5547"/>
<polygon fill="none" stroke="#000000" points="242,-184.5547 242,-203.5547 269,-203.5547 269,-184.5547 242,-184.5547"/>
<text text-anchor="start" x="259.8862" y="-190.6547" font-family="Helvetica,sans-Serif" font-size="11.00" fill="#000000"> &#160;</text>
<polygon fill="#ffffff" stroke="transparent" points="269,-184.5547 269,-203.5547 297,-203.5547 297,-184.5547 269,-184.5547"/>
<polygon fill="none" stroke="#000000" points="269,-184.5547 269,-203.5547 297,-203.5547 297,-184.5547 269,-184.5547"/>
<text text-anchor="start" x="287.8862" y="-190.6547" font-family="Helvetica,sans-Serif" font-size="11.00" fill="#000000"> &#160;</text>
</a>
</g>
</g>
<!-- freight_bills&#45;&gt;public.carriers -->
<g id="edge12" class="edge">
<title>freight_bills:w&#45;&gt;public.carriers:e</title>
<path fill="none" stroke="#000000" d="M175.2205,-300.539C159.0992,-302.6188 143.0314,-307.7834 128.4403,-313.9912"/>
<polygon fill="#000000" stroke="#000000" points="182.0177,-300.0863 190.2393,-303.1467 186.0088,-299.8205 190,-299.5547 190,-299.5547 190,-299.5547 186.0088,-299.8205 189.7607,-295.9626 182.0177,-300.0863 182.0177,-300.0863"/>
<ellipse fill="none" stroke="#000000" cx="178.8248" cy="-300.299" rx="3.2" ry="3.2"/>
</g>
<!-- freight_bills&#45;&gt;public.users -->
<g id="edge13" class="edge">
<title>freight_bills:w&#45;&gt;public.users:e</title>
<path fill="none" stroke="#000000" d="M175.3735,-255.3121C160.552,-254.8421 145.3116,-253.7356 131.1497,-252.4025"/>
<polygon fill="#000000" stroke="#000000" points="182.0011,-255.4219 189.9403,-259.1542 186.0005,-255.4883 190,-255.5547 190,-255.5547 190,-255.5547 186.0005,-255.4883 190.0597,-251.9552 182.0011,-255.4219 182.0011,-255.4219"/>
<ellipse fill="none" stroke="#000000" cx="178.8015" cy="-255.3689" rx="3.2" ry="3.2"/>
</g>
<!-- freight_bills&#45;&gt;public.users -->
<g id="edge14" class="edge">
<title>freight_bills:w&#45;&gt;public.users:e</title>
<path fill="none" stroke="#000000" d="M175.3735,-233.7972C160.552,-234.2672 145.3116,-235.3737 131.1497,-236.7068"/>
<polygon fill="#000000" stroke="#000000" points="182.0011,-233.6874 190.0597,-237.1542 186.0005,-233.621 190,-233.5547 190,-233.5547 190,-233.5547 186.0005,-233.621 189.9403,-229.9552 182.0011,-233.6874 182.0011,-233.6874"/>
<ellipse fill="none" stroke="#000000" cx="178.8015" cy="-233.7404" rx="3.2" ry="3.2"/>
</g>
</g>
</svg>
