<?xml version="1.0" encoding="UTF-8" standalone="no"?>
<!DOCTYPE svg PUBLIC "-//W3C//DTD SVG 1.1//EN"
 "http://www.w3.org/Graphics/SVG/1.1/DTD/svg11.dtd">
<!-- Generated by graphviz version 2.40.1 (20161225.0304)
 -->
<!-- Title: largeRelationshipsDiagram Pages: 1 -->
<svg width="429pt" height="1535pt"
 viewBox="0.00 0.00 429.00 1535.20" xmlns="http://www.w3.org/2000/svg" xmlns:xlink="http://www.w3.org/1999/xlink">
<g id="graph0" class="graph" transform="scale(1 1) rotate(0) translate(4 1531.2)">
<title>largeRelationshipsDiagram</title>
<polygon fill="#ffffff" stroke="transparent" points="-4,4 -4,-1531.2 425,-1531.2 425,4 -4,4"/>
<text text-anchor="middle" x="72.4936" y="-7.3" font-family="Helvetica,sans-Serif" font-size="11.00" fill="#000000">Generated by SchemaSpy</text>
<!-- order_allocations -->
<g id="node1" class="node">
<title>order_allocations</title>
<g id="a_node1"><a xlink:href="../../tables/order_allocations.html" xlink:title="order_allocations" target="_top">
<polygon fill="#ffffff" stroke="transparent" points="255,-258.2 255,-476.2 402,-476.2 402,-258.2 255,-258.2"/>
<polygon fill="#f5f5f5" stroke="transparent" points="255.5,-453.2 255.5,-476.2 402.5,-476.2 402.5,-453.2 255.5,-453.2"/>
<polygon fill="none" stroke="#000000" points="255.5,-453.2 255.5,-476.2 402.5,-476.2 402.5,-453.2 255.5,-453.2"/>
<text text-anchor="start" x="260.5" y="-461.8" font-family="Helvetica,sans-Serif" font-weight="bold" font-size="11.00" fill="#000000">order_allocations</text>
<text text-anchor="start" x="367.5437" y="-461.3" font-family="Helvetica,sans-Serif" font-size="11.00" fill="#000000">[table]</text>
<polygon fill="none" stroke="#000000" points="255.5,-431.2 255.5,-453.2 402.5,-453.2 402.5,-431.2 255.5,-431.2"/>
<image xlink:href="../../images/primaryKeys.png" width="11px" height="12px" preserveAspectRatio="xMinYMin meet" x="260.5" y="-448.2"/>
<text text-anchor="start" x="275.5" y="-438.3" font-family="Helvetica,sans-Serif" font-size="11.00" fill="#000000">allocation_id</text>
<polygon fill="none" stroke="#000000" points="255.5,-409.2 255.5,-431.2 402.5,-431.2 402.5,-409.2 255.5,-409.2"/>
<image xlink:href="../../images/foreignKeys.png" width="11px" height="12px" preserveAspectRatio="xMinYMin meet" x="260.5" y="-426.2"/>
<text text-anchor="start" x="275.5" y="-416.3" font-family="Helvetica,sans-Serif" font-size="11.00" fill="#000000">order_id</text>
<polygon fill="none" stroke="#000000" points="255.5,-387.2 255.5,-409.2 402.5,-409.2 402.5,-387.2 255.5,-387.2"/>
<text text-anchor="start" x="275.5" y="-394.3" font-family="Helvetica,sans-Serif" font-size="11.00" fill="#000000">allocation_entity_type</text>
<polygon fill="none" stroke="#000000" points="255.5,-365.2 255.5,-387.2 402.5,-387.2 402.5,-365.2 255.5,-365.2"/>
<text text-anchor="start" x="275.5" y="-372.3" font-family="Helvetica,sans-Serif" font-size="11.00" fill="#000000">notes</text>
<polygon fill="none" stroke="#000000" points="255.5,-343.2 255.5,-365.2 402.5,-365.2 402.5,-343.2 255.5,-343.2"/>
<text text-anchor="start" x="275.5" y="-350.3" font-family="Helvetica,sans-Serif" font-size="11.00" fill="#000000">created_at</text>
<polygon fill="none" stroke="#000000" points="255.5,-321.2 255.5,-343.2 402.5,-343.2 402.5,-321.2 255.5,-321.2"/>
<text text-anchor="start" x="275.5" y="-328.3" font-family="Helvetica,sans-Serif" font-size="11.00" fill="#000000">updated_at</text>
<polygon fill="none" stroke="#000000" points="255.5,-299.2 255.5,-321.2 402.5,-321.2 402.5,-299.2 255.5,-299.2"/>
<image xlink:href="../../images/foreignKeys.png" width="11px" height="12px" preserveAspectRatio="xMinYMin meet" x="260.5" y="-316.2"/>
<text text-anchor="start" x="275.5" y="-306.3" font-family="Helvetica,sans-Serif" font-size="11.00" fill="#000000">created_by</text>
<polygon fill="none" stroke="#000000" points="255.5,-277.2 255.5,-299.2 402.5,-299.2 402.5,-277.2 255.5,-277.2"/>
<image xlink:href="../../images/foreignKeys.png" width="11px" height="12px" preserveAspectRatio="xMinYMin meet" x="260.5" y="-294.2"/>
<text text-anchor="start" x="275.5" y="-284.3" font-family="Helvetica,sans-Serif" font-size="11.00" fill="#000000">updated_by</text>
<polygon fill="#ffffff" stroke="transparent" points="255.5,-258.2 255.5,-277.2 327.5,-277.2 327.5,-258.2 255.5,-258.2"/>
<polygon fill="none" stroke="#000000" points="255.5,-258.2 255.5,-277.2 327.5,-277.2 327.5,-258.2 255.5,-258.2"/>
<text text-anchor="start" x="258.5" y="-264.3" font-family="Helvetica,sans-Serif" font-size="11.00" fill="#000000">&lt; 3</text>
<polygon fill="#ffffff" stroke="transparent" points="327.5,-258.2 327.5,-277.2 364.5,-277.2 364.5,-258.2 327.5,-258.2"/>
<polygon fill="none" stroke="#000000" points="327.5,-258.2 327.5,-277.2 364.5,-277.2 364.5,-258.2 327.5,-258.2"/>
<text text-anchor="start" x="355.3862" y="-264.3" font-family="Helvetica,sans-Serif" font-size="11.00" fill="#000000"> &#160;</text>
<polygon fill="#ffffff" stroke="transparent" points="364.5,-258.2 364.5,-277.2 402.5,-277.2 402.5,-258.2 364.5,-258.2"/>
<polygon fill="none" stroke="#000000" points="364.5,-258.2 364.5,-277.2 402.5,-277.2 402.5,-258.2 364.5,-258.2"/>
<text text-anchor="start" x="393.3862" y="-264.3" font-family="Helvetica,sans-Serif" font-size="11.00" fill="#000000"> &#160;</text>
</a>
</g>
</g>
<!-- public.orders -->
<g id="node6" class="node">
<title>public.orders</title>
<g id="a_node6"><a xlink:href="../../../public/tables/orders.html" xlink:title="public.orders" target="_top">
<polygon fill="#ffffff" stroke="transparent" points="41,-409.2 41,-847.2 162,-847.2 162,-409.2 41,-409.2"/>
<polygon fill="#f5f5f5" stroke="transparent" points="41.5,-824.2 41.5,-847.2 162.5,-847.2 162.5,-824.2 41.5,-824.2"/>
<polygon fill="none" stroke="#000000" points="41.5,-824.2 41.5,-847.2 162.5,-847.2 162.5,-824.2 41.5,-824.2"/>
<text text-anchor="start" x="46.5" y="-832.8" font-family="Helvetica,sans-Serif" font-weight="bold" font-size="11.00" fill="#000000">public.orders</text>
<text text-anchor="start" x="127.5437" y="-832.3" font-family="Helvetica,sans-Serif" font-size="11.00" fill="#000000">[table]</text>
<polygon fill="none" stroke="#000000" points="41.5,-802.2 41.5,-824.2 162.5,-824.2 162.5,-802.2 41.5,-802.2"/>
<text text-anchor="start" x="61.5" y="-809.3" font-family="Helvetica,sans-Serif" font-size="11.00" fill="#000000">order_id</text>
<polygon fill="none" stroke="#000000" points="41.5,-780.2 41.5,-802.2 162.5,-802.2 162.5,-780.2 41.5,-780.2"/>
<text text-anchor="start" x="61.5" y="-787.3" font-family="Helvetica,sans-Serif" font-size="11.00" fill="#000000">order_number</text>
<polygon fill="none" stroke="#000000" points="41.5,-758.2 41.5,-780.2 162.5,-780.2 162.5,-758.2 41.5,-758.2"/>
<text text-anchor="start" x="61.5" y="-765.3" font-family="Helvetica,sans-Serif" font-size="11.00" fill="#000000">customer_id</text>
<polygon fill="none" stroke="#000000" points="41.5,-736.2 41.5,-758.2 162.5,-758.2 162.5,-736.2 41.5,-736.2"/>
<text text-anchor="start" x="61.5" y="-743.3" font-family="Helvetica,sans-Serif" font-size="11.00" fill="#000000">user_id</text>
<polygon fill="none" stroke="#000000" points="41.5,-714.2 41.5,-736.2 162.5,-736.2 162.5,-714.2 41.5,-714.2"/>
<text text-anchor="start" x="61.5" y="-721.3" font-family="Helvetica,sans-Serif" font-size="11.00" fill="#000000">order_date</text>
<polygon fill="none" stroke="#000000" points="41.5,-692.2 41.5,-714.2 162.5,-714.2 162.5,-692.2 41.5,-692.2"/>
<text text-anchor="start" x="61.5" y="-699.3" font-family="Helvetica,sans-Serif" font-size="11.00" fill="#000000">status</text>
<polygon fill="none" stroke="#000000" points="41.5,-670.2 41.5,-692.2 162.5,-692.2 162.5,-670.2 41.5,-670.2"/>
<text text-anchor="start" x="61.5" y="-677.3" font-family="Helvetica,sans-Serif" font-size="11.00" fill="#000000">total_amount</text>
<polygon fill="none" stroke="#000000" points="41.5,-648.2 41.5,-670.2 162.5,-670.2 162.5,-648.2 41.5,-648.2"/>
<text text-anchor="start" x="61.5" y="-655.3" font-family="Helvetica,sans-Serif" font-size="11.00" fill="#000000">discount_amount</text>
<polygon fill="none" stroke="#000000" points="41.5,-626.2 41.5,-648.2 162.5,-648.2 162.5,-626.2 41.5,-626.2"/>
<text text-anchor="start" x="61.5" y="-633.3" font-family="Helvetica,sans-Serif" font-size="11.00" fill="#000000">tax_amount</text>
<polygon fill="none" stroke="#000000" points="41.5,-604.2 41.5,-626.2 162.5,-626.2 162.5,-604.2 41.5,-604.2"/>
<text text-anchor="start" x="61.5" y="-611.3" font-family="Helvetica,sans-Serif" font-size="11.00" fill="#000000">final_amount</text>
<polygon fill="none" stroke="#000000" points="41.5,-582.2 41.5,-604.2 162.5,-604.2 162.5,-582.2 41.5,-582.2"/>
<text text-anchor="start" x="61.5" y="-589.3" font-family="Helvetica,sans-Serif" font-size="11.00" fill="#000000">notes</text>
<polygon fill="none" stroke="#000000" points="41.5,-560.2 41.5,-582.2 162.5,-582.2 162.5,-560.2 41.5,-560.2"/>
<text text-anchor="start" x="61.5" y="-567.3" font-family="Helvetica,sans-Serif" font-size="11.00" fill="#000000">created_at</text>
<polygon fill="none" stroke="#000000" points="41.5,-538.2 41.5,-560.2 162.5,-560.2 162.5,-538.2 41.5,-538.2"/>
<text text-anchor="start" x="61.5" y="-545.3" font-family="Helvetica,sans-Serif" font-size="11.00" fill="#000000">updated_at</text>
<polygon fill="none" stroke="#000000" points="41.5,-516.2 41.5,-538.2 162.5,-538.2 162.5,-516.2 41.5,-516.2"/>
<text text-anchor="start" x="61.5" y="-523.3" font-family="Helvetica,sans-Serif" font-size="11.00" fill="#000000">eta_date</text>
<polygon fill="none" stroke="#000000" points="41.5,-494.2 41.5,-516.2 162.5,-516.2 162.5,-494.2 41.5,-494.2"/>
<text text-anchor="start" x="61.5" y="-501.3" font-family="Helvetica,sans-Serif" font-size="11.00" fill="#000000">lfd_date</text>
<polygon fill="none" stroke="#000000" points="41.5,-472.2 41.5,-494.2 162.5,-494.2 162.5,-472.2 41.5,-472.2"/>
<text text-anchor="start" x="61.5" y="-479.3" font-family="Helvetica,sans-Serif" font-size="11.00" fill="#000000">pickup_date</text>
<polygon fill="none" stroke="#000000" points="41.5,-450.2 41.5,-472.2 162.5,-472.2 162.5,-450.2 41.5,-450.2"/>
<text text-anchor="start" x="61.5" y="-457.3" font-family="Helvetica,sans-Serif" font-size="11.00" fill="#000000">created_by</text>
<polygon fill="none" stroke="#000000" points="41.5,-428.2 41.5,-450.2 162.5,-450.2 162.5,-428.2 41.5,-428.2"/>
<text text-anchor="start" x="61.5" y="-435.3" font-family="Helvetica,sans-Serif" font-size="11.00" fill="#000000">updated_by</text>
<polygon fill="#ffffff" stroke="transparent" points="41.5,-409.2 41.5,-428.2 78.5,-428.2 78.5,-409.2 41.5,-409.2"/>
<polygon fill="none" stroke="#000000" points="41.5,-409.2 41.5,-428.2 78.5,-428.2 78.5,-409.2 41.5,-409.2"/>
<text text-anchor="start" x="44.5" y="-415.3" font-family="Helvetica,sans-Serif" font-size="11.00" fill="#000000"> &#160;</text>
<polygon fill="#ffffff" stroke="transparent" points="78.5,-409.2 78.5,-428.2 128.5,-428.2 128.5,-409.2 78.5,-409.2"/>
<polygon fill="none" stroke="#000000" points="78.5,-409.2 78.5,-428.2 128.5,-428.2 128.5,-409.2 78.5,-409.2"/>
<text text-anchor="start" x="93.1105" y="-415.3" font-family="Helvetica,sans-Serif" font-size="11.00" fill="#000000">0 rows</text>
<polygon fill="#ffffff" stroke="transparent" points="128.5,-409.2 128.5,-428.2 162.5,-428.2 162.5,-409.2 128.5,-409.2"/>
<polygon fill="none" stroke="#000000" points="128.5,-409.2 128.5,-428.2 162.5,-428.2 162.5,-409.2 128.5,-409.2"/>
<text text-anchor="start" x="143.9053" y="-415.3" font-family="Helvetica,sans-Serif" font-size="11.00" fill="#000000">3 &gt;</text>
</a>
</g>
</g>
<!-- order_allocations&#45;&gt;public.orders -->
<g id="edge7" class="edge">
<title>order_allocations:w&#45;&gt;public.orders:e</title>
<path fill="none" stroke="#000000" d="M240.8491,-421.1922C91.2119,-442.89 336.7321,-813.2 162.5,-813.2"/>
<polygon fill="#000000" stroke="#000000" points="247.5183,-420.7406 255.7433,-423.7918 251.5091,-420.4703 255.5,-420.2 255.5,-420.2 255.5,-420.2 251.5091,-420.4703 255.2567,-416.6082 247.5183,-420.7406 247.5183,-420.7406"/>
<ellipse fill="none" stroke="#000000" cx="244.3256" cy="-420.9568" rx="3.2" ry="3.2"/>
</g>
<!-- public.users -->
<g id="node7" class="node">
<title>public.users</title>
<g id="a_node7"><a xlink:href="../../../public/tables/users.html" xlink:title="public.users" target="_top">
<polygon fill="#ffffff" stroke="transparent" points="46,-38.2 46,-388.2 157,-388.2 157,-38.2 46,-38.2"/>
<polygon fill="#f5f5f5" stroke="transparent" points="46.5,-365.2 46.5,-388.2 157.5,-388.2 157.5,-365.2 46.5,-365.2"/>
<polygon fill="none" stroke="#000000" points="46.5,-365.2 46.5,-388.2 157.5,-388.2 157.5,-365.2 46.5,-365.2"/>
<text text-anchor="start" x="51.5" y="-373.8" font-family="Helvetica,sans-Serif" font-weight="bold" font-size="11.00" fill="#000000">public.users</text>
<text text-anchor="start" x="122.5437" y="-373.3" font-family="Helvetica,sans-Serif" font-size="11.00" fill="#000000">[table]</text>
<polygon fill="none" stroke="#000000" points="46.5,-343.2 46.5,-365.2 157.5,-365.2 157.5,-343.2 46.5,-343.2"/>
<text text-anchor="start" x="66.5" y="-350.3" font-family="Helvetica,sans-Serif" font-size="11.00" fill="#000000">id</text>
<polygon fill="none" stroke="#000000" points="46.5,-321.2 46.5,-343.2 157.5,-343.2 157.5,-321.2 46.5,-321.2"/>
<text text-anchor="start" x="66.5" y="-328.3" font-family="Helvetica,sans-Serif" font-size="11.00" fill="#000000">username</text>
<polygon fill="none" stroke="#000000" points="46.5,-299.2 46.5,-321.2 157.5,-321.2 157.5,-299.2 46.5,-299.2"/>
<text text-anchor="start" x="66.5" y="-306.3" font-family="Helvetica,sans-Serif" font-size="11.00" fill="#000000">email</text>
<polygon fill="none" stroke="#000000" points="46.5,-277.2 46.5,-299.2 157.5,-299.2 157.5,-277.2 46.5,-277.2"/>
<text text-anchor="start" x="66.5" y="-284.3" font-family="Helvetica,sans-Serif" font-size="11.00" fill="#000000">password_hash</text>
<polygon fill="none" stroke="#000000" points="46.5,-255.2 46.5,-277.2 157.5,-277.2 157.5,-255.2 46.5,-255.2"/>
<text text-anchor="start" x="66.5" y="-262.3" font-family="Helvetica,sans-Serif" font-size="11.00" fill="#000000">full_name</text>
<polygon fill="none" stroke="#000000" points="46.5,-233.2 46.5,-255.2 157.5,-255.2 157.5,-233.2 46.5,-233.2"/>
<text text-anchor="start" x="66.5" y="-240.3" font-family="Helvetica,sans-Serif" font-size="11.00" fill="#000000">department_id</text>
<polygon fill="none" stroke="#000000" points="46.5,-211.2 46.5,-233.2 157.5,-233.2 157.5,-211.2 46.5,-211.2"/>
<text text-anchor="start" x="66.5" y="-218.3" font-family="Helvetica,sans-Serif" font-size="11.00" fill="#000000">role</text>
<polygon fill="none" stroke="#000000" points="46.5,-189.2 46.5,-211.2 157.5,-211.2 157.5,-189.2 46.5,-189.2"/>
<text text-anchor="start" x="66.5" y="-196.3" font-family="Helvetica,sans-Serif" font-size="11.00" fill="#000000">status</text>
<polygon fill="none" stroke="#000000" points="46.5,-167.2 46.5,-189.2 157.5,-189.2 157.5,-167.2 46.5,-167.2"/>
<text text-anchor="start" x="66.5" y="-174.3" font-family="Helvetica,sans-Serif" font-size="11.00" fill="#000000">phone</text>
<polygon fill="none" stroke="#000000" points="46.5,-145.2 46.5,-167.2 157.5,-167.2 157.5,-145.2 46.5,-145.2"/>
<text text-anchor="start" x="66.5" y="-152.3" font-family="Helvetica,sans-Serif" font-size="11.00" fill="#000000">avatar_url</text>
<polygon fill="none" stroke="#000000" points="46.5,-123.2 46.5,-145.2 157.5,-145.2 157.5,-123.2 46.5,-123.2"/>
<text text-anchor="start" x="66.5" y="-130.3" font-family="Helvetica,sans-Serif" font-size="11.00" fill="#000000">created_at</text>
<polygon fill="none" stroke="#000000" points="46.5,-101.2 46.5,-123.2 157.5,-123.2 157.5,-101.2 46.5,-101.2"/>
<text text-anchor="start" x="66.5" y="-108.3" font-family="Helvetica,sans-Serif" font-size="11.00" fill="#000000">updated_at</text>
<polygon fill="none" stroke="#000000" points="46.5,-79.2 46.5,-101.2 157.5,-101.2 157.5,-79.2 46.5,-79.2"/>
<text text-anchor="start" x="66.5" y="-86.3" font-family="Helvetica,sans-Serif" font-size="11.00" fill="#000000">created_by</text>
<polygon fill="none" stroke="#000000" points="46.5,-57.2 46.5,-79.2 157.5,-79.2 157.5,-57.2 46.5,-57.2"/>
<text text-anchor="start" x="66.5" y="-64.3" font-family="Helvetica,sans-Serif" font-size="11.00" fill="#000000">updated_by</text>
<polygon fill="#ffffff" stroke="transparent" points="46.5,-38.2 46.5,-57.2 78.5,-57.2 78.5,-38.2 46.5,-38.2"/>
<polygon fill="none" stroke="#000000" points="46.5,-38.2 46.5,-57.2 78.5,-57.2 78.5,-38.2 46.5,-38.2"/>
<text text-anchor="start" x="49.5" y="-44.3" font-family="Helvetica,sans-Serif" font-size="11.00" fill="#000000"> &#160;</text>
<polygon fill="#ffffff" stroke="transparent" points="78.5,-38.2 78.5,-57.2 126.5,-57.2 126.5,-38.2 78.5,-38.2"/>
<polygon fill="none" stroke="#000000" points="78.5,-38.2 78.5,-57.2 126.5,-57.2 126.5,-38.2 78.5,-38.2"/>
<text text-anchor="start" x="91.1105" y="-44.3" font-family="Helvetica,sans-Serif" font-size="11.00" fill="#000000">0 rows</text>
<polygon fill="#ffffff" stroke="transparent" points="126.5,-38.2 126.5,-57.2 157.5,-57.2 157.5,-38.2 126.5,-38.2"/>
<polygon fill="none" stroke="#000000" points="126.5,-38.2 126.5,-57.2 157.5,-57.2 157.5,-38.2 126.5,-38.2"/>
<text text-anchor="start" x="138.9053" y="-44.3" font-family="Helvetica,sans-Serif" font-size="11.00" fill="#000000">6 &gt;</text>
</a>
</g>
</g>
<!-- order_allocations&#45;&gt;public.users -->
<g id="edge6" class="edge">
<title>order_allocations:w&#45;&gt;public.users:e</title>
<path fill="none" stroke="#000000" d="M240.8843,-311.766C206.6063,-319.6041 199.8357,-354.2 157.5,-354.2"/>
<polygon fill="#000000" stroke="#000000" points="247.5455,-311.0523 255.8835,-313.7795 251.5228,-310.6262 255.5,-310.2 255.5,-310.2 255.5,-310.2 251.5228,-310.6262 255.1165,-306.6205 247.5455,-311.0523 247.5455,-311.0523"/>
<ellipse fill="none" stroke="#000000" cx="244.3637" cy="-311.3932" rx="3.2" ry="3.2"/>
</g>
<!-- order_allocations&#45;&gt;public.users -->
<g id="edge8" class="edge">
<title>order_allocations:w&#45;&gt;public.users:e</title>
<path fill="none" stroke="#000000" d="M241.2178,-290.1041C203.8005,-300.9255 204.6789,-354.2 157.5,-354.2"/>
<polygon fill="#000000" stroke="#000000" points="247.5702,-289.2572 255.9758,-291.7684 251.5351,-288.7286 255.5,-288.2 255.5,-288.2 255.5,-288.2 251.5351,-288.7286 255.0242,-284.6316 247.5702,-289.2572 247.5702,-289.2572"/>
<ellipse fill="none" stroke="#000000" cx="244.3982" cy="-289.6801" rx="3.2" ry="3.2"/>
</g>
<!-- delivery_appointments -->
<g id="node2" class="node">
<title>delivery_appointments</title>
<g id="a_node2"><a xlink:href="../../tables/delivery_appointments.html" xlink:title="delivery_appointments" target="_top">
<polygon fill="#ffffff" stroke="transparent" points="244,-758.2 244,-1130.2 413,-1130.2 413,-758.2 244,-758.2"/>
<polygon fill="#f5f5f5" stroke="transparent" points="244.5,-1107.2 244.5,-1130.2 413.5,-1130.2 413.5,-1107.2 244.5,-1107.2"/>
<polygon fill="none" stroke="#000000" points="244.5,-1107.2 244.5,-1130.2 413.5,-1130.2 413.5,-1107.2 244.5,-1107.2"/>
<text text-anchor="start" x="249.5" y="-1115.8" font-family="Helvetica,sans-Serif" font-weight="bold" font-size="11.00" fill="#000000">delivery_appointments</text>
<text text-anchor="start" x="379.0219" y="-1115.3" font-family="Helvetica,sans-Serif" font-size="11.00" fill="#000000">[table]</text>
<polygon fill="none" stroke="#000000" points="244.5,-1085.2 244.5,-1107.2 413.5,-1107.2 413.5,-1085.2 244.5,-1085.2"/>
<image xlink:href="../../images/primaryKeys.png" width="11px" height="12px" preserveAspectRatio="xMinYMin meet" x="249.5" y="-1102.2"/>
<text text-anchor="start" x="269.5" y="-1092.3" font-family="Helvetica,sans-Serif" font-size="11.00" fill="#000000">appointment_id</text>
<polygon fill="none" stroke="#000000" points="244.5,-1063.2 244.5,-1085.2 413.5,-1085.2 413.5,-1063.2 244.5,-1063.2"/>
<image xlink:href="../../images/foreignKeys.png" width="11px" height="12px" preserveAspectRatio="xMinYMin meet" x="249.5" y="-1080.2"/>
<text text-anchor="start" x="269.5" y="-1070.3" font-family="Helvetica,sans-Serif" font-size="11.00" fill="#000000">order_id</text>
<polygon fill="none" stroke="#000000" points="244.5,-1041.2 244.5,-1063.2 413.5,-1063.2 413.5,-1041.2 244.5,-1041.2"/>
<image xlink:href="../../images/foreignKeys.png" width="11px" height="12px" preserveAspectRatio="xMinYMin meet" x="249.5" y="-1058.2"/>
<text text-anchor="start" x="269.5" y="-1048.3" font-family="Helvetica,sans-Serif" font-size="11.00" fill="#000000">location_id</text>
<polygon fill="none" stroke="#000000" points="244.5,-1019.2 244.5,-1041.2 413.5,-1041.2 413.5,-1019.2 244.5,-1019.2"/>
<image xlink:href="../../images/foreignKeys.png" width="11px" height="12px" preserveAspectRatio="xMinYMin meet" x="249.5" y="-1036.2"/>
<text text-anchor="start" x="269.5" y="-1026.3" font-family="Helvetica,sans-Serif" font-size="11.00" fill="#000000">appointment_type_code</text>
<polygon fill="none" stroke="#000000" points="244.5,-997.2 244.5,-1019.2 413.5,-1019.2 413.5,-997.2 244.5,-997.2"/>
<text text-anchor="start" x="269.5" y="-1004.3" font-family="Helvetica,sans-Serif" font-size="11.00" fill="#000000">requested_start</text>
<polygon fill="none" stroke="#000000" points="244.5,-975.2 244.5,-997.2 413.5,-997.2 413.5,-975.2 244.5,-975.2"/>
<text text-anchor="start" x="269.5" y="-982.3" font-family="Helvetica,sans-Serif" font-size="11.00" fill="#000000">requested_end</text>
<polygon fill="none" stroke="#000000" points="244.5,-953.2 244.5,-975.2 413.5,-975.2 413.5,-953.2 244.5,-953.2"/>
<text text-anchor="start" x="269.5" y="-960.3" font-family="Helvetica,sans-Serif" font-size="11.00" fill="#000000">confirmed_start</text>
<polygon fill="none" stroke="#000000" points="244.5,-931.2 244.5,-953.2 413.5,-953.2 413.5,-931.2 244.5,-931.2"/>
<text text-anchor="start" x="269.5" y="-938.3" font-family="Helvetica,sans-Serif" font-size="11.00" fill="#000000">confirmed_end</text>
<polygon fill="none" stroke="#000000" points="244.5,-909.2 244.5,-931.2 413.5,-931.2 413.5,-909.2 244.5,-909.2"/>
<text text-anchor="start" x="269.5" y="-916.3" font-family="Helvetica,sans-Serif" font-size="11.00" fill="#000000">status</text>
<polygon fill="none" stroke="#000000" points="244.5,-887.2 244.5,-909.2 413.5,-909.2 413.5,-887.2 244.5,-887.2"/>
<text text-anchor="start" x="269.5" y="-894.3" font-family="Helvetica,sans-Serif" font-size="11.00" fill="#000000">reference_number</text>
<polygon fill="none" stroke="#000000" points="244.5,-865.2 244.5,-887.2 413.5,-887.2 413.5,-865.2 244.5,-865.2"/>
<text text-anchor="start" x="269.5" y="-872.3" font-family="Helvetica,sans-Serif" font-size="11.00" fill="#000000">notes</text>
<polygon fill="none" stroke="#000000" points="244.5,-843.2 244.5,-865.2 413.5,-865.2 413.5,-843.2 244.5,-843.2"/>
<text text-anchor="start" x="269.5" y="-850.3" font-family="Helvetica,sans-Serif" font-size="11.00" fill="#000000">created_at</text>
<polygon fill="none" stroke="#000000" points="244.5,-821.2 244.5,-843.2 413.5,-843.2 413.5,-821.2 244.5,-821.2"/>
<text text-anchor="start" x="269.5" y="-828.3" font-family="Helvetica,sans-Serif" font-size="11.00" fill="#000000">updated_at</text>
<polygon fill="none" stroke="#000000" points="244.5,-799.2 244.5,-821.2 413.5,-821.2 413.5,-799.2 244.5,-799.2"/>
<image xlink:href="../../images/foreignKeys.png" width="11px" height="12px" preserveAspectRatio="xMinYMin meet" x="249.5" y="-816.2"/>
<text text-anchor="start" x="269.5" y="-806.3" font-family="Helvetica,sans-Serif" font-size="11.00" fill="#000000">created_by</text>
<polygon fill="none" stroke="#000000" points="244.5,-777.2 244.5,-799.2 413.5,-799.2 413.5,-777.2 244.5,-777.2"/>
<image xlink:href="../../images/foreignKeys.png" width="11px" height="12px" preserveAspectRatio="xMinYMin meet" x="249.5" y="-794.2"/>
<text text-anchor="start" x="269.5" y="-784.3" font-family="Helvetica,sans-Serif" font-size="11.00" fill="#000000">updated_by</text>
<polygon fill="#ffffff" stroke="transparent" points="244.5,-758.2 244.5,-777.2 314.5,-777.2 314.5,-758.2 244.5,-758.2"/>
<polygon fill="none" stroke="#000000" points="244.5,-758.2 244.5,-777.2 314.5,-777.2 314.5,-758.2 244.5,-758.2"/>
<text text-anchor="start" x="247.5" y="-764.3" font-family="Helvetica,sans-Serif" font-size="11.00" fill="#000000">&lt; 5</text>
<polygon fill="#ffffff" stroke="transparent" points="314.5,-758.2 314.5,-777.2 376.5,-777.2 376.5,-758.2 314.5,-758.2"/>
<polygon fill="none" stroke="#000000" points="314.5,-758.2 314.5,-777.2 376.5,-777.2 376.5,-758.2 314.5,-758.2"/>
<text text-anchor="start" x="341.1105" y="-764.3" font-family="Helvetica,sans-Serif" font-size="11.00" fill="#000000">0 rows</text>
<polygon fill="#ffffff" stroke="transparent" points="376.5,-758.2 376.5,-777.2 413.5,-777.2 413.5,-758.2 376.5,-758.2"/>
<polygon fill="none" stroke="#000000" points="376.5,-758.2 376.5,-777.2 413.5,-777.2 413.5,-758.2 376.5,-758.2"/>
<text text-anchor="start" x="404.3862" y="-764.3" font-family="Helvetica,sans-Serif" font-size="11.00" fill="#000000"> &#160;</text>
</a>
</g>
</g>
<!-- public.appointment_types -->
<g id="node4" class="node">
<title>public.appointment_types</title>
<g id="a_node4"><a xlink:href="../../../public/tables/appointment_types.html" xlink:title="public.appointment_types" target="_top">
<polygon fill="#ffffff" stroke="transparent" points="8,-868.2 8,-1064.2 195,-1064.2 195,-868.2 8,-868.2"/>
<polygon fill="#f5f5f5" stroke="transparent" points="8.5,-1041.2 8.5,-1064.2 195.5,-1064.2 195.5,-1041.2 8.5,-1041.2"/>
<polygon fill="none" stroke="#000000" points="8.5,-1041.2 8.5,-1064.2 195.5,-1064.2 195.5,-1041.2 8.5,-1041.2"/>
<text text-anchor="start" x="13.5" y="-1049.8" font-family="Helvetica,sans-Serif" font-weight="bold" font-size="11.00" fill="#000000">public.appointment_types</text>
<text text-anchor="start" x="161.0219" y="-1049.3" font-family="Helvetica,sans-Serif" font-size="11.00" fill="#000000">[table]</text>
<polygon fill="none" stroke="#000000" points="8.5,-1019.2 8.5,-1041.2 195.5,-1041.2 195.5,-1019.2 8.5,-1019.2"/>
<text text-anchor="start" x="38.5" y="-1026.3" font-family="Helvetica,sans-Serif" font-size="11.00" fill="#000000">appointment_type_code</text>
<polygon fill="none" stroke="#000000" points="8.5,-997.2 8.5,-1019.2 195.5,-1019.2 195.5,-997.2 8.5,-997.2"/>
<text text-anchor="start" x="38.5" y="-1004.3" font-family="Helvetica,sans-Serif" font-size="11.00" fill="#000000">description</text>
<polygon fill="none" stroke="#000000" points="8.5,-975.2 8.5,-997.2 195.5,-997.2 195.5,-975.2 8.5,-975.2"/>
<text text-anchor="start" x="38.5" y="-982.3" font-family="Helvetica,sans-Serif" font-size="11.00" fill="#000000">default_duration_minutes</text>
<polygon fill="none" stroke="#000000" points="8.5,-953.2 8.5,-975.2 195.5,-975.2 195.5,-953.2 8.5,-953.2"/>
<text text-anchor="start" x="38.5" y="-960.3" font-family="Helvetica,sans-Serif" font-size="11.00" fill="#000000">created_at</text>
<polygon fill="none" stroke="#000000" points="8.5,-931.2 8.5,-953.2 195.5,-953.2 195.5,-931.2 8.5,-931.2"/>
<text text-anchor="start" x="38.5" y="-938.3" font-family="Helvetica,sans-Serif" font-size="11.00" fill="#000000">updated_at</text>
<polygon fill="none" stroke="#000000" points="8.5,-909.2 8.5,-931.2 195.5,-931.2 195.5,-909.2 8.5,-909.2"/>
<text text-anchor="start" x="38.5" y="-916.3" font-family="Helvetica,sans-Serif" font-size="11.00" fill="#000000">created_by</text>
<polygon fill="none" stroke="#000000" points="8.5,-887.2 8.5,-909.2 195.5,-909.2 195.5,-887.2 8.5,-887.2"/>
<text text-anchor="start" x="38.5" y="-894.3" font-family="Helvetica,sans-Serif" font-size="11.00" fill="#000000">updated_by</text>
<polygon fill="#ffffff" stroke="transparent" points="8.5,-868.2 8.5,-887.2 78.5,-887.2 78.5,-868.2 8.5,-868.2"/>
<polygon fill="none" stroke="#000000" points="8.5,-868.2 8.5,-887.2 78.5,-887.2 78.5,-868.2 8.5,-868.2"/>
<text text-anchor="start" x="11.5" y="-874.3" font-family="Helvetica,sans-Serif" font-size="11.00" fill="#000000"> &#160;</text>
<polygon fill="#ffffff" stroke="transparent" points="78.5,-868.2 78.5,-887.2 145.5,-887.2 145.5,-868.2 78.5,-868.2"/>
<polygon fill="none" stroke="#000000" points="78.5,-868.2 78.5,-887.2 145.5,-887.2 145.5,-868.2 78.5,-868.2"/>
<text text-anchor="start" x="110.1105" y="-874.3" font-family="Helvetica,sans-Serif" font-size="11.00" fill="#000000">0 rows</text>
<polygon fill="#ffffff" stroke="transparent" points="145.5,-868.2 145.5,-887.2 195.5,-887.2 195.5,-868.2 145.5,-868.2"/>
<polygon fill="none" stroke="#000000" points="145.5,-868.2 145.5,-887.2 195.5,-887.2 195.5,-868.2 145.5,-868.2"/>
<text text-anchor="start" x="176.9053" y="-874.3" font-family="Helvetica,sans-Serif" font-size="11.00" fill="#000000">1 &gt;</text>
</a>
</g>
</g>
<!-- delivery_appointments&#45;&gt;public.appointment_types -->
<g id="edge1" class="edge">
<title>delivery_appointments:w&#45;&gt;public.appointment_types:e</title>
<path fill="none" stroke="#000000" d="M229.9909,-1030.2C218.6774,-1030.2 211.4931,-1030.2 195.5,-1030.2"/>
<polygon fill="#000000" stroke="#000000" points="236.5,-1030.2001 244.5,-1033.8 240.5,-1030.2 244.5,-1030.2 244.5,-1030.2 244.5,-1030.2 240.5,-1030.2 244.5,-1026.6 236.5,-1030.2001 236.5,-1030.2001"/>
<ellipse fill="none" stroke="#000000" cx="233.3" cy="-1030.2001" rx="3.2" ry="3.2"/>
</g>
<!-- public.locations -->
<g id="node5" class="node">
<title>public.locations</title>
<g id="a_node5"><a xlink:href="../../../public/tables/locations.html" xlink:title="public.locations" target="_top">
<polygon fill="#ffffff" stroke="transparent" points="36.5,-1085.2 36.5,-1523.2 166.5,-1523.2 166.5,-1085.2 36.5,-1085.2"/>
<polygon fill="#f5f5f5" stroke="transparent" points="36.5,-1500.2 36.5,-1523.2 166.5,-1523.2 166.5,-1500.2 36.5,-1500.2"/>
<polygon fill="none" stroke="#000000" points="36.5,-1500.2 36.5,-1523.2 166.5,-1523.2 166.5,-1500.2 36.5,-1500.2"/>
<text text-anchor="start" x="41.5" y="-1508.8" font-family="Helvetica,sans-Serif" font-weight="bold" font-size="11.00" fill="#000000">public.locations</text>
<text text-anchor="start" x="132.0219" y="-1508.3" font-family="Helvetica,sans-Serif" font-size="11.00" fill="#000000">[table]</text>
<polygon fill="none" stroke="#000000" points="36.5,-1478.2 36.5,-1500.2 166.5,-1500.2 166.5,-1478.2 36.5,-1478.2"/>
<text text-anchor="start" x="71.5" y="-1485.3" font-family="Helvetica,sans-Serif" font-size="11.00" fill="#000000">location_id</text>
<polygon fill="none" stroke="#000000" points="36.5,-1456.2 36.5,-1478.2 166.5,-1478.2 166.5,-1456.2 36.5,-1456.2"/>
<text text-anchor="start" x="71.5" y="-1463.3" font-family="Helvetica,sans-Serif" font-size="11.00" fill="#000000">location_code</text>
<polygon fill="none" stroke="#000000" points="36.5,-1434.2 36.5,-1456.2 166.5,-1456.2 166.5,-1434.2 36.5,-1434.2"/>
<text text-anchor="start" x="71.5" y="-1441.3" font-family="Helvetica,sans-Serif" font-size="11.00" fill="#000000">name</text>
<polygon fill="none" stroke="#000000" points="36.5,-1412.2 36.5,-1434.2 166.5,-1434.2 166.5,-1412.2 36.5,-1412.2"/>
<text text-anchor="start" x="71.5" y="-1419.3" font-family="Helvetica,sans-Serif" font-size="11.00" fill="#000000">location_type</text>
<polygon fill="none" stroke="#000000" points="36.5,-1390.2 36.5,-1412.2 166.5,-1412.2 166.5,-1390.2 36.5,-1390.2"/>
<text text-anchor="start" x="71.5" y="-1397.3" font-family="Helvetica,sans-Serif" font-size="11.00" fill="#000000">address_line1</text>
<polygon fill="none" stroke="#000000" points="36.5,-1368.2 36.5,-1390.2 166.5,-1390.2 166.5,-1368.2 36.5,-1368.2"/>
<text text-anchor="start" x="71.5" y="-1375.3" font-family="Helvetica,sans-Serif" font-size="11.00" fill="#000000">address_line2</text>
<polygon fill="none" stroke="#000000" points="36.5,-1346.2 36.5,-1368.2 166.5,-1368.2 166.5,-1346.2 36.5,-1346.2"/>
<text text-anchor="start" x="71.5" y="-1353.3" font-family="Helvetica,sans-Serif" font-size="11.00" fill="#000000">city</text>
<polygon fill="none" stroke="#000000" points="36.5,-1324.2 36.5,-1346.2 166.5,-1346.2 166.5,-1324.2 36.5,-1324.2"/>
<text text-anchor="start" x="71.5" y="-1331.3" font-family="Helvetica,sans-Serif" font-size="11.00" fill="#000000">state</text>
<polygon fill="none" stroke="#000000" points="36.5,-1302.2 36.5,-1324.2 166.5,-1324.2 166.5,-1302.2 36.5,-1302.2"/>
<text text-anchor="start" x="71.5" y="-1309.3" font-family="Helvetica,sans-Serif" font-size="11.00" fill="#000000">postal_code</text>
<polygon fill="none" stroke="#000000" points="36.5,-1280.2 36.5,-1302.2 166.5,-1302.2 166.5,-1280.2 36.5,-1280.2"/>
<text text-anchor="start" x="71.5" y="-1287.3" font-family="Helvetica,sans-Serif" font-size="11.00" fill="#000000">country</text>
<polygon fill="none" stroke="#000000" points="36.5,-1258.2 36.5,-1280.2 166.5,-1280.2 166.5,-1258.2 36.5,-1258.2"/>
<text text-anchor="start" x="71.5" y="-1265.3" font-family="Helvetica,sans-Serif" font-size="11.00" fill="#000000">timezone</text>
<polygon fill="none" stroke="#000000" points="36.5,-1236.2 36.5,-1258.2 166.5,-1258.2 166.5,-1236.2 36.5,-1236.2"/>
<text text-anchor="start" x="71.5" y="-1243.3" font-family="Helvetica,sans-Serif" font-size="11.00" fill="#000000">latitude</text>
<polygon fill="none" stroke="#000000" points="36.5,-1214.2 36.5,-1236.2 166.5,-1236.2 166.5,-1214.2 36.5,-1214.2"/>
<text text-anchor="start" x="71.5" y="-1221.3" font-family="Helvetica,sans-Serif" font-size="11.00" fill="#000000">longitude</text>
<polygon fill="none" stroke="#000000" points="36.5,-1192.2 36.5,-1214.2 166.5,-1214.2 166.5,-1192.2 36.5,-1192.2"/>
<text text-anchor="start" x="71.5" y="-1199.3" font-family="Helvetica,sans-Serif" font-size="11.00" fill="#000000">notes</text>
<polygon fill="none" stroke="#000000" points="36.5,-1170.2 36.5,-1192.2 166.5,-1192.2 166.5,-1170.2 36.5,-1170.2"/>
<text text-anchor="start" x="71.5" y="-1177.3" font-family="Helvetica,sans-Serif" font-size="11.00" fill="#000000">created_at</text>
<polygon fill="none" stroke="#000000" points="36.5,-1148.2 36.5,-1170.2 166.5,-1170.2 166.5,-1148.2 36.5,-1148.2"/>
<text text-anchor="start" x="71.5" y="-1155.3" font-family="Helvetica,sans-Serif" font-size="11.00" fill="#000000">updated_at</text>
<polygon fill="none" stroke="#000000" points="36.5,-1126.2 36.5,-1148.2 166.5,-1148.2 166.5,-1126.2 36.5,-1126.2"/>
<text text-anchor="start" x="71.5" y="-1133.3" font-family="Helvetica,sans-Serif" font-size="11.00" fill="#000000">created_by</text>
<polygon fill="none" stroke="#000000" points="36.5,-1104.2 36.5,-1126.2 166.5,-1126.2 166.5,-1104.2 36.5,-1104.2"/>
<text text-anchor="start" x="71.5" y="-1111.3" font-family="Helvetica,sans-Serif" font-size="11.00" fill="#000000">updated_by</text>
<polygon fill="#ffffff" stroke="transparent" points="36.5,-1085.2 36.5,-1104.2 77.5,-1104.2 77.5,-1085.2 36.5,-1085.2"/>
<polygon fill="none" stroke="#000000" points="36.5,-1085.2 36.5,-1104.2 77.5,-1104.2 77.5,-1085.2 36.5,-1085.2"/>
<text text-anchor="start" x="39.5" y="-1091.3" font-family="Helvetica,sans-Serif" font-size="11.00" fill="#000000"> &#160;</text>
<polygon fill="#ffffff" stroke="transparent" points="77.5,-1085.2 77.5,-1104.2 130.5,-1104.2 130.5,-1085.2 77.5,-1085.2"/>
<polygon fill="none" stroke="#000000" points="77.5,-1085.2 77.5,-1104.2 130.5,-1104.2 130.5,-1085.2 77.5,-1085.2"/>
<text text-anchor="start" x="95.1105" y="-1091.3" font-family="Helvetica,sans-Serif" font-size="11.00" fill="#000000">0 rows</text>
<polygon fill="#ffffff" stroke="transparent" points="130.5,-1085.2 130.5,-1104.2 166.5,-1104.2 166.5,-1085.2 130.5,-1085.2"/>
<polygon fill="none" stroke="#000000" points="130.5,-1085.2 130.5,-1104.2 166.5,-1104.2 166.5,-1085.2 130.5,-1085.2"/>
<text text-anchor="start" x="147.9053" y="-1091.3" font-family="Helvetica,sans-Serif" font-size="11.00" fill="#000000">1 &gt;</text>
</a>
</g>
</g>
<!-- delivery_appointments&#45;&gt;public.locations -->
<g id="edge3" class="edge">
<title>delivery_appointments:w&#45;&gt;public.locations:e</title>
<path fill="none" stroke="#000000" d="M230.2,-1055.9779C158.2499,-1098.6899 259.7512,-1489.2 166.5,-1489.2"/>
<polygon fill="#000000" stroke="#000000" points="236.7654,-1054.2434 245.4195,-1055.6806 240.6327,-1053.2217 244.5,-1052.2 244.5,-1052.2 244.5,-1052.2 240.6327,-1053.2217 243.5805,-1048.7194 236.7654,-1054.2434 236.7654,-1054.2434"/>
<ellipse fill="none" stroke="#000000" cx="233.6715" cy="-1055.0608" rx="3.2" ry="3.2"/>
</g>
<!-- delivery_appointments&#45;&gt;public.orders -->
<g id="edge4" class="edge">
<title>delivery_appointments:w&#45;&gt;public.orders:e</title>
<path fill="none" stroke="#000000" d="M231.093,-1068.4123C201.3865,-1038.0612 222.3772,-897.1814 203,-858.2 191.0229,-834.1054 189.4072,-813.2 162.5,-813.2"/>
<polygon fill="#000000" stroke="#000000" points="237.1552,-1071.0292 243.0732,-1077.5052 240.8276,-1072.6146 244.5,-1074.2 244.5,-1074.2 244.5,-1074.2 240.8276,-1072.6146 245.9268,-1070.8948 237.1552,-1071.0292 237.1552,-1071.0292"/>
<ellipse fill="none" stroke="#000000" cx="234.2172" cy="-1069.7609" rx="3.2" ry="3.2"/>
</g>
<!-- delivery_appointments&#45;&gt;public.users -->
<g id="edge2" class="edge">
<title>delivery_appointments:w&#45;&gt;public.users:e</title>
<path fill="none" stroke="#000000" d="M231.5636,-803.6952C226.8321,-792.416 238.3491,-768.4899 236,-748.2 225.7326,-659.5159 246.7764,-354.2 157.5,-354.2"/>
<polygon fill="#000000" stroke="#000000" points="237.3527,-806.6061 242.8827,-813.4163 240.9263,-808.403 244.5,-810.2 244.5,-810.2 244.5,-810.2 240.9263,-808.403 246.1173,-806.9837 237.3527,-806.6061 237.3527,-806.6061"/>
<ellipse fill="none" stroke="#000000" cx="234.4938" cy="-805.1685" rx="3.2" ry="3.2"/>
</g>
<!-- delivery_appointments&#45;&gt;public.users -->
<g id="edge5" class="edge">
<title>delivery_appointments:w&#45;&gt;public.users:e</title>
<path fill="none" stroke="#000000" d="M233.5018,-778.8092C204.679,-722.8557 219.7986,-434.6432 203,-399.2 190.8187,-373.4988 185.9418,-354.2 157.5,-354.2"/>
<polygon fill="#000000" stroke="#000000" points="238.416,-783.0052 242.1624,-790.9378 241.458,-785.6026 244.5,-788.2 244.5,-788.2 244.5,-788.2 241.458,-785.6026 246.8376,-785.4622 238.416,-783.0052 238.416,-783.0052"/>
<ellipse fill="none" stroke="#000000" cx="235.9824" cy="-780.9273" rx="3.2" ry="3.2"/>
</g>
<!-- order_requirements -->
<g id="node3" class="node">
<title>order_requirements</title>
<g id="a_node3"><a xlink:href="../../tables/order_requirements.html" xlink:title="order_requirements" target="_top">
<polygon fill="#ffffff" stroke="transparent" points="252.5,-497.2 252.5,-737.2 404.5,-737.2 404.5,-497.2 252.5,-497.2"/>
<polygon fill="#f5f5f5" stroke="transparent" points="252.5,-714.2 252.5,-737.2 404.5,-737.2 404.5,-714.2 252.5,-714.2"/>
<polygon fill="none" stroke="#000000" points="252.5,-714.2 252.5,-737.2 404.5,-737.2 404.5,-714.2 252.5,-714.2"/>
<text text-anchor="start" x="257.5" y="-722.8" font-family="Helvetica,sans-Serif" font-weight="bold" font-size="11.00" fill="#000000">order_requirements</text>
<text text-anchor="start" x="370.0219" y="-722.3" font-family="Helvetica,sans-Serif" font-size="11.00" fill="#000000">[table]</text>
<polygon fill="none" stroke="#000000" points="252.5,-692.2 252.5,-714.2 404.5,-714.2 404.5,-692.2 252.5,-692.2"/>
<image xlink:href="../../images/primaryKeys.png" width="11px" height="12px" preserveAspectRatio="xMinYMin meet" x="257.5" y="-709.2"/>
<text text-anchor="start" x="281.5" y="-699.3" font-family="Helvetica,sans-Serif" font-size="11.00" fill="#000000">requirement_id</text>
<polygon fill="none" stroke="#000000" points="252.5,-670.2 252.5,-692.2 404.5,-692.2 404.5,-670.2 252.5,-670.2"/>
<image xlink:href="../../images/foreignKeys.png" width="11px" height="12px" preserveAspectRatio="xMinYMin meet" x="257.5" y="-687.2"/>
<text text-anchor="start" x="281.5" y="-677.3" font-family="Helvetica,sans-Serif" font-size="11.00" fill="#000000">order_id</text>
<polygon fill="none" stroke="#000000" points="252.5,-648.2 252.5,-670.2 404.5,-670.2 404.5,-648.2 252.5,-648.2"/>
<text text-anchor="start" x="281.5" y="-655.3" font-family="Helvetica,sans-Serif" font-size="11.00" fill="#000000">requirement_type</text>
<polygon fill="none" stroke="#000000" points="252.5,-626.2 252.5,-648.2 404.5,-648.2 404.5,-626.2 252.5,-626.2"/>
<text text-anchor="start" x="281.5" y="-633.3" font-family="Helvetica,sans-Serif" font-size="11.00" fill="#000000">requirement_value</text>
<polygon fill="none" stroke="#000000" points="252.5,-604.2 252.5,-626.2 404.5,-626.2 404.5,-604.2 252.5,-604.2"/>
<text text-anchor="start" x="281.5" y="-611.3" font-family="Helvetica,sans-Serif" font-size="11.00" fill="#000000">notes</text>
<polygon fill="none" stroke="#000000" points="252.5,-582.2 252.5,-604.2 404.5,-604.2 404.5,-582.2 252.5,-582.2"/>
<text text-anchor="start" x="281.5" y="-589.3" font-family="Helvetica,sans-Serif" font-size="11.00" fill="#000000">created_at</text>
<polygon fill="none" stroke="#000000" points="252.5,-560.2 252.5,-582.2 404.5,-582.2 404.5,-560.2 252.5,-560.2"/>
<text text-anchor="start" x="281.5" y="-567.3" font-family="Helvetica,sans-Serif" font-size="11.00" fill="#000000">updated_at</text>
<polygon fill="none" stroke="#000000" points="252.5,-538.2 252.5,-560.2 404.5,-560.2 404.5,-538.2 252.5,-538.2"/>
<image xlink:href="../../images/foreignKeys.png" width="11px" height="12px" preserveAspectRatio="xMinYMin meet" x="257.5" y="-555.2"/>
<text text-anchor="start" x="281.5" y="-545.3" font-family="Helvetica,sans-Serif" font-size="11.00" fill="#000000">created_by</text>
<polygon fill="none" stroke="#000000" points="252.5,-516.2 252.5,-538.2 404.5,-538.2 404.5,-516.2 252.5,-516.2"/>
<image xlink:href="../../images/foreignKeys.png" width="11px" height="12px" preserveAspectRatio="xMinYMin meet" x="257.5" y="-533.2"/>
<text text-anchor="start" x="281.5" y="-523.3" font-family="Helvetica,sans-Serif" font-size="11.00" fill="#000000">updated_by</text>
<polygon fill="#ffffff" stroke="transparent" points="252.5,-497.2 252.5,-516.2 326.5,-516.2 326.5,-497.2 252.5,-497.2"/>
<polygon fill="none" stroke="#000000" points="252.5,-497.2 252.5,-516.2 326.5,-516.2 326.5,-497.2 252.5,-497.2"/>
<text text-anchor="start" x="255.5" y="-503.3" font-family="Helvetica,sans-Serif" font-size="11.00" fill="#000000">&lt; 3</text>
<polygon fill="#ffffff" stroke="transparent" points="326.5,-497.2 326.5,-516.2 365.5,-516.2 365.5,-497.2 326.5,-497.2"/>
<polygon fill="none" stroke="#000000" points="326.5,-497.2 326.5,-516.2 365.5,-516.2 365.5,-497.2 326.5,-497.2"/>
<text text-anchor="start" x="356.3862" y="-503.3" font-family="Helvetica,sans-Serif" font-size="11.00" fill="#000000"> &#160;</text>
<polygon fill="#ffffff" stroke="transparent" points="365.5,-497.2 365.5,-516.2 404.5,-516.2 404.5,-497.2 365.5,-497.2"/>
<polygon fill="none" stroke="#000000" points="365.5,-497.2 365.5,-516.2 404.5,-516.2 404.5,-497.2 365.5,-497.2"/>
<text text-anchor="start" x="395.3862" y="-503.3" font-family="Helvetica,sans-Serif" font-size="11.00" fill="#000000"> &#160;</text>
</a>
</g>
</g>
<!-- order_requirements&#45;&gt;public.orders -->
<g id="edge10" class="edge">
<title>order_requirements:w&#45;&gt;public.orders:e</title>
<path fill="none" stroke="#000000" d="M237.9933,-683.4911C188.8704,-701.0193 227.9582,-813.2 162.5,-813.2"/>
<polygon fill="#000000" stroke="#000000" points="244.5979,-682.4481 253.0616,-684.7559 248.549,-681.824 252.5,-681.2 252.5,-681.2 252.5,-681.2 248.549,-681.824 251.9384,-677.6441 244.5979,-682.4481 244.5979,-682.4481"/>
<ellipse fill="none" stroke="#000000" cx="241.4371" cy="-682.9473" rx="3.2" ry="3.2"/>
</g>
<!-- order_requirements&#45;&gt;public.users -->
<g id="edge9" class="edge">
<title>order_requirements:w&#45;&gt;public.users:e</title>
<path fill="none" stroke="#000000" d="M237.9808,-547.5244C190.9288,-534.9299 237.0216,-454.0932 203,-399.2 188.0167,-375.0248 185.9418,-354.2 157.5,-354.2"/>
<polygon fill="#000000" stroke="#000000" points="244.5527,-548.2828 252.0873,-552.7763 248.5264,-548.7414 252.5,-549.2 252.5,-549.2 252.5,-549.2 248.5264,-548.7414 252.9127,-545.6237 244.5527,-548.2828 244.5527,-548.2828"/>
<ellipse fill="none" stroke="#000000" cx="241.3738" cy="-547.9159" rx="3.2" ry="3.2"/>
</g>
<!-- order_requirements&#45;&gt;public.users -->
<g id="edge11" class="edge">
<title>order_requirements:w&#45;&gt;public.users:e</title>
<path fill="none" stroke="#000000" d="M240.5957,-518.958C238.2882,-510.8926 240.3473,-498.2442 236,-487.2 210.8591,-423.3307 226.1393,-354.2 157.5,-354.2"/>
<polygon fill="#000000" stroke="#000000" points="245.9226,-522.6461 250.4507,-530.1598 249.2113,-524.923 252.5,-527.2 252.5,-527.2 252.5,-527.2 249.2113,-524.923 254.5493,-524.2402 245.9226,-522.6461 245.9226,-522.6461"/>
<ellipse fill="none" stroke="#000000" cx="243.2917" cy="-520.8245" rx="3.2" ry="3.2"/>
</g>
</g>
</svg>
