<?xml version="1.0" encoding="UTF-8" standalone="no"?>
<!DOCTYPE svg PUBLIC "-//W3C//DTD SVG 1.1//EN"
 "http://www.w3.org/Graphics/SVG/1.1/DTD/svg11.dtd">
<!-- Generated by graphviz version 2.40.1 (20161225.0304)
 -->
<!-- Title: compactRelationshipsDiagram Pages: 1 -->
<svg width="429pt" height="583pt"
 viewBox="0.00 0.00 429.00 583.20" xmlns="http://www.w3.org/2000/svg" xmlns:xlink="http://www.w3.org/1999/xlink">
<g id="graph0" class="graph" transform="scale(1 1) rotate(0) translate(4 579.2)">
<title>compactRelationshipsDiagram</title>
<polygon fill="#ffffff" stroke="transparent" points="-4,4 -4,-579.2 425,-579.2 425,4 -4,4"/>
<text text-anchor="middle" x="72.4936" y="-7.3" font-family="Helvetica,sans-Serif" font-size="11.00" fill="#000000">Generated by SchemaSpy</text>
<!-- order_allocations -->
<g id="node1" class="node">
<title>order_allocations</title>
<g id="a_node1"><a xlink:href="../../tables/order_allocations.html" xlink:title="order_allocations" target="_top">
<polygon fill="#ffffff" stroke="transparent" points="255,-38.2 255,-187.2 402,-187.2 402,-38.2 255,-38.2"/>
<polygon fill="#f5f5f5" stroke="transparent" points="255.5,-163.7 255.5,-186.7 402.5,-186.7 402.5,-163.7 255.5,-163.7"/>
<polygon fill="none" stroke="#000000" points="255.5,-163.7 255.5,-186.7 402.5,-186.7 402.5,-163.7 255.5,-163.7"/>
<text text-anchor="start" x="260.5" y="-172.3" font-family="Helvetica,sans-Serif" font-weight="bold" font-size="11.00" fill="#000000">order_allocations</text>
<text text-anchor="start" x="367.5437" y="-171.8" font-family="Helvetica,sans-Serif" font-size="11.00" fill="#000000">[table]</text>
<polygon fill="none" stroke="#000000" points="255.5,-141.7 255.5,-163.7 402.5,-163.7 402.5,-141.7 255.5,-141.7"/>
<image xlink:href="../../images/primaryKeys.png" width="11px" height="12px" preserveAspectRatio="xMinYMin meet" x="260.5" y="-158.7"/>
<text text-anchor="start" x="275.5" y="-148.8" font-family="Helvetica,sans-Serif" font-size="11.00" fill="#000000">allocation_id</text>
<polygon fill="none" stroke="#000000" points="255.5,-119.7 255.5,-141.7 402.5,-141.7 402.5,-119.7 255.5,-119.7"/>
<image xlink:href="../../images/foreignKeys.png" width="11px" height="12px" preserveAspectRatio="xMinYMin meet" x="260.5" y="-136.7"/>
<text text-anchor="start" x="275.5" y="-126.8" font-family="Helvetica,sans-Serif" font-size="11.00" fill="#000000">order_id</text>
<polygon fill="none" stroke="#000000" points="255.5,-97.7 255.5,-119.7 402.5,-119.7 402.5,-97.7 255.5,-97.7"/>
<image xlink:href="../../images/foreignKeys.png" width="11px" height="12px" preserveAspectRatio="xMinYMin meet" x="260.5" y="-114.7"/>
<text text-anchor="start" x="275.5" y="-104.8" font-family="Helvetica,sans-Serif" font-size="11.00" fill="#000000">created_by</text>
<polygon fill="none" stroke="#000000" points="255.5,-75.7 255.5,-97.7 402.5,-97.7 402.5,-75.7 255.5,-75.7"/>
<image xlink:href="../../images/foreignKeys.png" width="11px" height="12px" preserveAspectRatio="xMinYMin meet" x="260.5" y="-92.7"/>
<text text-anchor="start" x="275.5" y="-82.8" font-family="Helvetica,sans-Serif" font-size="11.00" fill="#000000">updated_by</text>
<polygon fill="none" stroke="#000000" points="255.5,-56.7 255.5,-75.7 402.5,-75.7 402.5,-56.7 255.5,-56.7"/>
<text text-anchor="start" x="258.5" y="-62.8" font-family="Helvetica,sans-Serif" font-size="11.00" fill="#000000">...</text>
<polygon fill="#ffffff" stroke="transparent" points="255.5,-37.7 255.5,-56.7 327.5,-56.7 327.5,-37.7 255.5,-37.7"/>
<polygon fill="none" stroke="#000000" points="255.5,-37.7 255.5,-56.7 327.5,-56.7 327.5,-37.7 255.5,-37.7"/>
<text text-anchor="start" x="258.5" y="-43.8" font-family="Helvetica,sans-Serif" font-size="11.00" fill="#000000">&lt; 3</text>
<polygon fill="#ffffff" stroke="transparent" points="327.5,-37.7 327.5,-56.7 364.5,-56.7 364.5,-37.7 327.5,-37.7"/>
<polygon fill="none" stroke="#000000" points="327.5,-37.7 327.5,-56.7 364.5,-56.7 364.5,-37.7 327.5,-37.7"/>
<text text-anchor="start" x="355.3862" y="-43.8" font-family="Helvetica,sans-Serif" font-size="11.00" fill="#000000"> &#160;</text>
<polygon fill="#ffffff" stroke="transparent" points="364.5,-37.7 364.5,-56.7 402.5,-56.7 402.5,-37.7 364.5,-37.7"/>
<polygon fill="none" stroke="#000000" points="364.5,-37.7 364.5,-56.7 402.5,-56.7 402.5,-37.7 364.5,-37.7"/>
<text text-anchor="start" x="393.3862" y="-43.8" font-family="Helvetica,sans-Serif" font-size="11.00" fill="#000000"> &#160;</text>
</a>
</g>
</g>
<!-- public.orders -->
<g id="node6" class="node">
<title>public.orders</title>
<g id="a_node6"><a xlink:href="../../../public/tables/orders.html" xlink:title="public.orders" target="_top">
<polygon fill="#ffffff" stroke="transparent" points="44,-308.2 44,-369.2 159,-369.2 159,-308.2 44,-308.2"/>
<polygon fill="#f5f5f5" stroke="transparent" points="44.5,-345.7 44.5,-368.7 159.5,-368.7 159.5,-345.7 44.5,-345.7"/>
<polygon fill="none" stroke="#000000" points="44.5,-345.7 44.5,-368.7 159.5,-368.7 159.5,-345.7 44.5,-345.7"/>
<text text-anchor="start" x="49.5" y="-354.3" font-family="Helvetica,sans-Serif" font-weight="bold" font-size="11.00" fill="#000000">public.orders</text>
<text text-anchor="start" x="125.0219" y="-353.8" font-family="Helvetica,sans-Serif" font-size="11.00" fill="#000000">[table]</text>
<polygon fill="none" stroke="#000000" points="44.5,-326.7 44.5,-345.7 159.5,-345.7 159.5,-326.7 44.5,-326.7"/>
<text text-anchor="start" x="47.5" y="-332.8" font-family="Helvetica,sans-Serif" font-size="11.00" fill="#000000">...</text>
<polygon fill="#ffffff" stroke="transparent" points="44.5,-307.7 44.5,-326.7 78.5,-326.7 78.5,-307.7 44.5,-307.7"/>
<polygon fill="none" stroke="#000000" points="44.5,-307.7 44.5,-326.7 78.5,-326.7 78.5,-307.7 44.5,-307.7"/>
<text text-anchor="start" x="47.5" y="-313.8" font-family="Helvetica,sans-Serif" font-size="11.00" fill="#000000"> &#160;</text>
<polygon fill="#ffffff" stroke="transparent" points="78.5,-307.7 78.5,-326.7 127.5,-326.7 127.5,-307.7 78.5,-307.7"/>
<polygon fill="none" stroke="#000000" points="78.5,-307.7 78.5,-326.7 127.5,-326.7 127.5,-307.7 78.5,-307.7"/>
<text text-anchor="start" x="92.1105" y="-313.8" font-family="Helvetica,sans-Serif" font-size="11.00" fill="#000000">0 rows</text>
<polygon fill="#ffffff" stroke="transparent" points="127.5,-307.7 127.5,-326.7 159.5,-326.7 159.5,-307.7 127.5,-307.7"/>
<polygon fill="none" stroke="#000000" points="127.5,-307.7 127.5,-326.7 159.5,-326.7 159.5,-307.7 127.5,-307.7"/>
<text text-anchor="start" x="140.9053" y="-313.8" font-family="Helvetica,sans-Serif" font-size="11.00" fill="#000000">3 &gt;</text>
</a>
</g>
</g>
<!-- order_allocations&#45;&gt;public.orders -->
<g id="edge7" class="edge">
<title>order_allocations:w&#45;&gt;public.orders:e</title>
<path fill="none" stroke="#000000" d="M240.9667,-132.3596C188.3001,-146.3011 251.9761,-244.677 203,-297.7 193.2642,-308.2403 180.4426,-316.1296 167.2022,-322.0148"/>
<polygon fill="#000000" stroke="#000000" points="247.5517,-131.6077 255.9085,-134.2768 251.5258,-131.1539 255.5,-130.7 255.5,-130.7 255.5,-130.7 251.5258,-131.1539 255.0915,-127.1232 247.5517,-131.6077 247.5517,-131.6077"/>
<ellipse fill="none" stroke="#000000" cx="244.3723" cy="-131.9708" rx="3.2" ry="3.2"/>
</g>
<!-- public.users -->
<g id="node7" class="node">
<title>public.users</title>
<g id="a_node7"><a xlink:href="../../../public/tables/users.html" xlink:title="public.users" target="_top">
<polygon fill="#ffffff" stroke="transparent" points="47,-226.2 47,-287.2 156,-287.2 156,-226.2 47,-226.2"/>
<polygon fill="#f5f5f5" stroke="transparent" points="47.5,-263.7 47.5,-286.7 156.5,-286.7 156.5,-263.7 47.5,-263.7"/>
<polygon fill="none" stroke="#000000" points="47.5,-263.7 47.5,-286.7 156.5,-286.7 156.5,-263.7 47.5,-263.7"/>
<text text-anchor="start" x="52.5" y="-272.3" font-family="Helvetica,sans-Serif" font-weight="bold" font-size="11.00" fill="#000000">public.users</text>
<text text-anchor="start" x="122.0219" y="-271.8" font-family="Helvetica,sans-Serif" font-size="11.00" fill="#000000">[table]</text>
<polygon fill="none" stroke="#000000" points="47.5,-244.7 47.5,-263.7 156.5,-263.7 156.5,-244.7 47.5,-244.7"/>
<text text-anchor="start" x="50.5" y="-250.8" font-family="Helvetica,sans-Serif" font-size="11.00" fill="#000000">...</text>
<polygon fill="#ffffff" stroke="transparent" points="47.5,-225.7 47.5,-244.7 78.5,-244.7 78.5,-225.7 47.5,-225.7"/>
<polygon fill="none" stroke="#000000" points="47.5,-225.7 47.5,-244.7 78.5,-244.7 78.5,-225.7 47.5,-225.7"/>
<text text-anchor="start" x="50.5" y="-231.8" font-family="Helvetica,sans-Serif" font-size="11.00" fill="#000000"> &#160;</text>
<polygon fill="#ffffff" stroke="transparent" points="78.5,-225.7 78.5,-244.7 125.5,-244.7 125.5,-225.7 78.5,-225.7"/>
<polygon fill="none" stroke="#000000" points="78.5,-225.7 78.5,-244.7 125.5,-244.7 125.5,-225.7 78.5,-225.7"/>
<text text-anchor="start" x="90.1105" y="-231.8" font-family="Helvetica,sans-Serif" font-size="11.00" fill="#000000">0 rows</text>
<polygon fill="#ffffff" stroke="transparent" points="125.5,-225.7 125.5,-244.7 156.5,-244.7 156.5,-225.7 125.5,-225.7"/>
<polygon fill="none" stroke="#000000" points="125.5,-225.7 125.5,-244.7 156.5,-244.7 156.5,-225.7 125.5,-225.7"/>
<text text-anchor="start" x="137.9053" y="-231.8" font-family="Helvetica,sans-Serif" font-size="11.00" fill="#000000">6 &gt;</text>
</a>
</g>
</g>
<!-- order_allocations&#45;&gt;public.users -->
<g id="edge6" class="edge">
<title>order_allocations:w&#45;&gt;public.users:e</title>
<path fill="none" stroke="#000000" d="M240.9254,-109.8686C183.2165,-119.1467 140.376,-181.5883 118.3014,-222.0006"/>
<polygon fill="#000000" stroke="#000000" points="247.5256,-109.3394 255.7877,-112.2885 251.5128,-109.0197 255.5,-108.7 255.5,-108.7 255.5,-108.7 251.5128,-109.0197 255.2123,-105.1115 247.5256,-109.3394 247.5256,-109.3394"/>
<ellipse fill="none" stroke="#000000" cx="244.3358" cy="-109.5952" rx="3.2" ry="3.2"/>
</g>
<!-- order_allocations&#45;&gt;public.users -->
<g id="edge8" class="edge">
<title>order_allocations:w&#45;&gt;public.users:e</title>
<path fill="none" stroke="#000000" d="M241.029,-87.8592C176.8886,-98.216 134.5623,-175.5519 114.6718,-221.8877"/>
<polygon fill="#000000" stroke="#000000" points="247.5255,-87.3389 255.7875,-90.2885 251.5128,-87.0194 255.5,-86.7 255.5,-86.7 255.5,-86.7 251.5128,-87.0194 255.2125,-83.1115 247.5255,-87.3389 247.5255,-87.3389"/>
<ellipse fill="none" stroke="#000000" cx="244.3358" cy="-87.5944" rx="3.2" ry="3.2"/>
</g>
<!-- delivery_appointments -->
<g id="node2" class="node">
<title>delivery_appointments</title>
<g id="a_node2"><a xlink:href="../../tables/delivery_appointments.html" xlink:title="delivery_appointments" target="_top">
<polygon fill="#ffffff" stroke="transparent" points="244,-378.2 244,-571.2 413,-571.2 413,-378.2 244,-378.2"/>
<polygon fill="#f5f5f5" stroke="transparent" points="244.5,-547.7 244.5,-570.7 413.5,-570.7 413.5,-547.7 244.5,-547.7"/>
<polygon fill="none" stroke="#000000" points="244.5,-547.7 244.5,-570.7 413.5,-570.7 413.5,-547.7 244.5,-547.7"/>
<text text-anchor="start" x="249.5" y="-556.3" font-family="Helvetica,sans-Serif" font-weight="bold" font-size="11.00" fill="#000000">delivery_appointments</text>
<text text-anchor="start" x="379.0219" y="-555.8" font-family="Helvetica,sans-Serif" font-size="11.00" fill="#000000">[table]</text>
<polygon fill="none" stroke="#000000" points="244.5,-525.7 244.5,-547.7 413.5,-547.7 413.5,-525.7 244.5,-525.7"/>
<image xlink:href="../../images/primaryKeys.png" width="11px" height="12px" preserveAspectRatio="xMinYMin meet" x="249.5" y="-542.7"/>
<text text-anchor="start" x="269.5" y="-532.8" font-family="Helvetica,sans-Serif" font-size="11.00" fill="#000000">appointment_id</text>
<polygon fill="none" stroke="#000000" points="244.5,-503.7 244.5,-525.7 413.5,-525.7 413.5,-503.7 244.5,-503.7"/>
<image xlink:href="../../images/foreignKeys.png" width="11px" height="12px" preserveAspectRatio="xMinYMin meet" x="249.5" y="-520.7"/>
<text text-anchor="start" x="269.5" y="-510.8" font-family="Helvetica,sans-Serif" font-size="11.00" fill="#000000">order_id</text>
<polygon fill="none" stroke="#000000" points="244.5,-481.7 244.5,-503.7 413.5,-503.7 413.5,-481.7 244.5,-481.7"/>
<image xlink:href="../../images/foreignKeys.png" width="11px" height="12px" preserveAspectRatio="xMinYMin meet" x="249.5" y="-498.7"/>
<text text-anchor="start" x="269.5" y="-488.8" font-family="Helvetica,sans-Serif" font-size="11.00" fill="#000000">location_id</text>
<polygon fill="none" stroke="#000000" points="244.5,-459.7 244.5,-481.7 413.5,-481.7 413.5,-459.7 244.5,-459.7"/>
<image xlink:href="../../images/foreignKeys.png" width="11px" height="12px" preserveAspectRatio="xMinYMin meet" x="249.5" y="-476.7"/>
<text text-anchor="start" x="269.5" y="-466.8" font-family="Helvetica,sans-Serif" font-size="11.00" fill="#000000">appointment_type_code</text>
<polygon fill="none" stroke="#000000" points="244.5,-437.7 244.5,-459.7 413.5,-459.7 413.5,-437.7 244.5,-437.7"/>
<image xlink:href="../../images/foreignKeys.png" width="11px" height="12px" preserveAspectRatio="xMinYMin meet" x="249.5" y="-454.7"/>
<text text-anchor="start" x="269.5" y="-444.8" font-family="Helvetica,sans-Serif" font-size="11.00" fill="#000000">created_by</text>
<polygon fill="none" stroke="#000000" points="244.5,-415.7 244.5,-437.7 413.5,-437.7 413.5,-415.7 244.5,-415.7"/>
<image xlink:href="../../images/foreignKeys.png" width="11px" height="12px" preserveAspectRatio="xMinYMin meet" x="249.5" y="-432.7"/>
<text text-anchor="start" x="269.5" y="-422.8" font-family="Helvetica,sans-Serif" font-size="11.00" fill="#000000">updated_by</text>
<polygon fill="none" stroke="#000000" points="244.5,-396.7 244.5,-415.7 413.5,-415.7 413.5,-396.7 244.5,-396.7"/>
<text text-anchor="start" x="247.5" y="-402.8" font-family="Helvetica,sans-Serif" font-size="11.00" fill="#000000">...</text>
<polygon fill="#ffffff" stroke="transparent" points="244.5,-377.7 244.5,-396.7 314.5,-396.7 314.5,-377.7 244.5,-377.7"/>
<polygon fill="none" stroke="#000000" points="244.5,-377.7 244.5,-396.7 314.5,-396.7 314.5,-377.7 244.5,-377.7"/>
<text text-anchor="start" x="247.5" y="-383.8" font-family="Helvetica,sans-Serif" font-size="11.00" fill="#000000">&lt; 5</text>
<polygon fill="#ffffff" stroke="transparent" points="314.5,-377.7 314.5,-396.7 376.5,-396.7 376.5,-377.7 314.5,-377.7"/>
<polygon fill="none" stroke="#000000" points="314.5,-377.7 314.5,-396.7 376.5,-396.7 376.5,-377.7 314.5,-377.7"/>
<text text-anchor="start" x="341.1105" y="-383.8" font-family="Helvetica,sans-Serif" font-size="11.00" fill="#000000">0 rows</text>
<polygon fill="#ffffff" stroke="transparent" points="376.5,-377.7 376.5,-396.7 413.5,-396.7 413.5,-377.7 376.5,-377.7"/>
<polygon fill="none" stroke="#000000" points="376.5,-377.7 376.5,-396.7 413.5,-396.7 413.5,-377.7 376.5,-377.7"/>
<text text-anchor="start" x="404.3862" y="-383.8" font-family="Helvetica,sans-Serif" font-size="11.00" fill="#000000"> &#160;</text>
</a>
</g>
</g>
<!-- public.appointment_types -->
<g id="node4" class="node">
<title>public.appointment_types</title>
<g id="a_node4"><a xlink:href="../../../public/tables/appointment_types.html" xlink:title="public.appointment_types" target="_top">
<polygon fill="#ffffff" stroke="transparent" points="8,-415.2 8,-476.2 195,-476.2 195,-415.2 8,-415.2"/>
<polygon fill="#f5f5f5" stroke="transparent" points="8.5,-452.7 8.5,-475.7 195.5,-475.7 195.5,-452.7 8.5,-452.7"/>
<polygon fill="none" stroke="#000000" points="8.5,-452.7 8.5,-475.7 195.5,-475.7 195.5,-452.7 8.5,-452.7"/>
<text text-anchor="start" x="13.5" y="-461.3" font-family="Helvetica,sans-Serif" font-weight="bold" font-size="11.00" fill="#000000">public.appointment_types</text>
<text text-anchor="start" x="161.0219" y="-460.8" font-family="Helvetica,sans-Serif" font-size="11.00" fill="#000000">[table]</text>
<polygon fill="none" stroke="#000000" points="8.5,-433.7 8.5,-452.7 195.5,-452.7 195.5,-433.7 8.5,-433.7"/>
<text text-anchor="start" x="11.5" y="-439.8" font-family="Helvetica,sans-Serif" font-size="11.00" fill="#000000">...</text>
<polygon fill="#ffffff" stroke="transparent" points="8.5,-414.7 8.5,-433.7 78.5,-433.7 78.5,-414.7 8.5,-414.7"/>
<polygon fill="none" stroke="#000000" points="8.5,-414.7 8.5,-433.7 78.5,-433.7 78.5,-414.7 8.5,-414.7"/>
<text text-anchor="start" x="11.5" y="-420.8" font-family="Helvetica,sans-Serif" font-size="11.00" fill="#000000"> &#160;</text>
<polygon fill="#ffffff" stroke="transparent" points="78.5,-414.7 78.5,-433.7 145.5,-433.7 145.5,-414.7 78.5,-414.7"/>
<polygon fill="none" stroke="#000000" points="78.5,-414.7 78.5,-433.7 145.5,-433.7 145.5,-414.7 78.5,-414.7"/>
<text text-anchor="start" x="110.1105" y="-420.8" font-family="Helvetica,sans-Serif" font-size="11.00" fill="#000000">0 rows</text>
<polygon fill="#ffffff" stroke="transparent" points="145.5,-414.7 145.5,-433.7 195.5,-433.7 195.5,-414.7 145.5,-414.7"/>
<polygon fill="none" stroke="#000000" points="145.5,-414.7 145.5,-433.7 195.5,-433.7 195.5,-414.7 145.5,-414.7"/>
<text text-anchor="start" x="176.9053" y="-420.8" font-family="Helvetica,sans-Serif" font-size="11.00" fill="#000000">1 &gt;</text>
</a>
</g>
</g>
<!-- delivery_appointments&#45;&gt;public.appointment_types -->
<g id="edge1" class="edge">
<title>delivery_appointments:w&#45;&gt;public.appointment_types:e</title>
<path fill="none" stroke="#000000" d="M230.0896,-470.315C221.136,-469.8537 212.0507,-469.0009 203.0638,-467.8808"/>
<polygon fill="#000000" stroke="#000000" points="236.5029,-470.4863 244.4038,-474.2987 240.5014,-470.5931 244.5,-470.7 244.5,-470.7 244.5,-470.7 240.5014,-470.5931 244.5962,-467.1013 236.5029,-470.4863 236.5029,-470.4863"/>
<ellipse fill="none" stroke="#000000" cx="233.304" cy="-470.4008" rx="3.2" ry="3.2"/>
</g>
<!-- public.locations -->
<g id="node5" class="node">
<title>public.locations</title>
<g id="a_node5"><a xlink:href="../../../public/tables/locations.html" xlink:title="public.locations" target="_top">
<polygon fill="#ffffff" stroke="transparent" points="36.5,-497.2 36.5,-558.2 166.5,-558.2 166.5,-497.2 36.5,-497.2"/>
<polygon fill="#f5f5f5" stroke="transparent" points="36.5,-534.7 36.5,-557.7 166.5,-557.7 166.5,-534.7 36.5,-534.7"/>
<polygon fill="none" stroke="#000000" points="36.5,-534.7 36.5,-557.7 166.5,-557.7 166.5,-534.7 36.5,-534.7"/>
<text text-anchor="start" x="41.5" y="-543.3" font-family="Helvetica,sans-Serif" font-weight="bold" font-size="11.00" fill="#000000">public.locations</text>
<text text-anchor="start" x="132.0219" y="-542.8" font-family="Helvetica,sans-Serif" font-size="11.00" fill="#000000">[table]</text>
<polygon fill="none" stroke="#000000" points="36.5,-515.7 36.5,-534.7 166.5,-534.7 166.5,-515.7 36.5,-515.7"/>
<text text-anchor="start" x="39.5" y="-521.8" font-family="Helvetica,sans-Serif" font-size="11.00" fill="#000000">...</text>
<polygon fill="#ffffff" stroke="transparent" points="36.5,-496.7 36.5,-515.7 77.5,-515.7 77.5,-496.7 36.5,-496.7"/>
<polygon fill="none" stroke="#000000" points="36.5,-496.7 36.5,-515.7 77.5,-515.7 77.5,-496.7 36.5,-496.7"/>
<text text-anchor="start" x="39.5" y="-502.8" font-family="Helvetica,sans-Serif" font-size="11.00" fill="#000000"> &#160;</text>
<polygon fill="#ffffff" stroke="transparent" points="77.5,-496.7 77.5,-515.7 130.5,-515.7 130.5,-496.7 77.5,-496.7"/>
<polygon fill="none" stroke="#000000" points="77.5,-496.7 77.5,-515.7 130.5,-515.7 130.5,-496.7 77.5,-496.7"/>
<text text-anchor="start" x="95.1105" y="-502.8" font-family="Helvetica,sans-Serif" font-size="11.00" fill="#000000">0 rows</text>
<polygon fill="#ffffff" stroke="transparent" points="130.5,-496.7 130.5,-515.7 166.5,-515.7 166.5,-496.7 130.5,-496.7"/>
<polygon fill="none" stroke="#000000" points="130.5,-496.7 130.5,-515.7 166.5,-515.7 166.5,-496.7 130.5,-496.7"/>
<text text-anchor="start" x="147.9053" y="-502.8" font-family="Helvetica,sans-Serif" font-size="11.00" fill="#000000">1 &gt;</text>
</a>
</g>
</g>
<!-- delivery_appointments&#45;&gt;public.locations -->
<g id="edge3" class="edge">
<title>delivery_appointments:w&#45;&gt;public.locations:e</title>
<path fill="none" stroke="#000000" d="M229.9736,-493.235C211.268,-494.5661 192.1247,-498.2449 174.5196,-502.7296"/>
<polygon fill="#000000" stroke="#000000" points="236.5054,-492.9945 244.6325,-496.2976 240.5027,-492.8472 244.5,-492.7 244.5,-492.7 244.5,-492.7 240.5027,-492.8472 244.3675,-489.1024 236.5054,-492.9945 236.5054,-492.9945"/>
<ellipse fill="none" stroke="#000000" cx="233.3076" cy="-493.1123" rx="3.2" ry="3.2"/>
</g>
<!-- delivery_appointments&#45;&gt;public.orders -->
<g id="edge4" class="edge">
<title>delivery_appointments:w&#45;&gt;public.orders:e</title>
<path fill="none" stroke="#000000" d="M230.1788,-512.1748C201.1259,-499.3686 232.044,-440.8001 203,-404.7 193.118,-392.4173 180.3144,-381.6666 167.1493,-372.6046"/>
<polygon fill="#000000" stroke="#000000" points="236.6215,-513.3108 243.8749,-518.2453 240.5608,-514.0054 244.5,-514.7 244.5,-514.7 244.5,-514.7 240.5608,-514.0054 245.1251,-511.1547 236.6215,-513.3108 236.6215,-513.3108"/>
<ellipse fill="none" stroke="#000000" cx="233.4701" cy="-512.7551" rx="3.2" ry="3.2"/>
</g>
<!-- delivery_appointments&#45;&gt;public.users -->
<g id="edge2" class="edge">
<title>delivery_appointments:w&#45;&gt;public.users:e</title>
<path fill="none" stroke="#000000" d="M230.1326,-446.7816C186.2924,-432.7706 245.4899,-345.4134 203,-297.7 192.6359,-286.0618 178.4974,-277.6728 164.0659,-271.6454"/>
<polygon fill="#000000" stroke="#000000" points="236.5704,-447.6412 244.0235,-452.2683 240.5352,-448.1706 244.5,-448.7 244.5,-448.7 244.5,-448.7 240.5352,-448.1706 244.9765,-445.1317 236.5704,-447.6412 236.5704,-447.6412"/>
<ellipse fill="none" stroke="#000000" cx="233.3985" cy="-447.2176" rx="3.2" ry="3.2"/>
</g>
<!-- delivery_appointments&#45;&gt;public.users -->
<g id="edge5" class="edge">
<title>delivery_appointments:w&#45;&gt;public.users:e</title>
<path fill="none" stroke="#000000" d="M230.082,-424.3882C194.9799,-410.508 240.0072,-337.4984 203,-297.7 192.5173,-286.4267 178.5068,-278.1827 164.2503,-272.1795"/>
<polygon fill="#000000" stroke="#000000" points="236.6009,-425.4334 243.93,-430.2546 240.5504,-426.0667 244.5,-426.7 244.5,-426.7 244.5,-426.7 240.5504,-426.0667 245.07,-423.1454 236.6009,-425.4334 236.6009,-425.4334"/>
<ellipse fill="none" stroke="#000000" cx="233.4413" cy="-424.9268" rx="3.2" ry="3.2"/>
</g>
<!-- order_requirements -->
<g id="node3" class="node">
<title>order_requirements</title>
<g id="a_node3"><a xlink:href="../../tables/order_requirements.html" xlink:title="order_requirements" target="_top">
<polygon fill="#ffffff" stroke="transparent" points="252.5,-208.2 252.5,-357.2 404.5,-357.2 404.5,-208.2 252.5,-208.2"/>
<polygon fill="#f5f5f5" stroke="transparent" points="252.5,-333.7 252.5,-356.7 404.5,-356.7 404.5,-333.7 252.5,-333.7"/>
<polygon fill="none" stroke="#000000" points="252.5,-333.7 252.5,-356.7 404.5,-356.7 404.5,-333.7 252.5,-333.7"/>
<text text-anchor="start" x="257.5" y="-342.3" font-family="Helvetica,sans-Serif" font-weight="bold" font-size="11.00" fill="#000000">order_requirements</text>
<text text-anchor="start" x="370.0219" y="-341.8" font-family="Helvetica,sans-Serif" font-size="11.00" fill="#000000">[table]</text>
<polygon fill="none" stroke="#000000" points="252.5,-311.7 252.5,-333.7 404.5,-333.7 404.5,-311.7 252.5,-311.7"/>
<image xlink:href="../../images/primaryKeys.png" width="11px" height="12px" preserveAspectRatio="xMinYMin meet" x="257.5" y="-328.7"/>
<text text-anchor="start" x="281.5" y="-318.8" font-family="Helvetica,sans-Serif" font-size="11.00" fill="#000000">requirement_id</text>
<polygon fill="none" stroke="#000000" points="252.5,-289.7 252.5,-311.7 404.5,-311.7 404.5,-289.7 252.5,-289.7"/>
<image xlink:href="../../images/foreignKeys.png" width="11px" height="12px" preserveAspectRatio="xMinYMin meet" x="257.5" y="-306.7"/>
<text text-anchor="start" x="281.5" y="-296.8" font-family="Helvetica,sans-Serif" font-size="11.00" fill="#000000">order_id</text>
<polygon fill="none" stroke="#000000" points="252.5,-267.7 252.5,-289.7 404.5,-289.7 404.5,-267.7 252.5,-267.7"/>
<image xlink:href="../../images/foreignKeys.png" width="11px" height="12px" preserveAspectRatio="xMinYMin meet" x="257.5" y="-284.7"/>
<text text-anchor="start" x="281.5" y="-274.8" font-family="Helvetica,sans-Serif" font-size="11.00" fill="#000000">created_by</text>
<polygon fill="none" stroke="#000000" points="252.5,-245.7 252.5,-267.7 404.5,-267.7 404.5,-245.7 252.5,-245.7"/>
<image xlink:href="../../images/foreignKeys.png" width="11px" height="12px" preserveAspectRatio="xMinYMin meet" x="257.5" y="-262.7"/>
<text text-anchor="start" x="281.5" y="-252.8" font-family="Helvetica,sans-Serif" font-size="11.00" fill="#000000">updated_by</text>
<polygon fill="none" stroke="#000000" points="252.5,-226.7 252.5,-245.7 404.5,-245.7 404.5,-226.7 252.5,-226.7"/>
<text text-anchor="start" x="255.5" y="-232.8" font-family="Helvetica,sans-Serif" font-size="11.00" fill="#000000">...</text>
<polygon fill="#ffffff" stroke="transparent" points="252.5,-207.7 252.5,-226.7 326.5,-226.7 326.5,-207.7 252.5,-207.7"/>
<polygon fill="none" stroke="#000000" points="252.5,-207.7 252.5,-226.7 326.5,-226.7 326.5,-207.7 252.5,-207.7"/>
<text text-anchor="start" x="255.5" y="-213.8" font-family="Helvetica,sans-Serif" font-size="11.00" fill="#000000">&lt; 3</text>
<polygon fill="#ffffff" stroke="transparent" points="326.5,-207.7 326.5,-226.7 365.5,-226.7 365.5,-207.7 326.5,-207.7"/>
<polygon fill="none" stroke="#000000" points="326.5,-207.7 326.5,-226.7 365.5,-226.7 365.5,-207.7 326.5,-207.7"/>
<text text-anchor="start" x="356.3862" y="-213.8" font-family="Helvetica,sans-Serif" font-size="11.00" fill="#000000"> &#160;</text>
<polygon fill="#ffffff" stroke="transparent" points="365.5,-207.7 365.5,-226.7 404.5,-226.7 404.5,-207.7 365.5,-207.7"/>
<polygon fill="none" stroke="#000000" points="365.5,-207.7 365.5,-226.7 404.5,-226.7 404.5,-207.7 365.5,-207.7"/>
<text text-anchor="start" x="395.3862" y="-213.8" font-family="Helvetica,sans-Serif" font-size="11.00" fill="#000000"> &#160;</text>
</a>
</g>
</g>
<!-- order_requirements&#45;&gt;public.orders -->
<g id="edge10" class="edge">
<title>order_requirements:w&#45;&gt;public.orders:e</title>
<path fill="none" stroke="#000000" d="M237.9792,-301.221C213.8074,-302.9 188.9232,-308.4283 167.1319,-314.7418"/>
<polygon fill="#000000" stroke="#000000" points="244.5051,-300.9869 252.6291,-304.2977 248.5026,-300.8435 252.5,-300.7 252.5,-300.7 252.5,-300.7 248.5026,-300.8435 252.3709,-297.1023 244.5051,-300.9869 244.5051,-300.9869"/>
<ellipse fill="none" stroke="#000000" cx="241.3072" cy="-301.1017" rx="3.2" ry="3.2"/>
</g>
<!-- order_requirements&#45;&gt;public.users -->
<g id="edge9" class="edge">
<title>order_requirements:w&#45;&gt;public.users:e</title>
<path fill="none" stroke="#000000" d="M237.8957,-278.3846C212.8181,-277.34 186.649,-273.8367 164.0178,-269.9418"/>
<polygon fill="#000000" stroke="#000000" points="244.5019,-278.5272 252.4223,-282.2992 248.5009,-278.6136 252.5,-278.7 252.5,-278.7 252.5,-278.7 248.5009,-278.6136 252.5777,-275.1008 244.5019,-278.5272 244.5019,-278.5272"/>
<ellipse fill="none" stroke="#000000" cx="241.3026" cy="-278.4581" rx="3.2" ry="3.2"/>
</g>
<!-- order_requirements&#45;&gt;public.users -->
<g id="edge11" class="edge">
<title>order_requirements:w&#45;&gt;public.users:e</title>
<path fill="none" stroke="#000000" d="M238.0257,-256.7C213.1351,-256.7 186.9883,-256.7 164.3142,-256.7"/>
<polygon fill="#000000" stroke="#000000" points="244.5,-256.7001 252.5,-260.3 248.5,-256.7 252.5,-256.7 252.5,-256.7 252.5,-256.7 248.5,-256.7 252.5,-253.1 244.5,-256.7001 244.5,-256.7001"/>
<ellipse fill="none" stroke="#000000" cx="241.3" cy="-256.7001" rx="3.2" ry="3.2"/>
</g>
</g>
</svg>
