<?xml version="1.0" encoding="UTF-8" standalone="no"?>
<!DOCTYPE svg PUBLIC "-//W3C//DTD SVG 1.1//EN"
 "http://www.w3.org/Graphics/SVG/1.1/DTD/svg11.dtd">
<!-- Generated by graphviz version 2.40.1 (20161225.0304)
 -->
<!-- Title: oneDegreeRelationshipsDiagram Pages: 1 -->
<svg width="582pt" height="579pt"
 viewBox="0.00 0.00 582.00 579.20" xmlns="http://www.w3.org/2000/svg" xmlns:xlink="http://www.w3.org/1999/xlink">
<g id="graph0" class="graph" transform="scale(1 1) rotate(0) translate(4 575.2)">
<title>oneDegreeRelationshipsDiagram</title>
<polygon fill="#ffffff" stroke="transparent" points="-4,4 -4,-575.2 578,-575.2 578,4 -4,4"/>
<text text-anchor="middle" x="72.4936" y="-7.3" font-family="Helvetica,sans-Serif" font-size="11.00" fill="#000000">Generated by SchemaSpy</text>
<!-- container_legs -->
<g id="node1" class="node">
<title>container_legs</title>
<g id="a_node1"><a xlink:href="../../tables/container_legs.html" xlink:title="container_legs" target="_top">
<polygon fill="#ffffff" stroke="transparent" points="411,-308.2 411,-567.2 566,-567.2 566,-308.2 411,-308.2"/>
<polygon fill="#f5f5f5" stroke="transparent" points="411.5,-543.7 411.5,-566.7 566.5,-566.7 566.5,-543.7 411.5,-543.7"/>
<polygon fill="none" stroke="#000000" points="411.5,-543.7 411.5,-566.7 566.5,-566.7 566.5,-543.7 411.5,-543.7"/>
<text text-anchor="start" x="416.5" y="-552.3" font-family="Helvetica,sans-Serif" font-weight="bold" font-size="11.00" fill="#000000">container_legs</text>
<text text-anchor="start" x="531.5437" y="-551.8" font-family="Helvetica,sans-Serif" font-size="11.00" fill="#000000">[table]</text>
<polygon fill="none" stroke="#000000" points="411.5,-521.7 411.5,-543.7 566.5,-543.7 566.5,-521.7 411.5,-521.7"/>
<image xlink:href="../../images/primaryKeys.png" width="11px" height="12px" preserveAspectRatio="xMinYMin meet" x="416.5" y="-538.7"/>
<text text-anchor="start" x="431.5" y="-528.8" font-family="Helvetica,sans-Serif" font-size="11.00" fill="#000000">container_leg_id</text>
<polygon fill="#ffffff" stroke="transparent" points="411.5,-499.7 411.5,-521.7 566.5,-521.7 566.5,-499.7 411.5,-499.7"/>
<polygon fill="none" stroke="#000000" points="411.5,-499.7 411.5,-521.7 566.5,-521.7 566.5,-499.7 411.5,-499.7"/>
<image xlink:href="../../images/foreignKeys.png" width="11px" height="12px" preserveAspectRatio="xMinYMin meet" x="416.5" y="-516.7"/>
<text text-anchor="start" x="431.5" y="-506.8" font-family="Helvetica,sans-Serif" font-size="11.00" fill="#000000">container_id</text>
<polygon fill="#ffffff" stroke="transparent" points="411.5,-477.7 411.5,-499.7 566.5,-499.7 566.5,-477.7 411.5,-477.7"/>
<polygon fill="none" stroke="#000000" points="411.5,-477.7 411.5,-499.7 566.5,-499.7 566.5,-477.7 411.5,-477.7"/>
<text text-anchor="start" x="431.5" y="-484.8" font-family="Helvetica,sans-Serif" font-size="11.00" fill="#000000">sequence_number</text>
<polygon fill="none" stroke="#000000" points="411.5,-455.7 411.5,-477.7 566.5,-477.7 566.5,-455.7 411.5,-455.7"/>
<image xlink:href="../../images/foreignKeys.png" width="11px" height="12px" preserveAspectRatio="xMinYMin meet" x="416.5" y="-472.7"/>
<text text-anchor="start" x="431.5" y="-462.8" font-family="Helvetica,sans-Serif" font-size="11.00" fill="#000000">origin_location_id</text>
<polygon fill="none" stroke="#000000" points="411.5,-433.7 411.5,-455.7 566.5,-455.7 566.5,-433.7 411.5,-433.7"/>
<image xlink:href="../../images/foreignKeys.png" width="11px" height="12px" preserveAspectRatio="xMinYMin meet" x="416.5" y="-450.7"/>
<text text-anchor="start" x="431.5" y="-440.8" font-family="Helvetica,sans-Serif" font-size="11.00" fill="#000000">destination_location_id</text>
<polygon fill="none" stroke="#000000" points="411.5,-411.7 411.5,-433.7 566.5,-433.7 566.5,-411.7 411.5,-411.7"/>
<image xlink:href="../../images/foreignKeys.png" width="11px" height="12px" preserveAspectRatio="xMinYMin meet" x="416.5" y="-428.7"/>
<text text-anchor="start" x="431.5" y="-418.8" font-family="Helvetica,sans-Serif" font-size="11.00" fill="#000000">carrier_id</text>
<polygon fill="none" stroke="#000000" points="411.5,-389.7 411.5,-411.7 566.5,-411.7 566.5,-389.7 411.5,-389.7"/>
<image xlink:href="../../images/foreignKeys.png" width="11px" height="12px" preserveAspectRatio="xMinYMin meet" x="416.5" y="-406.7"/>
<text text-anchor="start" x="431.5" y="-396.8" font-family="Helvetica,sans-Serif" font-size="11.00" fill="#000000">vehicle_id</text>
<polygon fill="none" stroke="#000000" points="411.5,-367.7 411.5,-389.7 566.5,-389.7 566.5,-367.7 411.5,-367.7"/>
<image xlink:href="../../images/foreignKeys.png" width="11px" height="12px" preserveAspectRatio="xMinYMin meet" x="416.5" y="-384.7"/>
<text text-anchor="start" x="431.5" y="-374.8" font-family="Helvetica,sans-Serif" font-size="11.00" fill="#000000">created_by</text>
<polygon fill="none" stroke="#000000" points="411.5,-345.7 411.5,-367.7 566.5,-367.7 566.5,-345.7 411.5,-345.7"/>
<image xlink:href="../../images/foreignKeys.png" width="11px" height="12px" preserveAspectRatio="xMinYMin meet" x="416.5" y="-362.7"/>
<text text-anchor="start" x="431.5" y="-352.8" font-family="Helvetica,sans-Serif" font-size="11.00" fill="#000000">updated_by</text>
<polygon fill="none" stroke="#000000" points="411.5,-326.7 411.5,-345.7 566.5,-345.7 566.5,-326.7 411.5,-326.7"/>
<text text-anchor="start" x="414.5" y="-332.8" font-family="Helvetica,sans-Serif" font-size="11.00" fill="#000000">...</text>
<polygon fill="#ffffff" stroke="transparent" points="411.5,-307.7 411.5,-326.7 487.5,-326.7 487.5,-307.7 411.5,-307.7"/>
<polygon fill="none" stroke="#000000" points="411.5,-307.7 411.5,-326.7 487.5,-326.7 487.5,-307.7 411.5,-307.7"/>
<text text-anchor="start" x="414.5" y="-313.8" font-family="Helvetica,sans-Serif" font-size="11.00" fill="#000000">&lt; 7</text>
<polygon fill="#ffffff" stroke="transparent" points="487.5,-307.7 487.5,-326.7 526.5,-326.7 526.5,-307.7 487.5,-307.7"/>
<polygon fill="none" stroke="#000000" points="487.5,-307.7 487.5,-326.7 526.5,-326.7 526.5,-307.7 487.5,-307.7"/>
<text text-anchor="start" x="517.3862" y="-313.8" font-family="Helvetica,sans-Serif" font-size="11.00" fill="#000000"> &#160;</text>
<polygon fill="#ffffff" stroke="transparent" points="526.5,-307.7 526.5,-326.7 566.5,-326.7 566.5,-307.7 526.5,-307.7"/>
<polygon fill="none" stroke="#000000" points="526.5,-307.7 526.5,-326.7 566.5,-326.7 566.5,-307.7 526.5,-307.7"/>
<text text-anchor="start" x="557.3862" y="-313.8" font-family="Helvetica,sans-Serif" font-size="11.00" fill="#000000"> &#160;</text>
</a>
</g>
</g>
<!-- containers -->
<g id="node2" class="node">
<title>containers</title>
<g id="a_node2"><a xlink:href="../../tables/containers.html" xlink:title="containers" target="_top">
<polygon fill="#ffffff" stroke="transparent" points="174,-66.7 174,-332.7 362,-332.7 362,-66.7 174,-66.7"/>
<polygon fill="#f5f5f5" stroke="transparent" points="176,-307.7 176,-330.7 360,-330.7 360,-307.7 176,-307.7"/>
<polygon fill="none" stroke="#000000" points="176,-307.7 176,-330.7 360,-330.7 360,-307.7 176,-307.7"/>
<text text-anchor="start" x="181" y="-316.3" font-family="Helvetica,sans-Serif" font-weight="bold" font-size="11.00" fill="#000000">containers</text>
<text text-anchor="start" x="325.0437" y="-315.8" font-family="Helvetica,sans-Serif" font-size="11.00" fill="#000000">[table]</text>
<polygon fill="none" stroke="#000000" points="176,-285.7 176,-307.7 268,-307.7 268,-285.7 176,-285.7"/>
<image xlink:href="../../images/primaryKeys.png" width="11px" height="12px" preserveAspectRatio="xMinYMin meet" x="181" y="-302.7"/>
<text text-anchor="start" x="196" y="-292.8" font-family="Helvetica,sans-Serif" font-size="11.00" fill="#000000">container_id</text>
<polygon fill="none" stroke="#000000" points="268,-285.7 268,-307.7 360,-307.7 360,-285.7 268,-285.7"/>
<text text-anchor="start" x="271" y="-293.4" font-family="Helvetica,sans-Serif" font-size="11.00" fill="#000000">int8[19]</text>
<polygon fill="none" stroke="#000000" points="176,-263.7 176,-285.7 268,-285.7 268,-263.7 176,-263.7"/>
<text text-anchor="start" x="196" y="-270.8" font-family="Helvetica,sans-Serif" font-size="11.00" fill="#000000">status</text>
<polygon fill="none" stroke="#000000" points="268,-263.7 268,-285.7 360,-285.7 360,-263.7 268,-263.7"/>
<text text-anchor="start" x="271" y="-271.4" font-family="Helvetica,sans-Serif" font-size="11.00" fill="#000000">varchar[50]</text>
<polygon fill="none" stroke="#000000" points="176,-241.7 176,-263.7 268,-263.7 268,-241.7 176,-241.7"/>
<text text-anchor="start" x="196" y="-248.8" font-family="Helvetica,sans-Serif" font-size="11.00" fill="#000000">notes</text>
<polygon fill="none" stroke="#000000" points="268,-241.7 268,-263.7 360,-263.7 360,-241.7 268,-241.7"/>
<text text-anchor="start" x="271" y="-249.4" font-family="Helvetica,sans-Serif" font-size="11.00" fill="#000000">text[2147483647]</text>
<polygon fill="none" stroke="#000000" points="176,-219.7 176,-241.7 268,-241.7 268,-219.7 176,-219.7"/>
<text text-anchor="start" x="196" y="-226.8" font-family="Helvetica,sans-Serif" font-size="11.00" fill="#000000">created_at</text>
<polygon fill="none" stroke="#000000" points="268,-219.7 268,-241.7 360,-241.7 360,-219.7 268,-219.7"/>
<text text-anchor="start" x="270.6023" y="-227.4" font-family="Helvetica,sans-Serif" font-size="11.00" fill="#000000">timestamptz[35,6]</text>
<polygon fill="none" stroke="#000000" points="176,-197.7 176,-219.7 268,-219.7 268,-197.7 176,-197.7"/>
<text text-anchor="start" x="196" y="-204.8" font-family="Helvetica,sans-Serif" font-size="11.00" fill="#000000">updated_at</text>
<polygon fill="none" stroke="#000000" points="268,-197.7 268,-219.7 360,-219.7 360,-197.7 268,-197.7"/>
<text text-anchor="start" x="270.6023" y="-205.4" font-family="Helvetica,sans-Serif" font-size="11.00" fill="#000000">timestamptz[35,6]</text>
<polygon fill="none" stroke="#000000" points="176,-175.7 176,-197.7 268,-197.7 268,-175.7 176,-175.7"/>
<text text-anchor="start" x="196" y="-182.8" font-family="Helvetica,sans-Serif" font-size="11.00" fill="#000000">source_type</text>
<polygon fill="none" stroke="#000000" points="268,-175.7 268,-197.7 360,-197.7 360,-175.7 268,-175.7"/>
<text text-anchor="start" x="271" y="-183.4" font-family="Helvetica,sans-Serif" font-size="11.00" fill="#000000">varchar[50]</text>
<polygon fill="none" stroke="#000000" points="176,-153.7 176,-175.7 268,-175.7 268,-153.7 176,-153.7"/>
<image xlink:href="../../images/foreignKeys.png" width="11px" height="12px" preserveAspectRatio="xMinYMin meet" x="181" y="-170.7"/>
<text text-anchor="start" x="196" y="-160.8" font-family="Helvetica,sans-Serif" font-size="11.00" fill="#000000">created_by</text>
<polygon fill="none" stroke="#000000" points="268,-153.7 268,-175.7 360,-175.7 360,-153.7 268,-153.7"/>
<text text-anchor="start" x="271" y="-161.4" font-family="Helvetica,sans-Serif" font-size="11.00" fill="#000000">int8[19]</text>
<polygon fill="none" stroke="#000000" points="176,-131.7 176,-153.7 268,-153.7 268,-131.7 176,-131.7"/>
<image xlink:href="../../images/foreignKeys.png" width="11px" height="12px" preserveAspectRatio="xMinYMin meet" x="181" y="-148.7"/>
<text text-anchor="start" x="196" y="-138.8" font-family="Helvetica,sans-Serif" font-size="11.00" fill="#000000">updated_by</text>
<polygon fill="none" stroke="#000000" points="268,-131.7 268,-153.7 360,-153.7 360,-131.7 268,-131.7"/>
<text text-anchor="start" x="271" y="-139.4" font-family="Helvetica,sans-Serif" font-size="11.00" fill="#000000">int8[19]</text>
<polygon fill="none" stroke="#000000" points="176,-109.7 176,-131.7 268,-131.7 268,-109.7 176,-109.7"/>
<image xlink:href="../../images/foreignKeys.png" width="11px" height="12px" preserveAspectRatio="xMinYMin meet" x="181" y="-126.7"/>
<text text-anchor="start" x="196" y="-116.8" font-family="Helvetica,sans-Serif" font-size="11.00" fill="#000000">order_id</text>
<polygon fill="none" stroke="#000000" points="268,-109.7 268,-131.7 360,-131.7 360,-109.7 268,-109.7"/>
<text text-anchor="start" x="271" y="-117.4" font-family="Helvetica,sans-Serif" font-size="11.00" fill="#000000">int8[19]</text>
<polygon fill="none" stroke="#000000" points="176,-87.7 176,-109.7 268,-109.7 268,-87.7 176,-87.7"/>
<image xlink:href="../../images/foreignKeys.png" width="11px" height="12px" preserveAspectRatio="xMinYMin meet" x="181" y="-104.7"/>
<text text-anchor="start" x="196" y="-94.8" font-family="Helvetica,sans-Serif" font-size="11.00" fill="#000000">trailer_id</text>
<polygon fill="none" stroke="#000000" points="268,-87.7 268,-109.7 360,-109.7 360,-87.7 268,-87.7"/>
<text text-anchor="start" x="271" y="-95.4" font-family="Helvetica,sans-Serif" font-size="11.00" fill="#000000">int8[19]</text>
<polygon fill="#ffffff" stroke="transparent" points="176,-68.7 176,-87.7 213,-87.7 213,-68.7 176,-68.7"/>
<polygon fill="none" stroke="#000000" points="176,-68.7 176,-87.7 213,-87.7 213,-68.7 176,-68.7"/>
<text text-anchor="start" x="179" y="-74.8" font-family="Helvetica,sans-Serif" font-size="11.00" fill="#000000">&lt; 4</text>
<polygon fill="#ffffff" stroke="transparent" points="213,-68.7 213,-87.7 268,-87.7 268,-68.7 213,-68.7"/>
<polygon fill="none" stroke="#000000" points="213,-68.7 213,-87.7 268,-87.7 268,-68.7 213,-68.7"/>
<text text-anchor="start" x="232.6105" y="-74.8" font-family="Helvetica,sans-Serif" font-size="11.00" fill="#000000">5 rows</text>
<polygon fill="#ffffff" stroke="transparent" points="268,-68.7 268,-87.7 360,-87.7 360,-68.7 268,-68.7"/>
<polygon fill="none" stroke="#000000" points="268,-68.7 268,-87.7 360,-87.7 360,-68.7 268,-68.7"/>
<text text-anchor="start" x="341.4053" y="-74.8" font-family="Helvetica,sans-Serif" font-size="11.00" fill="#000000">1 &gt;</text>
<polygon fill="none" stroke="#000000" stroke-width="2" points="175,-67.7 175,-331.7 361,-331.7 361,-67.7 175,-67.7"/>
</a>
</g>
</g>
<!-- container_legs&#45;&gt;containers -->
<g id="edge1" class="edge">
<title>container_legs:w&#45;&gt;containers:e</title>
<path fill="none" stroke="#000000" d="M397.1181,-508.7181C329.227,-487.1444 452.2855,-296.7 360,-296.7"/>
<polygon fill="#000000" stroke="#000000" points="403.5749,-509.6078 411.0085,-514.2663 407.5374,-510.1539 411.5,-510.7 411.5,-510.7 411.5,-510.7 407.5374,-510.1539 411.9915,-507.1337 403.5749,-509.6078 403.5749,-509.6078"/>
<ellipse fill="none" stroke="#000000" cx="400.4049" cy="-509.171" rx="3.2" ry="3.2"/>
</g>
<!-- public.users -->
<g id="node3" class="node">
<title>public.users</title>
<g id="a_node3"><a xlink:href="../../../public/tables/users.html" xlink:title="public.users" target="_top">
<polygon fill="#ffffff" stroke="transparent" points="12,-264.2 12,-325.2 121,-325.2 121,-264.2 12,-264.2"/>
<polygon fill="#f5f5f5" stroke="transparent" points="12.5,-301.7 12.5,-324.7 121.5,-324.7 121.5,-301.7 12.5,-301.7"/>
<polygon fill="none" stroke="#000000" points="12.5,-301.7 12.5,-324.7 121.5,-324.7 121.5,-301.7 12.5,-301.7"/>
<text text-anchor="start" x="17.5" y="-310.3" font-family="Helvetica,sans-Serif" font-weight="bold" font-size="11.00" fill="#000000">public.users</text>
<text text-anchor="start" x="87.0219" y="-309.8" font-family="Helvetica,sans-Serif" font-size="11.00" fill="#000000">[table]</text>
<polygon fill="none" stroke="#000000" points="12.5,-282.7 12.5,-301.7 121.5,-301.7 121.5,-282.7 12.5,-282.7"/>
<text text-anchor="start" x="15.5" y="-288.8" font-family="Helvetica,sans-Serif" font-size="11.00" fill="#000000">...</text>
<polygon fill="#ffffff" stroke="transparent" points="12.5,-263.7 12.5,-282.7 43.5,-282.7 43.5,-263.7 12.5,-263.7"/>
<polygon fill="none" stroke="#000000" points="12.5,-263.7 12.5,-282.7 43.5,-282.7 43.5,-263.7 12.5,-263.7"/>
<text text-anchor="start" x="15.5" y="-269.8" font-family="Helvetica,sans-Serif" font-size="11.00" fill="#000000"> &#160;</text>
<polygon fill="#ffffff" stroke="transparent" points="43.5,-263.7 43.5,-282.7 90.5,-282.7 90.5,-263.7 43.5,-263.7"/>
<polygon fill="none" stroke="#000000" points="43.5,-263.7 43.5,-282.7 90.5,-282.7 90.5,-263.7 43.5,-263.7"/>
<text text-anchor="start" x="55.1105" y="-269.8" font-family="Helvetica,sans-Serif" font-size="11.00" fill="#000000">0 rows</text>
<polygon fill="#ffffff" stroke="transparent" points="90.5,-263.7 90.5,-282.7 121.5,-282.7 121.5,-263.7 90.5,-263.7"/>
<polygon fill="none" stroke="#000000" points="90.5,-263.7 90.5,-282.7 121.5,-282.7 121.5,-263.7 90.5,-263.7"/>
<text text-anchor="start" x="102.9053" y="-269.8" font-family="Helvetica,sans-Serif" font-size="11.00" fill="#000000">6 &gt;</text>
</a>
</g>
</g>
<!-- container_legs&#45;&gt;public.users -->
<g id="edge2" class="edge">
<title>container_legs:w&#45;&gt;public.users:e</title>
<path fill="none" stroke="#000000" d="M396.9245,-378.8447C299.0652,-380.793 264.3432,-401.2247 166,-366.7 143.2658,-358.7189 121.2151,-343.7551 103.674,-329.5282"/>
<polygon fill="#000000" stroke="#000000" points="403.5004,-378.7795 411.5358,-382.2998 407.5002,-378.7397 411.5,-378.7 411.5,-378.7 411.5,-378.7 407.5002,-378.7397 411.4642,-375.1002 403.5004,-378.7795 403.5004,-378.7795"/>
<ellipse fill="none" stroke="#000000" cx="400.3006" cy="-378.8112" rx="3.2" ry="3.2"/>
</g>
<!-- container_legs&#45;&gt;public.users -->
<g id="edge3" class="edge">
<title>container_legs:w&#45;&gt;public.users:e</title>
<path fill="none" stroke="#000000" d="M396.9377,-356.7867C299.2766,-357.9503 266.8712,-370.0217 166,-343.7 152.9579,-340.2968 139.6088,-335.091 127.0957,-329.323"/>
<polygon fill="#000000" stroke="#000000" points="403.5001,-356.7477 411.5215,-360.2999 407.5001,-356.7238 411.5,-356.7 411.5,-356.7 411.5,-356.7 407.5001,-356.7238 411.4785,-353.1001 403.5001,-356.7477 403.5001,-356.7477"/>
<ellipse fill="none" stroke="#000000" cx="400.3002" cy="-356.7668" rx="3.2" ry="3.2"/>
</g>
<!-- containers&#45;&gt;public.users -->
<g id="edge4" class="edge">
<title>containers:w&#45;&gt;public.users:e</title>
<path fill="none" stroke="#000000" d="M161.9857,-169.3411C137.8675,-183.639 107.1844,-227.9733 87.2045,-259.8624"/>
<polygon fill="#000000" stroke="#000000" points="168.4056,-167.2151 177.1318,-168.1175 172.2028,-165.9575 176,-164.7 176,-164.7 176,-164.7 172.2028,-165.9575 174.8682,-161.2825 168.4056,-167.2151 168.4056,-167.2151"/>
<ellipse fill="none" stroke="#000000" cx="165.3679" cy="-168.2211" rx="3.2" ry="3.2"/>
</g>
<!-- containers&#45;&gt;public.users -->
<g id="edge7" class="edge">
<title>containers:w&#45;&gt;public.users:e</title>
<path fill="none" stroke="#000000" d="M165.3469,-152.6676C147.4662,-174.0342 112.708,-225.1197 89.5455,-259.8281"/>
<polygon fill="#000000" stroke="#000000" points="170.1583,-148.1658 178.4596,-145.3288 173.0792,-145.4329 176,-142.7 176,-142.7 176,-142.7 173.0792,-145.4329 173.5404,-140.0712 170.1583,-148.1658 170.1583,-148.1658"/>
<ellipse fill="none" stroke="#000000" cx="167.8217" cy="-150.3521" rx="3.2" ry="3.2"/>
</g>
<!-- public.orders -->
<g id="node4" class="node">
<title>public.orders</title>
<g id="a_node4"><a xlink:href="../../../public/tables/orders.html" xlink:title="public.orders" target="_top">
<polygon fill="#ffffff" stroke="transparent" points="9,-120.2 9,-181.2 124,-181.2 124,-120.2 9,-120.2"/>
<polygon fill="#f5f5f5" stroke="transparent" points="9.5,-157.7 9.5,-180.7 124.5,-180.7 124.5,-157.7 9.5,-157.7"/>
<polygon fill="none" stroke="#000000" points="9.5,-157.7 9.5,-180.7 124.5,-180.7 124.5,-157.7 9.5,-157.7"/>
<text text-anchor="start" x="14.5" y="-166.3" font-family="Helvetica,sans-Serif" font-weight="bold" font-size="11.00" fill="#000000">public.orders</text>
<text text-anchor="start" x="90.0219" y="-165.8" font-family="Helvetica,sans-Serif" font-size="11.00" fill="#000000">[table]</text>
<polygon fill="none" stroke="#000000" points="9.5,-138.7 9.5,-157.7 124.5,-157.7 124.5,-138.7 9.5,-138.7"/>
<text text-anchor="start" x="12.5" y="-144.8" font-family="Helvetica,sans-Serif" font-size="11.00" fill="#000000">...</text>
<polygon fill="#ffffff" stroke="transparent" points="9.5,-119.7 9.5,-138.7 43.5,-138.7 43.5,-119.7 9.5,-119.7"/>
<polygon fill="none" stroke="#000000" points="9.5,-119.7 9.5,-138.7 43.5,-138.7 43.5,-119.7 9.5,-119.7"/>
<text text-anchor="start" x="12.5" y="-125.8" font-family="Helvetica,sans-Serif" font-size="11.00" fill="#000000"> &#160;</text>
<polygon fill="#ffffff" stroke="transparent" points="43.5,-119.7 43.5,-138.7 92.5,-138.7 92.5,-119.7 43.5,-119.7"/>
<polygon fill="none" stroke="#000000" points="43.5,-119.7 43.5,-138.7 92.5,-138.7 92.5,-119.7 43.5,-119.7"/>
<text text-anchor="start" x="57.1105" y="-125.8" font-family="Helvetica,sans-Serif" font-size="11.00" fill="#000000">0 rows</text>
<polygon fill="#ffffff" stroke="transparent" points="92.5,-119.7 92.5,-138.7 124.5,-138.7 124.5,-119.7 92.5,-119.7"/>
<polygon fill="none" stroke="#000000" points="92.5,-119.7 92.5,-138.7 124.5,-138.7 124.5,-119.7 92.5,-119.7"/>
<text text-anchor="start" x="105.9053" y="-125.8" font-family="Helvetica,sans-Serif" font-size="11.00" fill="#000000">1 &gt;</text>
</a>
</g>
</g>
<!-- containers&#45;&gt;public.orders -->
<g id="edge5" class="edge">
<title>containers:w&#45;&gt;public.orders:e</title>
<path fill="none" stroke="#000000" d="M161.5669,-121.4486C151.637,-122.4362 141.6249,-124.3299 132.0159,-126.6988"/>
<polygon fill="#000000" stroke="#000000" points="168.0107,-121.1144 176.1865,-124.2952 172.0054,-120.9072 176,-120.7 176,-120.7 176,-120.7 172.0054,-120.9072 175.8135,-117.1048 168.0107,-121.1144 168.0107,-121.1144"/>
<ellipse fill="none" stroke="#000000" cx="164.815" cy="-121.2802" rx="3.2" ry="3.2"/>
</g>
<!-- public.trailers -->
<g id="node5" class="node">
<title>public.trailers</title>
<g id="a_node5"><a xlink:href="../../../public/tables/trailers.html" xlink:title="public.trailers" target="_top">
<polygon fill="#ffffff" stroke="transparent" points="8,-38.2 8,-99.2 125,-99.2 125,-38.2 8,-38.2"/>
<polygon fill="#f5f5f5" stroke="transparent" points="8.5,-75.7 8.5,-98.7 125.5,-98.7 125.5,-75.7 8.5,-75.7"/>
<polygon fill="none" stroke="#000000" points="8.5,-75.7 8.5,-98.7 125.5,-98.7 125.5,-75.7 8.5,-75.7"/>
<text text-anchor="start" x="13.5" y="-84.3" font-family="Helvetica,sans-Serif" font-weight="bold" font-size="11.00" fill="#000000">public.trailers</text>
<text text-anchor="start" x="91.0219" y="-83.8" font-family="Helvetica,sans-Serif" font-size="11.00" fill="#000000">[table]</text>
<polygon fill="none" stroke="#000000" points="8.5,-56.7 8.5,-75.7 125.5,-75.7 125.5,-56.7 8.5,-56.7"/>
<text text-anchor="start" x="11.5" y="-62.8" font-family="Helvetica,sans-Serif" font-size="11.00" fill="#000000">...</text>
<polygon fill="#ffffff" stroke="transparent" points="8.5,-37.7 8.5,-56.7 43.5,-56.7 43.5,-37.7 8.5,-37.7"/>
<polygon fill="none" stroke="#000000" points="8.5,-37.7 8.5,-56.7 43.5,-56.7 43.5,-37.7 8.5,-37.7"/>
<text text-anchor="start" x="11.5" y="-43.8" font-family="Helvetica,sans-Serif" font-size="11.00" fill="#000000"> &#160;</text>
<polygon fill="#ffffff" stroke="transparent" points="43.5,-37.7 43.5,-56.7 92.5,-56.7 92.5,-37.7 43.5,-37.7"/>
<polygon fill="none" stroke="#000000" points="43.5,-37.7 43.5,-56.7 92.5,-56.7 92.5,-37.7 43.5,-37.7"/>
<text text-anchor="start" x="57.1105" y="-43.8" font-family="Helvetica,sans-Serif" font-size="11.00" fill="#000000">0 rows</text>
<polygon fill="#ffffff" stroke="transparent" points="92.5,-37.7 92.5,-56.7 125.5,-56.7 125.5,-37.7 92.5,-37.7"/>
<polygon fill="none" stroke="#000000" points="92.5,-37.7 92.5,-56.7 125.5,-56.7 125.5,-37.7 92.5,-37.7"/>
<text text-anchor="start" x="106.9053" y="-43.8" font-family="Helvetica,sans-Serif" font-size="11.00" fill="#000000">1 &gt;</text>
</a>
</g>
</g>
<!-- containers&#45;&gt;public.trailers -->
<g id="edge6" class="edge">
<title>containers:w&#45;&gt;public.trailers:e</title>
<path fill="none" stroke="#000000" d="M161.2888,-97.9235C151.8523,-96.969 142.3457,-95.2003 133.1853,-92.9866"/>
<polygon fill="#000000" stroke="#000000" points="168.0111,-98.2783 175.8102,-102.295 172.0056,-98.4891 176,-98.7 176,-98.7 176,-98.7 172.0056,-98.4891 176.1898,-95.105 168.0111,-98.2783 168.0111,-98.2783"/>
<ellipse fill="none" stroke="#000000" cx="164.8156" cy="-98.1096" rx="3.2" ry="3.2"/>
</g>
</g>
</svg>
