<?xml version="1.0" encoding="UTF-8" standalone="no"?>
<!DOCTYPE svg PUBLIC "-//W3C//DTD SVG 1.1//EN"
 "http://www.w3.org/Graphics/SVG/1.1/DTD/svg11.dtd">
<!-- Generated by graphviz version 2.40.1 (20161225.0304)
 -->
<!-- Title: oneDegreeRelationshipsDiagram Pages: 1 -->
<svg width="612pt" height="551pt"
 viewBox="0.00 0.00 612.00 550.70" xmlns="http://www.w3.org/2000/svg" xmlns:xlink="http://www.w3.org/1999/xlink">
<g id="graph0" class="graph" transform="scale(1 1) rotate(0) translate(4 546.7)">
<title>oneDegreeRelationshipsDiagram</title>
<polygon fill="#ffffff" stroke="transparent" points="-4,4 -4,-546.7 608,-546.7 608,4 -4,4"/>
<text text-anchor="middle" x="72.4936" y="-7.3" font-family="Helvetica,sans-Serif" font-size="11.00" fill="#000000">Generated by SchemaSpy</text>
<!-- container_legs -->
<g id="node1" class="node">
<title>container_legs</title>
<g id="a_node1"><a xlink:href="../../tables/container_legs.html" xlink:title="container_legs" target="_top">
<polygon fill="#ffffff" stroke="transparent" points="345,-38.2 345,-480.2 596,-480.2 596,-38.2 345,-38.2"/>
<polygon fill="#f5f5f5" stroke="transparent" points="347.5,-455.2 347.5,-478.2 594.5,-478.2 594.5,-455.2 347.5,-455.2"/>
<polygon fill="none" stroke="#000000" points="347.5,-455.2 347.5,-478.2 594.5,-478.2 594.5,-455.2 347.5,-455.2"/>
<text text-anchor="start" x="352.5" y="-463.8" font-family="Helvetica,sans-Serif" font-weight="bold" font-size="11.00" fill="#000000">container_legs</text>
<text text-anchor="start" x="559.5437" y="-463.3" font-family="Helvetica,sans-Serif" font-size="11.00" fill="#000000">[table]</text>
<polygon fill="none" stroke="#000000" points="347.5,-433.2 347.5,-455.2 502.5,-455.2 502.5,-433.2 347.5,-433.2"/>
<image xlink:href="../../images/primaryKeys.png" width="11px" height="12px" preserveAspectRatio="xMinYMin meet" x="352.5" y="-450.2"/>
<text text-anchor="start" x="367.5" y="-440.3" font-family="Helvetica,sans-Serif" font-size="11.00" fill="#000000">container_leg_id</text>
<polygon fill="none" stroke="#000000" points="502.5,-433.2 502.5,-455.2 594.5,-455.2 594.5,-433.2 502.5,-433.2"/>
<text text-anchor="start" x="505.5" y="-440.9" font-family="Helvetica,sans-Serif" font-size="11.00" fill="#000000">int8[19]</text>
<polygon fill="#ffffff" stroke="transparent" points="347.5,-411.2 347.5,-433.2 502.5,-433.2 502.5,-411.2 347.5,-411.2"/>
<polygon fill="none" stroke="#000000" points="347.5,-411.2 347.5,-433.2 502.5,-433.2 502.5,-411.2 347.5,-411.2"/>
<image xlink:href="../../images/foreignKeys.png" width="11px" height="12px" preserveAspectRatio="xMinYMin meet" x="352.5" y="-428.2"/>
<text text-anchor="start" x="367.5" y="-418.3" font-family="Helvetica,sans-Serif" font-size="11.00" fill="#000000">container_id</text>
<polygon fill="none" stroke="#000000" points="502.5,-411.2 502.5,-433.2 594.5,-433.2 594.5,-411.2 502.5,-411.2"/>
<text text-anchor="start" x="505.5" y="-418.9" font-family="Helvetica,sans-Serif" font-size="11.00" fill="#000000">int8[19]</text>
<polygon fill="#ffffff" stroke="transparent" points="347.5,-389.2 347.5,-411.2 502.5,-411.2 502.5,-389.2 347.5,-389.2"/>
<polygon fill="none" stroke="#000000" points="347.5,-389.2 347.5,-411.2 502.5,-411.2 502.5,-389.2 347.5,-389.2"/>
<text text-anchor="start" x="367.5" y="-396.3" font-family="Helvetica,sans-Serif" font-size="11.00" fill="#000000">sequence_number</text>
<polygon fill="none" stroke="#000000" points="502.5,-389.2 502.5,-411.2 594.5,-411.2 594.5,-389.2 502.5,-389.2"/>
<text text-anchor="start" x="505.5" y="-396.9" font-family="Helvetica,sans-Serif" font-size="11.00" fill="#000000">int4[10]</text>
<polygon fill="none" stroke="#000000" points="347.5,-367.2 347.5,-389.2 502.5,-389.2 502.5,-367.2 347.5,-367.2"/>
<image xlink:href="../../images/foreignKeys.png" width="11px" height="12px" preserveAspectRatio="xMinYMin meet" x="352.5" y="-384.2"/>
<text text-anchor="start" x="367.5" y="-374.3" font-family="Helvetica,sans-Serif" font-size="11.00" fill="#000000">origin_location_id</text>
<polygon fill="none" stroke="#000000" points="502.5,-367.2 502.5,-389.2 594.5,-389.2 594.5,-367.2 502.5,-367.2"/>
<text text-anchor="start" x="505.5" y="-374.9" font-family="Helvetica,sans-Serif" font-size="11.00" fill="#000000">int8[19]</text>
<polygon fill="none" stroke="#000000" points="347.5,-345.2 347.5,-367.2 502.5,-367.2 502.5,-345.2 347.5,-345.2"/>
<image xlink:href="../../images/foreignKeys.png" width="11px" height="12px" preserveAspectRatio="xMinYMin meet" x="352.5" y="-362.2"/>
<text text-anchor="start" x="367.5" y="-352.3" font-family="Helvetica,sans-Serif" font-size="11.00" fill="#000000">destination_location_id</text>
<polygon fill="none" stroke="#000000" points="502.5,-345.2 502.5,-367.2 594.5,-367.2 594.5,-345.2 502.5,-345.2"/>
<text text-anchor="start" x="505.5" y="-352.9" font-family="Helvetica,sans-Serif" font-size="11.00" fill="#000000">int8[19]</text>
<polygon fill="none" stroke="#000000" points="347.5,-323.2 347.5,-345.2 502.5,-345.2 502.5,-323.2 347.5,-323.2"/>
<text text-anchor="start" x="367.5" y="-330.3" font-family="Helvetica,sans-Serif" font-size="11.00" fill="#000000">planned_departure</text>
<polygon fill="none" stroke="#000000" points="502.5,-323.2 502.5,-345.2 594.5,-345.2 594.5,-323.2 502.5,-323.2"/>
<text text-anchor="start" x="505.1023" y="-330.9" font-family="Helvetica,sans-Serif" font-size="11.00" fill="#000000">timestamptz[35,6]</text>
<polygon fill="none" stroke="#000000" points="347.5,-301.2 347.5,-323.2 502.5,-323.2 502.5,-301.2 347.5,-301.2"/>
<text text-anchor="start" x="367.5" y="-308.3" font-family="Helvetica,sans-Serif" font-size="11.00" fill="#000000">planned_arrival</text>
<polygon fill="none" stroke="#000000" points="502.5,-301.2 502.5,-323.2 594.5,-323.2 594.5,-301.2 502.5,-301.2"/>
<text text-anchor="start" x="505.1023" y="-308.9" font-family="Helvetica,sans-Serif" font-size="11.00" fill="#000000">timestamptz[35,6]</text>
<polygon fill="none" stroke="#000000" points="347.5,-279.2 347.5,-301.2 502.5,-301.2 502.5,-279.2 347.5,-279.2"/>
<text text-anchor="start" x="367.5" y="-286.3" font-family="Helvetica,sans-Serif" font-size="11.00" fill="#000000">actual_departure</text>
<polygon fill="none" stroke="#000000" points="502.5,-279.2 502.5,-301.2 594.5,-301.2 594.5,-279.2 502.5,-279.2"/>
<text text-anchor="start" x="505.1023" y="-286.9" font-family="Helvetica,sans-Serif" font-size="11.00" fill="#000000">timestamptz[35,6]</text>
<polygon fill="none" stroke="#000000" points="347.5,-257.2 347.5,-279.2 502.5,-279.2 502.5,-257.2 347.5,-257.2"/>
<text text-anchor="start" x="367.5" y="-264.3" font-family="Helvetica,sans-Serif" font-size="11.00" fill="#000000">actual_arrival</text>
<polygon fill="none" stroke="#000000" points="502.5,-257.2 502.5,-279.2 594.5,-279.2 594.5,-257.2 502.5,-257.2"/>
<text text-anchor="start" x="505.1023" y="-264.9" font-family="Helvetica,sans-Serif" font-size="11.00" fill="#000000">timestamptz[35,6]</text>
<polygon fill="none" stroke="#000000" points="347.5,-235.2 347.5,-257.2 502.5,-257.2 502.5,-235.2 347.5,-235.2"/>
<text text-anchor="start" x="367.5" y="-242.3" font-family="Helvetica,sans-Serif" font-size="11.00" fill="#000000">mode</text>
<polygon fill="none" stroke="#000000" points="502.5,-235.2 502.5,-257.2 594.5,-257.2 594.5,-235.2 502.5,-235.2"/>
<text text-anchor="start" x="505.5" y="-242.9" font-family="Helvetica,sans-Serif" font-size="11.00" fill="#000000">varchar[50]</text>
<polygon fill="none" stroke="#000000" points="347.5,-213.2 347.5,-235.2 502.5,-235.2 502.5,-213.2 347.5,-213.2"/>
<image xlink:href="../../images/foreignKeys.png" width="11px" height="12px" preserveAspectRatio="xMinYMin meet" x="352.5" y="-230.2"/>
<text text-anchor="start" x="367.5" y="-220.3" font-family="Helvetica,sans-Serif" font-size="11.00" fill="#000000">carrier_id</text>
<polygon fill="none" stroke="#000000" points="502.5,-213.2 502.5,-235.2 594.5,-235.2 594.5,-213.2 502.5,-213.2"/>
<text text-anchor="start" x="505.5" y="-220.9" font-family="Helvetica,sans-Serif" font-size="11.00" fill="#000000">int8[19]</text>
<polygon fill="none" stroke="#000000" points="347.5,-191.2 347.5,-213.2 502.5,-213.2 502.5,-191.2 347.5,-191.2"/>
<image xlink:href="../../images/foreignKeys.png" width="11px" height="12px" preserveAspectRatio="xMinYMin meet" x="352.5" y="-208.2"/>
<text text-anchor="start" x="367.5" y="-198.3" font-family="Helvetica,sans-Serif" font-size="11.00" fill="#000000">vehicle_id</text>
<polygon fill="none" stroke="#000000" points="502.5,-191.2 502.5,-213.2 594.5,-213.2 594.5,-191.2 502.5,-191.2"/>
<text text-anchor="start" x="505.5" y="-198.9" font-family="Helvetica,sans-Serif" font-size="11.00" fill="#000000">int8[19]</text>
<polygon fill="none" stroke="#000000" points="347.5,-169.2 347.5,-191.2 502.5,-191.2 502.5,-169.2 347.5,-169.2"/>
<text text-anchor="start" x="367.5" y="-176.3" font-family="Helvetica,sans-Serif" font-size="11.00" fill="#000000">status</text>
<polygon fill="none" stroke="#000000" points="502.5,-169.2 502.5,-191.2 594.5,-191.2 594.5,-169.2 502.5,-169.2"/>
<text text-anchor="start" x="505.5" y="-176.9" font-family="Helvetica,sans-Serif" font-size="11.00" fill="#000000">varchar[50]</text>
<polygon fill="none" stroke="#000000" points="347.5,-147.2 347.5,-169.2 502.5,-169.2 502.5,-147.2 347.5,-147.2"/>
<text text-anchor="start" x="367.5" y="-154.3" font-family="Helvetica,sans-Serif" font-size="11.00" fill="#000000">notes</text>
<polygon fill="none" stroke="#000000" points="502.5,-147.2 502.5,-169.2 594.5,-169.2 594.5,-147.2 502.5,-147.2"/>
<text text-anchor="start" x="505.5" y="-154.9" font-family="Helvetica,sans-Serif" font-size="11.00" fill="#000000">text[2147483647]</text>
<polygon fill="none" stroke="#000000" points="347.5,-125.2 347.5,-147.2 502.5,-147.2 502.5,-125.2 347.5,-125.2"/>
<text text-anchor="start" x="367.5" y="-132.3" font-family="Helvetica,sans-Serif" font-size="11.00" fill="#000000">created_at</text>
<polygon fill="none" stroke="#000000" points="502.5,-125.2 502.5,-147.2 594.5,-147.2 594.5,-125.2 502.5,-125.2"/>
<text text-anchor="start" x="505.1023" y="-132.9" font-family="Helvetica,sans-Serif" font-size="11.00" fill="#000000">timestamptz[35,6]</text>
<polygon fill="none" stroke="#000000" points="347.5,-103.2 347.5,-125.2 502.5,-125.2 502.5,-103.2 347.5,-103.2"/>
<text text-anchor="start" x="367.5" y="-110.3" font-family="Helvetica,sans-Serif" font-size="11.00" fill="#000000">updated_at</text>
<polygon fill="none" stroke="#000000" points="502.5,-103.2 502.5,-125.2 594.5,-125.2 594.5,-103.2 502.5,-103.2"/>
<text text-anchor="start" x="505.1023" y="-110.9" font-family="Helvetica,sans-Serif" font-size="11.00" fill="#000000">timestamptz[35,6]</text>
<polygon fill="none" stroke="#000000" points="347.5,-81.2 347.5,-103.2 502.5,-103.2 502.5,-81.2 347.5,-81.2"/>
<image xlink:href="../../images/foreignKeys.png" width="11px" height="12px" preserveAspectRatio="xMinYMin meet" x="352.5" y="-98.2"/>
<text text-anchor="start" x="367.5" y="-88.3" font-family="Helvetica,sans-Serif" font-size="11.00" fill="#000000">created_by</text>
<polygon fill="none" stroke="#000000" points="502.5,-81.2 502.5,-103.2 594.5,-103.2 594.5,-81.2 502.5,-81.2"/>
<text text-anchor="start" x="505.5" y="-88.9" font-family="Helvetica,sans-Serif" font-size="11.00" fill="#000000">int8[19]</text>
<polygon fill="none" stroke="#000000" points="347.5,-59.2 347.5,-81.2 502.5,-81.2 502.5,-59.2 347.5,-59.2"/>
<image xlink:href="../../images/foreignKeys.png" width="11px" height="12px" preserveAspectRatio="xMinYMin meet" x="352.5" y="-76.2"/>
<text text-anchor="start" x="367.5" y="-66.3" font-family="Helvetica,sans-Serif" font-size="11.00" fill="#000000">updated_by</text>
<polygon fill="none" stroke="#000000" points="502.5,-59.2 502.5,-81.2 594.5,-81.2 594.5,-59.2 502.5,-59.2"/>
<text text-anchor="start" x="505.5" y="-66.9" font-family="Helvetica,sans-Serif" font-size="11.00" fill="#000000">int8[19]</text>
<polygon fill="#ffffff" stroke="transparent" points="347.5,-40.2 347.5,-59.2 429.5,-59.2 429.5,-40.2 347.5,-40.2"/>
<polygon fill="none" stroke="#000000" points="347.5,-40.2 347.5,-59.2 429.5,-59.2 429.5,-40.2 347.5,-40.2"/>
<text text-anchor="start" x="350.5" y="-46.3" font-family="Helvetica,sans-Serif" font-size="11.00" fill="#000000">&lt; 7</text>
<polygon fill="#ffffff" stroke="transparent" points="429.5,-40.2 429.5,-59.2 502.5,-59.2 502.5,-40.2 429.5,-40.2"/>
<polygon fill="none" stroke="#000000" points="429.5,-40.2 429.5,-59.2 502.5,-59.2 502.5,-40.2 429.5,-40.2"/>
<text text-anchor="start" x="493.3862" y="-46.3" font-family="Helvetica,sans-Serif" font-size="11.00" fill="#000000"> &#160;</text>
<polygon fill="#ffffff" stroke="transparent" points="502.5,-40.2 502.5,-59.2 594.5,-59.2 594.5,-40.2 502.5,-40.2"/>
<polygon fill="none" stroke="#000000" points="502.5,-40.2 502.5,-59.2 594.5,-59.2 594.5,-40.2 502.5,-40.2"/>
<text text-anchor="start" x="575.9053" y="-46.3" font-family="Helvetica,sans-Serif" font-size="11.00" fill="#000000">0 &gt;</text>
<polygon fill="none" stroke="#000000" stroke-width="2" points="346,-39.2 346,-479.2 595,-479.2 595,-39.2 346,-39.2"/>
</a>
</g>
</g>
<!-- public.carriers -->
<g id="node2" class="node">
<title>public.carriers</title>
<g id="a_node2"><a xlink:href="../../../public/tables/carriers.html" xlink:title="public.carriers" target="_top">
<polygon fill="#ffffff" stroke="transparent" points="170.5,-203.7 170.5,-264.7 291.5,-264.7 291.5,-203.7 170.5,-203.7"/>
<polygon fill="#f5f5f5" stroke="transparent" points="171,-241.2 171,-264.2 292,-264.2 292,-241.2 171,-241.2"/>
<polygon fill="none" stroke="#000000" points="171,-241.2 171,-264.2 292,-264.2 292,-241.2 171,-241.2"/>
<text text-anchor="start" x="176" y="-249.8" font-family="Helvetica,sans-Serif" font-weight="bold" font-size="11.00" fill="#000000">public.carriers</text>
<text text-anchor="start" x="257.5219" y="-249.3" font-family="Helvetica,sans-Serif" font-size="11.00" fill="#000000">[table]</text>
<polygon fill="none" stroke="#000000" points="171,-222.2 171,-241.2 292,-241.2 292,-222.2 171,-222.2"/>
<text text-anchor="start" x="174" y="-228.3" font-family="Helvetica,sans-Serif" font-size="11.00" fill="#000000">...</text>
<polygon fill="#ffffff" stroke="transparent" points="171,-203.2 171,-222.2 208,-222.2 208,-203.2 171,-203.2"/>
<polygon fill="none" stroke="#000000" points="171,-203.2 171,-222.2 208,-222.2 208,-203.2 171,-203.2"/>
<text text-anchor="start" x="174" y="-209.3" font-family="Helvetica,sans-Serif" font-size="11.00" fill="#000000"> &#160;</text>
<polygon fill="#ffffff" stroke="transparent" points="208,-203.2 208,-222.2 258,-222.2 258,-203.2 208,-203.2"/>
<polygon fill="none" stroke="#000000" points="208,-203.2 208,-222.2 258,-222.2 258,-203.2 208,-203.2"/>
<text text-anchor="start" x="222.6105" y="-209.3" font-family="Helvetica,sans-Serif" font-size="11.00" fill="#000000">0 rows</text>
<polygon fill="#ffffff" stroke="transparent" points="258,-203.2 258,-222.2 292,-222.2 292,-203.2 258,-203.2"/>
<polygon fill="none" stroke="#000000" points="258,-203.2 258,-222.2 292,-222.2 292,-203.2 258,-203.2"/>
<text text-anchor="start" x="273.4053" y="-209.3" font-family="Helvetica,sans-Serif" font-size="11.00" fill="#000000">2 &gt;</text>
</a>
</g>
</g>
<!-- container_legs&#45;&gt;public.carriers -->
<g id="edge1" class="edge">
<title>container_legs:w&#45;&gt;public.carriers:e</title>
<path fill="none" stroke="#000000" d="M333.0508,-224.4336C321.9103,-224.7775 310.5305,-225.4745 299.6029,-226.3453"/>
<polygon fill="#000000" stroke="#000000" points="339.501,-224.3294 347.5582,-227.7995 343.5005,-224.2647 347.5,-224.2 347.5,-224.2 347.5,-224.2 343.5005,-224.2647 347.4418,-220.6005 339.501,-224.3294 339.501,-224.3294"/>
<ellipse fill="none" stroke="#000000" cx="336.3015" cy="-224.3811" rx="3.2" ry="3.2"/>
</g>
<!-- containers -->
<g id="node3" class="node">
<title>containers</title>
<g id="a_node3"><a xlink:href="../../tables/containers.html" xlink:title="containers" target="_top">
<polygon fill="#ffffff" stroke="transparent" points="181.5,-367.7 181.5,-538.7 280.5,-538.7 280.5,-367.7 181.5,-367.7"/>
<polygon fill="#f5f5f5" stroke="transparent" points="182,-515.2 182,-538.2 281,-538.2 281,-515.2 182,-515.2"/>
<polygon fill="none" stroke="#000000" points="182,-515.2 182,-538.2 281,-538.2 281,-515.2 182,-515.2"/>
<text text-anchor="start" x="187" y="-523.8" font-family="Helvetica,sans-Serif" font-weight="bold" font-size="11.00" fill="#000000">containers</text>
<text text-anchor="start" x="246.5219" y="-523.3" font-family="Helvetica,sans-Serif" font-size="11.00" fill="#000000">[table]</text>
<polygon fill="none" stroke="#000000" points="182,-493.2 182,-515.2 281,-515.2 281,-493.2 182,-493.2"/>
<image xlink:href="../../images/primaryKeys.png" width="11px" height="12px" preserveAspectRatio="xMinYMin meet" x="187" y="-510.2"/>
<text text-anchor="start" x="206" y="-500.3" font-family="Helvetica,sans-Serif" font-size="11.00" fill="#000000">container_id</text>
<polygon fill="none" stroke="#000000" points="182,-471.2 182,-493.2 281,-493.2 281,-471.2 182,-471.2"/>
<image xlink:href="../../images/foreignKeys.png" width="11px" height="12px" preserveAspectRatio="xMinYMin meet" x="187" y="-488.2"/>
<text text-anchor="start" x="206" y="-478.3" font-family="Helvetica,sans-Serif" font-size="11.00" fill="#000000">created_by</text>
<polygon fill="none" stroke="#000000" points="182,-449.2 182,-471.2 281,-471.2 281,-449.2 182,-449.2"/>
<image xlink:href="../../images/foreignKeys.png" width="11px" height="12px" preserveAspectRatio="xMinYMin meet" x="187" y="-466.2"/>
<text text-anchor="start" x="206" y="-456.3" font-family="Helvetica,sans-Serif" font-size="11.00" fill="#000000">updated_by</text>
<polygon fill="none" stroke="#000000" points="182,-427.2 182,-449.2 281,-449.2 281,-427.2 182,-427.2"/>
<image xlink:href="../../images/foreignKeys.png" width="11px" height="12px" preserveAspectRatio="xMinYMin meet" x="187" y="-444.2"/>
<text text-anchor="start" x="206" y="-434.3" font-family="Helvetica,sans-Serif" font-size="11.00" fill="#000000">order_id</text>
<polygon fill="none" stroke="#000000" points="182,-405.2 182,-427.2 281,-427.2 281,-405.2 182,-405.2"/>
<image xlink:href="../../images/foreignKeys.png" width="11px" height="12px" preserveAspectRatio="xMinYMin meet" x="187" y="-422.2"/>
<text text-anchor="start" x="206" y="-412.3" font-family="Helvetica,sans-Serif" font-size="11.00" fill="#000000">trailer_id</text>
<polygon fill="none" stroke="#000000" points="182,-386.2 182,-405.2 281,-405.2 281,-386.2 182,-386.2"/>
<text text-anchor="start" x="185" y="-392.3" font-family="Helvetica,sans-Serif" font-size="11.00" fill="#000000">...</text>
<polygon fill="#ffffff" stroke="transparent" points="182,-367.2 182,-386.2 212,-386.2 212,-367.2 182,-367.2"/>
<polygon fill="none" stroke="#000000" points="182,-367.2 182,-386.2 212,-386.2 212,-367.2 182,-367.2"/>
<text text-anchor="start" x="185" y="-373.3" font-family="Helvetica,sans-Serif" font-size="11.00" fill="#000000">&lt; 4</text>
<polygon fill="#ffffff" stroke="transparent" points="212,-367.2 212,-386.2 255,-386.2 255,-367.2 212,-367.2"/>
<polygon fill="none" stroke="#000000" points="212,-367.2 212,-386.2 255,-386.2 255,-367.2 212,-367.2"/>
<text text-anchor="start" x="219.6105" y="-373.3" font-family="Helvetica,sans-Serif" font-size="11.00" fill="#000000">5 rows</text>
<polygon fill="#ffffff" stroke="transparent" points="255,-367.2 255,-386.2 281,-386.2 281,-367.2 255,-367.2"/>
<polygon fill="none" stroke="#000000" points="255,-367.2 255,-386.2 281,-386.2 281,-367.2 255,-367.2"/>
<text text-anchor="start" x="262.4053" y="-373.3" font-family="Helvetica,sans-Serif" font-size="11.00" fill="#000000">1 &gt;</text>
</a>
</g>
</g>
<!-- container_legs&#45;&gt;containers -->
<g id="edge2" class="edge">
<title>container_legs:w&#45;&gt;containers:e</title>
<path fill="none" stroke="#000000" d="M333.4573,-425.5161C306.111,-440.857 322.2405,-504.2 281,-504.2"/>
<polygon fill="#000000" stroke="#000000" points="339.7141,-424.0386 348.3274,-425.7036 343.6071,-423.1193 347.5,-422.2 347.5,-422.2 347.5,-422.2 343.6071,-423.1193 346.6726,-418.6964 339.7141,-424.0386 339.7141,-424.0386"/>
<ellipse fill="none" stroke="#000000" cx="336.5998" cy="-424.774" rx="3.2" ry="3.2"/>
</g>
<!-- public.users -->
<g id="node4" class="node">
<title>public.users</title>
<g id="a_node4"><a xlink:href="../../../public/tables/users.html" xlink:title="public.users" target="_top">
<polygon fill="#ffffff" stroke="transparent" points="8,-247.7 8,-308.7 117,-308.7 117,-247.7 8,-247.7"/>
<polygon fill="#f5f5f5" stroke="transparent" points="8.5,-285.2 8.5,-308.2 117.5,-308.2 117.5,-285.2 8.5,-285.2"/>
<polygon fill="none" stroke="#000000" points="8.5,-285.2 8.5,-308.2 117.5,-308.2 117.5,-285.2 8.5,-285.2"/>
<text text-anchor="start" x="13.5" y="-293.8" font-family="Helvetica,sans-Serif" font-weight="bold" font-size="11.00" fill="#000000">public.users</text>
<text text-anchor="start" x="83.0219" y="-293.3" font-family="Helvetica,sans-Serif" font-size="11.00" fill="#000000">[table]</text>
<polygon fill="none" stroke="#000000" points="8.5,-266.2 8.5,-285.2 117.5,-285.2 117.5,-266.2 8.5,-266.2"/>
<text text-anchor="start" x="11.5" y="-272.3" font-family="Helvetica,sans-Serif" font-size="11.00" fill="#000000">...</text>
<polygon fill="#ffffff" stroke="transparent" points="8.5,-247.2 8.5,-266.2 39.5,-266.2 39.5,-247.2 8.5,-247.2"/>
<polygon fill="none" stroke="#000000" points="8.5,-247.2 8.5,-266.2 39.5,-266.2 39.5,-247.2 8.5,-247.2"/>
<text text-anchor="start" x="11.5" y="-253.3" font-family="Helvetica,sans-Serif" font-size="11.00" fill="#000000"> &#160;</text>
<polygon fill="#ffffff" stroke="transparent" points="39.5,-247.2 39.5,-266.2 86.5,-266.2 86.5,-247.2 39.5,-247.2"/>
<polygon fill="none" stroke="#000000" points="39.5,-247.2 39.5,-266.2 86.5,-266.2 86.5,-247.2 39.5,-247.2"/>
<text text-anchor="start" x="51.1105" y="-253.3" font-family="Helvetica,sans-Serif" font-size="11.00" fill="#000000">0 rows</text>
<polygon fill="#ffffff" stroke="transparent" points="86.5,-247.2 86.5,-266.2 117.5,-266.2 117.5,-247.2 86.5,-247.2"/>
<polygon fill="none" stroke="#000000" points="86.5,-247.2 86.5,-266.2 117.5,-266.2 117.5,-247.2 86.5,-247.2"/>
<text text-anchor="start" x="98.9053" y="-253.3" font-family="Helvetica,sans-Serif" font-size="11.00" fill="#000000">6 &gt;</text>
</a>
</g>
</g>
<!-- container_legs&#45;&gt;public.users -->
<g id="edge3" class="edge">
<title>container_legs:w&#45;&gt;public.users:e</title>
<path fill="none" stroke="#000000" d="M332.6642,-91.9245C258.6201,-89.1893 224.705,-67.9126 158,-111.2 110.9319,-141.7443 84.5123,-204.1201 71.9105,-243.3942"/>
<polygon fill="#000000" stroke="#000000" points="339.5014,-92.0514 347.4331,-95.7994 343.5007,-92.1257 347.5,-92.2 347.5,-92.2 347.5,-92.2 343.5007,-92.1257 347.5669,-88.6006 339.5014,-92.0514 339.5014,-92.0514"/>
<ellipse fill="none" stroke="#000000" cx="336.3019" cy="-91.9919" rx="3.2" ry="3.2"/>
</g>
<!-- container_legs&#45;&gt;public.users -->
<g id="edge6" class="edge">
<title>container_legs:w&#45;&gt;public.users:e</title>
<path fill="none" stroke="#000000" d="M332.6956,-69.8413C258.742,-66.2652 223.8638,-38.0697 158,-82.2 102.6549,-119.2824 78.2707,-198.0172 68.4353,-243.605"/>
<polygon fill="#000000" stroke="#000000" points="339.5023,-70.0062 347.4128,-73.7989 343.5012,-70.1031 347.5,-70.2 347.5,-70.2 347.5,-70.2 343.5012,-70.1031 347.5872,-66.6011 339.5023,-70.0062 339.5023,-70.0062"/>
<ellipse fill="none" stroke="#000000" cx="336.3033" cy="-69.9286" rx="3.2" ry="3.2"/>
</g>
<!-- public.locations -->
<g id="node5" class="node">
<title>public.locations</title>
<g id="a_node5"><a xlink:href="../../../public/tables/locations.html" xlink:title="public.locations" target="_top">
<polygon fill="#ffffff" stroke="transparent" points="166,-285.7 166,-346.7 296,-346.7 296,-285.7 166,-285.7"/>
<polygon fill="#f5f5f5" stroke="transparent" points="166,-323.2 166,-346.2 296,-346.2 296,-323.2 166,-323.2"/>
<polygon fill="none" stroke="#000000" points="166,-323.2 166,-346.2 296,-346.2 296,-323.2 166,-323.2"/>
<text text-anchor="start" x="171" y="-331.8" font-family="Helvetica,sans-Serif" font-weight="bold" font-size="11.00" fill="#000000">public.locations</text>
<text text-anchor="start" x="261.5219" y="-331.3" font-family="Helvetica,sans-Serif" font-size="11.00" fill="#000000">[table]</text>
<polygon fill="none" stroke="#000000" points="166,-304.2 166,-323.2 296,-323.2 296,-304.2 166,-304.2"/>
<text text-anchor="start" x="169" y="-310.3" font-family="Helvetica,sans-Serif" font-size="11.00" fill="#000000">...</text>
<polygon fill="#ffffff" stroke="transparent" points="166,-285.2 166,-304.2 207,-304.2 207,-285.2 166,-285.2"/>
<polygon fill="none" stroke="#000000" points="166,-285.2 166,-304.2 207,-304.2 207,-285.2 166,-285.2"/>
<text text-anchor="start" x="169" y="-291.3" font-family="Helvetica,sans-Serif" font-size="11.00" fill="#000000"> &#160;</text>
<polygon fill="#ffffff" stroke="transparent" points="207,-285.2 207,-304.2 260,-304.2 260,-285.2 207,-285.2"/>
<polygon fill="none" stroke="#000000" points="207,-285.2 207,-304.2 260,-304.2 260,-285.2 207,-285.2"/>
<text text-anchor="start" x="224.6105" y="-291.3" font-family="Helvetica,sans-Serif" font-size="11.00" fill="#000000">0 rows</text>
<polygon fill="#ffffff" stroke="transparent" points="260,-285.2 260,-304.2 296,-304.2 296,-285.2 260,-285.2"/>
<polygon fill="none" stroke="#000000" points="260,-285.2 260,-304.2 296,-304.2 296,-285.2 260,-285.2"/>
<text text-anchor="start" x="277.4053" y="-291.3" font-family="Helvetica,sans-Serif" font-size="11.00" fill="#000000">2 &gt;</text>
</a>
</g>
</g>
<!-- container_legs&#45;&gt;public.locations -->
<g id="edge4" class="edge">
<title>container_legs:w&#45;&gt;public.locations:e</title>
<path fill="none" stroke="#000000" d="M332.9445,-355.3268C323.3081,-354.2118 313.6426,-352.1011 304.309,-349.4145"/>
<polygon fill="#000000" stroke="#000000" points="339.5144,-355.7209 347.2844,-359.7935 343.5072,-355.9604 347.5,-356.2 347.5,-356.2 347.5,-356.2 343.5072,-355.9604 347.7156,-352.6065 339.5144,-355.7209 339.5144,-355.7209"/>
<ellipse fill="none" stroke="#000000" cx="336.3201" cy="-355.5292" rx="3.2" ry="3.2"/>
</g>
<!-- container_legs&#45;&gt;public.locations -->
<g id="edge5" class="edge">
<title>container_legs:w&#45;&gt;public.locations:e</title>
<path fill="none" stroke="#000000" d="M334.0541,-372.4921C323.6346,-367.3273 308.5468,-359.2578 293.1162,-350.8254"/>
<polygon fill="#000000" stroke="#000000" points="340.136,-375.0739 346.0933,-381.5138 343.818,-376.637 347.5,-378.2 347.5,-378.2 347.5,-378.2 343.818,-376.637 348.9067,-374.8862 340.136,-375.0739 340.136,-375.0739"/>
<ellipse fill="none" stroke="#000000" cx="337.1905" cy="-373.8235" rx="3.2" ry="3.2"/>
</g>
<!-- public.vehicles -->
<g id="node6" class="node">
<title>public.vehicles</title>
<g id="a_node6"><a xlink:href="../../../public/tables/vehicles.html" xlink:title="public.vehicles" target="_top">
<polygon fill="#ffffff" stroke="transparent" points="168.5,-121.7 168.5,-182.7 293.5,-182.7 293.5,-121.7 168.5,-121.7"/>
<polygon fill="#f5f5f5" stroke="transparent" points="169,-159.2 169,-182.2 294,-182.2 294,-159.2 169,-159.2"/>
<polygon fill="none" stroke="#000000" points="169,-159.2 169,-182.2 294,-182.2 294,-159.2 169,-159.2"/>
<text text-anchor="start" x="174" y="-167.8" font-family="Helvetica,sans-Serif" font-weight="bold" font-size="11.00" fill="#000000">public.vehicles</text>
<text text-anchor="start" x="259.5219" y="-167.3" font-family="Helvetica,sans-Serif" font-size="11.00" fill="#000000">[table]</text>
<polygon fill="none" stroke="#000000" points="169,-140.2 169,-159.2 294,-159.2 294,-140.2 169,-140.2"/>
<text text-anchor="start" x="172" y="-146.3" font-family="Helvetica,sans-Serif" font-size="11.00" fill="#000000">...</text>
<polygon fill="#ffffff" stroke="transparent" points="169,-121.2 169,-140.2 208,-140.2 208,-121.2 169,-121.2"/>
<polygon fill="none" stroke="#000000" points="169,-121.2 169,-140.2 208,-140.2 208,-121.2 169,-121.2"/>
<text text-anchor="start" x="172" y="-127.3" font-family="Helvetica,sans-Serif" font-size="11.00" fill="#000000"> &#160;</text>
<polygon fill="#ffffff" stroke="transparent" points="208,-121.2 208,-140.2 259,-140.2 259,-121.2 208,-121.2"/>
<polygon fill="none" stroke="#000000" points="208,-121.2 208,-140.2 259,-140.2 259,-121.2 208,-121.2"/>
<text text-anchor="start" x="223.6105" y="-127.3" font-family="Helvetica,sans-Serif" font-size="11.00" fill="#000000">0 rows</text>
<polygon fill="#ffffff" stroke="transparent" points="259,-121.2 259,-140.2 294,-140.2 294,-121.2 259,-121.2"/>
<polygon fill="none" stroke="#000000" points="259,-121.2 259,-140.2 294,-140.2 294,-121.2 259,-121.2"/>
<text text-anchor="start" x="275.4053" y="-127.3" font-family="Helvetica,sans-Serif" font-size="11.00" fill="#000000">1 &gt;</text>
</a>
</g>
</g>
<!-- container_legs&#45;&gt;public.vehicles -->
<g id="edge7" class="edge">
<title>container_legs:w&#45;&gt;public.vehicles:e</title>
<path fill="none" stroke="#000000" d="M333.0984,-199.6932C323.3453,-196.9561 311.4079,-192.2303 299.1789,-186.7904"/>
<polygon fill="#000000" stroke="#000000" points="339.6185,-200.8281 346.8826,-205.7467 343.5593,-201.514 347.5,-202.2 347.5,-202.2 347.5,-202.2 343.5593,-201.514 348.1174,-198.6533 339.6185,-200.8281 339.6185,-200.8281"/>
<ellipse fill="none" stroke="#000000" cx="336.4659" cy="-200.2793" rx="3.2" ry="3.2"/>
</g>
<!-- containers&#45;&gt;public.users -->
<g id="edge8" class="edge">
<title>containers:w&#45;&gt;public.users:e</title>
<path fill="none" stroke="#000000" d="M167.6074,-480.8582C100.8707,-468.0868 75.6512,-367.2566 66.8303,-312.8058"/>
<polygon fill="#000000" stroke="#000000" points="174.0345,-481.4573 181.6658,-485.7845 178.0173,-481.8287 182,-482.2 182,-482.2 182,-482.2 178.0173,-481.8287 182.3342,-478.6155 174.0345,-481.4573 174.0345,-481.4573"/>
<ellipse fill="none" stroke="#000000" cx="170.8484" cy="-481.1603" rx="3.2" ry="3.2"/>
</g>
<!-- containers&#45;&gt;public.users -->
<g id="edge9" class="edge">
<title>containers:w&#45;&gt;public.users:e</title>
<path fill="none" stroke="#000000" d="M167.4758,-458.7704C107.8386,-446.7549 80.104,-361.8508 68.9377,-312.8612"/>
<polygon fill="#000000" stroke="#000000" points="174.0385,-459.4163 181.6473,-463.7827 178.0192,-459.8081 182,-460.2 182,-460.2 182,-460.2 178.0192,-459.8081 182.3527,-456.6173 174.0385,-459.4163 174.0385,-459.4163"/>
<ellipse fill="none" stroke="#000000" cx="170.8539" cy="-459.1028" rx="3.2" ry="3.2"/>
</g>
</g>
</svg>
