<?xml version="1.0" encoding="UTF-8" standalone="no"?>
<!DOCTYPE svg PUBLIC "-//W3C//DTD SVG 1.1//EN"
 "http://www.w3.org/Graphics/SVG/1.1/DTD/svg11.dtd">
<!-- Generated by graphviz version 2.40.1 (20161225.0304)
 -->
<!-- Title: twoDegreesRelationshipsDiagram Pages: 1 -->
<svg width="624pt" height="518pt"
 viewBox="0.00 0.00 624.00 517.90" xmlns="http://www.w3.org/2000/svg" xmlns:xlink="http://www.w3.org/1999/xlink">
<g id="graph0" class="graph" transform="scale(1 1) rotate(0) translate(4 513.8998)">
<title>twoDegreesRelationshipsDiagram</title>
<polygon fill="#ffffff" stroke="transparent" points="-4,4 -4,-513.8998 620,-513.8998 620,4 -4,4"/>
<text text-anchor="middle" x="72.4936" y="-7.3" font-family="Helvetica,sans-Serif" font-size="11.00" fill="#000000">Generated by SchemaSpy</text>
<!-- container_legs -->
<g id="node1" class="node">
<title>container_legs</title>
<g id="a_node1"><a xlink:href="../../tables/container_legs.html" xlink:title="container_legs" target="_top">
<polygon fill="#ffffff" stroke="transparent" points="357,-47.3998 357,-489.3998 608,-489.3998 608,-47.3998 357,-47.3998"/>
<polygon fill="#f5f5f5" stroke="transparent" points="359.5,-464.3998 359.5,-487.3998 606.5,-487.3998 606.5,-464.3998 359.5,-464.3998"/>
<polygon fill="none" stroke="#000000" points="359.5,-464.3998 359.5,-487.3998 606.5,-487.3998 606.5,-464.3998 359.5,-464.3998"/>
<text text-anchor="start" x="364.5" y="-472.9998" font-family="Helvetica,sans-Serif" font-weight="bold" font-size="11.00" fill="#000000">container_legs</text>
<text text-anchor="start" x="571.5437" y="-472.4998" font-family="Helvetica,sans-Serif" font-size="11.00" fill="#000000">[table]</text>
<polygon fill="none" stroke="#000000" points="359.5,-442.3998 359.5,-464.3998 514.5,-464.3998 514.5,-442.3998 359.5,-442.3998"/>
<image xlink:href="../../images/primaryKeys.png" width="11px" height="12px" preserveAspectRatio="xMinYMin meet" x="364.5" y="-459.4"/>
<text text-anchor="start" x="379.5" y="-449.4998" font-family="Helvetica,sans-Serif" font-size="11.00" fill="#000000">container_leg_id</text>
<polygon fill="none" stroke="#000000" points="514.5,-442.3998 514.5,-464.3998 606.5,-464.3998 606.5,-442.3998 514.5,-442.3998"/>
<text text-anchor="start" x="517.5" y="-450.0998" font-family="Helvetica,sans-Serif" font-size="11.00" fill="#000000">int8[19]</text>
<polygon fill="#ffffff" stroke="transparent" points="359.5,-420.3998 359.5,-442.3998 514.5,-442.3998 514.5,-420.3998 359.5,-420.3998"/>
<polygon fill="none" stroke="#000000" points="359.5,-420.3998 359.5,-442.3998 514.5,-442.3998 514.5,-420.3998 359.5,-420.3998"/>
<image xlink:href="../../images/foreignKeys.png" width="11px" height="12px" preserveAspectRatio="xMinYMin meet" x="364.5" y="-437.4"/>
<text text-anchor="start" x="379.5" y="-427.4998" font-family="Helvetica,sans-Serif" font-size="11.00" fill="#000000">container_id</text>
<polygon fill="none" stroke="#000000" points="514.5,-420.3998 514.5,-442.3998 606.5,-442.3998 606.5,-420.3998 514.5,-420.3998"/>
<text text-anchor="start" x="517.5" y="-428.0998" font-family="Helvetica,sans-Serif" font-size="11.00" fill="#000000">int8[19]</text>
<polygon fill="#ffffff" stroke="transparent" points="359.5,-398.3998 359.5,-420.3998 514.5,-420.3998 514.5,-398.3998 359.5,-398.3998"/>
<polygon fill="none" stroke="#000000" points="359.5,-398.3998 359.5,-420.3998 514.5,-420.3998 514.5,-398.3998 359.5,-398.3998"/>
<text text-anchor="start" x="379.5" y="-405.4998" font-family="Helvetica,sans-Serif" font-size="11.00" fill="#000000">sequence_number</text>
<polygon fill="none" stroke="#000000" points="514.5,-398.3998 514.5,-420.3998 606.5,-420.3998 606.5,-398.3998 514.5,-398.3998"/>
<text text-anchor="start" x="517.5" y="-406.0998" font-family="Helvetica,sans-Serif" font-size="11.00" fill="#000000">int4[10]</text>
<polygon fill="none" stroke="#000000" points="359.5,-376.3998 359.5,-398.3998 514.5,-398.3998 514.5,-376.3998 359.5,-376.3998"/>
<image xlink:href="../../images/foreignKeys.png" width="11px" height="12px" preserveAspectRatio="xMinYMin meet" x="364.5" y="-393.4"/>
<text text-anchor="start" x="379.5" y="-383.4998" font-family="Helvetica,sans-Serif" font-size="11.00" fill="#000000">origin_location_id</text>
<polygon fill="none" stroke="#000000" points="514.5,-376.3998 514.5,-398.3998 606.5,-398.3998 606.5,-376.3998 514.5,-376.3998"/>
<text text-anchor="start" x="517.5" y="-384.0998" font-family="Helvetica,sans-Serif" font-size="11.00" fill="#000000">int8[19]</text>
<polygon fill="none" stroke="#000000" points="359.5,-354.3998 359.5,-376.3998 514.5,-376.3998 514.5,-354.3998 359.5,-354.3998"/>
<image xlink:href="../../images/foreignKeys.png" width="11px" height="12px" preserveAspectRatio="xMinYMin meet" x="364.5" y="-371.4"/>
<text text-anchor="start" x="379.5" y="-361.4998" font-family="Helvetica,sans-Serif" font-size="11.00" fill="#000000">destination_location_id</text>
<polygon fill="none" stroke="#000000" points="514.5,-354.3998 514.5,-376.3998 606.5,-376.3998 606.5,-354.3998 514.5,-354.3998"/>
<text text-anchor="start" x="517.5" y="-362.0998" font-family="Helvetica,sans-Serif" font-size="11.00" fill="#000000">int8[19]</text>
<polygon fill="none" stroke="#000000" points="359.5,-332.3998 359.5,-354.3998 514.5,-354.3998 514.5,-332.3998 359.5,-332.3998"/>
<text text-anchor="start" x="379.5" y="-339.4998" font-family="Helvetica,sans-Serif" font-size="11.00" fill="#000000">planned_departure</text>
<polygon fill="none" stroke="#000000" points="514.5,-332.3998 514.5,-354.3998 606.5,-354.3998 606.5,-332.3998 514.5,-332.3998"/>
<text text-anchor="start" x="517.1023" y="-340.0998" font-family="Helvetica,sans-Serif" font-size="11.00" fill="#000000">timestamptz[35,6]</text>
<polygon fill="none" stroke="#000000" points="359.5,-310.3998 359.5,-332.3998 514.5,-332.3998 514.5,-310.3998 359.5,-310.3998"/>
<text text-anchor="start" x="379.5" y="-317.4998" font-family="Helvetica,sans-Serif" font-size="11.00" fill="#000000">planned_arrival</text>
<polygon fill="none" stroke="#000000" points="514.5,-310.3998 514.5,-332.3998 606.5,-332.3998 606.5,-310.3998 514.5,-310.3998"/>
<text text-anchor="start" x="517.1023" y="-318.0998" font-family="Helvetica,sans-Serif" font-size="11.00" fill="#000000">timestamptz[35,6]</text>
<polygon fill="none" stroke="#000000" points="359.5,-288.3998 359.5,-310.3998 514.5,-310.3998 514.5,-288.3998 359.5,-288.3998"/>
<text text-anchor="start" x="379.5" y="-295.4998" font-family="Helvetica,sans-Serif" font-size="11.00" fill="#000000">actual_departure</text>
<polygon fill="none" stroke="#000000" points="514.5,-288.3998 514.5,-310.3998 606.5,-310.3998 606.5,-288.3998 514.5,-288.3998"/>
<text text-anchor="start" x="517.1023" y="-296.0998" font-family="Helvetica,sans-Serif" font-size="11.00" fill="#000000">timestamptz[35,6]</text>
<polygon fill="none" stroke="#000000" points="359.5,-266.3998 359.5,-288.3998 514.5,-288.3998 514.5,-266.3998 359.5,-266.3998"/>
<text text-anchor="start" x="379.5" y="-273.4998" font-family="Helvetica,sans-Serif" font-size="11.00" fill="#000000">actual_arrival</text>
<polygon fill="none" stroke="#000000" points="514.5,-266.3998 514.5,-288.3998 606.5,-288.3998 606.5,-266.3998 514.5,-266.3998"/>
<text text-anchor="start" x="517.1023" y="-274.0998" font-family="Helvetica,sans-Serif" font-size="11.00" fill="#000000">timestamptz[35,6]</text>
<polygon fill="none" stroke="#000000" points="359.5,-244.3998 359.5,-266.3998 514.5,-266.3998 514.5,-244.3998 359.5,-244.3998"/>
<text text-anchor="start" x="379.5" y="-251.4998" font-family="Helvetica,sans-Serif" font-size="11.00" fill="#000000">mode</text>
<polygon fill="none" stroke="#000000" points="514.5,-244.3998 514.5,-266.3998 606.5,-266.3998 606.5,-244.3998 514.5,-244.3998"/>
<text text-anchor="start" x="517.5" y="-252.0998" font-family="Helvetica,sans-Serif" font-size="11.00" fill="#000000">varchar[50]</text>
<polygon fill="none" stroke="#000000" points="359.5,-222.3998 359.5,-244.3998 514.5,-244.3998 514.5,-222.3998 359.5,-222.3998"/>
<image xlink:href="../../images/foreignKeys.png" width="11px" height="12px" preserveAspectRatio="xMinYMin meet" x="364.5" y="-239.4"/>
<text text-anchor="start" x="379.5" y="-229.4998" font-family="Helvetica,sans-Serif" font-size="11.00" fill="#000000">carrier_id</text>
<polygon fill="none" stroke="#000000" points="514.5,-222.3998 514.5,-244.3998 606.5,-244.3998 606.5,-222.3998 514.5,-222.3998"/>
<text text-anchor="start" x="517.5" y="-230.0998" font-family="Helvetica,sans-Serif" font-size="11.00" fill="#000000">int8[19]</text>
<polygon fill="none" stroke="#000000" points="359.5,-200.3998 359.5,-222.3998 514.5,-222.3998 514.5,-200.3998 359.5,-200.3998"/>
<image xlink:href="../../images/foreignKeys.png" width="11px" height="12px" preserveAspectRatio="xMinYMin meet" x="364.5" y="-217.4"/>
<text text-anchor="start" x="379.5" y="-207.4998" font-family="Helvetica,sans-Serif" font-size="11.00" fill="#000000">vehicle_id</text>
<polygon fill="none" stroke="#000000" points="514.5,-200.3998 514.5,-222.3998 606.5,-222.3998 606.5,-200.3998 514.5,-200.3998"/>
<text text-anchor="start" x="517.5" y="-208.0998" font-family="Helvetica,sans-Serif" font-size="11.00" fill="#000000">int8[19]</text>
<polygon fill="none" stroke="#000000" points="359.5,-178.3998 359.5,-200.3998 514.5,-200.3998 514.5,-178.3998 359.5,-178.3998"/>
<text text-anchor="start" x="379.5" y="-185.4998" font-family="Helvetica,sans-Serif" font-size="11.00" fill="#000000">status</text>
<polygon fill="none" stroke="#000000" points="514.5,-178.3998 514.5,-200.3998 606.5,-200.3998 606.5,-178.3998 514.5,-178.3998"/>
<text text-anchor="start" x="517.5" y="-186.0998" font-family="Helvetica,sans-Serif" font-size="11.00" fill="#000000">varchar[50]</text>
<polygon fill="none" stroke="#000000" points="359.5,-156.3998 359.5,-178.3998 514.5,-178.3998 514.5,-156.3998 359.5,-156.3998"/>
<text text-anchor="start" x="379.5" y="-163.4998" font-family="Helvetica,sans-Serif" font-size="11.00" fill="#000000">notes</text>
<polygon fill="none" stroke="#000000" points="514.5,-156.3998 514.5,-178.3998 606.5,-178.3998 606.5,-156.3998 514.5,-156.3998"/>
<text text-anchor="start" x="517.5" y="-164.0998" font-family="Helvetica,sans-Serif" font-size="11.00" fill="#000000">text[2147483647]</text>
<polygon fill="none" stroke="#000000" points="359.5,-134.3998 359.5,-156.3998 514.5,-156.3998 514.5,-134.3998 359.5,-134.3998"/>
<text text-anchor="start" x="379.5" y="-141.4998" font-family="Helvetica,sans-Serif" font-size="11.00" fill="#000000">created_at</text>
<polygon fill="none" stroke="#000000" points="514.5,-134.3998 514.5,-156.3998 606.5,-156.3998 606.5,-134.3998 514.5,-134.3998"/>
<text text-anchor="start" x="517.1023" y="-142.0998" font-family="Helvetica,sans-Serif" font-size="11.00" fill="#000000">timestamptz[35,6]</text>
<polygon fill="none" stroke="#000000" points="359.5,-112.3998 359.5,-134.3998 514.5,-134.3998 514.5,-112.3998 359.5,-112.3998"/>
<text text-anchor="start" x="379.5" y="-119.4998" font-family="Helvetica,sans-Serif" font-size="11.00" fill="#000000">updated_at</text>
<polygon fill="none" stroke="#000000" points="514.5,-112.3998 514.5,-134.3998 606.5,-134.3998 606.5,-112.3998 514.5,-112.3998"/>
<text text-anchor="start" x="517.1023" y="-120.0998" font-family="Helvetica,sans-Serif" font-size="11.00" fill="#000000">timestamptz[35,6]</text>
<polygon fill="none" stroke="#000000" points="359.5,-90.3998 359.5,-112.3998 514.5,-112.3998 514.5,-90.3998 359.5,-90.3998"/>
<image xlink:href="../../images/foreignKeys.png" width="11px" height="12px" preserveAspectRatio="xMinYMin meet" x="364.5" y="-107.4"/>
<text text-anchor="start" x="379.5" y="-97.4998" font-family="Helvetica,sans-Serif" font-size="11.00" fill="#000000">created_by</text>
<polygon fill="none" stroke="#000000" points="514.5,-90.3998 514.5,-112.3998 606.5,-112.3998 606.5,-90.3998 514.5,-90.3998"/>
<text text-anchor="start" x="517.5" y="-98.0998" font-family="Helvetica,sans-Serif" font-size="11.00" fill="#000000">int8[19]</text>
<polygon fill="none" stroke="#000000" points="359.5,-68.3998 359.5,-90.3998 514.5,-90.3998 514.5,-68.3998 359.5,-68.3998"/>
<image xlink:href="../../images/foreignKeys.png" width="11px" height="12px" preserveAspectRatio="xMinYMin meet" x="364.5" y="-85.3998"/>
<text text-anchor="start" x="379.5" y="-75.4998" font-family="Helvetica,sans-Serif" font-size="11.00" fill="#000000">updated_by</text>
<polygon fill="none" stroke="#000000" points="514.5,-68.3998 514.5,-90.3998 606.5,-90.3998 606.5,-68.3998 514.5,-68.3998"/>
<text text-anchor="start" x="517.5" y="-76.0998" font-family="Helvetica,sans-Serif" font-size="11.00" fill="#000000">int8[19]</text>
<polygon fill="#ffffff" stroke="transparent" points="359.5,-49.3998 359.5,-68.3998 441.5,-68.3998 441.5,-49.3998 359.5,-49.3998"/>
<polygon fill="none" stroke="#000000" points="359.5,-49.3998 359.5,-68.3998 441.5,-68.3998 441.5,-49.3998 359.5,-49.3998"/>
<text text-anchor="start" x="362.5" y="-55.4998" font-family="Helvetica,sans-Serif" font-size="11.00" fill="#000000">&lt; 7</text>
<polygon fill="#ffffff" stroke="transparent" points="441.5,-49.3998 441.5,-68.3998 514.5,-68.3998 514.5,-49.3998 441.5,-49.3998"/>
<polygon fill="none" stroke="#000000" points="441.5,-49.3998 441.5,-68.3998 514.5,-68.3998 514.5,-49.3998 441.5,-49.3998"/>
<text text-anchor="start" x="505.3862" y="-55.4998" font-family="Helvetica,sans-Serif" font-size="11.00" fill="#000000"> &#160;</text>
<polygon fill="#ffffff" stroke="transparent" points="514.5,-49.3998 514.5,-68.3998 606.5,-68.3998 606.5,-49.3998 514.5,-49.3998"/>
<polygon fill="none" stroke="#000000" points="514.5,-49.3998 514.5,-68.3998 606.5,-68.3998 606.5,-49.3998 514.5,-49.3998"/>
<text text-anchor="start" x="587.9053" y="-55.4998" font-family="Helvetica,sans-Serif" font-size="11.00" fill="#000000">0 &gt;</text>
<polygon fill="none" stroke="#000000" stroke-width="2" points="358,-48.3998 358,-488.3998 607,-488.3998 607,-48.3998 358,-48.3998"/>
</a>
</g>
</g>
<!-- public.carriers -->
<g id="node2" class="node">
<title>public.carriers</title>
<g id="a_node2"><a xlink:href="../../../public/tables/carriers.html" xlink:title="public.carriers" target="_top">
<polygon fill="#ffffff" stroke="transparent" points="8,-43.8998 8,-104.8998 129,-104.8998 129,-43.8998 8,-43.8998"/>
<polygon fill="#f5f5f5" stroke="transparent" points="8.5,-81.3998 8.5,-104.3998 129.5,-104.3998 129.5,-81.3998 8.5,-81.3998"/>
<polygon fill="none" stroke="#000000" points="8.5,-81.3998 8.5,-104.3998 129.5,-104.3998 129.5,-81.3998 8.5,-81.3998"/>
<text text-anchor="start" x="13.5" y="-89.9998" font-family="Helvetica,sans-Serif" font-weight="bold" font-size="11.00" fill="#000000">public.carriers</text>
<text text-anchor="start" x="95.0219" y="-89.4998" font-family="Helvetica,sans-Serif" font-size="11.00" fill="#000000">[table]</text>
<polygon fill="none" stroke="#000000" points="8.5,-62.3998 8.5,-81.3998 129.5,-81.3998 129.5,-62.3998 8.5,-62.3998"/>
<text text-anchor="start" x="11.5" y="-68.4998" font-family="Helvetica,sans-Serif" font-size="11.00" fill="#000000">...</text>
<polygon fill="#ffffff" stroke="transparent" points="8.5,-43.3998 8.5,-62.3998 45.5,-62.3998 45.5,-43.3998 8.5,-43.3998"/>
<polygon fill="none" stroke="#000000" points="8.5,-43.3998 8.5,-62.3998 45.5,-62.3998 45.5,-43.3998 8.5,-43.3998"/>
<text text-anchor="start" x="11.5" y="-49.4998" font-family="Helvetica,sans-Serif" font-size="11.00" fill="#000000"> &#160;</text>
<polygon fill="#ffffff" stroke="transparent" points="45.5,-43.3998 45.5,-62.3998 95.5,-62.3998 95.5,-43.3998 45.5,-43.3998"/>
<polygon fill="none" stroke="#000000" points="45.5,-43.3998 45.5,-62.3998 95.5,-62.3998 95.5,-43.3998 45.5,-43.3998"/>
<text text-anchor="start" x="60.1105" y="-49.4998" font-family="Helvetica,sans-Serif" font-size="11.00" fill="#000000">0 rows</text>
<polygon fill="#ffffff" stroke="transparent" points="95.5,-43.3998 95.5,-62.3998 129.5,-62.3998 129.5,-43.3998 95.5,-43.3998"/>
<polygon fill="none" stroke="#000000" points="95.5,-43.3998 95.5,-62.3998 129.5,-62.3998 129.5,-43.3998 95.5,-43.3998"/>
<text text-anchor="start" x="110.9053" y="-49.4998" font-family="Helvetica,sans-Serif" font-size="11.00" fill="#000000">2 &gt;</text>
</a>
</g>
</g>
<!-- container_legs&#45;&gt;public.carriers -->
<g id="edge1" class="edge">
<title>container_legs:w&#45;&gt;public.carriers:e</title>
<path fill="none" stroke="#000000" d="M345.0424,-231.539C293.9159,-215.934 373.7211,-106.3403 316,-61.3998 265.9222,-22.4103 191.3877,-32.6658 137.2035,-48.3626"/>
<polygon fill="#000000" stroke="#000000" points="351.5655,-232.3785 359.0404,-236.9704 355.5327,-232.8892 359.5,-233.3998 359.5,-233.3998 359.5,-233.3998 355.5327,-232.8892 359.9596,-229.8293 351.5655,-232.3785 351.5655,-232.3785"/>
<ellipse fill="none" stroke="#000000" cx="348.3916" cy="-231.97" rx="3.2" ry="3.2"/>
</g>
<!-- containers -->
<g id="node3" class="node">
<title>containers</title>
<g id="a_node3"><a xlink:href="../../tables/containers.html" xlink:title="containers" target="_top">
<polygon fill="#ffffff" stroke="transparent" points="193.5,-400.8998 193.5,-461.8998 292.5,-461.8998 292.5,-400.8998 193.5,-400.8998"/>
<polygon fill="#f5f5f5" stroke="transparent" points="194,-438.3998 194,-461.3998 293,-461.3998 293,-438.3998 194,-438.3998"/>
<polygon fill="none" stroke="#000000" points="194,-438.3998 194,-461.3998 293,-461.3998 293,-438.3998 194,-438.3998"/>
<text text-anchor="start" x="199" y="-446.9998" font-family="Helvetica,sans-Serif" font-weight="bold" font-size="11.00" fill="#000000">containers</text>
<text text-anchor="start" x="258.5219" y="-446.4998" font-family="Helvetica,sans-Serif" font-size="11.00" fill="#000000">[table]</text>
<polygon fill="none" stroke="#000000" points="194,-419.3998 194,-438.3998 293,-438.3998 293,-419.3998 194,-419.3998"/>
<text text-anchor="start" x="197" y="-425.4998" font-family="Helvetica,sans-Serif" font-size="11.00" fill="#000000">...</text>
<polygon fill="#ffffff" stroke="transparent" points="194,-400.3998 194,-419.3998 224,-419.3998 224,-400.3998 194,-400.3998"/>
<polygon fill="none" stroke="#000000" points="194,-400.3998 194,-419.3998 224,-419.3998 224,-400.3998 194,-400.3998"/>
<text text-anchor="start" x="197" y="-406.4998" font-family="Helvetica,sans-Serif" font-size="11.00" fill="#000000">&lt; 4</text>
<polygon fill="#ffffff" stroke="transparent" points="224,-400.3998 224,-419.3998 267,-419.3998 267,-400.3998 224,-400.3998"/>
<polygon fill="none" stroke="#000000" points="224,-400.3998 224,-419.3998 267,-419.3998 267,-400.3998 224,-400.3998"/>
<text text-anchor="start" x="231.6105" y="-406.4998" font-family="Helvetica,sans-Serif" font-size="11.00" fill="#000000">5 rows</text>
<polygon fill="#ffffff" stroke="transparent" points="267,-400.3998 267,-419.3998 293,-419.3998 293,-400.3998 267,-400.3998"/>
<polygon fill="none" stroke="#000000" points="267,-400.3998 267,-419.3998 293,-419.3998 293,-400.3998 267,-400.3998"/>
<text text-anchor="start" x="274.4053" y="-406.4998" font-family="Helvetica,sans-Serif" font-size="11.00" fill="#000000">1 &gt;</text>
</a>
</g>
</g>
<!-- container_legs&#45;&gt;containers -->
<g id="edge2" class="edge">
<title>container_legs:w&#45;&gt;containers:e</title>
<path fill="none" stroke="#000000" d="M344.8954,-431.3998C330.0821,-431.3998 314.826,-431.3998 300.7752,-431.3998"/>
<polygon fill="#000000" stroke="#000000" points="351.5,-431.3999 359.5,-434.9998 355.5,-431.3999 359.5,-431.3998 359.5,-431.3998 359.5,-431.3998 355.5,-431.3999 359.5,-427.7998 351.5,-431.3999 351.5,-431.3999"/>
<ellipse fill="none" stroke="#000000" cx="348.3" cy="-431.3999" rx="3.2" ry="3.2"/>
</g>
<!-- public.users -->
<g id="node4" class="node">
<title>public.users</title>
<g id="a_node4"><a xlink:href="../../../public/tables/users.html" xlink:title="public.users" target="_top">
<polygon fill="#ffffff" stroke="transparent" points="14,-139.8998 14,-200.8998 123,-200.8998 123,-139.8998 14,-139.8998"/>
<polygon fill="#f5f5f5" stroke="transparent" points="14.5,-177.3998 14.5,-200.3998 123.5,-200.3998 123.5,-177.3998 14.5,-177.3998"/>
<polygon fill="none" stroke="#000000" points="14.5,-177.3998 14.5,-200.3998 123.5,-200.3998 123.5,-177.3998 14.5,-177.3998"/>
<text text-anchor="start" x="19.5" y="-185.9998" font-family="Helvetica,sans-Serif" font-weight="bold" font-size="11.00" fill="#000000">public.users</text>
<text text-anchor="start" x="89.0219" y="-185.4998" font-family="Helvetica,sans-Serif" font-size="11.00" fill="#000000">[table]</text>
<polygon fill="none" stroke="#000000" points="14.5,-158.3998 14.5,-177.3998 123.5,-177.3998 123.5,-158.3998 14.5,-158.3998"/>
<text text-anchor="start" x="17.5" y="-164.4998" font-family="Helvetica,sans-Serif" font-size="11.00" fill="#000000">...</text>
<polygon fill="#ffffff" stroke="transparent" points="14.5,-139.3998 14.5,-158.3998 45.5,-158.3998 45.5,-139.3998 14.5,-139.3998"/>
<polygon fill="none" stroke="#000000" points="14.5,-139.3998 14.5,-158.3998 45.5,-158.3998 45.5,-139.3998 14.5,-139.3998"/>
<text text-anchor="start" x="17.5" y="-145.4998" font-family="Helvetica,sans-Serif" font-size="11.00" fill="#000000"> &#160;</text>
<polygon fill="#ffffff" stroke="transparent" points="45.5,-139.3998 45.5,-158.3998 92.5,-158.3998 92.5,-139.3998 45.5,-139.3998"/>
<polygon fill="none" stroke="#000000" points="45.5,-139.3998 45.5,-158.3998 92.5,-158.3998 92.5,-139.3998 45.5,-139.3998"/>
<text text-anchor="start" x="57.1105" y="-145.4998" font-family="Helvetica,sans-Serif" font-size="11.00" fill="#000000">0 rows</text>
<polygon fill="#ffffff" stroke="transparent" points="92.5,-139.3998 92.5,-158.3998 123.5,-158.3998 123.5,-139.3998 92.5,-139.3998"/>
<polygon fill="none" stroke="#000000" points="92.5,-139.3998 92.5,-158.3998 123.5,-158.3998 123.5,-139.3998 92.5,-139.3998"/>
<text text-anchor="start" x="104.9053" y="-145.4998" font-family="Helvetica,sans-Serif" font-size="11.00" fill="#000000">6 &gt;</text>
</a>
</g>
</g>
<!-- container_legs&#45;&gt;public.users -->
<g id="edge3" class="edge">
<title>container_legs:w&#45;&gt;public.users:e</title>
<path fill="none" stroke="#000000" d="M345.4972,-105.6884C330.7197,-118.0215 341.2897,-153.5811 316,-167.3998 259.2471,-198.4106 183.6834,-193.9964 131.0409,-185.0913"/>
<polygon fill="#000000" stroke="#000000" points="351.8507,-103.7426 360.5542,-104.842 355.6754,-102.5712 359.5,-101.3998 359.5,-101.3998 359.5,-101.3998 355.6754,-102.5712 358.4458,-97.9577 351.8507,-103.7426 351.8507,-103.7426"/>
<ellipse fill="none" stroke="#000000" cx="348.791" cy="-104.6797" rx="3.2" ry="3.2"/>
</g>
<!-- container_legs&#45;&gt;public.users -->
<g id="edge6" class="edge">
<title>container_legs:w&#45;&gt;public.users:e</title>
<path fill="none" stroke="#000000" d="M345.6577,-83.4485C330.8181,-95.1098 340.1803,-128.8644 316,-143.3998 285.8542,-161.5213 194.0067,-167.5141 131.0942,-169.4756"/>
<polygon fill="#000000" stroke="#000000" points="351.8217,-81.6457 360.5106,-82.8551 355.6608,-80.5227 359.5,-79.3998 359.5,-79.3998 359.5,-79.3998 355.6608,-80.5227 358.4894,-75.9446 351.8217,-81.6457 351.8217,-81.6457"/>
<ellipse fill="none" stroke="#000000" cx="348.7504" cy="-82.544" rx="3.2" ry="3.2"/>
</g>
<!-- public.locations -->
<g id="node5" class="node">
<title>public.locations</title>
<g id="a_node5"><a xlink:href="../../../public/tables/locations.html" xlink:title="public.locations" target="_top">
<polygon fill="#ffffff" stroke="transparent" points="178,-318.8998 178,-379.8998 308,-379.8998 308,-318.8998 178,-318.8998"/>
<polygon fill="#f5f5f5" stroke="transparent" points="178,-356.3998 178,-379.3998 308,-379.3998 308,-356.3998 178,-356.3998"/>
<polygon fill="none" stroke="#000000" points="178,-356.3998 178,-379.3998 308,-379.3998 308,-356.3998 178,-356.3998"/>
<text text-anchor="start" x="183" y="-364.9998" font-family="Helvetica,sans-Serif" font-weight="bold" font-size="11.00" fill="#000000">public.locations</text>
<text text-anchor="start" x="273.5219" y="-364.4998" font-family="Helvetica,sans-Serif" font-size="11.00" fill="#000000">[table]</text>
<polygon fill="none" stroke="#000000" points="178,-337.3998 178,-356.3998 308,-356.3998 308,-337.3998 178,-337.3998"/>
<text text-anchor="start" x="181" y="-343.4998" font-family="Helvetica,sans-Serif" font-size="11.00" fill="#000000">...</text>
<polygon fill="#ffffff" stroke="transparent" points="178,-318.3998 178,-337.3998 219,-337.3998 219,-318.3998 178,-318.3998"/>
<polygon fill="none" stroke="#000000" points="178,-318.3998 178,-337.3998 219,-337.3998 219,-318.3998 178,-318.3998"/>
<text text-anchor="start" x="181" y="-324.4998" font-family="Helvetica,sans-Serif" font-size="11.00" fill="#000000"> &#160;</text>
<polygon fill="#ffffff" stroke="transparent" points="219,-318.3998 219,-337.3998 272,-337.3998 272,-318.3998 219,-318.3998"/>
<polygon fill="none" stroke="#000000" points="219,-318.3998 219,-337.3998 272,-337.3998 272,-318.3998 219,-318.3998"/>
<text text-anchor="start" x="236.6105" y="-324.4998" font-family="Helvetica,sans-Serif" font-size="11.00" fill="#000000">0 rows</text>
<polygon fill="#ffffff" stroke="transparent" points="272,-318.3998 272,-337.3998 308,-337.3998 308,-318.3998 272,-318.3998"/>
<polygon fill="none" stroke="#000000" points="272,-318.3998 272,-337.3998 308,-337.3998 308,-318.3998 272,-318.3998"/>
<text text-anchor="start" x="289.4053" y="-324.4998" font-family="Helvetica,sans-Serif" font-size="11.00" fill="#000000">2 &gt;</text>
</a>
</g>
</g>
<!-- container_legs&#45;&gt;public.locations -->
<g id="edge4" class="edge">
<title>container_legs:w&#45;&gt;public.locations:e</title>
<path fill="none" stroke="#000000" d="M345.0653,-365.0301C335.4346,-364.5584 325.6414,-363.667 316.1227,-362.5394"/>
<polygon fill="#000000" stroke="#000000" points="351.5026,-365.1949 359.4078,-368.9987 355.5013,-365.2974 359.5,-365.3998 359.5,-365.3998 359.5,-365.3998 355.5013,-365.2974 359.5922,-361.801 351.5026,-365.1949 351.5026,-365.1949"/>
<ellipse fill="none" stroke="#000000" cx="348.3037" cy="-365.1129" rx="3.2" ry="3.2"/>
</g>
<!-- container_legs&#45;&gt;public.locations -->
<g id="edge5" class="edge">
<title>container_legs:w&#45;&gt;public.locations:e</title>
<path fill="none" stroke="#000000" d="M344.8976,-386.5582C335.2222,-385.4839 325.5036,-383.451 316.1155,-380.8674"/>
<polygon fill="#000000" stroke="#000000" points="351.5133,-386.9395 359.2928,-390.9939 355.5066,-387.1696 359.5,-387.3998 359.5,-387.3998 359.5,-387.3998 355.5066,-387.1696 359.7072,-383.8058 351.5133,-386.9395 351.5133,-386.9395"/>
<ellipse fill="none" stroke="#000000" cx="348.3186" cy="-386.7553" rx="3.2" ry="3.2"/>
</g>
<!-- public.vehicles -->
<g id="node6" class="node">
<title>public.vehicles</title>
<g id="a_node6"><a xlink:href="../../../public/tables/vehicles.html" xlink:title="public.vehicles" target="_top">
<polygon fill="#ffffff" stroke="transparent" points="180.5,-208.8998 180.5,-269.8998 305.5,-269.8998 305.5,-208.8998 180.5,-208.8998"/>
<polygon fill="#f5f5f5" stroke="transparent" points="181,-246.3998 181,-269.3998 306,-269.3998 306,-246.3998 181,-246.3998"/>
<polygon fill="none" stroke="#000000" points="181,-246.3998 181,-269.3998 306,-269.3998 306,-246.3998 181,-246.3998"/>
<text text-anchor="start" x="186" y="-254.9998" font-family="Helvetica,sans-Serif" font-weight="bold" font-size="11.00" fill="#000000">public.vehicles</text>
<text text-anchor="start" x="271.5219" y="-254.4998" font-family="Helvetica,sans-Serif" font-size="11.00" fill="#000000">[table]</text>
<polygon fill="none" stroke="#000000" points="181,-227.3998 181,-246.3998 306,-246.3998 306,-227.3998 181,-227.3998"/>
<text text-anchor="start" x="184" y="-233.4998" font-family="Helvetica,sans-Serif" font-size="11.00" fill="#000000">...</text>
<polygon fill="#ffffff" stroke="transparent" points="181,-208.3998 181,-227.3998 220,-227.3998 220,-208.3998 181,-208.3998"/>
<polygon fill="none" stroke="#000000" points="181,-208.3998 181,-227.3998 220,-227.3998 220,-208.3998 181,-208.3998"/>
<text text-anchor="start" x="184" y="-214.4998" font-family="Helvetica,sans-Serif" font-size="11.00" fill="#000000"> &#160;</text>
<polygon fill="#ffffff" stroke="transparent" points="220,-208.3998 220,-227.3998 271,-227.3998 271,-208.3998 220,-208.3998"/>
<polygon fill="none" stroke="#000000" points="220,-208.3998 220,-227.3998 271,-227.3998 271,-208.3998 220,-208.3998"/>
<text text-anchor="start" x="235.6105" y="-214.4998" font-family="Helvetica,sans-Serif" font-size="11.00" fill="#000000">0 rows</text>
<polygon fill="#ffffff" stroke="transparent" points="271,-208.3998 271,-227.3998 306,-227.3998 306,-208.3998 271,-208.3998"/>
<polygon fill="none" stroke="#000000" points="271,-208.3998 271,-227.3998 306,-227.3998 306,-208.3998 271,-208.3998"/>
<text text-anchor="start" x="287.4053" y="-214.4998" font-family="Helvetica,sans-Serif" font-size="11.00" fill="#000000">1 &gt;</text>
</a>
</g>
</g>
<!-- container_legs&#45;&gt;public.vehicles -->
<g id="edge7" class="edge">
<title>container_legs:w&#45;&gt;public.vehicles:e</title>
<path fill="none" stroke="#000000" d="M344.8158,-212.0493C334.3323,-212.9384 323.7245,-214.6768 313.515,-216.865"/>
<polygon fill="#000000" stroke="#000000" points="351.5078,-211.7534 359.6591,-214.9963 355.5039,-211.5766 359.5,-211.3998 359.5,-211.3998 359.5,-211.3998 355.5039,-211.5766 359.3409,-207.8034 351.5078,-211.7534 351.5078,-211.7534"/>
<ellipse fill="none" stroke="#000000" cx="348.3109" cy="-211.8948" rx="3.2" ry="3.2"/>
</g>
<!-- containers&#45;&gt;public.users -->
<g id="edge8" class="edge">
<title>containers:w&#45;&gt;public.users:e</title>
<path fill="none" stroke="#000000" d="M173.991,-388.4404C172.6092,-387.128 171.2759,-385.7814 170,-384.3998 121.0569,-331.4038 92.1372,-250.6792 78.3781,-204.9663"/>
<polygon fill="#000000" stroke="#000000" points="179.2132,-392.7527 183.0896,-400.6225 182.2975,-395.2996 185.3819,-397.8466 185.3819,-397.8466 185.3819,-397.8466 182.2975,-395.2996 187.6741,-395.0707 179.2132,-392.7527 179.2132,-392.7527"/>
<ellipse fill="none" stroke="#000000" cx="176.7457" cy="-390.7151" rx="3.2" ry="3.2"/>
</g>
<!-- containers&#45;&gt;public.users -->
<g id="edge11" class="edge">
<title>containers:w&#45;&gt;public.users:e</title>
<path fill="none" stroke="#000000" d="M173.991,-401.4388C172.6092,-400.128 171.2759,-398.7814 170,-397.3998 117.9177,-341.0046 88.5097,-253.2098 75.9164,-204.909"/>
<polygon fill="#000000" stroke="#000000" points="179.1935,-405.7011 183.1003,-413.5559 182.2877,-408.2361 185.3819,-410.7711 185.3819,-410.7711 185.3819,-410.7711 182.2877,-408.2361 187.6634,-407.9864 179.1935,-405.7011 179.1935,-405.7011"/>
<ellipse fill="none" stroke="#000000" cx="176.7182" cy="-403.6731" rx="3.2" ry="3.2"/>
</g>
<!-- public.orders -->
<g id="node7" class="node">
<title>public.orders</title>
<g id="a_node7"><a xlink:href="../../../public/tables/orders.html" xlink:title="public.orders" target="_top">
<polygon fill="#ffffff" stroke="transparent" points="11,-444.8998 11,-505.8998 126,-505.8998 126,-444.8998 11,-444.8998"/>
<polygon fill="#f5f5f5" stroke="transparent" points="11.5,-482.3998 11.5,-505.3998 126.5,-505.3998 126.5,-482.3998 11.5,-482.3998"/>
<polygon fill="none" stroke="#000000" points="11.5,-482.3998 11.5,-505.3998 126.5,-505.3998 126.5,-482.3998 11.5,-482.3998"/>
<text text-anchor="start" x="16.5" y="-490.9998" font-family="Helvetica,sans-Serif" font-weight="bold" font-size="11.00" fill="#000000">public.orders</text>
<text text-anchor="start" x="92.0219" y="-490.4998" font-family="Helvetica,sans-Serif" font-size="11.00" fill="#000000">[table]</text>
<polygon fill="none" stroke="#000000" points="11.5,-463.3998 11.5,-482.3998 126.5,-482.3998 126.5,-463.3998 11.5,-463.3998"/>
<text text-anchor="start" x="14.5" y="-469.4998" font-family="Helvetica,sans-Serif" font-size="11.00" fill="#000000">...</text>
<polygon fill="#ffffff" stroke="transparent" points="11.5,-444.3998 11.5,-463.3998 45.5,-463.3998 45.5,-444.3998 11.5,-444.3998"/>
<polygon fill="none" stroke="#000000" points="11.5,-444.3998 11.5,-463.3998 45.5,-463.3998 45.5,-444.3998 11.5,-444.3998"/>
<text text-anchor="start" x="14.5" y="-450.4998" font-family="Helvetica,sans-Serif" font-size="11.00" fill="#000000"> &#160;</text>
<polygon fill="#ffffff" stroke="transparent" points="45.5,-444.3998 45.5,-463.3998 94.5,-463.3998 94.5,-444.3998 45.5,-444.3998"/>
<polygon fill="none" stroke="#000000" points="45.5,-444.3998 45.5,-463.3998 94.5,-463.3998 94.5,-444.3998 45.5,-444.3998"/>
<text text-anchor="start" x="59.1105" y="-450.4998" font-family="Helvetica,sans-Serif" font-size="11.00" fill="#000000">0 rows</text>
<polygon fill="#ffffff" stroke="transparent" points="94.5,-444.3998 94.5,-463.3998 126.5,-463.3998 126.5,-444.3998 94.5,-444.3998"/>
<polygon fill="none" stroke="#000000" points="94.5,-444.3998 94.5,-463.3998 126.5,-463.3998 126.5,-444.3998 94.5,-444.3998"/>
<text text-anchor="start" x="107.9053" y="-450.4998" font-family="Helvetica,sans-Serif" font-size="11.00" fill="#000000">1 &gt;</text>
</a>
</g>
</g>
<!-- containers&#45;&gt;public.orders -->
<g id="edge9" class="edge">
<title>containers:w&#45;&gt;public.orders:e</title>
<path fill="none" stroke="#000000" d="M171.6988,-464.8612C157.064,-469.3258 141.5301,-472.3998 126.5,-472.3998"/>
<polygon fill="#000000" stroke="#000000" points="177.833,-462.7799 186.5655,-463.6186 181.6209,-461.4947 185.4088,-460.2095 185.4088,-460.2095 185.4088,-460.2095 181.6209,-461.4947 184.2521,-456.8004 177.833,-462.7799 177.833,-462.7799"/>
<ellipse fill="none" stroke="#000000" cx="174.8027" cy="-463.8081" rx="3.2" ry="3.2"/>
</g>
<!-- public.trailers -->
<g id="node8" class="node">
<title>public.trailers</title>
<g id="a_node8"><a xlink:href="../../../public/tables/trailers.html" xlink:title="public.trailers" target="_top">
<polygon fill="#ffffff" stroke="transparent" points="10,-362.8998 10,-423.8998 127,-423.8998 127,-362.8998 10,-362.8998"/>
<polygon fill="#f5f5f5" stroke="transparent" points="10.5,-400.3998 10.5,-423.3998 127.5,-423.3998 127.5,-400.3998 10.5,-400.3998"/>
<polygon fill="none" stroke="#000000" points="10.5,-400.3998 10.5,-423.3998 127.5,-423.3998 127.5,-400.3998 10.5,-400.3998"/>
<text text-anchor="start" x="15.5" y="-408.9998" font-family="Helvetica,sans-Serif" font-weight="bold" font-size="11.00" fill="#000000">public.trailers</text>
<text text-anchor="start" x="93.0219" y="-408.4998" font-family="Helvetica,sans-Serif" font-size="11.00" fill="#000000">[table]</text>
<polygon fill="none" stroke="#000000" points="10.5,-381.3998 10.5,-400.3998 127.5,-400.3998 127.5,-381.3998 10.5,-381.3998"/>
<text text-anchor="start" x="13.5" y="-387.4998" font-family="Helvetica,sans-Serif" font-size="11.00" fill="#000000">...</text>
<polygon fill="#ffffff" stroke="transparent" points="10.5,-362.3998 10.5,-381.3998 45.5,-381.3998 45.5,-362.3998 10.5,-362.3998"/>
<polygon fill="none" stroke="#000000" points="10.5,-362.3998 10.5,-381.3998 45.5,-381.3998 45.5,-362.3998 10.5,-362.3998"/>
<text text-anchor="start" x="13.5" y="-368.4998" font-family="Helvetica,sans-Serif" font-size="11.00" fill="#000000"> &#160;</text>
<polygon fill="#ffffff" stroke="transparent" points="45.5,-362.3998 45.5,-381.3998 94.5,-381.3998 94.5,-362.3998 45.5,-362.3998"/>
<polygon fill="none" stroke="#000000" points="45.5,-362.3998 45.5,-381.3998 94.5,-381.3998 94.5,-362.3998 45.5,-362.3998"/>
<text text-anchor="start" x="59.1105" y="-368.4998" font-family="Helvetica,sans-Serif" font-size="11.00" fill="#000000">0 rows</text>
<polygon fill="#ffffff" stroke="transparent" points="94.5,-362.3998 94.5,-381.3998 127.5,-381.3998 127.5,-362.3998 94.5,-362.3998"/>
<polygon fill="none" stroke="#000000" points="94.5,-362.3998 94.5,-381.3998 127.5,-381.3998 127.5,-362.3998 94.5,-362.3998"/>
<text text-anchor="start" x="108.9053" y="-368.4998" font-family="Helvetica,sans-Serif" font-size="11.00" fill="#000000">1 &gt;</text>
</a>
</g>
</g>
<!-- containers&#45;&gt;public.trailers -->
<g id="edge10" class="edge">
<title>containers:w&#45;&gt;public.trailers:e</title>
<path fill="none" stroke="#000000" d="M171.4176,-397.659C157.1752,-393.3461 142.102,-390.3998 127.5,-390.3998"/>
<polygon fill="#000000" stroke="#000000" points="177.7571,-399.8044 184.1809,-405.779 181.546,-401.0867 185.335,-402.3689 185.335,-402.3689 185.335,-402.3689 181.546,-401.0867 186.489,-398.9589 177.7571,-399.8044 177.7571,-399.8044"/>
<ellipse fill="none" stroke="#000000" cx="174.726" cy="-398.7786" rx="3.2" ry="3.2"/>
</g>
<!-- freight_bills -->
<g id="node9" class="node">
<title>freight_bills</title>
<g id="a_node9"><a xlink:href="../../tables/freight_bills.html" xlink:title="freight_bills" target="_top">
<polygon fill="#ffffff" stroke="transparent" points="189.5,-71.8998 189.5,-132.8998 296.5,-132.8998 296.5,-71.8998 189.5,-71.8998"/>
<polygon fill="#f5f5f5" stroke="transparent" points="190,-109.3998 190,-132.3998 297,-132.3998 297,-109.3998 190,-109.3998"/>
<polygon fill="none" stroke="#000000" points="190,-109.3998 190,-132.3998 297,-132.3998 297,-109.3998 190,-109.3998"/>
<text text-anchor="start" x="195" y="-117.9998" font-family="Helvetica,sans-Serif" font-weight="bold" font-size="11.00" fill="#000000">freight_bills</text>
<text text-anchor="start" x="262.5219" y="-117.4998" font-family="Helvetica,sans-Serif" font-size="11.00" fill="#000000">[table]</text>
<polygon fill="none" stroke="#000000" points="190,-90.3998 190,-109.3998 297,-109.3998 297,-90.3998 190,-90.3998"/>
<text text-anchor="start" x="193" y="-96.4998" font-family="Helvetica,sans-Serif" font-size="11.00" fill="#000000">...</text>
<polygon fill="#ffffff" stroke="transparent" points="190,-71.3998 190,-90.3998 242,-90.3998 242,-71.3998 190,-71.3998"/>
<polygon fill="none" stroke="#000000" points="190,-71.3998 190,-90.3998 242,-90.3998 242,-71.3998 190,-71.3998"/>
<text text-anchor="start" x="193" y="-77.4998" font-family="Helvetica,sans-Serif" font-size="11.00" fill="#000000">&lt; 3</text>
<polygon fill="#ffffff" stroke="transparent" points="242,-71.3998 242,-90.3998 269,-90.3998 269,-71.3998 242,-71.3998"/>
<polygon fill="none" stroke="#000000" points="242,-71.3998 242,-90.3998 269,-90.3998 269,-71.3998 242,-71.3998"/>
<text text-anchor="start" x="259.8862" y="-77.4998" font-family="Helvetica,sans-Serif" font-size="11.00" fill="#000000"> &#160;</text>
<polygon fill="#ffffff" stroke="transparent" points="269,-71.3998 269,-90.3998 297,-90.3998 297,-71.3998 269,-71.3998"/>
<polygon fill="none" stroke="#000000" points="269,-71.3998 269,-90.3998 297,-90.3998 297,-71.3998 269,-71.3998"/>
<text text-anchor="start" x="287.8862" y="-77.4998" font-family="Helvetica,sans-Serif" font-size="11.00" fill="#000000"> &#160;</text>
</a>
</g>
</g>
<!-- freight_bills&#45;&gt;public.carriers -->
<g id="edge12" class="edge">
<title>freight_bills:w&#45;&gt;public.carriers:e</title>
<path fill="none" stroke="#000000" d="M175.579,-98.8771C162.6727,-97.9794 149.5282,-96.001 137.0709,-93.5384"/>
<polygon fill="#000000" stroke="#000000" points="182.0052,-99.11 189.8696,-102.9975 186.0026,-99.2549 190,-99.3998 190,-99.3998 190,-99.3998 186.0026,-99.2549 190.1304,-95.8022 182.0052,-99.11 182.0052,-99.11"/>
<ellipse fill="none" stroke="#000000" cx="178.8073" cy="-98.9941" rx="3.2" ry="3.2"/>
</g>
<!-- freight_bills&#45;&gt;public.users -->
<g id="edge13" class="edge">
<title>freight_bills:w&#45;&gt;public.users:e</title>
<path fill="none" stroke="#000000" d="M175.5464,-100.5467C156.967,-105.3193 131.1984,-120.6863 109.5996,-135.8359"/>
<polygon fill="#000000" stroke="#000000" points="182.0251,-100.0327 190.2848,-102.9886 186.0125,-99.7162 190,-99.3998 190,-99.3998 190,-99.3998 186.0125,-99.7162 189.7152,-95.8111 182.0251,-100.0327 182.0251,-100.0327"/>
<ellipse fill="none" stroke="#000000" cx="178.8351" cy="-100.2858" rx="3.2" ry="3.2"/>
</g>
<!-- freight_bills&#45;&gt;public.users -->
<g id="edge14" class="edge">
<title>freight_bills:w&#45;&gt;public.users:e</title>
<path fill="none" stroke="#000000" d="M176.2036,-104.5567C161.5647,-111.4648 142.2941,-123.6772 124.1047,-135.7561"/>
<polygon fill="#000000" stroke="#000000" points="182.5064,-102.2008 191.2604,-102.772 186.2532,-100.8003 190,-99.3998 190,-99.3998 190,-99.3998 186.2532,-100.8003 188.7396,-96.0277 182.5064,-102.2008 182.5064,-102.2008"/>
<ellipse fill="none" stroke="#000000" cx="179.5089" cy="-103.3212" rx="3.2" ry="3.2"/>
</g>
</g>
</svg>
