<?xml version="1.0" encoding="UTF-8" standalone="no"?>
<!DOCTYPE svg PUBLIC "-//W3C//DTD SVG 1.1//EN"
 "http://www.w3.org/Graphics/SVG/1.1/DTD/svg11.dtd">
<!-- Generated by graphviz version 2.40.1 (20161225.0304)
 -->
<!-- Title: twoDegreesRelationshipsDiagram Pages: 1 -->
<svg width="554pt" height="641pt"
 viewBox="0.00 0.00 554.00 641.20" xmlns="http://www.w3.org/2000/svg" xmlns:xlink="http://www.w3.org/1999/xlink">
<g id="graph0" class="graph" transform="scale(1 1) rotate(0) translate(4 637.2)">
<title>twoDegreesRelationshipsDiagram</title>
<polygon fill="#ffffff" stroke="transparent" points="-4,4 -4,-637.2 550,-637.2 550,4 -4,4"/>
<text text-anchor="middle" x="72.4936" y="-7.3" font-family="Helvetica,sans-Serif" font-size="11.00" fill="#000000">Generated by SchemaSpy</text>
<!-- container_legs -->
<g id="node1" class="node">
<title>container_legs</title>
<g id="a_node1"><a xlink:href="../../tables/container_legs.html" xlink:title="container_legs" target="_top">
<polygon fill="#ffffff" stroke="transparent" points="415,-402.2 415,-463.2 538,-463.2 538,-402.2 415,-402.2"/>
<polygon fill="#f5f5f5" stroke="transparent" points="415.5,-439.7 415.5,-462.7 538.5,-462.7 538.5,-439.7 415.5,-439.7"/>
<polygon fill="none" stroke="#000000" points="415.5,-439.7 415.5,-462.7 538.5,-462.7 538.5,-439.7 415.5,-439.7"/>
<text text-anchor="start" x="420.5" y="-448.3" font-family="Helvetica,sans-Serif" font-weight="bold" font-size="11.00" fill="#000000">container_legs</text>
<text text-anchor="start" x="504.0219" y="-447.8" font-family="Helvetica,sans-Serif" font-size="11.00" fill="#000000">[table]</text>
<polygon fill="none" stroke="#000000" points="415.5,-420.7 415.5,-439.7 538.5,-439.7 538.5,-420.7 415.5,-420.7"/>
<text text-anchor="start" x="418.5" y="-426.8" font-family="Helvetica,sans-Serif" font-size="11.00" fill="#000000">...</text>
<polygon fill="#ffffff" stroke="transparent" points="415.5,-401.7 415.5,-420.7 475.5,-420.7 475.5,-401.7 415.5,-401.7"/>
<polygon fill="none" stroke="#000000" points="415.5,-401.7 415.5,-420.7 475.5,-420.7 475.5,-401.7 415.5,-401.7"/>
<text text-anchor="start" x="418.5" y="-407.8" font-family="Helvetica,sans-Serif" font-size="11.00" fill="#000000">&lt; 7</text>
<polygon fill="#ffffff" stroke="transparent" points="475.5,-401.7 475.5,-420.7 506.5,-420.7 506.5,-401.7 475.5,-401.7"/>
<polygon fill="none" stroke="#000000" points="475.5,-401.7 475.5,-420.7 506.5,-420.7 506.5,-401.7 475.5,-401.7"/>
<text text-anchor="start" x="497.3862" y="-407.8" font-family="Helvetica,sans-Serif" font-size="11.00" fill="#000000"> &#160;</text>
<polygon fill="#ffffff" stroke="transparent" points="506.5,-401.7 506.5,-420.7 538.5,-420.7 538.5,-401.7 506.5,-401.7"/>
<polygon fill="none" stroke="#000000" points="506.5,-401.7 506.5,-420.7 538.5,-420.7 538.5,-401.7 506.5,-401.7"/>
<text text-anchor="start" x="529.3862" y="-407.8" font-family="Helvetica,sans-Serif" font-size="11.00" fill="#000000"> &#160;</text>
</a>
</g>
</g>
<!-- public.carriers -->
<g id="node2" class="node">
<title>public.carriers</title>
<g id="a_node2"><a xlink:href="../../../public/tables/carriers.html" xlink:title="public.carriers" target="_top">
<polygon fill="#ffffff" stroke="transparent" points="8,-568.2 8,-629.2 129,-629.2 129,-568.2 8,-568.2"/>
<polygon fill="#f5f5f5" stroke="transparent" points="8.5,-605.7 8.5,-628.7 129.5,-628.7 129.5,-605.7 8.5,-605.7"/>
<polygon fill="none" stroke="#000000" points="8.5,-605.7 8.5,-628.7 129.5,-628.7 129.5,-605.7 8.5,-605.7"/>
<text text-anchor="start" x="13.5" y="-614.3" font-family="Helvetica,sans-Serif" font-weight="bold" font-size="11.00" fill="#000000">public.carriers</text>
<text text-anchor="start" x="95.0219" y="-613.8" font-family="Helvetica,sans-Serif" font-size="11.00" fill="#000000">[table]</text>
<polygon fill="none" stroke="#000000" points="8.5,-586.7 8.5,-605.7 129.5,-605.7 129.5,-586.7 8.5,-586.7"/>
<text text-anchor="start" x="11.5" y="-592.8" font-family="Helvetica,sans-Serif" font-size="11.00" fill="#000000">...</text>
<polygon fill="#ffffff" stroke="transparent" points="8.5,-567.7 8.5,-586.7 45.5,-586.7 45.5,-567.7 8.5,-567.7"/>
<polygon fill="none" stroke="#000000" points="8.5,-567.7 8.5,-586.7 45.5,-586.7 45.5,-567.7 8.5,-567.7"/>
<text text-anchor="start" x="11.5" y="-573.8" font-family="Helvetica,sans-Serif" font-size="11.00" fill="#000000"> &#160;</text>
<polygon fill="#ffffff" stroke="transparent" points="45.5,-567.7 45.5,-586.7 95.5,-586.7 95.5,-567.7 45.5,-567.7"/>
<polygon fill="none" stroke="#000000" points="45.5,-567.7 45.5,-586.7 95.5,-586.7 95.5,-567.7 45.5,-567.7"/>
<text text-anchor="start" x="60.1105" y="-573.8" font-family="Helvetica,sans-Serif" font-size="11.00" fill="#000000">0 rows</text>
<polygon fill="#ffffff" stroke="transparent" points="95.5,-567.7 95.5,-586.7 129.5,-586.7 129.5,-567.7 95.5,-567.7"/>
<polygon fill="none" stroke="#000000" points="95.5,-567.7 95.5,-586.7 129.5,-586.7 129.5,-567.7 95.5,-567.7"/>
<text text-anchor="start" x="110.9053" y="-573.8" font-family="Helvetica,sans-Serif" font-size="11.00" fill="#000000">2 &gt;</text>
</a>
</g>
</g>
<!-- container_legs&#45;&gt;public.carriers -->
<g id="edge1" class="edge">
<title>container_legs:w&#45;&gt;public.carriers:e</title>
<path fill="none" stroke="#000000" d="M461.8399,-480.973C446.8356,-521.0072 419.2089,-575.3238 374,-600.7 294.937,-645.0788 260.4957,-606.265 170,-600.7 151.8975,-599.5868 147.6367,-595.7 129.5,-595.7"/>
<polygon fill="#000000" stroke="#000000" points="464.0443,-474.7548 470.1105,-468.4175 465.3809,-470.9847 466.7174,-467.2146 466.7174,-467.2146 466.7174,-467.2146 465.3809,-470.9847 463.3243,-466.0117 464.0443,-474.7548 464.0443,-474.7548"/>
<ellipse fill="none" stroke="#000000" cx="462.975" cy="-477.7709" rx="3.2" ry="3.2"/>
</g>
<!-- containers -->
<g id="node3" class="node">
<title>containers</title>
<g id="a_node3"><a xlink:href="../../tables/containers.html" xlink:title="containers" target="_top">
<polygon fill="#ffffff" stroke="transparent" points="178,-202.7 178,-468.7 366,-468.7 366,-202.7 178,-202.7"/>
<polygon fill="#f5f5f5" stroke="transparent" points="180,-443.7 180,-466.7 364,-466.7 364,-443.7 180,-443.7"/>
<polygon fill="none" stroke="#000000" points="180,-443.7 180,-466.7 364,-466.7 364,-443.7 180,-443.7"/>
<text text-anchor="start" x="185" y="-452.3" font-family="Helvetica,sans-Serif" font-weight="bold" font-size="11.00" fill="#000000">containers</text>
<text text-anchor="start" x="329.0437" y="-451.8" font-family="Helvetica,sans-Serif" font-size="11.00" fill="#000000">[table]</text>
<polygon fill="none" stroke="#000000" points="180,-421.7 180,-443.7 272,-443.7 272,-421.7 180,-421.7"/>
<image xlink:href="../../images/primaryKeys.png" width="11px" height="12px" preserveAspectRatio="xMinYMin meet" x="185" y="-438.7"/>
<text text-anchor="start" x="200" y="-428.8" font-family="Helvetica,sans-Serif" font-size="11.00" fill="#000000">container_id</text>
<polygon fill="none" stroke="#000000" points="272,-421.7 272,-443.7 364,-443.7 364,-421.7 272,-421.7"/>
<text text-anchor="start" x="275" y="-429.4" font-family="Helvetica,sans-Serif" font-size="11.00" fill="#000000">int8[19]</text>
<polygon fill="none" stroke="#000000" points="180,-399.7 180,-421.7 272,-421.7 272,-399.7 180,-399.7"/>
<text text-anchor="start" x="200" y="-406.8" font-family="Helvetica,sans-Serif" font-size="11.00" fill="#000000">status</text>
<polygon fill="none" stroke="#000000" points="272,-399.7 272,-421.7 364,-421.7 364,-399.7 272,-399.7"/>
<text text-anchor="start" x="275" y="-407.4" font-family="Helvetica,sans-Serif" font-size="11.00" fill="#000000">varchar[50]</text>
<polygon fill="none" stroke="#000000" points="180,-377.7 180,-399.7 272,-399.7 272,-377.7 180,-377.7"/>
<text text-anchor="start" x="200" y="-384.8" font-family="Helvetica,sans-Serif" font-size="11.00" fill="#000000">notes</text>
<polygon fill="none" stroke="#000000" points="272,-377.7 272,-399.7 364,-399.7 364,-377.7 272,-377.7"/>
<text text-anchor="start" x="275" y="-385.4" font-family="Helvetica,sans-Serif" font-size="11.00" fill="#000000">text[2147483647]</text>
<polygon fill="none" stroke="#000000" points="180,-355.7 180,-377.7 272,-377.7 272,-355.7 180,-355.7"/>
<text text-anchor="start" x="200" y="-362.8" font-family="Helvetica,sans-Serif" font-size="11.00" fill="#000000">created_at</text>
<polygon fill="none" stroke="#000000" points="272,-355.7 272,-377.7 364,-377.7 364,-355.7 272,-355.7"/>
<text text-anchor="start" x="274.6023" y="-363.4" font-family="Helvetica,sans-Serif" font-size="11.00" fill="#000000">timestamptz[35,6]</text>
<polygon fill="none" stroke="#000000" points="180,-333.7 180,-355.7 272,-355.7 272,-333.7 180,-333.7"/>
<text text-anchor="start" x="200" y="-340.8" font-family="Helvetica,sans-Serif" font-size="11.00" fill="#000000">updated_at</text>
<polygon fill="none" stroke="#000000" points="272,-333.7 272,-355.7 364,-355.7 364,-333.7 272,-333.7"/>
<text text-anchor="start" x="274.6023" y="-341.4" font-family="Helvetica,sans-Serif" font-size="11.00" fill="#000000">timestamptz[35,6]</text>
<polygon fill="none" stroke="#000000" points="180,-311.7 180,-333.7 272,-333.7 272,-311.7 180,-311.7"/>
<text text-anchor="start" x="200" y="-318.8" font-family="Helvetica,sans-Serif" font-size="11.00" fill="#000000">source_type</text>
<polygon fill="none" stroke="#000000" points="272,-311.7 272,-333.7 364,-333.7 364,-311.7 272,-311.7"/>
<text text-anchor="start" x="275" y="-319.4" font-family="Helvetica,sans-Serif" font-size="11.00" fill="#000000">varchar[50]</text>
<polygon fill="none" stroke="#000000" points="180,-289.7 180,-311.7 272,-311.7 272,-289.7 180,-289.7"/>
<image xlink:href="../../images/foreignKeys.png" width="11px" height="12px" preserveAspectRatio="xMinYMin meet" x="185" y="-306.7"/>
<text text-anchor="start" x="200" y="-296.8" font-family="Helvetica,sans-Serif" font-size="11.00" fill="#000000">created_by</text>
<polygon fill="none" stroke="#000000" points="272,-289.7 272,-311.7 364,-311.7 364,-289.7 272,-289.7"/>
<text text-anchor="start" x="275" y="-297.4" font-family="Helvetica,sans-Serif" font-size="11.00" fill="#000000">int8[19]</text>
<polygon fill="none" stroke="#000000" points="180,-267.7 180,-289.7 272,-289.7 272,-267.7 180,-267.7"/>
<image xlink:href="../../images/foreignKeys.png" width="11px" height="12px" preserveAspectRatio="xMinYMin meet" x="185" y="-284.7"/>
<text text-anchor="start" x="200" y="-274.8" font-family="Helvetica,sans-Serif" font-size="11.00" fill="#000000">updated_by</text>
<polygon fill="none" stroke="#000000" points="272,-267.7 272,-289.7 364,-289.7 364,-267.7 272,-267.7"/>
<text text-anchor="start" x="275" y="-275.4" font-family="Helvetica,sans-Serif" font-size="11.00" fill="#000000">int8[19]</text>
<polygon fill="none" stroke="#000000" points="180,-245.7 180,-267.7 272,-267.7 272,-245.7 180,-245.7"/>
<image xlink:href="../../images/foreignKeys.png" width="11px" height="12px" preserveAspectRatio="xMinYMin meet" x="185" y="-262.7"/>
<text text-anchor="start" x="200" y="-252.8" font-family="Helvetica,sans-Serif" font-size="11.00" fill="#000000">order_id</text>
<polygon fill="none" stroke="#000000" points="272,-245.7 272,-267.7 364,-267.7 364,-245.7 272,-245.7"/>
<text text-anchor="start" x="275" y="-253.4" font-family="Helvetica,sans-Serif" font-size="11.00" fill="#000000">int8[19]</text>
<polygon fill="none" stroke="#000000" points="180,-223.7 180,-245.7 272,-245.7 272,-223.7 180,-223.7"/>
<image xlink:href="../../images/foreignKeys.png" width="11px" height="12px" preserveAspectRatio="xMinYMin meet" x="185" y="-240.7"/>
<text text-anchor="start" x="200" y="-230.8" font-family="Helvetica,sans-Serif" font-size="11.00" fill="#000000">trailer_id</text>
<polygon fill="none" stroke="#000000" points="272,-223.7 272,-245.7 364,-245.7 364,-223.7 272,-223.7"/>
<text text-anchor="start" x="275" y="-231.4" font-family="Helvetica,sans-Serif" font-size="11.00" fill="#000000">int8[19]</text>
<polygon fill="#ffffff" stroke="transparent" points="180,-204.7 180,-223.7 217,-223.7 217,-204.7 180,-204.7"/>
<polygon fill="none" stroke="#000000" points="180,-204.7 180,-223.7 217,-223.7 217,-204.7 180,-204.7"/>
<text text-anchor="start" x="183" y="-210.8" font-family="Helvetica,sans-Serif" font-size="11.00" fill="#000000">&lt; 4</text>
<polygon fill="#ffffff" stroke="transparent" points="217,-204.7 217,-223.7 272,-223.7 272,-204.7 217,-204.7"/>
<polygon fill="none" stroke="#000000" points="217,-204.7 217,-223.7 272,-223.7 272,-204.7 217,-204.7"/>
<text text-anchor="start" x="236.6105" y="-210.8" font-family="Helvetica,sans-Serif" font-size="11.00" fill="#000000">5 rows</text>
<polygon fill="#ffffff" stroke="transparent" points="272,-204.7 272,-223.7 364,-223.7 364,-204.7 272,-204.7"/>
<polygon fill="none" stroke="#000000" points="272,-204.7 272,-223.7 364,-223.7 364,-204.7 272,-204.7"/>
<text text-anchor="start" x="345.4053" y="-210.8" font-family="Helvetica,sans-Serif" font-size="11.00" fill="#000000">1 &gt;</text>
<polygon fill="none" stroke="#000000" stroke-width="2" points="179,-203.7 179,-467.7 365,-467.7 365,-203.7 179,-203.7"/>
</a>
</g>
</g>
<!-- container_legs&#45;&gt;containers -->
<g id="edge2" class="edge">
<title>container_legs:w&#45;&gt;containers:e</title>
<path fill="none" stroke="#000000" d="M392.4295,-432.7C382.8414,-432.7 373.2087,-432.7 364,-432.7"/>
<polygon fill="#000000" stroke="#000000" points="398.8861,-432.7001 406.8861,-436.3 402.8861,-432.7 406.8861,-432.7 406.8861,-432.7 406.8861,-432.7 402.8861,-432.7 406.886,-429.1 398.8861,-432.7001 398.8861,-432.7001"/>
<ellipse fill="none" stroke="#000000" cx="395.6861" cy="-432.7001" rx="3.2" ry="3.2"/>
</g>
<!-- public.users -->
<g id="node4" class="node">
<title>public.users</title>
<g id="a_node4"><a xlink:href="../../../public/tables/users.html" xlink:title="public.users" target="_top">
<polygon fill="#ffffff" stroke="transparent" points="14,-468.2 14,-529.2 123,-529.2 123,-468.2 14,-468.2"/>
<polygon fill="#f5f5f5" stroke="transparent" points="14.5,-505.7 14.5,-528.7 123.5,-528.7 123.5,-505.7 14.5,-505.7"/>
<polygon fill="none" stroke="#000000" points="14.5,-505.7 14.5,-528.7 123.5,-528.7 123.5,-505.7 14.5,-505.7"/>
<text text-anchor="start" x="19.5" y="-514.3" font-family="Helvetica,sans-Serif" font-weight="bold" font-size="11.00" fill="#000000">public.users</text>
<text text-anchor="start" x="89.0219" y="-513.8" font-family="Helvetica,sans-Serif" font-size="11.00" fill="#000000">[table]</text>
<polygon fill="none" stroke="#000000" points="14.5,-486.7 14.5,-505.7 123.5,-505.7 123.5,-486.7 14.5,-486.7"/>
<text text-anchor="start" x="17.5" y="-492.8" font-family="Helvetica,sans-Serif" font-size="11.00" fill="#000000">...</text>
<polygon fill="#ffffff" stroke="transparent" points="14.5,-467.7 14.5,-486.7 45.5,-486.7 45.5,-467.7 14.5,-467.7"/>
<polygon fill="none" stroke="#000000" points="14.5,-467.7 14.5,-486.7 45.5,-486.7 45.5,-467.7 14.5,-467.7"/>
<text text-anchor="start" x="17.5" y="-473.8" font-family="Helvetica,sans-Serif" font-size="11.00" fill="#000000"> &#160;</text>
<polygon fill="#ffffff" stroke="transparent" points="45.5,-467.7 45.5,-486.7 92.5,-486.7 92.5,-467.7 45.5,-467.7"/>
<polygon fill="none" stroke="#000000" points="45.5,-467.7 45.5,-486.7 92.5,-486.7 92.5,-467.7 45.5,-467.7"/>
<text text-anchor="start" x="57.1105" y="-473.8" font-family="Helvetica,sans-Serif" font-size="11.00" fill="#000000">0 rows</text>
<polygon fill="#ffffff" stroke="transparent" points="92.5,-467.7 92.5,-486.7 123.5,-486.7 123.5,-467.7 92.5,-467.7"/>
<polygon fill="none" stroke="#000000" points="92.5,-467.7 92.5,-486.7 123.5,-486.7 123.5,-467.7 92.5,-467.7"/>
<text text-anchor="start" x="104.9053" y="-473.8" font-family="Helvetica,sans-Serif" font-size="11.00" fill="#000000">6 &gt;</text>
</a>
</g>
</g>
<!-- container_legs&#45;&gt;public.users -->
<g id="edge3" class="edge">
<title>container_legs:w&#45;&gt;public.users:e</title>
<path fill="none" stroke="#000000" d="M393.3309,-467.8517C386.8857,-470.096 380.3971,-472.0936 374,-473.7 291.9217,-494.3106 193.7405,-496.6311 131.2527,-496.8857"/>
<polygon fill="#000000" stroke="#000000" points="399.3908,-465.5815 408.1453,-466.1461 403.1366,-464.1782 406.8824,-462.7749 406.8824,-462.7749 406.8824,-462.7749 403.1366,-464.1782 405.6194,-459.4037 399.3908,-465.5815 399.3908,-465.5815"/>
<ellipse fill="none" stroke="#000000" cx="396.3942" cy="-466.7041" rx="3.2" ry="3.2"/>
</g>
<!-- container_legs&#45;&gt;public.users -->
<g id="edge6" class="edge">
<title>container_legs:w&#45;&gt;public.users:e</title>
<path fill="none" stroke="#000000" d="M412.2979,-473.331C399.8812,-478.7362 386.7585,-483.4962 374,-486.7 291.9217,-507.3106 193.7405,-509.6311 131.2527,-506.7563"/>
<polygon fill="#000000" stroke="#000000" points="418.1815,-470.6118 426.9538,-470.5235 421.8125,-468.9337 425.4435,-467.2557 425.4435,-467.2557 425.4435,-467.2557 421.8125,-468.9337 423.9332,-463.9878 418.1815,-470.6118 418.1815,-470.6118"/>
<ellipse fill="none" stroke="#000000" cx="415.2767" cy="-471.9543" rx="3.2" ry="3.2"/>
</g>
<!-- public.locations -->
<g id="node5" class="node">
<title>public.locations</title>
<g id="a_node5"><a xlink:href="../../../public/tables/locations.html" xlink:title="public.locations" target="_top">
<polygon fill="#ffffff" stroke="transparent" points="207,-120.2 207,-181.2 337,-181.2 337,-120.2 207,-120.2"/>
<polygon fill="#f5f5f5" stroke="transparent" points="207,-157.7 207,-180.7 337,-180.7 337,-157.7 207,-157.7"/>
<polygon fill="none" stroke="#000000" points="207,-157.7 207,-180.7 337,-180.7 337,-157.7 207,-157.7"/>
<text text-anchor="start" x="212" y="-166.3" font-family="Helvetica,sans-Serif" font-weight="bold" font-size="11.00" fill="#000000">public.locations</text>
<text text-anchor="start" x="302.5219" y="-165.8" font-family="Helvetica,sans-Serif" font-size="11.00" fill="#000000">[table]</text>
<polygon fill="none" stroke="#000000" points="207,-138.7 207,-157.7 337,-157.7 337,-138.7 207,-138.7"/>
<text text-anchor="start" x="210" y="-144.8" font-family="Helvetica,sans-Serif" font-size="11.00" fill="#000000">...</text>
<polygon fill="#ffffff" stroke="transparent" points="207,-119.7 207,-138.7 248,-138.7 248,-119.7 207,-119.7"/>
<polygon fill="none" stroke="#000000" points="207,-119.7 207,-138.7 248,-138.7 248,-119.7 207,-119.7"/>
<text text-anchor="start" x="210" y="-125.8" font-family="Helvetica,sans-Serif" font-size="11.00" fill="#000000"> &#160;</text>
<polygon fill="#ffffff" stroke="transparent" points="248,-119.7 248,-138.7 301,-138.7 301,-119.7 248,-119.7"/>
<polygon fill="none" stroke="#000000" points="248,-119.7 248,-138.7 301,-138.7 301,-119.7 248,-119.7"/>
<text text-anchor="start" x="265.6105" y="-125.8" font-family="Helvetica,sans-Serif" font-size="11.00" fill="#000000">0 rows</text>
<polygon fill="#ffffff" stroke="transparent" points="301,-119.7 301,-138.7 337,-138.7 337,-119.7 301,-119.7"/>
<polygon fill="none" stroke="#000000" points="301,-119.7 301,-138.7 337,-138.7 337,-119.7 301,-119.7"/>
<text text-anchor="start" x="318.4053" y="-125.8" font-family="Helvetica,sans-Serif" font-size="11.00" fill="#000000">2 &gt;</text>
</a>
</g>
</g>
<!-- container_legs&#45;&gt;public.locations -->
<g id="edge4" class="edge">
<title>container_legs:w&#45;&gt;public.locations:e</title>
<path fill="none" stroke="#000000" d="M464.4417,-384.1509C441.6413,-301.5627 389.7477,-143.2117 337,-147.7"/>
<polygon fill="#000000" stroke="#000000" points="466.1401,-390.4333 464.7527,-399.0956 467.184,-394.2947 468.2279,-398.156 468.2279,-398.156 468.2279,-398.156 467.184,-394.2947 471.7032,-397.2165 466.1401,-390.4333 466.1401,-390.4333"/>
<ellipse fill="none" stroke="#000000" cx="465.3049" cy="-387.3442" rx="3.2" ry="3.2"/>
</g>
<!-- container_legs&#45;&gt;public.locations -->
<g id="edge5" class="edge">
<title>container_legs:w&#45;&gt;public.locations:e</title>
<path fill="none" stroke="#000000" d="M462.1965,-383.8965C438.3643,-303.7409 388.0827,-152.7711 337,-147.7"/>
<polygon fill="#000000" stroke="#000000" points="464.0797,-390.3119 462.8787,-399.002 465.2063,-394.15 466.3329,-397.988 466.3329,-397.988 466.3329,-397.988 465.2063,-394.15 469.7872,-396.9741 464.0797,-390.3119 464.0797,-390.3119"/>
<ellipse fill="none" stroke="#000000" cx="463.1783" cy="-387.2415" rx="3.2" ry="3.2"/>
</g>
<!-- public.vehicles -->
<g id="node6" class="node">
<title>public.vehicles</title>
<g id="a_node6"><a xlink:href="../../../public/tables/vehicles.html" xlink:title="public.vehicles" target="_top">
<polygon fill="#ffffff" stroke="transparent" points="209.5,-38.2 209.5,-99.2 334.5,-99.2 334.5,-38.2 209.5,-38.2"/>
<polygon fill="#f5f5f5" stroke="transparent" points="210,-75.7 210,-98.7 335,-98.7 335,-75.7 210,-75.7"/>
<polygon fill="none" stroke="#000000" points="210,-75.7 210,-98.7 335,-98.7 335,-75.7 210,-75.7"/>
<text text-anchor="start" x="215" y="-84.3" font-family="Helvetica,sans-Serif" font-weight="bold" font-size="11.00" fill="#000000">public.vehicles</text>
<text text-anchor="start" x="300.5219" y="-83.8" font-family="Helvetica,sans-Serif" font-size="11.00" fill="#000000">[table]</text>
<polygon fill="none" stroke="#000000" points="210,-56.7 210,-75.7 335,-75.7 335,-56.7 210,-56.7"/>
<text text-anchor="start" x="213" y="-62.8" font-family="Helvetica,sans-Serif" font-size="11.00" fill="#000000">...</text>
<polygon fill="#ffffff" stroke="transparent" points="210,-37.7 210,-56.7 249,-56.7 249,-37.7 210,-37.7"/>
<polygon fill="none" stroke="#000000" points="210,-37.7 210,-56.7 249,-56.7 249,-37.7 210,-37.7"/>
<text text-anchor="start" x="213" y="-43.8" font-family="Helvetica,sans-Serif" font-size="11.00" fill="#000000"> &#160;</text>
<polygon fill="#ffffff" stroke="transparent" points="249,-37.7 249,-56.7 300,-56.7 300,-37.7 249,-37.7"/>
<polygon fill="none" stroke="#000000" points="249,-37.7 249,-56.7 300,-56.7 300,-37.7 249,-37.7"/>
<text text-anchor="start" x="264.6105" y="-43.8" font-family="Helvetica,sans-Serif" font-size="11.00" fill="#000000">0 rows</text>
<polygon fill="#ffffff" stroke="transparent" points="300,-37.7 300,-56.7 335,-56.7 335,-37.7 300,-37.7"/>
<polygon fill="none" stroke="#000000" points="300,-37.7 300,-56.7 335,-56.7 335,-37.7 300,-37.7"/>
<text text-anchor="start" x="316.4053" y="-43.8" font-family="Helvetica,sans-Serif" font-size="11.00" fill="#000000">1 &gt;</text>
</a>
</g>
</g>
<!-- container_legs&#45;&gt;public.vehicles -->
<g id="edge7" class="edge">
<title>container_legs:w&#45;&gt;public.vehicles:e</title>
<path fill="none" stroke="#000000" d="M468.2373,-383.7652C449.9748,-283.8425 402.3885,-65.7 335,-65.7"/>
<polygon fill="#000000" stroke="#000000" points="469.4069,-390.2987 467.2731,-398.8079 470.1118,-394.2361 470.8167,-398.1735 470.8167,-398.1735 470.8167,-398.1735 470.1118,-394.2361 474.3604,-397.5391 469.4069,-390.2987 469.4069,-390.2987"/>
<ellipse fill="none" stroke="#000000" cx="468.843" cy="-387.1488" rx="3.2" ry="3.2"/>
</g>
<!-- containers&#45;&gt;public.users -->
<g id="edge8" class="edge">
<title>containers:w&#45;&gt;public.users:e</title>
<path fill="none" stroke="#000000" d="M165.9213,-305.375C132.7106,-326.4824 97.8739,-414.0207 80.2331,-463.7574"/>
<polygon fill="#000000" stroke="#000000" points="172.4076,-303.2212 181.1345,-304.1166 176.2038,-301.9606 180,-300.7 180,-300.7 180,-300.7 176.2038,-301.9606 178.8655,-297.2834 172.4076,-303.2212 172.4076,-303.2212"/>
<ellipse fill="none" stroke="#000000" cx="169.3707" cy="-304.2296" rx="3.2" ry="3.2"/>
</g>
<!-- containers&#45;&gt;public.users -->
<g id="edge11" class="edge">
<title>containers:w&#45;&gt;public.users:e</title>
<path fill="none" stroke="#000000" d="M167.9514,-287.4164C143.4704,-316.566 103.2713,-411.7414 82.2635,-463.8403"/>
<polygon fill="#000000" stroke="#000000" points="173.5183,-283.3891 182.1101,-281.6168 176.7592,-281.0446 180,-278.7 180,-278.7 180,-278.7 176.7592,-281.0446 177.8899,-275.7832 173.5183,-283.3891 173.5183,-283.3891"/>
<ellipse fill="none" stroke="#000000" cx="170.9256" cy="-285.2648" rx="3.2" ry="3.2"/>
</g>
<!-- public.orders -->
<g id="node7" class="node">
<title>public.orders</title>
<g id="a_node7"><a xlink:href="../../../public/tables/orders.html" xlink:title="public.orders" target="_top">
<polygon fill="#ffffff" stroke="transparent" points="11,-256.2 11,-317.2 126,-317.2 126,-256.2 11,-256.2"/>
<polygon fill="#f5f5f5" stroke="transparent" points="11.5,-293.7 11.5,-316.7 126.5,-316.7 126.5,-293.7 11.5,-293.7"/>
<polygon fill="none" stroke="#000000" points="11.5,-293.7 11.5,-316.7 126.5,-316.7 126.5,-293.7 11.5,-293.7"/>
<text text-anchor="start" x="16.5" y="-302.3" font-family="Helvetica,sans-Serif" font-weight="bold" font-size="11.00" fill="#000000">public.orders</text>
<text text-anchor="start" x="92.0219" y="-301.8" font-family="Helvetica,sans-Serif" font-size="11.00" fill="#000000">[table]</text>
<polygon fill="none" stroke="#000000" points="11.5,-274.7 11.5,-293.7 126.5,-293.7 126.5,-274.7 11.5,-274.7"/>
<text text-anchor="start" x="14.5" y="-280.8" font-family="Helvetica,sans-Serif" font-size="11.00" fill="#000000">...</text>
<polygon fill="#ffffff" stroke="transparent" points="11.5,-255.7 11.5,-274.7 45.5,-274.7 45.5,-255.7 11.5,-255.7"/>
<polygon fill="none" stroke="#000000" points="11.5,-255.7 11.5,-274.7 45.5,-274.7 45.5,-255.7 11.5,-255.7"/>
<text text-anchor="start" x="14.5" y="-261.8" font-family="Helvetica,sans-Serif" font-size="11.00" fill="#000000"> &#160;</text>
<polygon fill="#ffffff" stroke="transparent" points="45.5,-255.7 45.5,-274.7 94.5,-274.7 94.5,-255.7 45.5,-255.7"/>
<polygon fill="none" stroke="#000000" points="45.5,-255.7 45.5,-274.7 94.5,-274.7 94.5,-255.7 45.5,-255.7"/>
<text text-anchor="start" x="59.1105" y="-261.8" font-family="Helvetica,sans-Serif" font-size="11.00" fill="#000000">0 rows</text>
<polygon fill="#ffffff" stroke="transparent" points="94.5,-255.7 94.5,-274.7 126.5,-274.7 126.5,-255.7 94.5,-255.7"/>
<polygon fill="none" stroke="#000000" points="94.5,-255.7 94.5,-274.7 126.5,-274.7 126.5,-255.7 94.5,-255.7"/>
<text text-anchor="start" x="107.9053" y="-261.8" font-family="Helvetica,sans-Serif" font-size="11.00" fill="#000000">1 &gt;</text>
</a>
</g>
</g>
<!-- containers&#45;&gt;public.orders -->
<g id="edge9" class="edge">
<title>containers:w&#45;&gt;public.orders:e</title>
<path fill="none" stroke="#000000" d="M165.2773,-257.4526C154.7782,-258.4814 144.185,-260.488 134.0538,-262.989"/>
<polygon fill="#000000" stroke="#000000" points="172.0104,-257.1085 180.1838,-260.2953 176.0052,-256.9042 180,-256.7 180,-256.7 180,-256.7 176.0052,-256.9042 179.8162,-253.1047 172.0104,-257.1085 172.0104,-257.1085"/>
<ellipse fill="none" stroke="#000000" cx="168.8146" cy="-257.2718" rx="3.2" ry="3.2"/>
</g>
<!-- public.trailers -->
<g id="node8" class="node">
<title>public.trailers</title>
<g id="a_node8"><a xlink:href="../../../public/tables/trailers.html" xlink:title="public.trailers" target="_top">
<polygon fill="#ffffff" stroke="transparent" points="10,-174.2 10,-235.2 127,-235.2 127,-174.2 10,-174.2"/>
<polygon fill="#f5f5f5" stroke="transparent" points="10.5,-211.7 10.5,-234.7 127.5,-234.7 127.5,-211.7 10.5,-211.7"/>
<polygon fill="none" stroke="#000000" points="10.5,-211.7 10.5,-234.7 127.5,-234.7 127.5,-211.7 10.5,-211.7"/>
<text text-anchor="start" x="15.5" y="-220.3" font-family="Helvetica,sans-Serif" font-weight="bold" font-size="11.00" fill="#000000">public.trailers</text>
<text text-anchor="start" x="93.0219" y="-219.8" font-family="Helvetica,sans-Serif" font-size="11.00" fill="#000000">[table]</text>
<polygon fill="none" stroke="#000000" points="10.5,-192.7 10.5,-211.7 127.5,-211.7 127.5,-192.7 10.5,-192.7"/>
<text text-anchor="start" x="13.5" y="-198.8" font-family="Helvetica,sans-Serif" font-size="11.00" fill="#000000">...</text>
<polygon fill="#ffffff" stroke="transparent" points="10.5,-173.7 10.5,-192.7 45.5,-192.7 45.5,-173.7 10.5,-173.7"/>
<polygon fill="none" stroke="#000000" points="10.5,-173.7 10.5,-192.7 45.5,-192.7 45.5,-173.7 10.5,-173.7"/>
<text text-anchor="start" x="13.5" y="-179.8" font-family="Helvetica,sans-Serif" font-size="11.00" fill="#000000"> &#160;</text>
<polygon fill="#ffffff" stroke="transparent" points="45.5,-173.7 45.5,-192.7 94.5,-192.7 94.5,-173.7 45.5,-173.7"/>
<polygon fill="none" stroke="#000000" points="45.5,-173.7 45.5,-192.7 94.5,-192.7 94.5,-173.7 45.5,-173.7"/>
<text text-anchor="start" x="59.1105" y="-179.8" font-family="Helvetica,sans-Serif" font-size="11.00" fill="#000000">0 rows</text>
<polygon fill="#ffffff" stroke="transparent" points="94.5,-173.7 94.5,-192.7 127.5,-192.7 127.5,-173.7 94.5,-173.7"/>
<polygon fill="none" stroke="#000000" points="94.5,-173.7 94.5,-192.7 127.5,-192.7 127.5,-173.7 94.5,-173.7"/>
<text text-anchor="start" x="108.9053" y="-179.8" font-family="Helvetica,sans-Serif" font-size="11.00" fill="#000000">1 &gt;</text>
</a>
</g>
</g>
<!-- containers&#45;&gt;public.trailers -->
<g id="edge10" class="edge">
<title>containers:w&#45;&gt;public.trailers:e</title>
<path fill="none" stroke="#000000" d="M165.3181,-233.9514C155.2148,-232.9638 145.0237,-231.0701 135.2405,-228.7012"/>
<polygon fill="#000000" stroke="#000000" points="172.0104,-234.2926 179.8167,-238.2953 176.0052,-234.4963 180,-234.7 180,-234.7 180,-234.7 176.0052,-234.4963 180.1833,-231.1047 172.0104,-234.2926 172.0104,-234.2926"/>
<ellipse fill="none" stroke="#000000" cx="168.8145" cy="-234.1296" rx="3.2" ry="3.2"/>
</g>
<!-- freight_bills -->
<g id="node9" class="node">
<title>freight_bills</title>
<g id="a_node9"><a xlink:href="../../tables/freight_bills.html" xlink:title="freight_bills" target="_top">
<polygon fill="#ffffff" stroke="transparent" points="218.5,-529.2 218.5,-590.2 325.5,-590.2 325.5,-529.2 218.5,-529.2"/>
<polygon fill="#f5f5f5" stroke="transparent" points="219,-566.7 219,-589.7 326,-589.7 326,-566.7 219,-566.7"/>
<polygon fill="none" stroke="#000000" points="219,-566.7 219,-589.7 326,-589.7 326,-566.7 219,-566.7"/>
<text text-anchor="start" x="224" y="-575.3" font-family="Helvetica,sans-Serif" font-weight="bold" font-size="11.00" fill="#000000">freight_bills</text>
<text text-anchor="start" x="291.5219" y="-574.8" font-family="Helvetica,sans-Serif" font-size="11.00" fill="#000000">[table]</text>
<polygon fill="none" stroke="#000000" points="219,-547.7 219,-566.7 326,-566.7 326,-547.7 219,-547.7"/>
<text text-anchor="start" x="222" y="-553.8" font-family="Helvetica,sans-Serif" font-size="11.00" fill="#000000">...</text>
<polygon fill="#ffffff" stroke="transparent" points="219,-528.7 219,-547.7 271,-547.7 271,-528.7 219,-528.7"/>
<polygon fill="none" stroke="#000000" points="219,-528.7 219,-547.7 271,-547.7 271,-528.7 219,-528.7"/>
<text text-anchor="start" x="222" y="-534.8" font-family="Helvetica,sans-Serif" font-size="11.00" fill="#000000">&lt; 3</text>
<polygon fill="#ffffff" stroke="transparent" points="271,-528.7 271,-547.7 298,-547.7 298,-528.7 271,-528.7"/>
<polygon fill="none" stroke="#000000" points="271,-528.7 271,-547.7 298,-547.7 298,-528.7 271,-528.7"/>
<text text-anchor="start" x="288.8862" y="-534.8" font-family="Helvetica,sans-Serif" font-size="11.00" fill="#000000"> &#160;</text>
<polygon fill="#ffffff" stroke="transparent" points="298,-528.7 298,-547.7 326,-547.7 326,-528.7 298,-528.7"/>
<polygon fill="none" stroke="#000000" points="298,-528.7 298,-547.7 326,-547.7 326,-528.7 298,-528.7"/>
<text text-anchor="start" x="316.8862" y="-534.8" font-family="Helvetica,sans-Serif" font-size="11.00" fill="#000000"> &#160;</text>
</a>
</g>
</g>
<!-- freight_bills&#45;&gt;public.carriers -->
<g id="edge12" class="edge">
<title>freight_bills:w&#45;&gt;public.carriers:e</title>
<path fill="none" stroke="#000000" d="M204.4762,-558.3758C174.2944,-565.8406 167.4665,-595.7 129.5,-595.7"/>
<polygon fill="#000000" stroke="#000000" points="211.0527,-557.617 219.4127,-560.2763 215.0264,-557.1585 219,-556.7 219,-556.7 219,-556.7 215.0264,-557.1585 218.5873,-553.1237 211.0527,-557.617 211.0527,-557.617"/>
<ellipse fill="none" stroke="#000000" cx="207.8738" cy="-557.9838" rx="3.2" ry="3.2"/>
</g>
<!-- freight_bills&#45;&gt;public.users -->
<g id="edge13" class="edge">
<title>freight_bills:w&#45;&gt;public.users:e</title>
<path fill="none" stroke="#000000" d="M204.4664,-554.8191C178.9845,-550.4215 153.3344,-540.5266 131.2862,-530.2227"/>
<polygon fill="#000000" stroke="#000000" points="211.0662,-555.6732 218.5379,-560.2702 215.0331,-556.1866 219,-556.7 219,-556.7 219,-556.7 215.0331,-556.1866 219.4621,-553.1298 211.0662,-555.6732 211.0662,-555.6732"/>
<ellipse fill="none" stroke="#000000" cx="207.8926" cy="-555.2625" rx="3.2" ry="3.2"/>
</g>
<!-- freight_bills&#45;&gt;public.users -->
<g id="edge14" class="edge">
<title>freight_bills:w&#45;&gt;public.users:e</title>
<path fill="none" stroke="#000000" d="M204.3424,-557.2635C173.3973,-556.7137 142.2134,-545.6851 117.5419,-533.2895"/>
<polygon fill="#000000" stroke="#000000" points="211.0059,-557.0074 219.1383,-560.2973 215.003,-556.8537 219,-556.7 219,-556.7 219,-556.7 215.003,-556.8537 218.8617,-553.1027 211.0059,-557.0074 211.0059,-557.0074"/>
<ellipse fill="none" stroke="#000000" cx="207.8083" cy="-557.1303" rx="3.2" ry="3.2"/>
</g>
</g>
</svg>
