<?xml version="1.0" encoding="UTF-8" standalone="no"?>
<!DOCTYPE svg PUBLIC "-//W3C//DTD SVG 1.1//EN"
 "http://www.w3.org/Graphics/SVG/1.1/DTD/svg11.dtd">
<!-- Generated by graphviz version 2.40.1 (20161225.0304)
 -->
<!-- Title: oneDegreeRelationshipsDiagram Pages: 1 -->
<svg width="396pt" height="426pt"
 viewBox="0.00 0.00 396.00 426.20" xmlns="http://www.w3.org/2000/svg" xmlns:xlink="http://www.w3.org/1999/xlink">
<g id="graph0" class="graph" transform="scale(1 1) rotate(0) translate(4 422.2)">
<title>oneDegreeRelationshipsDiagram</title>
<polygon fill="#ffffff" stroke="transparent" points="-4,4 -4,-422.2 392,-422.2 392,4 -4,4"/>
<text text-anchor="middle" x="72.4936" y="-7.3" font-family="Helvetica,sans-Serif" font-size="11.00" fill="#000000">Generated by SchemaSpy</text>
<!-- freight_bills -->
<g id="node1" class="node">
<title>freight_bills</title>
<g id="a_node1"><a xlink:href="../../tables/freight_bills.html" xlink:title="freight_bills" target="_top">
<polygon fill="#ffffff" stroke="transparent" points="178,-38.2 178,-414.2 380,-414.2 380,-38.2 178,-38.2"/>
<polygon fill="#f5f5f5" stroke="transparent" points="180,-389.2 180,-412.2 378,-412.2 378,-389.2 180,-389.2"/>
<polygon fill="none" stroke="#000000" points="180,-389.2 180,-412.2 378,-412.2 378,-389.2 180,-389.2"/>
<text text-anchor="start" x="185" y="-397.8" font-family="Helvetica,sans-Serif" font-weight="bold" font-size="11.00" fill="#000000">freight_bills</text>
<text text-anchor="start" x="343.0437" y="-397.3" font-family="Helvetica,sans-Serif" font-size="11.00" fill="#000000">[table]</text>
<polygon fill="none" stroke="#000000" points="180,-367.2 180,-389.2 286,-389.2 286,-367.2 180,-367.2"/>
<image xlink:href="../../images/primaryKeys.png" width="11px" height="12px" preserveAspectRatio="xMinYMin meet" x="185" y="-384.2"/>
<text text-anchor="start" x="200" y="-374.3" font-family="Helvetica,sans-Serif" font-size="11.00" fill="#000000">freight_bill_id</text>
<polygon fill="none" stroke="#000000" points="286,-367.2 286,-389.2 378,-389.2 378,-367.2 286,-367.2"/>
<text text-anchor="start" x="289" y="-374.9" font-family="Helvetica,sans-Serif" font-size="11.00" fill="#000000">int8[19]</text>
<polygon fill="none" stroke="#000000" points="180,-345.2 180,-367.2 286,-367.2 286,-345.2 180,-345.2"/>
<text text-anchor="start" x="200" y="-352.3" font-family="Helvetica,sans-Serif" font-size="11.00" fill="#000000">reference_type</text>
<polygon fill="none" stroke="#000000" points="286,-345.2 286,-367.2 378,-367.2 378,-345.2 286,-345.2"/>
<text text-anchor="start" x="289" y="-352.9" font-family="Helvetica,sans-Serif" font-size="11.00" fill="#000000">varchar[50]</text>
<polygon fill="none" stroke="#000000" points="180,-323.2 180,-345.2 286,-345.2 286,-323.2 180,-323.2"/>
<text text-anchor="start" x="200" y="-330.3" font-family="Helvetica,sans-Serif" font-size="11.00" fill="#000000">reference_id</text>
<polygon fill="none" stroke="#000000" points="286,-323.2 286,-345.2 378,-345.2 378,-323.2 286,-323.2"/>
<text text-anchor="start" x="289" y="-330.9" font-family="Helvetica,sans-Serif" font-size="11.00" fill="#000000">int8[19]</text>
<polygon fill="none" stroke="#000000" points="180,-301.2 180,-323.2 286,-323.2 286,-301.2 180,-301.2"/>
<image xlink:href="../../images/foreignKeys.png" width="11px" height="12px" preserveAspectRatio="xMinYMin meet" x="185" y="-318.2"/>
<text text-anchor="start" x="200" y="-308.3" font-family="Helvetica,sans-Serif" font-size="11.00" fill="#000000">carrier_id</text>
<polygon fill="none" stroke="#000000" points="286,-301.2 286,-323.2 378,-323.2 378,-301.2 286,-301.2"/>
<text text-anchor="start" x="289" y="-308.9" font-family="Helvetica,sans-Serif" font-size="11.00" fill="#000000">int8[19]</text>
<polygon fill="#ffffff" stroke="transparent" points="180,-279.2 180,-301.2 286,-301.2 286,-279.2 180,-279.2"/>
<polygon fill="none" stroke="#000000" points="180,-279.2 180,-301.2 286,-301.2 286,-279.2 180,-279.2"/>
<text text-anchor="start" x="200" y="-286.3" font-family="Helvetica,sans-Serif" font-size="11.00" fill="#000000">bill_number</text>
<polygon fill="none" stroke="#000000" points="286,-279.2 286,-301.2 378,-301.2 378,-279.2 286,-279.2"/>
<text text-anchor="start" x="289" y="-286.9" font-family="Helvetica,sans-Serif" font-size="11.00" fill="#000000">varchar[100]</text>
<polygon fill="none" stroke="#000000" points="180,-257.2 180,-279.2 286,-279.2 286,-257.2 180,-257.2"/>
<text text-anchor="start" x="200" y="-264.3" font-family="Helvetica,sans-Serif" font-size="11.00" fill="#000000">amount</text>
<polygon fill="none" stroke="#000000" points="286,-257.2 286,-279.2 378,-279.2 378,-257.2 286,-257.2"/>
<text text-anchor="start" x="289" y="-264.9" font-family="Helvetica,sans-Serif" font-size="11.00" fill="#000000">numeric[12,2]</text>
<polygon fill="none" stroke="#000000" points="180,-235.2 180,-257.2 286,-257.2 286,-235.2 180,-235.2"/>
<text text-anchor="start" x="200" y="-242.3" font-family="Helvetica,sans-Serif" font-size="11.00" fill="#000000">currency</text>
<polygon fill="none" stroke="#000000" points="286,-235.2 286,-257.2 378,-257.2 378,-235.2 286,-235.2"/>
<text text-anchor="start" x="289" y="-242.9" font-family="Helvetica,sans-Serif" font-size="11.00" fill="#000000">varchar[10]</text>
<polygon fill="none" stroke="#000000" points="180,-213.2 180,-235.2 286,-235.2 286,-213.2 180,-213.2"/>
<text text-anchor="start" x="200" y="-220.3" font-family="Helvetica,sans-Serif" font-size="11.00" fill="#000000">billing_date</text>
<polygon fill="none" stroke="#000000" points="286,-213.2 286,-235.2 378,-235.2 378,-213.2 286,-213.2"/>
<text text-anchor="start" x="289" y="-220.9" font-family="Helvetica,sans-Serif" font-size="11.00" fill="#000000">date[13]</text>
<polygon fill="none" stroke="#000000" points="180,-191.2 180,-213.2 286,-213.2 286,-191.2 180,-191.2"/>
<text text-anchor="start" x="200" y="-198.3" font-family="Helvetica,sans-Serif" font-size="11.00" fill="#000000">due_date</text>
<polygon fill="none" stroke="#000000" points="286,-191.2 286,-213.2 378,-213.2 378,-191.2 286,-191.2"/>
<text text-anchor="start" x="289" y="-198.9" font-family="Helvetica,sans-Serif" font-size="11.00" fill="#000000">date[13]</text>
<polygon fill="none" stroke="#000000" points="180,-169.2 180,-191.2 286,-191.2 286,-169.2 180,-169.2"/>
<text text-anchor="start" x="200" y="-176.3" font-family="Helvetica,sans-Serif" font-size="11.00" fill="#000000">status</text>
<polygon fill="none" stroke="#000000" points="286,-169.2 286,-191.2 378,-191.2 378,-169.2 286,-169.2"/>
<text text-anchor="start" x="289" y="-176.9" font-family="Helvetica,sans-Serif" font-size="11.00" fill="#000000">varchar[50]</text>
<polygon fill="none" stroke="#000000" points="180,-147.2 180,-169.2 286,-169.2 286,-147.2 180,-147.2"/>
<text text-anchor="start" x="200" y="-154.3" font-family="Helvetica,sans-Serif" font-size="11.00" fill="#000000">notes</text>
<polygon fill="none" stroke="#000000" points="286,-147.2 286,-169.2 378,-169.2 378,-147.2 286,-147.2"/>
<text text-anchor="start" x="289" y="-154.9" font-family="Helvetica,sans-Serif" font-size="11.00" fill="#000000">text[2147483647]</text>
<polygon fill="none" stroke="#000000" points="180,-125.2 180,-147.2 286,-147.2 286,-125.2 180,-125.2"/>
<text text-anchor="start" x="200" y="-132.3" font-family="Helvetica,sans-Serif" font-size="11.00" fill="#000000">created_at</text>
<polygon fill="none" stroke="#000000" points="286,-125.2 286,-147.2 378,-147.2 378,-125.2 286,-125.2"/>
<text text-anchor="start" x="288.6023" y="-132.9" font-family="Helvetica,sans-Serif" font-size="11.00" fill="#000000">timestamptz[35,6]</text>
<polygon fill="none" stroke="#000000" points="180,-103.2 180,-125.2 286,-125.2 286,-103.2 180,-103.2"/>
<image xlink:href="../../images/foreignKeys.png" width="11px" height="12px" preserveAspectRatio="xMinYMin meet" x="185" y="-120.2"/>
<text text-anchor="start" x="200" y="-110.3" font-family="Helvetica,sans-Serif" font-size="11.00" fill="#000000">created_by</text>
<polygon fill="none" stroke="#000000" points="286,-103.2 286,-125.2 378,-125.2 378,-103.2 286,-103.2"/>
<text text-anchor="start" x="289" y="-110.9" font-family="Helvetica,sans-Serif" font-size="11.00" fill="#000000">int8[19]</text>
<polygon fill="none" stroke="#000000" points="180,-81.2 180,-103.2 286,-103.2 286,-81.2 180,-81.2"/>
<text text-anchor="start" x="200" y="-88.3" font-family="Helvetica,sans-Serif" font-size="11.00" fill="#000000">updated_at</text>
<polygon fill="none" stroke="#000000" points="286,-81.2 286,-103.2 378,-103.2 378,-81.2 286,-81.2"/>
<text text-anchor="start" x="288.6023" y="-88.9" font-family="Helvetica,sans-Serif" font-size="11.00" fill="#000000">timestamptz[35,6]</text>
<polygon fill="none" stroke="#000000" points="180,-59.2 180,-81.2 286,-81.2 286,-59.2 180,-59.2"/>
<image xlink:href="../../images/foreignKeys.png" width="11px" height="12px" preserveAspectRatio="xMinYMin meet" x="185" y="-76.2"/>
<text text-anchor="start" x="200" y="-66.3" font-family="Helvetica,sans-Serif" font-size="11.00" fill="#000000">updated_by</text>
<polygon fill="none" stroke="#000000" points="286,-59.2 286,-81.2 378,-81.2 378,-59.2 286,-59.2"/>
<text text-anchor="start" x="289" y="-66.9" font-family="Helvetica,sans-Serif" font-size="11.00" fill="#000000">int8[19]</text>
<polygon fill="#ffffff" stroke="transparent" points="180,-40.2 180,-59.2 237,-59.2 237,-40.2 180,-40.2"/>
<polygon fill="none" stroke="#000000" points="180,-40.2 180,-59.2 237,-59.2 237,-40.2 180,-40.2"/>
<text text-anchor="start" x="183" y="-46.3" font-family="Helvetica,sans-Serif" font-size="11.00" fill="#000000">&lt; 3</text>
<polygon fill="#ffffff" stroke="transparent" points="237,-40.2 237,-59.2 286,-59.2 286,-40.2 237,-40.2"/>
<polygon fill="none" stroke="#000000" points="237,-40.2 237,-59.2 286,-59.2 286,-40.2 237,-40.2"/>
<text text-anchor="start" x="276.8862" y="-46.3" font-family="Helvetica,sans-Serif" font-size="11.00" fill="#000000"> &#160;</text>
<polygon fill="#ffffff" stroke="transparent" points="286,-40.2 286,-59.2 378,-59.2 378,-40.2 286,-40.2"/>
<polygon fill="none" stroke="#000000" points="286,-40.2 286,-59.2 378,-59.2 378,-40.2 286,-40.2"/>
<text text-anchor="start" x="359.4053" y="-46.3" font-family="Helvetica,sans-Serif" font-size="11.00" fill="#000000">0 &gt;</text>
<polygon fill="none" stroke="#000000" stroke-width="2" points="179,-39.2 179,-413.2 379,-413.2 379,-39.2 179,-39.2"/>
</a>
</g>
</g>
<!-- public.carriers -->
<g id="node2" class="node">
<title>public.carriers</title>
<g id="a_node2"><a xlink:href="../../../public/tables/carriers.html" xlink:title="public.carriers" target="_top">
<polygon fill="#ffffff" stroke="transparent" points="8,-281.7 8,-342.7 129,-342.7 129,-281.7 8,-281.7"/>
<polygon fill="#f5f5f5" stroke="transparent" points="8.5,-319.2 8.5,-342.2 129.5,-342.2 129.5,-319.2 8.5,-319.2"/>
<polygon fill="none" stroke="#000000" points="8.5,-319.2 8.5,-342.2 129.5,-342.2 129.5,-319.2 8.5,-319.2"/>
<text text-anchor="start" x="13.5" y="-327.8" font-family="Helvetica,sans-Serif" font-weight="bold" font-size="11.00" fill="#000000">public.carriers</text>
<text text-anchor="start" x="95.0219" y="-327.3" font-family="Helvetica,sans-Serif" font-size="11.00" fill="#000000">[table]</text>
<polygon fill="none" stroke="#000000" points="8.5,-300.2 8.5,-319.2 129.5,-319.2 129.5,-300.2 8.5,-300.2"/>
<text text-anchor="start" x="11.5" y="-306.3" font-family="Helvetica,sans-Serif" font-size="11.00" fill="#000000">...</text>
<polygon fill="#ffffff" stroke="transparent" points="8.5,-281.2 8.5,-300.2 45.5,-300.2 45.5,-281.2 8.5,-281.2"/>
<polygon fill="none" stroke="#000000" points="8.5,-281.2 8.5,-300.2 45.5,-300.2 45.5,-281.2 8.5,-281.2"/>
<text text-anchor="start" x="11.5" y="-287.3" font-family="Helvetica,sans-Serif" font-size="11.00" fill="#000000"> &#160;</text>
<polygon fill="#ffffff" stroke="transparent" points="45.5,-281.2 45.5,-300.2 95.5,-300.2 95.5,-281.2 45.5,-281.2"/>
<polygon fill="none" stroke="#000000" points="45.5,-281.2 45.5,-300.2 95.5,-300.2 95.5,-281.2 45.5,-281.2"/>
<text text-anchor="start" x="60.1105" y="-287.3" font-family="Helvetica,sans-Serif" font-size="11.00" fill="#000000">0 rows</text>
<polygon fill="#ffffff" stroke="transparent" points="95.5,-281.2 95.5,-300.2 129.5,-300.2 129.5,-281.2 95.5,-281.2"/>
<polygon fill="none" stroke="#000000" points="95.5,-281.2 95.5,-300.2 129.5,-300.2 129.5,-281.2 95.5,-281.2"/>
<text text-anchor="start" x="110.9053" y="-287.3" font-family="Helvetica,sans-Serif" font-size="11.00" fill="#000000">2 &gt;</text>
</a>
</g>
</g>
<!-- freight_bills&#45;&gt;public.carriers -->
<g id="edge1" class="edge">
<title>freight_bills:w&#45;&gt;public.carriers:e</title>
<path fill="none" stroke="#000000" d="M165.45,-312.2C156.0566,-312.2 146.4867,-312.2 137.1981,-312.2"/>
<polygon fill="#000000" stroke="#000000" points="172,-312.2001 180,-315.8 176,-312.2 180,-312.2 180,-312.2 180,-312.2 176,-312.2 180,-308.6 172,-312.2001 172,-312.2001"/>
<ellipse fill="none" stroke="#000000" cx="168.8" cy="-312.2001" rx="3.2" ry="3.2"/>
</g>
<!-- public.users -->
<g id="node3" class="node">
<title>public.users</title>
<g id="a_node3"><a xlink:href="../../../public/tables/users.html" xlink:title="public.users" target="_top">
<polygon fill="#ffffff" stroke="transparent" points="14,-61.7 14,-122.7 123,-122.7 123,-61.7 14,-61.7"/>
<polygon fill="#f5f5f5" stroke="transparent" points="14.5,-99.2 14.5,-122.2 123.5,-122.2 123.5,-99.2 14.5,-99.2"/>
<polygon fill="none" stroke="#000000" points="14.5,-99.2 14.5,-122.2 123.5,-122.2 123.5,-99.2 14.5,-99.2"/>
<text text-anchor="start" x="19.5" y="-107.8" font-family="Helvetica,sans-Serif" font-weight="bold" font-size="11.00" fill="#000000">public.users</text>
<text text-anchor="start" x="89.0219" y="-107.3" font-family="Helvetica,sans-Serif" font-size="11.00" fill="#000000">[table]</text>
<polygon fill="none" stroke="#000000" points="14.5,-80.2 14.5,-99.2 123.5,-99.2 123.5,-80.2 14.5,-80.2"/>
<text text-anchor="start" x="17.5" y="-86.3" font-family="Helvetica,sans-Serif" font-size="11.00" fill="#000000">...</text>
<polygon fill="#ffffff" stroke="transparent" points="14.5,-61.2 14.5,-80.2 45.5,-80.2 45.5,-61.2 14.5,-61.2"/>
<polygon fill="none" stroke="#000000" points="14.5,-61.2 14.5,-80.2 45.5,-80.2 45.5,-61.2 14.5,-61.2"/>
<text text-anchor="start" x="17.5" y="-67.3" font-family="Helvetica,sans-Serif" font-size="11.00" fill="#000000"> &#160;</text>
<polygon fill="#ffffff" stroke="transparent" points="45.5,-61.2 45.5,-80.2 92.5,-80.2 92.5,-61.2 45.5,-61.2"/>
<polygon fill="none" stroke="#000000" points="45.5,-61.2 45.5,-80.2 92.5,-80.2 92.5,-61.2 45.5,-61.2"/>
<text text-anchor="start" x="57.1105" y="-67.3" font-family="Helvetica,sans-Serif" font-size="11.00" fill="#000000">0 rows</text>
<polygon fill="#ffffff" stroke="transparent" points="92.5,-61.2 92.5,-80.2 123.5,-80.2 123.5,-61.2 92.5,-61.2"/>
<polygon fill="none" stroke="#000000" points="92.5,-61.2 92.5,-80.2 123.5,-80.2 123.5,-61.2 92.5,-61.2"/>
<text text-anchor="start" x="104.9053" y="-67.3" font-family="Helvetica,sans-Serif" font-size="11.00" fill="#000000">6 &gt;</text>
</a>
</g>
</g>
<!-- freight_bills&#45;&gt;public.users -->
<g id="edge2" class="edge">
<title>freight_bills:w&#45;&gt;public.users:e</title>
<path fill="none" stroke="#000000" d="M165.5479,-113.6541C154.0129,-112.821 142.2916,-111.1036 131.1709,-108.9863"/>
<polygon fill="#000000" stroke="#000000" points="172.0057,-113.898 179.8641,-117.7974 176.0029,-114.049 180,-114.2 180,-114.2 180,-114.2 176.0029,-114.049 180.1359,-110.6026 172.0057,-113.898 172.0057,-113.898"/>
<ellipse fill="none" stroke="#000000" cx="168.808" cy="-113.7772" rx="3.2" ry="3.2"/>
</g>
<!-- freight_bills&#45;&gt;public.users -->
<g id="edge3" class="edge">
<title>freight_bills:w&#45;&gt;public.users:e</title>
<path fill="none" stroke="#000000" d="M165.5479,-70.7459C154.0129,-71.579 142.2916,-73.2964 131.1709,-75.4137"/>
<polygon fill="#000000" stroke="#000000" points="172.0057,-70.502 180.1359,-73.7974 176.0029,-70.351 180,-70.2 180,-70.2 180,-70.2 176.0029,-70.351 179.8641,-66.6026 172.0057,-70.502 172.0057,-70.502"/>
<ellipse fill="none" stroke="#000000" cx="168.808" cy="-70.6228" rx="3.2" ry="3.2"/>
</g>
</g>
</svg>
