<?xml version="1.0" encoding="UTF-8" standalone="no"?>
<!DOCTYPE svg PUBLIC "-//W3C//DTD SVG 1.1//EN"
 "http://www.w3.org/Graphics/SVG/1.1/DTD/svg11.dtd">
<!-- Generated by graphviz version 2.40.1 (20161225.0304)
 -->
<!-- Title: twoDegreesRelationshipsDiagram Pages: 1 -->
<svg width="568pt" height="578pt"
 viewBox="0.00 0.00 568.00 577.88" xmlns="http://www.w3.org/2000/svg" xmlns:xlink="http://www.w3.org/1999/xlink">
<g id="graph0" class="graph" transform="scale(1 1) rotate(0) translate(4 573.8786)">
<title>twoDegreesRelationshipsDiagram</title>
<polygon fill="#ffffff" stroke="transparent" points="-4,4 -4,-573.8786 564,-573.8786 564,4 -4,4"/>
<text text-anchor="middle" x="72.4936" y="-7.3" font-family="Helvetica,sans-Serif" font-size="11.00" fill="#000000">Generated by SchemaSpy</text>
<!-- container_legs -->
<g id="node1" class="node">
<title>container_legs</title>
<g id="a_node1"><a xlink:href="../../tables/container_legs.html" xlink:title="container_legs" target="_top">
<polygon fill="#ffffff" stroke="transparent" points="429,-38.2 429,-99.2 552,-99.2 552,-38.2 429,-38.2"/>
<polygon fill="#f5f5f5" stroke="transparent" points="429.5,-75.7 429.5,-98.7 552.5,-98.7 552.5,-75.7 429.5,-75.7"/>
<polygon fill="none" stroke="#000000" points="429.5,-75.7 429.5,-98.7 552.5,-98.7 552.5,-75.7 429.5,-75.7"/>
<text text-anchor="start" x="434.5" y="-84.3" font-family="Helvetica,sans-Serif" font-weight="bold" font-size="11.00" fill="#000000">container_legs</text>
<text text-anchor="start" x="518.0219" y="-83.8" font-family="Helvetica,sans-Serif" font-size="11.00" fill="#000000">[table]</text>
<polygon fill="none" stroke="#000000" points="429.5,-56.7 429.5,-75.7 552.5,-75.7 552.5,-56.7 429.5,-56.7"/>
<text text-anchor="start" x="432.5" y="-62.8" font-family="Helvetica,sans-Serif" font-size="11.00" fill="#000000">...</text>
<polygon fill="#ffffff" stroke="transparent" points="429.5,-37.7 429.5,-56.7 489.5,-56.7 489.5,-37.7 429.5,-37.7"/>
<polygon fill="none" stroke="#000000" points="429.5,-37.7 429.5,-56.7 489.5,-56.7 489.5,-37.7 429.5,-37.7"/>
<text text-anchor="start" x="432.5" y="-43.8" font-family="Helvetica,sans-Serif" font-size="11.00" fill="#000000">&lt; 7</text>
<polygon fill="#ffffff" stroke="transparent" points="489.5,-37.7 489.5,-56.7 520.5,-56.7 520.5,-37.7 489.5,-37.7"/>
<polygon fill="none" stroke="#000000" points="489.5,-37.7 489.5,-56.7 520.5,-56.7 520.5,-37.7 489.5,-37.7"/>
<text text-anchor="start" x="511.3862" y="-43.8" font-family="Helvetica,sans-Serif" font-size="11.00" fill="#000000"> &#160;</text>
<polygon fill="#ffffff" stroke="transparent" points="520.5,-37.7 520.5,-56.7 552.5,-56.7 552.5,-37.7 520.5,-37.7"/>
<polygon fill="none" stroke="#000000" points="520.5,-37.7 520.5,-56.7 552.5,-56.7 552.5,-37.7 520.5,-37.7"/>
<text text-anchor="start" x="543.3862" y="-43.8" font-family="Helvetica,sans-Serif" font-size="11.00" fill="#000000"> &#160;</text>
</a>
</g>
</g>
<!-- public.carriers -->
<g id="node2" class="node">
<title>public.carriers</title>
<g id="a_node2"><a xlink:href="../../../public/tables/carriers.html" xlink:title="public.carriers" target="_top">
<polygon fill="#ffffff" stroke="transparent" points="8,-456.2 8,-517.2 129,-517.2 129,-456.2 8,-456.2"/>
<polygon fill="#f5f5f5" stroke="transparent" points="8.5,-493.7 8.5,-516.7 129.5,-516.7 129.5,-493.7 8.5,-493.7"/>
<polygon fill="none" stroke="#000000" points="8.5,-493.7 8.5,-516.7 129.5,-516.7 129.5,-493.7 8.5,-493.7"/>
<text text-anchor="start" x="13.5" y="-502.3" font-family="Helvetica,sans-Serif" font-weight="bold" font-size="11.00" fill="#000000">public.carriers</text>
<text text-anchor="start" x="95.0219" y="-501.8" font-family="Helvetica,sans-Serif" font-size="11.00" fill="#000000">[table]</text>
<polygon fill="none" stroke="#000000" points="8.5,-474.7 8.5,-493.7 129.5,-493.7 129.5,-474.7 8.5,-474.7"/>
<text text-anchor="start" x="11.5" y="-480.8" font-family="Helvetica,sans-Serif" font-size="11.00" fill="#000000">...</text>
<polygon fill="#ffffff" stroke="transparent" points="8.5,-455.7 8.5,-474.7 45.5,-474.7 45.5,-455.7 8.5,-455.7"/>
<polygon fill="none" stroke="#000000" points="8.5,-455.7 8.5,-474.7 45.5,-474.7 45.5,-455.7 8.5,-455.7"/>
<text text-anchor="start" x="11.5" y="-461.8" font-family="Helvetica,sans-Serif" font-size="11.00" fill="#000000"> &#160;</text>
<polygon fill="#ffffff" stroke="transparent" points="45.5,-455.7 45.5,-474.7 95.5,-474.7 95.5,-455.7 45.5,-455.7"/>
<polygon fill="none" stroke="#000000" points="45.5,-455.7 45.5,-474.7 95.5,-474.7 95.5,-455.7 45.5,-455.7"/>
<text text-anchor="start" x="60.1105" y="-461.8" font-family="Helvetica,sans-Serif" font-size="11.00" fill="#000000">0 rows</text>
<polygon fill="#ffffff" stroke="transparent" points="95.5,-455.7 95.5,-474.7 129.5,-474.7 129.5,-455.7 95.5,-455.7"/>
<polygon fill="none" stroke="#000000" points="95.5,-455.7 95.5,-474.7 129.5,-474.7 129.5,-455.7 95.5,-455.7"/>
<text text-anchor="start" x="110.9053" y="-461.8" font-family="Helvetica,sans-Serif" font-size="11.00" fill="#000000">2 &gt;</text>
</a>
</g>
</g>
<!-- container_legs&#45;&gt;public.carriers -->
<g id="edge1" class="edge">
<title>container_legs:w&#45;&gt;public.carriers:e</title>
<path fill="none" stroke="#000000" d="M415.3362,-68.6993C338.1908,-105.4803 461.5542,-469.3417 388,-536.7 317.404,-601.3493 199.1213,-557.7049 127.9868,-521.3404"/>
<polygon fill="#000000" stroke="#000000" points="421.6735,-67.3574 430.2458,-69.2219 425.5868,-66.5287 429.5,-65.7 429.5,-65.7 429.5,-65.7 425.5868,-66.5287 428.7542,-62.1781 421.6735,-67.3574 421.6735,-67.3574"/>
<ellipse fill="none" stroke="#000000" cx="418.543" cy="-68.0203" rx="3.2" ry="3.2"/>
</g>
<!-- containers -->
<g id="node3" class="node">
<title>containers</title>
<g id="a_node3"><a xlink:href="../../tables/containers.html" xlink:title="containers" target="_top">
<polygon fill="#ffffff" stroke="transparent" points="229.5,-67.2 229.5,-128.2 328.5,-128.2 328.5,-67.2 229.5,-67.2"/>
<polygon fill="#f5f5f5" stroke="transparent" points="230,-104.7 230,-127.7 329,-127.7 329,-104.7 230,-104.7"/>
<polygon fill="none" stroke="#000000" points="230,-104.7 230,-127.7 329,-127.7 329,-104.7 230,-104.7"/>
<text text-anchor="start" x="235" y="-113.3" font-family="Helvetica,sans-Serif" font-weight="bold" font-size="11.00" fill="#000000">containers</text>
<text text-anchor="start" x="294.5219" y="-112.8" font-family="Helvetica,sans-Serif" font-size="11.00" fill="#000000">[table]</text>
<polygon fill="none" stroke="#000000" points="230,-85.7 230,-104.7 329,-104.7 329,-85.7 230,-85.7"/>
<text text-anchor="start" x="233" y="-91.8" font-family="Helvetica,sans-Serif" font-size="11.00" fill="#000000">...</text>
<polygon fill="#ffffff" stroke="transparent" points="230,-66.7 230,-85.7 260,-85.7 260,-66.7 230,-66.7"/>
<polygon fill="none" stroke="#000000" points="230,-66.7 230,-85.7 260,-85.7 260,-66.7 230,-66.7"/>
<text text-anchor="start" x="233" y="-72.8" font-family="Helvetica,sans-Serif" font-size="11.00" fill="#000000">&lt; 4</text>
<polygon fill="#ffffff" stroke="transparent" points="260,-66.7 260,-85.7 303,-85.7 303,-66.7 260,-66.7"/>
<polygon fill="none" stroke="#000000" points="260,-66.7 260,-85.7 303,-85.7 303,-66.7 260,-66.7"/>
<text text-anchor="start" x="267.6105" y="-72.8" font-family="Helvetica,sans-Serif" font-size="11.00" fill="#000000">5 rows</text>
<polygon fill="#ffffff" stroke="transparent" points="303,-66.7 303,-85.7 329,-85.7 329,-66.7 303,-66.7"/>
<polygon fill="none" stroke="#000000" points="303,-66.7 303,-85.7 329,-85.7 329,-66.7 303,-66.7"/>
<text text-anchor="start" x="310.4053" y="-72.8" font-family="Helvetica,sans-Serif" font-size="11.00" fill="#000000">1 &gt;</text>
</a>
</g>
</g>
<!-- container_legs&#45;&gt;containers -->
<g id="edge2" class="edge">
<title>container_legs:w&#45;&gt;containers:e</title>
<path fill="none" stroke="#000000" d="M415.0878,-66.7321C380.8067,-71.8982 370.2227,-94.7 329,-94.7"/>
<polygon fill="#000000" stroke="#000000" points="421.5204,-66.2715 429.7572,-69.2908 425.5102,-65.9858 429.5,-65.7 429.5,-65.7 429.5,-65.7 425.5102,-65.9858 429.2428,-62.1092 421.5204,-66.2715 421.5204,-66.2715"/>
<ellipse fill="none" stroke="#000000" cx="418.3286" cy="-66.5001" rx="3.2" ry="3.2"/>
</g>
<!-- public.users -->
<g id="node4" class="node">
<title>public.users</title>
<g id="a_node4"><a xlink:href="../../../public/tables/users.html" xlink:title="public.users" target="_top">
<polygon fill="#ffffff" stroke="transparent" points="14,-64.2 14,-125.2 123,-125.2 123,-64.2 14,-64.2"/>
<polygon fill="#f5f5f5" stroke="transparent" points="14.5,-101.7 14.5,-124.7 123.5,-124.7 123.5,-101.7 14.5,-101.7"/>
<polygon fill="none" stroke="#000000" points="14.5,-101.7 14.5,-124.7 123.5,-124.7 123.5,-101.7 14.5,-101.7"/>
<text text-anchor="start" x="19.5" y="-110.3" font-family="Helvetica,sans-Serif" font-weight="bold" font-size="11.00" fill="#000000">public.users</text>
<text text-anchor="start" x="89.0219" y="-109.8" font-family="Helvetica,sans-Serif" font-size="11.00" fill="#000000">[table]</text>
<polygon fill="none" stroke="#000000" points="14.5,-82.7 14.5,-101.7 123.5,-101.7 123.5,-82.7 14.5,-82.7"/>
<text text-anchor="start" x="17.5" y="-88.8" font-family="Helvetica,sans-Serif" font-size="11.00" fill="#000000">...</text>
<polygon fill="#ffffff" stroke="transparent" points="14.5,-63.7 14.5,-82.7 45.5,-82.7 45.5,-63.7 14.5,-63.7"/>
<polygon fill="none" stroke="#000000" points="14.5,-63.7 14.5,-82.7 45.5,-82.7 45.5,-63.7 14.5,-63.7"/>
<text text-anchor="start" x="17.5" y="-69.8" font-family="Helvetica,sans-Serif" font-size="11.00" fill="#000000"> &#160;</text>
<polygon fill="#ffffff" stroke="transparent" points="45.5,-63.7 45.5,-82.7 92.5,-82.7 92.5,-63.7 45.5,-63.7"/>
<polygon fill="none" stroke="#000000" points="45.5,-63.7 45.5,-82.7 92.5,-82.7 92.5,-63.7 45.5,-63.7"/>
<text text-anchor="start" x="57.1105" y="-69.8" font-family="Helvetica,sans-Serif" font-size="11.00" fill="#000000">0 rows</text>
<polygon fill="#ffffff" stroke="transparent" points="92.5,-63.7 92.5,-82.7 123.5,-82.7 123.5,-63.7 92.5,-63.7"/>
<polygon fill="none" stroke="#000000" points="92.5,-63.7 92.5,-82.7 123.5,-82.7 123.5,-63.7 92.5,-63.7"/>
<text text-anchor="start" x="104.9053" y="-69.8" font-family="Helvetica,sans-Serif" font-size="11.00" fill="#000000">6 &gt;</text>
</a>
</g>
</g>
<!-- container_legs&#45;&gt;public.users -->
<g id="edge3" class="edge">
<title>container_legs:w&#45;&gt;public.users:e</title>
<path fill="none" stroke="#000000" d="M415.8776,-60.251C407.0207,-55.9892 401.1946,-52.1143 388,-50.7 291.663,-40.3738 265.3388,-33.4384 170,-50.7 157.1321,-53.0298 143.7701,-56.8953 131.1308,-61.4111"/>
<polygon fill="#000000" stroke="#000000" points="422.0722,-62.7288 428.163,-69.0425 425.7861,-64.2144 429.5,-65.7 429.5,-65.7 429.5,-65.7 425.7861,-64.2144 430.837,-62.3575 422.0722,-62.7288 422.0722,-62.7288"/>
<ellipse fill="none" stroke="#000000" cx="419.1011" cy="-61.5403" rx="3.2" ry="3.2"/>
</g>
<!-- container_legs&#45;&gt;public.users -->
<g id="edge4" class="edge">
<title>container_legs:w&#45;&gt;public.users:e</title>
<path fill="none" stroke="#000000" d="M415.2915,-68.7431C406.7581,-68.8182 400.9014,-65.0829 388,-63.7 291.663,-53.3738 265.3388,-46.4384 170,-63.7 157.1321,-66.0298 143.7701,-69.8953 131.1308,-74.151"/>
<polygon fill="#000000" stroke="#000000" points="421.6774,-67.3754 430.2539,-69.2202 425.5887,-66.5377 429.5,-65.7 429.5,-65.7 429.5,-65.7 425.5887,-66.5377 428.7461,-62.1798 421.6774,-67.3754 421.6774,-67.3754"/>
<ellipse fill="none" stroke="#000000" cx="418.5484" cy="-68.0456" rx="3.2" ry="3.2"/>
</g>
<!-- containers&#45;&gt;public.users -->
<g id="edge5" class="edge">
<title>containers:w&#45;&gt;public.users:e</title>
<path fill="none" stroke="#000000" d="M215.6346,-93.594C186.9535,-91.5654 156.6261,-90.4462 131.0049,-90.2363"/>
<polygon fill="#000000" stroke="#000000" points="222.0236,-94.0858 229.7236,-98.2894 226.0118,-94.3929 230,-94.7 230,-94.7 230,-94.7 226.0118,-94.3929 230.2764,-91.1106 222.0236,-94.0858 222.0236,-94.0858"/>
<ellipse fill="none" stroke="#000000" cx="218.833" cy="-93.8401" rx="3.2" ry="3.2"/>
</g>
<!-- containers&#45;&gt;public.users -->
<g id="edge6" class="edge">
<title>containers:w&#45;&gt;public.users:e</title>
<path fill="none" stroke="#000000" d="M215.6346,-95.9904C186.9535,-98.357 156.6261,-99.6628 131.0049,-99.9076"/>
<polygon fill="#000000" stroke="#000000" points="222.0321,-95.4158 230.3221,-98.2856 226.016,-95.0579 230,-94.7 230,-94.7 230,-94.7 226.016,-95.0579 229.6779,-91.1144 222.0321,-95.4158 222.0321,-95.4158"/>
<ellipse fill="none" stroke="#000000" cx="218.8449" cy="-95.7021" rx="3.2" ry="3.2"/>
</g>
<!-- freight_bills -->
<g id="node5" class="node">
<title>freight_bills</title>
<g id="a_node5"><a xlink:href="../../tables/freight_bills.html" xlink:title="freight_bills" target="_top">
<polygon fill="#ffffff" stroke="transparent" points="178,-149.7 178,-525.7 380,-525.7 380,-149.7 178,-149.7"/>
<polygon fill="#f5f5f5" stroke="transparent" points="180,-500.7 180,-523.7 378,-523.7 378,-500.7 180,-500.7"/>
<polygon fill="none" stroke="#000000" points="180,-500.7 180,-523.7 378,-523.7 378,-500.7 180,-500.7"/>
<text text-anchor="start" x="185" y="-509.3" font-family="Helvetica,sans-Serif" font-weight="bold" font-size="11.00" fill="#000000">freight_bills</text>
<text text-anchor="start" x="343.0437" y="-508.8" font-family="Helvetica,sans-Serif" font-size="11.00" fill="#000000">[table]</text>
<polygon fill="none" stroke="#000000" points="180,-478.7 180,-500.7 286,-500.7 286,-478.7 180,-478.7"/>
<image xlink:href="../../images/primaryKeys.png" width="11px" height="12px" preserveAspectRatio="xMinYMin meet" x="185" y="-495.7"/>
<text text-anchor="start" x="200" y="-485.8" font-family="Helvetica,sans-Serif" font-size="11.00" fill="#000000">freight_bill_id</text>
<polygon fill="none" stroke="#000000" points="286,-478.7 286,-500.7 378,-500.7 378,-478.7 286,-478.7"/>
<text text-anchor="start" x="289" y="-486.4" font-family="Helvetica,sans-Serif" font-size="11.00" fill="#000000">int8[19]</text>
<polygon fill="none" stroke="#000000" points="180,-456.7 180,-478.7 286,-478.7 286,-456.7 180,-456.7"/>
<text text-anchor="start" x="200" y="-463.8" font-family="Helvetica,sans-Serif" font-size="11.00" fill="#000000">reference_type</text>
<polygon fill="none" stroke="#000000" points="286,-456.7 286,-478.7 378,-478.7 378,-456.7 286,-456.7"/>
<text text-anchor="start" x="289" y="-464.4" font-family="Helvetica,sans-Serif" font-size="11.00" fill="#000000">varchar[50]</text>
<polygon fill="none" stroke="#000000" points="180,-434.7 180,-456.7 286,-456.7 286,-434.7 180,-434.7"/>
<text text-anchor="start" x="200" y="-441.8" font-family="Helvetica,sans-Serif" font-size="11.00" fill="#000000">reference_id</text>
<polygon fill="none" stroke="#000000" points="286,-434.7 286,-456.7 378,-456.7 378,-434.7 286,-434.7"/>
<text text-anchor="start" x="289" y="-442.4" font-family="Helvetica,sans-Serif" font-size="11.00" fill="#000000">int8[19]</text>
<polygon fill="none" stroke="#000000" points="180,-412.7 180,-434.7 286,-434.7 286,-412.7 180,-412.7"/>
<image xlink:href="../../images/foreignKeys.png" width="11px" height="12px" preserveAspectRatio="xMinYMin meet" x="185" y="-429.7"/>
<text text-anchor="start" x="200" y="-419.8" font-family="Helvetica,sans-Serif" font-size="11.00" fill="#000000">carrier_id</text>
<polygon fill="none" stroke="#000000" points="286,-412.7 286,-434.7 378,-434.7 378,-412.7 286,-412.7"/>
<text text-anchor="start" x="289" y="-420.4" font-family="Helvetica,sans-Serif" font-size="11.00" fill="#000000">int8[19]</text>
<polygon fill="#ffffff" stroke="transparent" points="180,-390.7 180,-412.7 286,-412.7 286,-390.7 180,-390.7"/>
<polygon fill="none" stroke="#000000" points="180,-390.7 180,-412.7 286,-412.7 286,-390.7 180,-390.7"/>
<text text-anchor="start" x="200" y="-397.8" font-family="Helvetica,sans-Serif" font-size="11.00" fill="#000000">bill_number</text>
<polygon fill="none" stroke="#000000" points="286,-390.7 286,-412.7 378,-412.7 378,-390.7 286,-390.7"/>
<text text-anchor="start" x="289" y="-398.4" font-family="Helvetica,sans-Serif" font-size="11.00" fill="#000000">varchar[100]</text>
<polygon fill="none" stroke="#000000" points="180,-368.7 180,-390.7 286,-390.7 286,-368.7 180,-368.7"/>
<text text-anchor="start" x="200" y="-375.8" font-family="Helvetica,sans-Serif" font-size="11.00" fill="#000000">amount</text>
<polygon fill="none" stroke="#000000" points="286,-368.7 286,-390.7 378,-390.7 378,-368.7 286,-368.7"/>
<text text-anchor="start" x="289" y="-376.4" font-family="Helvetica,sans-Serif" font-size="11.00" fill="#000000">numeric[12,2]</text>
<polygon fill="none" stroke="#000000" points="180,-346.7 180,-368.7 286,-368.7 286,-346.7 180,-346.7"/>
<text text-anchor="start" x="200" y="-353.8" font-family="Helvetica,sans-Serif" font-size="11.00" fill="#000000">currency</text>
<polygon fill="none" stroke="#000000" points="286,-346.7 286,-368.7 378,-368.7 378,-346.7 286,-346.7"/>
<text text-anchor="start" x="289" y="-354.4" font-family="Helvetica,sans-Serif" font-size="11.00" fill="#000000">varchar[10]</text>
<polygon fill="none" stroke="#000000" points="180,-324.7 180,-346.7 286,-346.7 286,-324.7 180,-324.7"/>
<text text-anchor="start" x="200" y="-331.8" font-family="Helvetica,sans-Serif" font-size="11.00" fill="#000000">billing_date</text>
<polygon fill="none" stroke="#000000" points="286,-324.7 286,-346.7 378,-346.7 378,-324.7 286,-324.7"/>
<text text-anchor="start" x="289" y="-332.4" font-family="Helvetica,sans-Serif" font-size="11.00" fill="#000000">date[13]</text>
<polygon fill="none" stroke="#000000" points="180,-302.7 180,-324.7 286,-324.7 286,-302.7 180,-302.7"/>
<text text-anchor="start" x="200" y="-309.8" font-family="Helvetica,sans-Serif" font-size="11.00" fill="#000000">due_date</text>
<polygon fill="none" stroke="#000000" points="286,-302.7 286,-324.7 378,-324.7 378,-302.7 286,-302.7"/>
<text text-anchor="start" x="289" y="-310.4" font-family="Helvetica,sans-Serif" font-size="11.00" fill="#000000">date[13]</text>
<polygon fill="none" stroke="#000000" points="180,-280.7 180,-302.7 286,-302.7 286,-280.7 180,-280.7"/>
<text text-anchor="start" x="200" y="-287.8" font-family="Helvetica,sans-Serif" font-size="11.00" fill="#000000">status</text>
<polygon fill="none" stroke="#000000" points="286,-280.7 286,-302.7 378,-302.7 378,-280.7 286,-280.7"/>
<text text-anchor="start" x="289" y="-288.4" font-family="Helvetica,sans-Serif" font-size="11.00" fill="#000000">varchar[50]</text>
<polygon fill="none" stroke="#000000" points="180,-258.7 180,-280.7 286,-280.7 286,-258.7 180,-258.7"/>
<text text-anchor="start" x="200" y="-265.8" font-family="Helvetica,sans-Serif" font-size="11.00" fill="#000000">notes</text>
<polygon fill="none" stroke="#000000" points="286,-258.7 286,-280.7 378,-280.7 378,-258.7 286,-258.7"/>
<text text-anchor="start" x="289" y="-266.4" font-family="Helvetica,sans-Serif" font-size="11.00" fill="#000000">text[2147483647]</text>
<polygon fill="none" stroke="#000000" points="180,-236.7 180,-258.7 286,-258.7 286,-236.7 180,-236.7"/>
<text text-anchor="start" x="200" y="-243.8" font-family="Helvetica,sans-Serif" font-size="11.00" fill="#000000">created_at</text>
<polygon fill="none" stroke="#000000" points="286,-236.7 286,-258.7 378,-258.7 378,-236.7 286,-236.7"/>
<text text-anchor="start" x="288.6023" y="-244.4" font-family="Helvetica,sans-Serif" font-size="11.00" fill="#000000">timestamptz[35,6]</text>
<polygon fill="none" stroke="#000000" points="180,-214.7 180,-236.7 286,-236.7 286,-214.7 180,-214.7"/>
<image xlink:href="../../images/foreignKeys.png" width="11px" height="12px" preserveAspectRatio="xMinYMin meet" x="185" y="-231.7"/>
<text text-anchor="start" x="200" y="-221.8" font-family="Helvetica,sans-Serif" font-size="11.00" fill="#000000">created_by</text>
<polygon fill="none" stroke="#000000" points="286,-214.7 286,-236.7 378,-236.7 378,-214.7 286,-214.7"/>
<text text-anchor="start" x="289" y="-222.4" font-family="Helvetica,sans-Serif" font-size="11.00" fill="#000000">int8[19]</text>
<polygon fill="none" stroke="#000000" points="180,-192.7 180,-214.7 286,-214.7 286,-192.7 180,-192.7"/>
<text text-anchor="start" x="200" y="-199.8" font-family="Helvetica,sans-Serif" font-size="11.00" fill="#000000">updated_at</text>
<polygon fill="none" stroke="#000000" points="286,-192.7 286,-214.7 378,-214.7 378,-192.7 286,-192.7"/>
<text text-anchor="start" x="288.6023" y="-200.4" font-family="Helvetica,sans-Serif" font-size="11.00" fill="#000000">timestamptz[35,6]</text>
<polygon fill="none" stroke="#000000" points="180,-170.7 180,-192.7 286,-192.7 286,-170.7 180,-170.7"/>
<image xlink:href="../../images/foreignKeys.png" width="11px" height="12px" preserveAspectRatio="xMinYMin meet" x="185" y="-187.7"/>
<text text-anchor="start" x="200" y="-177.8" font-family="Helvetica,sans-Serif" font-size="11.00" fill="#000000">updated_by</text>
<polygon fill="none" stroke="#000000" points="286,-170.7 286,-192.7 378,-192.7 378,-170.7 286,-170.7"/>
<text text-anchor="start" x="289" y="-178.4" font-family="Helvetica,sans-Serif" font-size="11.00" fill="#000000">int8[19]</text>
<polygon fill="#ffffff" stroke="transparent" points="180,-151.7 180,-170.7 237,-170.7 237,-151.7 180,-151.7"/>
<polygon fill="none" stroke="#000000" points="180,-151.7 180,-170.7 237,-170.7 237,-151.7 180,-151.7"/>
<text text-anchor="start" x="183" y="-157.8" font-family="Helvetica,sans-Serif" font-size="11.00" fill="#000000">&lt; 3</text>
<polygon fill="#ffffff" stroke="transparent" points="237,-151.7 237,-170.7 286,-170.7 286,-151.7 237,-151.7"/>
<polygon fill="none" stroke="#000000" points="237,-151.7 237,-170.7 286,-170.7 286,-151.7 237,-151.7"/>
<text text-anchor="start" x="276.8862" y="-157.8" font-family="Helvetica,sans-Serif" font-size="11.00" fill="#000000"> &#160;</text>
<polygon fill="#ffffff" stroke="transparent" points="286,-151.7 286,-170.7 378,-170.7 378,-151.7 286,-151.7"/>
<polygon fill="none" stroke="#000000" points="286,-151.7 286,-170.7 378,-170.7 378,-151.7 286,-151.7"/>
<text text-anchor="start" x="359.4053" y="-157.8" font-family="Helvetica,sans-Serif" font-size="11.00" fill="#000000">0 &gt;</text>
<polygon fill="none" stroke="#000000" stroke-width="2" points="179,-150.7 179,-524.7 379,-524.7 379,-150.7 179,-150.7"/>
</a>
</g>
</g>
<!-- freight_bills&#45;&gt;public.carriers -->
<g id="edge7" class="edge">
<title>freight_bills:w&#45;&gt;public.carriers:e</title>
<path fill="none" stroke="#000000" d="M165.4504,-425.0088C144.0578,-428.7714 123.655,-440.1153 107.1335,-452.0669"/>
<polygon fill="#000000" stroke="#000000" points="172.0322,-424.4168 180.3226,-427.2855 176.0161,-424.0584 180,-423.7 180,-423.7 180,-423.7 176.0161,-424.0584 179.6774,-420.1145 172.0322,-424.4168 172.0322,-424.4168"/>
<ellipse fill="none" stroke="#000000" cx="168.845" cy="-424.7035" rx="3.2" ry="3.2"/>
</g>
<!-- freight_bills&#45;&gt;public.users -->
<g id="edge8" class="edge">
<title>freight_bills:w&#45;&gt;public.users:e</title>
<path fill="none" stroke="#000000" d="M165.4111,-224.0657C123.0711,-214.4438 95.3001,-164.4053 80.7485,-129.4617"/>
<polygon fill="#000000" stroke="#000000" points="172.0497,-224.8093 179.5992,-229.2776 176.0249,-225.2547 180,-225.7 180,-225.7 180,-225.7 176.0249,-225.2547 180.4008,-222.1224 172.0497,-224.8093 172.0497,-224.8093"/>
<ellipse fill="none" stroke="#000000" cx="168.8696" cy="-224.4531" rx="3.2" ry="3.2"/>
</g>
<!-- freight_bills&#45;&gt;public.users -->
<g id="edge9" class="edge">
<title>freight_bills:w&#45;&gt;public.users:e</title>
<path fill="none" stroke="#000000" d="M165.6209,-180.2057C135.9661,-174.0872 110.3768,-150.2792 92.9201,-129.3347"/>
<polygon fill="#000000" stroke="#000000" points="172.0429,-180.873 179.6279,-185.2807 176.0214,-181.2865 180,-181.7 180,-181.7 180,-181.7 176.0214,-181.2865 180.3721,-178.1193 172.0429,-180.873 172.0429,-180.873"/>
<ellipse fill="none" stroke="#000000" cx="168.86" cy="-180.5422" rx="3.2" ry="3.2"/>
</g>
</g>
</svg>
