<?xml version="1.0" encoding="UTF-8" standalone="no"?>
<!DOCTYPE svg PUBLIC "-//W3C//DTD SVG 1.1//EN"
 "http://www.w3.org/Graphics/SVG/1.1/DTD/svg11.dtd">
<!-- Generated by graphviz version 2.40.1 (20161225.0304)
 -->
<!-- Title: oneDegreeRelationshipsDiagram Pages: 1 -->
<svg width="722pt" height="635pt"
 viewBox="0.00 0.00 722.00 635.49" xmlns="http://www.w3.org/2000/svg" xmlns:xlink="http://www.w3.org/1999/xlink">
<g id="graph0" class="graph" transform="scale(1 1) rotate(0) translate(4 631.4945)">
<title>oneDegreeRelationshipsDiagram</title>
<polygon fill="#ffffff" stroke="transparent" points="-4,4 -4,-631.4945 718,-631.4945 718,4 -4,4"/>
<text text-anchor="middle" x="72.4936" y="-7.3" font-family="Helvetica,sans-Serif" font-size="11.00" fill="#000000">Generated by SchemaSpy</text>
<!-- inbound_receipt -->
<g id="node1" class="node">
<title>inbound_receipt</title>
<g id="a_node1"><a xlink:href="../../tables/inbound_receipt.html" xlink:title="inbound_receipt" target="_top">
<polygon fill="#ffffff" stroke="transparent" points="230,-112.9945 230,-444.9945 488,-444.9945 488,-112.9945 230,-112.9945"/>
<polygon fill="#f5f5f5" stroke="transparent" points="232,-419.9945 232,-442.9945 486,-442.9945 486,-419.9945 232,-419.9945"/>
<polygon fill="none" stroke="#000000" points="232,-419.9945 232,-442.9945 486,-442.9945 486,-419.9945 232,-419.9945"/>
<text text-anchor="start" x="237" y="-428.5945" font-family="Helvetica,sans-Serif" font-weight="bold" font-size="11.00" fill="#000000">inbound_receipt</text>
<text text-anchor="start" x="451.0437" y="-428.0945" font-family="Helvetica,sans-Serif" font-size="11.00" fill="#000000">[table]</text>
<polygon fill="none" stroke="#000000" points="232,-397.9945 232,-419.9945 377,-419.9945 377,-397.9945 232,-397.9945"/>
<image xlink:href="../../images/primaryKeys.png" width="11px" height="12px" preserveAspectRatio="xMinYMin meet" x="237" y="-414.994"/>
<text text-anchor="start" x="252" y="-405.0945" font-family="Helvetica,sans-Serif" font-size="11.00" fill="#000000">inbound_receipt_id</text>
<polygon fill="none" stroke="#000000" points="377,-397.9945 377,-419.9945 486,-419.9945 486,-397.9945 377,-397.9945"/>
<text text-anchor="start" x="380" y="-405.6945" font-family="Helvetica,sans-Serif" font-size="11.00" fill="#000000">int8[19]</text>
<polygon fill="none" stroke="#000000" points="232,-375.9945 232,-397.9945 377,-397.9945 377,-375.9945 232,-375.9945"/>
<text text-anchor="start" x="252" y="-383.0945" font-family="Helvetica,sans-Serif" font-size="11.00" fill="#000000">notes</text>
<polygon fill="none" stroke="#000000" points="377,-375.9945 377,-397.9945 486,-397.9945 486,-375.9945 377,-375.9945"/>
<text text-anchor="start" x="380" y="-383.6945" font-family="Helvetica,sans-Serif" font-size="11.00" fill="#000000">text[2147483647]</text>
<polygon fill="#ffffff" stroke="transparent" points="232,-353.9945 232,-375.9945 377,-375.9945 377,-353.9945 232,-353.9945"/>
<polygon fill="none" stroke="#000000" points="232,-353.9945 232,-375.9945 377,-375.9945 377,-353.9945 232,-353.9945"/>
<image xlink:href="../../images/foreignKeys.png" width="11px" height="12px" preserveAspectRatio="xMinYMin meet" x="237" y="-370.994"/>
<text text-anchor="start" x="252" y="-361.0945" font-family="Helvetica,sans-Serif" font-size="11.00" fill="#000000">order_id</text>
<polygon fill="none" stroke="#000000" points="377,-353.9945 377,-375.9945 486,-375.9945 486,-353.9945 377,-353.9945"/>
<text text-anchor="start" x="380" y="-361.6945" font-family="Helvetica,sans-Serif" font-size="11.00" fill="#000000">int8[19]</text>
<polygon fill="none" stroke="#000000" points="232,-331.9945 232,-353.9945 377,-353.9945 377,-331.9945 232,-331.9945"/>
<text text-anchor="start" x="252" y="-339.0945" font-family="Helvetica,sans-Serif" font-size="11.00" fill="#000000">unloaded_by</text>
<polygon fill="none" stroke="#000000" points="377,-331.9945 377,-353.9945 486,-353.9945 486,-331.9945 377,-331.9945"/>
<text text-anchor="start" x="379.5344" y="-339.6945" font-family="Helvetica,sans-Serif" font-size="11.00" fill="#000000">varchar[2147483647]</text>
<polygon fill="none" stroke="#000000" points="232,-309.9945 232,-331.9945 377,-331.9945 377,-309.9945 232,-309.9945"/>
<image xlink:href="../../images/foreignKeys.png" width="11px" height="12px" preserveAspectRatio="xMinYMin meet" x="237" y="-326.994"/>
<text text-anchor="start" x="252" y="-317.0945" font-family="Helvetica,sans-Serif" font-size="11.00" fill="#000000">received_by</text>
<polygon fill="none" stroke="#000000" points="377,-309.9945 377,-331.9945 486,-331.9945 486,-309.9945 377,-309.9945"/>
<text text-anchor="start" x="380" y="-317.6945" font-family="Helvetica,sans-Serif" font-size="11.00" fill="#000000">int8[19]</text>
<polygon fill="none" stroke="#000000" points="232,-287.9945 232,-309.9945 377,-309.9945 377,-287.9945 232,-287.9945"/>
<image xlink:href="../../images/foreignKeys.png" width="11px" height="12px" preserveAspectRatio="xMinYMin meet" x="237" y="-304.994"/>
<text text-anchor="start" x="252" y="-295.0945" font-family="Helvetica,sans-Serif" font-size="11.00" fill="#000000">warehouse_id</text>
<polygon fill="none" stroke="#000000" points="377,-287.9945 377,-309.9945 486,-309.9945 486,-287.9945 377,-287.9945"/>
<text text-anchor="start" x="380" y="-295.6945" font-family="Helvetica,sans-Serif" font-size="11.00" fill="#000000">int8[19]</text>
<polygon fill="none" stroke="#000000" points="232,-265.9945 232,-287.9945 377,-287.9945 377,-265.9945 232,-265.9945"/>
<text text-anchor="start" x="252" y="-273.0945" font-family="Helvetica,sans-Serif" font-size="11.00" fill="#000000">status</text>
<polygon fill="none" stroke="#000000" points="377,-265.9945 377,-287.9945 486,-287.9945 486,-265.9945 377,-265.9945"/>
<text text-anchor="start" x="380" y="-273.6945" font-family="Helvetica,sans-Serif" font-size="11.00" fill="#000000">varchar[50]</text>
<polygon fill="none" stroke="#000000" points="232,-243.9945 232,-265.9945 377,-265.9945 377,-243.9945 232,-243.9945"/>
<text text-anchor="start" x="252" y="-251.0945" font-family="Helvetica,sans-Serif" font-size="11.00" fill="#000000">created_at</text>
<polygon fill="none" stroke="#000000" points="377,-243.9945 377,-265.9945 486,-265.9945 486,-243.9945 377,-243.9945"/>
<text text-anchor="start" x="380" y="-251.6945" font-family="Helvetica,sans-Serif" font-size="11.00" fill="#000000">timestamptz[35,6]</text>
<polygon fill="none" stroke="#000000" points="232,-221.9945 232,-243.9945 377,-243.9945 377,-221.9945 232,-221.9945"/>
<text text-anchor="start" x="252" y="-229.0945" font-family="Helvetica,sans-Serif" font-size="11.00" fill="#000000">updated_at</text>
<polygon fill="none" stroke="#000000" points="377,-221.9945 377,-243.9945 486,-243.9945 486,-221.9945 377,-221.9945"/>
<text text-anchor="start" x="380" y="-229.6945" font-family="Helvetica,sans-Serif" font-size="11.00" fill="#000000">timestamptz[35,6]</text>
<polygon fill="none" stroke="#000000" points="232,-199.9945 232,-221.9945 377,-221.9945 377,-199.9945 232,-199.9945"/>
<image xlink:href="../../images/foreignKeys.png" width="11px" height="12px" preserveAspectRatio="xMinYMin meet" x="237" y="-216.994"/>
<text text-anchor="start" x="252" y="-207.0945" font-family="Helvetica,sans-Serif" font-size="11.00" fill="#000000">created_by</text>
<polygon fill="none" stroke="#000000" points="377,-199.9945 377,-221.9945 486,-221.9945 486,-199.9945 377,-199.9945"/>
<text text-anchor="start" x="380" y="-207.6945" font-family="Helvetica,sans-Serif" font-size="11.00" fill="#000000">int8[19]</text>
<polygon fill="none" stroke="#000000" points="232,-177.9945 232,-199.9945 377,-199.9945 377,-177.9945 232,-177.9945"/>
<image xlink:href="../../images/foreignKeys.png" width="11px" height="12px" preserveAspectRatio="xMinYMin meet" x="237" y="-194.994"/>
<text text-anchor="start" x="252" y="-185.0945" font-family="Helvetica,sans-Serif" font-size="11.00" fill="#000000">updated_by</text>
<polygon fill="none" stroke="#000000" points="377,-177.9945 377,-199.9945 486,-199.9945 486,-177.9945 377,-177.9945"/>
<text text-anchor="start" x="380" y="-185.6945" font-family="Helvetica,sans-Serif" font-size="11.00" fill="#000000">int8[19]</text>
<polygon fill="none" stroke="#000000" points="232,-155.9945 232,-177.9945 377,-177.9945 377,-155.9945 232,-155.9945"/>
<text text-anchor="start" x="252" y="-163.0945" font-family="Helvetica,sans-Serif" font-size="11.00" fill="#000000">planned_unload_at</text>
<polygon fill="none" stroke="#000000" points="377,-155.9945 377,-177.9945 486,-177.9945 486,-155.9945 377,-155.9945"/>
<text text-anchor="start" x="380" y="-163.6945" font-family="Helvetica,sans-Serif" font-size="11.00" fill="#000000">date[13]</text>
<polygon fill="none" stroke="#000000" points="232,-133.9945 232,-155.9945 377,-155.9945 377,-133.9945 232,-133.9945"/>
<image xlink:href="../../images/foreignKeys.png" width="11px" height="12px" preserveAspectRatio="xMinYMin meet" x="237" y="-150.994"/>
<text text-anchor="start" x="252" y="-141.0945" font-family="Helvetica,sans-Serif" font-size="11.00" fill="#000000">unload_method_code</text>
<polygon fill="none" stroke="#000000" points="377,-133.9945 377,-155.9945 486,-155.9945 486,-133.9945 377,-133.9945"/>
<text text-anchor="start" x="380" y="-141.6945" font-family="Helvetica,sans-Serif" font-size="11.00" fill="#000000">varchar[50]</text>
<polygon fill="#ffffff" stroke="transparent" points="232,-114.9945 232,-133.9945 296,-133.9945 296,-114.9945 232,-114.9945"/>
<polygon fill="none" stroke="#000000" points="232,-114.9945 232,-133.9945 296,-133.9945 296,-114.9945 232,-114.9945"/>
<text text-anchor="start" x="235" y="-121.0945" font-family="Helvetica,sans-Serif" font-size="11.00" fill="#000000">&lt; 6</text>
<polygon fill="#ffffff" stroke="transparent" points="296,-114.9945 296,-133.9945 377,-133.9945 377,-114.9945 296,-114.9945"/>
<polygon fill="none" stroke="#000000" points="296,-114.9945 296,-133.9945 377,-133.9945 377,-114.9945 296,-114.9945"/>
<text text-anchor="start" x="341.6105" y="-121.0945" font-family="Helvetica,sans-Serif" font-size="11.00" fill="#000000">2 rows</text>
<polygon fill="#ffffff" stroke="transparent" points="377,-114.9945 377,-133.9945 486,-133.9945 486,-114.9945 377,-114.9945"/>
<polygon fill="none" stroke="#000000" points="377,-114.9945 377,-133.9945 486,-133.9945 486,-114.9945 377,-114.9945"/>
<text text-anchor="start" x="467.4053" y="-121.0945" font-family="Helvetica,sans-Serif" font-size="11.00" fill="#000000">2 &gt;</text>
<polygon fill="none" stroke="#000000" stroke-width="2" points="231,-113.9945 231,-443.9945 487,-443.9945 487,-113.9945 231,-113.9945"/>
</a>
</g>
</g>
<!-- public.users -->
<g id="node2" class="node">
<title>public.users</title>
<g id="a_node2"><a xlink:href="../../../public/tables/users.html" xlink:title="public.users" target="_top">
<polygon fill="#ffffff" stroke="transparent" points="40,-290.4945 40,-351.4945 149,-351.4945 149,-290.4945 40,-290.4945"/>
<polygon fill="#f5f5f5" stroke="transparent" points="40.5,-327.9945 40.5,-350.9945 149.5,-350.9945 149.5,-327.9945 40.5,-327.9945"/>
<polygon fill="none" stroke="#000000" points="40.5,-327.9945 40.5,-350.9945 149.5,-350.9945 149.5,-327.9945 40.5,-327.9945"/>
<text text-anchor="start" x="45.5" y="-336.5945" font-family="Helvetica,sans-Serif" font-weight="bold" font-size="11.00" fill="#000000">public.users</text>
<text text-anchor="start" x="115.0219" y="-336.0945" font-family="Helvetica,sans-Serif" font-size="11.00" fill="#000000">[table]</text>
<polygon fill="none" stroke="#000000" points="40.5,-308.9945 40.5,-327.9945 149.5,-327.9945 149.5,-308.9945 40.5,-308.9945"/>
<text text-anchor="start" x="43.5" y="-315.0945" font-family="Helvetica,sans-Serif" font-size="11.00" fill="#000000">...</text>
<polygon fill="#ffffff" stroke="transparent" points="40.5,-289.9945 40.5,-308.9945 68.5,-308.9945 68.5,-289.9945 40.5,-289.9945"/>
<polygon fill="none" stroke="#000000" points="40.5,-289.9945 40.5,-308.9945 68.5,-308.9945 68.5,-289.9945 40.5,-289.9945"/>
<text text-anchor="start" x="43.5" y="-296.0945" font-family="Helvetica,sans-Serif" font-size="11.00" fill="#000000"> &#160;</text>
<polygon fill="#ffffff" stroke="transparent" points="68.5,-289.9945 68.5,-308.9945 114.5,-308.9945 114.5,-289.9945 68.5,-289.9945"/>
<polygon fill="none" stroke="#000000" points="68.5,-289.9945 68.5,-308.9945 114.5,-308.9945 114.5,-289.9945 68.5,-289.9945"/>
<text text-anchor="start" x="79.1105" y="-296.0945" font-family="Helvetica,sans-Serif" font-size="11.00" fill="#000000">0 rows</text>
<polygon fill="#ffffff" stroke="transparent" points="114.5,-289.9945 114.5,-308.9945 149.5,-308.9945 149.5,-289.9945 114.5,-289.9945"/>
<polygon fill="none" stroke="#000000" points="114.5,-289.9945 114.5,-308.9945 149.5,-308.9945 149.5,-289.9945 114.5,-289.9945"/>
<text text-anchor="start" x="124.7904" y="-296.0945" font-family="Helvetica,sans-Serif" font-size="11.00" fill="#000000">13 &gt;</text>
</a>
</g>
</g>
<!-- inbound_receipt&#45;&gt;public.users -->
<g id="edge1" class="edge">
<title>inbound_receipt:w&#45;&gt;public.users:e</title>
<path fill="none" stroke="#000000" d="M217.5702,-212.2279C174.8216,-219.4993 138.9346,-257.4455 117.1441,-286.4916"/>
<polygon fill="#000000" stroke="#000000" points="224.0291,-211.6759 232.3066,-214.5814 228.0145,-211.3352 232,-210.9945 232,-210.9945 232,-210.9945 228.0145,-211.3352 231.6934,-207.4075 224.0291,-211.6759 224.0291,-211.6759"/>
<ellipse fill="none" stroke="#000000" cx="220.8407" cy="-211.9484" rx="3.2" ry="3.2"/>
</g>
<!-- inbound_receipt&#45;&gt;public.users -->
<g id="edge3" class="edge">
<title>inbound_receipt:w&#45;&gt;public.users:e</title>
<path fill="none" stroke="#000000" d="M217.4266,-320.9945C197.148,-320.9945 176.0276,-320.9945 157.1313,-320.9945"/>
<polygon fill="#000000" stroke="#000000" points="224,-320.9945 232,-324.5945 228,-320.9945 232,-320.9945 232,-320.9945 232,-320.9945 228,-320.9945 232,-317.3945 224,-320.9945 224,-320.9945"/>
<ellipse fill="none" stroke="#000000" cx="220.8" cy="-320.9945" rx="3.2" ry="3.2"/>
</g>
<!-- inbound_receipt&#45;&gt;public.users -->
<g id="edge5" class="edge">
<title>inbound_receipt:w&#45;&gt;public.users:e</title>
<path fill="none" stroke="#000000" d="M217.4976,-190.2909C168.4873,-199.079 131.6365,-250.641 111.5807,-286.313"/>
<polygon fill="#000000" stroke="#000000" points="224.0318,-189.7068 232.3206,-192.5802 228.0159,-189.3507 232,-188.9945 232,-188.9945 232,-188.9945 228.0159,-189.3507 231.6794,-185.4088 224.0318,-189.7068 224.0318,-189.7068"/>
<ellipse fill="none" stroke="#000000" cx="220.8445" cy="-189.9918" rx="3.2" ry="3.2"/>
</g>
<!-- public.orders -->
<g id="node3" class="node">
<title>public.orders</title>
<g id="a_node3"><a xlink:href="../../../public/tables/orders.html" xlink:title="public.orders" target="_top">
<polygon fill="#ffffff" stroke="transparent" points="37,-432.4945 37,-493.4945 152,-493.4945 152,-432.4945 37,-432.4945"/>
<polygon fill="#f5f5f5" stroke="transparent" points="37.5,-469.9945 37.5,-492.9945 152.5,-492.9945 152.5,-469.9945 37.5,-469.9945"/>
<polygon fill="none" stroke="#000000" points="37.5,-469.9945 37.5,-492.9945 152.5,-492.9945 152.5,-469.9945 37.5,-469.9945"/>
<text text-anchor="start" x="42.5" y="-478.5945" font-family="Helvetica,sans-Serif" font-weight="bold" font-size="11.00" fill="#000000">public.orders</text>
<text text-anchor="start" x="118.0219" y="-478.0945" font-family="Helvetica,sans-Serif" font-size="11.00" fill="#000000">[table]</text>
<polygon fill="none" stroke="#000000" points="37.5,-450.9945 37.5,-469.9945 152.5,-469.9945 152.5,-450.9945 37.5,-450.9945"/>
<text text-anchor="start" x="40.5" y="-457.0945" font-family="Helvetica,sans-Serif" font-size="11.00" fill="#000000">...</text>
<polygon fill="#ffffff" stroke="transparent" points="37.5,-431.9945 37.5,-450.9945 71.5,-450.9945 71.5,-431.9945 37.5,-431.9945"/>
<polygon fill="none" stroke="#000000" points="37.5,-431.9945 37.5,-450.9945 71.5,-450.9945 71.5,-431.9945 37.5,-431.9945"/>
<text text-anchor="start" x="40.5" y="-438.0945" font-family="Helvetica,sans-Serif" font-size="11.00" fill="#000000"> &#160;</text>
<polygon fill="#ffffff" stroke="transparent" points="71.5,-431.9945 71.5,-450.9945 120.5,-450.9945 120.5,-431.9945 71.5,-431.9945"/>
<polygon fill="none" stroke="#000000" points="71.5,-431.9945 71.5,-450.9945 120.5,-450.9945 120.5,-431.9945 71.5,-431.9945"/>
<text text-anchor="start" x="85.1105" y="-438.0945" font-family="Helvetica,sans-Serif" font-size="11.00" fill="#000000">0 rows</text>
<polygon fill="#ffffff" stroke="transparent" points="120.5,-431.9945 120.5,-450.9945 152.5,-450.9945 152.5,-431.9945 120.5,-431.9945"/>
<polygon fill="none" stroke="#000000" points="120.5,-431.9945 120.5,-450.9945 152.5,-450.9945 152.5,-431.9945 120.5,-431.9945"/>
<text text-anchor="start" x="133.9053" y="-438.0945" font-family="Helvetica,sans-Serif" font-size="11.00" fill="#000000">3 &gt;</text>
</a>
</g>
</g>
<!-- inbound_receipt&#45;&gt;public.orders -->
<g id="edge2" class="edge">
<title>inbound_receipt:w&#45;&gt;public.orders:e</title>
<path fill="none" stroke="#000000" d="M221.5418,-365.6195C180.7723,-370.4569 144.5631,-402.4328 121.3364,-428.4433"/>
<polygon fill="#000000" stroke="#000000" points="230.9628,-361.0493 231.4401,-369.0351 229.8429,-369.1305 229.3656,-361.1448 230.9628,-361.0493"/>
<polyline fill="none" stroke="#000000" points="232,-364.9945 228.0071,-365.2331 "/>
<ellipse fill="none" stroke="#000000" cx="224.8128" cy="-365.424" rx="3.2" ry="3.2"/>
</g>
<!-- public.unload_methods -->
<g id="node4" class="node">
<title>public.unload_methods</title>
<g id="a_node4"><a xlink:href="../../../public/tables/unload_methods.html" xlink:title="public.unload_methods" target="_top">
<polygon fill="#ffffff" stroke="transparent" points="8,-127.4945 8,-188.4945 181,-188.4945 181,-127.4945 8,-127.4945"/>
<polygon fill="#f5f5f5" stroke="transparent" points="8.5,-164.9945 8.5,-187.9945 181.5,-187.9945 181.5,-164.9945 8.5,-164.9945"/>
<polygon fill="none" stroke="#000000" points="8.5,-164.9945 8.5,-187.9945 181.5,-187.9945 181.5,-164.9945 8.5,-164.9945"/>
<text text-anchor="start" x="13.5" y="-173.5945" font-family="Helvetica,sans-Serif" font-weight="bold" font-size="11.00" fill="#000000">public.unload_methods</text>
<text text-anchor="start" x="147.0219" y="-173.0945" font-family="Helvetica,sans-Serif" font-size="11.00" fill="#000000">[table]</text>
<polygon fill="none" stroke="#000000" points="8.5,-145.9945 8.5,-164.9945 181.5,-164.9945 181.5,-145.9945 8.5,-145.9945"/>
<text text-anchor="start" x="11.5" y="-152.0945" font-family="Helvetica,sans-Serif" font-size="11.00" fill="#000000">...</text>
<polygon fill="#ffffff" stroke="transparent" points="8.5,-126.9945 8.5,-145.9945 71.5,-145.9945 71.5,-126.9945 8.5,-126.9945"/>
<polygon fill="none" stroke="#000000" points="8.5,-126.9945 8.5,-145.9945 71.5,-145.9945 71.5,-126.9945 8.5,-126.9945"/>
<text text-anchor="start" x="11.5" y="-133.0945" font-family="Helvetica,sans-Serif" font-size="11.00" fill="#000000"> &#160;</text>
<polygon fill="#ffffff" stroke="transparent" points="71.5,-126.9945 71.5,-145.9945 134.5,-145.9945 134.5,-126.9945 71.5,-126.9945"/>
<polygon fill="none" stroke="#000000" points="71.5,-126.9945 71.5,-145.9945 134.5,-145.9945 134.5,-126.9945 71.5,-126.9945"/>
<text text-anchor="start" x="99.1105" y="-133.0945" font-family="Helvetica,sans-Serif" font-size="11.00" fill="#000000">0 rows</text>
<polygon fill="#ffffff" stroke="transparent" points="134.5,-126.9945 134.5,-145.9945 181.5,-145.9945 181.5,-126.9945 134.5,-126.9945"/>
<polygon fill="none" stroke="#000000" points="134.5,-126.9945 134.5,-145.9945 181.5,-145.9945 181.5,-126.9945 134.5,-126.9945"/>
<text text-anchor="start" x="162.9053" y="-133.0945" font-family="Helvetica,sans-Serif" font-size="11.00" fill="#000000">1 &gt;</text>
</a>
</g>
</g>
<!-- inbound_receipt&#45;&gt;public.unload_methods -->
<g id="edge4" class="edge">
<title>inbound_receipt:w&#45;&gt;public.unload_methods:e</title>
<path fill="none" stroke="#000000" d="M217.433,-145.2187C208.0471,-145.4964 198.492,-146.0166 189.0661,-146.694"/>
<polygon fill="#000000" stroke="#000000" points="224.0009,-145.1177 232.0554,-148.594 228.0005,-145.0561 232,-144.9945 232,-144.9945 232,-144.9945 228.0005,-145.0561 231.9446,-141.3949 224.0009,-145.1177 224.0009,-145.1177"/>
<ellipse fill="none" stroke="#000000" cx="220.8013" cy="-145.167" rx="3.2" ry="3.2"/>
</g>
<!-- public.warehouses -->
<g id="node5" class="node">
<title>public.warehouses</title>
<g id="a_node5"><a xlink:href="../../../public/tables/warehouses.html" xlink:title="public.warehouses" target="_top">
<polygon fill="#ffffff" stroke="transparent" points="21,-45.4945 21,-106.4945 168,-106.4945 168,-45.4945 21,-45.4945"/>
<polygon fill="#f5f5f5" stroke="transparent" points="21.5,-82.9945 21.5,-105.9945 168.5,-105.9945 168.5,-82.9945 21.5,-82.9945"/>
<polygon fill="none" stroke="#000000" points="21.5,-82.9945 21.5,-105.9945 168.5,-105.9945 168.5,-82.9945 21.5,-82.9945"/>
<text text-anchor="start" x="26.5" y="-91.5945" font-family="Helvetica,sans-Serif" font-weight="bold" font-size="11.00" fill="#000000">public.warehouses</text>
<text text-anchor="start" x="134.0219" y="-91.0945" font-family="Helvetica,sans-Serif" font-size="11.00" fill="#000000">[table]</text>
<polygon fill="none" stroke="#000000" points="21.5,-63.9945 21.5,-82.9945 168.5,-82.9945 168.5,-63.9945 21.5,-63.9945"/>
<text text-anchor="start" x="24.5" y="-70.0945" font-family="Helvetica,sans-Serif" font-size="11.00" fill="#000000">...</text>
<polygon fill="#ffffff" stroke="transparent" points="21.5,-44.9945 21.5,-63.9945 71.5,-63.9945 71.5,-44.9945 21.5,-44.9945"/>
<polygon fill="none" stroke="#000000" points="21.5,-44.9945 21.5,-63.9945 71.5,-63.9945 71.5,-44.9945 21.5,-44.9945"/>
<text text-anchor="start" x="24.5" y="-51.0945" font-family="Helvetica,sans-Serif" font-size="11.00" fill="#000000"> &#160;</text>
<polygon fill="#ffffff" stroke="transparent" points="71.5,-44.9945 71.5,-63.9945 128.5,-63.9945 128.5,-44.9945 71.5,-44.9945"/>
<polygon fill="none" stroke="#000000" points="71.5,-44.9945 71.5,-63.9945 128.5,-63.9945 128.5,-44.9945 71.5,-44.9945"/>
<text text-anchor="start" x="93.1105" y="-51.0945" font-family="Helvetica,sans-Serif" font-size="11.00" fill="#000000">0 rows</text>
<polygon fill="#ffffff" stroke="transparent" points="128.5,-44.9945 128.5,-63.9945 168.5,-63.9945 168.5,-44.9945 128.5,-44.9945"/>
<polygon fill="none" stroke="#000000" points="128.5,-44.9945 128.5,-63.9945 168.5,-63.9945 168.5,-44.9945 128.5,-44.9945"/>
<text text-anchor="start" x="149.9053" y="-51.0945" font-family="Helvetica,sans-Serif" font-size="11.00" fill="#000000">5 &gt;</text>
</a>
</g>
</g>
<!-- inbound_receipt&#45;&gt;public.warehouses -->
<g id="edge6" class="edge">
<title>inbound_receipt:w&#45;&gt;public.warehouses:e</title>
<path fill="none" stroke="#000000" d="M217.3268,-297.3918C160.9749,-283.0816 238.6903,-176.3823 189,-116.9945 185.2128,-112.4682 180.8318,-108.4276 176.0728,-104.8226"/>
<polygon fill="#000000" stroke="#000000" points="224.0473,-298.1258 231.6091,-302.5732 228.0236,-298.5601 232,-298.9945 232,-298.9945 232,-298.9945 228.0236,-298.5601 232.3909,-295.4157 224.0473,-298.1258 224.0473,-298.1258"/>
<ellipse fill="none" stroke="#000000" cx="220.8662" cy="-297.7784" rx="3.2" ry="3.2"/>
</g>
<!-- inventory_lots -->
<g id="node6" class="node">
<title>inventory_lots</title>
<g id="a_node6"><a xlink:href="../../tables/inventory_lots.html" xlink:title="inventory_lots" target="_top">
<polygon fill="#ffffff" stroke="transparent" points="546,-386.4945 546,-623.4945 697,-623.4945 697,-386.4945 546,-386.4945"/>
<polygon fill="#f5f5f5" stroke="transparent" points="546.5,-599.9945 546.5,-622.9945 697.5,-622.9945 697.5,-599.9945 546.5,-599.9945"/>
<polygon fill="none" stroke="#000000" points="546.5,-599.9945 546.5,-622.9945 697.5,-622.9945 697.5,-599.9945 546.5,-599.9945"/>
<text text-anchor="start" x="551.5" y="-608.5945" font-family="Helvetica,sans-Serif" font-weight="bold" font-size="11.00" fill="#000000">inventory_lots</text>
<text text-anchor="start" x="662.5437" y="-608.0945" font-family="Helvetica,sans-Serif" font-size="11.00" fill="#000000">[table]</text>
<polygon fill="none" stroke="#000000" points="546.5,-577.9945 546.5,-599.9945 697.5,-599.9945 697.5,-577.9945 546.5,-577.9945"/>
<image xlink:href="../../images/primaryKeys.png" width="11px" height="12px" preserveAspectRatio="xMinYMin meet" x="551.5" y="-594.994"/>
<text text-anchor="start" x="566.5" y="-585.0945" font-family="Helvetica,sans-Serif" font-size="11.00" fill="#000000">inventory_lot_id</text>
<polygon fill="none" stroke="#000000" points="546.5,-555.9945 546.5,-577.9945 697.5,-577.9945 697.5,-555.9945 546.5,-555.9945"/>
<image xlink:href="../../images/foreignKeys.png" width="11px" height="12px" preserveAspectRatio="xMinYMin meet" x="551.5" y="-572.994"/>
<text text-anchor="start" x="566.5" y="-563.0945" font-family="Helvetica,sans-Serif" font-size="11.00" fill="#000000">warehouse_id</text>
<polygon fill="#ffffff" stroke="transparent" points="546.5,-533.9945 546.5,-555.9945 697.5,-555.9945 697.5,-533.9945 546.5,-533.9945"/>
<polygon fill="none" stroke="#000000" points="546.5,-533.9945 546.5,-555.9945 697.5,-555.9945 697.5,-533.9945 546.5,-533.9945"/>
<text text-anchor="start" x="566.5" y="-541.0945" font-family="Helvetica,sans-Serif" font-size="11.00" fill="#000000">status</text>
<polygon fill="none" stroke="#000000" points="546.5,-511.9945 546.5,-533.9945 697.5,-533.9945 697.5,-511.9945 546.5,-511.9945"/>
<image xlink:href="../../images/foreignKeys.png" width="11px" height="12px" preserveAspectRatio="xMinYMin meet" x="551.5" y="-528.994"/>
<text text-anchor="start" x="566.5" y="-519.0945" font-family="Helvetica,sans-Serif" font-size="11.00" fill="#000000">order_id</text>
<polygon fill="#ffffff" stroke="transparent" points="546.5,-489.9945 546.5,-511.9945 697.5,-511.9945 697.5,-489.9945 546.5,-489.9945"/>
<polygon fill="none" stroke="#000000" points="546.5,-489.9945 546.5,-511.9945 697.5,-511.9945 697.5,-489.9945 546.5,-489.9945"/>
<image xlink:href="../../images/foreignKeys.png" width="11px" height="12px" preserveAspectRatio="xMinYMin meet" x="551.5" y="-506.994"/>
<text text-anchor="start" x="566.5" y="-497.0945" font-family="Helvetica,sans-Serif" font-size="11.00" fill="#000000">order_detail_id</text>
<polygon fill="none" stroke="#000000" points="546.5,-467.9945 546.5,-489.9945 697.5,-489.9945 697.5,-467.9945 546.5,-467.9945"/>
<image xlink:href="../../images/foreignKeys.png" width="11px" height="12px" preserveAspectRatio="xMinYMin meet" x="551.5" y="-484.994"/>
<text text-anchor="start" x="566.5" y="-475.0945" font-family="Helvetica,sans-Serif" font-size="11.00" fill="#000000">created_by</text>
<polygon fill="none" stroke="#000000" points="546.5,-445.9945 546.5,-467.9945 697.5,-467.9945 697.5,-445.9945 546.5,-445.9945"/>
<image xlink:href="../../images/foreignKeys.png" width="11px" height="12px" preserveAspectRatio="xMinYMin meet" x="551.5" y="-462.994"/>
<text text-anchor="start" x="566.5" y="-453.0945" font-family="Helvetica,sans-Serif" font-size="11.00" fill="#000000">updated_by</text>
<polygon fill="#ffffff" stroke="transparent" points="546.5,-423.9945 546.5,-445.9945 697.5,-445.9945 697.5,-423.9945 546.5,-423.9945"/>
<polygon fill="none" stroke="#000000" points="546.5,-423.9945 546.5,-445.9945 697.5,-445.9945 697.5,-423.9945 546.5,-423.9945"/>
<image xlink:href="../../images/foreignKeys.png" width="11px" height="12px" preserveAspectRatio="xMinYMin meet" x="551.5" y="-440.994"/>
<text text-anchor="start" x="566.5" y="-431.0945" font-family="Helvetica,sans-Serif" font-size="11.00" fill="#000000">inbound_receipt_id</text>
<polygon fill="none" stroke="#000000" points="546.5,-404.9945 546.5,-423.9945 697.5,-423.9945 697.5,-404.9945 546.5,-404.9945"/>
<text text-anchor="start" x="549.5" y="-411.0945" font-family="Helvetica,sans-Serif" font-size="11.00" fill="#000000">...</text>
<polygon fill="#ffffff" stroke="transparent" points="546.5,-385.9945 546.5,-404.9945 607.5,-404.9945 607.5,-385.9945 546.5,-385.9945"/>
<polygon fill="none" stroke="#000000" points="546.5,-385.9945 546.5,-404.9945 607.5,-404.9945 607.5,-385.9945 546.5,-385.9945"/>
<text text-anchor="start" x="549.5" y="-392.0945" font-family="Helvetica,sans-Serif" font-size="11.00" fill="#000000">&lt; 6</text>
<polygon fill="#ffffff" stroke="transparent" points="607.5,-385.9945 607.5,-404.9945 665.5,-404.9945 665.5,-385.9945 607.5,-385.9945"/>
<polygon fill="none" stroke="#000000" points="607.5,-385.9945 607.5,-404.9945 665.5,-404.9945 665.5,-385.9945 607.5,-385.9945"/>
<text text-anchor="start" x="630.1105" y="-392.0945" font-family="Helvetica,sans-Serif" font-size="11.00" fill="#000000">5 rows</text>
<polygon fill="#ffffff" stroke="transparent" points="665.5,-385.9945 665.5,-404.9945 697.5,-404.9945 697.5,-385.9945 665.5,-385.9945"/>
<polygon fill="none" stroke="#000000" points="665.5,-385.9945 665.5,-404.9945 697.5,-404.9945 697.5,-385.9945 665.5,-385.9945"/>
<text text-anchor="start" x="688.3862" y="-392.0945" font-family="Helvetica,sans-Serif" font-size="11.00" fill="#000000"> &#160;</text>
</a>
</g>
</g>
<!-- inventory_lots&#45;&gt;inbound_receipt -->
<g id="edge8" class="edge">
<title>inventory_lots:w&#45;&gt;inbound_receipt:e</title>
<path fill="none" stroke="#000000" d="M532.069,-432.4064C515.4237,-425.83 509.5506,-408.9945 486,-408.9945"/>
<polygon fill="#000000" stroke="#000000" points="538.6256,-433.5822 545.8645,-438.5379 542.5628,-434.2884 546.5,-434.9945 546.5,-434.9945 546.5,-434.9945 542.5628,-434.2884 547.1355,-431.451 538.6256,-433.5822 538.6256,-433.5822"/>
<ellipse fill="none" stroke="#000000" cx="535.4759" cy="-433.0174" rx="3.2" ry="3.2"/>
</g>
<!-- inventory_lots&#45;&gt;public.users -->
<g id="edge7" class="edge">
<title>inventory_lots:w&#45;&gt;public.users:e</title>
<path fill="none" stroke="#000000" d="M531.6585,-479.3902C451.1471,-483.2153 280.5671,-512.7615 222,-478.9945 196.6404,-464.3733 206.4458,-445.5005 189,-421.9945 171.5403,-398.4696 149.2598,-374.4286 130.7186,-355.7062"/>
<polygon fill="#000000" stroke="#000000" points="538.5028,-479.2077 546.596,-482.5932 542.5014,-479.1011 546.5,-478.9945 546.5,-478.9945 546.5,-478.9945 542.5014,-479.1011 546.404,-475.3957 538.5028,-479.2077 538.5028,-479.2077"/>
<ellipse fill="none" stroke="#000000" cx="535.304" cy="-479.293" rx="3.2" ry="3.2"/>
</g>
<!-- inventory_lots&#45;&gt;public.users -->
<g id="edge10" class="edge">
<title>inventory_lots:w&#45;&gt;public.users:e</title>
<path fill="none" stroke="#000000" d="M531.6992,-457.298C451.581,-460.2304 284.0413,-482.8506 222,-455.9945 220.419,-455.3101 164.0619,-395.3054 126.8115,-355.534"/>
<polygon fill="#000000" stroke="#000000" points="538.5017,-457.1585 546.5738,-460.5937 542.5008,-457.0765 546.5,-456.9945 546.5,-456.9945 546.5,-456.9945 542.5008,-457.0765 546.4262,-453.3952 538.5017,-457.1585 538.5017,-457.1585"/>
<ellipse fill="none" stroke="#000000" cx="535.3024" cy="-457.2241" rx="3.2" ry="3.2"/>
</g>
<!-- inventory_lots&#45;&gt;public.orders -->
<g id="edge9" class="edge">
<title>inventory_lots:w&#45;&gt;public.orders:e</title>
<path fill="none" stroke="#000000" d="M532.0551,-523.028C399.3458,-523.6418 359.005,-532.1739 222,-505.9945 201.464,-502.0704 179.7033,-495.6343 160.0842,-488.9224"/>
<polygon fill="#000000" stroke="#000000" points="538.5,-523.0131 546.5084,-526.5945 542.5,-523.0038 546.5,-522.9945 546.5,-522.9945 546.5,-522.9945 542.5,-523.0038 546.4916,-519.3945 538.5,-523.0131 538.5,-523.0131"/>
<ellipse fill="none" stroke="#000000" cx="535.3" cy="-523.0205" rx="3.2" ry="3.2"/>
</g>
<!-- inventory_lots&#45;&gt;public.warehouses -->
<g id="edge11" class="edge">
<title>inventory_lots:w&#45;&gt;public.warehouses:e</title>
<path fill="none" stroke="#000000" d="M531.9611,-563.827C455.7219,-526.5219 566.892,-171.02 496,-102.9945 473.5051,-81.4091 287.179,-76.7984 176.426,-75.985"/>
<polygon fill="#000000" stroke="#000000" points="538.6833,-565.2915 545.7337,-570.512 542.5917,-566.143 546.5,-566.9945 546.5,-566.9945 546.5,-566.9945 542.5917,-566.143 547.2663,-563.477 538.6833,-565.2915 538.6833,-565.2915"/>
<ellipse fill="none" stroke="#000000" cx="535.5567" cy="-564.6103" rx="3.2" ry="3.2"/>
</g>
<!-- putaway_tasks -->
<g id="node7" class="node">
<title>putaway_tasks</title>
<g id="a_node7"><a xlink:href="../../tables/putaway_tasks.html" xlink:title="putaway_tasks" target="_top">
<polygon fill="#ffffff" stroke="transparent" points="537,-126.4945 537,-253.4945 706,-253.4945 706,-126.4945 537,-126.4945"/>
<polygon fill="#f5f5f5" stroke="transparent" points="537.5,-229.9945 537.5,-252.9945 706.5,-252.9945 706.5,-229.9945 537.5,-229.9945"/>
<polygon fill="none" stroke="#000000" points="537.5,-229.9945 537.5,-252.9945 706.5,-252.9945 706.5,-229.9945 537.5,-229.9945"/>
<text text-anchor="start" x="542.5" y="-238.5945" font-family="Helvetica,sans-Serif" font-weight="bold" font-size="11.00" fill="#000000">putaway_tasks</text>
<text text-anchor="start" x="671.5437" y="-238.0945" font-family="Helvetica,sans-Serif" font-size="11.00" fill="#000000">[table]</text>
<polygon fill="none" stroke="#000000" points="537.5,-207.9945 537.5,-229.9945 706.5,-229.9945 706.5,-207.9945 537.5,-207.9945"/>
<image xlink:href="../../images/primaryKeys.png" width="11px" height="12px" preserveAspectRatio="xMinYMin meet" x="542.5" y="-224.994"/>
<text text-anchor="start" x="557.5" y="-215.0945" font-family="Helvetica,sans-Serif" font-size="11.00" fill="#000000">putaway_task_id</text>
<polygon fill="none" stroke="#000000" points="537.5,-185.9945 537.5,-207.9945 706.5,-207.9945 706.5,-185.9945 537.5,-185.9945"/>
<image xlink:href="../../images/foreignKeys.png" width="11px" height="12px" preserveAspectRatio="xMinYMin meet" x="542.5" y="-202.994"/>
<text text-anchor="start" x="557.5" y="-193.0945" font-family="Helvetica,sans-Serif" font-size="11.00" fill="#000000">inbound_receipt_detail_id</text>
<polygon fill="none" stroke="#000000" points="537.5,-163.9945 537.5,-185.9945 706.5,-185.9945 706.5,-163.9945 537.5,-163.9945"/>
<image xlink:href="../../images/foreignKeys.png" width="11px" height="12px" preserveAspectRatio="xMinYMin meet" x="542.5" y="-180.994"/>
<text text-anchor="start" x="557.5" y="-171.0945" font-family="Helvetica,sans-Serif" font-size="11.00" fill="#000000">warehouse_id</text>
<polygon fill="none" stroke="#000000" points="537.5,-144.9945 537.5,-163.9945 706.5,-163.9945 706.5,-144.9945 537.5,-144.9945"/>
<text text-anchor="start" x="540.5" y="-151.0945" font-family="Helvetica,sans-Serif" font-size="11.00" fill="#000000">...</text>
<polygon fill="#ffffff" stroke="transparent" points="537.5,-125.9945 537.5,-144.9945 620.5,-144.9945 620.5,-125.9945 537.5,-125.9945"/>
<polygon fill="none" stroke="#000000" points="537.5,-125.9945 537.5,-144.9945 620.5,-144.9945 620.5,-125.9945 537.5,-125.9945"/>
<text text-anchor="start" x="540.5" y="-132.0945" font-family="Helvetica,sans-Serif" font-size="11.00" fill="#000000">&lt; 2</text>
<polygon fill="#ffffff" stroke="transparent" points="620.5,-125.9945 620.5,-144.9945 663.5,-144.9945 663.5,-125.9945 620.5,-125.9945"/>
<polygon fill="none" stroke="#000000" points="620.5,-125.9945 620.5,-144.9945 663.5,-144.9945 663.5,-125.9945 620.5,-125.9945"/>
<text text-anchor="start" x="654.3862" y="-132.0945" font-family="Helvetica,sans-Serif" font-size="11.00" fill="#000000"> &#160;</text>
<polygon fill="#ffffff" stroke="transparent" points="663.5,-125.9945 663.5,-144.9945 706.5,-144.9945 706.5,-125.9945 663.5,-125.9945"/>
<polygon fill="none" stroke="#000000" points="663.5,-125.9945 663.5,-144.9945 706.5,-144.9945 706.5,-125.9945 663.5,-125.9945"/>
<text text-anchor="start" x="697.3862" y="-132.0945" font-family="Helvetica,sans-Serif" font-size="11.00" fill="#000000"> &#160;</text>
</a>
</g>
</g>
<!-- putaway_tasks&#45;&gt;inbound_receipt -->
<g id="edge12" class="edge">
<title>putaway_tasks:w&#45;&gt;inbound_receipt:e</title>
<path fill="none" stroke="#000000" d="M522.8251,-199.0927C456.406,-221.1104 577.2811,-408.9945 486,-408.9945"/>
<polygon fill="#000000" stroke="#000000" points="529.5805,-198.1268 538.0096,-200.5582 533.5403,-197.5607 537.5,-196.9945 537.5,-196.9945 537.5,-196.9945 533.5403,-197.5607 536.9904,-193.4307 529.5805,-198.1268 529.5805,-198.1268"/>
<ellipse fill="none" stroke="#000000" cx="526.4128" cy="-198.5798" rx="3.2" ry="3.2"/>
</g>
<!-- putaway_tasks&#45;&gt;public.warehouses -->
<g id="edge13" class="edge">
<title>putaway_tasks:w&#45;&gt;public.warehouses:e</title>
<path fill="none" stroke="#000000" d="M523.3489,-171.5423C501.1789,-157.1014 529.6036,-101.2572 496,-78.9945 400.8435,-15.9524 263.1466,-32.3324 176.2645,-52.3237"/>
<polygon fill="#000000" stroke="#000000" points="529.7279,-173.0984 536.6468,-178.4919 533.614,-174.0464 537.5,-174.9945 537.5,-174.9945 537.5,-174.9945 533.614,-174.0464 538.3532,-171.497 529.7279,-173.0984 529.7279,-173.0984"/>
<ellipse fill="none" stroke="#000000" cx="526.6191" cy="-172.34" rx="3.2" ry="3.2"/>
</g>
</g>
</svg>
