<?xml version="1.0" encoding="UTF-8" standalone="no"?>
<!DOCTYPE svg PUBLIC "-//W3C//DTD SVG 1.1//EN"
 "http://www.w3.org/Graphics/SVG/1.1/DTD/svg11.dtd">
<!-- Generated by graphviz version 2.40.1 (20161225.0304)
 -->
<!-- Title: twoDegreesRelationshipsDiagram Pages: 1 -->
<svg width="741pt" height="849pt"
 viewBox="0.00 0.00 741.00 849.46" xmlns="http://www.w3.org/2000/svg" xmlns:xlink="http://www.w3.org/1999/xlink">
<g id="graph0" class="graph" transform="scale(1 1) rotate(0) translate(4 845.4649)">
<title>twoDegreesRelationshipsDiagram</title>
<polygon fill="#ffffff" stroke="transparent" points="-4,4 -4,-845.4649 737,-845.4649 737,4 -4,4"/>
<text text-anchor="middle" x="72.4936" y="-7.3" font-family="Helvetica,sans-Serif" font-size="11.00" fill="#000000">Generated by SchemaSpy</text>
<!-- inbound_receipt -->
<g id="node1" class="node">
<title>inbound_receipt</title>
<g id="a_node1"><a xlink:href="../../tables/inbound_receipt.html" xlink:title="inbound_receipt" target="_top">
<polygon fill="#ffffff" stroke="transparent" points="230,-375.4338 230,-707.4338 488,-707.4338 488,-375.4338 230,-375.4338"/>
<polygon fill="#f5f5f5" stroke="transparent" points="232,-682.4338 232,-705.4338 486,-705.4338 486,-682.4338 232,-682.4338"/>
<polygon fill="none" stroke="#000000" points="232,-682.4338 232,-705.4338 486,-705.4338 486,-682.4338 232,-682.4338"/>
<text text-anchor="start" x="237" y="-691.0338" font-family="Helvetica,sans-Serif" font-weight="bold" font-size="11.00" fill="#000000">inbound_receipt</text>
<text text-anchor="start" x="451.0437" y="-690.5338" font-family="Helvetica,sans-Serif" font-size="11.00" fill="#000000">[table]</text>
<polygon fill="none" stroke="#000000" points="232,-660.4338 232,-682.4338 377,-682.4338 377,-660.4338 232,-660.4338"/>
<image xlink:href="../../images/primaryKeys.png" width="11px" height="12px" preserveAspectRatio="xMinYMin meet" x="237" y="-677.434"/>
<text text-anchor="start" x="252" y="-667.5338" font-family="Helvetica,sans-Serif" font-size="11.00" fill="#000000">inbound_receipt_id</text>
<polygon fill="none" stroke="#000000" points="377,-660.4338 377,-682.4338 486,-682.4338 486,-660.4338 377,-660.4338"/>
<text text-anchor="start" x="380" y="-668.1338" font-family="Helvetica,sans-Serif" font-size="11.00" fill="#000000">int8[19]</text>
<polygon fill="none" stroke="#000000" points="232,-638.4338 232,-660.4338 377,-660.4338 377,-638.4338 232,-638.4338"/>
<text text-anchor="start" x="252" y="-645.5338" font-family="Helvetica,sans-Serif" font-size="11.00" fill="#000000">notes</text>
<polygon fill="none" stroke="#000000" points="377,-638.4338 377,-660.4338 486,-660.4338 486,-638.4338 377,-638.4338"/>
<text text-anchor="start" x="380" y="-646.1338" font-family="Helvetica,sans-Serif" font-size="11.00" fill="#000000">text[2147483647]</text>
<polygon fill="#ffffff" stroke="transparent" points="232,-616.4338 232,-638.4338 377,-638.4338 377,-616.4338 232,-616.4338"/>
<polygon fill="none" stroke="#000000" points="232,-616.4338 232,-638.4338 377,-638.4338 377,-616.4338 232,-616.4338"/>
<image xlink:href="../../images/foreignKeys.png" width="11px" height="12px" preserveAspectRatio="xMinYMin meet" x="237" y="-633.434"/>
<text text-anchor="start" x="252" y="-623.5338" font-family="Helvetica,sans-Serif" font-size="11.00" fill="#000000">order_id</text>
<polygon fill="none" stroke="#000000" points="377,-616.4338 377,-638.4338 486,-638.4338 486,-616.4338 377,-616.4338"/>
<text text-anchor="start" x="380" y="-624.1338" font-family="Helvetica,sans-Serif" font-size="11.00" fill="#000000">int8[19]</text>
<polygon fill="none" stroke="#000000" points="232,-594.4338 232,-616.4338 377,-616.4338 377,-594.4338 232,-594.4338"/>
<text text-anchor="start" x="252" y="-601.5338" font-family="Helvetica,sans-Serif" font-size="11.00" fill="#000000">unloaded_by</text>
<polygon fill="none" stroke="#000000" points="377,-594.4338 377,-616.4338 486,-616.4338 486,-594.4338 377,-594.4338"/>
<text text-anchor="start" x="379.5344" y="-602.1338" font-family="Helvetica,sans-Serif" font-size="11.00" fill="#000000">varchar[2147483647]</text>
<polygon fill="none" stroke="#000000" points="232,-572.4338 232,-594.4338 377,-594.4338 377,-572.4338 232,-572.4338"/>
<image xlink:href="../../images/foreignKeys.png" width="11px" height="12px" preserveAspectRatio="xMinYMin meet" x="237" y="-589.434"/>
<text text-anchor="start" x="252" y="-579.5338" font-family="Helvetica,sans-Serif" font-size="11.00" fill="#000000">received_by</text>
<polygon fill="none" stroke="#000000" points="377,-572.4338 377,-594.4338 486,-594.4338 486,-572.4338 377,-572.4338"/>
<text text-anchor="start" x="380" y="-580.1338" font-family="Helvetica,sans-Serif" font-size="11.00" fill="#000000">int8[19]</text>
<polygon fill="none" stroke="#000000" points="232,-550.4338 232,-572.4338 377,-572.4338 377,-550.4338 232,-550.4338"/>
<image xlink:href="../../images/foreignKeys.png" width="11px" height="12px" preserveAspectRatio="xMinYMin meet" x="237" y="-567.434"/>
<text text-anchor="start" x="252" y="-557.5338" font-family="Helvetica,sans-Serif" font-size="11.00" fill="#000000">warehouse_id</text>
<polygon fill="none" stroke="#000000" points="377,-550.4338 377,-572.4338 486,-572.4338 486,-550.4338 377,-550.4338"/>
<text text-anchor="start" x="380" y="-558.1338" font-family="Helvetica,sans-Serif" font-size="11.00" fill="#000000">int8[19]</text>
<polygon fill="none" stroke="#000000" points="232,-528.4338 232,-550.4338 377,-550.4338 377,-528.4338 232,-528.4338"/>
<text text-anchor="start" x="252" y="-535.5338" font-family="Helvetica,sans-Serif" font-size="11.00" fill="#000000">status</text>
<polygon fill="none" stroke="#000000" points="377,-528.4338 377,-550.4338 486,-550.4338 486,-528.4338 377,-528.4338"/>
<text text-anchor="start" x="380" y="-536.1338" font-family="Helvetica,sans-Serif" font-size="11.00" fill="#000000">varchar[50]</text>
<polygon fill="none" stroke="#000000" points="232,-506.4338 232,-528.4338 377,-528.4338 377,-506.4338 232,-506.4338"/>
<text text-anchor="start" x="252" y="-513.5338" font-family="Helvetica,sans-Serif" font-size="11.00" fill="#000000">created_at</text>
<polygon fill="none" stroke="#000000" points="377,-506.4338 377,-528.4338 486,-528.4338 486,-506.4338 377,-506.4338"/>
<text text-anchor="start" x="380" y="-514.1338" font-family="Helvetica,sans-Serif" font-size="11.00" fill="#000000">timestamptz[35,6]</text>
<polygon fill="none" stroke="#000000" points="232,-484.4338 232,-506.4338 377,-506.4338 377,-484.4338 232,-484.4338"/>
<text text-anchor="start" x="252" y="-491.5338" font-family="Helvetica,sans-Serif" font-size="11.00" fill="#000000">updated_at</text>
<polygon fill="none" stroke="#000000" points="377,-484.4338 377,-506.4338 486,-506.4338 486,-484.4338 377,-484.4338"/>
<text text-anchor="start" x="380" y="-492.1338" font-family="Helvetica,sans-Serif" font-size="11.00" fill="#000000">timestamptz[35,6]</text>
<polygon fill="none" stroke="#000000" points="232,-462.4338 232,-484.4338 377,-484.4338 377,-462.4338 232,-462.4338"/>
<image xlink:href="../../images/foreignKeys.png" width="11px" height="12px" preserveAspectRatio="xMinYMin meet" x="237" y="-479.434"/>
<text text-anchor="start" x="252" y="-469.5338" font-family="Helvetica,sans-Serif" font-size="11.00" fill="#000000">created_by</text>
<polygon fill="none" stroke="#000000" points="377,-462.4338 377,-484.4338 486,-484.4338 486,-462.4338 377,-462.4338"/>
<text text-anchor="start" x="380" y="-470.1338" font-family="Helvetica,sans-Serif" font-size="11.00" fill="#000000">int8[19]</text>
<polygon fill="none" stroke="#000000" points="232,-440.4338 232,-462.4338 377,-462.4338 377,-440.4338 232,-440.4338"/>
<image xlink:href="../../images/foreignKeys.png" width="11px" height="12px" preserveAspectRatio="xMinYMin meet" x="237" y="-457.434"/>
<text text-anchor="start" x="252" y="-447.5338" font-family="Helvetica,sans-Serif" font-size="11.00" fill="#000000">updated_by</text>
<polygon fill="none" stroke="#000000" points="377,-440.4338 377,-462.4338 486,-462.4338 486,-440.4338 377,-440.4338"/>
<text text-anchor="start" x="380" y="-448.1338" font-family="Helvetica,sans-Serif" font-size="11.00" fill="#000000">int8[19]</text>
<polygon fill="none" stroke="#000000" points="232,-418.4338 232,-440.4338 377,-440.4338 377,-418.4338 232,-418.4338"/>
<text text-anchor="start" x="252" y="-425.5338" font-family="Helvetica,sans-Serif" font-size="11.00" fill="#000000">planned_unload_at</text>
<polygon fill="none" stroke="#000000" points="377,-418.4338 377,-440.4338 486,-440.4338 486,-418.4338 377,-418.4338"/>
<text text-anchor="start" x="380" y="-426.1338" font-family="Helvetica,sans-Serif" font-size="11.00" fill="#000000">date[13]</text>
<polygon fill="none" stroke="#000000" points="232,-396.4338 232,-418.4338 377,-418.4338 377,-396.4338 232,-396.4338"/>
<image xlink:href="../../images/foreignKeys.png" width="11px" height="12px" preserveAspectRatio="xMinYMin meet" x="237" y="-413.434"/>
<text text-anchor="start" x="252" y="-403.5338" font-family="Helvetica,sans-Serif" font-size="11.00" fill="#000000">unload_method_code</text>
<polygon fill="none" stroke="#000000" points="377,-396.4338 377,-418.4338 486,-418.4338 486,-396.4338 377,-396.4338"/>
<text text-anchor="start" x="380" y="-404.1338" font-family="Helvetica,sans-Serif" font-size="11.00" fill="#000000">varchar[50]</text>
<polygon fill="#ffffff" stroke="transparent" points="232,-377.4338 232,-396.4338 296,-396.4338 296,-377.4338 232,-377.4338"/>
<polygon fill="none" stroke="#000000" points="232,-377.4338 232,-396.4338 296,-396.4338 296,-377.4338 232,-377.4338"/>
<text text-anchor="start" x="235" y="-383.5338" font-family="Helvetica,sans-Serif" font-size="11.00" fill="#000000">&lt; 6</text>
<polygon fill="#ffffff" stroke="transparent" points="296,-377.4338 296,-396.4338 377,-396.4338 377,-377.4338 296,-377.4338"/>
<polygon fill="none" stroke="#000000" points="296,-377.4338 296,-396.4338 377,-396.4338 377,-377.4338 296,-377.4338"/>
<text text-anchor="start" x="341.6105" y="-383.5338" font-family="Helvetica,sans-Serif" font-size="11.00" fill="#000000">2 rows</text>
<polygon fill="#ffffff" stroke="transparent" points="377,-377.4338 377,-396.4338 486,-396.4338 486,-377.4338 377,-377.4338"/>
<polygon fill="none" stroke="#000000" points="377,-377.4338 377,-396.4338 486,-396.4338 486,-377.4338 377,-377.4338"/>
<text text-anchor="start" x="467.4053" y="-383.5338" font-family="Helvetica,sans-Serif" font-size="11.00" fill="#000000">2 &gt;</text>
<polygon fill="none" stroke="#000000" stroke-width="2" points="231,-376.4338 231,-706.4338 487,-706.4338 487,-376.4338 231,-376.4338"/>
</a>
</g>
</g>
<!-- public.users -->
<g id="node2" class="node">
<title>public.users</title>
<g id="a_node2"><a xlink:href="../../../public/tables/users.html" xlink:title="public.users" target="_top">
<polygon fill="#ffffff" stroke="transparent" points="40,-231.9338 40,-292.9338 149,-292.9338 149,-231.9338 40,-231.9338"/>
<polygon fill="#f5f5f5" stroke="transparent" points="40.5,-269.4338 40.5,-292.4338 149.5,-292.4338 149.5,-269.4338 40.5,-269.4338"/>
<polygon fill="none" stroke="#000000" points="40.5,-269.4338 40.5,-292.4338 149.5,-292.4338 149.5,-269.4338 40.5,-269.4338"/>
<text text-anchor="start" x="45.5" y="-278.0338" font-family="Helvetica,sans-Serif" font-weight="bold" font-size="11.00" fill="#000000">public.users</text>
<text text-anchor="start" x="115.0219" y="-277.5338" font-family="Helvetica,sans-Serif" font-size="11.00" fill="#000000">[table]</text>
<polygon fill="none" stroke="#000000" points="40.5,-250.4338 40.5,-269.4338 149.5,-269.4338 149.5,-250.4338 40.5,-250.4338"/>
<text text-anchor="start" x="43.5" y="-256.5338" font-family="Helvetica,sans-Serif" font-size="11.00" fill="#000000">...</text>
<polygon fill="#ffffff" stroke="transparent" points="40.5,-231.4338 40.5,-250.4338 68.5,-250.4338 68.5,-231.4338 40.5,-231.4338"/>
<polygon fill="none" stroke="#000000" points="40.5,-231.4338 40.5,-250.4338 68.5,-250.4338 68.5,-231.4338 40.5,-231.4338"/>
<text text-anchor="start" x="43.5" y="-237.5338" font-family="Helvetica,sans-Serif" font-size="11.00" fill="#000000"> &#160;</text>
<polygon fill="#ffffff" stroke="transparent" points="68.5,-231.4338 68.5,-250.4338 114.5,-250.4338 114.5,-231.4338 68.5,-231.4338"/>
<polygon fill="none" stroke="#000000" points="68.5,-231.4338 68.5,-250.4338 114.5,-250.4338 114.5,-231.4338 68.5,-231.4338"/>
<text text-anchor="start" x="79.1105" y="-237.5338" font-family="Helvetica,sans-Serif" font-size="11.00" fill="#000000">0 rows</text>
<polygon fill="#ffffff" stroke="transparent" points="114.5,-231.4338 114.5,-250.4338 149.5,-250.4338 149.5,-231.4338 114.5,-231.4338"/>
<polygon fill="none" stroke="#000000" points="114.5,-231.4338 114.5,-250.4338 149.5,-250.4338 149.5,-231.4338 114.5,-231.4338"/>
<text text-anchor="start" x="124.7904" y="-237.5338" font-family="Helvetica,sans-Serif" font-size="11.00" fill="#000000">13 &gt;</text>
</a>
</g>
</g>
<!-- inbound_receipt&#45;&gt;public.users -->
<g id="edge1" class="edge">
<title>inbound_receipt:w&#45;&gt;public.users:e</title>
<path fill="none" stroke="#000000" d="M217.7037,-471.1081C187.9797,-459.2892 213.1344,-404.942 189,-366.4338 173.1941,-341.2144 150.9911,-316.4126 132.078,-297.358"/>
<polygon fill="#000000" stroke="#000000" points="224.1038,-472.1492 231.4219,-476.9871 228.0519,-472.7915 232,-473.4338 232,-473.4338 232,-473.4338 228.0519,-472.7915 232.5781,-469.8806 224.1038,-472.1492 224.1038,-472.1492"/>
<ellipse fill="none" stroke="#000000" cx="220.9453" cy="-471.6354" rx="3.2" ry="3.2"/>
</g>
<!-- inbound_receipt&#45;&gt;public.users -->
<g id="edge3" class="edge">
<title>inbound_receipt:w&#45;&gt;public.users:e</title>
<path fill="none" stroke="#000000" d="M218.4812,-577.6172C188.4224,-547.1148 208.6958,-405.5366 189,-366.4338 175.8305,-340.288 154.2432,-315.8023 135.0235,-297.1653"/>
<polygon fill="#000000" stroke="#000000" points="224.6513,-580.272 230.5772,-586.7407 228.3257,-581.8529 232,-583.4338 232,-583.4338 232,-583.4338 228.3257,-581.8529 233.4228,-580.1269 224.6513,-580.272 224.6513,-580.272"/>
<ellipse fill="none" stroke="#000000" cx="221.7119" cy="-579.0072" rx="3.2" ry="3.2"/>
</g>
<!-- inbound_receipt&#45;&gt;public.users -->
<g id="edge5" class="edge">
<title>inbound_receipt:w&#45;&gt;public.users:e</title>
<path fill="none" stroke="#000000" d="M217.7215,-448.6417C195.2927,-437.6368 209.6322,-396.4012 189,-366.4338 171.8451,-341.5172 149.1375,-316.3381 130.2813,-296.9968"/>
<polygon fill="#000000" stroke="#000000" points="224.1487,-449.8985 231.3091,-454.9669 228.0744,-450.6662 232,-451.4338 232,-451.4338 232,-451.4338 228.0744,-450.6662 232.6909,-447.9008 224.1487,-449.8985 224.1487,-449.8985"/>
<ellipse fill="none" stroke="#000000" cx="221.0082" cy="-449.2844" rx="3.2" ry="3.2"/>
</g>
<!-- public.orders -->
<g id="node3" class="node">
<title>public.orders</title>
<g id="a_node3"><a xlink:href="../../../public/tables/orders.html" xlink:title="public.orders" target="_top">
<polygon fill="#ffffff" stroke="transparent" points="37,-754.9338 37,-815.9338 152,-815.9338 152,-754.9338 37,-754.9338"/>
<polygon fill="#f5f5f5" stroke="transparent" points="37.5,-792.4338 37.5,-815.4338 152.5,-815.4338 152.5,-792.4338 37.5,-792.4338"/>
<polygon fill="none" stroke="#000000" points="37.5,-792.4338 37.5,-815.4338 152.5,-815.4338 152.5,-792.4338 37.5,-792.4338"/>
<text text-anchor="start" x="42.5" y="-801.0338" font-family="Helvetica,sans-Serif" font-weight="bold" font-size="11.00" fill="#000000">public.orders</text>
<text text-anchor="start" x="118.0219" y="-800.5338" font-family="Helvetica,sans-Serif" font-size="11.00" fill="#000000">[table]</text>
<polygon fill="none" stroke="#000000" points="37.5,-773.4338 37.5,-792.4338 152.5,-792.4338 152.5,-773.4338 37.5,-773.4338"/>
<text text-anchor="start" x="40.5" y="-779.5338" font-family="Helvetica,sans-Serif" font-size="11.00" fill="#000000">...</text>
<polygon fill="#ffffff" stroke="transparent" points="37.5,-754.4338 37.5,-773.4338 71.5,-773.4338 71.5,-754.4338 37.5,-754.4338"/>
<polygon fill="none" stroke="#000000" points="37.5,-754.4338 37.5,-773.4338 71.5,-773.4338 71.5,-754.4338 37.5,-754.4338"/>
<text text-anchor="start" x="40.5" y="-760.5338" font-family="Helvetica,sans-Serif" font-size="11.00" fill="#000000"> &#160;</text>
<polygon fill="#ffffff" stroke="transparent" points="71.5,-754.4338 71.5,-773.4338 120.5,-773.4338 120.5,-754.4338 71.5,-754.4338"/>
<polygon fill="none" stroke="#000000" points="71.5,-754.4338 71.5,-773.4338 120.5,-773.4338 120.5,-754.4338 71.5,-754.4338"/>
<text text-anchor="start" x="85.1105" y="-760.5338" font-family="Helvetica,sans-Serif" font-size="11.00" fill="#000000">0 rows</text>
<polygon fill="#ffffff" stroke="transparent" points="120.5,-754.4338 120.5,-773.4338 152.5,-773.4338 152.5,-754.4338 120.5,-754.4338"/>
<polygon fill="none" stroke="#000000" points="120.5,-754.4338 120.5,-773.4338 152.5,-773.4338 152.5,-754.4338 120.5,-754.4338"/>
<text text-anchor="start" x="133.9053" y="-760.5338" font-family="Helvetica,sans-Serif" font-size="11.00" fill="#000000">3 &gt;</text>
</a>
</g>
</g>
<!-- inbound_receipt&#45;&gt;public.orders -->
<g id="edge2" class="edge">
<title>inbound_receipt:w&#45;&gt;public.orders:e</title>
<path fill="none" stroke="#000000" d="M221.5631,-628.1055C162.6473,-635.745 124.8101,-706.7937 106.8288,-750.7601"/>
<polygon fill="#000000" stroke="#000000" points="230.9447,-623.4935 231.4586,-631.477 229.8619,-631.5797 229.348,-623.5963 230.9447,-623.4935"/>
<polyline fill="none" stroke="#000000" points="232,-627.4338 228.0083,-627.6908 "/>
<ellipse fill="none" stroke="#000000" cx="224.8149" cy="-627.8963" rx="3.2" ry="3.2"/>
</g>
<!-- public.unload_methods -->
<g id="node4" class="node">
<title>public.unload_methods</title>
<g id="a_node4"><a xlink:href="../../../public/tables/unload_methods.html" xlink:title="public.unload_methods" target="_top">
<polygon fill="#ffffff" stroke="transparent" points="8,-376.9338 8,-437.9338 181,-437.9338 181,-376.9338 8,-376.9338"/>
<polygon fill="#f5f5f5" stroke="transparent" points="8.5,-414.4338 8.5,-437.4338 181.5,-437.4338 181.5,-414.4338 8.5,-414.4338"/>
<polygon fill="none" stroke="#000000" points="8.5,-414.4338 8.5,-437.4338 181.5,-437.4338 181.5,-414.4338 8.5,-414.4338"/>
<text text-anchor="start" x="13.5" y="-423.0338" font-family="Helvetica,sans-Serif" font-weight="bold" font-size="11.00" fill="#000000">public.unload_methods</text>
<text text-anchor="start" x="147.0219" y="-422.5338" font-family="Helvetica,sans-Serif" font-size="11.00" fill="#000000">[table]</text>
<polygon fill="none" stroke="#000000" points="8.5,-395.4338 8.5,-414.4338 181.5,-414.4338 181.5,-395.4338 8.5,-395.4338"/>
<text text-anchor="start" x="11.5" y="-401.5338" font-family="Helvetica,sans-Serif" font-size="11.00" fill="#000000">...</text>
<polygon fill="#ffffff" stroke="transparent" points="8.5,-376.4338 8.5,-395.4338 71.5,-395.4338 71.5,-376.4338 8.5,-376.4338"/>
<polygon fill="none" stroke="#000000" points="8.5,-376.4338 8.5,-395.4338 71.5,-395.4338 71.5,-376.4338 8.5,-376.4338"/>
<text text-anchor="start" x="11.5" y="-382.5338" font-family="Helvetica,sans-Serif" font-size="11.00" fill="#000000"> &#160;</text>
<polygon fill="#ffffff" stroke="transparent" points="71.5,-376.4338 71.5,-395.4338 134.5,-395.4338 134.5,-376.4338 71.5,-376.4338"/>
<polygon fill="none" stroke="#000000" points="71.5,-376.4338 71.5,-395.4338 134.5,-395.4338 134.5,-376.4338 71.5,-376.4338"/>
<text text-anchor="start" x="99.1105" y="-382.5338" font-family="Helvetica,sans-Serif" font-size="11.00" fill="#000000">0 rows</text>
<polygon fill="#ffffff" stroke="transparent" points="134.5,-376.4338 134.5,-395.4338 181.5,-395.4338 181.5,-376.4338 134.5,-376.4338"/>
<polygon fill="none" stroke="#000000" points="134.5,-376.4338 134.5,-395.4338 181.5,-395.4338 181.5,-376.4338 134.5,-376.4338"/>
<text text-anchor="start" x="162.9053" y="-382.5338" font-family="Helvetica,sans-Serif" font-size="11.00" fill="#000000">1 &gt;</text>
</a>
</g>
</g>
<!-- inbound_receipt&#45;&gt;public.unload_methods -->
<g id="edge4" class="edge">
<title>inbound_receipt:w&#45;&gt;public.unload_methods:e</title>
<path fill="none" stroke="#000000" d="M217.4871,-407.4338C208.1299,-407.4338 198.5927,-407.4338 189.1769,-407.4338"/>
<polygon fill="#000000" stroke="#000000" points="224,-407.4339 232,-411.0338 228,-407.4339 232,-407.4338 232,-407.4338 232,-407.4338 228,-407.4339 232,-403.8338 224,-407.4339 224,-407.4339"/>
<ellipse fill="none" stroke="#000000" cx="220.8" cy="-407.4339" rx="3.2" ry="3.2"/>
</g>
<!-- public.warehouses -->
<g id="node5" class="node">
<title>public.warehouses</title>
<g id="a_node5"><a xlink:href="../../../public/tables/warehouses.html" xlink:title="public.warehouses" target="_top">
<polygon fill="#ffffff" stroke="transparent" points="21,-530.9338 21,-591.9338 168,-591.9338 168,-530.9338 21,-530.9338"/>
<polygon fill="#f5f5f5" stroke="transparent" points="21.5,-568.4338 21.5,-591.4338 168.5,-591.4338 168.5,-568.4338 21.5,-568.4338"/>
<polygon fill="none" stroke="#000000" points="21.5,-568.4338 21.5,-591.4338 168.5,-591.4338 168.5,-568.4338 21.5,-568.4338"/>
<text text-anchor="start" x="26.5" y="-577.0338" font-family="Helvetica,sans-Serif" font-weight="bold" font-size="11.00" fill="#000000">public.warehouses</text>
<text text-anchor="start" x="134.0219" y="-576.5338" font-family="Helvetica,sans-Serif" font-size="11.00" fill="#000000">[table]</text>
<polygon fill="none" stroke="#000000" points="21.5,-549.4338 21.5,-568.4338 168.5,-568.4338 168.5,-549.4338 21.5,-549.4338"/>
<text text-anchor="start" x="24.5" y="-555.5338" font-family="Helvetica,sans-Serif" font-size="11.00" fill="#000000">...</text>
<polygon fill="#ffffff" stroke="transparent" points="21.5,-530.4338 21.5,-549.4338 71.5,-549.4338 71.5,-530.4338 21.5,-530.4338"/>
<polygon fill="none" stroke="#000000" points="21.5,-530.4338 21.5,-549.4338 71.5,-549.4338 71.5,-530.4338 21.5,-530.4338"/>
<text text-anchor="start" x="24.5" y="-536.5338" font-family="Helvetica,sans-Serif" font-size="11.00" fill="#000000"> &#160;</text>
<polygon fill="#ffffff" stroke="transparent" points="71.5,-530.4338 71.5,-549.4338 128.5,-549.4338 128.5,-530.4338 71.5,-530.4338"/>
<polygon fill="none" stroke="#000000" points="71.5,-530.4338 71.5,-549.4338 128.5,-549.4338 128.5,-530.4338 71.5,-530.4338"/>
<text text-anchor="start" x="93.1105" y="-536.5338" font-family="Helvetica,sans-Serif" font-size="11.00" fill="#000000">0 rows</text>
<polygon fill="#ffffff" stroke="transparent" points="128.5,-530.4338 128.5,-549.4338 168.5,-549.4338 168.5,-530.4338 128.5,-530.4338"/>
<polygon fill="none" stroke="#000000" points="128.5,-530.4338 128.5,-549.4338 168.5,-549.4338 168.5,-530.4338 128.5,-530.4338"/>
<text text-anchor="start" x="149.9053" y="-536.5338" font-family="Helvetica,sans-Serif" font-size="11.00" fill="#000000">5 &gt;</text>
</a>
</g>
</g>
<!-- inbound_receipt&#45;&gt;public.warehouses -->
<g id="edge6" class="edge">
<title>inbound_receipt:w&#45;&gt;public.warehouses:e</title>
<path fill="none" stroke="#000000" d="M217.4007,-561.4338C203.7685,-561.4338 189.7564,-561.4338 176.2959,-561.4338"/>
<polygon fill="#000000" stroke="#000000" points="224,-561.4339 232,-565.0338 228,-561.4339 232,-561.4338 232,-561.4338 232,-561.4338 228,-561.4339 232,-557.8338 224,-561.4339 224,-561.4339"/>
<ellipse fill="none" stroke="#000000" cx="220.8" cy="-561.4339" rx="3.2" ry="3.2"/>
</g>
<!-- inventory_lots -->
<g id="node6" class="node">
<title>inventory_lots</title>
<g id="a_node6"><a xlink:href="../../tables/inventory_lots.html" xlink:title="inventory_lots" target="_top">
<polygon fill="#ffffff" stroke="transparent" points="570.5,-394.9338 570.5,-455.9338 691.5,-455.9338 691.5,-394.9338 570.5,-394.9338"/>
<polygon fill="#f5f5f5" stroke="transparent" points="571,-432.4338 571,-455.4338 692,-455.4338 692,-432.4338 571,-432.4338"/>
<polygon fill="none" stroke="#000000" points="571,-432.4338 571,-455.4338 692,-455.4338 692,-432.4338 571,-432.4338"/>
<text text-anchor="start" x="576" y="-441.0338" font-family="Helvetica,sans-Serif" font-weight="bold" font-size="11.00" fill="#000000">inventory_lots</text>
<text text-anchor="start" x="657.5219" y="-440.5338" font-family="Helvetica,sans-Serif" font-size="11.00" fill="#000000">[table]</text>
<polygon fill="none" stroke="#000000" points="571,-413.4338 571,-432.4338 692,-432.4338 692,-413.4338 571,-413.4338"/>
<text text-anchor="start" x="574" y="-419.5338" font-family="Helvetica,sans-Serif" font-size="11.00" fill="#000000">...</text>
<polygon fill="#ffffff" stroke="transparent" points="571,-394.4338 571,-413.4338 617,-413.4338 617,-394.4338 571,-394.4338"/>
<polygon fill="none" stroke="#000000" points="571,-394.4338 571,-413.4338 617,-413.4338 617,-394.4338 571,-394.4338"/>
<text text-anchor="start" x="574" y="-400.5338" font-family="Helvetica,sans-Serif" font-size="11.00" fill="#000000">&lt; 6</text>
<polygon fill="#ffffff" stroke="transparent" points="617,-394.4338 617,-413.4338 667,-413.4338 667,-394.4338 617,-394.4338"/>
<polygon fill="none" stroke="#000000" points="617,-394.4338 617,-413.4338 667,-413.4338 667,-394.4338 617,-394.4338"/>
<text text-anchor="start" x="631.6105" y="-400.5338" font-family="Helvetica,sans-Serif" font-size="11.00" fill="#000000">5 rows</text>
<polygon fill="#ffffff" stroke="transparent" points="667,-394.4338 667,-413.4338 692,-413.4338 692,-394.4338 667,-394.4338"/>
<polygon fill="none" stroke="#000000" points="667,-394.4338 667,-413.4338 692,-413.4338 692,-394.4338 667,-394.4338"/>
<text text-anchor="start" x="682.8862" y="-400.5338" font-family="Helvetica,sans-Serif" font-size="11.00" fill="#000000"> &#160;</text>
</a>
</g>
</g>
<!-- inventory_lots&#45;&gt;inbound_receipt -->
<g id="edge8" class="edge">
<title>inventory_lots:w&#45;&gt;inbound_receipt:e</title>
<path fill="none" stroke="#000000" d="M624.3833,-474.6036C611.6501,-546.3893 576.4837,-671.4338 486,-671.4338"/>
<polygon fill="#000000" stroke="#000000" points="625.4667,-468.0507 630.3235,-460.7452 626.1192,-464.1043 626.7718,-460.1579 626.7718,-460.1579 626.7718,-460.1579 626.1192,-464.1043 623.22,-459.5706 625.4667,-468.0507 625.4667,-468.0507"/>
<ellipse fill="none" stroke="#000000" cx="624.9447" cy="-471.2079" rx="3.2" ry="3.2"/>
</g>
<!-- inventory_lots&#45;&gt;public.users -->
<g id="edge7" class="edge">
<title>inventory_lots:w&#45;&gt;public.users:e</title>
<path fill="none" stroke="#000000" d="M604.6858,-378.4702C580.8994,-343.3272 542.5303,-297.8846 496,-276.4338 385.4011,-225.447 239.0291,-234.6769 157.0408,-247.6216"/>
<polygon fill="#000000" stroke="#000000" points="608.4099,-384.1855 609.7613,-392.8535 610.5937,-387.5368 612.7775,-390.8881 612.7775,-390.8881 612.7775,-390.8881 610.5937,-387.5368 615.7937,-388.9228 608.4099,-384.1855 608.4099,-384.1855"/>
<ellipse fill="none" stroke="#000000" cx="606.6629" cy="-381.5045" rx="3.2" ry="3.2"/>
</g>
<!-- inventory_lots&#45;&gt;public.users -->
<g id="edge11" class="edge">
<title>inventory_lots:w&#45;&gt;public.users:e</title>
<path fill="none" stroke="#000000" d="M597.4401,-379.163C573.4596,-347.8259 538.0648,-308.826 496,-289.4338 385.4011,-238.447 239.0291,-247.6769 157.0408,-256.5044"/>
<polygon fill="#000000" stroke="#000000" points="601.284,-384.3248 603.1748,-392.8913 603.6731,-387.533 606.0621,-390.7412 606.0621,-390.7412 606.0621,-390.7412 603.6731,-387.533 608.9495,-388.591 601.284,-384.3248 601.284,-384.3248"/>
<ellipse fill="none" stroke="#000000" cx="599.3727" cy="-381.7582" rx="3.2" ry="3.2"/>
</g>
<!-- inventory_lots&#45;&gt;public.orders -->
<g id="edge10" class="edge">
<title>inventory_lots:w&#45;&gt;public.orders:e</title>
<path fill="none" stroke="#000000" d="M609.0448,-473.6528C587.0229,-523.1302 553.0184,-602.6632 529,-673.4338 510.9479,-726.6248 540.6038,-761.2921 496,-795.4338 398.9676,-869.7069 246.6286,-837.6033 160.1785,-809.9606"/>
<polygon fill="#000000" stroke="#000000" points="611.7887,-467.5236 618.3432,-461.6929 613.4231,-463.8728 615.0575,-460.2219 615.0575,-460.2219 615.0575,-460.2219 613.4231,-463.8728 611.7717,-458.7509 611.7887,-467.5236 611.7887,-467.5236"/>
<ellipse fill="none" stroke="#000000" cx="610.4811" cy="-470.4443" rx="3.2" ry="3.2"/>
</g>
<!-- inventory_lots&#45;&gt;public.warehouses -->
<g id="edge12" class="edge">
<title>inventory_lots:w&#45;&gt;public.warehouses:e</title>
<path fill="none" stroke="#000000" d="M612.1593,-473.5112C580.5599,-552.9336 518.1646,-704.2421 496,-718.4338 444.7218,-751.2668 276.9757,-744.6088 222,-718.4338 169.056,-693.2263 130.9295,-634.095 110.8187,-596.027"/>
<polygon fill="#000000" stroke="#000000" points="614.5553,-467.4652 620.8494,-461.3543 616.029,-463.7466 617.5027,-460.028 617.5027,-460.028 617.5027,-460.028 616.029,-463.7466 614.1559,-458.7016 614.5553,-467.4652 614.5553,-467.4652"/>
<ellipse fill="none" stroke="#000000" cx="613.3763" cy="-470.4401" rx="3.2" ry="3.2"/>
</g>
<!-- public.order_detail -->
<g id="node7" class="node">
<title>public.order_detail</title>
<g id="a_node7"><a xlink:href="../../../public/tables/order_detail.html" xlink:title="public.order_detail" target="_top">
<polygon fill="#ffffff" stroke="transparent" points="286,-170.9338 286,-231.9338 432,-231.9338 432,-170.9338 286,-170.9338"/>
<polygon fill="#f5f5f5" stroke="transparent" points="286,-208.4338 286,-231.4338 432,-231.4338 432,-208.4338 286,-208.4338"/>
<polygon fill="none" stroke="#000000" points="286,-208.4338 286,-231.4338 432,-231.4338 432,-208.4338 286,-208.4338"/>
<text text-anchor="start" x="291" y="-217.0338" font-family="Helvetica,sans-Serif" font-weight="bold" font-size="11.00" fill="#000000">public.order_detail</text>
<text text-anchor="start" x="397.5219" y="-216.5338" font-family="Helvetica,sans-Serif" font-size="11.00" fill="#000000">[table]</text>
<polygon fill="none" stroke="#000000" points="286,-189.4338 286,-208.4338 432,-208.4338 432,-189.4338 286,-189.4338"/>
<text text-anchor="start" x="289" y="-195.5338" font-family="Helvetica,sans-Serif" font-size="11.00" fill="#000000">...</text>
<polygon fill="#ffffff" stroke="transparent" points="286,-170.4338 286,-189.4338 335,-189.4338 335,-170.4338 286,-170.4338"/>
<polygon fill="none" stroke="#000000" points="286,-170.4338 286,-189.4338 335,-189.4338 335,-170.4338 286,-170.4338"/>
<text text-anchor="start" x="289" y="-176.5338" font-family="Helvetica,sans-Serif" font-size="11.00" fill="#000000"> &#160;</text>
<polygon fill="#ffffff" stroke="transparent" points="335,-170.4338 335,-189.4338 392,-189.4338 392,-170.4338 335,-170.4338"/>
<polygon fill="none" stroke="#000000" points="335,-170.4338 335,-189.4338 392,-189.4338 392,-170.4338 335,-170.4338"/>
<text text-anchor="start" x="356.6105" y="-176.5338" font-family="Helvetica,sans-Serif" font-size="11.00" fill="#000000">0 rows</text>
<polygon fill="#ffffff" stroke="transparent" points="392,-170.4338 392,-189.4338 432,-189.4338 432,-170.4338 392,-170.4338"/>
<polygon fill="none" stroke="#000000" points="392,-170.4338 392,-189.4338 432,-189.4338 432,-170.4338 392,-170.4338"/>
<text text-anchor="start" x="413.4053" y="-176.5338" font-family="Helvetica,sans-Serif" font-size="11.00" fill="#000000">2 &gt;</text>
</a>
</g>
</g>
<!-- inventory_lots&#45;&gt;public.order_detail -->
<g id="edge9" class="edge">
<title>inventory_lots:w&#45;&gt;public.order_detail:e</title>
<path fill="none" stroke="#000000" d="M613.6109,-376.9781C586.2059,-310.3063 526.1883,-198.4338 432,-198.4338"/>
<polygon fill="#000000" stroke="#000000" points="616.0124,-383.0271 615.6185,-391.791 617.4884,-386.7448 618.9644,-390.4626 618.9644,-390.4626 618.9644,-390.4626 617.4884,-386.7448 622.3104,-389.1342 616.0124,-383.0271 616.0124,-383.0271"/>
<ellipse fill="none" stroke="#000000" cx="614.8316" cy="-380.0529" rx="3.2" ry="3.2"/>
</g>
<!-- outbound_shipment_lines -->
<g id="node8" class="node">
<title>outbound_shipment_lines</title>
<g id="a_node8"><a xlink:href="../../tables/outbound_shipment_lines.html" xlink:title="outbound_shipment_lines" target="_top">
<polygon fill="#ffffff" stroke="transparent" points="537,-88.9338 537,-149.9338 725,-149.9338 725,-88.9338 537,-88.9338"/>
<polygon fill="#f5f5f5" stroke="transparent" points="537,-126.4338 537,-149.4338 725,-149.4338 725,-126.4338 537,-126.4338"/>
<polygon fill="none" stroke="#000000" points="537,-126.4338 537,-149.4338 725,-149.4338 725,-126.4338 537,-126.4338"/>
<text text-anchor="start" x="542" y="-135.0338" font-family="Helvetica,sans-Serif" font-weight="bold" font-size="11.00" fill="#000000">outbound_shipment_lines</text>
<text text-anchor="start" x="690.5219" y="-134.5338" font-family="Helvetica,sans-Serif" font-size="11.00" fill="#000000">[table]</text>
<polygon fill="none" stroke="#000000" points="537,-107.4338 537,-126.4338 725,-126.4338 725,-107.4338 537,-107.4338"/>
<text text-anchor="start" x="540" y="-113.5338" font-family="Helvetica,sans-Serif" font-size="11.00" fill="#000000">...</text>
<polygon fill="#ffffff" stroke="transparent" points="537,-88.4338 537,-107.4338 616,-107.4338 616,-88.4338 537,-88.4338"/>
<polygon fill="none" stroke="#000000" points="537,-88.4338 537,-107.4338 616,-107.4338 616,-88.4338 537,-88.4338"/>
<text text-anchor="start" x="540" y="-94.5338" font-family="Helvetica,sans-Serif" font-size="11.00" fill="#000000">&lt; 5</text>
<polygon fill="#ffffff" stroke="transparent" points="616,-88.4338 616,-107.4338 683,-107.4338 683,-88.4338 616,-88.4338"/>
<polygon fill="none" stroke="#000000" points="616,-88.4338 616,-107.4338 683,-107.4338 683,-88.4338 616,-88.4338"/>
<text text-anchor="start" x="647.6105" y="-94.5338" font-family="Helvetica,sans-Serif" font-size="11.00" fill="#000000">6 rows</text>
<polygon fill="#ffffff" stroke="transparent" points="683,-88.4338 683,-107.4338 725,-107.4338 725,-88.4338 683,-88.4338"/>
<polygon fill="none" stroke="#000000" points="683,-88.4338 683,-107.4338 725,-107.4338 725,-88.4338 683,-88.4338"/>
<text text-anchor="start" x="715.8862" y="-94.5338" font-family="Helvetica,sans-Serif" font-size="11.00" fill="#000000"> &#160;</text>
</a>
</g>
</g>
<!-- outbound_shipment_lines&#45;&gt;public.users -->
<g id="edge13" class="edge">
<title>outbound_shipment_lines:w&#45;&gt;public.users:e</title>
<path fill="none" stroke="#000000" d="M524.293,-109.3224C513.7702,-98.3445 513.8898,-79.4493 496,-72.4338 382.6279,-27.975 329.8802,-15.9388 222,-72.4338 160.2001,-104.7974 122.3806,-182.2382 105.2961,-227.6996"/>
<polygon fill="#000000" stroke="#000000" points="530.0189,-112.5269 535.2419,-119.5753 533.5094,-114.4803 537,-116.4338 537,-116.4338 537,-116.4338 533.5094,-114.4803 538.7581,-113.2923 530.0189,-112.5269 530.0189,-112.5269"/>
<ellipse fill="none" stroke="#000000" cx="527.2265" cy="-110.9641" rx="3.2" ry="3.2"/>
</g>
<!-- outbound_shipment_lines&#45;&gt;public.users -->
<g id="edge17" class="edge">
<title>outbound_shipment_lines:w&#45;&gt;public.users:e</title>
<path fill="none" stroke="#000000" d="M522.4906,-115.2575C513.7186,-109.0979 512.8056,-92.0242 496,-85.4338 382.6279,-40.975 329.8802,-28.9388 222,-85.4338 164.1594,-115.724 127.3249,-185.5005 108.8359,-227.9143"/>
<polygon fill="#000000" stroke="#000000" points="529.0262,-115.7873 536.7091,-120.0221 533.0131,-116.1106 537,-116.4338 537,-116.4338 537,-116.4338 533.0131,-116.1106 537.2909,-112.8456 529.0262,-115.7873 529.0262,-115.7873"/>
<ellipse fill="none" stroke="#000000" cx="525.8366" cy="-115.5287" rx="3.2" ry="3.2"/>
</g>
<!-- outbound_shipment_lines&#45;&gt;public.orders -->
<g id="edge15" class="edge">
<title>outbound_shipment_lines:w&#45;&gt;public.orders:e</title>
<path fill="none" stroke="#000000" d="M524.8183,-124.2592C479.3788,-191.6218 537.8772,-672.2678 496,-718.4338 452.1405,-766.7852 262.4762,-780.2432 160.2987,-783.9891"/>
<polygon fill="#000000" stroke="#000000" points="530.2691,-120.7577 538.9457,-119.4627 533.6346,-118.5958 537,-116.4338 537,-116.4338 537,-116.4338 533.6346,-118.5958 535.0543,-113.4049 530.2691,-120.7577 530.2691,-120.7577"/>
<ellipse fill="none" stroke="#000000" cx="527.5768" cy="-122.4872" rx="3.2" ry="3.2"/>
</g>
<!-- outbound_shipment_lines&#45;&gt;public.order_detail -->
<g id="edge14" class="edge">
<title>outbound_shipment_lines:w&#45;&gt;public.order_detail:e</title>
<path fill="none" stroke="#000000" d="M522.9084,-120.4359C511.8348,-128.623 511.9354,-147.5937 496,-160.4338 470.241,-181.1895 465.0805,-198.4338 432,-198.4338"/>
<polygon fill="#000000" stroke="#000000" points="529.3043,-118.6194 537.9835,-119.8969 533.1522,-117.5266 537,-116.4338 537,-116.4338 537,-116.4338 533.1522,-117.5266 536.0165,-112.9708 529.3043,-118.6194 529.3043,-118.6194"/>
<ellipse fill="none" stroke="#000000" cx="526.2261" cy="-119.4937" rx="3.2" ry="3.2"/>
</g>
<!-- outbound_shipments -->
<g id="node9" class="node">
<title>outbound_shipments</title>
<g id="a_node9"><a xlink:href="../../tables/outbound_shipments.html" xlink:title="outbound_shipments" target="_top">
<polygon fill="#ffffff" stroke="transparent" points="279,-88.9338 279,-149.9338 439,-149.9338 439,-88.9338 279,-88.9338"/>
<polygon fill="#f5f5f5" stroke="transparent" points="279,-126.4338 279,-149.4338 439,-149.4338 439,-126.4338 279,-126.4338"/>
<polygon fill="none" stroke="#000000" points="279,-126.4338 279,-149.4338 439,-149.4338 439,-126.4338 279,-126.4338"/>
<text text-anchor="start" x="284" y="-135.0338" font-family="Helvetica,sans-Serif" font-weight="bold" font-size="11.00" fill="#000000">outbound_shipments</text>
<text text-anchor="start" x="404.5219" y="-134.5338" font-family="Helvetica,sans-Serif" font-size="11.00" fill="#000000">[table]</text>
<polygon fill="none" stroke="#000000" points="279,-107.4338 279,-126.4338 439,-126.4338 439,-107.4338 279,-107.4338"/>
<text text-anchor="start" x="282" y="-113.5338" font-family="Helvetica,sans-Serif" font-size="11.00" fill="#000000">...</text>
<polygon fill="#ffffff" stroke="transparent" points="279,-88.4338 279,-107.4338 353,-107.4338 353,-88.4338 279,-88.4338"/>
<polygon fill="none" stroke="#000000" points="279,-88.4338 279,-107.4338 353,-107.4338 353,-88.4338 279,-88.4338"/>
<text text-anchor="start" x="282" y="-94.5338" font-family="Helvetica,sans-Serif" font-size="11.00" fill="#000000">&lt; 8</text>
<polygon fill="#ffffff" stroke="transparent" points="353,-88.4338 353,-107.4338 391,-107.4338 391,-88.4338 353,-88.4338"/>
<polygon fill="none" stroke="#000000" points="353,-88.4338 353,-107.4338 391,-107.4338 391,-88.4338 353,-88.4338"/>
<text text-anchor="start" x="381.8862" y="-94.5338" font-family="Helvetica,sans-Serif" font-size="11.00" fill="#000000"> &#160;</text>
<polygon fill="#ffffff" stroke="transparent" points="391,-88.4338 391,-107.4338 439,-107.4338 439,-88.4338 391,-88.4338"/>
<polygon fill="none" stroke="#000000" points="391,-88.4338 391,-107.4338 439,-107.4338 439,-88.4338 391,-88.4338"/>
<text text-anchor="start" x="420.4053" y="-94.5338" font-family="Helvetica,sans-Serif" font-size="11.00" fill="#000000">1 &gt;</text>
</a>
</g>
</g>
<!-- outbound_shipment_lines&#45;&gt;outbound_shipments -->
<g id="edge16" class="edge">
<title>outbound_shipment_lines:w&#45;&gt;outbound_shipments:e</title>
<path fill="none" stroke="#000000" d="M522.4981,-116.4338C490.3283,-116.4338 477.2813,-116.4338 439,-116.4338"/>
<polygon fill="#000000" stroke="#000000" points="529,-116.4339 537,-120.0338 533,-116.4339 537,-116.4338 537,-116.4338 537,-116.4338 533,-116.4339 537,-112.8338 529,-116.4339 529,-116.4339"/>
<ellipse fill="none" stroke="#000000" cx="525.8" cy="-116.4339" rx="3.2" ry="3.2"/>
</g>
<!-- outbound_shipments&#45;&gt;public.users -->
<g id="edge18" class="edge">
<title>outbound_shipments:w&#45;&gt;public.users:e</title>
<path fill="none" stroke="#000000" d="M264.4772,-115.6236C195.0494,-116.4741 138.2012,-184.4707 111.2985,-227.9071"/>
<polygon fill="#000000" stroke="#000000" points="271.0124,-115.9881 278.7994,-120.0282 275.0062,-116.211 279,-116.4338 279,-116.4338 279,-116.4338 275.0062,-116.211 279.2006,-112.8394 271.0124,-115.9881 271.0124,-115.9881"/>
<ellipse fill="none" stroke="#000000" cx="267.8174" cy="-115.8099" rx="3.2" ry="3.2"/>
</g>
<!-- outbound_shipments&#45;&gt;public.users -->
<g id="edge19" class="edge">
<title>outbound_shipments:w&#45;&gt;public.users:e</title>
<path fill="none" stroke="#000000" d="M264.5076,-117.3605C199.455,-125.6445 145.4431,-187.6111 116.755,-227.8339"/>
<polygon fill="#000000" stroke="#000000" points="271.0163,-116.9444 279.2297,-120.0265 275.0082,-116.6891 279,-116.4338 279,-116.4338 279,-116.4338 275.0082,-116.6891 278.7703,-112.8412 271.0163,-116.9444 271.0163,-116.9444"/>
<ellipse fill="none" stroke="#000000" cx="267.8228" cy="-117.1486" rx="3.2" ry="3.2"/>
</g>
<!-- outbound_shipments&#45;&gt;public.users -->
<g id="edge20" class="edge">
<title>outbound_shipments:w&#45;&gt;public.users:e</title>
<path fill="none" stroke="#000000" d="M264.7274,-119.0447C204.3666,-133.5885 153.4902,-189.8524 123.4955,-227.65"/>
<polygon fill="#000000" stroke="#000000" points="271.1306,-117.8734 279.6478,-119.9751 275.0653,-117.1536 279,-116.4338 279,-116.4338 279,-116.4338 275.0653,-117.1536 278.3522,-112.8926 271.1306,-117.8734 271.1306,-117.8734"/>
<ellipse fill="none" stroke="#000000" cx="267.9828" cy="-118.4492" rx="3.2" ry="3.2"/>
</g>
<!-- outbound_shipments&#45;&gt;public.warehouses -->
<g id="edge21" class="edge">
<title>outbound_shipments:w&#45;&gt;public.warehouses:e</title>
<path fill="none" stroke="#000000" d="M264.3986,-117.1061C135.5055,-129.675 245.9011,-315.8073 189,-448.4338 176.2951,-478.0468 153.2041,-505.8836 133.0285,-526.5189"/>
<polygon fill="#000000" stroke="#000000" points="271.0085,-116.8018 279.1656,-120.03 275.0042,-116.6178 279,-116.4338 279,-116.4338 279,-116.4338 275.0042,-116.6178 278.8344,-112.8376 271.0085,-116.8018 271.0085,-116.8018"/>
<ellipse fill="none" stroke="#000000" cx="267.8119" cy="-116.949" rx="3.2" ry="3.2"/>
</g>
<!-- putaway_tasks -->
<g id="node10" class="node">
<title>putaway_tasks</title>
<g id="a_node10"><a xlink:href="../../tables/putaway_tasks.html" xlink:title="putaway_tasks" target="_top">
<polygon fill="#ffffff" stroke="transparent" points="569,-683.9338 569,-744.9338 693,-744.9338 693,-683.9338 569,-683.9338"/>
<polygon fill="#f5f5f5" stroke="transparent" points="569,-721.4338 569,-744.4338 693,-744.4338 693,-721.4338 569,-721.4338"/>
<polygon fill="none" stroke="#000000" points="569,-721.4338 569,-744.4338 693,-744.4338 693,-721.4338 569,-721.4338"/>
<text text-anchor="start" x="574" y="-730.0338" font-family="Helvetica,sans-Serif" font-weight="bold" font-size="11.00" fill="#000000">putaway_tasks</text>
<text text-anchor="start" x="658.5219" y="-729.5338" font-family="Helvetica,sans-Serif" font-size="11.00" fill="#000000">[table]</text>
<polygon fill="none" stroke="#000000" points="569,-702.4338 569,-721.4338 693,-721.4338 693,-702.4338 569,-702.4338"/>
<text text-anchor="start" x="572" y="-708.5338" font-family="Helvetica,sans-Serif" font-size="11.00" fill="#000000">...</text>
<polygon fill="#ffffff" stroke="transparent" points="569,-683.4338 569,-702.4338 629,-702.4338 629,-683.4338 569,-683.4338"/>
<polygon fill="none" stroke="#000000" points="569,-683.4338 569,-702.4338 629,-702.4338 629,-683.4338 569,-683.4338"/>
<text text-anchor="start" x="572" y="-689.5338" font-family="Helvetica,sans-Serif" font-size="11.00" fill="#000000">&lt; 2</text>
<polygon fill="#ffffff" stroke="transparent" points="629,-683.4338 629,-702.4338 661,-702.4338 661,-683.4338 629,-683.4338"/>
<polygon fill="none" stroke="#000000" points="629,-683.4338 629,-702.4338 661,-702.4338 661,-683.4338 629,-683.4338"/>
<text text-anchor="start" x="651.8862" y="-689.5338" font-family="Helvetica,sans-Serif" font-size="11.00" fill="#000000"> &#160;</text>
<polygon fill="#ffffff" stroke="transparent" points="661,-683.4338 661,-702.4338 693,-702.4338 693,-683.4338 661,-683.4338"/>
<polygon fill="none" stroke="#000000" points="661,-683.4338 661,-702.4338 693,-702.4338 693,-683.4338 661,-683.4338"/>
<text text-anchor="start" x="683.8862" y="-689.5338" font-family="Helvetica,sans-Serif" font-size="11.00" fill="#000000"> &#160;</text>
</a>
</g>
</g>
<!-- putaway_tasks&#45;&gt;inbound_receipt -->
<g id="edge22" class="edge">
<title>putaway_tasks:w&#45;&gt;inbound_receipt:e</title>
<path fill="none" stroke="#000000" d="M546.6906,-680.6469C527.0867,-675.2682 506.0724,-671.4338 486,-671.4338"/>
<polygon fill="#000000" stroke="#000000" points="553.0135,-682.5253 559.657,-688.2545 556.8479,-683.6644 560.6823,-684.8036 560.6823,-684.8036 560.6823,-684.8036 556.8479,-683.6644 561.7075,-681.3527 553.0135,-682.5253 553.0135,-682.5253"/>
<ellipse fill="none" stroke="#000000" cx="549.946" cy="-681.614" rx="3.2" ry="3.2"/>
</g>
<!-- putaway_tasks&#45;&gt;public.warehouses -->
<g id="edge23" class="edge">
<title>putaway_tasks:w&#45;&gt;public.warehouses:e</title>
<path fill="none" stroke="#000000" d="M546.7387,-743.5979C460.2362,-768.2443 324.1971,-791.9405 222,-739.4338 163.5068,-709.3813 125.8441,-638.6575 107.5708,-595.9567"/>
<polygon fill="#000000" stroke="#000000" points="553.036,-741.7446 561.7269,-742.9394 556.8733,-740.6152 560.7105,-739.4859 560.7105,-739.4859 560.7105,-739.4859 556.8733,-740.6152 559.6941,-736.0323 553.036,-741.7446 553.036,-741.7446"/>
<ellipse fill="none" stroke="#000000" cx="549.9662" cy="-742.6481" rx="3.2" ry="3.2"/>
</g>
<!-- wms_labor_logs -->
<g id="node11" class="node">
<title>wms_labor_logs</title>
<g id="a_node11"><a xlink:href="../../tables/wms_labor_logs.html" xlink:title="wms_labor_logs" target="_top">
<polygon fill="#ffffff" stroke="transparent" points="292.5,-292.9338 292.5,-353.9338 425.5,-353.9338 425.5,-292.9338 292.5,-292.9338"/>
<polygon fill="#f5f5f5" stroke="transparent" points="293,-330.4338 293,-353.4338 426,-353.4338 426,-330.4338 293,-330.4338"/>
<polygon fill="none" stroke="#000000" points="293,-330.4338 293,-353.4338 426,-353.4338 426,-330.4338 293,-330.4338"/>
<text text-anchor="start" x="298" y="-339.0338" font-family="Helvetica,sans-Serif" font-weight="bold" font-size="11.00" fill="#000000">wms_labor_logs</text>
<text text-anchor="start" x="391.5219" y="-338.5338" font-family="Helvetica,sans-Serif" font-size="11.00" fill="#000000">[table]</text>
<polygon fill="none" stroke="#000000" points="293,-311.4338 293,-330.4338 426,-330.4338 426,-311.4338 293,-311.4338"/>
<text text-anchor="start" x="296" y="-317.5338" font-family="Helvetica,sans-Serif" font-size="11.00" fill="#000000">...</text>
<polygon fill="#ffffff" stroke="transparent" points="293,-292.4338 293,-311.4338 358,-311.4338 358,-292.4338 293,-292.4338"/>
<polygon fill="none" stroke="#000000" points="293,-292.4338 293,-311.4338 358,-311.4338 358,-292.4338 293,-292.4338"/>
<text text-anchor="start" x="296" y="-298.5338" font-family="Helvetica,sans-Serif" font-size="11.00" fill="#000000">&lt; 4</text>
<polygon fill="#ffffff" stroke="transparent" points="358,-292.4338 358,-311.4338 392,-311.4338 392,-292.4338 358,-292.4338"/>
<polygon fill="none" stroke="#000000" points="358,-292.4338 358,-311.4338 392,-311.4338 392,-292.4338 358,-292.4338"/>
<text text-anchor="start" x="382.8862" y="-298.5338" font-family="Helvetica,sans-Serif" font-size="11.00" fill="#000000"> &#160;</text>
<polygon fill="#ffffff" stroke="transparent" points="392,-292.4338 392,-311.4338 426,-311.4338 426,-292.4338 392,-292.4338"/>
<polygon fill="none" stroke="#000000" points="392,-292.4338 392,-311.4338 426,-311.4338 426,-292.4338 392,-292.4338"/>
<text text-anchor="start" x="416.8862" y="-298.5338" font-family="Helvetica,sans-Serif" font-size="11.00" fill="#000000"> &#160;</text>
</a>
</g>
</g>
<!-- wms_labor_logs&#45;&gt;public.users -->
<g id="edge24" class="edge">
<title>wms_labor_logs:w&#45;&gt;public.users:e</title>
<path fill="none" stroke="#000000" d="M278.6232,-318.0689C235.9814,-310.1234 191.5778,-293.9985 157.0621,-280.8381"/>
<polygon fill="#000000" stroke="#000000" points="285.1061,-319.1353 292.4156,-323.9861 289.053,-319.7846 293,-320.4338 293,-320.4338 293,-320.4338 289.053,-319.7846 293.5844,-316.8816 285.1061,-319.1353 285.1061,-319.1353"/>
<ellipse fill="none" stroke="#000000" cx="281.9485" cy="-318.6159" rx="3.2" ry="3.2"/>
</g>
<!-- wms_labor_logs&#45;&gt;public.users -->
<g id="edge25" class="edge">
<title>wms_labor_logs:w&#45;&gt;public.users:e</title>
<path fill="none" stroke="#000000" d="M278.3451,-319.9664C235.7884,-317.3166 191.5028,-303.8322 157.0621,-290.5843"/>
<polygon fill="#000000" stroke="#000000" points="285.0041,-320.1787 292.8852,-324.032 289.002,-320.3063 293,-320.4338 293,-320.4338 293,-320.4338 289.002,-320.3063 293.1148,-316.8357 285.0041,-320.1787 285.0041,-320.1787"/>
<ellipse fill="none" stroke="#000000" cx="281.8057" cy="-320.0767" rx="3.2" ry="3.2"/>
</g>
<!-- wms_labor_logs&#45;&gt;public.users -->
<g id="edge26" class="edge">
<title>wms_labor_logs:w&#45;&gt;public.users:e</title>
<path fill="none" stroke="#000000" d="M278.4655,-321.9082C232.4165,-324.8189 184.33,-311.8502 148.873,-297.032"/>
<polygon fill="#000000" stroke="#000000" points="285.0408,-321.2412 293.3633,-324.0155 289.0204,-320.8375 293,-320.4338 293,-320.4338 293,-320.4338 289.0204,-320.8375 292.6367,-316.8522 285.0408,-321.2412 285.0408,-321.2412"/>
<ellipse fill="none" stroke="#000000" cx="281.8572" cy="-321.5642" rx="3.2" ry="3.2"/>
</g>
<!-- wms_labor_logs&#45;&gt;public.warehouses -->
<g id="edge27" class="edge">
<title>wms_labor_logs:w&#45;&gt;public.warehouses:e</title>
<path fill="none" stroke="#000000" d="M278.4027,-321.4402C252.5148,-325.3892 242.397,-340.8287 222,-365.4338 196.6649,-395.9958 209.3232,-414.333 189,-448.4338 172.1105,-476.7732 148.2469,-505.245 128.7263,-526.5197"/>
<polygon fill="#000000" stroke="#000000" points="285.0189,-320.9841 293.2476,-324.0253 289.0095,-320.709 293,-320.4338 293,-320.4338 293,-320.4338 289.0095,-320.709 292.7524,-316.8424 285.0189,-320.9841 285.0189,-320.9841"/>
<ellipse fill="none" stroke="#000000" cx="281.8265" cy="-321.2042" rx="3.2" ry="3.2"/>
</g>
</g>
</svg>
