<?xml version="1.0" encoding="UTF-8" standalone="no"?>
<!DOCTYPE svg PUBLIC "-//W3C//DTD SVG 1.1//EN"
 "http://www.w3.org/Graphics/SVG/1.1/DTD/svg11.dtd">
<!-- Generated by graphviz version 2.40.1 (20161225.0304)
 -->
<!-- Title: twoDegreesRelationshipsDiagram Pages: 1 -->
<svg width="702pt" height="591pt"
 viewBox="0.00 0.00 702.00 591.20" xmlns="http://www.w3.org/2000/svg" xmlns:xlink="http://www.w3.org/1999/xlink">
<g id="graph0" class="graph" transform="scale(1 1) rotate(0) translate(4 587.2)">
<title>twoDegreesRelationshipsDiagram</title>
<polygon fill="#ffffff" stroke="transparent" points="-4,4 -4,-587.2 698,-587.2 698,4 -4,4"/>
<text text-anchor="middle" x="72.4936" y="-7.3" font-family="Helvetica,sans-Serif" font-size="11.00" fill="#000000">Generated by SchemaSpy</text>
<!-- inbound_receipt -->
<g id="node1" class="node">
<title>inbound_receipt</title>
<g id="a_node1"><a xlink:href="../../tables/inbound_receipt.html" xlink:title="inbound_receipt" target="_top">
<polygon fill="#ffffff" stroke="transparent" points="244,-380.2 244,-441.2 376,-441.2 376,-380.2 244,-380.2"/>
<polygon fill="#f5f5f5" stroke="transparent" points="244,-417.7 244,-440.7 376,-440.7 376,-417.7 244,-417.7"/>
<polygon fill="none" stroke="#000000" points="244,-417.7 244,-440.7 376,-440.7 376,-417.7 244,-417.7"/>
<text text-anchor="start" x="249" y="-426.3" font-family="Helvetica,sans-Serif" font-weight="bold" font-size="11.00" fill="#000000">inbound_receipt</text>
<text text-anchor="start" x="341.5219" y="-425.8" font-family="Helvetica,sans-Serif" font-size="11.00" fill="#000000">[table]</text>
<polygon fill="none" stroke="#000000" points="244,-398.7 244,-417.7 376,-417.7 376,-398.7 244,-398.7"/>
<text text-anchor="start" x="247" y="-404.8" font-family="Helvetica,sans-Serif" font-size="11.00" fill="#000000">...</text>
<polygon fill="#ffffff" stroke="transparent" points="244,-379.7 244,-398.7 291,-398.7 291,-379.7 244,-379.7"/>
<polygon fill="none" stroke="#000000" points="244,-379.7 244,-398.7 291,-398.7 291,-379.7 244,-379.7"/>
<text text-anchor="start" x="247" y="-385.8" font-family="Helvetica,sans-Serif" font-size="11.00" fill="#000000">&lt; 6</text>
<polygon fill="#ffffff" stroke="transparent" points="291,-379.7 291,-398.7 342,-398.7 342,-379.7 291,-379.7"/>
<polygon fill="none" stroke="#000000" points="291,-379.7 291,-398.7 342,-398.7 342,-379.7 291,-379.7"/>
<text text-anchor="start" x="306.6105" y="-385.8" font-family="Helvetica,sans-Serif" font-size="11.00" fill="#000000">2 rows</text>
<polygon fill="#ffffff" stroke="transparent" points="342,-379.7 342,-398.7 376,-398.7 376,-379.7 342,-379.7"/>
<polygon fill="none" stroke="#000000" points="342,-379.7 342,-398.7 376,-398.7 376,-379.7 342,-379.7"/>
<text text-anchor="start" x="357.4053" y="-385.8" font-family="Helvetica,sans-Serif" font-size="11.00" fill="#000000">2 &gt;</text>
</a>
</g>
</g>
<!-- public.users -->
<g id="node2" class="node">
<title>public.users</title>
<g id="a_node2"><a xlink:href="../../../public/tables/users.html" xlink:title="public.users" target="_top">
<polygon fill="#ffffff" stroke="transparent" points="40,-161.2 40,-222.2 149,-222.2 149,-161.2 40,-161.2"/>
<polygon fill="#f5f5f5" stroke="transparent" points="40.5,-198.7 40.5,-221.7 149.5,-221.7 149.5,-198.7 40.5,-198.7"/>
<polygon fill="none" stroke="#000000" points="40.5,-198.7 40.5,-221.7 149.5,-221.7 149.5,-198.7 40.5,-198.7"/>
<text text-anchor="start" x="45.5" y="-207.3" font-family="Helvetica,sans-Serif" font-weight="bold" font-size="11.00" fill="#000000">public.users</text>
<text text-anchor="start" x="115.0219" y="-206.8" font-family="Helvetica,sans-Serif" font-size="11.00" fill="#000000">[table]</text>
<polygon fill="none" stroke="#000000" points="40.5,-179.7 40.5,-198.7 149.5,-198.7 149.5,-179.7 40.5,-179.7"/>
<text text-anchor="start" x="43.5" y="-185.8" font-family="Helvetica,sans-Serif" font-size="11.00" fill="#000000">...</text>
<polygon fill="#ffffff" stroke="transparent" points="40.5,-160.7 40.5,-179.7 68.5,-179.7 68.5,-160.7 40.5,-160.7"/>
<polygon fill="none" stroke="#000000" points="40.5,-160.7 40.5,-179.7 68.5,-179.7 68.5,-160.7 40.5,-160.7"/>
<text text-anchor="start" x="43.5" y="-166.8" font-family="Helvetica,sans-Serif" font-size="11.00" fill="#000000"> &#160;</text>
<polygon fill="#ffffff" stroke="transparent" points="68.5,-160.7 68.5,-179.7 114.5,-179.7 114.5,-160.7 68.5,-160.7"/>
<polygon fill="none" stroke="#000000" points="68.5,-160.7 68.5,-179.7 114.5,-179.7 114.5,-160.7 68.5,-160.7"/>
<text text-anchor="start" x="79.1105" y="-166.8" font-family="Helvetica,sans-Serif" font-size="11.00" fill="#000000">0 rows</text>
<polygon fill="#ffffff" stroke="transparent" points="114.5,-160.7 114.5,-179.7 149.5,-179.7 149.5,-160.7 114.5,-160.7"/>
<polygon fill="none" stroke="#000000" points="114.5,-160.7 114.5,-179.7 149.5,-179.7 149.5,-160.7 114.5,-160.7"/>
<text text-anchor="start" x="124.7904" y="-166.8" font-family="Helvetica,sans-Serif" font-size="11.00" fill="#000000">13 &gt;</text>
</a>
</g>
</g>
<!-- inbound_receipt&#45;&gt;public.users -->
<g id="edge1" class="edge">
<title>inbound_receipt:w&#45;&gt;public.users:e</title>
<path fill="none" stroke="#000000" d="M235.3906,-368.1695C230.5562,-364.6914 226.0225,-360.8881 222,-356.7 195.6415,-329.2568 209.8186,-309.551 189,-277.7 177.04,-259.402 161.4716,-241.4698 146.4329,-226.6071"/>
<polygon fill="#000000" stroke="#000000" points="241.1688,-371.8669 245.9669,-379.2112 244.538,-374.0229 247.9073,-376.1789 247.9073,-376.1789 247.9073,-376.1789 244.538,-374.0229 249.8477,-373.1465 241.1688,-371.8669 241.1688,-371.8669"/>
<ellipse fill="none" stroke="#000000" cx="238.4734" cy="-370.1421" rx="3.2" ry="3.2"/>
</g>
<!-- inbound_receipt&#45;&gt;public.users -->
<g id="edge3" class="edge">
<title>inbound_receipt:w&#45;&gt;public.users:e</title>
<path fill="none" stroke="#000000" d="M224.3528,-372.0515C223.5509,-371.2815 222.7662,-370.4977 222,-369.7 195.6415,-342.2568 209.8186,-322.551 189,-290.7 173.66,-267.2309 152.3838,-244.3635 133.903,-226.5294"/>
<polygon fill="#000000" stroke="#000000" points="229.4377,-376.2257 233.3369,-384.0842 232.5294,-378.7637 235.6211,-381.3017 235.6211,-381.3017 235.6211,-381.3017 232.5294,-378.7637 237.9053,-378.5191 229.4377,-376.2257 229.4377,-376.2257"/>
<ellipse fill="none" stroke="#000000" cx="226.9643" cy="-374.1953" rx="3.2" ry="3.2"/>
</g>
<!-- inbound_receipt&#45;&gt;public.users -->
<g id="edge5" class="edge">
<title>inbound_receipt:w&#45;&gt;public.users:e</title>
<path fill="none" stroke="#000000" d="M224.3528,-385.0513C223.5509,-384.2815 222.7662,-383.4977 222,-382.7 195.6415,-355.2568 209.8186,-335.551 189,-303.7 170.28,-275.0597 142.7196,-247.3155 122.1874,-226.2076"/>
<polygon fill="#000000" stroke="#000000" points="229.4288,-389.2033 233.3418,-397.055 232.5249,-391.7359 235.6211,-394.2685 235.6211,-394.2685 235.6211,-394.2685 232.5249,-391.7359 237.9004,-391.4819 229.4288,-389.2033 229.4288,-389.2033"/>
<ellipse fill="none" stroke="#000000" cx="226.9519" cy="-387.1772" rx="3.2" ry="3.2"/>
</g>
<!-- public.orders -->
<g id="node3" class="node">
<title>public.orders</title>
<g id="a_node3"><a xlink:href="../../../public/tables/orders.html" xlink:title="public.orders" target="_top">
<polygon fill="#ffffff" stroke="transparent" points="37,-465.2 37,-526.2 152,-526.2 152,-465.2 37,-465.2"/>
<polygon fill="#f5f5f5" stroke="transparent" points="37.5,-502.7 37.5,-525.7 152.5,-525.7 152.5,-502.7 37.5,-502.7"/>
<polygon fill="none" stroke="#000000" points="37.5,-502.7 37.5,-525.7 152.5,-525.7 152.5,-502.7 37.5,-502.7"/>
<text text-anchor="start" x="42.5" y="-511.3" font-family="Helvetica,sans-Serif" font-weight="bold" font-size="11.00" fill="#000000">public.orders</text>
<text text-anchor="start" x="118.0219" y="-510.8" font-family="Helvetica,sans-Serif" font-size="11.00" fill="#000000">[table]</text>
<polygon fill="none" stroke="#000000" points="37.5,-483.7 37.5,-502.7 152.5,-502.7 152.5,-483.7 37.5,-483.7"/>
<text text-anchor="start" x="40.5" y="-489.8" font-family="Helvetica,sans-Serif" font-size="11.00" fill="#000000">...</text>
<polygon fill="#ffffff" stroke="transparent" points="37.5,-464.7 37.5,-483.7 71.5,-483.7 71.5,-464.7 37.5,-464.7"/>
<polygon fill="none" stroke="#000000" points="37.5,-464.7 37.5,-483.7 71.5,-483.7 71.5,-464.7 37.5,-464.7"/>
<text text-anchor="start" x="40.5" y="-470.8" font-family="Helvetica,sans-Serif" font-size="11.00" fill="#000000"> &#160;</text>
<polygon fill="#ffffff" stroke="transparent" points="71.5,-464.7 71.5,-483.7 120.5,-483.7 120.5,-464.7 71.5,-464.7"/>
<polygon fill="none" stroke="#000000" points="71.5,-464.7 71.5,-483.7 120.5,-483.7 120.5,-464.7 71.5,-464.7"/>
<text text-anchor="start" x="85.1105" y="-470.8" font-family="Helvetica,sans-Serif" font-size="11.00" fill="#000000">0 rows</text>
<polygon fill="#ffffff" stroke="transparent" points="120.5,-464.7 120.5,-483.7 152.5,-483.7 152.5,-464.7 120.5,-464.7"/>
<polygon fill="none" stroke="#000000" points="120.5,-464.7 120.5,-483.7 152.5,-483.7 152.5,-464.7 120.5,-464.7"/>
<text text-anchor="start" x="133.9053" y="-470.8" font-family="Helvetica,sans-Serif" font-size="11.00" fill="#000000">3 &gt;</text>
</a>
</g>
</g>
<!-- inbound_receipt&#45;&gt;public.orders -->
<g id="edge2" class="edge">
<title>inbound_receipt:w&#45;&gt;public.orders:e</title>
<path fill="none" stroke="#000000" d="M225.9146,-443.8659C204.0796,-452.4783 180.8808,-461.6287 160.1493,-469.8058"/>
<polygon fill="#000000" stroke="#000000" points="233.6252,-436.5247 236.5606,-443.9667 235.0722,-444.5538 232.1368,-437.1118 233.6252,-436.5247"/>
<polyline fill="none" stroke="#000000" points="235.8371,-439.9522 232.1161,-441.4199 "/>
<ellipse fill="none" stroke="#000000" cx="229.1393" cy="-442.5941" rx="3.2" ry="3.2"/>
</g>
<!-- public.unload_methods -->
<g id="node4" class="node">
<title>public.unload_methods</title>
<g id="a_node4"><a xlink:href="../../../public/tables/unload_methods.html" xlink:title="public.unload_methods" target="_top">
<polygon fill="#ffffff" stroke="transparent" points="8,-383.2 8,-444.2 181,-444.2 181,-383.2 8,-383.2"/>
<polygon fill="#f5f5f5" stroke="transparent" points="8.5,-420.7 8.5,-443.7 181.5,-443.7 181.5,-420.7 8.5,-420.7"/>
<polygon fill="none" stroke="#000000" points="8.5,-420.7 8.5,-443.7 181.5,-443.7 181.5,-420.7 8.5,-420.7"/>
<text text-anchor="start" x="13.5" y="-429.3" font-family="Helvetica,sans-Serif" font-weight="bold" font-size="11.00" fill="#000000">public.unload_methods</text>
<text text-anchor="start" x="147.0219" y="-428.8" font-family="Helvetica,sans-Serif" font-size="11.00" fill="#000000">[table]</text>
<polygon fill="none" stroke="#000000" points="8.5,-401.7 8.5,-420.7 181.5,-420.7 181.5,-401.7 8.5,-401.7"/>
<text text-anchor="start" x="11.5" y="-407.8" font-family="Helvetica,sans-Serif" font-size="11.00" fill="#000000">...</text>
<polygon fill="#ffffff" stroke="transparent" points="8.5,-382.7 8.5,-401.7 71.5,-401.7 71.5,-382.7 8.5,-382.7"/>
<polygon fill="none" stroke="#000000" points="8.5,-382.7 8.5,-401.7 71.5,-401.7 71.5,-382.7 8.5,-382.7"/>
<text text-anchor="start" x="11.5" y="-388.8" font-family="Helvetica,sans-Serif" font-size="11.00" fill="#000000"> &#160;</text>
<polygon fill="#ffffff" stroke="transparent" points="71.5,-382.7 71.5,-401.7 134.5,-401.7 134.5,-382.7 71.5,-382.7"/>
<polygon fill="none" stroke="#000000" points="71.5,-382.7 71.5,-401.7 134.5,-401.7 134.5,-382.7 71.5,-382.7"/>
<text text-anchor="start" x="99.1105" y="-388.8" font-family="Helvetica,sans-Serif" font-size="11.00" fill="#000000">0 rows</text>
<polygon fill="#ffffff" stroke="transparent" points="134.5,-382.7 134.5,-401.7 181.5,-401.7 181.5,-382.7 134.5,-382.7"/>
<polygon fill="none" stroke="#000000" points="134.5,-382.7 134.5,-401.7 181.5,-401.7 181.5,-382.7 134.5,-382.7"/>
<text text-anchor="start" x="162.9053" y="-388.8" font-family="Helvetica,sans-Serif" font-size="11.00" fill="#000000">1 &gt;</text>
</a>
</g>
</g>
<!-- inbound_receipt&#45;&gt;public.unload_methods -->
<g id="edge4" class="edge">
<title>inbound_receipt:w&#45;&gt;public.unload_methods:e</title>
<path fill="none" stroke="#000000" d="M221.5309,-410.7C208.1187,-410.7 194.4427,-410.7 181.5,-410.7"/>
<polygon fill="#000000" stroke="#000000" points="227.9339,-410.7001 235.9339,-414.3 231.9339,-410.7 235.9339,-410.7 235.9339,-410.7 235.9339,-410.7 231.9339,-410.7 235.9339,-407.1 227.9339,-410.7001 227.9339,-410.7001"/>
<ellipse fill="none" stroke="#000000" cx="224.7339" cy="-410.7001" rx="3.2" ry="3.2"/>
</g>
<!-- public.warehouses -->
<g id="node5" class="node">
<title>public.warehouses</title>
<g id="a_node5"><a xlink:href="../../../public/tables/warehouses.html" xlink:title="public.warehouses" target="_top">
<polygon fill="#ffffff" stroke="transparent" points="21,-301.2 21,-362.2 168,-362.2 168,-301.2 21,-301.2"/>
<polygon fill="#f5f5f5" stroke="transparent" points="21.5,-338.7 21.5,-361.7 168.5,-361.7 168.5,-338.7 21.5,-338.7"/>
<polygon fill="none" stroke="#000000" points="21.5,-338.7 21.5,-361.7 168.5,-361.7 168.5,-338.7 21.5,-338.7"/>
<text text-anchor="start" x="26.5" y="-347.3" font-family="Helvetica,sans-Serif" font-weight="bold" font-size="11.00" fill="#000000">public.warehouses</text>
<text text-anchor="start" x="134.0219" y="-346.8" font-family="Helvetica,sans-Serif" font-size="11.00" fill="#000000">[table]</text>
<polygon fill="none" stroke="#000000" points="21.5,-319.7 21.5,-338.7 168.5,-338.7 168.5,-319.7 21.5,-319.7"/>
<text text-anchor="start" x="24.5" y="-325.8" font-family="Helvetica,sans-Serif" font-size="11.00" fill="#000000">...</text>
<polygon fill="#ffffff" stroke="transparent" points="21.5,-300.7 21.5,-319.7 71.5,-319.7 71.5,-300.7 21.5,-300.7"/>
<polygon fill="none" stroke="#000000" points="21.5,-300.7 21.5,-319.7 71.5,-319.7 71.5,-300.7 21.5,-300.7"/>
<text text-anchor="start" x="24.5" y="-306.8" font-family="Helvetica,sans-Serif" font-size="11.00" fill="#000000"> &#160;</text>
<polygon fill="#ffffff" stroke="transparent" points="71.5,-300.7 71.5,-319.7 128.5,-319.7 128.5,-300.7 71.5,-300.7"/>
<polygon fill="none" stroke="#000000" points="71.5,-300.7 71.5,-319.7 128.5,-319.7 128.5,-300.7 71.5,-300.7"/>
<text text-anchor="start" x="93.1105" y="-306.8" font-family="Helvetica,sans-Serif" font-size="11.00" fill="#000000">0 rows</text>
<polygon fill="#ffffff" stroke="transparent" points="128.5,-300.7 128.5,-319.7 168.5,-319.7 168.5,-300.7 128.5,-300.7"/>
<polygon fill="none" stroke="#000000" points="128.5,-300.7 128.5,-319.7 168.5,-319.7 168.5,-300.7 128.5,-300.7"/>
<text text-anchor="start" x="149.9053" y="-306.8" font-family="Helvetica,sans-Serif" font-size="11.00" fill="#000000">5 &gt;</text>
</a>
</g>
</g>
<!-- inbound_receipt&#45;&gt;public.warehouses -->
<g id="edge6" class="edge">
<title>inbound_receipt:w&#45;&gt;public.warehouses:e</title>
<path fill="none" stroke="#000000" d="M222.086,-378.4717C206.9067,-372.9071 191.1834,-367.1431 176.1777,-361.6422"/>
<polygon fill="#000000" stroke="#000000" points="228.3259,-380.7591 234.598,-386.8927 232.0815,-382.1359 235.8371,-383.5127 235.8371,-383.5127 235.8371,-383.5127 232.0815,-382.1359 237.0762,-380.1326 228.3259,-380.7591 228.3259,-380.7591"/>
<ellipse fill="none" stroke="#000000" cx="225.3214" cy="-379.6577" rx="3.2" ry="3.2"/>
</g>
<!-- inventory_lots -->
<g id="node6" class="node">
<title>inventory_lots</title>
<g id="a_node6"><a xlink:href="../../tables/inventory_lots.html" xlink:title="inventory_lots" target="_top">
<polygon fill="#ffffff" stroke="transparent" points="439,-120.7 439,-496.7 686,-496.7 686,-120.7 439,-120.7"/>
<polygon fill="#f5f5f5" stroke="transparent" points="441.5,-471.7 441.5,-494.7 684.5,-494.7 684.5,-471.7 441.5,-471.7"/>
<polygon fill="none" stroke="#000000" points="441.5,-471.7 441.5,-494.7 684.5,-494.7 684.5,-471.7 441.5,-471.7"/>
<text text-anchor="start" x="446.5" y="-480.3" font-family="Helvetica,sans-Serif" font-weight="bold" font-size="11.00" fill="#000000">inventory_lots</text>
<text text-anchor="start" x="649.5437" y="-479.8" font-family="Helvetica,sans-Serif" font-size="11.00" fill="#000000">[table]</text>
<polygon fill="none" stroke="#000000" points="441.5,-449.7 441.5,-471.7 592.5,-471.7 592.5,-449.7 441.5,-449.7"/>
<image xlink:href="../../images/primaryKeys.png" width="11px" height="12px" preserveAspectRatio="xMinYMin meet" x="446.5" y="-466.7"/>
<text text-anchor="start" x="461.5" y="-456.8" font-family="Helvetica,sans-Serif" font-size="11.00" fill="#000000">inventory_lot_id</text>
<polygon fill="none" stroke="#000000" points="592.5,-449.7 592.5,-471.7 684.5,-471.7 684.5,-449.7 592.5,-449.7"/>
<text text-anchor="start" x="595.5" y="-457.4" font-family="Helvetica,sans-Serif" font-size="11.00" fill="#000000">int8[19]</text>
<polygon fill="none" stroke="#000000" points="441.5,-427.7 441.5,-449.7 592.5,-449.7 592.5,-427.7 441.5,-427.7"/>
<image xlink:href="../../images/foreignKeys.png" width="11px" height="12px" preserveAspectRatio="xMinYMin meet" x="446.5" y="-444.7"/>
<text text-anchor="start" x="461.5" y="-434.8" font-family="Helvetica,sans-Serif" font-size="11.00" fill="#000000">warehouse_id</text>
<polygon fill="none" stroke="#000000" points="592.5,-427.7 592.5,-449.7 684.5,-449.7 684.5,-427.7 592.5,-427.7"/>
<text text-anchor="start" x="595.5" y="-435.4" font-family="Helvetica,sans-Serif" font-size="11.00" fill="#000000">int8[19]</text>
<polygon fill="none" stroke="#000000" points="441.5,-405.7 441.5,-427.7 592.5,-427.7 592.5,-405.7 441.5,-405.7"/>
<text text-anchor="start" x="461.5" y="-412.8" font-family="Helvetica,sans-Serif" font-size="11.00" fill="#000000">storage_location_code</text>
<polygon fill="none" stroke="#000000" points="592.5,-405.7 592.5,-427.7 684.5,-427.7 684.5,-405.7 592.5,-405.7"/>
<text text-anchor="start" x="595.5" y="-413.4" font-family="Helvetica,sans-Serif" font-size="11.00" fill="#000000">varchar[100]</text>
<polygon fill="#ffffff" stroke="transparent" points="441.5,-383.7 441.5,-405.7 592.5,-405.7 592.5,-383.7 441.5,-383.7"/>
<polygon fill="none" stroke="#000000" points="441.5,-383.7 441.5,-405.7 592.5,-405.7 592.5,-383.7 441.5,-383.7"/>
<text text-anchor="start" x="461.5" y="-390.8" font-family="Helvetica,sans-Serif" font-size="11.00" fill="#000000">status</text>
<polygon fill="none" stroke="#000000" points="592.5,-383.7 592.5,-405.7 684.5,-405.7 684.5,-383.7 592.5,-383.7"/>
<text text-anchor="start" x="595.5" y="-391.4" font-family="Helvetica,sans-Serif" font-size="11.00" fill="#000000">varchar[50]</text>
<polygon fill="none" stroke="#000000" points="441.5,-361.7 441.5,-383.7 592.5,-383.7 592.5,-361.7 441.5,-361.7"/>
<text text-anchor="start" x="461.5" y="-368.8" font-family="Helvetica,sans-Serif" font-size="11.00" fill="#000000">notes</text>
<polygon fill="none" stroke="#000000" points="592.5,-361.7 592.5,-383.7 684.5,-383.7 684.5,-361.7 592.5,-361.7"/>
<text text-anchor="start" x="595.5" y="-369.4" font-family="Helvetica,sans-Serif" font-size="11.00" fill="#000000">text[2147483647]</text>
<polygon fill="none" stroke="#000000" points="441.5,-339.7 441.5,-361.7 592.5,-361.7 592.5,-339.7 441.5,-339.7"/>
<image xlink:href="../../images/foreignKeys.png" width="11px" height="12px" preserveAspectRatio="xMinYMin meet" x="446.5" y="-356.7"/>
<text text-anchor="start" x="461.5" y="-346.8" font-family="Helvetica,sans-Serif" font-size="11.00" fill="#000000">order_id</text>
<polygon fill="none" stroke="#000000" points="592.5,-339.7 592.5,-361.7 684.5,-361.7 684.5,-339.7 592.5,-339.7"/>
<text text-anchor="start" x="595.5" y="-347.4" font-family="Helvetica,sans-Serif" font-size="11.00" fill="#000000">int8[19]</text>
<polygon fill="#ffffff" stroke="transparent" points="441.5,-317.7 441.5,-339.7 592.5,-339.7 592.5,-317.7 441.5,-317.7"/>
<polygon fill="none" stroke="#000000" points="441.5,-317.7 441.5,-339.7 592.5,-339.7 592.5,-317.7 441.5,-317.7"/>
<image xlink:href="../../images/foreignKeys.png" width="11px" height="12px" preserveAspectRatio="xMinYMin meet" x="446.5" y="-334.7"/>
<text text-anchor="start" x="461.5" y="-324.8" font-family="Helvetica,sans-Serif" font-size="11.00" fill="#000000">order_detail_id</text>
<polygon fill="none" stroke="#000000" points="592.5,-317.7 592.5,-339.7 684.5,-339.7 684.5,-317.7 592.5,-317.7"/>
<text text-anchor="start" x="595.5" y="-325.4" font-family="Helvetica,sans-Serif" font-size="11.00" fill="#000000">int8[19]</text>
<polygon fill="none" stroke="#000000" points="441.5,-295.7 441.5,-317.7 592.5,-317.7 592.5,-295.7 441.5,-295.7"/>
<text text-anchor="start" x="461.5" y="-302.8" font-family="Helvetica,sans-Serif" font-size="11.00" fill="#000000">created_at</text>
<polygon fill="none" stroke="#000000" points="592.5,-295.7 592.5,-317.7 684.5,-317.7 684.5,-295.7 592.5,-295.7"/>
<text text-anchor="start" x="595.1023" y="-303.4" font-family="Helvetica,sans-Serif" font-size="11.00" fill="#000000">timestamptz[35,6]</text>
<polygon fill="none" stroke="#000000" points="441.5,-273.7 441.5,-295.7 592.5,-295.7 592.5,-273.7 441.5,-273.7"/>
<text text-anchor="start" x="461.5" y="-280.8" font-family="Helvetica,sans-Serif" font-size="11.00" fill="#000000">updated_at</text>
<polygon fill="none" stroke="#000000" points="592.5,-273.7 592.5,-295.7 684.5,-295.7 684.5,-273.7 592.5,-273.7"/>
<text text-anchor="start" x="595.1023" y="-281.4" font-family="Helvetica,sans-Serif" font-size="11.00" fill="#000000">timestamptz[35,6]</text>
<polygon fill="none" stroke="#000000" points="441.5,-251.7 441.5,-273.7 592.5,-273.7 592.5,-251.7 441.5,-251.7"/>
<image xlink:href="../../images/foreignKeys.png" width="11px" height="12px" preserveAspectRatio="xMinYMin meet" x="446.5" y="-268.7"/>
<text text-anchor="start" x="461.5" y="-258.8" font-family="Helvetica,sans-Serif" font-size="11.00" fill="#000000">created_by</text>
<polygon fill="none" stroke="#000000" points="592.5,-251.7 592.5,-273.7 684.5,-273.7 684.5,-251.7 592.5,-251.7"/>
<text text-anchor="start" x="595.5" y="-259.4" font-family="Helvetica,sans-Serif" font-size="11.00" fill="#000000">int8[19]</text>
<polygon fill="none" stroke="#000000" points="441.5,-229.7 441.5,-251.7 592.5,-251.7 592.5,-229.7 441.5,-229.7"/>
<image xlink:href="../../images/foreignKeys.png" width="11px" height="12px" preserveAspectRatio="xMinYMin meet" x="446.5" y="-246.7"/>
<text text-anchor="start" x="461.5" y="-236.8" font-family="Helvetica,sans-Serif" font-size="11.00" fill="#000000">updated_by</text>
<polygon fill="none" stroke="#000000" points="592.5,-229.7 592.5,-251.7 684.5,-251.7 684.5,-229.7 592.5,-229.7"/>
<text text-anchor="start" x="595.5" y="-237.4" font-family="Helvetica,sans-Serif" font-size="11.00" fill="#000000">int8[19]</text>
<polygon fill="#ffffff" stroke="transparent" points="441.5,-207.7 441.5,-229.7 592.5,-229.7 592.5,-207.7 441.5,-207.7"/>
<polygon fill="none" stroke="#000000" points="441.5,-207.7 441.5,-229.7 592.5,-229.7 592.5,-207.7 441.5,-207.7"/>
<image xlink:href="../../images/foreignKeys.png" width="11px" height="12px" preserveAspectRatio="xMinYMin meet" x="446.5" y="-224.7"/>
<text text-anchor="start" x="461.5" y="-214.8" font-family="Helvetica,sans-Serif" font-size="11.00" fill="#000000">inbound_receipt_id</text>
<polygon fill="none" stroke="#000000" points="592.5,-207.7 592.5,-229.7 684.5,-229.7 684.5,-207.7 592.5,-207.7"/>
<text text-anchor="start" x="595.5" y="-215.4" font-family="Helvetica,sans-Serif" font-size="11.00" fill="#000000">int8[19]</text>
<polygon fill="none" stroke="#000000" points="441.5,-185.7 441.5,-207.7 592.5,-207.7 592.5,-185.7 441.5,-185.7"/>
<text text-anchor="start" x="461.5" y="-192.8" font-family="Helvetica,sans-Serif" font-size="11.00" fill="#000000">lot_number</text>
<polygon fill="none" stroke="#000000" points="592.5,-185.7 592.5,-207.7 684.5,-207.7 684.5,-185.7 592.5,-185.7"/>
<text text-anchor="start" x="595.5" y="-193.4" font-family="Helvetica,sans-Serif" font-size="11.00" fill="#000000">varchar[50]</text>
<polygon fill="none" stroke="#000000" points="441.5,-163.7 441.5,-185.7 592.5,-185.7 592.5,-163.7 441.5,-163.7"/>
<text text-anchor="start" x="461.5" y="-170.8" font-family="Helvetica,sans-Serif" font-size="11.00" fill="#000000">received_date</text>
<polygon fill="none" stroke="#000000" points="592.5,-163.7 592.5,-185.7 684.5,-185.7 684.5,-163.7 592.5,-163.7"/>
<text text-anchor="start" x="595.5" y="-171.4" font-family="Helvetica,sans-Serif" font-size="11.00" fill="#000000">date[13]</text>
<polygon fill="none" stroke="#000000" points="441.5,-141.7 441.5,-163.7 592.5,-163.7 592.5,-141.7 441.5,-141.7"/>
<text text-anchor="start" x="461.5" y="-148.8" font-family="Helvetica,sans-Serif" font-size="11.00" fill="#000000">pallet_count</text>
<polygon fill="none" stroke="#000000" points="592.5,-141.7 592.5,-163.7 684.5,-163.7 684.5,-141.7 592.5,-141.7"/>
<text text-anchor="start" x="595.5" y="-149.4" font-family="Helvetica,sans-Serif" font-size="11.00" fill="#000000">int4[10]</text>
<polygon fill="#ffffff" stroke="transparent" points="441.5,-122.7 441.5,-141.7 508.5,-141.7 508.5,-122.7 441.5,-122.7"/>
<polygon fill="none" stroke="#000000" points="441.5,-122.7 441.5,-141.7 508.5,-141.7 508.5,-122.7 441.5,-122.7"/>
<text text-anchor="start" x="444.5" y="-128.8" font-family="Helvetica,sans-Serif" font-size="11.00" fill="#000000">&lt; 6</text>
<polygon fill="#ffffff" stroke="transparent" points="508.5,-122.7 508.5,-141.7 592.5,-141.7 592.5,-122.7 508.5,-122.7"/>
<polygon fill="none" stroke="#000000" points="508.5,-122.7 508.5,-141.7 592.5,-141.7 592.5,-122.7 508.5,-122.7"/>
<text text-anchor="start" x="557.1105" y="-128.8" font-family="Helvetica,sans-Serif" font-size="11.00" fill="#000000">5 rows</text>
<polygon fill="#ffffff" stroke="transparent" points="592.5,-122.7 592.5,-141.7 684.5,-141.7 684.5,-122.7 592.5,-122.7"/>
<polygon fill="none" stroke="#000000" points="592.5,-122.7 592.5,-141.7 684.5,-141.7 684.5,-122.7 592.5,-122.7"/>
<text text-anchor="start" x="665.9053" y="-128.8" font-family="Helvetica,sans-Serif" font-size="11.00" fill="#000000">0 &gt;</text>
<polygon fill="none" stroke="#000000" stroke-width="2" points="440,-121.7 440,-495.7 685,-495.7 685,-121.7 440,-121.7"/>
</a>
</g>
</g>
<!-- inventory_lots&#45;&gt;inbound_receipt -->
<g id="edge8" class="edge">
<title>inventory_lots:w&#45;&gt;inbound_receipt:e</title>
<path fill="none" stroke="#000000" d="M427.028,-220.5981C382.6411,-234.4645 439.675,-320.9819 398,-369.7 393.9462,-374.4389 389.226,-378.6644 384.1166,-382.4259"/>
<polygon fill="#000000" stroke="#000000" points="433.5679,-219.7404 441.9682,-222.2694 437.534,-219.2202 441.5,-218.7 441.5,-218.7 441.5,-218.7 437.534,-219.2202 441.0318,-215.1306 433.5679,-219.7404 433.5679,-219.7404"/>
<ellipse fill="none" stroke="#000000" cx="430.3951" cy="-220.1566" rx="3.2" ry="3.2"/>
</g>
<!-- inventory_lots&#45;&gt;public.users -->
<g id="edge7" class="edge">
<title>inventory_lots:w&#45;&gt;public.users:e</title>
<path fill="none" stroke="#000000" d="M427.6788,-258.3879C414.4055,-247.2567 420.7159,-217.5988 398,-205.7 357.6413,-184.5598 233.5489,-185.5756 157.1084,-188.4718"/>
<polygon fill="#000000" stroke="#000000" points="433.863,-260.3173 440.4278,-266.1366 437.6815,-261.5087 441.5,-262.7 441.5,-262.7 441.5,-262.7 437.6815,-261.5087 442.5722,-259.2634 433.863,-260.3173 433.863,-260.3173"/>
<ellipse fill="none" stroke="#000000" cx="430.8083" cy="-259.3642" rx="3.2" ry="3.2"/>
</g>
<!-- inventory_lots&#45;&gt;public.users -->
<g id="edge11" class="edge">
<title>inventory_lots:w&#45;&gt;public.users:e</title>
<path fill="none" stroke="#000000" d="M427.7095,-236.3277C414.5103,-225.051 420.9841,-195.0721 398,-183.7 321.821,-146.0081 221.1953,-158.9732 157.1443,-173.7337"/>
<polygon fill="#000000" stroke="#000000" points="433.8741,-238.2821 440.412,-244.1317 437.6871,-239.4911 441.5,-240.7 441.5,-240.7 441.5,-240.7 437.6871,-239.4911 442.588,-237.2683 433.8741,-238.2821 433.8741,-238.2821"/>
<ellipse fill="none" stroke="#000000" cx="430.8238" cy="-237.315" rx="3.2" ry="3.2"/>
</g>
<!-- inventory_lots&#45;&gt;public.orders -->
<g id="edge10" class="edge">
<title>inventory_lots:w&#45;&gt;public.orders:e</title>
<path fill="none" stroke="#000000" d="M426.9416,-353.4423C395.3789,-368.4867 438.9326,-441.4558 398,-472.7 330.1639,-524.4799 227.1299,-520.0818 160.3054,-509.7789"/>
<polygon fill="#000000" stroke="#000000" points="433.6383,-352.181 442.1664,-354.2378 437.5691,-351.4405 441.5,-350.7 441.5,-350.7 441.5,-350.7 437.5691,-351.4405 440.8336,-347.1622 433.6383,-352.181 433.6383,-352.181"/>
<ellipse fill="none" stroke="#000000" cx="430.4936" cy="-352.7733" rx="3.2" ry="3.2"/>
</g>
<!-- inventory_lots&#45;&gt;public.warehouses -->
<g id="edge12" class="edge">
<title>inventory_lots:w&#45;&gt;public.warehouses:e</title>
<path fill="none" stroke="#000000" d="M427.1019,-440.9142C417.8653,-444.0541 412.0385,-449.6471 398,-451.7 320.6009,-463.0181 287.1043,-495.0606 222,-451.7 190.3299,-430.6072 215.7219,-399.7895 189,-372.7 185.1067,-368.7531 180.7706,-365.1609 176.156,-361.8954"/>
<polygon fill="#000000" stroke="#000000" points="433.593,-439.916 442.0472,-442.2582 437.5465,-439.308 441.5,-438.7 441.5,-438.7 441.5,-438.7 437.5465,-439.308 440.9528,-435.1418 433.593,-439.916 433.593,-439.916"/>
<ellipse fill="none" stroke="#000000" cx="430.4301" cy="-440.4024" rx="3.2" ry="3.2"/>
</g>
<!-- public.order_detail -->
<g id="node7" class="node">
<title>public.order_detail</title>
<g id="a_node7"><a xlink:href="../../../public/tables/order_detail.html" xlink:title="public.order_detail" target="_top">
<polygon fill="#ffffff" stroke="transparent" points="237,-298.2 237,-359.2 383,-359.2 383,-298.2 237,-298.2"/>
<polygon fill="#f5f5f5" stroke="transparent" points="237,-335.7 237,-358.7 383,-358.7 383,-335.7 237,-335.7"/>
<polygon fill="none" stroke="#000000" points="237,-335.7 237,-358.7 383,-358.7 383,-335.7 237,-335.7"/>
<text text-anchor="start" x="242" y="-344.3" font-family="Helvetica,sans-Serif" font-weight="bold" font-size="11.00" fill="#000000">public.order_detail</text>
<text text-anchor="start" x="348.5219" y="-343.8" font-family="Helvetica,sans-Serif" font-size="11.00" fill="#000000">[table]</text>
<polygon fill="none" stroke="#000000" points="237,-316.7 237,-335.7 383,-335.7 383,-316.7 237,-316.7"/>
<text text-anchor="start" x="240" y="-322.8" font-family="Helvetica,sans-Serif" font-size="11.00" fill="#000000">...</text>
<polygon fill="#ffffff" stroke="transparent" points="237,-297.7 237,-316.7 286,-316.7 286,-297.7 237,-297.7"/>
<polygon fill="none" stroke="#000000" points="237,-297.7 237,-316.7 286,-316.7 286,-297.7 237,-297.7"/>
<text text-anchor="start" x="240" y="-303.8" font-family="Helvetica,sans-Serif" font-size="11.00" fill="#000000"> &#160;</text>
<polygon fill="#ffffff" stroke="transparent" points="286,-297.7 286,-316.7 343,-316.7 343,-297.7 286,-297.7"/>
<polygon fill="none" stroke="#000000" points="286,-297.7 286,-316.7 343,-316.7 343,-297.7 286,-297.7"/>
<text text-anchor="start" x="307.6105" y="-303.8" font-family="Helvetica,sans-Serif" font-size="11.00" fill="#000000">0 rows</text>
<polygon fill="#ffffff" stroke="transparent" points="343,-297.7 343,-316.7 383,-316.7 383,-297.7 343,-297.7"/>
<polygon fill="none" stroke="#000000" points="343,-297.7 343,-316.7 383,-316.7 383,-297.7 343,-297.7"/>
<text text-anchor="start" x="364.4053" y="-303.8" font-family="Helvetica,sans-Serif" font-size="11.00" fill="#000000">2 &gt;</text>
</a>
</g>
</g>
<!-- inventory_lots&#45;&gt;public.order_detail -->
<g id="edge9" class="edge">
<title>inventory_lots:w&#45;&gt;public.order_detail:e</title>
<path fill="none" stroke="#000000" d="M426.7106,-328.7C414.8758,-328.7 402.7578,-328.7 391.0206,-328.7"/>
<polygon fill="#000000" stroke="#000000" points="433.5,-328.7001 441.5,-332.3 437.5,-328.7 441.5,-328.7 441.5,-328.7 441.5,-328.7 437.5,-328.7 441.5,-325.1 433.5,-328.7001 433.5,-328.7001"/>
<ellipse fill="none" stroke="#000000" cx="430.3" cy="-328.7001" rx="3.2" ry="3.2"/>
</g>
<!-- outbound_shipment_lines -->
<g id="node8" class="node">
<title>outbound_shipment_lines</title>
<g id="a_node8"><a xlink:href="../../tables/outbound_shipment_lines.html" xlink:title="outbound_shipment_lines" target="_top">
<polygon fill="#ffffff" stroke="transparent" points="468.5,-38.2 468.5,-99.2 656.5,-99.2 656.5,-38.2 468.5,-38.2"/>
<polygon fill="#f5f5f5" stroke="transparent" points="468.5,-75.7 468.5,-98.7 656.5,-98.7 656.5,-75.7 468.5,-75.7"/>
<polygon fill="none" stroke="#000000" points="468.5,-75.7 468.5,-98.7 656.5,-98.7 656.5,-75.7 468.5,-75.7"/>
<text text-anchor="start" x="473.5" y="-84.3" font-family="Helvetica,sans-Serif" font-weight="bold" font-size="11.00" fill="#000000">outbound_shipment_lines</text>
<text text-anchor="start" x="622.0219" y="-83.8" font-family="Helvetica,sans-Serif" font-size="11.00" fill="#000000">[table]</text>
<polygon fill="none" stroke="#000000" points="468.5,-56.7 468.5,-75.7 656.5,-75.7 656.5,-56.7 468.5,-56.7"/>
<text text-anchor="start" x="471.5" y="-62.8" font-family="Helvetica,sans-Serif" font-size="11.00" fill="#000000">...</text>
<polygon fill="#ffffff" stroke="transparent" points="468.5,-37.7 468.5,-56.7 547.5,-56.7 547.5,-37.7 468.5,-37.7"/>
<polygon fill="none" stroke="#000000" points="468.5,-37.7 468.5,-56.7 547.5,-56.7 547.5,-37.7 468.5,-37.7"/>
<text text-anchor="start" x="471.5" y="-43.8" font-family="Helvetica,sans-Serif" font-size="11.00" fill="#000000">&lt; 5</text>
<polygon fill="#ffffff" stroke="transparent" points="547.5,-37.7 547.5,-56.7 614.5,-56.7 614.5,-37.7 547.5,-37.7"/>
<polygon fill="none" stroke="#000000" points="547.5,-37.7 547.5,-56.7 614.5,-56.7 614.5,-37.7 547.5,-37.7"/>
<text text-anchor="start" x="579.1105" y="-43.8" font-family="Helvetica,sans-Serif" font-size="11.00" fill="#000000">6 rows</text>
<polygon fill="#ffffff" stroke="transparent" points="614.5,-37.7 614.5,-56.7 656.5,-56.7 656.5,-37.7 614.5,-37.7"/>
<polygon fill="none" stroke="#000000" points="614.5,-37.7 614.5,-56.7 656.5,-56.7 656.5,-37.7 614.5,-37.7"/>
<text text-anchor="start" x="647.3862" y="-43.8" font-family="Helvetica,sans-Serif" font-size="11.00" fill="#000000"> &#160;</text>
</a>
</g>
</g>
<!-- outbound_shipment_lines&#45;&gt;public.users -->
<g id="edge13" class="edge">
<title>outbound_shipment_lines:w&#45;&gt;public.users:e</title>
<path fill="none" stroke="#000000" d="M453.8676,-64.6785C355.5306,-56.3225 318.6931,-22.9761 222,-62.7 176.0541,-81.5757 137.3361,-125.5876 115.0121,-157.015"/>
<polygon fill="#000000" stroke="#000000" points="460.5194,-65.1428 468.2493,-69.2913 464.5097,-65.4214 468.5,-65.7 468.5,-65.7 468.5,-65.7 464.5097,-65.4214 468.7507,-62.1087 460.5194,-65.1428 460.5194,-65.1428"/>
<ellipse fill="none" stroke="#000000" cx="457.3272" cy="-64.9199" rx="3.2" ry="3.2"/>
</g>
<!-- outbound_shipment_lines&#45;&gt;public.users -->
<g id="edge17" class="edge">
<title>outbound_shipment_lines:w&#45;&gt;public.users:e</title>
<path fill="none" stroke="#000000" d="M453.8676,-66.3876C355.5306,-69.3225 318.6931,-35.9761 222,-75.7 181.0327,-92.5304 145.8118,-129.3445 122.835,-157.0896"/>
<polygon fill="#000000" stroke="#000000" points="460.5088,-66.0756 468.669,-69.296 464.5044,-65.8878 468.5,-65.7 468.5,-65.7 468.5,-65.7 464.5044,-65.8878 468.331,-62.104 460.5088,-66.0756 460.5088,-66.0756"/>
<ellipse fill="none" stroke="#000000" cx="457.3123" cy="-66.2258" rx="3.2" ry="3.2"/>
</g>
<!-- outbound_shipment_lines&#45;&gt;public.orders -->
<g id="edge15" class="edge">
<title>outbound_shipment_lines:w&#45;&gt;public.orders:e</title>
<path fill="none" stroke="#000000" d="M454.345,-68.6347C441.5772,-75.0884 438.7572,-91.4036 431,-109.7 401.1962,-179.9959 450.7639,-396.5117 398,-451.7 370.7009,-480.2535 261.0919,-471.0109 222,-476.7 201.8466,-479.6329 179.9104,-482.8815 160.0054,-485.8508"/>
<polygon fill="#000000" stroke="#000000" points="460.6666,-67.3241 469.2309,-69.225 464.5833,-66.5121 468.5,-65.7 468.5,-65.7 468.5,-65.7 464.5833,-66.5121 467.7691,-62.175 460.6666,-67.3241 460.6666,-67.3241"/>
<ellipse fill="none" stroke="#000000" cx="457.5332" cy="-67.9738" rx="3.2" ry="3.2"/>
</g>
<!-- outbound_shipment_lines&#45;&gt;public.order_detail -->
<g id="edge14" class="edge">
<title>outbound_shipment_lines:w&#45;&gt;public.order_detail:e</title>
<path fill="none" stroke="#000000" d="M454.0899,-68.8912C441.886,-75.583 439.4603,-91.94 431,-109.7 396.3975,-182.3385 447.2706,-224.0911 398,-287.7 395.9358,-290.365 393.6569,-292.8638 391.2097,-295.2061"/>
<polygon fill="#000000" stroke="#000000" points="460.6892,-67.4298 469.2784,-69.2148 464.5946,-66.5649 468.5,-65.7 468.5,-65.7 468.5,-65.7 464.5946,-66.5649 467.7216,-62.1852 460.6892,-67.4298 460.6892,-67.4298"/>
<ellipse fill="none" stroke="#000000" cx="457.5649" cy="-68.1217" rx="3.2" ry="3.2"/>
</g>
<!-- outbound_shipments -->
<g id="node9" class="node">
<title>outbound_shipments</title>
<g id="a_node9"><a xlink:href="../../tables/outbound_shipments.html" xlink:title="outbound_shipments" target="_top">
<polygon fill="#ffffff" stroke="transparent" points="230,-79.2 230,-140.2 390,-140.2 390,-79.2 230,-79.2"/>
<polygon fill="#f5f5f5" stroke="transparent" points="230,-116.7 230,-139.7 390,-139.7 390,-116.7 230,-116.7"/>
<polygon fill="none" stroke="#000000" points="230,-116.7 230,-139.7 390,-139.7 390,-116.7 230,-116.7"/>
<text text-anchor="start" x="235" y="-125.3" font-family="Helvetica,sans-Serif" font-weight="bold" font-size="11.00" fill="#000000">outbound_shipments</text>
<text text-anchor="start" x="355.5219" y="-124.8" font-family="Helvetica,sans-Serif" font-size="11.00" fill="#000000">[table]</text>
<polygon fill="none" stroke="#000000" points="230,-97.7 230,-116.7 390,-116.7 390,-97.7 230,-97.7"/>
<text text-anchor="start" x="233" y="-103.8" font-family="Helvetica,sans-Serif" font-size="11.00" fill="#000000">...</text>
<polygon fill="#ffffff" stroke="transparent" points="230,-78.7 230,-97.7 304,-97.7 304,-78.7 230,-78.7"/>
<polygon fill="none" stroke="#000000" points="230,-78.7 230,-97.7 304,-97.7 304,-78.7 230,-78.7"/>
<text text-anchor="start" x="233" y="-84.8" font-family="Helvetica,sans-Serif" font-size="11.00" fill="#000000">&lt; 8</text>
<polygon fill="#ffffff" stroke="transparent" points="304,-78.7 304,-97.7 342,-97.7 342,-78.7 304,-78.7"/>
<polygon fill="none" stroke="#000000" points="304,-78.7 304,-97.7 342,-97.7 342,-78.7 304,-78.7"/>
<text text-anchor="start" x="332.8862" y="-84.8" font-family="Helvetica,sans-Serif" font-size="11.00" fill="#000000"> &#160;</text>
<polygon fill="#ffffff" stroke="transparent" points="342,-78.7 342,-97.7 390,-97.7 390,-78.7 342,-78.7"/>
<polygon fill="none" stroke="#000000" points="342,-78.7 342,-97.7 390,-97.7 390,-78.7 342,-78.7"/>
<text text-anchor="start" x="371.4053" y="-84.8" font-family="Helvetica,sans-Serif" font-size="11.00" fill="#000000">1 &gt;</text>
</a>
</g>
</g>
<!-- outbound_shipment_lines&#45;&gt;outbound_shipments -->
<g id="edge16" class="edge">
<title>outbound_shipment_lines:w&#45;&gt;outbound_shipments:e</title>
<path fill="none" stroke="#000000" d="M454.0227,-67.9043C428.4187,-76.4205 423.8258,-106.7 390,-106.7"/>
<polygon fill="#000000" stroke="#000000" points="460.5912,-66.9043 469.0419,-69.259 464.5456,-66.3021 468.5,-65.7 468.5,-65.7 468.5,-65.7 464.5456,-66.3021 467.9581,-62.141 460.5912,-66.9043 460.5912,-66.9043"/>
<ellipse fill="none" stroke="#000000" cx="457.4276" cy="-67.386" rx="3.2" ry="3.2"/>
</g>
<!-- outbound_shipments&#45;&gt;public.users -->
<g id="edge18" class="edge">
<title>outbound_shipments:w&#45;&gt;public.users:e</title>
<path fill="none" stroke="#000000" d="M215.525,-105.3535C175.7956,-105.1322 139.4994,-132.8083 117.2333,-157.1762"/>
<polygon fill="#000000" stroke="#000000" points="222.0344,-105.959 229.6665,-110.2845 226.0172,-106.3295 230,-106.7 230,-106.7 230,-106.7 226.0172,-106.3295 230.3335,-103.1155 222.0344,-105.959 222.0344,-105.959"/>
<ellipse fill="none" stroke="#000000" cx="218.8481" cy="-105.6626" rx="3.2" ry="3.2"/>
</g>
<!-- outbound_shipments&#45;&gt;public.users -->
<g id="edge19" class="edge">
<title>outbound_shipments:w&#45;&gt;public.users:e</title>
<path fill="none" stroke="#000000" d="M215.5842,-107.8294C181.0205,-113.1642 149.0508,-136.4442 126.6509,-157.1272"/>
<polygon fill="#000000" stroke="#000000" points="222.0244,-107.3249 230.2812,-110.289 226.0122,-107.0124 230,-106.7 230,-106.7 230,-106.7 226.0122,-107.0124 229.7188,-103.111 222.0244,-107.3249 222.0244,-107.3249"/>
<ellipse fill="none" stroke="#000000" cx="218.8342" cy="-107.5748" rx="3.2" ry="3.2"/>
</g>
<!-- outbound_shipments&#45;&gt;public.users -->
<g id="edge20" class="edge">
<title>outbound_shipments:w&#45;&gt;public.users:e</title>
<path fill="none" stroke="#000000" d="M215.9251,-110.1981C186.5587,-119.3602 159.0466,-139.221 137.6607,-157.2"/>
<polygon fill="#000000" stroke="#000000" points="222.2362,-108.6296 230.8683,-110.1937 226.1181,-107.6648 230,-106.7 230,-106.7 230,-106.7 226.1181,-107.6648 229.1317,-103.2063 222.2362,-108.6296 222.2362,-108.6296"/>
<ellipse fill="none" stroke="#000000" cx="219.1307" cy="-109.4014" rx="3.2" ry="3.2"/>
</g>
<!-- outbound_shipments&#45;&gt;public.warehouses -->
<g id="edge21" class="edge">
<title>outbound_shipments:w&#45;&gt;public.warehouses:e</title>
<path fill="none" stroke="#000000" d="M215.6351,-108.7649C179.755,-121.1971 216.2464,-187.0776 189,-232.7 174.7459,-256.5677 153.782,-279.2977 135.2188,-296.9445"/>
<polygon fill="#000000" stroke="#000000" points="222.0814,-107.8383 230.5122,-110.2634 226.0407,-107.2692 230,-106.7 230,-106.7 230,-106.7 226.0407,-107.2692 229.4878,-103.1366 222.0814,-107.8383 222.0814,-107.8383"/>
<ellipse fill="none" stroke="#000000" cx="218.914" cy="-108.2937" rx="3.2" ry="3.2"/>
</g>
<!-- putaway_tasks -->
<g id="node10" class="node">
<title>putaway_tasks</title>
<g id="a_node10"><a xlink:href="../../tables/putaway_tasks.html" xlink:title="putaway_tasks" target="_top">
<polygon fill="#ffffff" stroke="transparent" points="500.5,-518.2 500.5,-579.2 624.5,-579.2 624.5,-518.2 500.5,-518.2"/>
<polygon fill="#f5f5f5" stroke="transparent" points="500.5,-555.7 500.5,-578.7 624.5,-578.7 624.5,-555.7 500.5,-555.7"/>
<polygon fill="none" stroke="#000000" points="500.5,-555.7 500.5,-578.7 624.5,-578.7 624.5,-555.7 500.5,-555.7"/>
<text text-anchor="start" x="505.5" y="-564.3" font-family="Helvetica,sans-Serif" font-weight="bold" font-size="11.00" fill="#000000">putaway_tasks</text>
<text text-anchor="start" x="590.0219" y="-563.8" font-family="Helvetica,sans-Serif" font-size="11.00" fill="#000000">[table]</text>
<polygon fill="none" stroke="#000000" points="500.5,-536.7 500.5,-555.7 624.5,-555.7 624.5,-536.7 500.5,-536.7"/>
<text text-anchor="start" x="503.5" y="-542.8" font-family="Helvetica,sans-Serif" font-size="11.00" fill="#000000">...</text>
<polygon fill="#ffffff" stroke="transparent" points="500.5,-517.7 500.5,-536.7 560.5,-536.7 560.5,-517.7 500.5,-517.7"/>
<polygon fill="none" stroke="#000000" points="500.5,-517.7 500.5,-536.7 560.5,-536.7 560.5,-517.7 500.5,-517.7"/>
<text text-anchor="start" x="503.5" y="-523.8" font-family="Helvetica,sans-Serif" font-size="11.00" fill="#000000">&lt; 2</text>
<polygon fill="#ffffff" stroke="transparent" points="560.5,-517.7 560.5,-536.7 592.5,-536.7 592.5,-517.7 560.5,-517.7"/>
<polygon fill="none" stroke="#000000" points="560.5,-517.7 560.5,-536.7 592.5,-536.7 592.5,-517.7 560.5,-517.7"/>
<text text-anchor="start" x="583.3862" y="-523.8" font-family="Helvetica,sans-Serif" font-size="11.00" fill="#000000"> &#160;</text>
<polygon fill="#ffffff" stroke="transparent" points="592.5,-517.7 592.5,-536.7 624.5,-536.7 624.5,-517.7 592.5,-517.7"/>
<polygon fill="none" stroke="#000000" points="592.5,-517.7 592.5,-536.7 624.5,-536.7 624.5,-517.7 592.5,-517.7"/>
<text text-anchor="start" x="615.3862" y="-523.8" font-family="Helvetica,sans-Serif" font-size="11.00" fill="#000000"> &#160;</text>
</a>
</g>
</g>
<!-- putaway_tasks&#45;&gt;inbound_receipt -->
<g id="edge22" class="edge">
<title>putaway_tasks:w&#45;&gt;inbound_receipt:e</title>
<path fill="none" stroke="#000000" d="M485.9987,-544.8346C422.6462,-537.3295 367.1281,-482.6529 336.1334,-445.4659"/>
<polygon fill="#000000" stroke="#000000" points="492.5142,-545.2234 500.2855,-549.2936 496.5071,-545.4617 500.5,-545.7 500.5,-545.7 500.5,-545.7 496.5071,-545.4617 500.7145,-542.1064 492.5142,-545.2234 492.5142,-545.2234"/>
<ellipse fill="none" stroke="#000000" cx="489.3199" cy="-545.0327" rx="3.2" ry="3.2"/>
</g>
<!-- putaway_tasks&#45;&gt;public.warehouses -->
<g id="edge23" class="edge">
<title>putaway_tasks:w&#45;&gt;public.warehouses:e</title>
<path fill="none" stroke="#000000" d="M485.822,-545.7599C368.0107,-546.6858 311.6163,-556.892 222,-472.7 187.8898,-440.6544 220.5613,-407.2587 189,-372.7 185.1408,-368.4742 180.7698,-364.6643 176.0753,-361.2322"/>
<polygon fill="#000000" stroke="#000000" points="492.5001,-545.7327 500.5147,-549.3 496.5,-545.7164 500.5,-545.7 500.5,-545.7 500.5,-545.7 496.5,-545.7164 500.4853,-542.1 492.5001,-545.7327 492.5001,-545.7327"/>
<ellipse fill="none" stroke="#000000" cx="489.3001" cy="-545.7458" rx="3.2" ry="3.2"/>
</g>
<!-- wms_labor_logs -->
<g id="node11" class="node">
<title>wms_labor_logs</title>
<g id="a_node11"><a xlink:href="../../tables/wms_labor_logs.html" xlink:title="wms_labor_logs" target="_top">
<polygon fill="#ffffff" stroke="transparent" points="243.5,-216.2 243.5,-277.2 376.5,-277.2 376.5,-216.2 243.5,-216.2"/>
<polygon fill="#f5f5f5" stroke="transparent" points="244,-253.7 244,-276.7 377,-276.7 377,-253.7 244,-253.7"/>
<polygon fill="none" stroke="#000000" points="244,-253.7 244,-276.7 377,-276.7 377,-253.7 244,-253.7"/>
<text text-anchor="start" x="249" y="-262.3" font-family="Helvetica,sans-Serif" font-weight="bold" font-size="11.00" fill="#000000">wms_labor_logs</text>
<text text-anchor="start" x="342.5219" y="-261.8" font-family="Helvetica,sans-Serif" font-size="11.00" fill="#000000">[table]</text>
<polygon fill="none" stroke="#000000" points="244,-234.7 244,-253.7 377,-253.7 377,-234.7 244,-234.7"/>
<text text-anchor="start" x="247" y="-240.8" font-family="Helvetica,sans-Serif" font-size="11.00" fill="#000000">...</text>
<polygon fill="#ffffff" stroke="transparent" points="244,-215.7 244,-234.7 309,-234.7 309,-215.7 244,-215.7"/>
<polygon fill="none" stroke="#000000" points="244,-215.7 244,-234.7 309,-234.7 309,-215.7 244,-215.7"/>
<text text-anchor="start" x="247" y="-221.8" font-family="Helvetica,sans-Serif" font-size="11.00" fill="#000000">&lt; 4</text>
<polygon fill="#ffffff" stroke="transparent" points="309,-215.7 309,-234.7 343,-234.7 343,-215.7 309,-215.7"/>
<polygon fill="none" stroke="#000000" points="309,-215.7 309,-234.7 343,-234.7 343,-215.7 309,-215.7"/>
<text text-anchor="start" x="333.8862" y="-221.8" font-family="Helvetica,sans-Serif" font-size="11.00" fill="#000000"> &#160;</text>
<polygon fill="#ffffff" stroke="transparent" points="343,-215.7 343,-234.7 377,-234.7 377,-215.7 343,-215.7"/>
<polygon fill="none" stroke="#000000" points="343,-215.7 343,-234.7 377,-234.7 377,-215.7 343,-215.7"/>
<text text-anchor="start" x="367.8862" y="-221.8" font-family="Helvetica,sans-Serif" font-size="11.00" fill="#000000"> &#160;</text>
</a>
</g>
</g>
<!-- wms_labor_logs&#45;&gt;public.users -->
<g id="edge24" class="edge">
<title>wms_labor_logs:w&#45;&gt;public.users:e</title>
<path fill="none" stroke="#000000" d="M229.7137,-240.5796C204.6266,-234.3108 179.1804,-224.0612 157.2331,-214.3928"/>
<polygon fill="#000000" stroke="#000000" points="236.1843,-241.9928 243.2318,-247.2171 240.0921,-242.8464 244,-243.7 244,-243.7 244,-243.7 240.0921,-242.8464 244.7682,-240.1829 236.1843,-241.9928 236.1843,-241.9928"/>
<ellipse fill="none" stroke="#000000" cx="233.058" cy="-241.31" rx="3.2" ry="3.2"/>
</g>
<!-- wms_labor_logs&#45;&gt;public.users -->
<g id="edge25" class="edge">
<title>wms_labor_logs:w&#45;&gt;public.users:e</title>
<path fill="none" stroke="#000000" d="M229.3637,-242.9936C204.39,-240.6518 179.0783,-232.7853 157.2331,-223.8927"/>
<polygon fill="#000000" stroke="#000000" points="236.0093,-243.3143 243.8264,-247.2958 240.0047,-243.5071 244,-243.7 244,-243.7 244,-243.7 240.0047,-243.5071 244.1736,-240.1042 236.0093,-243.3143 236.0093,-243.3143"/>
<ellipse fill="none" stroke="#000000" cx="232.813" cy="-243.16" rx="3.2" ry="3.2"/>
</g>
<!-- wms_labor_logs&#45;&gt;public.users -->
<g id="edge26" class="edge">
<title>wms_labor_logs:w&#45;&gt;public.users:e</title>
<path fill="none" stroke="#000000" d="M229.4516,-245.4897C197.6409,-247.5399 165.2746,-238.0182 140.2157,-226.2221"/>
<polygon fill="#000000" stroke="#000000" points="236.0599,-244.6768 244.4396,-247.2731 240.0299,-244.1884 244,-243.7 244,-243.7 244,-243.7 240.0299,-244.1884 243.5604,-240.1269 236.0599,-244.6768 236.0599,-244.6768"/>
<ellipse fill="none" stroke="#000000" cx="232.8838" cy="-245.0675" rx="3.2" ry="3.2"/>
</g>
<!-- wms_labor_logs&#45;&gt;public.warehouses -->
<g id="edge27" class="edge">
<title>wms_labor_logs:w&#45;&gt;public.warehouses:e</title>
<path fill="none" stroke="#000000" d="M229.5943,-244.6911C190.7331,-249.9543 154.194,-275.2154 128.9399,-297.1726"/>
<polygon fill="#000000" stroke="#000000" points="236.0189,-244.2492 244.2471,-247.2915 240.0094,-243.9746 244,-243.7 244,-243.7 244,-243.7 240.0094,-243.9746 243.7529,-240.1085 236.0189,-244.2492 236.0189,-244.2492"/>
<ellipse fill="none" stroke="#000000" cx="232.8264" cy="-244.4688" rx="3.2" ry="3.2"/>
</g>
</g>
</svg>
