<?xml version="1.0" encoding="UTF-8" standalone="no"?>
<!DOCTYPE svg PUBLIC "-//W3C//DTD SVG 1.1//EN"
 "http://www.w3.org/Graphics/SVG/1.1/DTD/svg11.dtd">
<!-- Generated by graphviz version 2.40.1 (20161225.0304)
 -->
<!-- Title: oneDegreeRelationshipsDiagram Pages: 1 -->
<svg width="662pt" height="540pt"
 viewBox="0.00 0.00 662.00 539.88" xmlns="http://www.w3.org/2000/svg" xmlns:xlink="http://www.w3.org/1999/xlink">
<g id="graph0" class="graph" transform="scale(1 1) rotate(0) translate(4 535.877)">
<title>oneDegreeRelationshipsDiagram</title>
<polygon fill="#ffffff" stroke="transparent" points="-4,4 -4,-535.877 658,-535.877 658,4 -4,4"/>
<text text-anchor="middle" x="72.4936" y="-7.3" font-family="Helvetica,sans-Serif" font-size="11.00" fill="#000000">Generated by SchemaSpy</text>
<!-- inbound_receipt -->
<g id="node1" class="node">
<title>inbound_receipt</title>
<g id="a_node1"><a xlink:href="../../tables/inbound_receipt.html" xlink:title="inbound_receipt" target="_top">
<polygon fill="#ffffff" stroke="transparent" points="204.5,-100.377 204.5,-315.377 349.5,-315.377 349.5,-100.377 204.5,-100.377"/>
<polygon fill="#f5f5f5" stroke="transparent" points="205,-291.877 205,-314.877 350,-314.877 350,-291.877 205,-291.877"/>
<polygon fill="none" stroke="#000000" points="205,-291.877 205,-314.877 350,-314.877 350,-291.877 205,-291.877"/>
<text text-anchor="start" x="210" y="-300.477" font-family="Helvetica,sans-Serif" font-weight="bold" font-size="11.00" fill="#000000">inbound_receipt</text>
<text text-anchor="start" x="315.0437" y="-299.977" font-family="Helvetica,sans-Serif" font-size="11.00" fill="#000000">[table]</text>
<polygon fill="none" stroke="#000000" points="205,-269.877 205,-291.877 350,-291.877 350,-269.877 205,-269.877"/>
<image xlink:href="../../images/primaryKeys.png" width="11px" height="12px" preserveAspectRatio="xMinYMin meet" x="210" y="-286.877"/>
<text text-anchor="start" x="225" y="-276.977" font-family="Helvetica,sans-Serif" font-size="11.00" fill="#000000">inbound_receipt_id</text>
<polygon fill="#ffffff" stroke="transparent" points="205,-247.877 205,-269.877 350,-269.877 350,-247.877 205,-247.877"/>
<polygon fill="none" stroke="#000000" points="205,-247.877 205,-269.877 350,-269.877 350,-247.877 205,-247.877"/>
<image xlink:href="../../images/foreignKeys.png" width="11px" height="12px" preserveAspectRatio="xMinYMin meet" x="210" y="-264.877"/>
<text text-anchor="start" x="225" y="-254.977" font-family="Helvetica,sans-Serif" font-size="11.00" fill="#000000">order_id</text>
<polygon fill="none" stroke="#000000" points="205,-225.877 205,-247.877 350,-247.877 350,-225.877 205,-225.877"/>
<image xlink:href="../../images/foreignKeys.png" width="11px" height="12px" preserveAspectRatio="xMinYMin meet" x="210" y="-242.877"/>
<text text-anchor="start" x="225" y="-232.977" font-family="Helvetica,sans-Serif" font-size="11.00" fill="#000000">received_by</text>
<polygon fill="none" stroke="#000000" points="205,-203.877 205,-225.877 350,-225.877 350,-203.877 205,-203.877"/>
<image xlink:href="../../images/foreignKeys.png" width="11px" height="12px" preserveAspectRatio="xMinYMin meet" x="210" y="-220.877"/>
<text text-anchor="start" x="225" y="-210.977" font-family="Helvetica,sans-Serif" font-size="11.00" fill="#000000">warehouse_id</text>
<polygon fill="none" stroke="#000000" points="205,-181.877 205,-203.877 350,-203.877 350,-181.877 205,-181.877"/>
<image xlink:href="../../images/foreignKeys.png" width="11px" height="12px" preserveAspectRatio="xMinYMin meet" x="210" y="-198.877"/>
<text text-anchor="start" x="225" y="-188.977" font-family="Helvetica,sans-Serif" font-size="11.00" fill="#000000">created_by</text>
<polygon fill="none" stroke="#000000" points="205,-159.877 205,-181.877 350,-181.877 350,-159.877 205,-159.877"/>
<image xlink:href="../../images/foreignKeys.png" width="11px" height="12px" preserveAspectRatio="xMinYMin meet" x="210" y="-176.877"/>
<text text-anchor="start" x="225" y="-166.977" font-family="Helvetica,sans-Serif" font-size="11.00" fill="#000000">updated_by</text>
<polygon fill="none" stroke="#000000" points="205,-137.877 205,-159.877 350,-159.877 350,-137.877 205,-137.877"/>
<image xlink:href="../../images/foreignKeys.png" width="11px" height="12px" preserveAspectRatio="xMinYMin meet" x="210" y="-154.877"/>
<text text-anchor="start" x="225" y="-144.977" font-family="Helvetica,sans-Serif" font-size="11.00" fill="#000000">unload_method_code</text>
<polygon fill="none" stroke="#000000" points="205,-118.877 205,-137.877 350,-137.877 350,-118.877 205,-118.877"/>
<text text-anchor="start" x="208" y="-124.977" font-family="Helvetica,sans-Serif" font-size="11.00" fill="#000000">...</text>
<polygon fill="#ffffff" stroke="transparent" points="205,-99.877 205,-118.877 258,-118.877 258,-99.877 205,-99.877"/>
<polygon fill="none" stroke="#000000" points="205,-99.877 205,-118.877 258,-118.877 258,-99.877 205,-99.877"/>
<text text-anchor="start" x="208" y="-105.977" font-family="Helvetica,sans-Serif" font-size="11.00" fill="#000000">&lt; 6</text>
<polygon fill="#ffffff" stroke="transparent" points="258,-99.877 258,-118.877 312,-118.877 312,-99.877 258,-99.877"/>
<polygon fill="none" stroke="#000000" points="258,-99.877 258,-118.877 312,-118.877 312,-99.877 258,-99.877"/>
<text text-anchor="start" x="276.6105" y="-105.977" font-family="Helvetica,sans-Serif" font-size="11.00" fill="#000000">2 rows</text>
<polygon fill="#ffffff" stroke="transparent" points="312,-99.877 312,-118.877 350,-118.877 350,-99.877 312,-99.877"/>
<polygon fill="none" stroke="#000000" points="312,-99.877 312,-118.877 350,-118.877 350,-99.877 312,-99.877"/>
<text text-anchor="start" x="331.4053" y="-105.977" font-family="Helvetica,sans-Serif" font-size="11.00" fill="#000000">2 &gt;</text>
</a>
</g>
</g>
<!-- public.users -->
<g id="node2" class="node">
<title>public.users</title>
<g id="a_node2"><a xlink:href="../../../public/tables/users.html" xlink:title="public.users" target="_top">
<polygon fill="#ffffff" stroke="transparent" points="27,-140.377 27,-201.377 136,-201.377 136,-140.377 27,-140.377"/>
<polygon fill="#f5f5f5" stroke="transparent" points="27.5,-177.877 27.5,-200.877 136.5,-200.877 136.5,-177.877 27.5,-177.877"/>
<polygon fill="none" stroke="#000000" points="27.5,-177.877 27.5,-200.877 136.5,-200.877 136.5,-177.877 27.5,-177.877"/>
<text text-anchor="start" x="32.5" y="-186.477" font-family="Helvetica,sans-Serif" font-weight="bold" font-size="11.00" fill="#000000">public.users</text>
<text text-anchor="start" x="102.0219" y="-185.977" font-family="Helvetica,sans-Serif" font-size="11.00" fill="#000000">[table]</text>
<polygon fill="none" stroke="#000000" points="27.5,-158.877 27.5,-177.877 136.5,-177.877 136.5,-158.877 27.5,-158.877"/>
<text text-anchor="start" x="30.5" y="-164.977" font-family="Helvetica,sans-Serif" font-size="11.00" fill="#000000">...</text>
<polygon fill="#ffffff" stroke="transparent" points="27.5,-139.877 27.5,-158.877 55.5,-158.877 55.5,-139.877 27.5,-139.877"/>
<polygon fill="none" stroke="#000000" points="27.5,-139.877 27.5,-158.877 55.5,-158.877 55.5,-139.877 27.5,-139.877"/>
<text text-anchor="start" x="30.5" y="-145.977" font-family="Helvetica,sans-Serif" font-size="11.00" fill="#000000"> &#160;</text>
<polygon fill="#ffffff" stroke="transparent" points="55.5,-139.877 55.5,-158.877 101.5,-158.877 101.5,-139.877 55.5,-139.877"/>
<polygon fill="none" stroke="#000000" points="55.5,-139.877 55.5,-158.877 101.5,-158.877 101.5,-139.877 55.5,-139.877"/>
<text text-anchor="start" x="66.1105" y="-145.977" font-family="Helvetica,sans-Serif" font-size="11.00" fill="#000000">0 rows</text>
<polygon fill="#ffffff" stroke="transparent" points="101.5,-139.877 101.5,-158.877 136.5,-158.877 136.5,-139.877 101.5,-139.877"/>
<polygon fill="none" stroke="#000000" points="101.5,-139.877 101.5,-158.877 136.5,-158.877 136.5,-139.877 101.5,-139.877"/>
<text text-anchor="start" x="111.7904" y="-145.977" font-family="Helvetica,sans-Serif" font-size="11.00" fill="#000000">13 &gt;</text>
</a>
</g>
</g>
<!-- inbound_receipt&#45;&gt;public.users -->
<g id="edge1" class="edge">
<title>inbound_receipt:w&#45;&gt;public.users:e</title>
<path fill="none" stroke="#000000" d="M190.3036,-192.411C174.8019,-191.4687 158.9266,-189.1918 144.2623,-186.4546"/>
<polygon fill="#000000" stroke="#000000" points="197.004,-192.6234 204.8859,-196.4752 201.002,-192.7502 205,-192.877 205,-192.877 205,-192.877 201.002,-192.7502 205.1141,-189.2788 197.004,-192.6234 197.004,-192.6234"/>
<ellipse fill="none" stroke="#000000" cx="193.8056" cy="-192.522" rx="3.2" ry="3.2"/>
</g>
<!-- inbound_receipt&#45;&gt;public.users -->
<g id="edge3" class="edge">
<title>inbound_receipt:w&#45;&gt;public.users:e</title>
<path fill="none" stroke="#000000" d="M190.5618,-235.7471C165.4534,-231.9046 141.2797,-218.8347 122.0995,-205.4234"/>
<polygon fill="#000000" stroke="#000000" points="197.0244,-236.2528 204.7191,-240.4661 201.0122,-236.5649 205,-236.877 205,-236.877 205,-236.877 201.0122,-236.5649 205.2809,-233.288 197.0244,-236.2528 197.0244,-236.2528"/>
<ellipse fill="none" stroke="#000000" cx="193.8341" cy="-236.0031" rx="3.2" ry="3.2"/>
</g>
<!-- inbound_receipt&#45;&gt;public.users -->
<g id="edge4" class="edge">
<title>inbound_receipt:w&#45;&gt;public.users:e</title>
<path fill="none" stroke="#000000" d="M190.3301,-170.877C174.8155,-170.877 158.8123,-170.877 144.0107,-170.877"/>
<polygon fill="#000000" stroke="#000000" points="197,-170.8771 205,-174.477 201,-170.8771 205,-170.877 205,-170.877 205,-170.877 201,-170.8771 205,-167.277 197,-170.8771 197,-170.8771"/>
<ellipse fill="none" stroke="#000000" cx="193.8" cy="-170.8771" rx="3.2" ry="3.2"/>
</g>
<!-- public.orders -->
<g id="node3" class="node">
<title>public.orders</title>
<g id="a_node3"><a xlink:href="../../../public/tables/orders.html" xlink:title="public.orders" target="_top">
<polygon fill="#ffffff" stroke="transparent" points="24,-258.377 24,-319.377 139,-319.377 139,-258.377 24,-258.377"/>
<polygon fill="#f5f5f5" stroke="transparent" points="24.5,-295.877 24.5,-318.877 139.5,-318.877 139.5,-295.877 24.5,-295.877"/>
<polygon fill="none" stroke="#000000" points="24.5,-295.877 24.5,-318.877 139.5,-318.877 139.5,-295.877 24.5,-295.877"/>
<text text-anchor="start" x="29.5" y="-304.477" font-family="Helvetica,sans-Serif" font-weight="bold" font-size="11.00" fill="#000000">public.orders</text>
<text text-anchor="start" x="105.0219" y="-303.977" font-family="Helvetica,sans-Serif" font-size="11.00" fill="#000000">[table]</text>
<polygon fill="none" stroke="#000000" points="24.5,-276.877 24.5,-295.877 139.5,-295.877 139.5,-276.877 24.5,-276.877"/>
<text text-anchor="start" x="27.5" y="-282.977" font-family="Helvetica,sans-Serif" font-size="11.00" fill="#000000">...</text>
<polygon fill="#ffffff" stroke="transparent" points="24.5,-257.877 24.5,-276.877 58.5,-276.877 58.5,-257.877 24.5,-257.877"/>
<polygon fill="none" stroke="#000000" points="24.5,-257.877 24.5,-276.877 58.5,-276.877 58.5,-257.877 24.5,-257.877"/>
<text text-anchor="start" x="27.5" y="-263.977" font-family="Helvetica,sans-Serif" font-size="11.00" fill="#000000"> &#160;</text>
<polygon fill="#ffffff" stroke="transparent" points="58.5,-257.877 58.5,-276.877 107.5,-276.877 107.5,-257.877 58.5,-257.877"/>
<polygon fill="none" stroke="#000000" points="58.5,-257.877 58.5,-276.877 107.5,-276.877 107.5,-257.877 58.5,-257.877"/>
<text text-anchor="start" x="72.1105" y="-263.977" font-family="Helvetica,sans-Serif" font-size="11.00" fill="#000000">0 rows</text>
<polygon fill="#ffffff" stroke="transparent" points="107.5,-257.877 107.5,-276.877 139.5,-276.877 139.5,-257.877 107.5,-257.877"/>
<polygon fill="none" stroke="#000000" points="107.5,-257.877 107.5,-276.877 139.5,-276.877 139.5,-257.877 107.5,-257.877"/>
<text text-anchor="start" x="120.9053" y="-263.977" font-family="Helvetica,sans-Serif" font-size="11.00" fill="#000000">3 &gt;</text>
</a>
</g>
</g>
<!-- inbound_receipt&#45;&gt;public.orders -->
<g id="edge2" class="edge">
<title>inbound_receipt:w&#45;&gt;public.orders:e</title>
<path fill="none" stroke="#000000" d="M194.1572,-259.223C178.3691,-260.2005 162.1577,-263.1526 147.1275,-266.8377"/>
<polygon fill="#000000" stroke="#000000" points="204.0728,-254.9046 204.328,-262.9005 202.7288,-262.9516 202.4736,-254.9556 204.0728,-254.9046"/>
<polyline fill="none" stroke="#000000" points="205,-258.877 201.002,-259.0046 "/>
<ellipse fill="none" stroke="#000000" cx="197.8037" cy="-259.1067" rx="3.2" ry="3.2"/>
</g>
<!-- public.warehouses -->
<g id="node4" class="node">
<title>public.warehouses</title>
<g id="a_node4"><a xlink:href="../../../public/tables/warehouses.html" xlink:title="public.warehouses" target="_top">
<polygon fill="#ffffff" stroke="transparent" points="8,-401.377 8,-462.377 155,-462.377 155,-401.377 8,-401.377"/>
<polygon fill="#f5f5f5" stroke="transparent" points="8.5,-438.877 8.5,-461.877 155.5,-461.877 155.5,-438.877 8.5,-438.877"/>
<polygon fill="none" stroke="#000000" points="8.5,-438.877 8.5,-461.877 155.5,-461.877 155.5,-438.877 8.5,-438.877"/>
<text text-anchor="start" x="13.5" y="-447.477" font-family="Helvetica,sans-Serif" font-weight="bold" font-size="11.00" fill="#000000">public.warehouses</text>
<text text-anchor="start" x="121.0219" y="-446.977" font-family="Helvetica,sans-Serif" font-size="11.00" fill="#000000">[table]</text>
<polygon fill="none" stroke="#000000" points="8.5,-419.877 8.5,-438.877 155.5,-438.877 155.5,-419.877 8.5,-419.877"/>
<text text-anchor="start" x="11.5" y="-425.977" font-family="Helvetica,sans-Serif" font-size="11.00" fill="#000000">...</text>
<polygon fill="#ffffff" stroke="transparent" points="8.5,-400.877 8.5,-419.877 58.5,-419.877 58.5,-400.877 8.5,-400.877"/>
<polygon fill="none" stroke="#000000" points="8.5,-400.877 8.5,-419.877 58.5,-419.877 58.5,-400.877 8.5,-400.877"/>
<text text-anchor="start" x="11.5" y="-406.977" font-family="Helvetica,sans-Serif" font-size="11.00" fill="#000000"> &#160;</text>
<polygon fill="#ffffff" stroke="transparent" points="58.5,-400.877 58.5,-419.877 115.5,-419.877 115.5,-400.877 58.5,-400.877"/>
<polygon fill="none" stroke="#000000" points="58.5,-400.877 58.5,-419.877 115.5,-419.877 115.5,-400.877 58.5,-400.877"/>
<text text-anchor="start" x="80.1105" y="-406.977" font-family="Helvetica,sans-Serif" font-size="11.00" fill="#000000">0 rows</text>
<polygon fill="#ffffff" stroke="transparent" points="115.5,-400.877 115.5,-419.877 155.5,-419.877 155.5,-400.877 115.5,-400.877"/>
<polygon fill="none" stroke="#000000" points="115.5,-400.877 115.5,-419.877 155.5,-419.877 155.5,-400.877 115.5,-400.877"/>
<text text-anchor="start" x="136.9053" y="-406.977" font-family="Helvetica,sans-Serif" font-size="11.00" fill="#000000">5 &gt;</text>
</a>
</g>
</g>
<!-- inbound_receipt&#45;&gt;public.warehouses -->
<g id="edge5" class="edge">
<title>inbound_receipt:w&#45;&gt;public.warehouses:e</title>
<path fill="none" stroke="#000000" d="M190.7164,-217.029C158.0987,-228.9058 186.8531,-287.4481 163,-329.877 149.4482,-353.9824 130.3033,-378.2778 113.9741,-397.1074"/>
<polygon fill="#000000" stroke="#000000" points="197.0893,-216.0689 205.5363,-218.4369 201.0446,-215.473 205,-214.877 205,-214.877 205,-214.877 201.0446,-215.473 204.4637,-211.3172 197.0893,-216.0689 197.0893,-216.0689"/>
<ellipse fill="none" stroke="#000000" cx="193.925" cy="-216.5456" rx="3.2" ry="3.2"/>
</g>
<!-- inventory_lots -->
<g id="node5" class="node">
<title>inventory_lots</title>
<g id="a_node5"><a xlink:href="../../tables/inventory_lots.html" xlink:title="inventory_lots" target="_top">
<polygon fill="#ffffff" stroke="transparent" points="399,-151.877 399,-527.877 646,-527.877 646,-151.877 399,-151.877"/>
<polygon fill="#f5f5f5" stroke="transparent" points="401.5,-502.877 401.5,-525.877 644.5,-525.877 644.5,-502.877 401.5,-502.877"/>
<polygon fill="none" stroke="#000000" points="401.5,-502.877 401.5,-525.877 644.5,-525.877 644.5,-502.877 401.5,-502.877"/>
<text text-anchor="start" x="406.5" y="-511.477" font-family="Helvetica,sans-Serif" font-weight="bold" font-size="11.00" fill="#000000">inventory_lots</text>
<text text-anchor="start" x="609.5437" y="-510.977" font-family="Helvetica,sans-Serif" font-size="11.00" fill="#000000">[table]</text>
<polygon fill="none" stroke="#000000" points="401.5,-480.877 401.5,-502.877 552.5,-502.877 552.5,-480.877 401.5,-480.877"/>
<image xlink:href="../../images/primaryKeys.png" width="11px" height="12px" preserveAspectRatio="xMinYMin meet" x="406.5" y="-497.877"/>
<text text-anchor="start" x="421.5" y="-487.977" font-family="Helvetica,sans-Serif" font-size="11.00" fill="#000000">inventory_lot_id</text>
<polygon fill="none" stroke="#000000" points="552.5,-480.877 552.5,-502.877 644.5,-502.877 644.5,-480.877 552.5,-480.877"/>
<text text-anchor="start" x="555.5" y="-488.577" font-family="Helvetica,sans-Serif" font-size="11.00" fill="#000000">int8[19]</text>
<polygon fill="none" stroke="#000000" points="401.5,-458.877 401.5,-480.877 552.5,-480.877 552.5,-458.877 401.5,-458.877"/>
<image xlink:href="../../images/foreignKeys.png" width="11px" height="12px" preserveAspectRatio="xMinYMin meet" x="406.5" y="-475.877"/>
<text text-anchor="start" x="421.5" y="-465.977" font-family="Helvetica,sans-Serif" font-size="11.00" fill="#000000">warehouse_id</text>
<polygon fill="none" stroke="#000000" points="552.5,-458.877 552.5,-480.877 644.5,-480.877 644.5,-458.877 552.5,-458.877"/>
<text text-anchor="start" x="555.5" y="-466.577" font-family="Helvetica,sans-Serif" font-size="11.00" fill="#000000">int8[19]</text>
<polygon fill="none" stroke="#000000" points="401.5,-436.877 401.5,-458.877 552.5,-458.877 552.5,-436.877 401.5,-436.877"/>
<text text-anchor="start" x="421.5" y="-443.977" font-family="Helvetica,sans-Serif" font-size="11.00" fill="#000000">storage_location_code</text>
<polygon fill="none" stroke="#000000" points="552.5,-436.877 552.5,-458.877 644.5,-458.877 644.5,-436.877 552.5,-436.877"/>
<text text-anchor="start" x="555.5" y="-444.577" font-family="Helvetica,sans-Serif" font-size="11.00" fill="#000000">varchar[100]</text>
<polygon fill="#ffffff" stroke="transparent" points="401.5,-414.877 401.5,-436.877 552.5,-436.877 552.5,-414.877 401.5,-414.877"/>
<polygon fill="none" stroke="#000000" points="401.5,-414.877 401.5,-436.877 552.5,-436.877 552.5,-414.877 401.5,-414.877"/>
<text text-anchor="start" x="421.5" y="-421.977" font-family="Helvetica,sans-Serif" font-size="11.00" fill="#000000">status</text>
<polygon fill="none" stroke="#000000" points="552.5,-414.877 552.5,-436.877 644.5,-436.877 644.5,-414.877 552.5,-414.877"/>
<text text-anchor="start" x="555.5" y="-422.577" font-family="Helvetica,sans-Serif" font-size="11.00" fill="#000000">varchar[50]</text>
<polygon fill="none" stroke="#000000" points="401.5,-392.877 401.5,-414.877 552.5,-414.877 552.5,-392.877 401.5,-392.877"/>
<text text-anchor="start" x="421.5" y="-399.977" font-family="Helvetica,sans-Serif" font-size="11.00" fill="#000000">notes</text>
<polygon fill="none" stroke="#000000" points="552.5,-392.877 552.5,-414.877 644.5,-414.877 644.5,-392.877 552.5,-392.877"/>
<text text-anchor="start" x="555.5" y="-400.577" font-family="Helvetica,sans-Serif" font-size="11.00" fill="#000000">text[2147483647]</text>
<polygon fill="none" stroke="#000000" points="401.5,-370.877 401.5,-392.877 552.5,-392.877 552.5,-370.877 401.5,-370.877"/>
<image xlink:href="../../images/foreignKeys.png" width="11px" height="12px" preserveAspectRatio="xMinYMin meet" x="406.5" y="-387.877"/>
<text text-anchor="start" x="421.5" y="-377.977" font-family="Helvetica,sans-Serif" font-size="11.00" fill="#000000">order_id</text>
<polygon fill="none" stroke="#000000" points="552.5,-370.877 552.5,-392.877 644.5,-392.877 644.5,-370.877 552.5,-370.877"/>
<text text-anchor="start" x="555.5" y="-378.577" font-family="Helvetica,sans-Serif" font-size="11.00" fill="#000000">int8[19]</text>
<polygon fill="#ffffff" stroke="transparent" points="401.5,-348.877 401.5,-370.877 552.5,-370.877 552.5,-348.877 401.5,-348.877"/>
<polygon fill="none" stroke="#000000" points="401.5,-348.877 401.5,-370.877 552.5,-370.877 552.5,-348.877 401.5,-348.877"/>
<image xlink:href="../../images/foreignKeys.png" width="11px" height="12px" preserveAspectRatio="xMinYMin meet" x="406.5" y="-365.877"/>
<text text-anchor="start" x="421.5" y="-355.977" font-family="Helvetica,sans-Serif" font-size="11.00" fill="#000000">order_detail_id</text>
<polygon fill="none" stroke="#000000" points="552.5,-348.877 552.5,-370.877 644.5,-370.877 644.5,-348.877 552.5,-348.877"/>
<text text-anchor="start" x="555.5" y="-356.577" font-family="Helvetica,sans-Serif" font-size="11.00" fill="#000000">int8[19]</text>
<polygon fill="none" stroke="#000000" points="401.5,-326.877 401.5,-348.877 552.5,-348.877 552.5,-326.877 401.5,-326.877"/>
<text text-anchor="start" x="421.5" y="-333.977" font-family="Helvetica,sans-Serif" font-size="11.00" fill="#000000">created_at</text>
<polygon fill="none" stroke="#000000" points="552.5,-326.877 552.5,-348.877 644.5,-348.877 644.5,-326.877 552.5,-326.877"/>
<text text-anchor="start" x="555.1023" y="-334.577" font-family="Helvetica,sans-Serif" font-size="11.00" fill="#000000">timestamptz[35,6]</text>
<polygon fill="none" stroke="#000000" points="401.5,-304.877 401.5,-326.877 552.5,-326.877 552.5,-304.877 401.5,-304.877"/>
<text text-anchor="start" x="421.5" y="-311.977" font-family="Helvetica,sans-Serif" font-size="11.00" fill="#000000">updated_at</text>
<polygon fill="none" stroke="#000000" points="552.5,-304.877 552.5,-326.877 644.5,-326.877 644.5,-304.877 552.5,-304.877"/>
<text text-anchor="start" x="555.1023" y="-312.577" font-family="Helvetica,sans-Serif" font-size="11.00" fill="#000000">timestamptz[35,6]</text>
<polygon fill="none" stroke="#000000" points="401.5,-282.877 401.5,-304.877 552.5,-304.877 552.5,-282.877 401.5,-282.877"/>
<image xlink:href="../../images/foreignKeys.png" width="11px" height="12px" preserveAspectRatio="xMinYMin meet" x="406.5" y="-299.877"/>
<text text-anchor="start" x="421.5" y="-289.977" font-family="Helvetica,sans-Serif" font-size="11.00" fill="#000000">created_by</text>
<polygon fill="none" stroke="#000000" points="552.5,-282.877 552.5,-304.877 644.5,-304.877 644.5,-282.877 552.5,-282.877"/>
<text text-anchor="start" x="555.5" y="-290.577" font-family="Helvetica,sans-Serif" font-size="11.00" fill="#000000">int8[19]</text>
<polygon fill="none" stroke="#000000" points="401.5,-260.877 401.5,-282.877 552.5,-282.877 552.5,-260.877 401.5,-260.877"/>
<image xlink:href="../../images/foreignKeys.png" width="11px" height="12px" preserveAspectRatio="xMinYMin meet" x="406.5" y="-277.877"/>
<text text-anchor="start" x="421.5" y="-267.977" font-family="Helvetica,sans-Serif" font-size="11.00" fill="#000000">updated_by</text>
<polygon fill="none" stroke="#000000" points="552.5,-260.877 552.5,-282.877 644.5,-282.877 644.5,-260.877 552.5,-260.877"/>
<text text-anchor="start" x="555.5" y="-268.577" font-family="Helvetica,sans-Serif" font-size="11.00" fill="#000000">int8[19]</text>
<polygon fill="#ffffff" stroke="transparent" points="401.5,-238.877 401.5,-260.877 552.5,-260.877 552.5,-238.877 401.5,-238.877"/>
<polygon fill="none" stroke="#000000" points="401.5,-238.877 401.5,-260.877 552.5,-260.877 552.5,-238.877 401.5,-238.877"/>
<image xlink:href="../../images/foreignKeys.png" width="11px" height="12px" preserveAspectRatio="xMinYMin meet" x="406.5" y="-255.877"/>
<text text-anchor="start" x="421.5" y="-245.977" font-family="Helvetica,sans-Serif" font-size="11.00" fill="#000000">inbound_receipt_id</text>
<polygon fill="none" stroke="#000000" points="552.5,-238.877 552.5,-260.877 644.5,-260.877 644.5,-238.877 552.5,-238.877"/>
<text text-anchor="start" x="555.5" y="-246.577" font-family="Helvetica,sans-Serif" font-size="11.00" fill="#000000">int8[19]</text>
<polygon fill="none" stroke="#000000" points="401.5,-216.877 401.5,-238.877 552.5,-238.877 552.5,-216.877 401.5,-216.877"/>
<text text-anchor="start" x="421.5" y="-223.977" font-family="Helvetica,sans-Serif" font-size="11.00" fill="#000000">lot_number</text>
<polygon fill="none" stroke="#000000" points="552.5,-216.877 552.5,-238.877 644.5,-238.877 644.5,-216.877 552.5,-216.877"/>
<text text-anchor="start" x="555.5" y="-224.577" font-family="Helvetica,sans-Serif" font-size="11.00" fill="#000000">varchar[50]</text>
<polygon fill="none" stroke="#000000" points="401.5,-194.877 401.5,-216.877 552.5,-216.877 552.5,-194.877 401.5,-194.877"/>
<text text-anchor="start" x="421.5" y="-201.977" font-family="Helvetica,sans-Serif" font-size="11.00" fill="#000000">received_date</text>
<polygon fill="none" stroke="#000000" points="552.5,-194.877 552.5,-216.877 644.5,-216.877 644.5,-194.877 552.5,-194.877"/>
<text text-anchor="start" x="555.5" y="-202.577" font-family="Helvetica,sans-Serif" font-size="11.00" fill="#000000">date[13]</text>
<polygon fill="none" stroke="#000000" points="401.5,-172.877 401.5,-194.877 552.5,-194.877 552.5,-172.877 401.5,-172.877"/>
<text text-anchor="start" x="421.5" y="-179.977" font-family="Helvetica,sans-Serif" font-size="11.00" fill="#000000">pallet_count</text>
<polygon fill="none" stroke="#000000" points="552.5,-172.877 552.5,-194.877 644.5,-194.877 644.5,-172.877 552.5,-172.877"/>
<text text-anchor="start" x="555.5" y="-180.577" font-family="Helvetica,sans-Serif" font-size="11.00" fill="#000000">int4[10]</text>
<polygon fill="#ffffff" stroke="transparent" points="401.5,-153.877 401.5,-172.877 468.5,-172.877 468.5,-153.877 401.5,-153.877"/>
<polygon fill="none" stroke="#000000" points="401.5,-153.877 401.5,-172.877 468.5,-172.877 468.5,-153.877 401.5,-153.877"/>
<text text-anchor="start" x="404.5" y="-159.977" font-family="Helvetica,sans-Serif" font-size="11.00" fill="#000000">&lt; 6</text>
<polygon fill="#ffffff" stroke="transparent" points="468.5,-153.877 468.5,-172.877 552.5,-172.877 552.5,-153.877 468.5,-153.877"/>
<polygon fill="none" stroke="#000000" points="468.5,-153.877 468.5,-172.877 552.5,-172.877 552.5,-153.877 468.5,-153.877"/>
<text text-anchor="start" x="517.1105" y="-159.977" font-family="Helvetica,sans-Serif" font-size="11.00" fill="#000000">5 rows</text>
<polygon fill="#ffffff" stroke="transparent" points="552.5,-153.877 552.5,-172.877 644.5,-172.877 644.5,-153.877 552.5,-153.877"/>
<polygon fill="none" stroke="#000000" points="552.5,-153.877 552.5,-172.877 644.5,-172.877 644.5,-153.877 552.5,-153.877"/>
<text text-anchor="start" x="625.9053" y="-159.977" font-family="Helvetica,sans-Serif" font-size="11.00" fill="#000000">0 &gt;</text>
<polygon fill="none" stroke="#000000" stroke-width="2" points="400,-152.877 400,-526.877 645,-526.877 645,-152.877 400,-152.877"/>
</a>
</g>
</g>
<!-- inventory_lots&#45;&gt;inbound_receipt -->
<g id="edge7" class="edge">
<title>inventory_lots:w&#45;&gt;inbound_receipt:e</title>
<path fill="none" stroke="#000000" d="M387.4805,-253.6782C374.2585,-261.9561 370.8716,-280.877 350,-280.877"/>
<polygon fill="#000000" stroke="#000000" points="393.7788,-251.9706 402.4421,-253.3516 397.6394,-250.9238 401.5,-249.877 401.5,-249.877 401.5,-249.877 397.6394,-250.9238 400.5579,-246.4025 393.7788,-251.9706 393.7788,-251.9706"/>
<ellipse fill="none" stroke="#000000" cx="390.6903" cy="-252.808" rx="3.2" ry="3.2"/>
</g>
<!-- inventory_lots&#45;&gt;public.users -->
<g id="edge6" class="edge">
<title>inventory_lots:w&#45;&gt;public.users:e</title>
<path fill="none" stroke="#000000" d="M386.9238,-292.3266C322.7712,-276.5561 425.701,-144.6638 358,-89.877 302.0308,-44.5841 264.6152,-68.0606 196,-89.877 166.9938,-99.0997 139.015,-118.6277 117.976,-136.1985"/>
<polygon fill="#000000" stroke="#000000" points="393.5449,-293.0308 401.1192,-297.4568 397.5224,-293.4539 401.5,-293.877 401.5,-293.877 401.5,-293.877 397.5224,-293.4539 401.8808,-290.2972 393.5449,-293.0308 393.5449,-293.0308"/>
<ellipse fill="none" stroke="#000000" cx="390.3628" cy="-292.6923" rx="3.2" ry="3.2"/>
</g>
<!-- inventory_lots&#45;&gt;public.users -->
<g id="edge10" class="edge">
<title>inventory_lots:w&#45;&gt;public.users:e</title>
<path fill="none" stroke="#000000" d="M386.9376,-270.3821C320.2341,-254.6272 427.5865,-118.5265 358,-61.877 302.1632,-16.421 262.8532,-35.1442 196,-61.877 158.6665,-76.8057 126.565,-110.3442 105.9335,-136.3041"/>
<polygon fill="#000000" stroke="#000000" points="393.5418,-271.06 401.1323,-275.4582 397.5209,-271.4685 401.5,-271.877 401.5,-271.877 401.5,-271.877 397.5209,-271.4685 401.8677,-268.2959 393.5418,-271.06 393.5418,-271.06"/>
<ellipse fill="none" stroke="#000000" cx="390.3586" cy="-270.7332" rx="3.2" ry="3.2"/>
</g>
<!-- inventory_lots&#45;&gt;public.orders -->
<g id="edge9" class="edge">
<title>inventory_lots:w&#45;&gt;public.orders:e</title>
<path fill="none" stroke="#000000" d="M387.3062,-385.669C377.7001,-391.7702 373.7746,-403.5221 358,-407.877 288.5963,-427.0375 262.2508,-436.0698 196,-407.877 155.9011,-390.8131 123.0539,-352.0604 102.9835,-323.3901"/>
<polygon fill="#000000" stroke="#000000" points="393.7711,-383.9419 402.4292,-385.3551 397.6355,-382.9095 401.5,-381.877 401.5,-381.877 401.5,-381.877 397.6355,-382.9095 400.5708,-378.399 393.7711,-383.9419 393.7711,-383.9419"/>
<ellipse fill="none" stroke="#000000" cx="390.6795" cy="-384.7679" rx="3.2" ry="3.2"/>
</g>
<!-- inventory_lots&#45;&gt;public.warehouses -->
<g id="edge11" class="edge">
<title>inventory_lots:w&#45;&gt;public.warehouses:e</title>
<path fill="none" stroke="#000000" d="M387.0624,-469.753C309.2245,-468.4394 223.7624,-456.9379 163.0614,-446.9502"/>
<polygon fill="#000000" stroke="#000000" points="393.5003,-469.8082 401.469,-473.4769 397.5001,-469.8426 401.5,-469.877 401.5,-469.877 401.5,-469.877 397.5001,-469.8426 401.531,-466.2772 393.5003,-469.8082 393.5003,-469.8082"/>
<ellipse fill="none" stroke="#000000" cx="390.3004" cy="-469.7807" rx="3.2" ry="3.2"/>
</g>
<!-- public.order_detail -->
<g id="node6" class="node">
<title>public.order_detail</title>
<g id="a_node6"><a xlink:href="../../../public/tables/order_detail.html" xlink:title="public.order_detail" target="_top">
<polygon fill="#ffffff" stroke="transparent" points="204,-336.377 204,-397.377 350,-397.377 350,-336.377 204,-336.377"/>
<polygon fill="#f5f5f5" stroke="transparent" points="204,-373.877 204,-396.877 350,-396.877 350,-373.877 204,-373.877"/>
<polygon fill="none" stroke="#000000" points="204,-373.877 204,-396.877 350,-396.877 350,-373.877 204,-373.877"/>
<text text-anchor="start" x="209" y="-382.477" font-family="Helvetica,sans-Serif" font-weight="bold" font-size="11.00" fill="#000000">public.order_detail</text>
<text text-anchor="start" x="315.5219" y="-381.977" font-family="Helvetica,sans-Serif" font-size="11.00" fill="#000000">[table]</text>
<polygon fill="none" stroke="#000000" points="204,-354.877 204,-373.877 350,-373.877 350,-354.877 204,-354.877"/>
<text text-anchor="start" x="207" y="-360.977" font-family="Helvetica,sans-Serif" font-size="11.00" fill="#000000">...</text>
<polygon fill="#ffffff" stroke="transparent" points="204,-335.877 204,-354.877 253,-354.877 253,-335.877 204,-335.877"/>
<polygon fill="none" stroke="#000000" points="204,-335.877 204,-354.877 253,-354.877 253,-335.877 204,-335.877"/>
<text text-anchor="start" x="207" y="-341.977" font-family="Helvetica,sans-Serif" font-size="11.00" fill="#000000"> &#160;</text>
<polygon fill="#ffffff" stroke="transparent" points="253,-335.877 253,-354.877 310,-354.877 310,-335.877 253,-335.877"/>
<polygon fill="none" stroke="#000000" points="253,-335.877 253,-354.877 310,-354.877 310,-335.877 253,-335.877"/>
<text text-anchor="start" x="274.6105" y="-341.977" font-family="Helvetica,sans-Serif" font-size="11.00" fill="#000000">0 rows</text>
<polygon fill="#ffffff" stroke="transparent" points="310,-335.877 310,-354.877 350,-354.877 350,-335.877 310,-335.877"/>
<polygon fill="none" stroke="#000000" points="310,-335.877 310,-354.877 350,-354.877 350,-335.877 310,-335.877"/>
<text text-anchor="start" x="331.4053" y="-341.977" font-family="Helvetica,sans-Serif" font-size="11.00" fill="#000000">2 &gt;</text>
</a>
</g>
</g>
<!-- inventory_lots&#45;&gt;public.order_detail -->
<g id="edge8" class="edge">
<title>inventory_lots:w&#45;&gt;public.order_detail:e</title>
<path fill="none" stroke="#000000" d="M386.8466,-360.0255C377.3945,-360.2086 367.765,-360.5499 358.3319,-360.9862"/>
<polygon fill="#000000" stroke="#000000" points="393.5004,-359.9581 401.5365,-363.4768 397.5002,-359.9176 401.5,-359.877 401.5,-359.877 401.5,-359.877 397.5002,-359.9176 401.4635,-356.2772 393.5004,-359.9581 393.5004,-359.9581"/>
<ellipse fill="none" stroke="#000000" cx="390.3006" cy="-359.9905" rx="3.2" ry="3.2"/>
</g>
</g>
</svg>
