<?xml version="1.0" encoding="UTF-8" standalone="no"?>
<!DOCTYPE svg PUBLIC "-//W3C//DTD SVG 1.1//EN"
 "http://www.w3.org/Graphics/SVG/1.1/DTD/svg11.dtd">
<!-- Generated by graphviz version 2.40.1 (20161225.0304)
 -->
<!-- Title: oneDegreeRelationshipsDiagram Pages: 1 -->
<svg width="740pt" height="609pt"
 viewBox="0.00 0.00 740.00 608.70" xmlns="http://www.w3.org/2000/svg" xmlns:xlink="http://www.w3.org/1999/xlink">
<g id="graph0" class="graph" transform="scale(1 1) rotate(0) translate(4 604.7)">
<title>oneDegreeRelationshipsDiagram</title>
<polygon fill="#ffffff" stroke="transparent" points="-4,4 -4,-604.7 736,-604.7 736,4 -4,4"/>
<text text-anchor="middle" x="72.4936" y="-7.3" font-family="Helvetica,sans-Serif" font-size="11.00" fill="#000000">Generated by SchemaSpy</text>
<!-- outbound_shipment_lines -->
<g id="node1" class="node">
<title>outbound_shipment_lines</title>
<g id="a_node1"><a xlink:href="../../tables/outbound_shipment_lines.html" xlink:title="outbound_shipment_lines" target="_top">
<polygon fill="#ffffff" stroke="transparent" points="536,-38.2 536,-231.2 724,-231.2 724,-38.2 536,-38.2"/>
<polygon fill="#f5f5f5" stroke="transparent" points="536,-207.7 536,-230.7 724,-230.7 724,-207.7 536,-207.7"/>
<polygon fill="none" stroke="#000000" points="536,-207.7 536,-230.7 724,-230.7 724,-207.7 536,-207.7"/>
<text text-anchor="start" x="541" y="-216.3" font-family="Helvetica,sans-Serif" font-weight="bold" font-size="11.00" fill="#000000">outbound_shipment_lines</text>
<text text-anchor="start" x="689.5219" y="-215.8" font-family="Helvetica,sans-Serif" font-size="11.00" fill="#000000">[table]</text>
<polygon fill="none" stroke="#000000" points="536,-185.7 536,-207.7 724,-207.7 724,-185.7 536,-185.7"/>
<image xlink:href="../../images/primaryKeys.png" width="11px" height="12px" preserveAspectRatio="xMinYMin meet" x="541" y="-202.7"/>
<text text-anchor="start" x="560" y="-192.8" font-family="Helvetica,sans-Serif" font-size="11.00" fill="#000000">outbound_shipment_line_id</text>
<polygon fill="#ffffff" stroke="transparent" points="536,-163.7 536,-185.7 724,-185.7 724,-163.7 536,-163.7"/>
<polygon fill="none" stroke="#000000" points="536,-163.7 536,-185.7 724,-185.7 724,-163.7 536,-163.7"/>
<image xlink:href="../../images/foreignKeys.png" width="11px" height="12px" preserveAspectRatio="xMinYMin meet" x="541" y="-180.7"/>
<text text-anchor="start" x="560" y="-170.8" font-family="Helvetica,sans-Serif" font-size="11.00" fill="#000000">outbound_shipment_id</text>
<polygon fill="none" stroke="#000000" points="536,-141.7 536,-163.7 724,-163.7 724,-141.7 536,-141.7"/>
<image xlink:href="../../images/foreignKeys.png" width="11px" height="12px" preserveAspectRatio="xMinYMin meet" x="541" y="-158.7"/>
<text text-anchor="start" x="560" y="-148.8" font-family="Helvetica,sans-Serif" font-size="11.00" fill="#000000">order_id</text>
<polygon fill="#ffffff" stroke="transparent" points="536,-119.7 536,-141.7 724,-141.7 724,-119.7 536,-119.7"/>
<polygon fill="none" stroke="#000000" points="536,-119.7 536,-141.7 724,-141.7 724,-119.7 536,-119.7"/>
<image xlink:href="../../images/foreignKeys.png" width="11px" height="12px" preserveAspectRatio="xMinYMin meet" x="541" y="-136.7"/>
<text text-anchor="start" x="560" y="-126.8" font-family="Helvetica,sans-Serif" font-size="11.00" fill="#000000">order_detail_id</text>
<polygon fill="none" stroke="#000000" points="536,-97.7 536,-119.7 724,-119.7 724,-97.7 536,-97.7"/>
<image xlink:href="../../images/foreignKeys.png" width="11px" height="12px" preserveAspectRatio="xMinYMin meet" x="541" y="-114.7"/>
<text text-anchor="start" x="560" y="-104.8" font-family="Helvetica,sans-Serif" font-size="11.00" fill="#000000">created_by</text>
<polygon fill="none" stroke="#000000" points="536,-75.7 536,-97.7 724,-97.7 724,-75.7 536,-75.7"/>
<image xlink:href="../../images/foreignKeys.png" width="11px" height="12px" preserveAspectRatio="xMinYMin meet" x="541" y="-92.7"/>
<text text-anchor="start" x="560" y="-82.8" font-family="Helvetica,sans-Serif" font-size="11.00" fill="#000000">updated_by</text>
<polygon fill="none" stroke="#000000" points="536,-56.7 536,-75.7 724,-75.7 724,-56.7 536,-56.7"/>
<text text-anchor="start" x="539" y="-62.8" font-family="Helvetica,sans-Serif" font-size="11.00" fill="#000000">...</text>
<polygon fill="#ffffff" stroke="transparent" points="536,-37.7 536,-56.7 615,-56.7 615,-37.7 536,-37.7"/>
<polygon fill="none" stroke="#000000" points="536,-37.7 536,-56.7 615,-56.7 615,-37.7 536,-37.7"/>
<text text-anchor="start" x="539" y="-43.8" font-family="Helvetica,sans-Serif" font-size="11.00" fill="#000000">&lt; 5</text>
<polygon fill="#ffffff" stroke="transparent" points="615,-37.7 615,-56.7 682,-56.7 682,-37.7 615,-37.7"/>
<polygon fill="none" stroke="#000000" points="615,-37.7 615,-56.7 682,-56.7 682,-37.7 615,-37.7"/>
<text text-anchor="start" x="646.6105" y="-43.8" font-family="Helvetica,sans-Serif" font-size="11.00" fill="#000000">6 rows</text>
<polygon fill="#ffffff" stroke="transparent" points="682,-37.7 682,-56.7 724,-56.7 724,-37.7 682,-37.7"/>
<polygon fill="none" stroke="#000000" points="682,-37.7 682,-56.7 724,-56.7 724,-37.7 682,-37.7"/>
<text text-anchor="start" x="714.8862" y="-43.8" font-family="Helvetica,sans-Serif" font-size="11.00" fill="#000000"> &#160;</text>
</a>
</g>
</g>
<!-- public.users -->
<g id="node2" class="node">
<title>public.users</title>
<g id="a_node2"><a xlink:href="../../../public/tables/users.html" xlink:title="public.users" target="_top">
<polygon fill="#ffffff" stroke="transparent" points="38,-178.2 38,-239.2 147,-239.2 147,-178.2 38,-178.2"/>
<polygon fill="#f5f5f5" stroke="transparent" points="38.5,-215.7 38.5,-238.7 147.5,-238.7 147.5,-215.7 38.5,-215.7"/>
<polygon fill="none" stroke="#000000" points="38.5,-215.7 38.5,-238.7 147.5,-238.7 147.5,-215.7 38.5,-215.7"/>
<text text-anchor="start" x="43.5" y="-224.3" font-family="Helvetica,sans-Serif" font-weight="bold" font-size="11.00" fill="#000000">public.users</text>
<text text-anchor="start" x="113.0219" y="-223.8" font-family="Helvetica,sans-Serif" font-size="11.00" fill="#000000">[table]</text>
<polygon fill="none" stroke="#000000" points="38.5,-196.7 38.5,-215.7 147.5,-215.7 147.5,-196.7 38.5,-196.7"/>
<text text-anchor="start" x="41.5" y="-202.8" font-family="Helvetica,sans-Serif" font-size="11.00" fill="#000000">...</text>
<polygon fill="#ffffff" stroke="transparent" points="38.5,-177.7 38.5,-196.7 66.5,-196.7 66.5,-177.7 38.5,-177.7"/>
<polygon fill="none" stroke="#000000" points="38.5,-177.7 38.5,-196.7 66.5,-196.7 66.5,-177.7 38.5,-177.7"/>
<text text-anchor="start" x="41.5" y="-183.8" font-family="Helvetica,sans-Serif" font-size="11.00" fill="#000000"> &#160;</text>
<polygon fill="#ffffff" stroke="transparent" points="66.5,-177.7 66.5,-196.7 112.5,-196.7 112.5,-177.7 66.5,-177.7"/>
<polygon fill="none" stroke="#000000" points="66.5,-177.7 66.5,-196.7 112.5,-196.7 112.5,-177.7 66.5,-177.7"/>
<text text-anchor="start" x="77.1105" y="-183.8" font-family="Helvetica,sans-Serif" font-size="11.00" fill="#000000">0 rows</text>
<polygon fill="#ffffff" stroke="transparent" points="112.5,-177.7 112.5,-196.7 147.5,-196.7 147.5,-177.7 112.5,-177.7"/>
<polygon fill="none" stroke="#000000" points="112.5,-177.7 112.5,-196.7 147.5,-196.7 147.5,-177.7 112.5,-177.7"/>
<text text-anchor="start" x="122.7904" y="-183.8" font-family="Helvetica,sans-Serif" font-size="11.00" fill="#000000">13 &gt;</text>
</a>
</g>
</g>
<!-- outbound_shipment_lines&#45;&gt;public.users -->
<g id="edge1" class="edge">
<title>outbound_shipment_lines:w&#45;&gt;public.users:e</title>
<path fill="none" stroke="#000000" d="M521.4573,-108.4771C442.6255,-106.3394 276.3568,-90.2218 218,-121.7 195.855,-133.6452 204.5194,-151.823 185,-167.7 176.1424,-174.9048 165.8194,-181.0941 155.3463,-186.3191"/>
<polygon fill="#000000" stroke="#000000" points="528.0009,-108.5773 535.9448,-112.2996 532.0005,-108.6387 536,-108.7 536,-108.7 536,-108.7 532.0005,-108.6387 536.0552,-105.1004 528.0009,-108.5773 528.0009,-108.5773"/>
<ellipse fill="none" stroke="#000000" cx="524.8013" cy="-108.5283" rx="3.2" ry="3.2"/>
</g>
<!-- outbound_shipment_lines&#45;&gt;public.users -->
<g id="edge3" class="edge">
<title>outbound_shipment_lines:w&#45;&gt;public.users:e</title>
<path fill="none" stroke="#000000" d="M521.3837,-86.4698C390.3805,-82.3397 332.1651,-24.9156 218,-99.7 189.8992,-118.1076 209.1612,-144.3605 185,-167.7 176.5353,-175.8768 166.1654,-182.582 155.4673,-188.0257"/>
<polygon fill="#000000" stroke="#000000" points="528.001,-86.574 535.9433,-90.2996 532.0005,-86.637 536,-86.7 536,-86.7 536,-86.7 532.0005,-86.637 536.0567,-83.1004 528.001,-86.574 528.001,-86.574"/>
<ellipse fill="none" stroke="#000000" cx="524.8014" cy="-86.5235" rx="3.2" ry="3.2"/>
</g>
<!-- outbound_shipments -->
<g id="node3" class="node">
<title>outbound_shipments</title>
<g id="a_node3"><a xlink:href="../../tables/outbound_shipments.html" xlink:title="outbound_shipments" target="_top">
<polygon fill="#ffffff" stroke="transparent" points="226,-132.7 226,-596.7 487,-596.7 487,-132.7 226,-132.7"/>
<polygon fill="#f5f5f5" stroke="transparent" points="228.5,-571.7 228.5,-594.7 485.5,-594.7 485.5,-571.7 228.5,-571.7"/>
<polygon fill="none" stroke="#000000" points="228.5,-571.7 228.5,-594.7 485.5,-594.7 485.5,-571.7 228.5,-571.7"/>
<text text-anchor="start" x="233.5" y="-580.3" font-family="Helvetica,sans-Serif" font-weight="bold" font-size="11.00" fill="#000000">outbound_shipments</text>
<text text-anchor="start" x="450.5437" y="-579.8" font-family="Helvetica,sans-Serif" font-size="11.00" fill="#000000">[table]</text>
<polygon fill="none" stroke="#000000" points="228.5,-549.7 228.5,-571.7 393.5,-571.7 393.5,-549.7 228.5,-549.7"/>
<image xlink:href="../../images/primaryKeys.png" width="11px" height="12px" preserveAspectRatio="xMinYMin meet" x="233.5" y="-566.7"/>
<text text-anchor="start" x="248.5" y="-556.8" font-family="Helvetica,sans-Serif" font-size="11.00" fill="#000000">outbound_shipment_id</text>
<polygon fill="none" stroke="#000000" points="393.5,-549.7 393.5,-571.7 485.5,-571.7 485.5,-549.7 393.5,-549.7"/>
<text text-anchor="start" x="396.5" y="-557.4" font-family="Helvetica,sans-Serif" font-size="11.00" fill="#000000">int8[19]</text>
<polygon fill="none" stroke="#000000" points="228.5,-527.7 228.5,-549.7 393.5,-549.7 393.5,-527.7 228.5,-527.7"/>
<image xlink:href="../../images/foreignKeys.png" width="11px" height="12px" preserveAspectRatio="xMinYMin meet" x="233.5" y="-544.7"/>
<text text-anchor="start" x="248.5" y="-534.8" font-family="Helvetica,sans-Serif" font-size="11.00" fill="#000000">warehouse_id</text>
<polygon fill="none" stroke="#000000" points="393.5,-527.7 393.5,-549.7 485.5,-549.7 485.5,-527.7 393.5,-527.7"/>
<text text-anchor="start" x="396.5" y="-535.4" font-family="Helvetica,sans-Serif" font-size="11.00" fill="#000000">int8[19]</text>
<polygon fill="#ffffff" stroke="transparent" points="228.5,-505.7 228.5,-527.7 393.5,-527.7 393.5,-505.7 228.5,-505.7"/>
<polygon fill="none" stroke="#000000" points="228.5,-505.7 228.5,-527.7 393.5,-527.7 393.5,-505.7 228.5,-505.7"/>
<text text-anchor="start" x="248.5" y="-512.8" font-family="Helvetica,sans-Serif" font-size="11.00" fill="#000000">shipment_number</text>
<polygon fill="none" stroke="#000000" points="393.5,-505.7 393.5,-527.7 485.5,-527.7 485.5,-505.7 393.5,-505.7"/>
<text text-anchor="start" x="396.5" y="-513.4" font-family="Helvetica,sans-Serif" font-size="11.00" fill="#000000">varchar[100]</text>
<polygon fill="none" stroke="#000000" points="228.5,-483.7 228.5,-505.7 393.5,-505.7 393.5,-483.7 228.5,-483.7"/>
<text text-anchor="start" x="248.5" y="-490.8" font-family="Helvetica,sans-Serif" font-size="11.00" fill="#000000">scheduled_load_time</text>
<polygon fill="none" stroke="#000000" points="393.5,-483.7 393.5,-505.7 485.5,-505.7 485.5,-483.7 393.5,-483.7"/>
<text text-anchor="start" x="396.1023" y="-491.4" font-family="Helvetica,sans-Serif" font-size="11.00" fill="#000000">timestamptz[35,6]</text>
<polygon fill="none" stroke="#000000" points="228.5,-461.7 228.5,-483.7 393.5,-483.7 393.5,-461.7 228.5,-461.7"/>
<text text-anchor="start" x="248.5" y="-468.8" font-family="Helvetica,sans-Serif" font-size="11.00" fill="#000000">actual_load_time</text>
<polygon fill="none" stroke="#000000" points="393.5,-461.7 393.5,-483.7 485.5,-483.7 485.5,-461.7 393.5,-461.7"/>
<text text-anchor="start" x="396.1023" y="-469.4" font-family="Helvetica,sans-Serif" font-size="11.00" fill="#000000">timestamptz[35,6]</text>
<polygon fill="none" stroke="#000000" points="228.5,-439.7 228.5,-461.7 393.5,-461.7 393.5,-439.7 228.5,-439.7"/>
<text text-anchor="start" x="248.5" y="-446.8" font-family="Helvetica,sans-Serif" font-size="11.00" fill="#000000">status</text>
<polygon fill="none" stroke="#000000" points="393.5,-439.7 393.5,-461.7 485.5,-461.7 485.5,-439.7 393.5,-439.7"/>
<text text-anchor="start" x="396.5" y="-447.4" font-family="Helvetica,sans-Serif" font-size="11.00" fill="#000000">varchar[50]</text>
<polygon fill="none" stroke="#000000" points="228.5,-417.7 228.5,-439.7 393.5,-439.7 393.5,-417.7 228.5,-417.7"/>
<text text-anchor="start" x="248.5" y="-424.8" font-family="Helvetica,sans-Serif" font-size="11.00" fill="#000000">total_pallets</text>
<polygon fill="none" stroke="#000000" points="393.5,-417.7 393.5,-439.7 485.5,-439.7 485.5,-417.7 393.5,-417.7"/>
<text text-anchor="start" x="396.5" y="-425.4" font-family="Helvetica,sans-Serif" font-size="11.00" fill="#000000">int4[10]</text>
<polygon fill="none" stroke="#000000" points="228.5,-395.7 228.5,-417.7 393.5,-417.7 393.5,-395.7 228.5,-395.7"/>
<text text-anchor="start" x="248.5" y="-402.8" font-family="Helvetica,sans-Serif" font-size="11.00" fill="#000000">total_volume</text>
<polygon fill="none" stroke="#000000" points="393.5,-395.7 393.5,-417.7 485.5,-417.7 485.5,-395.7 393.5,-395.7"/>
<text text-anchor="start" x="396.5" y="-403.4" font-family="Helvetica,sans-Serif" font-size="11.00" fill="#000000">numeric[14,4]</text>
<polygon fill="none" stroke="#000000" points="228.5,-373.7 228.5,-395.7 393.5,-395.7 393.5,-373.7 228.5,-373.7"/>
<text text-anchor="start" x="248.5" y="-380.8" font-family="Helvetica,sans-Serif" font-size="11.00" fill="#000000">total_weight</text>
<polygon fill="none" stroke="#000000" points="393.5,-373.7 393.5,-395.7 485.5,-395.7 485.5,-373.7 393.5,-373.7"/>
<text text-anchor="start" x="396.5" y="-381.4" font-family="Helvetica,sans-Serif" font-size="11.00" fill="#000000">numeric[14,4]</text>
<polygon fill="none" stroke="#000000" points="228.5,-351.7 228.5,-373.7 393.5,-373.7 393.5,-351.7 228.5,-351.7"/>
<text text-anchor="start" x="248.5" y="-358.8" font-family="Helvetica,sans-Serif" font-size="11.00" fill="#000000">notes</text>
<polygon fill="none" stroke="#000000" points="393.5,-351.7 393.5,-373.7 485.5,-373.7 485.5,-351.7 393.5,-351.7"/>
<text text-anchor="start" x="396.5" y="-359.4" font-family="Helvetica,sans-Serif" font-size="11.00" fill="#000000">text[2147483647]</text>
<polygon fill="none" stroke="#000000" points="228.5,-329.7 228.5,-351.7 393.5,-351.7 393.5,-329.7 228.5,-329.7"/>
<text text-anchor="start" x="248.5" y="-336.8" font-family="Helvetica,sans-Serif" font-size="11.00" fill="#000000">created_at</text>
<polygon fill="none" stroke="#000000" points="393.5,-329.7 393.5,-351.7 485.5,-351.7 485.5,-329.7 393.5,-329.7"/>
<text text-anchor="start" x="396.1023" y="-337.4" font-family="Helvetica,sans-Serif" font-size="11.00" fill="#000000">timestamptz[35,6]</text>
<polygon fill="none" stroke="#000000" points="228.5,-307.7 228.5,-329.7 393.5,-329.7 393.5,-307.7 228.5,-307.7"/>
<text text-anchor="start" x="248.5" y="-314.8" font-family="Helvetica,sans-Serif" font-size="11.00" fill="#000000">updated_at</text>
<polygon fill="none" stroke="#000000" points="393.5,-307.7 393.5,-329.7 485.5,-329.7 485.5,-307.7 393.5,-307.7"/>
<text text-anchor="start" x="396.1023" y="-315.4" font-family="Helvetica,sans-Serif" font-size="11.00" fill="#000000">timestamptz[35,6]</text>
<polygon fill="none" stroke="#000000" points="228.5,-285.7 228.5,-307.7 393.5,-307.7 393.5,-285.7 228.5,-285.7"/>
<image xlink:href="../../images/foreignKeys.png" width="11px" height="12px" preserveAspectRatio="xMinYMin meet" x="233.5" y="-302.7"/>
<text text-anchor="start" x="248.5" y="-292.8" font-family="Helvetica,sans-Serif" font-size="11.00" fill="#000000">destination_location_id</text>
<polygon fill="none" stroke="#000000" points="393.5,-285.7 393.5,-307.7 485.5,-307.7 485.5,-285.7 393.5,-285.7"/>
<text text-anchor="start" x="396.5" y="-293.4" font-family="Helvetica,sans-Serif" font-size="11.00" fill="#000000">int8[19]</text>
<polygon fill="none" stroke="#000000" points="228.5,-263.7 228.5,-285.7 393.5,-285.7 393.5,-263.7 228.5,-263.7"/>
<image xlink:href="../../images/foreignKeys.png" width="11px" height="12px" preserveAspectRatio="xMinYMin meet" x="233.5" y="-280.7"/>
<text text-anchor="start" x="248.5" y="-270.8" font-family="Helvetica,sans-Serif" font-size="11.00" fill="#000000">trailer_id</text>
<polygon fill="none" stroke="#000000" points="393.5,-263.7 393.5,-285.7 485.5,-285.7 485.5,-263.7 393.5,-263.7"/>
<text text-anchor="start" x="396.5" y="-271.4" font-family="Helvetica,sans-Serif" font-size="11.00" fill="#000000">int8[19]</text>
<polygon fill="none" stroke="#000000" points="228.5,-241.7 228.5,-263.7 393.5,-263.7 393.5,-241.7 228.5,-241.7"/>
<image xlink:href="../../images/foreignKeys.png" width="11px" height="12px" preserveAspectRatio="xMinYMin meet" x="233.5" y="-258.7"/>
<text text-anchor="start" x="248.5" y="-248.8" font-family="Helvetica,sans-Serif" font-size="11.00" fill="#000000">loaded_by</text>
<polygon fill="none" stroke="#000000" points="393.5,-241.7 393.5,-263.7 485.5,-263.7 485.5,-241.7 393.5,-241.7"/>
<text text-anchor="start" x="396.5" y="-249.4" font-family="Helvetica,sans-Serif" font-size="11.00" fill="#000000">int8[19]</text>
<polygon fill="none" stroke="#000000" points="228.5,-219.7 228.5,-241.7 393.5,-241.7 393.5,-219.7 228.5,-219.7"/>
<image xlink:href="../../images/foreignKeys.png" width="11px" height="12px" preserveAspectRatio="xMinYMin meet" x="233.5" y="-236.7"/>
<text text-anchor="start" x="248.5" y="-226.8" font-family="Helvetica,sans-Serif" font-size="11.00" fill="#000000">created_by</text>
<polygon fill="none" stroke="#000000" points="393.5,-219.7 393.5,-241.7 485.5,-241.7 485.5,-219.7 393.5,-219.7"/>
<text text-anchor="start" x="396.5" y="-227.4" font-family="Helvetica,sans-Serif" font-size="11.00" fill="#000000">int8[19]</text>
<polygon fill="none" stroke="#000000" points="228.5,-197.7 228.5,-219.7 393.5,-219.7 393.5,-197.7 228.5,-197.7"/>
<image xlink:href="../../images/foreignKeys.png" width="11px" height="12px" preserveAspectRatio="xMinYMin meet" x="233.5" y="-214.7"/>
<text text-anchor="start" x="248.5" y="-204.8" font-family="Helvetica,sans-Serif" font-size="11.00" fill="#000000">updated_by</text>
<polygon fill="none" stroke="#000000" points="393.5,-197.7 393.5,-219.7 485.5,-219.7 485.5,-197.7 393.5,-197.7"/>
<text text-anchor="start" x="396.5" y="-205.4" font-family="Helvetica,sans-Serif" font-size="11.00" fill="#000000">int8[19]</text>
<polygon fill="none" stroke="#000000" points="228.5,-175.7 228.5,-197.7 393.5,-197.7 393.5,-175.7 228.5,-175.7"/>
<image xlink:href="../../images/foreignKeys.png" width="11px" height="12px" preserveAspectRatio="xMinYMin meet" x="233.5" y="-192.7"/>
<text text-anchor="start" x="248.5" y="-182.8" font-family="Helvetica,sans-Serif" font-size="11.00" fill="#000000">bol_document_id</text>
<polygon fill="none" stroke="#000000" points="393.5,-175.7 393.5,-197.7 485.5,-197.7 485.5,-175.7 393.5,-175.7"/>
<text text-anchor="start" x="396.5" y="-183.4" font-family="Helvetica,sans-Serif" font-size="11.00" fill="#000000">int8[19]</text>
<polygon fill="none" stroke="#000000" points="228.5,-153.7 228.5,-175.7 393.5,-175.7 393.5,-153.7 228.5,-153.7"/>
<image xlink:href="../../images/foreignKeys.png" width="11px" height="12px" preserveAspectRatio="xMinYMin meet" x="233.5" y="-170.7"/>
<text text-anchor="start" x="248.5" y="-160.8" font-family="Helvetica,sans-Serif" font-size="11.00" fill="#000000">load_sheet_document_id</text>
<polygon fill="none" stroke="#000000" points="393.5,-153.7 393.5,-175.7 485.5,-175.7 485.5,-153.7 393.5,-153.7"/>
<text text-anchor="start" x="396.5" y="-161.4" font-family="Helvetica,sans-Serif" font-size="11.00" fill="#000000">int8[19]</text>
<polygon fill="#ffffff" stroke="transparent" points="228.5,-134.7 228.5,-153.7 315.5,-153.7 315.5,-134.7 228.5,-134.7"/>
<polygon fill="none" stroke="#000000" points="228.5,-134.7 228.5,-153.7 315.5,-153.7 315.5,-134.7 228.5,-134.7"/>
<text text-anchor="start" x="231.5" y="-140.8" font-family="Helvetica,sans-Serif" font-size="11.00" fill="#000000">&lt; 8</text>
<polygon fill="#ffffff" stroke="transparent" points="315.5,-134.7 315.5,-153.7 393.5,-153.7 393.5,-134.7 315.5,-134.7"/>
<polygon fill="none" stroke="#000000" points="315.5,-134.7 315.5,-153.7 393.5,-153.7 393.5,-134.7 315.5,-134.7"/>
<text text-anchor="start" x="384.3862" y="-140.8" font-family="Helvetica,sans-Serif" font-size="11.00" fill="#000000"> &#160;</text>
<polygon fill="#ffffff" stroke="transparent" points="393.5,-134.7 393.5,-153.7 485.5,-153.7 485.5,-134.7 393.5,-134.7"/>
<polygon fill="none" stroke="#000000" points="393.5,-134.7 393.5,-153.7 485.5,-153.7 485.5,-134.7 393.5,-134.7"/>
<text text-anchor="start" x="466.9053" y="-140.8" font-family="Helvetica,sans-Serif" font-size="11.00" fill="#000000">1 &gt;</text>
<polygon fill="none" stroke="#000000" stroke-width="2" points="227,-133.7 227,-595.7 486,-595.7 486,-133.7 227,-133.7"/>
</a>
</g>
</g>
<!-- outbound_shipment_lines&#45;&gt;outbound_shipments -->
<g id="edge2" class="edge">
<title>outbound_shipment_lines:w&#45;&gt;outbound_shipments:e</title>
<path fill="none" stroke="#000000" d="M522.1271,-179.035C463.9894,-221.4422 566.602,-560.7 485.5,-560.7"/>
<polygon fill="#000000" stroke="#000000" points="528.3641,-177.0861 537.0737,-178.1362 532.1821,-175.893 536,-174.7 536,-174.7 536,-174.7 532.1821,-175.893 534.9263,-171.2638 528.3641,-177.0861 528.3641,-177.0861"/>
<ellipse fill="none" stroke="#000000" cx="525.3097" cy="-178.0405" rx="3.2" ry="3.2"/>
</g>
<!-- outbound_shipments&#45;&gt;public.users -->
<g id="edge5" class="edge">
<title>outbound_shipments:w&#45;&gt;public.users:e</title>
<path fill="none" stroke="#000000" d="M213.8542,-230.3136C194.0095,-229.3069 173.5062,-226.4495 155.129,-223.1288"/>
<polygon fill="#000000" stroke="#000000" points="220.5028,-230.489 228.405,-234.2987 224.5014,-230.5945 228.5,-230.7 228.5,-230.7 228.5,-230.7 224.5014,-230.5945 228.595,-227.1013 220.5028,-230.489 220.5028,-230.489"/>
<ellipse fill="none" stroke="#000000" cx="217.3039" cy="-230.4046" rx="3.2" ry="3.2"/>
</g>
<!-- outbound_shipments&#45;&gt;public.users -->
<g id="edge8" class="edge">
<title>outbound_shipments:w&#45;&gt;public.users:e</title>
<path fill="none" stroke="#000000" d="M213.9131,-251.9778C193.7659,-250.0471 173.3486,-244.4658 155.1518,-237.9262"/>
<polygon fill="#000000" stroke="#000000" points="220.5098,-252.3044 228.322,-256.2956 224.5049,-252.5022 228.5,-252.7 228.5,-252.7 228.5,-252.7 224.5049,-252.5022 228.678,-249.1044 220.5098,-252.3044 220.5098,-252.3044"/>
<ellipse fill="none" stroke="#000000" cx="217.3137" cy="-252.1461" rx="3.2" ry="3.2"/>
</g>
<!-- outbound_shipments&#45;&gt;public.users -->
<g id="edge10" class="edge">
<title>outbound_shipments:w&#45;&gt;public.users:e</title>
<path fill="none" stroke="#000000" d="M213.9388,-208.7C194.1696,-208.7 173.599,-208.7 155.1288,-208.7"/>
<polygon fill="#000000" stroke="#000000" points="220.5,-208.7001 228.5,-212.3 224.5,-208.7 228.5,-208.7 228.5,-208.7 228.5,-208.7 224.5,-208.7 228.5,-205.1 220.5,-208.7001 220.5,-208.7001"/>
<ellipse fill="none" stroke="#000000" cx="217.3" cy="-208.7001" rx="3.2" ry="3.2"/>
</g>
<!-- public.document_links -->
<g id="node4" class="node">
<title>public.document_links</title>
<g id="a_node4"><a xlink:href="../../../public/tables/document_links.html" xlink:title="public.document_links" target="_top">
<polygon fill="#ffffff" stroke="transparent" points="8,-96.2 8,-157.2 177,-157.2 177,-96.2 8,-96.2"/>
<polygon fill="#f5f5f5" stroke="transparent" points="8.5,-133.7 8.5,-156.7 177.5,-156.7 177.5,-133.7 8.5,-133.7"/>
<polygon fill="none" stroke="#000000" points="8.5,-133.7 8.5,-156.7 177.5,-156.7 177.5,-133.7 8.5,-133.7"/>
<text text-anchor="start" x="13.5" y="-142.3" font-family="Helvetica,sans-Serif" font-weight="bold" font-size="11.00" fill="#000000">public.document_links</text>
<text text-anchor="start" x="143.0219" y="-141.8" font-family="Helvetica,sans-Serif" font-size="11.00" fill="#000000">[table]</text>
<polygon fill="none" stroke="#000000" points="8.5,-114.7 8.5,-133.7 177.5,-133.7 177.5,-114.7 8.5,-114.7"/>
<text text-anchor="start" x="11.5" y="-120.8" font-family="Helvetica,sans-Serif" font-size="11.00" fill="#000000">...</text>
<polygon fill="#ffffff" stroke="transparent" points="8.5,-95.7 8.5,-114.7 69.5,-114.7 69.5,-95.7 8.5,-95.7"/>
<polygon fill="none" stroke="#000000" points="8.5,-95.7 8.5,-114.7 69.5,-114.7 69.5,-95.7 8.5,-95.7"/>
<text text-anchor="start" x="11.5" y="-101.8" font-family="Helvetica,sans-Serif" font-size="11.00" fill="#000000"> &#160;</text>
<polygon fill="#ffffff" stroke="transparent" points="69.5,-95.7 69.5,-114.7 131.5,-114.7 131.5,-95.7 69.5,-95.7"/>
<polygon fill="none" stroke="#000000" points="69.5,-95.7 69.5,-114.7 131.5,-114.7 131.5,-95.7 69.5,-95.7"/>
<text text-anchor="start" x="96.1105" y="-101.8" font-family="Helvetica,sans-Serif" font-size="11.00" fill="#000000">0 rows</text>
<polygon fill="#ffffff" stroke="transparent" points="131.5,-95.7 131.5,-114.7 177.5,-114.7 177.5,-95.7 131.5,-95.7"/>
<polygon fill="none" stroke="#000000" points="131.5,-95.7 131.5,-114.7 177.5,-114.7 177.5,-95.7 131.5,-95.7"/>
<text text-anchor="start" x="158.9053" y="-101.8" font-family="Helvetica,sans-Serif" font-size="11.00" fill="#000000">2 &gt;</text>
</a>
</g>
</g>
<!-- outbound_shipments&#45;&gt;public.document_links -->
<g id="edge4" class="edge">
<title>outbound_shipments:w&#45;&gt;public.document_links:e</title>
<path fill="none" stroke="#000000" d="M214.8656,-180.8565C203.9212,-176.0678 187.5927,-168.8612 170.4017,-161.2546"/>
<polygon fill="#000000" stroke="#000000" points="221.1469,-183.5486 227.0818,-190.0089 224.8234,-185.1243 228.5,-186.7 228.5,-186.7 228.5,-186.7 224.8234,-185.1243 229.9182,-183.3911 221.1469,-183.5486 221.1469,-183.5486"/>
<ellipse fill="none" stroke="#000000" cx="218.2056" cy="-182.288" rx="3.2" ry="3.2"/>
</g>
<!-- outbound_shipments&#45;&gt;public.document_links -->
<g id="edge7" class="edge">
<title>outbound_shipments:w&#45;&gt;public.document_links:e</title>
<path fill="none" stroke="#000000" d="M214.0247,-164.0731C204.4154,-163.2691 194.713,-161.7358 185.2028,-159.7322"/>
<polygon fill="#000000" stroke="#000000" points="220.5075,-164.3538 228.3442,-168.2966 224.5037,-164.5269 228.5,-164.7 228.5,-164.7 228.5,-164.7 224.5037,-164.5269 228.6558,-161.1034 220.5075,-164.3538 220.5075,-164.3538"/>
<ellipse fill="none" stroke="#000000" cx="217.3105" cy="-164.2153" rx="3.2" ry="3.2"/>
</g>
<!-- public.locations -->
<g id="node5" class="node">
<title>public.locations</title>
<g id="a_node5"><a xlink:href="../../../public/tables/locations.html" xlink:title="public.locations" target="_top">
<polygon fill="#ffffff" stroke="transparent" points="27.5,-342.2 27.5,-403.2 157.5,-403.2 157.5,-342.2 27.5,-342.2"/>
<polygon fill="#f5f5f5" stroke="transparent" points="27.5,-379.7 27.5,-402.7 157.5,-402.7 157.5,-379.7 27.5,-379.7"/>
<polygon fill="none" stroke="#000000" points="27.5,-379.7 27.5,-402.7 157.5,-402.7 157.5,-379.7 27.5,-379.7"/>
<text text-anchor="start" x="32.5" y="-388.3" font-family="Helvetica,sans-Serif" font-weight="bold" font-size="11.00" fill="#000000">public.locations</text>
<text text-anchor="start" x="123.0219" y="-387.8" font-family="Helvetica,sans-Serif" font-size="11.00" fill="#000000">[table]</text>
<polygon fill="none" stroke="#000000" points="27.5,-360.7 27.5,-379.7 157.5,-379.7 157.5,-360.7 27.5,-360.7"/>
<text text-anchor="start" x="30.5" y="-366.8" font-family="Helvetica,sans-Serif" font-size="11.00" fill="#000000">...</text>
<polygon fill="#ffffff" stroke="transparent" points="27.5,-341.7 27.5,-360.7 68.5,-360.7 68.5,-341.7 27.5,-341.7"/>
<polygon fill="none" stroke="#000000" points="27.5,-341.7 27.5,-360.7 68.5,-360.7 68.5,-341.7 27.5,-341.7"/>
<text text-anchor="start" x="30.5" y="-347.8" font-family="Helvetica,sans-Serif" font-size="11.00" fill="#000000"> &#160;</text>
<polygon fill="#ffffff" stroke="transparent" points="68.5,-341.7 68.5,-360.7 121.5,-360.7 121.5,-341.7 68.5,-341.7"/>
<polygon fill="none" stroke="#000000" points="68.5,-341.7 68.5,-360.7 121.5,-360.7 121.5,-341.7 68.5,-341.7"/>
<text text-anchor="start" x="86.1105" y="-347.8" font-family="Helvetica,sans-Serif" font-size="11.00" fill="#000000">0 rows</text>
<polygon fill="#ffffff" stroke="transparent" points="121.5,-341.7 121.5,-360.7 157.5,-360.7 157.5,-341.7 121.5,-341.7"/>
<polygon fill="none" stroke="#000000" points="121.5,-341.7 121.5,-360.7 157.5,-360.7 157.5,-341.7 121.5,-341.7"/>
<text text-anchor="start" x="138.9053" y="-347.8" font-family="Helvetica,sans-Serif" font-size="11.00" fill="#000000">1 &gt;</text>
</a>
</g>
</g>
<!-- outbound_shipments&#45;&gt;public.locations -->
<g id="edge6" class="edge">
<title>outbound_shipments:w&#45;&gt;public.locations:e</title>
<path fill="none" stroke="#000000" d="M214.2142,-300.3526C203.4565,-307.1695 200.8916,-322.014 185,-331.7 178.8503,-335.4483 172.2978,-339.0476 165.6292,-342.4495"/>
<polygon fill="#000000" stroke="#000000" points="220.7493,-298.6818 229.3918,-300.1878 224.6247,-297.6909 228.5,-296.7 228.5,-296.7 228.5,-296.7 224.6247,-297.6909 227.6082,-293.2122 220.7493,-298.6818 220.7493,-298.6818"/>
<ellipse fill="none" stroke="#000000" cx="217.6491" cy="-299.4745" rx="3.2" ry="3.2"/>
</g>
<!-- public.trailers -->
<g id="node6" class="node">
<title>public.trailers</title>
<g id="a_node6"><a xlink:href="../../../public/tables/trailers.html" xlink:title="public.trailers" target="_top">
<polygon fill="#ffffff" stroke="transparent" points="34,-260.2 34,-321.2 151,-321.2 151,-260.2 34,-260.2"/>
<polygon fill="#f5f5f5" stroke="transparent" points="34.5,-297.7 34.5,-320.7 151.5,-320.7 151.5,-297.7 34.5,-297.7"/>
<polygon fill="none" stroke="#000000" points="34.5,-297.7 34.5,-320.7 151.5,-320.7 151.5,-297.7 34.5,-297.7"/>
<text text-anchor="start" x="39.5" y="-306.3" font-family="Helvetica,sans-Serif" font-weight="bold" font-size="11.00" fill="#000000">public.trailers</text>
<text text-anchor="start" x="117.0219" y="-305.8" font-family="Helvetica,sans-Serif" font-size="11.00" fill="#000000">[table]</text>
<polygon fill="none" stroke="#000000" points="34.5,-278.7 34.5,-297.7 151.5,-297.7 151.5,-278.7 34.5,-278.7"/>
<text text-anchor="start" x="37.5" y="-284.8" font-family="Helvetica,sans-Serif" font-size="11.00" fill="#000000">...</text>
<polygon fill="#ffffff" stroke="transparent" points="34.5,-259.7 34.5,-278.7 69.5,-278.7 69.5,-259.7 34.5,-259.7"/>
<polygon fill="none" stroke="#000000" points="34.5,-259.7 34.5,-278.7 69.5,-278.7 69.5,-259.7 34.5,-259.7"/>
<text text-anchor="start" x="37.5" y="-265.8" font-family="Helvetica,sans-Serif" font-size="11.00" fill="#000000"> &#160;</text>
<polygon fill="#ffffff" stroke="transparent" points="69.5,-259.7 69.5,-278.7 118.5,-278.7 118.5,-259.7 69.5,-259.7"/>
<polygon fill="none" stroke="#000000" points="69.5,-259.7 69.5,-278.7 118.5,-278.7 118.5,-259.7 69.5,-259.7"/>
<text text-anchor="start" x="83.1105" y="-265.8" font-family="Helvetica,sans-Serif" font-size="11.00" fill="#000000">0 rows</text>
<polygon fill="#ffffff" stroke="transparent" points="118.5,-259.7 118.5,-278.7 151.5,-278.7 151.5,-259.7 118.5,-259.7"/>
<polygon fill="none" stroke="#000000" points="118.5,-259.7 118.5,-278.7 151.5,-278.7 151.5,-259.7 118.5,-259.7"/>
<text text-anchor="start" x="132.9053" y="-265.8" font-family="Helvetica,sans-Serif" font-size="11.00" fill="#000000">1 &gt;</text>
</a>
</g>
</g>
<!-- outbound_shipments&#45;&gt;public.trailers -->
<g id="edge9" class="edge">
<title>outbound_shipments:w&#45;&gt;public.trailers:e</title>
<path fill="none" stroke="#000000" d="M213.9109,-274.9816C195.4975,-275.6645 176.4567,-277.5156 159.069,-279.7186"/>
<polygon fill="#000000" stroke="#000000" points="220.5015,-274.8545 228.5695,-278.2993 224.5007,-274.7772 228.5,-274.7 228.5,-274.7 228.5,-274.7 224.5007,-274.7772 228.4305,-271.1007 220.5015,-274.8545 220.5015,-274.8545"/>
<ellipse fill="none" stroke="#000000" cx="217.3021" cy="-274.9162" rx="3.2" ry="3.2"/>
</g>
<!-- public.warehouses -->
<g id="node7" class="node">
<title>public.warehouses</title>
<g id="a_node7"><a xlink:href="../../../public/tables/warehouses.html" xlink:title="public.warehouses" target="_top">
<polygon fill="#ffffff" stroke="transparent" points="19,-508.2 19,-569.2 166,-569.2 166,-508.2 19,-508.2"/>
<polygon fill="#f5f5f5" stroke="transparent" points="19.5,-545.7 19.5,-568.7 166.5,-568.7 166.5,-545.7 19.5,-545.7"/>
<polygon fill="none" stroke="#000000" points="19.5,-545.7 19.5,-568.7 166.5,-568.7 166.5,-545.7 19.5,-545.7"/>
<text text-anchor="start" x="24.5" y="-554.3" font-family="Helvetica,sans-Serif" font-weight="bold" font-size="11.00" fill="#000000">public.warehouses</text>
<text text-anchor="start" x="132.0219" y="-553.8" font-family="Helvetica,sans-Serif" font-size="11.00" fill="#000000">[table]</text>
<polygon fill="none" stroke="#000000" points="19.5,-526.7 19.5,-545.7 166.5,-545.7 166.5,-526.7 19.5,-526.7"/>
<text text-anchor="start" x="22.5" y="-532.8" font-family="Helvetica,sans-Serif" font-size="11.00" fill="#000000">...</text>
<polygon fill="#ffffff" stroke="transparent" points="19.5,-507.7 19.5,-526.7 69.5,-526.7 69.5,-507.7 19.5,-507.7"/>
<polygon fill="none" stroke="#000000" points="19.5,-507.7 19.5,-526.7 69.5,-526.7 69.5,-507.7 19.5,-507.7"/>
<text text-anchor="start" x="22.5" y="-513.8" font-family="Helvetica,sans-Serif" font-size="11.00" fill="#000000"> &#160;</text>
<polygon fill="#ffffff" stroke="transparent" points="69.5,-507.7 69.5,-526.7 126.5,-526.7 126.5,-507.7 69.5,-507.7"/>
<polygon fill="none" stroke="#000000" points="69.5,-507.7 69.5,-526.7 126.5,-526.7 126.5,-507.7 69.5,-507.7"/>
<text text-anchor="start" x="91.1105" y="-513.8" font-family="Helvetica,sans-Serif" font-size="11.00" fill="#000000">0 rows</text>
<polygon fill="#ffffff" stroke="transparent" points="126.5,-507.7 126.5,-526.7 166.5,-526.7 166.5,-507.7 126.5,-507.7"/>
<polygon fill="none" stroke="#000000" points="126.5,-507.7 126.5,-526.7 166.5,-526.7 166.5,-507.7 126.5,-507.7"/>
<text text-anchor="start" x="147.9053" y="-513.8" font-family="Helvetica,sans-Serif" font-size="11.00" fill="#000000">5 &gt;</text>
</a>
</g>
</g>
<!-- outbound_shipments&#45;&gt;public.warehouses -->
<g id="edge11" class="edge">
<title>outbound_shipments:w&#45;&gt;public.warehouses:e</title>
<path fill="none" stroke="#000000" d="M213.8291,-538.7C200.6616,-538.7 187.141,-538.7 174.1245,-538.7"/>
<polygon fill="#000000" stroke="#000000" points="220.5,-538.7001 228.5,-542.3 224.5,-538.7 228.5,-538.7 228.5,-538.7 228.5,-538.7 224.5,-538.7 228.5,-535.1 220.5,-538.7001 220.5,-538.7001"/>
<ellipse fill="none" stroke="#000000" cx="217.3" cy="-538.7001" rx="3.2" ry="3.2"/>
</g>
</g>
</svg>
