<?xml version="1.0" encoding="UTF-8" standalone="no"?>
<!DOCTYPE svg PUBLIC "-//W3C//DTD SVG 1.1//EN"
 "http://www.w3.org/Graphics/SVG/1.1/DTD/svg11.dtd">
<!-- Generated by graphviz version 2.40.1 (20161225.0304)
 -->
<!-- Title: oneDegreeRelationshipsDiagram Pages: 1 -->
<svg width="673pt" height="596pt"
 viewBox="0.00 0.00 673.00 595.70" xmlns="http://www.w3.org/2000/svg" xmlns:xlink="http://www.w3.org/1999/xlink">
<g id="graph0" class="graph" transform="scale(1 1) rotate(0) translate(4 591.7)">
<title>oneDegreeRelationshipsDiagram</title>
<polygon fill="#ffffff" stroke="transparent" points="-4,4 -4,-591.7 669,-591.7 669,4 -4,4"/>
<text text-anchor="middle" x="72.4936" y="-7.3" font-family="Helvetica,sans-Serif" font-size="11.00" fill="#000000">Generated by SchemaSpy</text>
<!-- outbound_shipment_lines -->
<g id="node1" class="node">
<title>outbound_shipment_lines</title>
<g id="a_node1"><a xlink:href="../../tables/outbound_shipment_lines.html" xlink:title="outbound_shipment_lines" target="_top">
<polygon fill="#ffffff" stroke="transparent" points="380,-38.2 380,-304.2 657,-304.2 657,-38.2 380,-38.2"/>
<polygon fill="#f5f5f5" stroke="transparent" points="382.5,-279.2 382.5,-302.2 655.5,-302.2 655.5,-279.2 382.5,-279.2"/>
<polygon fill="none" stroke="#000000" points="382.5,-279.2 382.5,-302.2 655.5,-302.2 655.5,-279.2 382.5,-279.2"/>
<text text-anchor="start" x="387.5" y="-287.8" font-family="Helvetica,sans-Serif" font-weight="bold" font-size="11.00" fill="#000000">outbound_shipment_lines</text>
<text text-anchor="start" x="620.5437" y="-287.3" font-family="Helvetica,sans-Serif" font-size="11.00" fill="#000000">[table]</text>
<polygon fill="none" stroke="#000000" points="382.5,-257.2 382.5,-279.2 563.5,-279.2 563.5,-257.2 382.5,-257.2"/>
<image xlink:href="../../images/primaryKeys.png" width="11px" height="12px" preserveAspectRatio="xMinYMin meet" x="387.5" y="-274.2"/>
<text text-anchor="start" x="402.5" y="-264.3" font-family="Helvetica,sans-Serif" font-size="11.00" fill="#000000">outbound_shipment_line_id</text>
<polygon fill="none" stroke="#000000" points="563.5,-257.2 563.5,-279.2 655.5,-279.2 655.5,-257.2 563.5,-257.2"/>
<text text-anchor="start" x="566.5" y="-264.9" font-family="Helvetica,sans-Serif" font-size="11.00" fill="#000000">int8[19]</text>
<polygon fill="#ffffff" stroke="transparent" points="382.5,-235.2 382.5,-257.2 563.5,-257.2 563.5,-235.2 382.5,-235.2"/>
<polygon fill="none" stroke="#000000" points="382.5,-235.2 382.5,-257.2 563.5,-257.2 563.5,-235.2 382.5,-235.2"/>
<image xlink:href="../../images/foreignKeys.png" width="11px" height="12px" preserveAspectRatio="xMinYMin meet" x="387.5" y="-252.2"/>
<text text-anchor="start" x="402.5" y="-242.3" font-family="Helvetica,sans-Serif" font-size="11.00" fill="#000000">outbound_shipment_id</text>
<polygon fill="none" stroke="#000000" points="563.5,-235.2 563.5,-257.2 655.5,-257.2 655.5,-235.2 563.5,-235.2"/>
<text text-anchor="start" x="566.5" y="-242.9" font-family="Helvetica,sans-Serif" font-size="11.00" fill="#000000">int8[19]</text>
<polygon fill="none" stroke="#000000" points="382.5,-213.2 382.5,-235.2 563.5,-235.2 563.5,-213.2 382.5,-213.2"/>
<text text-anchor="start" x="402.5" y="-220.3" font-family="Helvetica,sans-Serif" font-size="11.00" fill="#000000">notes</text>
<polygon fill="none" stroke="#000000" points="563.5,-213.2 563.5,-235.2 655.5,-235.2 655.5,-213.2 563.5,-213.2"/>
<text text-anchor="start" x="566.5" y="-220.9" font-family="Helvetica,sans-Serif" font-size="11.00" fill="#000000">text[2147483647]</text>
<polygon fill="none" stroke="#000000" points="382.5,-191.2 382.5,-213.2 563.5,-213.2 563.5,-191.2 382.5,-191.2"/>
<image xlink:href="../../images/foreignKeys.png" width="11px" height="12px" preserveAspectRatio="xMinYMin meet" x="387.5" y="-208.2"/>
<text text-anchor="start" x="402.5" y="-198.3" font-family="Helvetica,sans-Serif" font-size="11.00" fill="#000000">order_id</text>
<polygon fill="none" stroke="#000000" points="563.5,-191.2 563.5,-213.2 655.5,-213.2 655.5,-191.2 563.5,-191.2"/>
<text text-anchor="start" x="566.5" y="-198.9" font-family="Helvetica,sans-Serif" font-size="11.00" fill="#000000">int8[19]</text>
<polygon fill="#ffffff" stroke="transparent" points="382.5,-169.2 382.5,-191.2 563.5,-191.2 563.5,-169.2 382.5,-169.2"/>
<polygon fill="none" stroke="#000000" points="382.5,-169.2 382.5,-191.2 563.5,-191.2 563.5,-169.2 382.5,-169.2"/>
<image xlink:href="../../images/foreignKeys.png" width="11px" height="12px" preserveAspectRatio="xMinYMin meet" x="387.5" y="-186.2"/>
<text text-anchor="start" x="402.5" y="-176.3" font-family="Helvetica,sans-Serif" font-size="11.00" fill="#000000">order_detail_id</text>
<polygon fill="none" stroke="#000000" points="563.5,-169.2 563.5,-191.2 655.5,-191.2 655.5,-169.2 563.5,-169.2"/>
<text text-anchor="start" x="566.5" y="-176.9" font-family="Helvetica,sans-Serif" font-size="11.00" fill="#000000">int8[19]</text>
<polygon fill="none" stroke="#000000" points="382.5,-147.2 382.5,-169.2 563.5,-169.2 563.5,-147.2 382.5,-147.2"/>
<text text-anchor="start" x="402.5" y="-154.3" font-family="Helvetica,sans-Serif" font-size="11.00" fill="#000000">created_at</text>
<polygon fill="none" stroke="#000000" points="563.5,-147.2 563.5,-169.2 655.5,-169.2 655.5,-147.2 563.5,-147.2"/>
<text text-anchor="start" x="566.1023" y="-154.9" font-family="Helvetica,sans-Serif" font-size="11.00" fill="#000000">timestamptz[35,6]</text>
<polygon fill="none" stroke="#000000" points="382.5,-125.2 382.5,-147.2 563.5,-147.2 563.5,-125.2 382.5,-125.2"/>
<text text-anchor="start" x="402.5" y="-132.3" font-family="Helvetica,sans-Serif" font-size="11.00" fill="#000000">updated_at</text>
<polygon fill="none" stroke="#000000" points="563.5,-125.2 563.5,-147.2 655.5,-147.2 655.5,-125.2 563.5,-125.2"/>
<text text-anchor="start" x="566.1023" y="-132.9" font-family="Helvetica,sans-Serif" font-size="11.00" fill="#000000">timestamptz[35,6]</text>
<polygon fill="none" stroke="#000000" points="382.5,-103.2 382.5,-125.2 563.5,-125.2 563.5,-103.2 382.5,-103.2"/>
<image xlink:href="../../images/foreignKeys.png" width="11px" height="12px" preserveAspectRatio="xMinYMin meet" x="387.5" y="-120.2"/>
<text text-anchor="start" x="402.5" y="-110.3" font-family="Helvetica,sans-Serif" font-size="11.00" fill="#000000">created_by</text>
<polygon fill="none" stroke="#000000" points="563.5,-103.2 563.5,-125.2 655.5,-125.2 655.5,-103.2 563.5,-103.2"/>
<text text-anchor="start" x="566.5" y="-110.9" font-family="Helvetica,sans-Serif" font-size="11.00" fill="#000000">int8[19]</text>
<polygon fill="none" stroke="#000000" points="382.5,-81.2 382.5,-103.2 563.5,-103.2 563.5,-81.2 382.5,-81.2"/>
<image xlink:href="../../images/foreignKeys.png" width="11px" height="12px" preserveAspectRatio="xMinYMin meet" x="387.5" y="-98.2"/>
<text text-anchor="start" x="402.5" y="-88.3" font-family="Helvetica,sans-Serif" font-size="11.00" fill="#000000">updated_by</text>
<polygon fill="none" stroke="#000000" points="563.5,-81.2 563.5,-103.2 655.5,-103.2 655.5,-81.2 563.5,-81.2"/>
<text text-anchor="start" x="566.5" y="-88.9" font-family="Helvetica,sans-Serif" font-size="11.00" fill="#000000">int8[19]</text>
<polygon fill="none" stroke="#000000" points="382.5,-59.2 382.5,-81.2 563.5,-81.2 563.5,-59.2 382.5,-59.2"/>
<text text-anchor="start" x="402.5" y="-66.3" font-family="Helvetica,sans-Serif" font-size="11.00" fill="#000000">quantity</text>
<polygon fill="none" stroke="#000000" points="563.5,-59.2 563.5,-81.2 655.5,-81.2 655.5,-59.2 563.5,-59.2"/>
<text text-anchor="start" x="566.5" y="-66.9" font-family="Helvetica,sans-Serif" font-size="11.00" fill="#000000">int4[10]</text>
<polygon fill="#ffffff" stroke="transparent" points="382.5,-40.2 382.5,-59.2 464.5,-59.2 464.5,-40.2 382.5,-40.2"/>
<polygon fill="none" stroke="#000000" points="382.5,-40.2 382.5,-59.2 464.5,-59.2 464.5,-40.2 382.5,-40.2"/>
<text text-anchor="start" x="385.5" y="-46.3" font-family="Helvetica,sans-Serif" font-size="11.00" fill="#000000">&lt; 5</text>
<polygon fill="#ffffff" stroke="transparent" points="464.5,-40.2 464.5,-59.2 563.5,-59.2 563.5,-40.2 464.5,-40.2"/>
<polygon fill="none" stroke="#000000" points="464.5,-40.2 464.5,-59.2 563.5,-59.2 563.5,-40.2 464.5,-40.2"/>
<text text-anchor="start" x="528.1105" y="-46.3" font-family="Helvetica,sans-Serif" font-size="11.00" fill="#000000">6 rows</text>
<polygon fill="#ffffff" stroke="transparent" points="563.5,-40.2 563.5,-59.2 655.5,-59.2 655.5,-40.2 563.5,-40.2"/>
<polygon fill="none" stroke="#000000" points="563.5,-40.2 563.5,-59.2 655.5,-59.2 655.5,-40.2 563.5,-40.2"/>
<text text-anchor="start" x="636.9053" y="-46.3" font-family="Helvetica,sans-Serif" font-size="11.00" fill="#000000">0 &gt;</text>
<polygon fill="none" stroke="#000000" stroke-width="2" points="381,-39.2 381,-303.2 656,-303.2 656,-39.2 381,-39.2"/>
</a>
</g>
</g>
<!-- public.users -->
<g id="node2" class="node">
<title>public.users</title>
<g id="a_node2"><a xlink:href="../../../public/tables/users.html" xlink:title="public.users" target="_top">
<polygon fill="#ffffff" stroke="transparent" points="8,-364.7 8,-425.7 117,-425.7 117,-364.7 8,-364.7"/>
<polygon fill="#f5f5f5" stroke="transparent" points="8.5,-402.2 8.5,-425.2 117.5,-425.2 117.5,-402.2 8.5,-402.2"/>
<polygon fill="none" stroke="#000000" points="8.5,-402.2 8.5,-425.2 117.5,-425.2 117.5,-402.2 8.5,-402.2"/>
<text text-anchor="start" x="13.5" y="-410.8" font-family="Helvetica,sans-Serif" font-weight="bold" font-size="11.00" fill="#000000">public.users</text>
<text text-anchor="start" x="83.0219" y="-410.3" font-family="Helvetica,sans-Serif" font-size="11.00" fill="#000000">[table]</text>
<polygon fill="none" stroke="#000000" points="8.5,-383.2 8.5,-402.2 117.5,-402.2 117.5,-383.2 8.5,-383.2"/>
<text text-anchor="start" x="11.5" y="-389.3" font-family="Helvetica,sans-Serif" font-size="11.00" fill="#000000">...</text>
<polygon fill="#ffffff" stroke="transparent" points="8.5,-364.2 8.5,-383.2 36.5,-383.2 36.5,-364.2 8.5,-364.2"/>
<polygon fill="none" stroke="#000000" points="8.5,-364.2 8.5,-383.2 36.5,-383.2 36.5,-364.2 8.5,-364.2"/>
<text text-anchor="start" x="11.5" y="-370.3" font-family="Helvetica,sans-Serif" font-size="11.00" fill="#000000"> &#160;</text>
<polygon fill="#ffffff" stroke="transparent" points="36.5,-364.2 36.5,-383.2 82.5,-383.2 82.5,-364.2 36.5,-364.2"/>
<polygon fill="none" stroke="#000000" points="36.5,-364.2 36.5,-383.2 82.5,-383.2 82.5,-364.2 36.5,-364.2"/>
<text text-anchor="start" x="47.1105" y="-370.3" font-family="Helvetica,sans-Serif" font-size="11.00" fill="#000000">0 rows</text>
<polygon fill="#ffffff" stroke="transparent" points="82.5,-364.2 82.5,-383.2 117.5,-383.2 117.5,-364.2 82.5,-364.2"/>
<polygon fill="none" stroke="#000000" points="82.5,-364.2 82.5,-383.2 117.5,-383.2 117.5,-364.2 82.5,-364.2"/>
<text text-anchor="start" x="92.7904" y="-370.3" font-family="Helvetica,sans-Serif" font-size="11.00" fill="#000000">13 &gt;</text>
</a>
</g>
</g>
<!-- outbound_shipment_lines&#45;&gt;public.users -->
<g id="edge1" class="edge">
<title>outbound_shipment_lines:w&#45;&gt;public.users:e</title>
<path fill="none" stroke="#000000" d="M367.9635,-113.8759C277.9955,-109.8728 233.9206,-71.1066 158,-128.2 119.8836,-156.8641 84.7605,-295.0779 69.9329,-360.6003"/>
<polygon fill="#000000" stroke="#000000" points="374.502,-114.0216 382.4197,-117.7991 378.501,-114.1108 382.5,-114.2 382.5,-114.2 382.5,-114.2 378.501,-114.1108 382.5803,-110.6009 374.502,-114.0216 374.502,-114.0216"/>
<ellipse fill="none" stroke="#000000" cx="371.3028" cy="-113.9502" rx="3.2" ry="3.2"/>
</g>
<!-- outbound_shipment_lines&#45;&gt;public.users -->
<g id="edge5" class="edge">
<title>outbound_shipment_lines:w&#45;&gt;public.users:e</title>
<path fill="none" stroke="#000000" d="M367.9846,-91.8199C278.1353,-87.1167 233.8907,-41.3172 158,-98.2 115.2562,-130.238 81.6846,-289.2286 68.5269,-360.5154"/>
<polygon fill="#000000" stroke="#000000" points="374.5027,-91.9905 382.4057,-95.7988 378.5014,-92.0953 382.5,-92.2 382.5,-92.2 382.5,-92.2 378.5014,-92.0953 382.5943,-88.6012 374.5027,-91.9905 374.5027,-91.9905"/>
<ellipse fill="none" stroke="#000000" cx="371.3038" cy="-91.9067" rx="3.2" ry="3.2"/>
</g>
<!-- public.order_detail -->
<g id="node3" class="node">
<title>public.order_detail</title>
<g id="a_node3"><a xlink:href="../../../public/tables/order_detail.html" xlink:title="public.order_detail" target="_top">
<polygon fill="#ffffff" stroke="transparent" points="175.5,-138.7 175.5,-199.7 321.5,-199.7 321.5,-138.7 175.5,-138.7"/>
<polygon fill="#f5f5f5" stroke="transparent" points="175.5,-176.2 175.5,-199.2 321.5,-199.2 321.5,-176.2 175.5,-176.2"/>
<polygon fill="none" stroke="#000000" points="175.5,-176.2 175.5,-199.2 321.5,-199.2 321.5,-176.2 175.5,-176.2"/>
<text text-anchor="start" x="180.5" y="-184.8" font-family="Helvetica,sans-Serif" font-weight="bold" font-size="11.00" fill="#000000">public.order_detail</text>
<text text-anchor="start" x="287.0219" y="-184.3" font-family="Helvetica,sans-Serif" font-size="11.00" fill="#000000">[table]</text>
<polygon fill="none" stroke="#000000" points="175.5,-157.2 175.5,-176.2 321.5,-176.2 321.5,-157.2 175.5,-157.2"/>
<text text-anchor="start" x="178.5" y="-163.3" font-family="Helvetica,sans-Serif" font-size="11.00" fill="#000000">...</text>
<polygon fill="#ffffff" stroke="transparent" points="175.5,-138.2 175.5,-157.2 224.5,-157.2 224.5,-138.2 175.5,-138.2"/>
<polygon fill="none" stroke="#000000" points="175.5,-138.2 175.5,-157.2 224.5,-157.2 224.5,-138.2 175.5,-138.2"/>
<text text-anchor="start" x="178.5" y="-144.3" font-family="Helvetica,sans-Serif" font-size="11.00" fill="#000000"> &#160;</text>
<polygon fill="#ffffff" stroke="transparent" points="224.5,-138.2 224.5,-157.2 281.5,-157.2 281.5,-138.2 224.5,-138.2"/>
<polygon fill="none" stroke="#000000" points="224.5,-138.2 224.5,-157.2 281.5,-157.2 281.5,-138.2 224.5,-138.2"/>
<text text-anchor="start" x="246.1105" y="-144.3" font-family="Helvetica,sans-Serif" font-size="11.00" fill="#000000">0 rows</text>
<polygon fill="#ffffff" stroke="transparent" points="281.5,-138.2 281.5,-157.2 321.5,-157.2 321.5,-138.2 281.5,-138.2"/>
<polygon fill="none" stroke="#000000" points="281.5,-138.2 281.5,-157.2 321.5,-157.2 321.5,-138.2 281.5,-138.2"/>
<text text-anchor="start" x="302.9053" y="-144.3" font-family="Helvetica,sans-Serif" font-size="11.00" fill="#000000">2 &gt;</text>
</a>
</g>
</g>
<!-- outbound_shipment_lines&#45;&gt;public.order_detail -->
<g id="edge2" class="edge">
<title>outbound_shipment_lines:w&#45;&gt;public.order_detail:e</title>
<path fill="none" stroke="#000000" d="M367.7875,-179.9964C355.0929,-179.6594 342.0863,-178.9296 329.5477,-178.0004"/>
<polygon fill="#000000" stroke="#000000" points="374.5008,-180.0893 382.4502,-183.7997 378.5004,-180.1446 382.5,-180.2 382.5,-180.2 382.5,-180.2 378.5004,-180.1446 382.5498,-176.6003 374.5008,-180.0893 374.5008,-180.0893"/>
<ellipse fill="none" stroke="#000000" cx="371.3011" cy="-180.045" rx="3.2" ry="3.2"/>
</g>
<!-- public.orders -->
<g id="node4" class="node">
<title>public.orders</title>
<g id="a_node4"><a xlink:href="../../../public/tables/orders.html" xlink:title="public.orders" target="_top">
<polygon fill="#ffffff" stroke="transparent" points="191,-220.7 191,-281.7 306,-281.7 306,-220.7 191,-220.7"/>
<polygon fill="#f5f5f5" stroke="transparent" points="191.5,-258.2 191.5,-281.2 306.5,-281.2 306.5,-258.2 191.5,-258.2"/>
<polygon fill="none" stroke="#000000" points="191.5,-258.2 191.5,-281.2 306.5,-281.2 306.5,-258.2 191.5,-258.2"/>
<text text-anchor="start" x="196.5" y="-266.8" font-family="Helvetica,sans-Serif" font-weight="bold" font-size="11.00" fill="#000000">public.orders</text>
<text text-anchor="start" x="272.0219" y="-266.3" font-family="Helvetica,sans-Serif" font-size="11.00" fill="#000000">[table]</text>
<polygon fill="none" stroke="#000000" points="191.5,-239.2 191.5,-258.2 306.5,-258.2 306.5,-239.2 191.5,-239.2"/>
<text text-anchor="start" x="194.5" y="-245.3" font-family="Helvetica,sans-Serif" font-size="11.00" fill="#000000">...</text>
<polygon fill="#ffffff" stroke="transparent" points="191.5,-220.2 191.5,-239.2 225.5,-239.2 225.5,-220.2 191.5,-220.2"/>
<polygon fill="none" stroke="#000000" points="191.5,-220.2 191.5,-239.2 225.5,-239.2 225.5,-220.2 191.5,-220.2"/>
<text text-anchor="start" x="194.5" y="-226.3" font-family="Helvetica,sans-Serif" font-size="11.00" fill="#000000"> &#160;</text>
<polygon fill="#ffffff" stroke="transparent" points="225.5,-220.2 225.5,-239.2 274.5,-239.2 274.5,-220.2 225.5,-220.2"/>
<polygon fill="none" stroke="#000000" points="225.5,-220.2 225.5,-239.2 274.5,-239.2 274.5,-220.2 225.5,-220.2"/>
<text text-anchor="start" x="239.1105" y="-226.3" font-family="Helvetica,sans-Serif" font-size="11.00" fill="#000000">0 rows</text>
<polygon fill="#ffffff" stroke="transparent" points="274.5,-220.2 274.5,-239.2 306.5,-239.2 306.5,-220.2 274.5,-220.2"/>
<polygon fill="none" stroke="#000000" points="274.5,-220.2 274.5,-239.2 306.5,-239.2 306.5,-220.2 274.5,-220.2"/>
<text text-anchor="start" x="287.9053" y="-226.3" font-family="Helvetica,sans-Serif" font-size="11.00" fill="#000000">3 &gt;</text>
</a>
</g>
</g>
<!-- outbound_shipment_lines&#45;&gt;public.orders -->
<g id="edge3" class="edge">
<title>outbound_shipment_lines:w&#45;&gt;public.orders:e</title>
<path fill="none" stroke="#000000" d="M367.7585,-204.2781C352.9843,-207.6588 333.2655,-214.7469 314.1227,-222.4131"/>
<polygon fill="#000000" stroke="#000000" points="374.5783,-203.3167 383.0025,-205.7648 378.5392,-202.7584 382.5,-202.2 382.5,-202.2 382.5,-202.2 378.5392,-202.7584 381.9975,-198.6352 374.5783,-203.3167 374.5783,-203.3167"/>
<ellipse fill="none" stroke="#000000" cx="371.4097" cy="-203.7634" rx="3.2" ry="3.2"/>
</g>
<!-- outbound_shipments -->
<g id="node5" class="node">
<title>outbound_shipments</title>
<g id="a_node5"><a xlink:href="../../tables/outbound_shipments.html" xlink:title="outbound_shipments" target="_top">
<polygon fill="#ffffff" stroke="transparent" points="166,-302.7 166,-583.7 331,-583.7 331,-302.7 166,-302.7"/>
<polygon fill="#f5f5f5" stroke="transparent" points="166.5,-560.2 166.5,-583.2 331.5,-583.2 331.5,-560.2 166.5,-560.2"/>
<polygon fill="none" stroke="#000000" points="166.5,-560.2 166.5,-583.2 331.5,-583.2 331.5,-560.2 166.5,-560.2"/>
<text text-anchor="start" x="171.5" y="-568.8" font-family="Helvetica,sans-Serif" font-weight="bold" font-size="11.00" fill="#000000">outbound_shipments</text>
<text text-anchor="start" x="296.5437" y="-568.3" font-family="Helvetica,sans-Serif" font-size="11.00" fill="#000000">[table]</text>
<polygon fill="none" stroke="#000000" points="166.5,-538.2 166.5,-560.2 331.5,-560.2 331.5,-538.2 166.5,-538.2"/>
<image xlink:href="../../images/primaryKeys.png" width="11px" height="12px" preserveAspectRatio="xMinYMin meet" x="171.5" y="-555.2"/>
<text text-anchor="start" x="186.5" y="-545.3" font-family="Helvetica,sans-Serif" font-size="11.00" fill="#000000">outbound_shipment_id</text>
<polygon fill="none" stroke="#000000" points="166.5,-516.2 166.5,-538.2 331.5,-538.2 331.5,-516.2 166.5,-516.2"/>
<image xlink:href="../../images/foreignKeys.png" width="11px" height="12px" preserveAspectRatio="xMinYMin meet" x="171.5" y="-533.2"/>
<text text-anchor="start" x="186.5" y="-523.3" font-family="Helvetica,sans-Serif" font-size="11.00" fill="#000000">warehouse_id</text>
<polygon fill="#ffffff" stroke="transparent" points="166.5,-494.2 166.5,-516.2 331.5,-516.2 331.5,-494.2 166.5,-494.2"/>
<polygon fill="none" stroke="#000000" points="166.5,-494.2 166.5,-516.2 331.5,-516.2 331.5,-494.2 166.5,-494.2"/>
<text text-anchor="start" x="186.5" y="-501.3" font-family="Helvetica,sans-Serif" font-size="11.00" fill="#000000">shipment_number</text>
<polygon fill="none" stroke="#000000" points="166.5,-472.2 166.5,-494.2 331.5,-494.2 331.5,-472.2 166.5,-472.2"/>
<image xlink:href="../../images/foreignKeys.png" width="11px" height="12px" preserveAspectRatio="xMinYMin meet" x="171.5" y="-489.2"/>
<text text-anchor="start" x="186.5" y="-479.3" font-family="Helvetica,sans-Serif" font-size="11.00" fill="#000000">destination_location_id</text>
<polygon fill="none" stroke="#000000" points="166.5,-450.2 166.5,-472.2 331.5,-472.2 331.5,-450.2 166.5,-450.2"/>
<image xlink:href="../../images/foreignKeys.png" width="11px" height="12px" preserveAspectRatio="xMinYMin meet" x="171.5" y="-467.2"/>
<text text-anchor="start" x="186.5" y="-457.3" font-family="Helvetica,sans-Serif" font-size="11.00" fill="#000000">trailer_id</text>
<polygon fill="none" stroke="#000000" points="166.5,-428.2 166.5,-450.2 331.5,-450.2 331.5,-428.2 166.5,-428.2"/>
<image xlink:href="../../images/foreignKeys.png" width="11px" height="12px" preserveAspectRatio="xMinYMin meet" x="171.5" y="-445.2"/>
<text text-anchor="start" x="186.5" y="-435.3" font-family="Helvetica,sans-Serif" font-size="11.00" fill="#000000">loaded_by</text>
<polygon fill="none" stroke="#000000" points="166.5,-406.2 166.5,-428.2 331.5,-428.2 331.5,-406.2 166.5,-406.2"/>
<image xlink:href="../../images/foreignKeys.png" width="11px" height="12px" preserveAspectRatio="xMinYMin meet" x="171.5" y="-423.2"/>
<text text-anchor="start" x="186.5" y="-413.3" font-family="Helvetica,sans-Serif" font-size="11.00" fill="#000000">created_by</text>
<polygon fill="none" stroke="#000000" points="166.5,-384.2 166.5,-406.2 331.5,-406.2 331.5,-384.2 166.5,-384.2"/>
<image xlink:href="../../images/foreignKeys.png" width="11px" height="12px" preserveAspectRatio="xMinYMin meet" x="171.5" y="-401.2"/>
<text text-anchor="start" x="186.5" y="-391.3" font-family="Helvetica,sans-Serif" font-size="11.00" fill="#000000">updated_by</text>
<polygon fill="none" stroke="#000000" points="166.5,-362.2 166.5,-384.2 331.5,-384.2 331.5,-362.2 166.5,-362.2"/>
<image xlink:href="../../images/foreignKeys.png" width="11px" height="12px" preserveAspectRatio="xMinYMin meet" x="171.5" y="-379.2"/>
<text text-anchor="start" x="186.5" y="-369.3" font-family="Helvetica,sans-Serif" font-size="11.00" fill="#000000">bol_document_id</text>
<polygon fill="none" stroke="#000000" points="166.5,-340.2 166.5,-362.2 331.5,-362.2 331.5,-340.2 166.5,-340.2"/>
<image xlink:href="../../images/foreignKeys.png" width="11px" height="12px" preserveAspectRatio="xMinYMin meet" x="171.5" y="-357.2"/>
<text text-anchor="start" x="186.5" y="-347.3" font-family="Helvetica,sans-Serif" font-size="11.00" fill="#000000">load_sheet_document_id</text>
<polygon fill="none" stroke="#000000" points="166.5,-321.2 166.5,-340.2 331.5,-340.2 331.5,-321.2 166.5,-321.2"/>
<text text-anchor="start" x="169.5" y="-327.3" font-family="Helvetica,sans-Serif" font-size="11.00" fill="#000000">...</text>
<polygon fill="#ffffff" stroke="transparent" points="166.5,-302.2 166.5,-321.2 242.5,-321.2 242.5,-302.2 166.5,-302.2"/>
<polygon fill="none" stroke="#000000" points="166.5,-302.2 166.5,-321.2 242.5,-321.2 242.5,-302.2 166.5,-302.2"/>
<text text-anchor="start" x="169.5" y="-308.3" font-family="Helvetica,sans-Serif" font-size="11.00" fill="#000000">&lt; 8</text>
<polygon fill="#ffffff" stroke="transparent" points="242.5,-302.2 242.5,-321.2 282.5,-321.2 282.5,-302.2 242.5,-302.2"/>
<polygon fill="none" stroke="#000000" points="242.5,-302.2 242.5,-321.2 282.5,-321.2 282.5,-302.2 242.5,-302.2"/>
<text text-anchor="start" x="273.3862" y="-308.3" font-family="Helvetica,sans-Serif" font-size="11.00" fill="#000000"> &#160;</text>
<polygon fill="#ffffff" stroke="transparent" points="282.5,-302.2 282.5,-321.2 331.5,-321.2 331.5,-302.2 282.5,-302.2"/>
<polygon fill="none" stroke="#000000" points="282.5,-302.2 282.5,-321.2 331.5,-321.2 331.5,-302.2 282.5,-302.2"/>
<text text-anchor="start" x="312.9053" y="-308.3" font-family="Helvetica,sans-Serif" font-size="11.00" fill="#000000">1 &gt;</text>
</a>
</g>
</g>
<!-- outbound_shipment_lines&#45;&gt;outbound_shipments -->
<g id="edge4" class="edge">
<title>outbound_shipment_lines:w&#45;&gt;outbound_shipments:e</title>
<path fill="none" stroke="#000000" d="M368.8982,-251.7178C326.9361,-292.7844 394.3127,-549.2 331.5,-549.2"/>
<polygon fill="#000000" stroke="#000000" points="375.0868,-249.2073 383.8533,-249.536 378.7934,-247.7037 382.5,-246.2 382.5,-246.2 382.5,-246.2 378.7934,-247.7037 381.1467,-242.864 375.0868,-249.2073 375.0868,-249.2073"/>
<ellipse fill="none" stroke="#000000" cx="372.1215" cy="-250.4103" rx="3.2" ry="3.2"/>
</g>
<!-- outbound_shipments&#45;&gt;public.users -->
<g id="edge6" class="edge">
<title>outbound_shipments:w&#45;&gt;public.users:e</title>
<path fill="none" stroke="#000000" d="M151.9712,-416.5728C142.9437,-415.8294 133.8185,-414.4775 125.023,-412.8008"/>
<polygon fill="#000000" stroke="#000000" points="158.5074,-416.8549 166.3447,-420.7967 162.5037,-417.0275 166.5,-417.2 166.5,-417.2 166.5,-417.2 162.5037,-417.0275 166.6553,-413.6033 158.5074,-416.8549 158.5074,-416.8549"/>
<ellipse fill="none" stroke="#000000" cx="155.3104" cy="-416.7169" rx="3.2" ry="3.2"/>
</g>
<!-- outbound_shipments&#45;&gt;public.users -->
<g id="edge7" class="edge">
<title>outbound_shipments:w&#45;&gt;public.users:e</title>
<path fill="none" stroke="#000000" d="M152.0388,-438.0678C141.811,-436.5207 131.6606,-433.506 122.0687,-429.7609"/>
<polygon fill="#000000" stroke="#000000" points="158.5244,-438.5755 166.219,-442.789 162.5122,-438.8878 166.5,-439.2 166.5,-439.2 166.5,-439.2 162.5122,-438.8878 166.781,-435.611 158.5244,-438.5755 158.5244,-438.5755"/>
<ellipse fill="none" stroke="#000000" cx="155.3342" cy="-438.3257" rx="3.2" ry="3.2"/>
</g>
<!-- outbound_shipments&#45;&gt;public.users -->
<g id="edge8" class="edge">
<title>outbound_shipments:w&#45;&gt;public.users:e</title>
<path fill="none" stroke="#000000" d="M151.7987,-395.2C142.9332,-395.2 133.9184,-395.2 125.1946,-395.2"/>
<polygon fill="#000000" stroke="#000000" points="158.5,-395.2001 166.5,-398.8 162.5,-395.2 166.5,-395.2 166.5,-395.2 166.5,-395.2 162.5,-395.2 166.5,-391.6 158.5,-395.2001 158.5,-395.2001"/>
<ellipse fill="none" stroke="#000000" cx="155.3" cy="-395.2001" rx="3.2" ry="3.2"/>
</g>
</g>
</svg>
