<?xml version="1.0" encoding="UTF-8" standalone="no"?>
<!DOCTYPE svg PUBLIC "-//W3C//DTD SVG 1.1//EN"
 "http://www.w3.org/Graphics/SVG/1.1/DTD/svg11.dtd">
<!-- Generated by graphviz version 2.40.1 (20161225.0304)
 -->
<!-- Title: twoDegreesRelationshipsDiagram Pages: 1 -->
<svg width="728pt" height="570pt"
 viewBox="0.00 0.00 728.00 570.20" xmlns="http://www.w3.org/2000/svg" xmlns:xlink="http://www.w3.org/1999/xlink">
<g id="graph0" class="graph" transform="scale(1 1) rotate(0) translate(4 566.2)">
<title>twoDegreesRelationshipsDiagram</title>
<polygon fill="#ffffff" stroke="transparent" points="-4,4 -4,-566.2 724,-566.2 724,4 -4,4"/>
<text text-anchor="middle" x="72.4936" y="-7.3" font-family="Helvetica,sans-Serif" font-size="11.00" fill="#000000">Generated by SchemaSpy</text>
<!-- inbound_receipt -->
<g id="node1" class="node">
<title>inbound_receipt</title>
<g id="a_node1"><a xlink:href="../../tables/inbound_receipt.html" xlink:title="inbound_receipt" target="_top">
<polygon fill="#ffffff" stroke="transparent" points="240,-442.2 240,-503.2 372,-503.2 372,-442.2 240,-442.2"/>
<polygon fill="#f5f5f5" stroke="transparent" points="240,-479.7 240,-502.7 372,-502.7 372,-479.7 240,-479.7"/>
<polygon fill="none" stroke="#000000" points="240,-479.7 240,-502.7 372,-502.7 372,-479.7 240,-479.7"/>
<text text-anchor="start" x="245" y="-488.3" font-family="Helvetica,sans-Serif" font-weight="bold" font-size="11.00" fill="#000000">inbound_receipt</text>
<text text-anchor="start" x="337.5219" y="-487.8" font-family="Helvetica,sans-Serif" font-size="11.00" fill="#000000">[table]</text>
<polygon fill="none" stroke="#000000" points="240,-460.7 240,-479.7 372,-479.7 372,-460.7 240,-460.7"/>
<text text-anchor="start" x="243" y="-466.8" font-family="Helvetica,sans-Serif" font-size="11.00" fill="#000000">...</text>
<polygon fill="#ffffff" stroke="transparent" points="240,-441.7 240,-460.7 287,-460.7 287,-441.7 240,-441.7"/>
<polygon fill="none" stroke="#000000" points="240,-441.7 240,-460.7 287,-460.7 287,-441.7 240,-441.7"/>
<text text-anchor="start" x="243" y="-447.8" font-family="Helvetica,sans-Serif" font-size="11.00" fill="#000000">&lt; 6</text>
<polygon fill="#ffffff" stroke="transparent" points="287,-441.7 287,-460.7 338,-460.7 338,-441.7 287,-441.7"/>
<polygon fill="none" stroke="#000000" points="287,-441.7 287,-460.7 338,-460.7 338,-441.7 287,-441.7"/>
<text text-anchor="start" x="302.6105" y="-447.8" font-family="Helvetica,sans-Serif" font-size="11.00" fill="#000000">2 rows</text>
<polygon fill="#ffffff" stroke="transparent" points="338,-441.7 338,-460.7 372,-460.7 372,-441.7 338,-441.7"/>
<polygon fill="none" stroke="#000000" points="338,-441.7 338,-460.7 372,-460.7 372,-441.7 338,-441.7"/>
<text text-anchor="start" x="353.4053" y="-447.8" font-family="Helvetica,sans-Serif" font-size="11.00" fill="#000000">2 &gt;</text>
</a>
</g>
</g>
<!-- public.users -->
<g id="node2" class="node">
<title>public.users</title>
<g id="a_node2"><a xlink:href="../../../public/tables/users.html" xlink:title="public.users" target="_top">
<polygon fill="#ffffff" stroke="transparent" points="38,-299.2 38,-360.2 147,-360.2 147,-299.2 38,-299.2"/>
<polygon fill="#f5f5f5" stroke="transparent" points="38.5,-336.7 38.5,-359.7 147.5,-359.7 147.5,-336.7 38.5,-336.7"/>
<polygon fill="none" stroke="#000000" points="38.5,-336.7 38.5,-359.7 147.5,-359.7 147.5,-336.7 38.5,-336.7"/>
<text text-anchor="start" x="43.5" y="-345.3" font-family="Helvetica,sans-Serif" font-weight="bold" font-size="11.00" fill="#000000">public.users</text>
<text text-anchor="start" x="113.0219" y="-344.8" font-family="Helvetica,sans-Serif" font-size="11.00" fill="#000000">[table]</text>
<polygon fill="none" stroke="#000000" points="38.5,-317.7 38.5,-336.7 147.5,-336.7 147.5,-317.7 38.5,-317.7"/>
<text text-anchor="start" x="41.5" y="-323.8" font-family="Helvetica,sans-Serif" font-size="11.00" fill="#000000">...</text>
<polygon fill="#ffffff" stroke="transparent" points="38.5,-298.7 38.5,-317.7 66.5,-317.7 66.5,-298.7 38.5,-298.7"/>
<polygon fill="none" stroke="#000000" points="38.5,-298.7 38.5,-317.7 66.5,-317.7 66.5,-298.7 38.5,-298.7"/>
<text text-anchor="start" x="41.5" y="-304.8" font-family="Helvetica,sans-Serif" font-size="11.00" fill="#000000"> &#160;</text>
<polygon fill="#ffffff" stroke="transparent" points="66.5,-298.7 66.5,-317.7 112.5,-317.7 112.5,-298.7 66.5,-298.7"/>
<polygon fill="none" stroke="#000000" points="66.5,-298.7 66.5,-317.7 112.5,-317.7 112.5,-298.7 66.5,-298.7"/>
<text text-anchor="start" x="77.1105" y="-304.8" font-family="Helvetica,sans-Serif" font-size="11.00" fill="#000000">0 rows</text>
<polygon fill="#ffffff" stroke="transparent" points="112.5,-298.7 112.5,-317.7 147.5,-317.7 147.5,-298.7 112.5,-298.7"/>
<polygon fill="none" stroke="#000000" points="112.5,-298.7 112.5,-317.7 147.5,-317.7 147.5,-298.7 112.5,-298.7"/>
<text text-anchor="start" x="122.7904" y="-304.8" font-family="Helvetica,sans-Serif" font-size="11.00" fill="#000000">13 &gt;</text>
</a>
</g>
</g>
<!-- inbound_receipt&#45;&gt;public.users -->
<g id="edge1" class="edge">
<title>inbound_receipt:w&#45;&gt;public.users:e</title>
<path fill="none" stroke="#000000" d="M226.6791,-463.3912C200.2934,-444.5458 212.6887,-401.5499 185,-374.7 176.155,-366.123 165.8383,-358.1623 155.3675,-351.2708"/>
<polygon fill="#000000" stroke="#000000" points="232.7699,-466.2758 238.4591,-472.9536 236.3849,-467.9879 240,-469.7 240,-469.7 240,-469.7 236.3849,-467.9879 241.5409,-466.4464 232.7699,-466.2758 232.7699,-466.2758"/>
<ellipse fill="none" stroke="#000000" cx="229.8778" cy="-464.9061" rx="3.2" ry="3.2"/>
</g>
<!-- inbound_receipt&#45;&gt;public.users -->
<g id="edge3" class="edge">
<title>inbound_receipt:w&#45;&gt;public.users:e</title>
<path fill="none" stroke="#000000" d="M225.6442,-467.1469C200.6168,-456.4021 212.3195,-414.1919 185,-387.7 176.155,-379.123 165.8383,-371.1623 155.3675,-364.058"/>
<polygon fill="#000000" stroke="#000000" points="232.1236,-468.2992 239.3696,-473.2444 236.0618,-468.9996 240,-469.7 240,-469.7 240,-469.7 236.0618,-468.9996 240.6304,-466.1556 232.1236,-468.2992 232.1236,-468.2992"/>
<ellipse fill="none" stroke="#000000" cx="228.973" cy="-467.7388" rx="3.2" ry="3.2"/>
</g>
<!-- inbound_receipt&#45;&gt;public.users -->
<g id="edge4" class="edge">
<title>inbound_receipt:w&#45;&gt;public.users:e</title>
<path fill="none" stroke="#000000" d="M225.6442,-471.6691C200.6168,-469.4021 212.3195,-427.1919 185,-400.7 170.8481,-386.9768 152.9285,-374.8314 136.6381,-364.3751"/>
<polygon fill="#000000" stroke="#000000" points="232.0742,-470.7872 240.4892,-473.2666 236.0371,-470.2436 240,-469.7 240,-469.7 240,-469.7 236.0371,-470.2436 239.5108,-466.1334 232.0742,-470.7872 232.0742,-470.7872"/>
<ellipse fill="none" stroke="#000000" cx="228.9039" cy="-471.222" rx="3.2" ry="3.2"/>
</g>
<!-- public.orders -->
<g id="node3" class="node">
<title>public.orders</title>
<g id="a_node3"><a xlink:href="../../../public/tables/orders.html" xlink:title="public.orders" target="_top">
<polygon fill="#ffffff" stroke="transparent" points="35,-497.2 35,-558.2 150,-558.2 150,-497.2 35,-497.2"/>
<polygon fill="#f5f5f5" stroke="transparent" points="35.5,-534.7 35.5,-557.7 150.5,-557.7 150.5,-534.7 35.5,-534.7"/>
<polygon fill="none" stroke="#000000" points="35.5,-534.7 35.5,-557.7 150.5,-557.7 150.5,-534.7 35.5,-534.7"/>
<text text-anchor="start" x="40.5" y="-543.3" font-family="Helvetica,sans-Serif" font-weight="bold" font-size="11.00" fill="#000000">public.orders</text>
<text text-anchor="start" x="116.0219" y="-542.8" font-family="Helvetica,sans-Serif" font-size="11.00" fill="#000000">[table]</text>
<polygon fill="none" stroke="#000000" points="35.5,-515.7 35.5,-534.7 150.5,-534.7 150.5,-515.7 35.5,-515.7"/>
<text text-anchor="start" x="38.5" y="-521.8" font-family="Helvetica,sans-Serif" font-size="11.00" fill="#000000">...</text>
<polygon fill="#ffffff" stroke="transparent" points="35.5,-496.7 35.5,-515.7 69.5,-515.7 69.5,-496.7 35.5,-496.7"/>
<polygon fill="none" stroke="#000000" points="35.5,-496.7 35.5,-515.7 69.5,-515.7 69.5,-496.7 35.5,-496.7"/>
<text text-anchor="start" x="38.5" y="-502.8" font-family="Helvetica,sans-Serif" font-size="11.00" fill="#000000"> &#160;</text>
<polygon fill="#ffffff" stroke="transparent" points="69.5,-496.7 69.5,-515.7 118.5,-515.7 118.5,-496.7 69.5,-496.7"/>
<polygon fill="none" stroke="#000000" points="69.5,-496.7 69.5,-515.7 118.5,-515.7 118.5,-496.7 69.5,-496.7"/>
<text text-anchor="start" x="83.1105" y="-502.8" font-family="Helvetica,sans-Serif" font-size="11.00" fill="#000000">0 rows</text>
<polygon fill="#ffffff" stroke="transparent" points="118.5,-496.7 118.5,-515.7 150.5,-515.7 150.5,-496.7 118.5,-496.7"/>
<polygon fill="none" stroke="#000000" points="118.5,-496.7 118.5,-515.7 150.5,-515.7 150.5,-496.7 118.5,-496.7"/>
<text text-anchor="start" x="131.9053" y="-502.8" font-family="Helvetica,sans-Serif" font-size="11.00" fill="#000000">3 &gt;</text>
</a>
</g>
</g>
<!-- inbound_receipt&#45;&gt;public.orders -->
<g id="edge2" class="edge">
<title>inbound_receipt:w&#45;&gt;public.orders:e</title>
<path fill="none" stroke="#000000" d="M229.5351,-470.1096C202.1565,-472.211 174.4068,-482.1097 151.106,-493.1236"/>
<polygon fill="#000000" stroke="#000000" points="239.0441,-465.7344 239.3571,-473.7282 237.7583,-473.7908 237.4453,-465.797 239.0441,-465.7344"/>
<polyline fill="none" stroke="#000000" points="240,-469.7 236.0031,-469.8565 "/>
<ellipse fill="none" stroke="#000000" cx="232.8055" cy="-469.9817" rx="3.2" ry="3.2"/>
</g>
<!-- public.warehouses -->
<g id="node4" class="node">
<title>public.warehouses</title>
<g id="a_node4"><a xlink:href="../../../public/tables/warehouses.html" xlink:title="public.warehouses" target="_top">
<polygon fill="#ffffff" stroke="transparent" points="19,-398.2 19,-459.2 166,-459.2 166,-398.2 19,-398.2"/>
<polygon fill="#f5f5f5" stroke="transparent" points="19.5,-435.7 19.5,-458.7 166.5,-458.7 166.5,-435.7 19.5,-435.7"/>
<polygon fill="none" stroke="#000000" points="19.5,-435.7 19.5,-458.7 166.5,-458.7 166.5,-435.7 19.5,-435.7"/>
<text text-anchor="start" x="24.5" y="-444.3" font-family="Helvetica,sans-Serif" font-weight="bold" font-size="11.00" fill="#000000">public.warehouses</text>
<text text-anchor="start" x="132.0219" y="-443.8" font-family="Helvetica,sans-Serif" font-size="11.00" fill="#000000">[table]</text>
<polygon fill="none" stroke="#000000" points="19.5,-416.7 19.5,-435.7 166.5,-435.7 166.5,-416.7 19.5,-416.7"/>
<text text-anchor="start" x="22.5" y="-422.8" font-family="Helvetica,sans-Serif" font-size="11.00" fill="#000000">...</text>
<polygon fill="#ffffff" stroke="transparent" points="19.5,-397.7 19.5,-416.7 69.5,-416.7 69.5,-397.7 19.5,-397.7"/>
<polygon fill="none" stroke="#000000" points="19.5,-397.7 19.5,-416.7 69.5,-416.7 69.5,-397.7 19.5,-397.7"/>
<text text-anchor="start" x="22.5" y="-403.8" font-family="Helvetica,sans-Serif" font-size="11.00" fill="#000000"> &#160;</text>
<polygon fill="#ffffff" stroke="transparent" points="69.5,-397.7 69.5,-416.7 126.5,-416.7 126.5,-397.7 69.5,-397.7"/>
<polygon fill="none" stroke="#000000" points="69.5,-397.7 69.5,-416.7 126.5,-416.7 126.5,-397.7 69.5,-397.7"/>
<text text-anchor="start" x="91.1105" y="-403.8" font-family="Helvetica,sans-Serif" font-size="11.00" fill="#000000">0 rows</text>
<polygon fill="#ffffff" stroke="transparent" points="126.5,-397.7 126.5,-416.7 166.5,-416.7 166.5,-397.7 126.5,-397.7"/>
<polygon fill="none" stroke="#000000" points="126.5,-397.7 126.5,-416.7 166.5,-416.7 166.5,-397.7 126.5,-397.7"/>
<text text-anchor="start" x="147.9053" y="-403.8" font-family="Helvetica,sans-Serif" font-size="11.00" fill="#000000">5 &gt;</text>
</a>
</g>
</g>
<!-- inbound_receipt&#45;&gt;public.warehouses -->
<g id="edge5" class="edge">
<title>inbound_receipt:w&#45;&gt;public.warehouses:e</title>
<path fill="none" stroke="#000000" d="M225.7978,-467.2083C201.8414,-457.9004 199.07,-425.7 166.5,-425.7"/>
<polygon fill="#000000" stroke="#000000" points="232.1204,-468.3175 239.3779,-473.2458 236.0602,-469.0088 240,-469.7 240,-469.7 240,-469.7 236.0602,-469.0088 240.6221,-466.1542 232.1204,-468.3175 232.1204,-468.3175"/>
<ellipse fill="none" stroke="#000000" cx="228.9685" cy="-467.7645" rx="3.2" ry="3.2"/>
</g>
<!-- inventory_lots -->
<g id="node5" class="node">
<title>inventory_lots</title>
<g id="a_node5"><a xlink:href="../../tables/inventory_lots.html" xlink:title="inventory_lots" target="_top">
<polygon fill="#ffffff" stroke="transparent" points="513,-431.2 513,-492.2 634,-492.2 634,-431.2 513,-431.2"/>
<polygon fill="#f5f5f5" stroke="transparent" points="513.5,-468.7 513.5,-491.7 634.5,-491.7 634.5,-468.7 513.5,-468.7"/>
<polygon fill="none" stroke="#000000" points="513.5,-468.7 513.5,-491.7 634.5,-491.7 634.5,-468.7 513.5,-468.7"/>
<text text-anchor="start" x="518.5" y="-477.3" font-family="Helvetica,sans-Serif" font-weight="bold" font-size="11.00" fill="#000000">inventory_lots</text>
<text text-anchor="start" x="600.0219" y="-476.8" font-family="Helvetica,sans-Serif" font-size="11.00" fill="#000000">[table]</text>
<polygon fill="none" stroke="#000000" points="513.5,-449.7 513.5,-468.7 634.5,-468.7 634.5,-449.7 513.5,-449.7"/>
<text text-anchor="start" x="516.5" y="-455.8" font-family="Helvetica,sans-Serif" font-size="11.00" fill="#000000">...</text>
<polygon fill="#ffffff" stroke="transparent" points="513.5,-430.7 513.5,-449.7 559.5,-449.7 559.5,-430.7 513.5,-430.7"/>
<polygon fill="none" stroke="#000000" points="513.5,-430.7 513.5,-449.7 559.5,-449.7 559.5,-430.7 513.5,-430.7"/>
<text text-anchor="start" x="516.5" y="-436.8" font-family="Helvetica,sans-Serif" font-size="11.00" fill="#000000">&lt; 6</text>
<polygon fill="#ffffff" stroke="transparent" points="559.5,-430.7 559.5,-449.7 609.5,-449.7 609.5,-430.7 559.5,-430.7"/>
<polygon fill="none" stroke="#000000" points="559.5,-430.7 559.5,-449.7 609.5,-449.7 609.5,-430.7 559.5,-430.7"/>
<text text-anchor="start" x="574.1105" y="-436.8" font-family="Helvetica,sans-Serif" font-size="11.00" fill="#000000">5 rows</text>
<polygon fill="#ffffff" stroke="transparent" points="609.5,-430.7 609.5,-449.7 634.5,-449.7 634.5,-430.7 609.5,-430.7"/>
<polygon fill="none" stroke="#000000" points="609.5,-430.7 609.5,-449.7 634.5,-449.7 634.5,-430.7 609.5,-430.7"/>
<text text-anchor="start" x="625.3862" y="-436.8" font-family="Helvetica,sans-Serif" font-size="11.00" fill="#000000"> &#160;</text>
</a>
</g>
</g>
<!-- inventory_lots&#45;&gt;inbound_receipt -->
<g id="edge7" class="edge">
<title>inventory_lots:w&#45;&gt;inbound_receipt:e</title>
<path fill="none" stroke="#000000" d="M498.8877,-458.9099C447.583,-460.4307 429.9042,-469.7 372,-469.7"/>
<polygon fill="#000000" stroke="#000000" points="505.5008,-458.815 513.5517,-462.2996 509.5004,-458.7575 513.5,-458.7 513.5,-458.7 513.5,-458.7 509.5004,-458.7575 513.4483,-455.1004 505.5008,-458.815 505.5008,-458.815"/>
<ellipse fill="none" stroke="#000000" cx="502.3012" cy="-458.861" rx="3.2" ry="3.2"/>
</g>
<!-- inventory_lots&#45;&gt;public.users -->
<g id="edge6" class="edge">
<title>inventory_lots:w&#45;&gt;public.users:e</title>
<path fill="none" stroke="#000000" d="M499.2377,-456.1106C466.4029,-448.3935 454.4079,-431.4544 427,-403.7 405.6156,-382.0453 419.6699,-360.0486 394,-343.7 322.0984,-297.9074 219.9955,-302.1914 155.0039,-312.9639"/>
<polygon fill="#000000" stroke="#000000" points="505.6287,-457.2709 512.8569,-462.2421 509.5643,-457.9854 513.5,-458.7 513.5,-458.7 513.5,-458.7 509.5643,-457.9854 514.1431,-455.1579 505.6287,-457.2709 505.6287,-457.2709"/>
<ellipse fill="none" stroke="#000000" cx="502.4801" cy="-456.6992" rx="3.2" ry="3.2"/>
</g>
<!-- inventory_lots&#45;&gt;public.users -->
<g id="edge10" class="edge">
<title>inventory_lots:w&#45;&gt;public.users:e</title>
<path fill="none" stroke="#000000" d="M498.8031,-460.1815C466.2964,-461.2433 454.2867,-444.3315 427,-416.7 405.6156,-395.0453 419.6699,-373.0486 394,-356.7 322.0984,-310.9074 219.9955,-315.1914 155.0039,-322.6389"/>
<polygon fill="#000000" stroke="#000000" points="505.5403,-459.5024 513.8611,-462.2818 509.5202,-459.1012 513.5,-458.7 513.5,-458.7 513.5,-458.7 509.5202,-459.1012 513.1389,-455.1182 505.5403,-459.5024 505.5403,-459.5024"/>
<ellipse fill="none" stroke="#000000" cx="502.3565" cy="-459.8233" rx="3.2" ry="3.2"/>
</g>
<!-- inventory_lots&#45;&gt;public.orders -->
<g id="edge9" class="edge">
<title>inventory_lots:w&#45;&gt;public.orders:e</title>
<path fill="none" stroke="#000000" d="M499.0245,-459.862C450.9274,-468.1002 449.1979,-517.8133 394,-533.7 315.2621,-556.3618 220.1164,-549.0737 158.0501,-539.9849"/>
<polygon fill="#000000" stroke="#000000" points="505.5257,-459.3402 513.7881,-462.2885 509.5128,-459.0201 513.5,-458.7 513.5,-458.7 513.5,-458.7 509.5128,-459.0201 513.2119,-455.1115 505.5257,-459.3402 505.5257,-459.3402"/>
<ellipse fill="none" stroke="#000000" cx="502.3359" cy="-459.5962" rx="3.2" ry="3.2"/>
</g>
<!-- inventory_lots&#45;&gt;public.warehouses -->
<g id="edge11" class="edge">
<title>inventory_lots:w&#45;&gt;public.warehouses:e</title>
<path fill="none" stroke="#000000" d="M498.9842,-459.6763C453.8996,-466.0926 445.9807,-502.312 394,-513.7 317.59,-530.4399 285.8573,-552.6115 218,-513.7 178.6883,-491.1574 211.8164,-425.7 166.5,-425.7"/>
<polygon fill="#000000" stroke="#000000" points="505.518,-459.2369 513.7416,-462.2919 509.509,-458.9685 513.5,-458.7 513.5,-458.7 513.5,-458.7 509.509,-458.9685 513.2584,-455.1081 505.518,-459.2369 505.518,-459.2369"/>
<ellipse fill="none" stroke="#000000" cx="502.3252" cy="-459.4517" rx="3.2" ry="3.2"/>
</g>
<!-- public.order_detail -->
<g id="node6" class="node">
<title>public.order_detail</title>
<g id="a_node6"><a xlink:href="../../../public/tables/order_detail.html" xlink:title="public.order_detail" target="_top">
<polygon fill="#ffffff" stroke="transparent" points="233,-238.2 233,-299.2 379,-299.2 379,-238.2 233,-238.2"/>
<polygon fill="#f5f5f5" stroke="transparent" points="233,-275.7 233,-298.7 379,-298.7 379,-275.7 233,-275.7"/>
<polygon fill="none" stroke="#000000" points="233,-275.7 233,-298.7 379,-298.7 379,-275.7 233,-275.7"/>
<text text-anchor="start" x="238" y="-284.3" font-family="Helvetica,sans-Serif" font-weight="bold" font-size="11.00" fill="#000000">public.order_detail</text>
<text text-anchor="start" x="344.5219" y="-283.8" font-family="Helvetica,sans-Serif" font-size="11.00" fill="#000000">[table]</text>
<polygon fill="none" stroke="#000000" points="233,-256.7 233,-275.7 379,-275.7 379,-256.7 233,-256.7"/>
<text text-anchor="start" x="236" y="-262.8" font-family="Helvetica,sans-Serif" font-size="11.00" fill="#000000">...</text>
<polygon fill="#ffffff" stroke="transparent" points="233,-237.7 233,-256.7 282,-256.7 282,-237.7 233,-237.7"/>
<polygon fill="none" stroke="#000000" points="233,-237.7 233,-256.7 282,-256.7 282,-237.7 233,-237.7"/>
<text text-anchor="start" x="236" y="-243.8" font-family="Helvetica,sans-Serif" font-size="11.00" fill="#000000"> &#160;</text>
<polygon fill="#ffffff" stroke="transparent" points="282,-237.7 282,-256.7 339,-256.7 339,-237.7 282,-237.7"/>
<polygon fill="none" stroke="#000000" points="282,-237.7 282,-256.7 339,-256.7 339,-237.7 282,-237.7"/>
<text text-anchor="start" x="303.6105" y="-243.8" font-family="Helvetica,sans-Serif" font-size="11.00" fill="#000000">0 rows</text>
<polygon fill="#ffffff" stroke="transparent" points="339,-237.7 339,-256.7 379,-256.7 379,-237.7 339,-237.7"/>
<polygon fill="none" stroke="#000000" points="339,-237.7 339,-256.7 379,-256.7 379,-237.7 339,-237.7"/>
<text text-anchor="start" x="360.4053" y="-243.8" font-family="Helvetica,sans-Serif" font-size="11.00" fill="#000000">2 &gt;</text>
</a>
</g>
</g>
<!-- inventory_lots&#45;&gt;public.order_detail -->
<g id="edge8" class="edge">
<title>inventory_lots:w&#45;&gt;public.order_detail:e</title>
<path fill="none" stroke="#000000" d="M498.6944,-458.0325C465.6981,-454.7855 451.8162,-439.5701 427,-409.7 398.1685,-374.997 423.5659,-347.7795 394,-313.7 390.739,-309.9412 387.0876,-306.4565 383.176,-303.2321"/>
<polygon fill="#000000" stroke="#000000" points="505.5081,-458.3396 513.3378,-462.2963 509.5041,-458.5198 513.5,-458.7 513.5,-458.7 513.5,-458.7 509.5041,-458.5198 513.6622,-455.1037 505.5081,-458.3396 505.5081,-458.3396"/>
<ellipse fill="none" stroke="#000000" cx="502.3114" cy="-458.1955" rx="3.2" ry="3.2"/>
</g>
<!-- outbound_shipment_lines -->
<g id="node7" class="node">
<title>outbound_shipment_lines</title>
<g id="a_node7"><a xlink:href="../../tables/outbound_shipment_lines.html" xlink:title="outbound_shipment_lines" target="_top">
<polygon fill="#ffffff" stroke="transparent" points="435,-132.7 435,-398.7 712,-398.7 712,-132.7 435,-132.7"/>
<polygon fill="#f5f5f5" stroke="transparent" points="437.5,-373.7 437.5,-396.7 710.5,-396.7 710.5,-373.7 437.5,-373.7"/>
<polygon fill="none" stroke="#000000" points="437.5,-373.7 437.5,-396.7 710.5,-396.7 710.5,-373.7 437.5,-373.7"/>
<text text-anchor="start" x="442.5" y="-382.3" font-family="Helvetica,sans-Serif" font-weight="bold" font-size="11.00" fill="#000000">outbound_shipment_lines</text>
<text text-anchor="start" x="675.5437" y="-381.8" font-family="Helvetica,sans-Serif" font-size="11.00" fill="#000000">[table]</text>
<polygon fill="none" stroke="#000000" points="437.5,-351.7 437.5,-373.7 618.5,-373.7 618.5,-351.7 437.5,-351.7"/>
<image xlink:href="../../images/primaryKeys.png" width="11px" height="12px" preserveAspectRatio="xMinYMin meet" x="442.5" y="-368.7"/>
<text text-anchor="start" x="457.5" y="-358.8" font-family="Helvetica,sans-Serif" font-size="11.00" fill="#000000">outbound_shipment_line_id</text>
<polygon fill="none" stroke="#000000" points="618.5,-351.7 618.5,-373.7 710.5,-373.7 710.5,-351.7 618.5,-351.7"/>
<text text-anchor="start" x="621.5" y="-359.4" font-family="Helvetica,sans-Serif" font-size="11.00" fill="#000000">int8[19]</text>
<polygon fill="#ffffff" stroke="transparent" points="437.5,-329.7 437.5,-351.7 618.5,-351.7 618.5,-329.7 437.5,-329.7"/>
<polygon fill="none" stroke="#000000" points="437.5,-329.7 437.5,-351.7 618.5,-351.7 618.5,-329.7 437.5,-329.7"/>
<image xlink:href="../../images/foreignKeys.png" width="11px" height="12px" preserveAspectRatio="xMinYMin meet" x="442.5" y="-346.7"/>
<text text-anchor="start" x="457.5" y="-336.8" font-family="Helvetica,sans-Serif" font-size="11.00" fill="#000000">outbound_shipment_id</text>
<polygon fill="none" stroke="#000000" points="618.5,-329.7 618.5,-351.7 710.5,-351.7 710.5,-329.7 618.5,-329.7"/>
<text text-anchor="start" x="621.5" y="-337.4" font-family="Helvetica,sans-Serif" font-size="11.00" fill="#000000">int8[19]</text>
<polygon fill="none" stroke="#000000" points="437.5,-307.7 437.5,-329.7 618.5,-329.7 618.5,-307.7 437.5,-307.7"/>
<text text-anchor="start" x="457.5" y="-314.8" font-family="Helvetica,sans-Serif" font-size="11.00" fill="#000000">notes</text>
<polygon fill="none" stroke="#000000" points="618.5,-307.7 618.5,-329.7 710.5,-329.7 710.5,-307.7 618.5,-307.7"/>
<text text-anchor="start" x="621.5" y="-315.4" font-family="Helvetica,sans-Serif" font-size="11.00" fill="#000000">text[2147483647]</text>
<polygon fill="none" stroke="#000000" points="437.5,-285.7 437.5,-307.7 618.5,-307.7 618.5,-285.7 437.5,-285.7"/>
<image xlink:href="../../images/foreignKeys.png" width="11px" height="12px" preserveAspectRatio="xMinYMin meet" x="442.5" y="-302.7"/>
<text text-anchor="start" x="457.5" y="-292.8" font-family="Helvetica,sans-Serif" font-size="11.00" fill="#000000">order_id</text>
<polygon fill="none" stroke="#000000" points="618.5,-285.7 618.5,-307.7 710.5,-307.7 710.5,-285.7 618.5,-285.7"/>
<text text-anchor="start" x="621.5" y="-293.4" font-family="Helvetica,sans-Serif" font-size="11.00" fill="#000000">int8[19]</text>
<polygon fill="#ffffff" stroke="transparent" points="437.5,-263.7 437.5,-285.7 618.5,-285.7 618.5,-263.7 437.5,-263.7"/>
<polygon fill="none" stroke="#000000" points="437.5,-263.7 437.5,-285.7 618.5,-285.7 618.5,-263.7 437.5,-263.7"/>
<image xlink:href="../../images/foreignKeys.png" width="11px" height="12px" preserveAspectRatio="xMinYMin meet" x="442.5" y="-280.7"/>
<text text-anchor="start" x="457.5" y="-270.8" font-family="Helvetica,sans-Serif" font-size="11.00" fill="#000000">order_detail_id</text>
<polygon fill="none" stroke="#000000" points="618.5,-263.7 618.5,-285.7 710.5,-285.7 710.5,-263.7 618.5,-263.7"/>
<text text-anchor="start" x="621.5" y="-271.4" font-family="Helvetica,sans-Serif" font-size="11.00" fill="#000000">int8[19]</text>
<polygon fill="none" stroke="#000000" points="437.5,-241.7 437.5,-263.7 618.5,-263.7 618.5,-241.7 437.5,-241.7"/>
<text text-anchor="start" x="457.5" y="-248.8" font-family="Helvetica,sans-Serif" font-size="11.00" fill="#000000">created_at</text>
<polygon fill="none" stroke="#000000" points="618.5,-241.7 618.5,-263.7 710.5,-263.7 710.5,-241.7 618.5,-241.7"/>
<text text-anchor="start" x="621.1023" y="-249.4" font-family="Helvetica,sans-Serif" font-size="11.00" fill="#000000">timestamptz[35,6]</text>
<polygon fill="none" stroke="#000000" points="437.5,-219.7 437.5,-241.7 618.5,-241.7 618.5,-219.7 437.5,-219.7"/>
<text text-anchor="start" x="457.5" y="-226.8" font-family="Helvetica,sans-Serif" font-size="11.00" fill="#000000">updated_at</text>
<polygon fill="none" stroke="#000000" points="618.5,-219.7 618.5,-241.7 710.5,-241.7 710.5,-219.7 618.5,-219.7"/>
<text text-anchor="start" x="621.1023" y="-227.4" font-family="Helvetica,sans-Serif" font-size="11.00" fill="#000000">timestamptz[35,6]</text>
<polygon fill="none" stroke="#000000" points="437.5,-197.7 437.5,-219.7 618.5,-219.7 618.5,-197.7 437.5,-197.7"/>
<image xlink:href="../../images/foreignKeys.png" width="11px" height="12px" preserveAspectRatio="xMinYMin meet" x="442.5" y="-214.7"/>
<text text-anchor="start" x="457.5" y="-204.8" font-family="Helvetica,sans-Serif" font-size="11.00" fill="#000000">created_by</text>
<polygon fill="none" stroke="#000000" points="618.5,-197.7 618.5,-219.7 710.5,-219.7 710.5,-197.7 618.5,-197.7"/>
<text text-anchor="start" x="621.5" y="-205.4" font-family="Helvetica,sans-Serif" font-size="11.00" fill="#000000">int8[19]</text>
<polygon fill="none" stroke="#000000" points="437.5,-175.7 437.5,-197.7 618.5,-197.7 618.5,-175.7 437.5,-175.7"/>
<image xlink:href="../../images/foreignKeys.png" width="11px" height="12px" preserveAspectRatio="xMinYMin meet" x="442.5" y="-192.7"/>
<text text-anchor="start" x="457.5" y="-182.8" font-family="Helvetica,sans-Serif" font-size="11.00" fill="#000000">updated_by</text>
<polygon fill="none" stroke="#000000" points="618.5,-175.7 618.5,-197.7 710.5,-197.7 710.5,-175.7 618.5,-175.7"/>
<text text-anchor="start" x="621.5" y="-183.4" font-family="Helvetica,sans-Serif" font-size="11.00" fill="#000000">int8[19]</text>
<polygon fill="none" stroke="#000000" points="437.5,-153.7 437.5,-175.7 618.5,-175.7 618.5,-153.7 437.5,-153.7"/>
<text text-anchor="start" x="457.5" y="-160.8" font-family="Helvetica,sans-Serif" font-size="11.00" fill="#000000">quantity</text>
<polygon fill="none" stroke="#000000" points="618.5,-153.7 618.5,-175.7 710.5,-175.7 710.5,-153.7 618.5,-153.7"/>
<text text-anchor="start" x="621.5" y="-161.4" font-family="Helvetica,sans-Serif" font-size="11.00" fill="#000000">int4[10]</text>
<polygon fill="#ffffff" stroke="transparent" points="437.5,-134.7 437.5,-153.7 519.5,-153.7 519.5,-134.7 437.5,-134.7"/>
<polygon fill="none" stroke="#000000" points="437.5,-134.7 437.5,-153.7 519.5,-153.7 519.5,-134.7 437.5,-134.7"/>
<text text-anchor="start" x="440.5" y="-140.8" font-family="Helvetica,sans-Serif" font-size="11.00" fill="#000000">&lt; 5</text>
<polygon fill="#ffffff" stroke="transparent" points="519.5,-134.7 519.5,-153.7 618.5,-153.7 618.5,-134.7 519.5,-134.7"/>
<polygon fill="none" stroke="#000000" points="519.5,-134.7 519.5,-153.7 618.5,-153.7 618.5,-134.7 519.5,-134.7"/>
<text text-anchor="start" x="583.1105" y="-140.8" font-family="Helvetica,sans-Serif" font-size="11.00" fill="#000000">6 rows</text>
<polygon fill="#ffffff" stroke="transparent" points="618.5,-134.7 618.5,-153.7 710.5,-153.7 710.5,-134.7 618.5,-134.7"/>
<polygon fill="none" stroke="#000000" points="618.5,-134.7 618.5,-153.7 710.5,-153.7 710.5,-134.7 618.5,-134.7"/>
<text text-anchor="start" x="691.9053" y="-140.8" font-family="Helvetica,sans-Serif" font-size="11.00" fill="#000000">0 &gt;</text>
<polygon fill="none" stroke="#000000" stroke-width="2" points="436,-133.7 436,-397.7 711,-397.7 711,-133.7 436,-133.7"/>
</a>
</g>
</g>
<!-- outbound_shipment_lines&#45;&gt;public.users -->
<g id="edge12" class="edge">
<title>outbound_shipment_lines:w&#45;&gt;public.users:e</title>
<path fill="none" stroke="#000000" d="M423.0434,-208.4863C335.7495,-205.9113 298.7808,-181.7244 218,-227.7 196.1324,-240.1457 203.4711,-256.6148 185,-273.7 176.0422,-281.9857 165.6699,-289.674 155.179,-296.5342"/>
<polygon fill="#000000" stroke="#000000" points="429.5009,-208.5817 437.4468,-212.2996 433.5004,-208.6409 437.5,-208.7 437.5,-208.7 437.5,-208.7 433.5004,-208.6409 437.5532,-205.1004 429.5009,-208.5817 429.5009,-208.5817"/>
<ellipse fill="none" stroke="#000000" cx="426.3012" cy="-208.5344" rx="3.2" ry="3.2"/>
</g>
<!-- outbound_shipment_lines&#45;&gt;public.users -->
<g id="edge16" class="edge">
<title>outbound_shipment_lines:w&#45;&gt;public.users:e</title>
<path fill="none" stroke="#000000" d="M422.8467,-186.3523C366.4182,-184.091 254.6241,-172.3413 218,-197.7 187.7245,-218.6629 209.2269,-245.9673 185,-273.7 176.6016,-283.3137 166.1384,-291.7713 155.2998,-299.0086"/>
<polygon fill="#000000" stroke="#000000" points="429.5023,-186.5102 437.4146,-190.299 433.5011,-186.6051 437.5,-186.7 437.5,-186.7 437.5,-186.7 433.5011,-186.6051 437.5854,-183.101 429.5023,-186.5102 429.5023,-186.5102"/>
<ellipse fill="none" stroke="#000000" cx="426.3032" cy="-186.4342" rx="3.2" ry="3.2"/>
</g>
<!-- outbound_shipment_lines&#45;&gt;public.orders -->
<g id="edge14" class="edge">
<title>outbound_shipment_lines:w&#45;&gt;public.orders:e</title>
<path fill="none" stroke="#000000" d="M422.9003,-298.1277C353.1496,-313.7366 464.3891,-453.2377 394,-513.7 359.915,-542.978 236.1868,-539.3112 158.2205,-533.7006"/>
<polygon fill="#000000" stroke="#000000" points="429.538,-297.4787 437.8504,-300.2829 433.519,-297.0893 437.5,-296.7 437.5,-296.7 437.5,-296.7 433.519,-297.0893 437.1496,-293.1171 429.538,-297.4787 429.538,-297.4787"/>
<ellipse fill="none" stroke="#000000" cx="426.3532" cy="-297.7901" rx="3.2" ry="3.2"/>
</g>
<!-- outbound_shipment_lines&#45;&gt;public.order_detail -->
<g id="edge13" class="edge">
<title>outbound_shipment_lines:w&#45;&gt;public.order_detail:e</title>
<path fill="none" stroke="#000000" d="M422.8028,-274.5847C411.0442,-274.4079 399.0085,-274.0405 387.3445,-273.5714"/>
<polygon fill="#000000" stroke="#000000" points="429.5002,-274.6372 437.4717,-278.2999 433.5001,-274.6686 437.5,-274.7 437.5,-274.7 437.5,-274.7 433.5001,-274.6686 437.5283,-271.1001 429.5002,-274.6372 429.5002,-274.6372"/>
<ellipse fill="none" stroke="#000000" cx="426.3003" cy="-274.612" rx="3.2" ry="3.2"/>
</g>
<!-- outbound_shipments -->
<g id="node8" class="node">
<title>outbound_shipments</title>
<g id="a_node8"><a xlink:href="../../tables/outbound_shipments.html" xlink:title="outbound_shipments" target="_top">
<polygon fill="#ffffff" stroke="transparent" points="226,-101.2 226,-162.2 386,-162.2 386,-101.2 226,-101.2"/>
<polygon fill="#f5f5f5" stroke="transparent" points="226,-138.7 226,-161.7 386,-161.7 386,-138.7 226,-138.7"/>
<polygon fill="none" stroke="#000000" points="226,-138.7 226,-161.7 386,-161.7 386,-138.7 226,-138.7"/>
<text text-anchor="start" x="231" y="-147.3" font-family="Helvetica,sans-Serif" font-weight="bold" font-size="11.00" fill="#000000">outbound_shipments</text>
<text text-anchor="start" x="351.5219" y="-146.8" font-family="Helvetica,sans-Serif" font-size="11.00" fill="#000000">[table]</text>
<polygon fill="none" stroke="#000000" points="226,-119.7 226,-138.7 386,-138.7 386,-119.7 226,-119.7"/>
<text text-anchor="start" x="229" y="-125.8" font-family="Helvetica,sans-Serif" font-size="11.00" fill="#000000">...</text>
<polygon fill="#ffffff" stroke="transparent" points="226,-100.7 226,-119.7 300,-119.7 300,-100.7 226,-100.7"/>
<polygon fill="none" stroke="#000000" points="226,-100.7 226,-119.7 300,-119.7 300,-100.7 226,-100.7"/>
<text text-anchor="start" x="229" y="-106.8" font-family="Helvetica,sans-Serif" font-size="11.00" fill="#000000">&lt; 8</text>
<polygon fill="#ffffff" stroke="transparent" points="300,-100.7 300,-119.7 338,-119.7 338,-100.7 300,-100.7"/>
<polygon fill="none" stroke="#000000" points="300,-100.7 300,-119.7 338,-119.7 338,-100.7 300,-100.7"/>
<text text-anchor="start" x="328.8862" y="-106.8" font-family="Helvetica,sans-Serif" font-size="11.00" fill="#000000"> &#160;</text>
<polygon fill="#ffffff" stroke="transparent" points="338,-100.7 338,-119.7 386,-119.7 386,-100.7 338,-100.7"/>
<polygon fill="none" stroke="#000000" points="338,-100.7 338,-119.7 386,-119.7 386,-100.7 338,-100.7"/>
<text text-anchor="start" x="367.4053" y="-106.8" font-family="Helvetica,sans-Serif" font-size="11.00" fill="#000000">1 &gt;</text>
</a>
</g>
</g>
<!-- outbound_shipment_lines&#45;&gt;outbound_shipments -->
<g id="edge15" class="edge">
<title>outbound_shipment_lines:w&#45;&gt;outbound_shipments:e</title>
<path fill="none" stroke="#000000" d="M423.1504,-339.022C373.1569,-325.326 437.8263,-231.042 394,-176.7 390.9838,-172.9601 387.5746,-169.4999 383.8946,-166.3031"/>
<polygon fill="#000000" stroke="#000000" points="429.5541,-339.7708 437.0818,-344.2756 433.5271,-340.2354 437.5,-340.7 437.5,-340.7 437.5,-340.7 433.5271,-340.2354 437.9182,-337.1244 429.5541,-339.7708 429.5541,-339.7708"/>
<ellipse fill="none" stroke="#000000" cx="426.3758" cy="-339.3991" rx="3.2" ry="3.2"/>
</g>
<!-- outbound_shipments&#45;&gt;public.users -->
<g id="edge18" class="edge">
<title>outbound_shipments:w&#45;&gt;public.users:e</title>
<path fill="none" stroke="#000000" d="M209.2254,-176.2551C193.6841,-205.0159 209.9802,-229.6296 185,-260.7 173.943,-274.4527 158.5345,-285.656 143.461,-294.9716"/>
<polygon fill="#000000" stroke="#000000" points="213.0942,-170.677 220.6116,-166.155 215.3738,-167.3901 217.6535,-164.1033 217.6535,-164.1033 217.6535,-164.1033 215.3738,-167.3901 214.6953,-162.0516 213.0942,-170.677 213.0942,-170.677"/>
<ellipse fill="none" stroke="#000000" cx="211.2704" cy="-173.3065" rx="3.2" ry="3.2"/>
</g>
<!-- outbound_shipments&#45;&gt;public.users -->
<g id="edge21" class="edge">
<title>outbound_shipments:w&#45;&gt;public.users:e</title>
<path fill="none" stroke="#000000" d="M218.3063,-176.3479C218.2038,-176.465 218.1017,-176.5824 218,-176.7 188.2132,-211.1445 213.5334,-238.2102 185,-273.7 176.8837,-283.7951 166.4227,-292.5165 155.4707,-299.8714"/>
<polygon fill="#000000" stroke="#000000" points="223.0511,-171.7728 231.3088,-168.8114 225.9305,-168.9964 228.81,-166.2199 228.81,-166.2199 228.81,-166.2199 225.9305,-168.9964 226.3111,-163.6284 223.0511,-171.7728 223.0511,-171.7728"/>
<ellipse fill="none" stroke="#000000" cx="220.7475" cy="-173.994" rx="3.2" ry="3.2"/>
</g>
<!-- outbound_shipments&#45;&gt;public.users -->
<g id="edge23" class="edge">
<title>outbound_shipments:w&#45;&gt;public.users:e</title>
<path fill="none" stroke="#000000" d="M235.0123,-174.3923C228.7461,-178.9408 222.9246,-184.0053 218,-189.7 188.2132,-224.1445 213.5334,-251.2102 185,-286.7 176.8837,-296.7951 166.4227,-305.5165 155.4707,-312.6168"/>
<polygon fill="#000000" stroke="#000000" points="240.7916,-170.6222 249.4589,-169.2664 244.1418,-168.4367 247.4919,-166.2512 247.4919,-166.2512 247.4919,-166.2512 244.1418,-168.4367 245.525,-163.2361 240.7916,-170.6222 240.7916,-170.6222"/>
<ellipse fill="none" stroke="#000000" cx="238.1114" cy="-172.3706" rx="3.2" ry="3.2"/>
</g>
<!-- outbound_shipments&#45;&gt;public.warehouses -->
<g id="edge24" class="edge">
<title>outbound_shipments:w&#45;&gt;public.warehouses:e</title>
<path fill="none" stroke="#000000" d="M255.7303,-176.8819C241.694,-191.8179 227.658,-209.3452 218,-227.7 175.659,-308.1683 257.428,-425.7 166.5,-425.7"/>
<polygon fill="#000000" stroke="#000000" points="260.2964,-172.2104 268.4629,-169.0057 263.0924,-169.3498 265.8884,-166.4893 265.8884,-166.4893 265.8884,-166.4893 263.0924,-169.3498 263.314,-163.9729 260.2964,-172.2104 260.2964,-172.2104"/>
<ellipse fill="none" stroke="#000000" cx="258.0597" cy="-174.4988" rx="3.2" ry="3.2"/>
</g>
<!-- public.document_links -->
<g id="node9" class="node">
<title>public.document_links</title>
<g id="a_node9"><a xlink:href="../../../public/tables/document_links.html" xlink:title="public.document_links" target="_top">
<polygon fill="#ffffff" stroke="transparent" points="8,-38.2 8,-99.2 177,-99.2 177,-38.2 8,-38.2"/>
<polygon fill="#f5f5f5" stroke="transparent" points="8.5,-75.7 8.5,-98.7 177.5,-98.7 177.5,-75.7 8.5,-75.7"/>
<polygon fill="none" stroke="#000000" points="8.5,-75.7 8.5,-98.7 177.5,-98.7 177.5,-75.7 8.5,-75.7"/>
<text text-anchor="start" x="13.5" y="-84.3" font-family="Helvetica,sans-Serif" font-weight="bold" font-size="11.00" fill="#000000">public.document_links</text>
<text text-anchor="start" x="143.0219" y="-83.8" font-family="Helvetica,sans-Serif" font-size="11.00" fill="#000000">[table]</text>
<polygon fill="none" stroke="#000000" points="8.5,-56.7 8.5,-75.7 177.5,-75.7 177.5,-56.7 8.5,-56.7"/>
<text text-anchor="start" x="11.5" y="-62.8" font-family="Helvetica,sans-Serif" font-size="11.00" fill="#000000">...</text>
<polygon fill="#ffffff" stroke="transparent" points="8.5,-37.7 8.5,-56.7 69.5,-56.7 69.5,-37.7 8.5,-37.7"/>
<polygon fill="none" stroke="#000000" points="8.5,-37.7 8.5,-56.7 69.5,-56.7 69.5,-37.7 8.5,-37.7"/>
<text text-anchor="start" x="11.5" y="-43.8" font-family="Helvetica,sans-Serif" font-size="11.00" fill="#000000"> &#160;</text>
<polygon fill="#ffffff" stroke="transparent" points="69.5,-37.7 69.5,-56.7 131.5,-56.7 131.5,-37.7 69.5,-37.7"/>
<polygon fill="none" stroke="#000000" points="69.5,-37.7 69.5,-56.7 131.5,-56.7 131.5,-37.7 69.5,-37.7"/>
<text text-anchor="start" x="96.1105" y="-43.8" font-family="Helvetica,sans-Serif" font-size="11.00" fill="#000000">0 rows</text>
<polygon fill="#ffffff" stroke="transparent" points="131.5,-37.7 131.5,-56.7 177.5,-56.7 177.5,-37.7 131.5,-37.7"/>
<polygon fill="none" stroke="#000000" points="131.5,-37.7 131.5,-56.7 177.5,-56.7 177.5,-37.7 131.5,-37.7"/>
<text text-anchor="start" x="158.9053" y="-43.8" font-family="Helvetica,sans-Serif" font-size="11.00" fill="#000000">2 &gt;</text>
</a>
</g>
</g>
<!-- outbound_shipments&#45;&gt;public.document_links -->
<g id="edge17" class="edge">
<title>outbound_shipments:w&#45;&gt;public.document_links:e</title>
<path fill="none" stroke="#000000" d="M257.8392,-88.9843C234.8645,-74.701 206.173,-63.0204 177.5,-65.7"/>
<polygon fill="#000000" stroke="#000000" points="263.3309,-92.6615 267.9754,-100.1039 266.6547,-94.887 269.9784,-97.1125 269.9784,-97.1125 269.9784,-97.1125 266.6547,-94.887 271.9814,-94.1212 263.3309,-92.6615 263.3309,-92.6615"/>
<ellipse fill="none" stroke="#000000" cx="260.672" cy="-90.881" rx="3.2" ry="3.2"/>
</g>
<!-- outbound_shipments&#45;&gt;public.document_links -->
<g id="edge20" class="edge">
<title>outbound_shipments:w&#45;&gt;public.document_links:e</title>
<path fill="none" stroke="#000000" d="M243.1603,-89.6301C223.1948,-78.1483 200.3415,-68.1904 177.5,-65.7"/>
<polygon fill="#000000" stroke="#000000" points="248.6733,-92.9758 253.6446,-100.204 252.0928,-95.0511 255.5124,-97.1265 255.5124,-97.1265 255.5124,-97.1265 252.0928,-95.0511 257.3801,-94.0489 248.6733,-92.9758 248.6733,-92.9758"/>
<ellipse fill="none" stroke="#000000" cx="245.9377" cy="-91.3156" rx="3.2" ry="3.2"/>
</g>
<!-- public.locations -->
<g id="node10" class="node">
<title>public.locations</title>
<g id="a_node10"><a xlink:href="../../../public/tables/locations.html" xlink:title="public.locations" target="_top">
<polygon fill="#ffffff" stroke="transparent" points="27.5,-202.2 27.5,-263.2 157.5,-263.2 157.5,-202.2 27.5,-202.2"/>
<polygon fill="#f5f5f5" stroke="transparent" points="27.5,-239.7 27.5,-262.7 157.5,-262.7 157.5,-239.7 27.5,-239.7"/>
<polygon fill="none" stroke="#000000" points="27.5,-239.7 27.5,-262.7 157.5,-262.7 157.5,-239.7 27.5,-239.7"/>
<text text-anchor="start" x="32.5" y="-248.3" font-family="Helvetica,sans-Serif" font-weight="bold" font-size="11.00" fill="#000000">public.locations</text>
<text text-anchor="start" x="123.0219" y="-247.8" font-family="Helvetica,sans-Serif" font-size="11.00" fill="#000000">[table]</text>
<polygon fill="none" stroke="#000000" points="27.5,-220.7 27.5,-239.7 157.5,-239.7 157.5,-220.7 27.5,-220.7"/>
<text text-anchor="start" x="30.5" y="-226.8" font-family="Helvetica,sans-Serif" font-size="11.00" fill="#000000">...</text>
<polygon fill="#ffffff" stroke="transparent" points="27.5,-201.7 27.5,-220.7 68.5,-220.7 68.5,-201.7 27.5,-201.7"/>
<polygon fill="none" stroke="#000000" points="27.5,-201.7 27.5,-220.7 68.5,-220.7 68.5,-201.7 27.5,-201.7"/>
<text text-anchor="start" x="30.5" y="-207.8" font-family="Helvetica,sans-Serif" font-size="11.00" fill="#000000"> &#160;</text>
<polygon fill="#ffffff" stroke="transparent" points="68.5,-201.7 68.5,-220.7 121.5,-220.7 121.5,-201.7 68.5,-201.7"/>
<polygon fill="none" stroke="#000000" points="68.5,-201.7 68.5,-220.7 121.5,-220.7 121.5,-201.7 68.5,-201.7"/>
<text text-anchor="start" x="86.1105" y="-207.8" font-family="Helvetica,sans-Serif" font-size="11.00" fill="#000000">0 rows</text>
<polygon fill="#ffffff" stroke="transparent" points="121.5,-201.7 121.5,-220.7 157.5,-220.7 157.5,-201.7 121.5,-201.7"/>
<polygon fill="none" stroke="#000000" points="121.5,-201.7 121.5,-220.7 157.5,-220.7 157.5,-201.7 121.5,-201.7"/>
<text text-anchor="start" x="138.9053" y="-207.8" font-family="Helvetica,sans-Serif" font-size="11.00" fill="#000000">1 &gt;</text>
</a>
</g>
</g>
<!-- outbound_shipments&#45;&gt;public.locations -->
<g id="edge19" class="edge">
<title>outbound_shipments:w&#45;&gt;public.locations:e</title>
<path fill="none" stroke="#000000" d="M222.2507,-173.8798C220.8138,-174.8129 219.3956,-175.7533 218,-176.7 188.417,-196.768 193.2474,-229.7 157.5,-229.7"/>
<polygon fill="#000000" stroke="#000000" points="227.7064,-170.5208 236.4062,-169.3921 231.1126,-168.4237 234.5188,-166.3265 234.5188,-166.3265 234.5188,-166.3265 231.1126,-168.4237 232.6313,-163.261 227.7064,-170.5208 227.7064,-170.5208"/>
<ellipse fill="none" stroke="#000000" cx="224.9815" cy="-172.1985" rx="3.2" ry="3.2"/>
</g>
<!-- public.trailers -->
<g id="node11" class="node">
<title>public.trailers</title>
<g id="a_node11"><a xlink:href="../../../public/tables/trailers.html" xlink:title="public.trailers" target="_top">
<polygon fill="#ffffff" stroke="transparent" points="34,-120.2 34,-181.2 151,-181.2 151,-120.2 34,-120.2"/>
<polygon fill="#f5f5f5" stroke="transparent" points="34.5,-157.7 34.5,-180.7 151.5,-180.7 151.5,-157.7 34.5,-157.7"/>
<polygon fill="none" stroke="#000000" points="34.5,-157.7 34.5,-180.7 151.5,-180.7 151.5,-157.7 34.5,-157.7"/>
<text text-anchor="start" x="39.5" y="-166.3" font-family="Helvetica,sans-Serif" font-weight="bold" font-size="11.00" fill="#000000">public.trailers</text>
<text text-anchor="start" x="117.0219" y="-165.8" font-family="Helvetica,sans-Serif" font-size="11.00" fill="#000000">[table]</text>
<polygon fill="none" stroke="#000000" points="34.5,-138.7 34.5,-157.7 151.5,-157.7 151.5,-138.7 34.5,-138.7"/>
<text text-anchor="start" x="37.5" y="-144.8" font-family="Helvetica,sans-Serif" font-size="11.00" fill="#000000">...</text>
<polygon fill="#ffffff" stroke="transparent" points="34.5,-119.7 34.5,-138.7 69.5,-138.7 69.5,-119.7 34.5,-119.7"/>
<polygon fill="none" stroke="#000000" points="34.5,-119.7 34.5,-138.7 69.5,-138.7 69.5,-119.7 34.5,-119.7"/>
<text text-anchor="start" x="37.5" y="-125.8" font-family="Helvetica,sans-Serif" font-size="11.00" fill="#000000"> &#160;</text>
<polygon fill="#ffffff" stroke="transparent" points="69.5,-119.7 69.5,-138.7 118.5,-138.7 118.5,-119.7 69.5,-119.7"/>
<polygon fill="none" stroke="#000000" points="69.5,-119.7 69.5,-138.7 118.5,-138.7 118.5,-119.7 69.5,-119.7"/>
<text text-anchor="start" x="83.1105" y="-125.8" font-family="Helvetica,sans-Serif" font-size="11.00" fill="#000000">0 rows</text>
<polygon fill="#ffffff" stroke="transparent" points="118.5,-119.7 118.5,-138.7 151.5,-138.7 151.5,-119.7 118.5,-119.7"/>
<polygon fill="none" stroke="#000000" points="118.5,-119.7 118.5,-138.7 151.5,-138.7 151.5,-119.7 118.5,-119.7"/>
<text text-anchor="start" x="132.9053" y="-125.8" font-family="Helvetica,sans-Serif" font-size="11.00" fill="#000000">1 &gt;</text>
</a>
</g>
</g>
<!-- outbound_shipments&#45;&gt;public.trailers -->
<g id="edge22" class="edge">
<title>outbound_shipments:w&#45;&gt;public.trailers:e</title>
<path fill="none" stroke="#000000" d="M203.5174,-145.3046C186.1874,-146.7463 168.354,-147.7 151.5,-147.7"/>
<polygon fill="#000000" stroke="#000000" points="209.9569,-144.7166 218.2511,-147.5741 213.9403,-144.3529 217.9237,-143.9891 217.9237,-143.9891 217.9237,-143.9891 213.9403,-144.3529 217.5963,-140.404 209.9569,-144.7166 209.9569,-144.7166"/>
<ellipse fill="none" stroke="#000000" cx="206.7701" cy="-145.0077" rx="3.2" ry="3.2"/>
</g>
<!-- wms_labor_logs -->
<g id="node12" class="node">
<title>wms_labor_logs</title>
<g id="a_node12"><a xlink:href="../../tables/wms_labor_logs.html" xlink:title="wms_labor_logs" target="_top">
<polygon fill="#ffffff" stroke="transparent" points="239.5,-360.2 239.5,-421.2 372.5,-421.2 372.5,-360.2 239.5,-360.2"/>
<polygon fill="#f5f5f5" stroke="transparent" points="240,-397.7 240,-420.7 373,-420.7 373,-397.7 240,-397.7"/>
<polygon fill="none" stroke="#000000" points="240,-397.7 240,-420.7 373,-420.7 373,-397.7 240,-397.7"/>
<text text-anchor="start" x="245" y="-406.3" font-family="Helvetica,sans-Serif" font-weight="bold" font-size="11.00" fill="#000000">wms_labor_logs</text>
<text text-anchor="start" x="338.5219" y="-405.8" font-family="Helvetica,sans-Serif" font-size="11.00" fill="#000000">[table]</text>
<polygon fill="none" stroke="#000000" points="240,-378.7 240,-397.7 373,-397.7 373,-378.7 240,-378.7"/>
<text text-anchor="start" x="243" y="-384.8" font-family="Helvetica,sans-Serif" font-size="11.00" fill="#000000">...</text>
<polygon fill="#ffffff" stroke="transparent" points="240,-359.7 240,-378.7 305,-378.7 305,-359.7 240,-359.7"/>
<polygon fill="none" stroke="#000000" points="240,-359.7 240,-378.7 305,-378.7 305,-359.7 240,-359.7"/>
<text text-anchor="start" x="243" y="-365.8" font-family="Helvetica,sans-Serif" font-size="11.00" fill="#000000">&lt; 4</text>
<polygon fill="#ffffff" stroke="transparent" points="305,-359.7 305,-378.7 339,-378.7 339,-359.7 305,-359.7"/>
<polygon fill="none" stroke="#000000" points="305,-359.7 305,-378.7 339,-378.7 339,-359.7 305,-359.7"/>
<text text-anchor="start" x="329.8862" y="-365.8" font-family="Helvetica,sans-Serif" font-size="11.00" fill="#000000"> &#160;</text>
<polygon fill="#ffffff" stroke="transparent" points="339,-359.7 339,-378.7 373,-378.7 373,-359.7 339,-359.7"/>
<polygon fill="none" stroke="#000000" points="339,-359.7 339,-378.7 373,-378.7 373,-359.7 339,-359.7"/>
<text text-anchor="start" x="363.8862" y="-365.8" font-family="Helvetica,sans-Serif" font-size="11.00" fill="#000000"> &#160;</text>
</a>
</g>
</g>
<!-- wms_labor_logs&#45;&gt;public.users -->
<g id="edge25" class="edge">
<title>wms_labor_logs:w&#45;&gt;public.users:e</title>
<path fill="none" stroke="#000000" d="M225.9232,-384.5539C201.25,-378.1351 176.4478,-367.2047 155.0351,-356.641"/>
<polygon fill="#000000" stroke="#000000" points="232.1926,-385.955 239.2148,-391.2133 236.0963,-386.8275 240,-387.7 240,-387.7 240,-387.7 236.0963,-386.8275 240.7852,-384.1867 232.1926,-385.955 232.1926,-385.955"/>
<ellipse fill="none" stroke="#000000" cx="229.0697" cy="-385.257" rx="3.2" ry="3.2"/>
</g>
<!-- wms_labor_logs&#45;&gt;public.users -->
<g id="edge26" class="edge">
<title>wms_labor_logs:w&#45;&gt;public.users:e</title>
<path fill="none" stroke="#000000" d="M225.5529,-386.9307C199.4776,-384.227 173.2777,-374.7566 151.106,-364.2764"/>
<polygon fill="#000000" stroke="#000000" points="232.0113,-387.2746 239.8086,-391.2949 236.0057,-387.4873 240,-387.7 240,-387.7 240,-387.7 236.0057,-387.4873 240.1914,-384.1051 232.0113,-387.2746 232.0113,-387.2746"/>
<ellipse fill="none" stroke="#000000" cx="228.8158" cy="-387.1044" rx="3.2" ry="3.2"/>
</g>
<!-- wms_labor_logs&#45;&gt;public.users -->
<g id="edge27" class="edge">
<title>wms_labor_logs:w&#45;&gt;public.users:e</title>
<path fill="none" stroke="#000000" d="M225.4879,-389.4077C191.5347,-391.2428 157.3762,-378.6363 132.1805,-364.2981"/>
<polygon fill="#000000" stroke="#000000" points="232.0548,-388.635 240.4208,-391.2753 236.0274,-388.1675 240,-387.7 240,-387.7 240,-387.7 236.0274,-388.1675 239.5792,-384.1247 232.0548,-388.635 232.0548,-388.635"/>
<ellipse fill="none" stroke="#000000" cx="228.8767" cy="-389.009" rx="3.2" ry="3.2"/>
</g>
<!-- wms_labor_logs&#45;&gt;public.warehouses -->
<g id="edge28" class="edge">
<title>wms_labor_logs:w&#45;&gt;public.warehouses:e</title>
<path fill="none" stroke="#000000" d="M225.4964,-390.0771C202.3859,-398.3962 197.6719,-425.7 166.5,-425.7"/>
<polygon fill="#000000" stroke="#000000" points="232.1053,-388.9939 240.5823,-391.2526 236.0527,-388.347 240,-387.7 240,-387.7 240,-387.7 236.0527,-388.347 239.4177,-384.1474 232.1053,-388.9939 232.1053,-388.9939"/>
<ellipse fill="none" stroke="#000000" cx="228.9475" cy="-389.5115" rx="3.2" ry="3.2"/>
</g>
</g>
</svg>
