<?xml version="1.0" encoding="UTF-8" standalone="no"?>
<!DOCTYPE svg PUBLIC "-//W3C//DTD SVG 1.1//EN"
 "http://www.w3.org/Graphics/SVG/1.1/DTD/svg11.dtd">
<!-- Generated by graphviz version 2.40.1 (20161225.0304)
 -->
<!-- Title: oneDegreeRelationshipsDiagram Pages: 1 -->
<svg width="679pt" height="363pt"
 viewBox="0.00 0.00 679.00 362.70" xmlns="http://www.w3.org/2000/svg" xmlns:xlink="http://www.w3.org/1999/xlink">
<g id="graph0" class="graph" transform="scale(1 1) rotate(0) translate(4 358.7)">
<title>oneDegreeRelationshipsDiagram</title>
<polygon fill="#ffffff" stroke="transparent" points="-4,4 -4,-358.7 675,-358.7 675,4 -4,4"/>
<text text-anchor="middle" x="72.4936" y="-7.3" font-family="Helvetica,sans-Serif" font-size="11.00" fill="#000000">Generated by SchemaSpy</text>
<!-- inbound_receipt -->
<g id="node1" class="node">
<title>inbound_receipt</title>
<g id="a_node1"><a xlink:href="../../tables/inbound_receipt.html" xlink:title="inbound_receipt" target="_top">
<polygon fill="#ffffff" stroke="transparent" points="204,-135.7 204,-350.7 349,-350.7 349,-135.7 204,-135.7"/>
<polygon fill="#f5f5f5" stroke="transparent" points="204.5,-327.2 204.5,-350.2 349.5,-350.2 349.5,-327.2 204.5,-327.2"/>
<polygon fill="none" stroke="#000000" points="204.5,-327.2 204.5,-350.2 349.5,-350.2 349.5,-327.2 204.5,-327.2"/>
<text text-anchor="start" x="209.5" y="-335.8" font-family="Helvetica,sans-Serif" font-weight="bold" font-size="11.00" fill="#000000">inbound_receipt</text>
<text text-anchor="start" x="314.5437" y="-335.3" font-family="Helvetica,sans-Serif" font-size="11.00" fill="#000000">[table]</text>
<polygon fill="none" stroke="#000000" points="204.5,-305.2 204.5,-327.2 349.5,-327.2 349.5,-305.2 204.5,-305.2"/>
<image xlink:href="../../images/primaryKeys.png" width="11px" height="12px" preserveAspectRatio="xMinYMin meet" x="209.5" y="-322.2"/>
<text text-anchor="start" x="224.5" y="-312.3" font-family="Helvetica,sans-Serif" font-size="11.00" fill="#000000">inbound_receipt_id</text>
<polygon fill="#ffffff" stroke="transparent" points="204.5,-283.2 204.5,-305.2 349.5,-305.2 349.5,-283.2 204.5,-283.2"/>
<polygon fill="none" stroke="#000000" points="204.5,-283.2 204.5,-305.2 349.5,-305.2 349.5,-283.2 204.5,-283.2"/>
<image xlink:href="../../images/foreignKeys.png" width="11px" height="12px" preserveAspectRatio="xMinYMin meet" x="209.5" y="-300.2"/>
<text text-anchor="start" x="224.5" y="-290.3" font-family="Helvetica,sans-Serif" font-size="11.00" fill="#000000">order_id</text>
<polygon fill="none" stroke="#000000" points="204.5,-261.2 204.5,-283.2 349.5,-283.2 349.5,-261.2 204.5,-261.2"/>
<image xlink:href="../../images/foreignKeys.png" width="11px" height="12px" preserveAspectRatio="xMinYMin meet" x="209.5" y="-278.2"/>
<text text-anchor="start" x="224.5" y="-268.3" font-family="Helvetica,sans-Serif" font-size="11.00" fill="#000000">received_by</text>
<polygon fill="none" stroke="#000000" points="204.5,-239.2 204.5,-261.2 349.5,-261.2 349.5,-239.2 204.5,-239.2"/>
<image xlink:href="../../images/foreignKeys.png" width="11px" height="12px" preserveAspectRatio="xMinYMin meet" x="209.5" y="-256.2"/>
<text text-anchor="start" x="224.5" y="-246.3" font-family="Helvetica,sans-Serif" font-size="11.00" fill="#000000">warehouse_id</text>
<polygon fill="none" stroke="#000000" points="204.5,-217.2 204.5,-239.2 349.5,-239.2 349.5,-217.2 204.5,-217.2"/>
<image xlink:href="../../images/foreignKeys.png" width="11px" height="12px" preserveAspectRatio="xMinYMin meet" x="209.5" y="-234.2"/>
<text text-anchor="start" x="224.5" y="-224.3" font-family="Helvetica,sans-Serif" font-size="11.00" fill="#000000">created_by</text>
<polygon fill="none" stroke="#000000" points="204.5,-195.2 204.5,-217.2 349.5,-217.2 349.5,-195.2 204.5,-195.2"/>
<image xlink:href="../../images/foreignKeys.png" width="11px" height="12px" preserveAspectRatio="xMinYMin meet" x="209.5" y="-212.2"/>
<text text-anchor="start" x="224.5" y="-202.3" font-family="Helvetica,sans-Serif" font-size="11.00" fill="#000000">updated_by</text>
<polygon fill="none" stroke="#000000" points="204.5,-173.2 204.5,-195.2 349.5,-195.2 349.5,-173.2 204.5,-173.2"/>
<image xlink:href="../../images/foreignKeys.png" width="11px" height="12px" preserveAspectRatio="xMinYMin meet" x="209.5" y="-190.2"/>
<text text-anchor="start" x="224.5" y="-180.3" font-family="Helvetica,sans-Serif" font-size="11.00" fill="#000000">unload_method_code</text>
<polygon fill="none" stroke="#000000" points="204.5,-154.2 204.5,-173.2 349.5,-173.2 349.5,-154.2 204.5,-154.2"/>
<text text-anchor="start" x="207.5" y="-160.3" font-family="Helvetica,sans-Serif" font-size="11.00" fill="#000000">...</text>
<polygon fill="#ffffff" stroke="transparent" points="204.5,-135.2 204.5,-154.2 257.5,-154.2 257.5,-135.2 204.5,-135.2"/>
<polygon fill="none" stroke="#000000" points="204.5,-135.2 204.5,-154.2 257.5,-154.2 257.5,-135.2 204.5,-135.2"/>
<text text-anchor="start" x="207.5" y="-141.3" font-family="Helvetica,sans-Serif" font-size="11.00" fill="#000000">&lt; 6</text>
<polygon fill="#ffffff" stroke="transparent" points="257.5,-135.2 257.5,-154.2 311.5,-154.2 311.5,-135.2 257.5,-135.2"/>
<polygon fill="none" stroke="#000000" points="257.5,-135.2 257.5,-154.2 311.5,-154.2 311.5,-135.2 257.5,-135.2"/>
<text text-anchor="start" x="276.1105" y="-141.3" font-family="Helvetica,sans-Serif" font-size="11.00" fill="#000000">2 rows</text>
<polygon fill="#ffffff" stroke="transparent" points="311.5,-135.2 311.5,-154.2 349.5,-154.2 349.5,-135.2 311.5,-135.2"/>
<polygon fill="none" stroke="#000000" points="311.5,-135.2 311.5,-154.2 349.5,-154.2 349.5,-135.2 311.5,-135.2"/>
<text text-anchor="start" x="330.9053" y="-141.3" font-family="Helvetica,sans-Serif" font-size="11.00" fill="#000000">2 &gt;</text>
</a>
</g>
</g>
<!-- public.warehouses -->
<g id="node2" class="node">
<title>public.warehouses</title>
<g id="a_node2"><a xlink:href="../../../public/tables/warehouses.html" xlink:title="public.warehouses" target="_top">
<polygon fill="#ffffff" stroke="transparent" points="8,-149.7 8,-210.7 155,-210.7 155,-149.7 8,-149.7"/>
<polygon fill="#f5f5f5" stroke="transparent" points="8.5,-187.2 8.5,-210.2 155.5,-210.2 155.5,-187.2 8.5,-187.2"/>
<polygon fill="none" stroke="#000000" points="8.5,-187.2 8.5,-210.2 155.5,-210.2 155.5,-187.2 8.5,-187.2"/>
<text text-anchor="start" x="13.5" y="-195.8" font-family="Helvetica,sans-Serif" font-weight="bold" font-size="11.00" fill="#000000">public.warehouses</text>
<text text-anchor="start" x="121.0219" y="-195.3" font-family="Helvetica,sans-Serif" font-size="11.00" fill="#000000">[table]</text>
<polygon fill="none" stroke="#000000" points="8.5,-168.2 8.5,-187.2 155.5,-187.2 155.5,-168.2 8.5,-168.2"/>
<text text-anchor="start" x="11.5" y="-174.3" font-family="Helvetica,sans-Serif" font-size="11.00" fill="#000000">...</text>
<polygon fill="#ffffff" stroke="transparent" points="8.5,-149.2 8.5,-168.2 58.5,-168.2 58.5,-149.2 8.5,-149.2"/>
<polygon fill="none" stroke="#000000" points="8.5,-149.2 8.5,-168.2 58.5,-168.2 58.5,-149.2 8.5,-149.2"/>
<text text-anchor="start" x="11.5" y="-155.3" font-family="Helvetica,sans-Serif" font-size="11.00" fill="#000000"> &#160;</text>
<polygon fill="#ffffff" stroke="transparent" points="58.5,-149.2 58.5,-168.2 115.5,-168.2 115.5,-149.2 58.5,-149.2"/>
<polygon fill="none" stroke="#000000" points="58.5,-149.2 58.5,-168.2 115.5,-168.2 115.5,-149.2 58.5,-149.2"/>
<text text-anchor="start" x="80.1105" y="-155.3" font-family="Helvetica,sans-Serif" font-size="11.00" fill="#000000">0 rows</text>
<polygon fill="#ffffff" stroke="transparent" points="115.5,-149.2 115.5,-168.2 155.5,-168.2 155.5,-149.2 115.5,-149.2"/>
<polygon fill="none" stroke="#000000" points="115.5,-149.2 115.5,-168.2 155.5,-168.2 155.5,-149.2 115.5,-149.2"/>
<text text-anchor="start" x="136.9053" y="-155.3" font-family="Helvetica,sans-Serif" font-size="11.00" fill="#000000">5 &gt;</text>
</a>
</g>
</g>
<!-- inbound_receipt&#45;&gt;public.warehouses -->
<g id="edge1" class="edge">
<title>inbound_receipt:w&#45;&gt;public.warehouses:e</title>
<path fill="none" stroke="#000000" d="M190.0896,-249.0258C163.5506,-244.7876 138.3247,-229.7388 118.8777,-214.7899"/>
<polygon fill="#000000" stroke="#000000" points="196.5264,-249.5502 204.2076,-253.7881 200.5132,-249.8751 204.5,-250.2 204.5,-250.2 204.5,-250.2 200.5132,-249.8751 204.7924,-246.6119 196.5264,-249.5502 196.5264,-249.5502"/>
<ellipse fill="none" stroke="#000000" cx="193.337" cy="-249.2903" rx="3.2" ry="3.2"/>
</g>
<!-- putaway_tasks -->
<g id="node3" class="node">
<title>putaway_tasks</title>
<g id="a_node3"><a xlink:href="../../tables/putaway_tasks.html" xlink:title="putaway_tasks" target="_top">
<polygon fill="#ffffff" stroke="transparent" points="398,-38.2 398,-282.2 663,-282.2 663,-38.2 398,-38.2"/>
<polygon fill="#f5f5f5" stroke="transparent" points="400.5,-257.2 400.5,-280.2 661.5,-280.2 661.5,-257.2 400.5,-257.2"/>
<polygon fill="none" stroke="#000000" points="400.5,-257.2 400.5,-280.2 661.5,-280.2 661.5,-257.2 400.5,-257.2"/>
<text text-anchor="start" x="405.5" y="-265.8" font-family="Helvetica,sans-Serif" font-weight="bold" font-size="11.00" fill="#000000">putaway_tasks</text>
<text text-anchor="start" x="626.5437" y="-265.3" font-family="Helvetica,sans-Serif" font-size="11.00" fill="#000000">[table]</text>
<polygon fill="none" stroke="#000000" points="400.5,-235.2 400.5,-257.2 569.5,-257.2 569.5,-235.2 400.5,-235.2"/>
<image xlink:href="../../images/primaryKeys.png" width="11px" height="12px" preserveAspectRatio="xMinYMin meet" x="405.5" y="-252.2"/>
<text text-anchor="start" x="420.5" y="-242.3" font-family="Helvetica,sans-Serif" font-size="11.00" fill="#000000">putaway_task_id</text>
<polygon fill="none" stroke="#000000" points="569.5,-235.2 569.5,-257.2 661.5,-257.2 661.5,-235.2 569.5,-235.2"/>
<text text-anchor="start" x="572.5" y="-242.9" font-family="Helvetica,sans-Serif" font-size="11.00" fill="#000000">int8[19]</text>
<polygon fill="none" stroke="#000000" points="400.5,-213.2 400.5,-235.2 569.5,-235.2 569.5,-213.2 400.5,-213.2"/>
<image xlink:href="../../images/foreignKeys.png" width="11px" height="12px" preserveAspectRatio="xMinYMin meet" x="405.5" y="-230.2"/>
<text text-anchor="start" x="420.5" y="-220.3" font-family="Helvetica,sans-Serif" font-size="11.00" fill="#000000">inbound_receipt_detail_id</text>
<polygon fill="none" stroke="#000000" points="569.5,-213.2 569.5,-235.2 661.5,-235.2 661.5,-213.2 569.5,-213.2"/>
<text text-anchor="start" x="572.5" y="-220.9" font-family="Helvetica,sans-Serif" font-size="11.00" fill="#000000">int8[19]</text>
<polygon fill="none" stroke="#000000" points="400.5,-191.2 400.5,-213.2 569.5,-213.2 569.5,-191.2 400.5,-191.2"/>
<image xlink:href="../../images/foreignKeys.png" width="11px" height="12px" preserveAspectRatio="xMinYMin meet" x="405.5" y="-208.2"/>
<text text-anchor="start" x="420.5" y="-198.3" font-family="Helvetica,sans-Serif" font-size="11.00" fill="#000000">warehouse_id</text>
<polygon fill="none" stroke="#000000" points="569.5,-191.2 569.5,-213.2 661.5,-213.2 661.5,-191.2 569.5,-191.2"/>
<text text-anchor="start" x="572.5" y="-198.9" font-family="Helvetica,sans-Serif" font-size="11.00" fill="#000000">int8[19]</text>
<polygon fill="none" stroke="#000000" points="400.5,-169.2 400.5,-191.2 569.5,-191.2 569.5,-169.2 400.5,-169.2"/>
<text text-anchor="start" x="420.5" y="-176.3" font-family="Helvetica,sans-Serif" font-size="11.00" fill="#000000">storage_location_code</text>
<polygon fill="none" stroke="#000000" points="569.5,-169.2 569.5,-191.2 661.5,-191.2 661.5,-169.2 569.5,-169.2"/>
<text text-anchor="start" x="572.5" y="-176.9" font-family="Helvetica,sans-Serif" font-size="11.00" fill="#000000">varchar[100]</text>
<polygon fill="none" stroke="#000000" points="400.5,-147.2 400.5,-169.2 569.5,-169.2 569.5,-147.2 400.5,-147.2"/>
<text text-anchor="start" x="420.5" y="-154.3" font-family="Helvetica,sans-Serif" font-size="11.00" fill="#000000">assigned_to</text>
<polygon fill="none" stroke="#000000" points="569.5,-147.2 569.5,-169.2 661.5,-169.2 661.5,-147.2 569.5,-147.2"/>
<text text-anchor="start" x="572.5" y="-154.9" font-family="Helvetica,sans-Serif" font-size="11.00" fill="#000000">varchar[100]</text>
<polygon fill="none" stroke="#000000" points="400.5,-125.2 400.5,-147.2 569.5,-147.2 569.5,-125.2 400.5,-125.2"/>
<text text-anchor="start" x="420.5" y="-132.3" font-family="Helvetica,sans-Serif" font-size="11.00" fill="#000000">assigned_at</text>
<polygon fill="none" stroke="#000000" points="569.5,-125.2 569.5,-147.2 661.5,-147.2 661.5,-125.2 569.5,-125.2"/>
<text text-anchor="start" x="572.1023" y="-132.9" font-family="Helvetica,sans-Serif" font-size="11.00" fill="#000000">timestamptz[35,6]</text>
<polygon fill="none" stroke="#000000" points="400.5,-103.2 400.5,-125.2 569.5,-125.2 569.5,-103.2 400.5,-103.2"/>
<text text-anchor="start" x="420.5" y="-110.3" font-family="Helvetica,sans-Serif" font-size="11.00" fill="#000000">completed_at</text>
<polygon fill="none" stroke="#000000" points="569.5,-103.2 569.5,-125.2 661.5,-125.2 661.5,-103.2 569.5,-103.2"/>
<text text-anchor="start" x="572.1023" y="-110.9" font-family="Helvetica,sans-Serif" font-size="11.00" fill="#000000">timestamptz[35,6]</text>
<polygon fill="none" stroke="#000000" points="400.5,-81.2 400.5,-103.2 569.5,-103.2 569.5,-81.2 400.5,-81.2"/>
<text text-anchor="start" x="420.5" y="-88.3" font-family="Helvetica,sans-Serif" font-size="11.00" fill="#000000">status</text>
<polygon fill="none" stroke="#000000" points="569.5,-81.2 569.5,-103.2 661.5,-103.2 661.5,-81.2 569.5,-81.2"/>
<text text-anchor="start" x="572.5" y="-88.9" font-family="Helvetica,sans-Serif" font-size="11.00" fill="#000000">varchar[50]</text>
<polygon fill="none" stroke="#000000" points="400.5,-59.2 400.5,-81.2 569.5,-81.2 569.5,-59.2 400.5,-59.2"/>
<text text-anchor="start" x="420.5" y="-66.3" font-family="Helvetica,sans-Serif" font-size="11.00" fill="#000000">notes</text>
<polygon fill="none" stroke="#000000" points="569.5,-59.2 569.5,-81.2 661.5,-81.2 661.5,-59.2 569.5,-59.2"/>
<text text-anchor="start" x="572.5" y="-66.9" font-family="Helvetica,sans-Serif" font-size="11.00" fill="#000000">text[2147483647]</text>
<polygon fill="#ffffff" stroke="transparent" points="400.5,-40.2 400.5,-59.2 489.5,-59.2 489.5,-40.2 400.5,-40.2"/>
<polygon fill="none" stroke="#000000" points="400.5,-40.2 400.5,-59.2 489.5,-59.2 489.5,-40.2 400.5,-40.2"/>
<text text-anchor="start" x="403.5" y="-46.3" font-family="Helvetica,sans-Serif" font-size="11.00" fill="#000000">&lt; 2</text>
<polygon fill="#ffffff" stroke="transparent" points="489.5,-40.2 489.5,-59.2 569.5,-59.2 569.5,-40.2 489.5,-40.2"/>
<polygon fill="none" stroke="#000000" points="489.5,-40.2 489.5,-59.2 569.5,-59.2 569.5,-40.2 489.5,-40.2"/>
<text text-anchor="start" x="560.3862" y="-46.3" font-family="Helvetica,sans-Serif" font-size="11.00" fill="#000000"> &#160;</text>
<polygon fill="#ffffff" stroke="transparent" points="569.5,-40.2 569.5,-59.2 661.5,-59.2 661.5,-40.2 569.5,-40.2"/>
<polygon fill="none" stroke="#000000" points="569.5,-40.2 569.5,-59.2 661.5,-59.2 661.5,-40.2 569.5,-40.2"/>
<text text-anchor="start" x="642.9053" y="-46.3" font-family="Helvetica,sans-Serif" font-size="11.00" fill="#000000">0 &gt;</text>
<polygon fill="none" stroke="#000000" stroke-width="2" points="399,-39.2 399,-281.2 662,-281.2 662,-39.2 399,-39.2"/>
</a>
</g>
</g>
<!-- putaway_tasks&#45;&gt;inbound_receipt -->
<g id="edge2" class="edge">
<title>putaway_tasks:w&#45;&gt;inbound_receipt:e</title>
<path fill="none" stroke="#000000" d="M386.4874,-228.3921C363.2233,-246.39 390.2247,-316.2 349.5,-316.2"/>
<polygon fill="#000000" stroke="#000000" points="392.8356,-226.493 401.5318,-227.649 396.6678,-225.3465 400.5,-224.2 400.5,-224.2 400.5,-224.2 396.6678,-225.3465 399.4682,-220.751 392.8356,-226.493 392.8356,-226.493"/>
<ellipse fill="none" stroke="#000000" cx="389.7699" cy="-227.4102" rx="3.2" ry="3.2"/>
</g>
<!-- putaway_tasks&#45;&gt;public.warehouses -->
<g id="edge3" class="edge">
<title>putaway_tasks:w&#45;&gt;public.warehouses:e</title>
<path fill="none" stroke="#000000" d="M386.1444,-197.9997C369.2424,-184.4412 385.3779,-141.7616 357,-125.2 290.0218,-86.111 199.9669,-116.7945 141.3383,-145.6589"/>
<polygon fill="#000000" stroke="#000000" points="392.8219,-199.9534 399.489,-205.6551 396.661,-201.0767 400.5,-202.2 400.5,-202.2 400.5,-202.2 396.661,-201.0767 401.511,-198.7449 392.8219,-199.9534 392.8219,-199.9534"/>
<ellipse fill="none" stroke="#000000" cx="389.7507" cy="-199.0548" rx="3.2" ry="3.2"/>
</g>
</g>
</svg>
