<?xml version="1.0" encoding="UTF-8" standalone="no"?>
<!DOCTYPE svg PUBLIC "-//W3C//DTD SVG 1.1//EN"
 "http://www.w3.org/Graphics/SVG/1.1/DTD/svg11.dtd">
<!-- Generated by graphviz version 2.40.1 (20161225.0304)
 -->
<!-- Title: twoDegreesRelationshipsDiagram Pages: 1 -->
<svg width="720pt" height="547pt"
 viewBox="0.00 0.00 720.00 547.38" xmlns="http://www.w3.org/2000/svg" xmlns:xlink="http://www.w3.org/1999/xlink">
<g id="graph0" class="graph" transform="scale(1 1) rotate(0) translate(4 543.3754)">
<title>twoDegreesRelationshipsDiagram</title>
<polygon fill="#ffffff" stroke="transparent" points="-4,4 -4,-543.3754 716,-543.3754 716,4 -4,4"/>
<text text-anchor="middle" x="72.4936" y="-7.3" font-family="Helvetica,sans-Serif" font-size="11.00" fill="#000000">Generated by SchemaSpy</text>
<!-- inbound_receipt -->
<g id="node1" class="node">
<title>inbound_receipt</title>
<g id="a_node1"><a xlink:href="../../tables/inbound_receipt.html" xlink:title="inbound_receipt" target="_top">
<polygon fill="#ffffff" stroke="transparent" points="244,-280.7 244,-341.7 376,-341.7 376,-280.7 244,-280.7"/>
<polygon fill="#f5f5f5" stroke="transparent" points="244,-318.2 244,-341.2 376,-341.2 376,-318.2 244,-318.2"/>
<polygon fill="none" stroke="#000000" points="244,-318.2 244,-341.2 376,-341.2 376,-318.2 244,-318.2"/>
<text text-anchor="start" x="249" y="-326.8" font-family="Helvetica,sans-Serif" font-weight="bold" font-size="11.00" fill="#000000">inbound_receipt</text>
<text text-anchor="start" x="341.5219" y="-326.3" font-family="Helvetica,sans-Serif" font-size="11.00" fill="#000000">[table]</text>
<polygon fill="none" stroke="#000000" points="244,-299.2 244,-318.2 376,-318.2 376,-299.2 244,-299.2"/>
<text text-anchor="start" x="247" y="-305.3" font-family="Helvetica,sans-Serif" font-size="11.00" fill="#000000">...</text>
<polygon fill="#ffffff" stroke="transparent" points="244,-280.2 244,-299.2 291,-299.2 291,-280.2 244,-280.2"/>
<polygon fill="none" stroke="#000000" points="244,-280.2 244,-299.2 291,-299.2 291,-280.2 244,-280.2"/>
<text text-anchor="start" x="247" y="-286.3" font-family="Helvetica,sans-Serif" font-size="11.00" fill="#000000">&lt; 6</text>
<polygon fill="#ffffff" stroke="transparent" points="291,-280.2 291,-299.2 342,-299.2 342,-280.2 291,-280.2"/>
<polygon fill="none" stroke="#000000" points="291,-280.2 291,-299.2 342,-299.2 342,-280.2 291,-280.2"/>
<text text-anchor="start" x="306.6105" y="-286.3" font-family="Helvetica,sans-Serif" font-size="11.00" fill="#000000">2 rows</text>
<polygon fill="#ffffff" stroke="transparent" points="342,-280.2 342,-299.2 376,-299.2 376,-280.2 342,-280.2"/>
<polygon fill="none" stroke="#000000" points="342,-280.2 342,-299.2 376,-299.2 376,-280.2 342,-280.2"/>
<text text-anchor="start" x="357.4053" y="-286.3" font-family="Helvetica,sans-Serif" font-size="11.00" fill="#000000">2 &gt;</text>
</a>
</g>
</g>
<!-- public.users -->
<g id="node2" class="node">
<title>public.users</title>
<g id="a_node2"><a xlink:href="../../../public/tables/users.html" xlink:title="public.users" target="_top">
<polygon fill="#ffffff" stroke="transparent" points="40,-441.7 40,-502.7 149,-502.7 149,-441.7 40,-441.7"/>
<polygon fill="#f5f5f5" stroke="transparent" points="40.5,-479.2 40.5,-502.2 149.5,-502.2 149.5,-479.2 40.5,-479.2"/>
<polygon fill="none" stroke="#000000" points="40.5,-479.2 40.5,-502.2 149.5,-502.2 149.5,-479.2 40.5,-479.2"/>
<text text-anchor="start" x="45.5" y="-487.8" font-family="Helvetica,sans-Serif" font-weight="bold" font-size="11.00" fill="#000000">public.users</text>
<text text-anchor="start" x="115.0219" y="-487.3" font-family="Helvetica,sans-Serif" font-size="11.00" fill="#000000">[table]</text>
<polygon fill="none" stroke="#000000" points="40.5,-460.2 40.5,-479.2 149.5,-479.2 149.5,-460.2 40.5,-460.2"/>
<text text-anchor="start" x="43.5" y="-466.3" font-family="Helvetica,sans-Serif" font-size="11.00" fill="#000000">...</text>
<polygon fill="#ffffff" stroke="transparent" points="40.5,-441.2 40.5,-460.2 68.5,-460.2 68.5,-441.2 40.5,-441.2"/>
<polygon fill="none" stroke="#000000" points="40.5,-441.2 40.5,-460.2 68.5,-460.2 68.5,-441.2 40.5,-441.2"/>
<text text-anchor="start" x="43.5" y="-447.3" font-family="Helvetica,sans-Serif" font-size="11.00" fill="#000000"> &#160;</text>
<polygon fill="#ffffff" stroke="transparent" points="68.5,-441.2 68.5,-460.2 114.5,-460.2 114.5,-441.2 68.5,-441.2"/>
<polygon fill="none" stroke="#000000" points="68.5,-441.2 68.5,-460.2 114.5,-460.2 114.5,-441.2 68.5,-441.2"/>
<text text-anchor="start" x="79.1105" y="-447.3" font-family="Helvetica,sans-Serif" font-size="11.00" fill="#000000">0 rows</text>
<polygon fill="#ffffff" stroke="transparent" points="114.5,-441.2 114.5,-460.2 149.5,-460.2 149.5,-441.2 114.5,-441.2"/>
<polygon fill="none" stroke="#000000" points="114.5,-441.2 114.5,-460.2 149.5,-460.2 149.5,-441.2 114.5,-441.2"/>
<text text-anchor="start" x="124.7904" y="-447.3" font-family="Helvetica,sans-Serif" font-size="11.00" fill="#000000">13 &gt;</text>
</a>
</g>
</g>
<!-- inbound_receipt&#45;&gt;public.users -->
<g id="edge1" class="edge">
<title>inbound_receipt:w&#45;&gt;public.users:e</title>
<path fill="none" stroke="#000000" d="M224.3528,-336.8487C223.5509,-337.6185 222.7662,-338.4023 222,-339.2 179.6241,-383.3197 210.6741,-456.2 149.5,-469.2"/>
<polygon fill="#000000" stroke="#000000" points="229.4288,-332.6967 237.9004,-330.4181 232.5249,-330.1641 235.6211,-327.6315 235.6211,-327.6315 235.6211,-327.6315 232.5249,-330.1641 233.3418,-324.845 229.4288,-332.6967 229.4288,-332.6967"/>
<ellipse fill="none" stroke="#000000" cx="226.9519" cy="-334.7228" rx="3.2" ry="3.2"/>
</g>
<!-- inbound_receipt&#45;&gt;public.users -->
<g id="edge3" class="edge">
<title>inbound_receipt:w&#45;&gt;public.users:e</title>
<path fill="none" stroke="#000000" d="M224.3528,-349.8485C223.5509,-350.6185 222.7662,-351.4023 222,-352.2 179.6241,-396.3197 210.6741,-469.2 149.5,-469.2"/>
<polygon fill="#000000" stroke="#000000" points="229.4377,-345.6743 237.9053,-343.3809 232.5294,-343.1363 235.6211,-340.5983 235.6211,-340.5983 235.6211,-340.5983 232.5294,-343.1363 233.3369,-337.8158 229.4377,-345.6743 229.4377,-345.6743"/>
<ellipse fill="none" stroke="#000000" cx="226.9643" cy="-347.7047" rx="3.2" ry="3.2"/>
</g>
<!-- inbound_receipt&#45;&gt;public.users -->
<g id="edge5" class="edge">
<title>inbound_receipt:w&#45;&gt;public.users:e</title>
<path fill="none" stroke="#000000" d="M235.3906,-353.7305C230.5562,-357.2086 226.0225,-361.0119 222,-365.2 179.6241,-409.3197 210.6741,-482.2 149.5,-469.2"/>
<polygon fill="#000000" stroke="#000000" points="241.1688,-350.0331 249.8477,-348.7535 244.538,-347.8771 247.9073,-345.7211 247.9073,-345.7211 247.9073,-345.7211 244.538,-347.8771 245.9669,-342.6888 241.1688,-350.0331 241.1688,-350.0331"/>
<ellipse fill="none" stroke="#000000" cx="238.4734" cy="-351.7579" rx="3.2" ry="3.2"/>
</g>
<!-- public.orders -->
<g id="node3" class="node">
<title>public.orders</title>
<g id="a_node3"><a xlink:href="../../../public/tables/orders.html" xlink:title="public.orders" target="_top">
<polygon fill="#ffffff" stroke="transparent" points="37,-195.7 37,-256.7 152,-256.7 152,-195.7 37,-195.7"/>
<polygon fill="#f5f5f5" stroke="transparent" points="37.5,-233.2 37.5,-256.2 152.5,-256.2 152.5,-233.2 37.5,-233.2"/>
<polygon fill="none" stroke="#000000" points="37.5,-233.2 37.5,-256.2 152.5,-256.2 152.5,-233.2 37.5,-233.2"/>
<text text-anchor="start" x="42.5" y="-241.8" font-family="Helvetica,sans-Serif" font-weight="bold" font-size="11.00" fill="#000000">public.orders</text>
<text text-anchor="start" x="118.0219" y="-241.3" font-family="Helvetica,sans-Serif" font-size="11.00" fill="#000000">[table]</text>
<polygon fill="none" stroke="#000000" points="37.5,-214.2 37.5,-233.2 152.5,-233.2 152.5,-214.2 37.5,-214.2"/>
<text text-anchor="start" x="40.5" y="-220.3" font-family="Helvetica,sans-Serif" font-size="11.00" fill="#000000">...</text>
<polygon fill="#ffffff" stroke="transparent" points="37.5,-195.2 37.5,-214.2 71.5,-214.2 71.5,-195.2 37.5,-195.2"/>
<polygon fill="none" stroke="#000000" points="37.5,-195.2 37.5,-214.2 71.5,-214.2 71.5,-195.2 37.5,-195.2"/>
<text text-anchor="start" x="40.5" y="-201.3" font-family="Helvetica,sans-Serif" font-size="11.00" fill="#000000"> &#160;</text>
<polygon fill="#ffffff" stroke="transparent" points="71.5,-195.2 71.5,-214.2 120.5,-214.2 120.5,-195.2 71.5,-195.2"/>
<polygon fill="none" stroke="#000000" points="71.5,-195.2 71.5,-214.2 120.5,-214.2 120.5,-195.2 71.5,-195.2"/>
<text text-anchor="start" x="85.1105" y="-201.3" font-family="Helvetica,sans-Serif" font-size="11.00" fill="#000000">0 rows</text>
<polygon fill="#ffffff" stroke="transparent" points="120.5,-195.2 120.5,-214.2 152.5,-214.2 152.5,-195.2 120.5,-195.2"/>
<polygon fill="none" stroke="#000000" points="120.5,-195.2 120.5,-214.2 152.5,-214.2 152.5,-195.2 120.5,-195.2"/>
<text text-anchor="start" x="133.9053" y="-201.3" font-family="Helvetica,sans-Serif" font-size="11.00" fill="#000000">3 &gt;</text>
</a>
</g>
</g>
<!-- inbound_receipt&#45;&gt;public.orders -->
<g id="edge2" class="edge">
<title>inbound_receipt:w&#45;&gt;public.orders:e</title>
<path fill="none" stroke="#000000" d="M264.9386,-269.9508C235.2504,-247.0732 194.2646,-223.2 152.5,-223.2"/>
<polygon fill="#000000" stroke="#000000" points="275.2538,-273.0441 270.274,-279.3052 269.0218,-278.3092 274.0016,-272.0481 275.2538,-273.0441"/>
<polyline fill="none" stroke="#000000" points="273.39,-276.6726 270.2595,-274.1827 "/>
<ellipse fill="none" stroke="#000000" cx="267.755" cy="-272.1908" rx="3.2" ry="3.2"/>
</g>
<!-- public.unload_methods -->
<g id="node4" class="node">
<title>public.unload_methods</title>
<g id="a_node4"><a xlink:href="../../../public/tables/unload_methods.html" xlink:title="public.unload_methods" target="_top">
<polygon fill="#ffffff" stroke="transparent" points="8,-277.7 8,-338.7 181,-338.7 181,-277.7 8,-277.7"/>
<polygon fill="#f5f5f5" stroke="transparent" points="8.5,-315.2 8.5,-338.2 181.5,-338.2 181.5,-315.2 8.5,-315.2"/>
<polygon fill="none" stroke="#000000" points="8.5,-315.2 8.5,-338.2 181.5,-338.2 181.5,-315.2 8.5,-315.2"/>
<text text-anchor="start" x="13.5" y="-323.8" font-family="Helvetica,sans-Serif" font-weight="bold" font-size="11.00" fill="#000000">public.unload_methods</text>
<text text-anchor="start" x="147.0219" y="-323.3" font-family="Helvetica,sans-Serif" font-size="11.00" fill="#000000">[table]</text>
<polygon fill="none" stroke="#000000" points="8.5,-296.2 8.5,-315.2 181.5,-315.2 181.5,-296.2 8.5,-296.2"/>
<text text-anchor="start" x="11.5" y="-302.3" font-family="Helvetica,sans-Serif" font-size="11.00" fill="#000000">...</text>
<polygon fill="#ffffff" stroke="transparent" points="8.5,-277.2 8.5,-296.2 71.5,-296.2 71.5,-277.2 8.5,-277.2"/>
<polygon fill="none" stroke="#000000" points="8.5,-277.2 8.5,-296.2 71.5,-296.2 71.5,-277.2 8.5,-277.2"/>
<text text-anchor="start" x="11.5" y="-283.3" font-family="Helvetica,sans-Serif" font-size="11.00" fill="#000000"> &#160;</text>
<polygon fill="#ffffff" stroke="transparent" points="71.5,-277.2 71.5,-296.2 134.5,-296.2 134.5,-277.2 71.5,-277.2"/>
<polygon fill="none" stroke="#000000" points="71.5,-277.2 71.5,-296.2 134.5,-296.2 134.5,-277.2 71.5,-277.2"/>
<text text-anchor="start" x="99.1105" y="-283.3" font-family="Helvetica,sans-Serif" font-size="11.00" fill="#000000">0 rows</text>
<polygon fill="#ffffff" stroke="transparent" points="134.5,-277.2 134.5,-296.2 181.5,-296.2 181.5,-277.2 134.5,-277.2"/>
<polygon fill="none" stroke="#000000" points="134.5,-277.2 134.5,-296.2 181.5,-296.2 181.5,-277.2 134.5,-277.2"/>
<text text-anchor="start" x="162.9053" y="-283.3" font-family="Helvetica,sans-Serif" font-size="11.00" fill="#000000">1 &gt;</text>
</a>
</g>
</g>
<!-- inbound_receipt&#45;&gt;public.unload_methods -->
<g id="edge4" class="edge">
<title>inbound_receipt:w&#45;&gt;public.unload_methods:e</title>
<path fill="none" stroke="#000000" d="M221.5562,-305.9848C208.1405,-305.5081 194.4568,-305.2 181.5,-305.2"/>
<polygon fill="#000000" stroke="#000000" points="227.9678,-306.2414 235.8174,-310.1586 231.9646,-306.4015 235.9614,-306.5615 235.9614,-306.5615 235.9614,-306.5615 231.9646,-306.4015 236.1055,-302.9644 227.9678,-306.2414 227.9678,-306.2414"/>
<ellipse fill="none" stroke="#000000" cx="224.7704" cy="-306.1134" rx="3.2" ry="3.2"/>
</g>
<!-- public.warehouses -->
<g id="node5" class="node">
<title>public.warehouses</title>
<g id="a_node5"><a xlink:href="../../../public/tables/warehouses.html" xlink:title="public.warehouses" target="_top">
<polygon fill="#ffffff" stroke="transparent" points="21,-359.7 21,-420.7 168,-420.7 168,-359.7 21,-359.7"/>
<polygon fill="#f5f5f5" stroke="transparent" points="21.5,-397.2 21.5,-420.2 168.5,-420.2 168.5,-397.2 21.5,-397.2"/>
<polygon fill="none" stroke="#000000" points="21.5,-397.2 21.5,-420.2 168.5,-420.2 168.5,-397.2 21.5,-397.2"/>
<text text-anchor="start" x="26.5" y="-405.8" font-family="Helvetica,sans-Serif" font-weight="bold" font-size="11.00" fill="#000000">public.warehouses</text>
<text text-anchor="start" x="134.0219" y="-405.3" font-family="Helvetica,sans-Serif" font-size="11.00" fill="#000000">[table]</text>
<polygon fill="none" stroke="#000000" points="21.5,-378.2 21.5,-397.2 168.5,-397.2 168.5,-378.2 21.5,-378.2"/>
<text text-anchor="start" x="24.5" y="-384.3" font-family="Helvetica,sans-Serif" font-size="11.00" fill="#000000">...</text>
<polygon fill="#ffffff" stroke="transparent" points="21.5,-359.2 21.5,-378.2 71.5,-378.2 71.5,-359.2 21.5,-359.2"/>
<polygon fill="none" stroke="#000000" points="21.5,-359.2 21.5,-378.2 71.5,-378.2 71.5,-359.2 21.5,-359.2"/>
<text text-anchor="start" x="24.5" y="-365.3" font-family="Helvetica,sans-Serif" font-size="11.00" fill="#000000"> &#160;</text>
<polygon fill="#ffffff" stroke="transparent" points="71.5,-359.2 71.5,-378.2 128.5,-378.2 128.5,-359.2 71.5,-359.2"/>
<polygon fill="none" stroke="#000000" points="71.5,-359.2 71.5,-378.2 128.5,-378.2 128.5,-359.2 71.5,-359.2"/>
<text text-anchor="start" x="93.1105" y="-365.3" font-family="Helvetica,sans-Serif" font-size="11.00" fill="#000000">0 rows</text>
<polygon fill="#ffffff" stroke="transparent" points="128.5,-359.2 128.5,-378.2 168.5,-378.2 168.5,-359.2 128.5,-359.2"/>
<polygon fill="none" stroke="#000000" points="128.5,-359.2 128.5,-378.2 168.5,-378.2 168.5,-359.2 128.5,-359.2"/>
<text text-anchor="start" x="149.9053" y="-365.3" font-family="Helvetica,sans-Serif" font-size="11.00" fill="#000000">5 &gt;</text>
</a>
</g>
</g>
<!-- inbound_receipt&#45;&gt;public.warehouses -->
<g id="edge6" class="edge">
<title>inbound_receipt:w&#45;&gt;public.warehouses:e</title>
<path fill="none" stroke="#000000" d="M222.086,-343.4283C206.9067,-348.9929 191.1834,-354.7569 176.1777,-360.2578"/>
<polygon fill="#000000" stroke="#000000" points="228.3259,-341.1409 237.0762,-341.7674 232.0815,-339.7641 235.8371,-338.3873 235.8371,-338.3873 235.8371,-338.3873 232.0815,-339.7641 234.598,-335.0073 228.3259,-341.1409 228.3259,-341.1409"/>
<ellipse fill="none" stroke="#000000" cx="225.3214" cy="-342.2423" rx="3.2" ry="3.2"/>
</g>
<!-- inventory_lots -->
<g id="node6" class="node">
<title>inventory_lots</title>
<g id="a_node6"><a xlink:href="../../tables/inventory_lots.html" xlink:title="inventory_lots" target="_top">
<polygon fill="#ffffff" stroke="transparent" points="511,-303.7 511,-364.7 632,-364.7 632,-303.7 511,-303.7"/>
<polygon fill="#f5f5f5" stroke="transparent" points="511.5,-341.2 511.5,-364.2 632.5,-364.2 632.5,-341.2 511.5,-341.2"/>
<polygon fill="none" stroke="#000000" points="511.5,-341.2 511.5,-364.2 632.5,-364.2 632.5,-341.2 511.5,-341.2"/>
<text text-anchor="start" x="516.5" y="-349.8" font-family="Helvetica,sans-Serif" font-weight="bold" font-size="11.00" fill="#000000">inventory_lots</text>
<text text-anchor="start" x="598.0219" y="-349.3" font-family="Helvetica,sans-Serif" font-size="11.00" fill="#000000">[table]</text>
<polygon fill="none" stroke="#000000" points="511.5,-322.2 511.5,-341.2 632.5,-341.2 632.5,-322.2 511.5,-322.2"/>
<text text-anchor="start" x="514.5" y="-328.3" font-family="Helvetica,sans-Serif" font-size="11.00" fill="#000000">...</text>
<polygon fill="#ffffff" stroke="transparent" points="511.5,-303.2 511.5,-322.2 557.5,-322.2 557.5,-303.2 511.5,-303.2"/>
<polygon fill="none" stroke="#000000" points="511.5,-303.2 511.5,-322.2 557.5,-322.2 557.5,-303.2 511.5,-303.2"/>
<text text-anchor="start" x="514.5" y="-309.3" font-family="Helvetica,sans-Serif" font-size="11.00" fill="#000000">&lt; 6</text>
<polygon fill="#ffffff" stroke="transparent" points="557.5,-303.2 557.5,-322.2 607.5,-322.2 607.5,-303.2 557.5,-303.2"/>
<polygon fill="none" stroke="#000000" points="557.5,-303.2 557.5,-322.2 607.5,-322.2 607.5,-303.2 557.5,-303.2"/>
<text text-anchor="start" x="572.1105" y="-309.3" font-family="Helvetica,sans-Serif" font-size="11.00" fill="#000000">5 rows</text>
<polygon fill="#ffffff" stroke="transparent" points="607.5,-303.2 607.5,-322.2 632.5,-322.2 632.5,-303.2 607.5,-303.2"/>
<polygon fill="none" stroke="#000000" points="607.5,-303.2 607.5,-322.2 632.5,-322.2 632.5,-303.2 607.5,-303.2"/>
<text text-anchor="start" x="623.3862" y="-309.3" font-family="Helvetica,sans-Serif" font-size="11.00" fill="#000000"> &#160;</text>
</a>
</g>
</g>
<!-- inventory_lots&#45;&gt;inbound_receipt -->
<g id="edge8" class="edge">
<title>inventory_lots:w&#45;&gt;inbound_receipt:e</title>
<path fill="none" stroke="#000000" d="M497.0015,-331.0368C458.8013,-330.2008 418.1054,-326.2765 384.4655,-322.1363"/>
<polygon fill="#000000" stroke="#000000" points="503.5005,-331.1099 511.4595,-334.7998 507.5003,-331.155 511.5,-331.2 511.5,-331.2 511.5,-331.2 507.5003,-331.155 511.5405,-327.6002 503.5005,-331.1099 503.5005,-331.1099"/>
<ellipse fill="none" stroke="#000000" cx="500.3007" cy="-331.0739" rx="3.2" ry="3.2"/>
</g>
<!-- inventory_lots&#45;&gt;public.users -->
<g id="edge7" class="edge">
<title>inventory_lots:w&#45;&gt;public.users:e</title>
<path fill="none" stroke="#000000" d="M497.0904,-332.3998C421.9277,-346.01 477.5725,-471.6643 398,-516.2 329.7415,-554.4034 297.0099,-538.3864 222,-516.2 185.1763,-505.3083 187.9007,-469.2 149.5,-469.2"/>
<polygon fill="#000000" stroke="#000000" points="503.5276,-331.8638 511.7987,-334.7876 507.5138,-331.5319 511.5,-331.2 511.5,-331.2 511.5,-331.2 507.5138,-331.5319 511.2013,-327.6124 503.5276,-331.8638 503.5276,-331.8638"/>
<ellipse fill="none" stroke="#000000" cx="500.3386" cy="-332.1294" rx="3.2" ry="3.2"/>
</g>
<!-- inventory_lots&#45;&gt;public.users -->
<g id="edge10" class="edge">
<title>inventory_lots:w&#45;&gt;public.users:e</title>
<path fill="none" stroke="#000000" d="M496.8447,-332.4589C423.3848,-346.2109 476.3777,-468.8356 398,-512.2 329.5553,-550.0687 297.4368,-532.8884 222,-512.2 185.8706,-502.2916 186.9634,-469.2 149.5,-469.2"/>
<polygon fill="#000000" stroke="#000000" points="503.5294,-331.8847 511.8081,-334.7868 507.5147,-331.5424 511.5,-331.2 511.5,-331.2 511.5,-331.2 507.5147,-331.5424 511.1919,-327.6132 503.5294,-331.8847 503.5294,-331.8847"/>
<ellipse fill="none" stroke="#000000" cx="500.3411" cy="-332.1586" rx="3.2" ry="3.2"/>
</g>
<!-- inventory_lots&#45;&gt;public.orders -->
<g id="edge9" class="edge">
<title>inventory_lots:w&#45;&gt;public.orders:e</title>
<path fill="none" stroke="#000000" d="M497.0778,-330.5209C468.5295,-327.562 456.935,-314.914 431,-292.2 410.97,-274.6576 420.9416,-255.7138 398,-242.2 303.7059,-186.6558 261.9374,-223.2 152.5,-223.2"/>
<polygon fill="#000000" stroke="#000000" points="503.5089,-330.8237 511.3307,-334.796 507.5044,-331.0118 511.5,-331.2 511.5,-331.2 511.5,-331.2 507.5044,-331.0118 511.6693,-327.604 503.5089,-330.8237 503.5089,-330.8237"/>
<ellipse fill="none" stroke="#000000" cx="500.3124" cy="-330.6731" rx="3.2" ry="3.2"/>
</g>
<!-- inventory_lots&#45;&gt;public.warehouses -->
<g id="edge11" class="edge">
<title>inventory_lots:w&#45;&gt;public.warehouses:e</title>
<path fill="none" stroke="#000000" d="M496.9158,-330.1679C469.511,-325.9244 460.7909,-309.2403 431,-292.2 415.6991,-283.4479 414.8708,-275.3081 398,-270.2 323.1341,-247.5324 287.1043,-226.8394 222,-270.2 190.3299,-291.2928 215.7219,-322.1105 189,-349.2 185.1067,-353.1469 180.7706,-356.7391 176.156,-360.0046"/>
<polygon fill="#000000" stroke="#000000" points="503.52,-330.6352 511.2459,-334.791 507.51,-330.9176 511.5,-331.2 511.5,-331.2 511.5,-331.2 507.51,-330.9176 511.7541,-327.609 503.52,-330.6352 503.52,-330.6352"/>
<ellipse fill="none" stroke="#000000" cx="500.3279" cy="-330.4093" rx="3.2" ry="3.2"/>
</g>
<!-- outbound_shipments -->
<g id="node7" class="node">
<title>outbound_shipments</title>
<g id="a_node7"><a xlink:href="../../tables/outbound_shipments.html" xlink:title="outbound_shipments" target="_top">
<polygon fill="#ffffff" stroke="transparent" points="230,-362.7 230,-423.7 390,-423.7 390,-362.7 230,-362.7"/>
<polygon fill="#f5f5f5" stroke="transparent" points="230,-400.2 230,-423.2 390,-423.2 390,-400.2 230,-400.2"/>
<polygon fill="none" stroke="#000000" points="230,-400.2 230,-423.2 390,-423.2 390,-400.2 230,-400.2"/>
<text text-anchor="start" x="235" y="-408.8" font-family="Helvetica,sans-Serif" font-weight="bold" font-size="11.00" fill="#000000">outbound_shipments</text>
<text text-anchor="start" x="355.5219" y="-408.3" font-family="Helvetica,sans-Serif" font-size="11.00" fill="#000000">[table]</text>
<polygon fill="none" stroke="#000000" points="230,-381.2 230,-400.2 390,-400.2 390,-381.2 230,-381.2"/>
<text text-anchor="start" x="233" y="-387.3" font-family="Helvetica,sans-Serif" font-size="11.00" fill="#000000">...</text>
<polygon fill="#ffffff" stroke="transparent" points="230,-362.2 230,-381.2 304,-381.2 304,-362.2 230,-362.2"/>
<polygon fill="none" stroke="#000000" points="230,-362.2 230,-381.2 304,-381.2 304,-362.2 230,-362.2"/>
<text text-anchor="start" x="233" y="-368.3" font-family="Helvetica,sans-Serif" font-size="11.00" fill="#000000">&lt; 8</text>
<polygon fill="#ffffff" stroke="transparent" points="304,-362.2 304,-381.2 342,-381.2 342,-362.2 304,-362.2"/>
<polygon fill="none" stroke="#000000" points="304,-362.2 304,-381.2 342,-381.2 342,-362.2 304,-362.2"/>
<text text-anchor="start" x="332.8862" y="-368.3" font-family="Helvetica,sans-Serif" font-size="11.00" fill="#000000"> &#160;</text>
<polygon fill="#ffffff" stroke="transparent" points="342,-362.2 342,-381.2 390,-381.2 390,-362.2 342,-362.2"/>
<polygon fill="none" stroke="#000000" points="342,-362.2 342,-381.2 390,-381.2 390,-362.2 342,-362.2"/>
<text text-anchor="start" x="371.4053" y="-368.3" font-family="Helvetica,sans-Serif" font-size="11.00" fill="#000000">1 &gt;</text>
</a>
</g>
</g>
<!-- outbound_shipments&#45;&gt;public.users -->
<g id="edge12" class="edge">
<title>outbound_shipments:w&#45;&gt;public.users:e</title>
<path fill="none" stroke="#000000" d="M215.4515,-389.0942C183.451,-394.2515 193.9496,-457.6727 149.5,-469.2"/>
<polygon fill="#000000" stroke="#000000" points="222.023,-389.5936 229.7271,-393.7896 226.0115,-389.8968 230,-390.2 230,-390.2 230,-390.2 226.0115,-389.8968 230.2729,-386.6104 222.023,-389.5936 222.023,-389.5936"/>
<ellipse fill="none" stroke="#000000" cx="218.8322" cy="-389.3511" rx="3.2" ry="3.2"/>
</g>
<!-- outbound_shipments&#45;&gt;public.users -->
<g id="edge13" class="edge">
<title>outbound_shipments:w&#45;&gt;public.users:e</title>
<path fill="none" stroke="#000000" d="M215.4515,-393.0117C183.451,-407.0847 193.9496,-469.2 149.5,-469.2"/>
<polygon fill="#000000" stroke="#000000" points="222.1453,-391.718 230.6831,-393.7346 226.0727,-390.959 230,-390.2 230,-390.2 230,-390.2 226.0727,-390.959 229.3169,-386.6654 222.1453,-391.718 222.1453,-391.718"/>
<ellipse fill="none" stroke="#000000" cx="219.0035" cy="-392.3253" rx="3.2" ry="3.2"/>
</g>
<!-- outbound_shipments&#45;&gt;public.users -->
<g id="edge14" class="edge">
<title>outbound_shipments:w&#45;&gt;public.users:e</title>
<path fill="none" stroke="#000000" d="M216.7427,-396.0378C183.1639,-418.2979 194.5371,-480.8797 149.5,-469.2"/>
<polygon fill="#000000" stroke="#000000" points="222.6784,-393.4241 231.4508,-393.4947 226.3392,-391.812 230,-390.2 230,-390.2 230,-390.2 226.3392,-391.812 228.5492,-386.9053 222.6784,-393.4241 222.6784,-393.4241"/>
<ellipse fill="none" stroke="#000000" cx="219.7498" cy="-394.7137" rx="3.2" ry="3.2"/>
</g>
<!-- outbound_shipments&#45;&gt;public.warehouses -->
<g id="edge15" class="edge">
<title>outbound_shipments:w&#45;&gt;public.warehouses:e</title>
<path fill="none" stroke="#000000" d="M215.4824,-390.2C202.4531,-390.2 189.0747,-390.2 176.1839,-390.2"/>
<polygon fill="#000000" stroke="#000000" points="222,-390.2001 230,-393.8 226,-390.2 230,-390.2 230,-390.2 230,-390.2 226,-390.2 230,-386.6 222,-390.2001 222,-390.2001"/>
<ellipse fill="none" stroke="#000000" cx="218.8" cy="-390.2001" rx="3.2" ry="3.2"/>
</g>
<!-- putaway_tasks -->
<g id="node8" class="node">
<title>putaway_tasks</title>
<g id="a_node8"><a xlink:href="../../tables/putaway_tasks.html" xlink:title="putaway_tasks" target="_top">
<polygon fill="#ffffff" stroke="transparent" points="439,-38.2 439,-282.2 704,-282.2 704,-38.2 439,-38.2"/>
<polygon fill="#f5f5f5" stroke="transparent" points="441.5,-257.2 441.5,-280.2 702.5,-280.2 702.5,-257.2 441.5,-257.2"/>
<polygon fill="none" stroke="#000000" points="441.5,-257.2 441.5,-280.2 702.5,-280.2 702.5,-257.2 441.5,-257.2"/>
<text text-anchor="start" x="446.5" y="-265.8" font-family="Helvetica,sans-Serif" font-weight="bold" font-size="11.00" fill="#000000">putaway_tasks</text>
<text text-anchor="start" x="667.5437" y="-265.3" font-family="Helvetica,sans-Serif" font-size="11.00" fill="#000000">[table]</text>
<polygon fill="none" stroke="#000000" points="441.5,-235.2 441.5,-257.2 610.5,-257.2 610.5,-235.2 441.5,-235.2"/>
<image xlink:href="../../images/primaryKeys.png" width="11px" height="12px" preserveAspectRatio="xMinYMin meet" x="446.5" y="-252.2"/>
<text text-anchor="start" x="461.5" y="-242.3" font-family="Helvetica,sans-Serif" font-size="11.00" fill="#000000">putaway_task_id</text>
<polygon fill="none" stroke="#000000" points="610.5,-235.2 610.5,-257.2 702.5,-257.2 702.5,-235.2 610.5,-235.2"/>
<text text-anchor="start" x="613.5" y="-242.9" font-family="Helvetica,sans-Serif" font-size="11.00" fill="#000000">int8[19]</text>
<polygon fill="none" stroke="#000000" points="441.5,-213.2 441.5,-235.2 610.5,-235.2 610.5,-213.2 441.5,-213.2"/>
<image xlink:href="../../images/foreignKeys.png" width="11px" height="12px" preserveAspectRatio="xMinYMin meet" x="446.5" y="-230.2"/>
<text text-anchor="start" x="461.5" y="-220.3" font-family="Helvetica,sans-Serif" font-size="11.00" fill="#000000">inbound_receipt_detail_id</text>
<polygon fill="none" stroke="#000000" points="610.5,-213.2 610.5,-235.2 702.5,-235.2 702.5,-213.2 610.5,-213.2"/>
<text text-anchor="start" x="613.5" y="-220.9" font-family="Helvetica,sans-Serif" font-size="11.00" fill="#000000">int8[19]</text>
<polygon fill="none" stroke="#000000" points="441.5,-191.2 441.5,-213.2 610.5,-213.2 610.5,-191.2 441.5,-191.2"/>
<image xlink:href="../../images/foreignKeys.png" width="11px" height="12px" preserveAspectRatio="xMinYMin meet" x="446.5" y="-208.2"/>
<text text-anchor="start" x="461.5" y="-198.3" font-family="Helvetica,sans-Serif" font-size="11.00" fill="#000000">warehouse_id</text>
<polygon fill="none" stroke="#000000" points="610.5,-191.2 610.5,-213.2 702.5,-213.2 702.5,-191.2 610.5,-191.2"/>
<text text-anchor="start" x="613.5" y="-198.9" font-family="Helvetica,sans-Serif" font-size="11.00" fill="#000000">int8[19]</text>
<polygon fill="none" stroke="#000000" points="441.5,-169.2 441.5,-191.2 610.5,-191.2 610.5,-169.2 441.5,-169.2"/>
<text text-anchor="start" x="461.5" y="-176.3" font-family="Helvetica,sans-Serif" font-size="11.00" fill="#000000">storage_location_code</text>
<polygon fill="none" stroke="#000000" points="610.5,-169.2 610.5,-191.2 702.5,-191.2 702.5,-169.2 610.5,-169.2"/>
<text text-anchor="start" x="613.5" y="-176.9" font-family="Helvetica,sans-Serif" font-size="11.00" fill="#000000">varchar[100]</text>
<polygon fill="none" stroke="#000000" points="441.5,-147.2 441.5,-169.2 610.5,-169.2 610.5,-147.2 441.5,-147.2"/>
<text text-anchor="start" x="461.5" y="-154.3" font-family="Helvetica,sans-Serif" font-size="11.00" fill="#000000">assigned_to</text>
<polygon fill="none" stroke="#000000" points="610.5,-147.2 610.5,-169.2 702.5,-169.2 702.5,-147.2 610.5,-147.2"/>
<text text-anchor="start" x="613.5" y="-154.9" font-family="Helvetica,sans-Serif" font-size="11.00" fill="#000000">varchar[100]</text>
<polygon fill="none" stroke="#000000" points="441.5,-125.2 441.5,-147.2 610.5,-147.2 610.5,-125.2 441.5,-125.2"/>
<text text-anchor="start" x="461.5" y="-132.3" font-family="Helvetica,sans-Serif" font-size="11.00" fill="#000000">assigned_at</text>
<polygon fill="none" stroke="#000000" points="610.5,-125.2 610.5,-147.2 702.5,-147.2 702.5,-125.2 610.5,-125.2"/>
<text text-anchor="start" x="613.1023" y="-132.9" font-family="Helvetica,sans-Serif" font-size="11.00" fill="#000000">timestamptz[35,6]</text>
<polygon fill="none" stroke="#000000" points="441.5,-103.2 441.5,-125.2 610.5,-125.2 610.5,-103.2 441.5,-103.2"/>
<text text-anchor="start" x="461.5" y="-110.3" font-family="Helvetica,sans-Serif" font-size="11.00" fill="#000000">completed_at</text>
<polygon fill="none" stroke="#000000" points="610.5,-103.2 610.5,-125.2 702.5,-125.2 702.5,-103.2 610.5,-103.2"/>
<text text-anchor="start" x="613.1023" y="-110.9" font-family="Helvetica,sans-Serif" font-size="11.00" fill="#000000">timestamptz[35,6]</text>
<polygon fill="none" stroke="#000000" points="441.5,-81.2 441.5,-103.2 610.5,-103.2 610.5,-81.2 441.5,-81.2"/>
<text text-anchor="start" x="461.5" y="-88.3" font-family="Helvetica,sans-Serif" font-size="11.00" fill="#000000">status</text>
<polygon fill="none" stroke="#000000" points="610.5,-81.2 610.5,-103.2 702.5,-103.2 702.5,-81.2 610.5,-81.2"/>
<text text-anchor="start" x="613.5" y="-88.9" font-family="Helvetica,sans-Serif" font-size="11.00" fill="#000000">varchar[50]</text>
<polygon fill="none" stroke="#000000" points="441.5,-59.2 441.5,-81.2 610.5,-81.2 610.5,-59.2 441.5,-59.2"/>
<text text-anchor="start" x="461.5" y="-66.3" font-family="Helvetica,sans-Serif" font-size="11.00" fill="#000000">notes</text>
<polygon fill="none" stroke="#000000" points="610.5,-59.2 610.5,-81.2 702.5,-81.2 702.5,-59.2 610.5,-59.2"/>
<text text-anchor="start" x="613.5" y="-66.9" font-family="Helvetica,sans-Serif" font-size="11.00" fill="#000000">text[2147483647]</text>
<polygon fill="#ffffff" stroke="transparent" points="441.5,-40.2 441.5,-59.2 530.5,-59.2 530.5,-40.2 441.5,-40.2"/>
<polygon fill="none" stroke="#000000" points="441.5,-40.2 441.5,-59.2 530.5,-59.2 530.5,-40.2 441.5,-40.2"/>
<text text-anchor="start" x="444.5" y="-46.3" font-family="Helvetica,sans-Serif" font-size="11.00" fill="#000000">&lt; 2</text>
<polygon fill="#ffffff" stroke="transparent" points="530.5,-40.2 530.5,-59.2 610.5,-59.2 610.5,-40.2 530.5,-40.2"/>
<polygon fill="none" stroke="#000000" points="530.5,-40.2 530.5,-59.2 610.5,-59.2 610.5,-40.2 530.5,-40.2"/>
<text text-anchor="start" x="601.3862" y="-46.3" font-family="Helvetica,sans-Serif" font-size="11.00" fill="#000000"> &#160;</text>
<polygon fill="#ffffff" stroke="transparent" points="610.5,-40.2 610.5,-59.2 702.5,-59.2 702.5,-40.2 610.5,-40.2"/>
<polygon fill="none" stroke="#000000" points="610.5,-40.2 610.5,-59.2 702.5,-59.2 702.5,-40.2 610.5,-40.2"/>
<text text-anchor="start" x="683.9053" y="-46.3" font-family="Helvetica,sans-Serif" font-size="11.00" fill="#000000">0 &gt;</text>
<polygon fill="none" stroke="#000000" stroke-width="2" points="440,-39.2 440,-281.2 703,-281.2 703,-39.2 440,-39.2"/>
</a>
</g>
</g>
<!-- putaway_tasks&#45;&gt;inbound_receipt -->
<g id="edge16" class="edge">
<title>putaway_tasks:w&#45;&gt;inbound_receipt:e</title>
<path fill="none" stroke="#000000" d="M426.714,-225.455C392.6075,-231.1659 361.5687,-255.3365 340.0879,-276.5653"/>
<polygon fill="#000000" stroke="#000000" points="433.5287,-224.8766 441.8045,-227.7871 437.5143,-224.5383 441.5,-224.2 441.5,-224.2 441.5,-224.2 437.5143,-224.5383 441.1955,-220.6129 433.5287,-224.8766 433.5287,-224.8766"/>
<ellipse fill="none" stroke="#000000" cx="430.3401" cy="-225.1473" rx="3.2" ry="3.2"/>
</g>
<!-- putaway_tasks&#45;&gt;public.warehouses -->
<g id="edge17" class="edge">
<title>putaway_tasks:w&#45;&gt;public.warehouses:e</title>
<path fill="none" stroke="#000000" d="M427.0681,-202.0223C337.6687,-199.8546 292.4669,-179.6503 222,-242.2 184.7816,-275.2368 222.1984,-312.1257 189,-349.2 185.1823,-353.4634 180.8425,-357.3015 176.1708,-360.7541"/>
<polygon fill="#000000" stroke="#000000" points="433.5006,-202.1015 441.4557,-205.7997 437.5003,-202.1507 441.5,-202.2 441.5,-202.2 441.5,-202.2 437.5003,-202.1507 441.5443,-198.6003 433.5006,-202.1015 433.5006,-202.1015"/>
<ellipse fill="none" stroke="#000000" cx="430.3008" cy="-202.062" rx="3.2" ry="3.2"/>
</g>
<!-- wms_labor_logs -->
<g id="node9" class="node">
<title>wms_labor_logs</title>
<g id="a_node9"><a xlink:href="../../tables/wms_labor_logs.html" xlink:title="wms_labor_logs" target="_top">
<polygon fill="#ffffff" stroke="transparent" points="243.5,-444.7 243.5,-505.7 376.5,-505.7 376.5,-444.7 243.5,-444.7"/>
<polygon fill="#f5f5f5" stroke="transparent" points="244,-482.2 244,-505.2 377,-505.2 377,-482.2 244,-482.2"/>
<polygon fill="none" stroke="#000000" points="244,-482.2 244,-505.2 377,-505.2 377,-482.2 244,-482.2"/>
<text text-anchor="start" x="249" y="-490.8" font-family="Helvetica,sans-Serif" font-weight="bold" font-size="11.00" fill="#000000">wms_labor_logs</text>
<text text-anchor="start" x="342.5219" y="-490.3" font-family="Helvetica,sans-Serif" font-size="11.00" fill="#000000">[table]</text>
<polygon fill="none" stroke="#000000" points="244,-463.2 244,-482.2 377,-482.2 377,-463.2 244,-463.2"/>
<text text-anchor="start" x="247" y="-469.3" font-family="Helvetica,sans-Serif" font-size="11.00" fill="#000000">...</text>
<polygon fill="#ffffff" stroke="transparent" points="244,-444.2 244,-463.2 309,-463.2 309,-444.2 244,-444.2"/>
<polygon fill="none" stroke="#000000" points="244,-444.2 244,-463.2 309,-463.2 309,-444.2 244,-444.2"/>
<text text-anchor="start" x="247" y="-450.3" font-family="Helvetica,sans-Serif" font-size="11.00" fill="#000000">&lt; 4</text>
<polygon fill="#ffffff" stroke="transparent" points="309,-444.2 309,-463.2 343,-463.2 343,-444.2 309,-444.2"/>
<polygon fill="none" stroke="#000000" points="309,-444.2 309,-463.2 343,-463.2 343,-444.2 309,-444.2"/>
<text text-anchor="start" x="333.8862" y="-450.3" font-family="Helvetica,sans-Serif" font-size="11.00" fill="#000000"> &#160;</text>
<polygon fill="#ffffff" stroke="transparent" points="343,-444.2 343,-463.2 377,-463.2 377,-444.2 343,-444.2"/>
<polygon fill="none" stroke="#000000" points="343,-444.2 343,-463.2 377,-463.2 377,-444.2 343,-444.2"/>
<text text-anchor="start" x="367.8862" y="-450.3" font-family="Helvetica,sans-Serif" font-size="11.00" fill="#000000"> &#160;</text>
</a>
</g>
</g>
<!-- wms_labor_logs&#45;&gt;public.users -->
<g id="edge18" class="edge">
<title>wms_labor_logs:w&#45;&gt;public.users:e</title>
<path fill="none" stroke="#000000" d="M230.0109,-467.9279C198.9833,-458.7081 186.4327,-457.7742 149.5,-469.2"/>
<polygon fill="#000000" stroke="#000000" points="236.3488,-469.8634 242.9485,-475.643 240.1744,-471.0317 244,-472.2 244,-472.2 244,-472.2 240.1744,-471.0317 245.0515,-468.757 236.3488,-469.8634 236.3488,-469.8634"/>
<ellipse fill="none" stroke="#000000" cx="233.2884" cy="-468.9287" rx="3.2" ry="3.2"/>
</g>
<!-- wms_labor_logs&#45;&gt;public.users -->
<g id="edge19" class="edge">
<title>wms_labor_logs:w&#45;&gt;public.users:e</title>
<path fill="none" stroke="#000000" d="M229.5983,-472.0711C198.8712,-471.4969 186.2685,-469.2 149.5,-469.2"/>
<polygon fill="#000000" stroke="#000000" points="236.0003,-472.1283 243.9678,-475.7999 240.0002,-472.1642 244,-472.2 244,-472.2 244,-472.2 240.0002,-472.1642 244.0322,-468.6001 236.0003,-472.1283 236.0003,-472.1283"/>
<ellipse fill="none" stroke="#000000" cx="232.8004" cy="-472.0997" rx="3.2" ry="3.2"/>
</g>
<!-- wms_labor_logs&#45;&gt;public.users -->
<g id="edge20" class="edge">
<title>wms_labor_logs:w&#45;&gt;public.users:e</title>
<path fill="none" stroke="#000000" d="M230.0109,-476.2295C198.9833,-484.3268 186.4327,-480.6258 149.5,-469.2"/>
<polygon fill="#000000" stroke="#000000" points="236.3126,-474.4144 244.9965,-475.6594 240.1563,-473.3072 244,-472.2 244,-472.2 244,-472.2 240.1563,-473.3072 243.0035,-468.7406 236.3126,-474.4144 236.3126,-474.4144"/>
<ellipse fill="none" stroke="#000000" cx="233.2376" cy="-475.3001" rx="3.2" ry="3.2"/>
</g>
<!-- wms_labor_logs&#45;&gt;public.warehouses -->
<g id="edge21" class="edge">
<title>wms_labor_logs:w&#45;&gt;public.warehouses:e</title>
<path fill="none" stroke="#000000" d="M229.3872,-469.5261C213.1645,-462.5516 210.2303,-443.4962 189,-431.2 184.8216,-428.78 180.4734,-426.4143 176.0377,-424.1185"/>
<polygon fill="#000000" stroke="#000000" points="236.1307,-470.76 243.352,-475.7412 240.0653,-471.48 244,-472.2 244,-472.2 244,-472.2 240.0653,-471.48 244.648,-468.6588 236.1307,-470.76 236.1307,-470.76"/>
<ellipse fill="none" stroke="#000000" cx="232.9829" cy="-470.184" rx="3.2" ry="3.2"/>
</g>
</g>
</svg>
