<?xml version="1.0" encoding="UTF-8" standalone="no"?>
<!DOCTYPE svg PUBLIC "-//W3C//DTD SVG 1.1//EN"
 "http://www.w3.org/Graphics/SVG/1.1/DTD/svg11.dtd">
<!-- Generated by graphviz version 2.40.1 (20161225.0304)
 -->
<!-- Title: twoDegreesRelationshipsDiagram Pages: 1 -->
<svg width="668pt" height="667pt"
 viewBox="0.00 0.00 668.00 667.08" xmlns="http://www.w3.org/2000/svg" xmlns:xlink="http://www.w3.org/1999/xlink">
<g id="graph0" class="graph" transform="scale(1 1) rotate(0) translate(4 663.08)">
<title>twoDegreesRelationshipsDiagram</title>
<polygon fill="#ffffff" stroke="transparent" points="-4,4 -4,-663.08 664,-663.08 664,4 -4,4"/>
<text text-anchor="middle" x="72.4936" y="-7.3" font-family="Helvetica,sans-Serif" font-size="11.00" fill="#000000">Generated by SchemaSpy</text>
<!-- inbound_receipt -->
<g id="node1" class="node">
<title>inbound_receipt</title>
<g id="a_node1"><a xlink:href="../../tables/inbound_receipt.html" xlink:title="inbound_receipt" target="_top">
<polygon fill="#ffffff" stroke="transparent" points="243.5,-217.2 243.5,-278.2 375.5,-278.2 375.5,-217.2 243.5,-217.2"/>
<polygon fill="#f5f5f5" stroke="transparent" points="243.5,-254.7 243.5,-277.7 375.5,-277.7 375.5,-254.7 243.5,-254.7"/>
<polygon fill="none" stroke="#000000" points="243.5,-254.7 243.5,-277.7 375.5,-277.7 375.5,-254.7 243.5,-254.7"/>
<text text-anchor="start" x="248.5" y="-263.3" font-family="Helvetica,sans-Serif" font-weight="bold" font-size="11.00" fill="#000000">inbound_receipt</text>
<text text-anchor="start" x="341.0219" y="-262.8" font-family="Helvetica,sans-Serif" font-size="11.00" fill="#000000">[table]</text>
<polygon fill="none" stroke="#000000" points="243.5,-235.7 243.5,-254.7 375.5,-254.7 375.5,-235.7 243.5,-235.7"/>
<text text-anchor="start" x="246.5" y="-241.8" font-family="Helvetica,sans-Serif" font-size="11.00" fill="#000000">...</text>
<polygon fill="#ffffff" stroke="transparent" points="243.5,-216.7 243.5,-235.7 290.5,-235.7 290.5,-216.7 243.5,-216.7"/>
<polygon fill="none" stroke="#000000" points="243.5,-216.7 243.5,-235.7 290.5,-235.7 290.5,-216.7 243.5,-216.7"/>
<text text-anchor="start" x="246.5" y="-222.8" font-family="Helvetica,sans-Serif" font-size="11.00" fill="#000000">&lt; 6</text>
<polygon fill="#ffffff" stroke="transparent" points="290.5,-216.7 290.5,-235.7 341.5,-235.7 341.5,-216.7 290.5,-216.7"/>
<polygon fill="none" stroke="#000000" points="290.5,-216.7 290.5,-235.7 341.5,-235.7 341.5,-216.7 290.5,-216.7"/>
<text text-anchor="start" x="306.1105" y="-222.8" font-family="Helvetica,sans-Serif" font-size="11.00" fill="#000000">2 rows</text>
<polygon fill="#ffffff" stroke="transparent" points="341.5,-216.7 341.5,-235.7 375.5,-235.7 375.5,-216.7 341.5,-216.7"/>
<polygon fill="none" stroke="#000000" points="341.5,-216.7 341.5,-235.7 375.5,-235.7 375.5,-216.7 341.5,-216.7"/>
<text text-anchor="start" x="356.9053" y="-222.8" font-family="Helvetica,sans-Serif" font-size="11.00" fill="#000000">2 &gt;</text>
</a>
</g>
</g>
<!-- public.users -->
<g id="node2" class="node">
<title>public.users</title>
<g id="a_node2"><a xlink:href="../../../public/tables/users.html" xlink:title="public.users" target="_top">
<polygon fill="#ffffff" stroke="transparent" points="27,-132.2 27,-193.2 136,-193.2 136,-132.2 27,-132.2"/>
<polygon fill="#f5f5f5" stroke="transparent" points="27.5,-169.7 27.5,-192.7 136.5,-192.7 136.5,-169.7 27.5,-169.7"/>
<polygon fill="none" stroke="#000000" points="27.5,-169.7 27.5,-192.7 136.5,-192.7 136.5,-169.7 27.5,-169.7"/>
<text text-anchor="start" x="32.5" y="-178.3" font-family="Helvetica,sans-Serif" font-weight="bold" font-size="11.00" fill="#000000">public.users</text>
<text text-anchor="start" x="102.0219" y="-177.8" font-family="Helvetica,sans-Serif" font-size="11.00" fill="#000000">[table]</text>
<polygon fill="none" stroke="#000000" points="27.5,-150.7 27.5,-169.7 136.5,-169.7 136.5,-150.7 27.5,-150.7"/>
<text text-anchor="start" x="30.5" y="-156.8" font-family="Helvetica,sans-Serif" font-size="11.00" fill="#000000">...</text>
<polygon fill="#ffffff" stroke="transparent" points="27.5,-131.7 27.5,-150.7 55.5,-150.7 55.5,-131.7 27.5,-131.7"/>
<polygon fill="none" stroke="#000000" points="27.5,-131.7 27.5,-150.7 55.5,-150.7 55.5,-131.7 27.5,-131.7"/>
<text text-anchor="start" x="30.5" y="-137.8" font-family="Helvetica,sans-Serif" font-size="11.00" fill="#000000"> &#160;</text>
<polygon fill="#ffffff" stroke="transparent" points="55.5,-131.7 55.5,-150.7 101.5,-150.7 101.5,-131.7 55.5,-131.7"/>
<polygon fill="none" stroke="#000000" points="55.5,-131.7 55.5,-150.7 101.5,-150.7 101.5,-131.7 55.5,-131.7"/>
<text text-anchor="start" x="66.1105" y="-137.8" font-family="Helvetica,sans-Serif" font-size="11.00" fill="#000000">0 rows</text>
<polygon fill="#ffffff" stroke="transparent" points="101.5,-131.7 101.5,-150.7 136.5,-150.7 136.5,-131.7 101.5,-131.7"/>
<polygon fill="none" stroke="#000000" points="101.5,-131.7 101.5,-150.7 136.5,-150.7 136.5,-131.7 101.5,-131.7"/>
<text text-anchor="start" x="111.7904" y="-137.8" font-family="Helvetica,sans-Serif" font-size="11.00" fill="#000000">13 &gt;</text>
</a>
</g>
</g>
<!-- inbound_receipt&#45;&gt;public.users -->
<g id="edge1" class="edge">
<title>inbound_receipt:w&#45;&gt;public.users:e</title>
<path fill="none" stroke="#000000" d="M229.2071,-241.7071C195.9212,-233.1953 163.3597,-214.5389 137.3166,-197.3391"/>
<polygon fill="#000000" stroke="#000000" points="235.6698,-243.0603 242.7621,-248.2236 239.5849,-243.8802 243.5,-244.7 243.5,-244.7 243.5,-244.7 239.5849,-243.8802 244.2379,-241.1764 235.6698,-243.0603 235.6698,-243.0603"/>
<ellipse fill="none" stroke="#000000" cx="232.5378" cy="-242.4044" rx="3.2" ry="3.2"/>
</g>
<!-- inbound_receipt&#45;&gt;public.users -->
<g id="edge2" class="edge">
<title>inbound_receipt:w&#45;&gt;public.users:e</title>
<path fill="none" stroke="#000000" d="M228.8756,-243.8371C189.261,-239.2514 150.7001,-217.1966 122.964,-197.2377"/>
<polygon fill="#000000" stroke="#000000" points="235.5139,-244.2288 243.2879,-248.2938 239.5069,-244.4644 243.5,-244.7 243.5,-244.7 243.5,-244.7 239.5069,-244.4644 243.7121,-241.1062 235.5139,-244.2288 235.5139,-244.2288"/>
<ellipse fill="none" stroke="#000000" cx="232.3194" cy="-244.0403" rx="3.2" ry="3.2"/>
</g>
<!-- inbound_receipt&#45;&gt;public.users -->
<g id="edge3" class="edge">
<title>inbound_receipt:w&#45;&gt;public.users:e</title>
<path fill="none" stroke="#000000" d="M228.94,-246.0507C183.173,-247.2781 138.8051,-220.9714 110.9027,-197.2978"/>
<polygon fill="#000000" stroke="#000000" points="235.5342,-245.439 243.8325,-248.2846 239.5171,-245.0695 243.5,-244.7 243.5,-244.7 243.5,-244.7 239.5171,-245.0695 243.1675,-241.1154 235.5342,-245.439 235.5342,-245.439"/>
<ellipse fill="none" stroke="#000000" cx="232.3479" cy="-245.7346" rx="3.2" ry="3.2"/>
</g>
<!-- public.warehouses -->
<g id="node3" class="node">
<title>public.warehouses</title>
<g id="a_node3"><a xlink:href="../../../public/tables/warehouses.html" xlink:title="public.warehouses" target="_top">
<polygon fill="#ffffff" stroke="transparent" points="8,-499.2 8,-560.2 155,-560.2 155,-499.2 8,-499.2"/>
<polygon fill="#f5f5f5" stroke="transparent" points="8.5,-536.7 8.5,-559.7 155.5,-559.7 155.5,-536.7 8.5,-536.7"/>
<polygon fill="none" stroke="#000000" points="8.5,-536.7 8.5,-559.7 155.5,-559.7 155.5,-536.7 8.5,-536.7"/>
<text text-anchor="start" x="13.5" y="-545.3" font-family="Helvetica,sans-Serif" font-weight="bold" font-size="11.00" fill="#000000">public.warehouses</text>
<text text-anchor="start" x="121.0219" y="-544.8" font-family="Helvetica,sans-Serif" font-size="11.00" fill="#000000">[table]</text>
<polygon fill="none" stroke="#000000" points="8.5,-517.7 8.5,-536.7 155.5,-536.7 155.5,-517.7 8.5,-517.7"/>
<text text-anchor="start" x="11.5" y="-523.8" font-family="Helvetica,sans-Serif" font-size="11.00" fill="#000000">...</text>
<polygon fill="#ffffff" stroke="transparent" points="8.5,-498.7 8.5,-517.7 58.5,-517.7 58.5,-498.7 8.5,-498.7"/>
<polygon fill="none" stroke="#000000" points="8.5,-498.7 8.5,-517.7 58.5,-517.7 58.5,-498.7 8.5,-498.7"/>
<text text-anchor="start" x="11.5" y="-504.8" font-family="Helvetica,sans-Serif" font-size="11.00" fill="#000000"> &#160;</text>
<polygon fill="#ffffff" stroke="transparent" points="58.5,-498.7 58.5,-517.7 115.5,-517.7 115.5,-498.7 58.5,-498.7"/>
<polygon fill="none" stroke="#000000" points="58.5,-498.7 58.5,-517.7 115.5,-517.7 115.5,-498.7 58.5,-498.7"/>
<text text-anchor="start" x="80.1105" y="-504.8" font-family="Helvetica,sans-Serif" font-size="11.00" fill="#000000">0 rows</text>
<polygon fill="#ffffff" stroke="transparent" points="115.5,-498.7 115.5,-517.7 155.5,-517.7 155.5,-498.7 115.5,-498.7"/>
<polygon fill="none" stroke="#000000" points="115.5,-498.7 115.5,-517.7 155.5,-517.7 155.5,-498.7 115.5,-498.7"/>
<text text-anchor="start" x="136.9053" y="-504.8" font-family="Helvetica,sans-Serif" font-size="11.00" fill="#000000">5 &gt;</text>
</a>
</g>
</g>
<!-- inbound_receipt&#45;&gt;public.warehouses -->
<g id="edge4" class="edge">
<title>inbound_receipt:w&#45;&gt;public.warehouses:e</title>
<path fill="none" stroke="#000000" d="M228.9287,-245.6872C126.5201,-259.8367 94.3079,-422.4231 84.9872,-495.0383"/>
<polygon fill="#000000" stroke="#000000" points="235.5183,-245.2408 243.7434,-248.2918 239.5091,-244.9704 243.5,-244.7 243.5,-244.7 243.5,-244.7 239.5091,-244.9704 243.2566,-241.1082 235.5183,-245.2408 235.5183,-245.2408"/>
<ellipse fill="none" stroke="#000000" cx="232.3256" cy="-245.4571" rx="3.2" ry="3.2"/>
</g>
<!-- inventory_lots -->
<g id="node4" class="node">
<title>inventory_lots</title>
<g id="a_node4"><a xlink:href="../../tables/inventory_lots.html" xlink:title="inventory_lots" target="_top">
<polygon fill="#ffffff" stroke="transparent" points="497.5,-172.2 497.5,-233.2 618.5,-233.2 618.5,-172.2 497.5,-172.2"/>
<polygon fill="#f5f5f5" stroke="transparent" points="498,-209.7 498,-232.7 619,-232.7 619,-209.7 498,-209.7"/>
<polygon fill="none" stroke="#000000" points="498,-209.7 498,-232.7 619,-232.7 619,-209.7 498,-209.7"/>
<text text-anchor="start" x="503" y="-218.3" font-family="Helvetica,sans-Serif" font-weight="bold" font-size="11.00" fill="#000000">inventory_lots</text>
<text text-anchor="start" x="584.5219" y="-217.8" font-family="Helvetica,sans-Serif" font-size="11.00" fill="#000000">[table]</text>
<polygon fill="none" stroke="#000000" points="498,-190.7 498,-209.7 619,-209.7 619,-190.7 498,-190.7"/>
<text text-anchor="start" x="501" y="-196.8" font-family="Helvetica,sans-Serif" font-size="11.00" fill="#000000">...</text>
<polygon fill="#ffffff" stroke="transparent" points="498,-171.7 498,-190.7 544,-190.7 544,-171.7 498,-171.7"/>
<polygon fill="none" stroke="#000000" points="498,-171.7 498,-190.7 544,-190.7 544,-171.7 498,-171.7"/>
<text text-anchor="start" x="501" y="-177.8" font-family="Helvetica,sans-Serif" font-size="11.00" fill="#000000">&lt; 6</text>
<polygon fill="#ffffff" stroke="transparent" points="544,-171.7 544,-190.7 594,-190.7 594,-171.7 544,-171.7"/>
<polygon fill="none" stroke="#000000" points="544,-171.7 544,-190.7 594,-190.7 594,-171.7 544,-171.7"/>
<text text-anchor="start" x="558.6105" y="-177.8" font-family="Helvetica,sans-Serif" font-size="11.00" fill="#000000">5 rows</text>
<polygon fill="#ffffff" stroke="transparent" points="594,-171.7 594,-190.7 619,-190.7 619,-171.7 594,-171.7"/>
<polygon fill="none" stroke="#000000" points="594,-171.7 594,-190.7 619,-190.7 619,-171.7 594,-171.7"/>
<text text-anchor="start" x="609.8862" y="-177.8" font-family="Helvetica,sans-Serif" font-size="11.00" fill="#000000"> &#160;</text>
</a>
</g>
</g>
<!-- inventory_lots&#45;&gt;inbound_receipt -->
<g id="edge6" class="edge">
<title>inventory_lots:w&#45;&gt;inbound_receipt:e</title>
<path fill="none" stroke="#000000" d="M483.5393,-200.7244C438.4152,-207.4227 428.2906,-244.7 375.5,-244.7"/>
<polygon fill="#000000" stroke="#000000" points="490.02,-200.2654 498.2544,-203.291 494.01,-199.9827 498,-199.7 498,-199.7 498,-199.7 494.01,-199.9827 497.7456,-196.109 490.02,-200.2654 490.02,-200.2654"/>
<ellipse fill="none" stroke="#000000" cx="486.828" cy="-200.4915" rx="3.2" ry="3.2"/>
</g>
<!-- inventory_lots&#45;&gt;public.users -->
<g id="edge5" class="edge">
<title>inventory_lots:w&#45;&gt;public.users:e</title>
<path fill="none" stroke="#000000" d="M483.8194,-195.6358C453.7239,-180.8845 461.4483,-134.6258 423,-118.7 331.3743,-80.7474 214.7309,-108.1148 144.2056,-133.6121"/>
<polygon fill="#000000" stroke="#000000" points="490.3096,-197.4959 497.0081,-203.1607 494.1548,-198.5979 498,-199.7 498,-199.7 498,-199.7 494.1548,-198.5979 498.9919,-196.2393 490.3096,-197.4959 490.3096,-197.4959"/>
<ellipse fill="none" stroke="#000000" cx="487.2335" cy="-196.6142" rx="3.2" ry="3.2"/>
</g>
<!-- inventory_lots&#45;&gt;public.users -->
<g id="edge7" class="edge">
<title>inventory_lots:w&#45;&gt;public.users:e</title>
<path fill="none" stroke="#000000" d="M483.4221,-199.612C453.7913,-193.4757 461.2782,-147.5554 423,-131.7 331.3743,-93.7474 214.7309,-121.1148 144.2056,-143.0516"/>
<polygon fill="#000000" stroke="#000000" points="490.0001,-199.6516 497.9782,-203.2999 494.0001,-199.6758 498,-199.7 498,-199.7 498,-199.7 494.0001,-199.6758 498.0218,-196.1001 490.0001,-199.6516 490.0001,-199.6516"/>
<ellipse fill="none" stroke="#000000" cx="486.8002" cy="-199.6323" rx="3.2" ry="3.2"/>
</g>
<!-- inventory_lots&#45;&gt;public.warehouses -->
<g id="edge8" class="edge">
<title>inventory_lots:w&#45;&gt;public.warehouses:e</title>
<path fill="none" stroke="#000000" d="M483.7109,-202.2773C467.7062,-209.1457 465.0212,-228.8614 456,-250.7 426.3423,-322.4958 480.4625,-546.4288 423,-598.7 385.6847,-632.6442 244.6011,-612.2121 196,-598.7 171.0677,-591.7683 146.133,-577.7854 125.9277,-564.2085"/>
<polygon fill="#000000" stroke="#000000" points="490.127,-201.1201 498.639,-203.2428 494.0635,-200.41 498,-199.7 498,-199.7 498,-199.7 494.0635,-200.41 497.361,-196.1572 490.127,-201.1201 490.127,-201.1201"/>
<ellipse fill="none" stroke="#000000" cx="486.9779" cy="-201.6881" rx="3.2" ry="3.2"/>
</g>
<!-- outbound_shipment_lines -->
<g id="node5" class="node">
<title>outbound_shipment_lines</title>
<g id="a_node5"><a xlink:href="../../tables/outbound_shipment_lines.html" xlink:title="outbound_shipment_lines" target="_top">
<polygon fill="#ffffff" stroke="transparent" points="464,-38.2 464,-99.2 652,-99.2 652,-38.2 464,-38.2"/>
<polygon fill="#f5f5f5" stroke="transparent" points="464,-75.7 464,-98.7 652,-98.7 652,-75.7 464,-75.7"/>
<polygon fill="none" stroke="#000000" points="464,-75.7 464,-98.7 652,-98.7 652,-75.7 464,-75.7"/>
<text text-anchor="start" x="469" y="-84.3" font-family="Helvetica,sans-Serif" font-weight="bold" font-size="11.00" fill="#000000">outbound_shipment_lines</text>
<text text-anchor="start" x="617.5219" y="-83.8" font-family="Helvetica,sans-Serif" font-size="11.00" fill="#000000">[table]</text>
<polygon fill="none" stroke="#000000" points="464,-56.7 464,-75.7 652,-75.7 652,-56.7 464,-56.7"/>
<text text-anchor="start" x="467" y="-62.8" font-family="Helvetica,sans-Serif" font-size="11.00" fill="#000000">...</text>
<polygon fill="#ffffff" stroke="transparent" points="464,-37.7 464,-56.7 543,-56.7 543,-37.7 464,-37.7"/>
<polygon fill="none" stroke="#000000" points="464,-37.7 464,-56.7 543,-56.7 543,-37.7 464,-37.7"/>
<text text-anchor="start" x="467" y="-43.8" font-family="Helvetica,sans-Serif" font-size="11.00" fill="#000000">&lt; 5</text>
<polygon fill="#ffffff" stroke="transparent" points="543,-37.7 543,-56.7 610,-56.7 610,-37.7 543,-37.7"/>
<polygon fill="none" stroke="#000000" points="543,-37.7 543,-56.7 610,-56.7 610,-37.7 543,-37.7"/>
<text text-anchor="start" x="574.6105" y="-43.8" font-family="Helvetica,sans-Serif" font-size="11.00" fill="#000000">6 rows</text>
<polygon fill="#ffffff" stroke="transparent" points="610,-37.7 610,-56.7 652,-56.7 652,-37.7 610,-37.7"/>
<polygon fill="none" stroke="#000000" points="610,-37.7 610,-56.7 652,-56.7 652,-37.7 610,-37.7"/>
<text text-anchor="start" x="642.8862" y="-43.8" font-family="Helvetica,sans-Serif" font-size="11.00" fill="#000000"> &#160;</text>
</a>
</g>
</g>
<!-- outbound_shipment_lines&#45;&gt;public.users -->
<g id="edge9" class="edge">
<title>outbound_shipment_lines:w&#45;&gt;public.users:e</title>
<path fill="none" stroke="#000000" d="M449.2937,-64.9858C340.7765,-59.8871 305.8158,-62.7256 196,-97.7 172.9876,-105.0291 149.0134,-116.675 128.9846,-128.1414"/>
<polygon fill="#000000" stroke="#000000" points="456.0094,-65.3119 463.8254,-69.2958 460.0047,-65.506 464,-65.7 464,-65.7 464,-65.7 460.0047,-65.506 464.1746,-62.1042 456.0094,-65.3119 456.0094,-65.3119"/>
<ellipse fill="none" stroke="#000000" cx="452.8132" cy="-65.1567" rx="3.2" ry="3.2"/>
</g>
<!-- outbound_shipment_lines&#45;&gt;public.users -->
<g id="edge11" class="edge">
<title>outbound_shipment_lines:w&#45;&gt;public.users:e</title>
<path fill="none" stroke="#000000" d="M449.2937,-66.5557C340.7765,-72.8871 305.8158,-75.7256 196,-110.7 178.5276,-116.2647 160.5008,-124.3179 144.0673,-132.4644"/>
<polygon fill="#000000" stroke="#000000" points="456.0135,-66.1648 464.2091,-69.2939 460.0068,-65.9324 464,-65.7 464,-65.7 464,-65.7 460.0068,-65.9324 463.7909,-62.1061 456.0135,-66.1648 456.0135,-66.1648"/>
<ellipse fill="none" stroke="#000000" cx="452.8189" cy="-66.3507" rx="3.2" ry="3.2"/>
</g>
<!-- outbound_shipments -->
<g id="node6" class="node">
<title>outbound_shipments</title>
<g id="a_node6"><a xlink:href="../../tables/outbound_shipments.html" xlink:title="outbound_shipments" target="_top">
<polygon fill="#ffffff" stroke="transparent" points="229.5,-135.2 229.5,-196.2 389.5,-196.2 389.5,-135.2 229.5,-135.2"/>
<polygon fill="#f5f5f5" stroke="transparent" points="229.5,-172.7 229.5,-195.7 389.5,-195.7 389.5,-172.7 229.5,-172.7"/>
<polygon fill="none" stroke="#000000" points="229.5,-172.7 229.5,-195.7 389.5,-195.7 389.5,-172.7 229.5,-172.7"/>
<text text-anchor="start" x="234.5" y="-181.3" font-family="Helvetica,sans-Serif" font-weight="bold" font-size="11.00" fill="#000000">outbound_shipments</text>
<text text-anchor="start" x="355.0219" y="-180.8" font-family="Helvetica,sans-Serif" font-size="11.00" fill="#000000">[table]</text>
<polygon fill="none" stroke="#000000" points="229.5,-153.7 229.5,-172.7 389.5,-172.7 389.5,-153.7 229.5,-153.7"/>
<text text-anchor="start" x="232.5" y="-159.8" font-family="Helvetica,sans-Serif" font-size="11.00" fill="#000000">...</text>
<polygon fill="#ffffff" stroke="transparent" points="229.5,-134.7 229.5,-153.7 303.5,-153.7 303.5,-134.7 229.5,-134.7"/>
<polygon fill="none" stroke="#000000" points="229.5,-134.7 229.5,-153.7 303.5,-153.7 303.5,-134.7 229.5,-134.7"/>
<text text-anchor="start" x="232.5" y="-140.8" font-family="Helvetica,sans-Serif" font-size="11.00" fill="#000000">&lt; 8</text>
<polygon fill="#ffffff" stroke="transparent" points="303.5,-134.7 303.5,-153.7 341.5,-153.7 341.5,-134.7 303.5,-134.7"/>
<polygon fill="none" stroke="#000000" points="303.5,-134.7 303.5,-153.7 341.5,-153.7 341.5,-134.7 303.5,-134.7"/>
<text text-anchor="start" x="332.3862" y="-140.8" font-family="Helvetica,sans-Serif" font-size="11.00" fill="#000000"> &#160;</text>
<polygon fill="#ffffff" stroke="transparent" points="341.5,-134.7 341.5,-153.7 389.5,-153.7 389.5,-134.7 341.5,-134.7"/>
<polygon fill="none" stroke="#000000" points="341.5,-134.7 341.5,-153.7 389.5,-153.7 389.5,-134.7 341.5,-134.7"/>
<text text-anchor="start" x="370.9053" y="-140.8" font-family="Helvetica,sans-Serif" font-size="11.00" fill="#000000">1 &gt;</text>
</a>
</g>
</g>
<!-- outbound_shipment_lines&#45;&gt;outbound_shipments -->
<g id="edge10" class="edge">
<title>outbound_shipment_lines:w&#45;&gt;outbound_shipments:e</title>
<path fill="none" stroke="#000000" d="M449.5485,-68.7094C415.8735,-85.0819 438.1259,-162.7 389.5,-162.7"/>
<polygon fill="#000000" stroke="#000000" points="456.168,-67.331 464.7339,-69.2244 460.084,-66.5155 464,-65.7 464,-65.7 464,-65.7 460.084,-66.5155 463.2661,-62.1756 456.168,-67.331 456.168,-67.331"/>
<ellipse fill="none" stroke="#000000" cx="453.0352" cy="-67.9834" rx="3.2" ry="3.2"/>
</g>
<!-- outbound_shipments&#45;&gt;public.users -->
<g id="edge12" class="edge">
<title>outbound_shipments:w&#45;&gt;public.users:e</title>
<path fill="none" stroke="#000000" d="M215.1709,-160.1103C191.2137,-156.1636 166.0784,-153.8484 144.1516,-153.1648"/>
<polygon fill="#000000" stroke="#000000" points="221.6275,-161.2772 228.8597,-166.2426 225.5638,-161.9886 229.5,-162.7 229.5,-162.7 229.5,-162.7 225.5638,-161.9886 230.1403,-159.1574 221.6275,-161.2772 221.6275,-161.2772"/>
<ellipse fill="none" stroke="#000000" cx="218.4786" cy="-160.708" rx="3.2" ry="3.2"/>
</g>
<!-- outbound_shipments&#45;&gt;public.users -->
<g id="edge13" class="edge">
<title>outbound_shipments:w&#45;&gt;public.users:e</title>
<path fill="none" stroke="#000000" d="M214.8334,-162.7C190.9778,-162.7 165.9754,-162.7 144.1516,-162.7"/>
<polygon fill="#000000" stroke="#000000" points="221.5,-162.7001 229.5,-166.3 225.5,-162.7 229.5,-162.7 229.5,-162.7 229.5,-162.7 225.5,-162.7 229.5,-159.1 221.5,-162.7001 221.5,-162.7001"/>
<ellipse fill="none" stroke="#000000" cx="218.3" cy="-162.7001" rx="3.2" ry="3.2"/>
</g>
<!-- outbound_shipments&#45;&gt;public.users -->
<g id="edge14" class="edge">
<title>outbound_shipments:w&#45;&gt;public.users:e</title>
<path fill="none" stroke="#000000" d="M215.1709,-165.2897C191.2137,-169.2364 166.0784,-171.5516 144.1516,-172.2352"/>
<polygon fill="#000000" stroke="#000000" points="221.6275,-164.1228 230.1403,-166.2426 225.5638,-163.4114 229.5,-162.7 229.5,-162.7 229.5,-162.7 225.5638,-163.4114 228.8597,-159.1574 221.6275,-164.1228 221.6275,-164.1228"/>
<ellipse fill="none" stroke="#000000" cx="218.4786" cy="-164.692" rx="3.2" ry="3.2"/>
</g>
<!-- outbound_shipments&#45;&gt;public.warehouses -->
<g id="edge15" class="edge">
<title>outbound_shipments:w&#45;&gt;public.warehouses:e</title>
<path fill="none" stroke="#000000" d="M215.1448,-165.9553C151.1471,-194.965 104.0616,-410.0592 87.7485,-495.1735"/>
<polygon fill="#000000" stroke="#000000" points="221.6981,-164.4693 230.2962,-166.2109 225.599,-163.5846 229.5,-162.7 229.5,-162.7 229.5,-162.7 225.599,-163.5846 228.7038,-159.1891 221.6981,-164.4693 221.6981,-164.4693"/>
<ellipse fill="none" stroke="#000000" cx="218.5773" cy="-165.177" rx="3.2" ry="3.2"/>
</g>
<!-- putaway_tasks -->
<g id="node7" class="node">
<title>putaway_tasks</title>
<g id="a_node7"><a xlink:href="../../tables/putaway_tasks.html" xlink:title="putaway_tasks" target="_top">
<polygon fill="#ffffff" stroke="transparent" points="496,-261.2 496,-322.2 620,-322.2 620,-261.2 496,-261.2"/>
<polygon fill="#f5f5f5" stroke="transparent" points="496,-298.7 496,-321.7 620,-321.7 620,-298.7 496,-298.7"/>
<polygon fill="none" stroke="#000000" points="496,-298.7 496,-321.7 620,-321.7 620,-298.7 496,-298.7"/>
<text text-anchor="start" x="501" y="-307.3" font-family="Helvetica,sans-Serif" font-weight="bold" font-size="11.00" fill="#000000">putaway_tasks</text>
<text text-anchor="start" x="585.5219" y="-306.8" font-family="Helvetica,sans-Serif" font-size="11.00" fill="#000000">[table]</text>
<polygon fill="none" stroke="#000000" points="496,-279.7 496,-298.7 620,-298.7 620,-279.7 496,-279.7"/>
<text text-anchor="start" x="499" y="-285.8" font-family="Helvetica,sans-Serif" font-size="11.00" fill="#000000">...</text>
<polygon fill="#ffffff" stroke="transparent" points="496,-260.7 496,-279.7 556,-279.7 556,-260.7 496,-260.7"/>
<polygon fill="none" stroke="#000000" points="496,-260.7 496,-279.7 556,-279.7 556,-260.7 496,-260.7"/>
<text text-anchor="start" x="499" y="-266.8" font-family="Helvetica,sans-Serif" font-size="11.00" fill="#000000">&lt; 2</text>
<polygon fill="#ffffff" stroke="transparent" points="556,-260.7 556,-279.7 588,-279.7 588,-260.7 556,-260.7"/>
<polygon fill="none" stroke="#000000" points="556,-260.7 556,-279.7 588,-279.7 588,-260.7 556,-260.7"/>
<text text-anchor="start" x="578.8862" y="-266.8" font-family="Helvetica,sans-Serif" font-size="11.00" fill="#000000"> &#160;</text>
<polygon fill="#ffffff" stroke="transparent" points="588,-260.7 588,-279.7 620,-279.7 620,-260.7 588,-260.7"/>
<polygon fill="none" stroke="#000000" points="588,-260.7 588,-279.7 620,-279.7 620,-260.7 588,-260.7"/>
<text text-anchor="start" x="610.8862" y="-266.8" font-family="Helvetica,sans-Serif" font-size="11.00" fill="#000000"> &#160;</text>
</a>
</g>
</g>
<!-- putaway_tasks&#45;&gt;inbound_receipt -->
<g id="edge16" class="edge">
<title>putaway_tasks:w&#45;&gt;inbound_receipt:e</title>
<path fill="none" stroke="#000000" d="M481.4984,-287.6558C437.3718,-280.9926 427.2805,-244.7 375.5,-244.7"/>
<polygon fill="#000000" stroke="#000000" points="488.0207,-288.1254 495.7414,-292.2907 492.0103,-288.4127 496,-288.7 496,-288.7 496,-288.7 492.0103,-288.4127 496.2586,-285.1093 488.0207,-288.1254 488.0207,-288.1254"/>
<ellipse fill="none" stroke="#000000" cx="484.8289" cy="-287.8955" rx="3.2" ry="3.2"/>
</g>
<!-- putaway_tasks&#45;&gt;public.warehouses -->
<g id="edge17" class="edge">
<title>putaway_tasks:w&#45;&gt;public.warehouses:e</title>
<path fill="none" stroke="#000000" d="M481.2818,-289.566C357.9177,-305.2593 536.9015,-530.0631 423,-621.7 344.3929,-684.9416 291.1661,-655.1961 196,-621.7 163.5273,-610.2704 133.4617,-585.3111 112.2948,-564.2701"/>
<polygon fill="#000000" stroke="#000000" points="488.0138,-289.17 496.2115,-292.2938 492.0069,-288.935 496,-288.7 496,-288.7 496,-288.7 492.0069,-288.935 495.7885,-285.1062 488.0138,-289.17 488.0138,-289.17"/>
<ellipse fill="none" stroke="#000000" cx="484.8193" cy="-289.3579" rx="3.2" ry="3.2"/>
</g>
<!-- wms_labor_logs -->
<g id="node8" class="node">
<title>wms_labor_logs</title>
<g id="a_node8"><a xlink:href="../../tables/wms_labor_logs.html" xlink:title="wms_labor_logs" target="_top">
<polygon fill="#ffffff" stroke="transparent" points="204,-299.7 204,-587.7 415,-587.7 415,-299.7 204,-299.7"/>
<polygon fill="#f5f5f5" stroke="transparent" points="206.5,-562.7 206.5,-585.7 413.5,-585.7 413.5,-562.7 206.5,-562.7"/>
<polygon fill="none" stroke="#000000" points="206.5,-562.7 206.5,-585.7 413.5,-585.7 413.5,-562.7 206.5,-562.7"/>
<text text-anchor="start" x="211.5" y="-571.3" font-family="Helvetica,sans-Serif" font-weight="bold" font-size="11.00" fill="#000000">wms_labor_logs</text>
<text text-anchor="start" x="378.5437" y="-570.8" font-family="Helvetica,sans-Serif" font-size="11.00" fill="#000000">[table]</text>
<polygon fill="none" stroke="#000000" points="206.5,-540.7 206.5,-562.7 321.5,-562.7 321.5,-540.7 206.5,-540.7"/>
<image xlink:href="../../images/primaryKeys.png" width="11px" height="12px" preserveAspectRatio="xMinYMin meet" x="211.5" y="-557.7"/>
<text text-anchor="start" x="226.5" y="-547.8" font-family="Helvetica,sans-Serif" font-size="11.00" fill="#000000">labor_log_id</text>
<polygon fill="none" stroke="#000000" points="321.5,-540.7 321.5,-562.7 413.5,-562.7 413.5,-540.7 321.5,-540.7"/>
<text text-anchor="start" x="324.5" y="-548.4" font-family="Helvetica,sans-Serif" font-size="11.00" fill="#000000">int8[19]</text>
<polygon fill="none" stroke="#000000" points="206.5,-518.7 206.5,-540.7 321.5,-540.7 321.5,-518.7 206.5,-518.7"/>
<image xlink:href="../../images/foreignKeys.png" width="11px" height="12px" preserveAspectRatio="xMinYMin meet" x="211.5" y="-535.7"/>
<text text-anchor="start" x="226.5" y="-525.8" font-family="Helvetica,sans-Serif" font-size="11.00" fill="#000000">warehouse_id</text>
<polygon fill="none" stroke="#000000" points="321.5,-518.7 321.5,-540.7 413.5,-540.7 413.5,-518.7 321.5,-518.7"/>
<text text-anchor="start" x="324.5" y="-526.4" font-family="Helvetica,sans-Serif" font-size="11.00" fill="#000000">int8[19]</text>
<polygon fill="none" stroke="#000000" points="206.5,-496.7 206.5,-518.7 321.5,-518.7 321.5,-496.7 206.5,-496.7"/>
<text text-anchor="start" x="226.5" y="-503.8" font-family="Helvetica,sans-Serif" font-size="11.00" fill="#000000">start_time</text>
<polygon fill="none" stroke="#000000" points="321.5,-496.7 321.5,-518.7 413.5,-518.7 413.5,-496.7 321.5,-496.7"/>
<text text-anchor="start" x="324.1023" y="-504.4" font-family="Helvetica,sans-Serif" font-size="11.00" fill="#000000">timestamptz[35,6]</text>
<polygon fill="none" stroke="#000000" points="206.5,-474.7 206.5,-496.7 321.5,-496.7 321.5,-474.7 206.5,-474.7"/>
<text text-anchor="start" x="226.5" y="-481.8" font-family="Helvetica,sans-Serif" font-size="11.00" fill="#000000">end_time</text>
<polygon fill="none" stroke="#000000" points="321.5,-474.7 321.5,-496.7 413.5,-496.7 413.5,-474.7 321.5,-474.7"/>
<text text-anchor="start" x="324.1023" y="-482.4" font-family="Helvetica,sans-Serif" font-size="11.00" fill="#000000">timestamptz[35,6]</text>
<polygon fill="none" stroke="#000000" points="206.5,-452.7 206.5,-474.7 321.5,-474.7 321.5,-452.7 206.5,-452.7"/>
<text text-anchor="start" x="226.5" y="-459.8" font-family="Helvetica,sans-Serif" font-size="11.00" fill="#000000">hours_worked</text>
<polygon fill="none" stroke="#000000" points="321.5,-452.7 321.5,-474.7 413.5,-474.7 413.5,-452.7 321.5,-452.7"/>
<text text-anchor="start" x="324.5" y="-460.4" font-family="Helvetica,sans-Serif" font-size="11.00" fill="#000000">numeric[10,2]</text>
<polygon fill="none" stroke="#000000" points="206.5,-430.7 206.5,-452.7 321.5,-452.7 321.5,-430.7 206.5,-430.7"/>
<text text-anchor="start" x="226.5" y="-437.8" font-family="Helvetica,sans-Serif" font-size="11.00" fill="#000000">notes</text>
<polygon fill="none" stroke="#000000" points="321.5,-430.7 321.5,-452.7 413.5,-452.7 413.5,-430.7 321.5,-430.7"/>
<text text-anchor="start" x="324.5" y="-438.4" font-family="Helvetica,sans-Serif" font-size="11.00" fill="#000000">text[2147483647]</text>
<polygon fill="none" stroke="#000000" points="206.5,-408.7 206.5,-430.7 321.5,-430.7 321.5,-408.7 206.5,-408.7"/>
<text text-anchor="start" x="226.5" y="-415.8" font-family="Helvetica,sans-Serif" font-size="11.00" fill="#000000">created_at</text>
<polygon fill="none" stroke="#000000" points="321.5,-408.7 321.5,-430.7 413.5,-430.7 413.5,-408.7 321.5,-408.7"/>
<text text-anchor="start" x="324.1023" y="-416.4" font-family="Helvetica,sans-Serif" font-size="11.00" fill="#000000">timestamptz[35,6]</text>
<polygon fill="none" stroke="#000000" points="206.5,-386.7 206.5,-408.7 321.5,-408.7 321.5,-386.7 206.5,-386.7"/>
<image xlink:href="../../images/foreignKeys.png" width="11px" height="12px" preserveAspectRatio="xMinYMin meet" x="211.5" y="-403.7"/>
<text text-anchor="start" x="226.5" y="-393.8" font-family="Helvetica,sans-Serif" font-size="11.00" fill="#000000">user_id</text>
<polygon fill="none" stroke="#000000" points="321.5,-386.7 321.5,-408.7 413.5,-408.7 413.5,-386.7 321.5,-386.7"/>
<text text-anchor="start" x="324.5" y="-394.4" font-family="Helvetica,sans-Serif" font-size="11.00" fill="#000000">int8[19]</text>
<polygon fill="none" stroke="#000000" points="206.5,-364.7 206.5,-386.7 321.5,-386.7 321.5,-364.7 206.5,-364.7"/>
<text text-anchor="start" x="226.5" y="-371.8" font-family="Helvetica,sans-Serif" font-size="11.00" fill="#000000">updated_at</text>
<polygon fill="none" stroke="#000000" points="321.5,-364.7 321.5,-386.7 413.5,-386.7 413.5,-364.7 321.5,-364.7"/>
<text text-anchor="start" x="324.1023" y="-372.4" font-family="Helvetica,sans-Serif" font-size="11.00" fill="#000000">timestamptz[35,6]</text>
<polygon fill="none" stroke="#000000" points="206.5,-342.7 206.5,-364.7 321.5,-364.7 321.5,-342.7 206.5,-342.7"/>
<image xlink:href="../../images/foreignKeys.png" width="11px" height="12px" preserveAspectRatio="xMinYMin meet" x="211.5" y="-359.7"/>
<text text-anchor="start" x="226.5" y="-349.8" font-family="Helvetica,sans-Serif" font-size="11.00" fill="#000000">created_by</text>
<polygon fill="none" stroke="#000000" points="321.5,-342.7 321.5,-364.7 413.5,-364.7 413.5,-342.7 321.5,-342.7"/>
<text text-anchor="start" x="324.5" y="-350.4" font-family="Helvetica,sans-Serif" font-size="11.00" fill="#000000">int8[19]</text>
<polygon fill="none" stroke="#000000" points="206.5,-320.7 206.5,-342.7 321.5,-342.7 321.5,-320.7 206.5,-320.7"/>
<image xlink:href="../../images/foreignKeys.png" width="11px" height="12px" preserveAspectRatio="xMinYMin meet" x="211.5" y="-337.7"/>
<text text-anchor="start" x="226.5" y="-327.8" font-family="Helvetica,sans-Serif" font-size="11.00" fill="#000000">updated_by</text>
<polygon fill="none" stroke="#000000" points="321.5,-320.7 321.5,-342.7 413.5,-342.7 413.5,-320.7 321.5,-320.7"/>
<text text-anchor="start" x="324.5" y="-328.4" font-family="Helvetica,sans-Serif" font-size="11.00" fill="#000000">int8[19]</text>
<polygon fill="#ffffff" stroke="transparent" points="206.5,-301.7 206.5,-320.7 268.5,-320.7 268.5,-301.7 206.5,-301.7"/>
<polygon fill="none" stroke="#000000" points="206.5,-301.7 206.5,-320.7 268.5,-320.7 268.5,-301.7 206.5,-301.7"/>
<text text-anchor="start" x="209.5" y="-307.8" font-family="Helvetica,sans-Serif" font-size="11.00" fill="#000000">&lt; 4</text>
<polygon fill="#ffffff" stroke="transparent" points="268.5,-301.7 268.5,-320.7 321.5,-320.7 321.5,-301.7 268.5,-301.7"/>
<polygon fill="none" stroke="#000000" points="268.5,-301.7 268.5,-320.7 321.5,-320.7 321.5,-301.7 268.5,-301.7"/>
<text text-anchor="start" x="312.3862" y="-307.8" font-family="Helvetica,sans-Serif" font-size="11.00" fill="#000000"> &#160;</text>
<polygon fill="#ffffff" stroke="transparent" points="321.5,-301.7 321.5,-320.7 413.5,-320.7 413.5,-301.7 321.5,-301.7"/>
<polygon fill="none" stroke="#000000" points="321.5,-301.7 321.5,-320.7 413.5,-320.7 413.5,-301.7 321.5,-301.7"/>
<text text-anchor="start" x="394.9053" y="-307.8" font-family="Helvetica,sans-Serif" font-size="11.00" fill="#000000">0 &gt;</text>
<polygon fill="none" stroke="#000000" stroke-width="2" points="205,-300.7 205,-586.7 414,-586.7 414,-300.7 205,-300.7"/>
</a>
</g>
</g>
<!-- wms_labor_logs&#45;&gt;public.users -->
<g id="edge18" class="edge">
<title>wms_labor_logs:w&#45;&gt;public.users:e</title>
<path fill="none" stroke="#000000" d="M191.9157,-352.3261C128.2335,-340.0573 99.1913,-248.567 87.7943,-197.2887"/>
<polygon fill="#000000" stroke="#000000" points="198.5353,-352.9496 206.1623,-357.2841 202.5176,-353.3248 206.5,-353.7 206.5,-353.7 206.5,-353.7 202.5176,-353.3248 206.8377,-350.1159 198.5353,-352.9496 198.5353,-352.9496"/>
<ellipse fill="none" stroke="#000000" cx="195.3494" cy="-352.6495" rx="3.2" ry="3.2"/>
</g>
<!-- wms_labor_logs&#45;&gt;public.users -->
<g id="edge19" class="edge">
<title>wms_labor_logs:w&#45;&gt;public.users:e</title>
<path fill="none" stroke="#000000" d="M191.9003,-330.2746C135.0269,-318.9645 103.9851,-242.9845 90.2686,-197.3075"/>
<polygon fill="#000000" stroke="#000000" points="198.5379,-330.9226 206.1502,-335.283 202.5189,-331.3113 206.5,-331.7 206.5,-331.7 206.5,-331.7 202.5189,-331.3113 206.8498,-328.117 198.5379,-330.9226 198.5379,-330.9226"/>
<ellipse fill="none" stroke="#000000" cx="195.353" cy="-330.6116" rx="3.2" ry="3.2"/>
</g>
<!-- wms_labor_logs&#45;&gt;public.users -->
<g id="edge20" class="edge">
<title>wms_labor_logs:w&#45;&gt;public.users:e</title>
<path fill="none" stroke="#000000" d="M191.8751,-396.4383C114.014,-382.6353 90.8875,-259.0417 84.169,-197.3751"/>
<polygon fill="#000000" stroke="#000000" points="198.5296,-397.0123 206.1906,-401.2867 202.5148,-397.3562 206.5,-397.7 206.5,-397.7 206.5,-397.7 202.5148,-397.3562 206.8094,-394.1133 198.5296,-397.0123 198.5296,-397.0123"/>
<ellipse fill="none" stroke="#000000" cx="195.3414" cy="-396.7373" rx="3.2" ry="3.2"/>
</g>
<!-- wms_labor_logs&#45;&gt;public.warehouses -->
<g id="edge21" class="edge">
<title>wms_labor_logs:w&#45;&gt;public.warehouses:e</title>
<path fill="none" stroke="#000000" d="M191.8068,-529.7C182.3266,-529.7 172.6639,-529.7 163.1956,-529.7"/>
<polygon fill="#000000" stroke="#000000" points="198.5,-529.7001 206.5,-533.3 202.5,-529.7 206.5,-529.7 206.5,-529.7 206.5,-529.7 202.5,-529.7 206.5,-526.1 198.5,-529.7001 198.5,-529.7001"/>
<ellipse fill="none" stroke="#000000" cx="195.3" cy="-529.7001" rx="3.2" ry="3.2"/>
</g>
</g>
</svg>
