<?xml version="1.0" encoding="UTF-8" standalone="no"?>
<!DOCTYPE svg PUBLIC "-//W3C//DTD SVG 1.1//EN"
 "http://www.w3.org/Graphics/SVG/1.1/DTD/svg11.dtd">
<!-- Generated by graphviz version 2.40.1 (20161225.0304)
 -->
<!-- Title: oneDegreeRelationshipsDiagram Pages: 1 -->
<svg width="431pt" height="338pt"
 viewBox="0.00 0.00 431.00 338.20" xmlns="http://www.w3.org/2000/svg" xmlns:xlink="http://www.w3.org/1999/xlink">
<g id="graph0" class="graph" transform="scale(1 1) rotate(0) translate(4 334.2)">
<title>oneDegreeRelationshipsDiagram</title>
<polygon fill="#ffffff" stroke="transparent" points="-4,4 -4,-334.2 427,-334.2 427,4 -4,4"/>
<text text-anchor="middle" x="72.4936" y="-7.3" font-family="Helvetica,sans-Serif" font-size="11.00" fill="#000000">Generated by SchemaSpy</text>
<!-- wms_labor_logs -->
<g id="node1" class="node">
<title>wms_labor_logs</title>
<g id="a_node1"><a xlink:href="../../tables/wms_labor_logs.html" xlink:title="wms_labor_logs" target="_top">
<polygon fill="#ffffff" stroke="transparent" points="204,-38.2 204,-326.2 415,-326.2 415,-38.2 204,-38.2"/>
<polygon fill="#f5f5f5" stroke="transparent" points="206.5,-301.2 206.5,-324.2 413.5,-324.2 413.5,-301.2 206.5,-301.2"/>
<polygon fill="none" stroke="#000000" points="206.5,-301.2 206.5,-324.2 413.5,-324.2 413.5,-301.2 206.5,-301.2"/>
<text text-anchor="start" x="211.5" y="-309.8" font-family="Helvetica,sans-Serif" font-weight="bold" font-size="11.00" fill="#000000">wms_labor_logs</text>
<text text-anchor="start" x="378.5437" y="-309.3" font-family="Helvetica,sans-Serif" font-size="11.00" fill="#000000">[table]</text>
<polygon fill="none" stroke="#000000" points="206.5,-279.2 206.5,-301.2 321.5,-301.2 321.5,-279.2 206.5,-279.2"/>
<image xlink:href="../../images/primaryKeys.png" width="11px" height="12px" preserveAspectRatio="xMinYMin meet" x="211.5" y="-296.2"/>
<text text-anchor="start" x="226.5" y="-286.3" font-family="Helvetica,sans-Serif" font-size="11.00" fill="#000000">labor_log_id</text>
<polygon fill="none" stroke="#000000" points="321.5,-279.2 321.5,-301.2 413.5,-301.2 413.5,-279.2 321.5,-279.2"/>
<text text-anchor="start" x="324.5" y="-286.9" font-family="Helvetica,sans-Serif" font-size="11.00" fill="#000000">int8[19]</text>
<polygon fill="none" stroke="#000000" points="206.5,-257.2 206.5,-279.2 321.5,-279.2 321.5,-257.2 206.5,-257.2"/>
<image xlink:href="../../images/foreignKeys.png" width="11px" height="12px" preserveAspectRatio="xMinYMin meet" x="211.5" y="-274.2"/>
<text text-anchor="start" x="226.5" y="-264.3" font-family="Helvetica,sans-Serif" font-size="11.00" fill="#000000">warehouse_id</text>
<polygon fill="none" stroke="#000000" points="321.5,-257.2 321.5,-279.2 413.5,-279.2 413.5,-257.2 321.5,-257.2"/>
<text text-anchor="start" x="324.5" y="-264.9" font-family="Helvetica,sans-Serif" font-size="11.00" fill="#000000">int8[19]</text>
<polygon fill="none" stroke="#000000" points="206.5,-235.2 206.5,-257.2 321.5,-257.2 321.5,-235.2 206.5,-235.2"/>
<text text-anchor="start" x="226.5" y="-242.3" font-family="Helvetica,sans-Serif" font-size="11.00" fill="#000000">start_time</text>
<polygon fill="none" stroke="#000000" points="321.5,-235.2 321.5,-257.2 413.5,-257.2 413.5,-235.2 321.5,-235.2"/>
<text text-anchor="start" x="324.1023" y="-242.9" font-family="Helvetica,sans-Serif" font-size="11.00" fill="#000000">timestamptz[35,6]</text>
<polygon fill="none" stroke="#000000" points="206.5,-213.2 206.5,-235.2 321.5,-235.2 321.5,-213.2 206.5,-213.2"/>
<text text-anchor="start" x="226.5" y="-220.3" font-family="Helvetica,sans-Serif" font-size="11.00" fill="#000000">end_time</text>
<polygon fill="none" stroke="#000000" points="321.5,-213.2 321.5,-235.2 413.5,-235.2 413.5,-213.2 321.5,-213.2"/>
<text text-anchor="start" x="324.1023" y="-220.9" font-family="Helvetica,sans-Serif" font-size="11.00" fill="#000000">timestamptz[35,6]</text>
<polygon fill="none" stroke="#000000" points="206.5,-191.2 206.5,-213.2 321.5,-213.2 321.5,-191.2 206.5,-191.2"/>
<text text-anchor="start" x="226.5" y="-198.3" font-family="Helvetica,sans-Serif" font-size="11.00" fill="#000000">hours_worked</text>
<polygon fill="none" stroke="#000000" points="321.5,-191.2 321.5,-213.2 413.5,-213.2 413.5,-191.2 321.5,-191.2"/>
<text text-anchor="start" x="324.5" y="-198.9" font-family="Helvetica,sans-Serif" font-size="11.00" fill="#000000">numeric[10,2]</text>
<polygon fill="none" stroke="#000000" points="206.5,-169.2 206.5,-191.2 321.5,-191.2 321.5,-169.2 206.5,-169.2"/>
<text text-anchor="start" x="226.5" y="-176.3" font-family="Helvetica,sans-Serif" font-size="11.00" fill="#000000">notes</text>
<polygon fill="none" stroke="#000000" points="321.5,-169.2 321.5,-191.2 413.5,-191.2 413.5,-169.2 321.5,-169.2"/>
<text text-anchor="start" x="324.5" y="-176.9" font-family="Helvetica,sans-Serif" font-size="11.00" fill="#000000">text[2147483647]</text>
<polygon fill="none" stroke="#000000" points="206.5,-147.2 206.5,-169.2 321.5,-169.2 321.5,-147.2 206.5,-147.2"/>
<text text-anchor="start" x="226.5" y="-154.3" font-family="Helvetica,sans-Serif" font-size="11.00" fill="#000000">created_at</text>
<polygon fill="none" stroke="#000000" points="321.5,-147.2 321.5,-169.2 413.5,-169.2 413.5,-147.2 321.5,-147.2"/>
<text text-anchor="start" x="324.1023" y="-154.9" font-family="Helvetica,sans-Serif" font-size="11.00" fill="#000000">timestamptz[35,6]</text>
<polygon fill="none" stroke="#000000" points="206.5,-125.2 206.5,-147.2 321.5,-147.2 321.5,-125.2 206.5,-125.2"/>
<image xlink:href="../../images/foreignKeys.png" width="11px" height="12px" preserveAspectRatio="xMinYMin meet" x="211.5" y="-142.2"/>
<text text-anchor="start" x="226.5" y="-132.3" font-family="Helvetica,sans-Serif" font-size="11.00" fill="#000000">user_id</text>
<polygon fill="none" stroke="#000000" points="321.5,-125.2 321.5,-147.2 413.5,-147.2 413.5,-125.2 321.5,-125.2"/>
<text text-anchor="start" x="324.5" y="-132.9" font-family="Helvetica,sans-Serif" font-size="11.00" fill="#000000">int8[19]</text>
<polygon fill="none" stroke="#000000" points="206.5,-103.2 206.5,-125.2 321.5,-125.2 321.5,-103.2 206.5,-103.2"/>
<text text-anchor="start" x="226.5" y="-110.3" font-family="Helvetica,sans-Serif" font-size="11.00" fill="#000000">updated_at</text>
<polygon fill="none" stroke="#000000" points="321.5,-103.2 321.5,-125.2 413.5,-125.2 413.5,-103.2 321.5,-103.2"/>
<text text-anchor="start" x="324.1023" y="-110.9" font-family="Helvetica,sans-Serif" font-size="11.00" fill="#000000">timestamptz[35,6]</text>
<polygon fill="none" stroke="#000000" points="206.5,-81.2 206.5,-103.2 321.5,-103.2 321.5,-81.2 206.5,-81.2"/>
<image xlink:href="../../images/foreignKeys.png" width="11px" height="12px" preserveAspectRatio="xMinYMin meet" x="211.5" y="-98.2"/>
<text text-anchor="start" x="226.5" y="-88.3" font-family="Helvetica,sans-Serif" font-size="11.00" fill="#000000">created_by</text>
<polygon fill="none" stroke="#000000" points="321.5,-81.2 321.5,-103.2 413.5,-103.2 413.5,-81.2 321.5,-81.2"/>
<text text-anchor="start" x="324.5" y="-88.9" font-family="Helvetica,sans-Serif" font-size="11.00" fill="#000000">int8[19]</text>
<polygon fill="none" stroke="#000000" points="206.5,-59.2 206.5,-81.2 321.5,-81.2 321.5,-59.2 206.5,-59.2"/>
<image xlink:href="../../images/foreignKeys.png" width="11px" height="12px" preserveAspectRatio="xMinYMin meet" x="211.5" y="-76.2"/>
<text text-anchor="start" x="226.5" y="-66.3" font-family="Helvetica,sans-Serif" font-size="11.00" fill="#000000">updated_by</text>
<polygon fill="none" stroke="#000000" points="321.5,-59.2 321.5,-81.2 413.5,-81.2 413.5,-59.2 321.5,-59.2"/>
<text text-anchor="start" x="324.5" y="-66.9" font-family="Helvetica,sans-Serif" font-size="11.00" fill="#000000">int8[19]</text>
<polygon fill="#ffffff" stroke="transparent" points="206.5,-40.2 206.5,-59.2 268.5,-59.2 268.5,-40.2 206.5,-40.2"/>
<polygon fill="none" stroke="#000000" points="206.5,-40.2 206.5,-59.2 268.5,-59.2 268.5,-40.2 206.5,-40.2"/>
<text text-anchor="start" x="209.5" y="-46.3" font-family="Helvetica,sans-Serif" font-size="11.00" fill="#000000">&lt; 4</text>
<polygon fill="#ffffff" stroke="transparent" points="268.5,-40.2 268.5,-59.2 321.5,-59.2 321.5,-40.2 268.5,-40.2"/>
<polygon fill="none" stroke="#000000" points="268.5,-40.2 268.5,-59.2 321.5,-59.2 321.5,-40.2 268.5,-40.2"/>
<text text-anchor="start" x="312.3862" y="-46.3" font-family="Helvetica,sans-Serif" font-size="11.00" fill="#000000"> &#160;</text>
<polygon fill="#ffffff" stroke="transparent" points="321.5,-40.2 321.5,-59.2 413.5,-59.2 413.5,-40.2 321.5,-40.2"/>
<polygon fill="none" stroke="#000000" points="321.5,-40.2 321.5,-59.2 413.5,-59.2 413.5,-40.2 321.5,-40.2"/>
<text text-anchor="start" x="394.9053" y="-46.3" font-family="Helvetica,sans-Serif" font-size="11.00" fill="#000000">0 &gt;</text>
<polygon fill="none" stroke="#000000" stroke-width="2" points="205,-39.2 205,-325.2 414,-325.2 414,-39.2 205,-39.2"/>
</a>
</g>
</g>
<!-- public.users -->
<g id="node2" class="node">
<title>public.users</title>
<g id="a_node2"><a xlink:href="../../../public/tables/users.html" xlink:title="public.users" target="_top">
<polygon fill="#ffffff" stroke="transparent" points="27,-61.7 27,-122.7 136,-122.7 136,-61.7 27,-61.7"/>
<polygon fill="#f5f5f5" stroke="transparent" points="27.5,-99.2 27.5,-122.2 136.5,-122.2 136.5,-99.2 27.5,-99.2"/>
<polygon fill="none" stroke="#000000" points="27.5,-99.2 27.5,-122.2 136.5,-122.2 136.5,-99.2 27.5,-99.2"/>
<text text-anchor="start" x="32.5" y="-107.8" font-family="Helvetica,sans-Serif" font-weight="bold" font-size="11.00" fill="#000000">public.users</text>
<text text-anchor="start" x="102.0219" y="-107.3" font-family="Helvetica,sans-Serif" font-size="11.00" fill="#000000">[table]</text>
<polygon fill="none" stroke="#000000" points="27.5,-80.2 27.5,-99.2 136.5,-99.2 136.5,-80.2 27.5,-80.2"/>
<text text-anchor="start" x="30.5" y="-86.3" font-family="Helvetica,sans-Serif" font-size="11.00" fill="#000000">...</text>
<polygon fill="#ffffff" stroke="transparent" points="27.5,-61.2 27.5,-80.2 55.5,-80.2 55.5,-61.2 27.5,-61.2"/>
<polygon fill="none" stroke="#000000" points="27.5,-61.2 27.5,-80.2 55.5,-80.2 55.5,-61.2 27.5,-61.2"/>
<text text-anchor="start" x="30.5" y="-67.3" font-family="Helvetica,sans-Serif" font-size="11.00" fill="#000000"> &#160;</text>
<polygon fill="#ffffff" stroke="transparent" points="55.5,-61.2 55.5,-80.2 101.5,-80.2 101.5,-61.2 55.5,-61.2"/>
<polygon fill="none" stroke="#000000" points="55.5,-61.2 55.5,-80.2 101.5,-80.2 101.5,-61.2 55.5,-61.2"/>
<text text-anchor="start" x="66.1105" y="-67.3" font-family="Helvetica,sans-Serif" font-size="11.00" fill="#000000">0 rows</text>
<polygon fill="#ffffff" stroke="transparent" points="101.5,-61.2 101.5,-80.2 136.5,-80.2 136.5,-61.2 101.5,-61.2"/>
<polygon fill="none" stroke="#000000" points="101.5,-61.2 101.5,-80.2 136.5,-80.2 136.5,-61.2 101.5,-61.2"/>
<text text-anchor="start" x="111.7904" y="-67.3" font-family="Helvetica,sans-Serif" font-size="11.00" fill="#000000">13 &gt;</text>
</a>
</g>
</g>
<!-- wms_labor_logs&#45;&gt;public.users -->
<g id="edge1" class="edge">
<title>wms_labor_logs:w&#45;&gt;public.users:e</title>
<path fill="none" stroke="#000000" d="M191.98,-92.2C175.9507,-92.2 159.3931,-92.2 144.1295,-92.2"/>
<polygon fill="#000000" stroke="#000000" points="198.5,-92.2001 206.5,-95.8 202.5,-92.2 206.5,-92.2 206.5,-92.2 206.5,-92.2 202.5,-92.2 206.5,-88.6 198.5,-92.2001 198.5,-92.2001"/>
<ellipse fill="none" stroke="#000000" cx="195.3" cy="-92.2001" rx="3.2" ry="3.2"/>
</g>
<!-- wms_labor_logs&#45;&gt;public.users -->
<g id="edge2" class="edge">
<title>wms_labor_logs:w&#45;&gt;public.users:e</title>
<path fill="none" stroke="#000000" d="M191.8762,-70.6513C175.7725,-71.6046 159.2586,-73.97 144.0722,-76.8007"/>
<polygon fill="#000000" stroke="#000000" points="198.5038,-70.4468 206.6111,-73.7983 202.5019,-70.3234 206.5,-70.2 206.5,-70.2 206.5,-70.2 202.5019,-70.3234 206.3889,-66.6017 198.5038,-70.4468 198.5038,-70.4468"/>
<ellipse fill="none" stroke="#000000" cx="195.3053" cy="-70.5456" rx="3.2" ry="3.2"/>
</g>
<!-- wms_labor_logs&#45;&gt;public.users -->
<g id="edge3" class="edge">
<title>wms_labor_logs:w&#45;&gt;public.users:e</title>
<path fill="none" stroke="#000000" d="M191.6717,-135.3347C175.4543,-133.5056 159.1555,-128.9605 144.2531,-123.4734"/>
<polygon fill="#000000" stroke="#000000" points="198.5136,-135.7339 206.2902,-139.7939 202.5068,-135.9669 206.5,-136.2 206.5,-136.2 206.5,-136.2 202.5068,-135.9669 206.7098,-132.6061 198.5136,-135.7339 198.5136,-135.7339"/>
<ellipse fill="none" stroke="#000000" cx="195.319" cy="-135.5474" rx="3.2" ry="3.2"/>
</g>
<!-- public.warehouses -->
<g id="node3" class="node">
<title>public.warehouses</title>
<g id="a_node3"><a xlink:href="../../../public/tables/warehouses.html" xlink:title="public.warehouses" target="_top">
<polygon fill="#ffffff" stroke="transparent" points="8,-237.7 8,-298.7 155,-298.7 155,-237.7 8,-237.7"/>
<polygon fill="#f5f5f5" stroke="transparent" points="8.5,-275.2 8.5,-298.2 155.5,-298.2 155.5,-275.2 8.5,-275.2"/>
<polygon fill="none" stroke="#000000" points="8.5,-275.2 8.5,-298.2 155.5,-298.2 155.5,-275.2 8.5,-275.2"/>
<text text-anchor="start" x="13.5" y="-283.8" font-family="Helvetica,sans-Serif" font-weight="bold" font-size="11.00" fill="#000000">public.warehouses</text>
<text text-anchor="start" x="121.0219" y="-283.3" font-family="Helvetica,sans-Serif" font-size="11.00" fill="#000000">[table]</text>
<polygon fill="none" stroke="#000000" points="8.5,-256.2 8.5,-275.2 155.5,-275.2 155.5,-256.2 8.5,-256.2"/>
<text text-anchor="start" x="11.5" y="-262.3" font-family="Helvetica,sans-Serif" font-size="11.00" fill="#000000">...</text>
<polygon fill="#ffffff" stroke="transparent" points="8.5,-237.2 8.5,-256.2 58.5,-256.2 58.5,-237.2 8.5,-237.2"/>
<polygon fill="none" stroke="#000000" points="8.5,-237.2 8.5,-256.2 58.5,-256.2 58.5,-237.2 8.5,-237.2"/>
<text text-anchor="start" x="11.5" y="-243.3" font-family="Helvetica,sans-Serif" font-size="11.00" fill="#000000"> &#160;</text>
<polygon fill="#ffffff" stroke="transparent" points="58.5,-237.2 58.5,-256.2 115.5,-256.2 115.5,-237.2 58.5,-237.2"/>
<polygon fill="none" stroke="#000000" points="58.5,-237.2 58.5,-256.2 115.5,-256.2 115.5,-237.2 58.5,-237.2"/>
<text text-anchor="start" x="80.1105" y="-243.3" font-family="Helvetica,sans-Serif" font-size="11.00" fill="#000000">0 rows</text>
<polygon fill="#ffffff" stroke="transparent" points="115.5,-237.2 115.5,-256.2 155.5,-256.2 155.5,-237.2 115.5,-237.2"/>
<polygon fill="none" stroke="#000000" points="115.5,-237.2 115.5,-256.2 155.5,-256.2 155.5,-237.2 115.5,-237.2"/>
<text text-anchor="start" x="136.9053" y="-243.3" font-family="Helvetica,sans-Serif" font-size="11.00" fill="#000000">5 &gt;</text>
</a>
</g>
</g>
<!-- wms_labor_logs&#45;&gt;public.warehouses -->
<g id="edge4" class="edge">
<title>wms_labor_logs:w&#45;&gt;public.warehouses:e</title>
<path fill="none" stroke="#000000" d="M191.8068,-268.2C182.3266,-268.2 172.6639,-268.2 163.1956,-268.2"/>
<polygon fill="#000000" stroke="#000000" points="198.5,-268.2001 206.5,-271.8 202.5,-268.2 206.5,-268.2 206.5,-268.2 206.5,-268.2 202.5,-268.2 206.5,-264.6 198.5,-268.2001 198.5,-268.2001"/>
<ellipse fill="none" stroke="#000000" cx="195.3" cy="-268.2001" rx="3.2" ry="3.2"/>
</g>
</g>
</svg>
