<?xml version="1.0" encoding="UTF-8" standalone="no"?>
<!DOCTYPE svg PUBLIC "-//W3C//DTD SVG 1.1//EN"
 "http://www.w3.org/Graphics/SVG/1.1/DTD/svg11.dtd">
<!-- Generated by graphviz version 2.40.1 (20161225.0304)
 -->
<!-- Title: twoDegreesRelationshipsDiagram Pages: 1 -->
<svg width="515pt" height="591pt"
 viewBox="0.00 0.00 515.00 590.70" xmlns="http://www.w3.org/2000/svg" xmlns:xlink="http://www.w3.org/1999/xlink">
<g id="graph0" class="graph" transform="scale(1 1) rotate(0) translate(4 586.7)">
<title>twoDegreesRelationshipsDiagram</title>
<polygon fill="#ffffff" stroke="transparent" points="-4,4 -4,-586.7 511,-586.7 511,4 -4,4"/>
<text text-anchor="middle" x="72.4936" y="-7.3" font-family="Helvetica,sans-Serif" font-size="11.00" fill="#000000">Generated by SchemaSpy</text>
<!-- delivery_appointments -->
<g id="node1" class="node">
<title>delivery_appointments</title>
<g id="a_node1"><a xlink:href="../../tables/delivery_appointments.html" xlink:title="delivery_appointments" target="_top">
<polygon fill="#ffffff" stroke="transparent" points="244,-202.7 244,-578.7 499,-578.7 499,-202.7 244,-202.7"/>
<polygon fill="#f5f5f5" stroke="transparent" points="246.5,-553.7 246.5,-576.7 497.5,-576.7 497.5,-553.7 246.5,-553.7"/>
<polygon fill="none" stroke="#000000" points="246.5,-553.7 246.5,-576.7 497.5,-576.7 497.5,-553.7 246.5,-553.7"/>
<text text-anchor="start" x="251.5" y="-562.3" font-family="Helvetica,sans-Serif" font-weight="bold" font-size="11.00" fill="#000000">delivery_appointments</text>
<text text-anchor="start" x="462.5437" y="-561.8" font-family="Helvetica,sans-Serif" font-size="11.00" fill="#000000">[table]</text>
<polygon fill="none" stroke="#000000" points="246.5,-531.7 246.5,-553.7 405.5,-553.7 405.5,-531.7 246.5,-531.7"/>
<image xlink:href="../../images/primaryKeys.png" width="11px" height="12px" preserveAspectRatio="xMinYMin meet" x="251.5" y="-548.7"/>
<text text-anchor="start" x="266.5" y="-538.8" font-family="Helvetica,sans-Serif" font-size="11.00" fill="#000000">appointment_id</text>
<polygon fill="none" stroke="#000000" points="405.5,-531.7 405.5,-553.7 497.5,-553.7 497.5,-531.7 405.5,-531.7"/>
<text text-anchor="start" x="408.5" y="-539.4" font-family="Helvetica,sans-Serif" font-size="11.00" fill="#000000">int8[19]</text>
<polygon fill="none" stroke="#000000" points="246.5,-509.7 246.5,-531.7 405.5,-531.7 405.5,-509.7 246.5,-509.7"/>
<image xlink:href="../../images/foreignKeys.png" width="11px" height="12px" preserveAspectRatio="xMinYMin meet" x="251.5" y="-526.7"/>
<text text-anchor="start" x="266.5" y="-516.8" font-family="Helvetica,sans-Serif" font-size="11.00" fill="#000000">order_id</text>
<polygon fill="none" stroke="#000000" points="405.5,-509.7 405.5,-531.7 497.5,-531.7 497.5,-509.7 405.5,-509.7"/>
<text text-anchor="start" x="408.5" y="-517.4" font-family="Helvetica,sans-Serif" font-size="11.00" fill="#000000">int8[19]</text>
<polygon fill="none" stroke="#000000" points="246.5,-487.7 246.5,-509.7 405.5,-509.7 405.5,-487.7 246.5,-487.7"/>
<image xlink:href="../../images/foreignKeys.png" width="11px" height="12px" preserveAspectRatio="xMinYMin meet" x="251.5" y="-504.7"/>
<text text-anchor="start" x="266.5" y="-494.8" font-family="Helvetica,sans-Serif" font-size="11.00" fill="#000000">location_id</text>
<polygon fill="none" stroke="#000000" points="405.5,-487.7 405.5,-509.7 497.5,-509.7 497.5,-487.7 405.5,-487.7"/>
<text text-anchor="start" x="408.5" y="-495.4" font-family="Helvetica,sans-Serif" font-size="11.00" fill="#000000">int8[19]</text>
<polygon fill="none" stroke="#000000" points="246.5,-465.7 246.5,-487.7 405.5,-487.7 405.5,-465.7 246.5,-465.7"/>
<image xlink:href="../../images/foreignKeys.png" width="11px" height="12px" preserveAspectRatio="xMinYMin meet" x="251.5" y="-482.7"/>
<text text-anchor="start" x="266.5" y="-472.8" font-family="Helvetica,sans-Serif" font-size="11.00" fill="#000000">appointment_type_code</text>
<polygon fill="none" stroke="#000000" points="405.5,-465.7 405.5,-487.7 497.5,-487.7 497.5,-465.7 405.5,-465.7"/>
<text text-anchor="start" x="408.5" y="-473.4" font-family="Helvetica,sans-Serif" font-size="11.00" fill="#000000">varchar[50]</text>
<polygon fill="none" stroke="#000000" points="246.5,-443.7 246.5,-465.7 405.5,-465.7 405.5,-443.7 246.5,-443.7"/>
<text text-anchor="start" x="266.5" y="-450.8" font-family="Helvetica,sans-Serif" font-size="11.00" fill="#000000">requested_start</text>
<polygon fill="none" stroke="#000000" points="405.5,-443.7 405.5,-465.7 497.5,-465.7 497.5,-443.7 405.5,-443.7"/>
<text text-anchor="start" x="408.1023" y="-451.4" font-family="Helvetica,sans-Serif" font-size="11.00" fill="#000000">timestamptz[35,6]</text>
<polygon fill="none" stroke="#000000" points="246.5,-421.7 246.5,-443.7 405.5,-443.7 405.5,-421.7 246.5,-421.7"/>
<text text-anchor="start" x="266.5" y="-428.8" font-family="Helvetica,sans-Serif" font-size="11.00" fill="#000000">requested_end</text>
<polygon fill="none" stroke="#000000" points="405.5,-421.7 405.5,-443.7 497.5,-443.7 497.5,-421.7 405.5,-421.7"/>
<text text-anchor="start" x="408.1023" y="-429.4" font-family="Helvetica,sans-Serif" font-size="11.00" fill="#000000">timestamptz[35,6]</text>
<polygon fill="none" stroke="#000000" points="246.5,-399.7 246.5,-421.7 405.5,-421.7 405.5,-399.7 246.5,-399.7"/>
<text text-anchor="start" x="266.5" y="-406.8" font-family="Helvetica,sans-Serif" font-size="11.00" fill="#000000">confirmed_start</text>
<polygon fill="none" stroke="#000000" points="405.5,-399.7 405.5,-421.7 497.5,-421.7 497.5,-399.7 405.5,-399.7"/>
<text text-anchor="start" x="408.1023" y="-407.4" font-family="Helvetica,sans-Serif" font-size="11.00" fill="#000000">timestamptz[35,6]</text>
<polygon fill="none" stroke="#000000" points="246.5,-377.7 246.5,-399.7 405.5,-399.7 405.5,-377.7 246.5,-377.7"/>
<text text-anchor="start" x="266.5" y="-384.8" font-family="Helvetica,sans-Serif" font-size="11.00" fill="#000000">confirmed_end</text>
<polygon fill="none" stroke="#000000" points="405.5,-377.7 405.5,-399.7 497.5,-399.7 497.5,-377.7 405.5,-377.7"/>
<text text-anchor="start" x="408.1023" y="-385.4" font-family="Helvetica,sans-Serif" font-size="11.00" fill="#000000">timestamptz[35,6]</text>
<polygon fill="none" stroke="#000000" points="246.5,-355.7 246.5,-377.7 405.5,-377.7 405.5,-355.7 246.5,-355.7"/>
<text text-anchor="start" x="266.5" y="-362.8" font-family="Helvetica,sans-Serif" font-size="11.00" fill="#000000">status</text>
<polygon fill="none" stroke="#000000" points="405.5,-355.7 405.5,-377.7 497.5,-377.7 497.5,-355.7 405.5,-355.7"/>
<text text-anchor="start" x="408.5" y="-363.4" font-family="Helvetica,sans-Serif" font-size="11.00" fill="#000000">varchar[50]</text>
<polygon fill="none" stroke="#000000" points="246.5,-333.7 246.5,-355.7 405.5,-355.7 405.5,-333.7 246.5,-333.7"/>
<text text-anchor="start" x="266.5" y="-340.8" font-family="Helvetica,sans-Serif" font-size="11.00" fill="#000000">reference_number</text>
<polygon fill="none" stroke="#000000" points="405.5,-333.7 405.5,-355.7 497.5,-355.7 497.5,-333.7 405.5,-333.7"/>
<text text-anchor="start" x="408.5" y="-341.4" font-family="Helvetica,sans-Serif" font-size="11.00" fill="#000000">varchar[100]</text>
<polygon fill="none" stroke="#000000" points="246.5,-311.7 246.5,-333.7 405.5,-333.7 405.5,-311.7 246.5,-311.7"/>
<text text-anchor="start" x="266.5" y="-318.8" font-family="Helvetica,sans-Serif" font-size="11.00" fill="#000000">notes</text>
<polygon fill="none" stroke="#000000" points="405.5,-311.7 405.5,-333.7 497.5,-333.7 497.5,-311.7 405.5,-311.7"/>
<text text-anchor="start" x="408.5" y="-319.4" font-family="Helvetica,sans-Serif" font-size="11.00" fill="#000000">text[2147483647]</text>
<polygon fill="none" stroke="#000000" points="246.5,-289.7 246.5,-311.7 405.5,-311.7 405.5,-289.7 246.5,-289.7"/>
<text text-anchor="start" x="266.5" y="-296.8" font-family="Helvetica,sans-Serif" font-size="11.00" fill="#000000">created_at</text>
<polygon fill="none" stroke="#000000" points="405.5,-289.7 405.5,-311.7 497.5,-311.7 497.5,-289.7 405.5,-289.7"/>
<text text-anchor="start" x="408.1023" y="-297.4" font-family="Helvetica,sans-Serif" font-size="11.00" fill="#000000">timestamptz[35,6]</text>
<polygon fill="none" stroke="#000000" points="246.5,-267.7 246.5,-289.7 405.5,-289.7 405.5,-267.7 246.5,-267.7"/>
<text text-anchor="start" x="266.5" y="-274.8" font-family="Helvetica,sans-Serif" font-size="11.00" fill="#000000">updated_at</text>
<polygon fill="none" stroke="#000000" points="405.5,-267.7 405.5,-289.7 497.5,-289.7 497.5,-267.7 405.5,-267.7"/>
<text text-anchor="start" x="408.1023" y="-275.4" font-family="Helvetica,sans-Serif" font-size="11.00" fill="#000000">timestamptz[35,6]</text>
<polygon fill="none" stroke="#000000" points="246.5,-245.7 246.5,-267.7 405.5,-267.7 405.5,-245.7 246.5,-245.7"/>
<image xlink:href="../../images/foreignKeys.png" width="11px" height="12px" preserveAspectRatio="xMinYMin meet" x="251.5" y="-262.7"/>
<text text-anchor="start" x="266.5" y="-252.8" font-family="Helvetica,sans-Serif" font-size="11.00" fill="#000000">created_by</text>
<polygon fill="none" stroke="#000000" points="405.5,-245.7 405.5,-267.7 497.5,-267.7 497.5,-245.7 405.5,-245.7"/>
<text text-anchor="start" x="408.5" y="-253.4" font-family="Helvetica,sans-Serif" font-size="11.00" fill="#000000">int8[19]</text>
<polygon fill="none" stroke="#000000" points="246.5,-223.7 246.5,-245.7 405.5,-245.7 405.5,-223.7 246.5,-223.7"/>
<image xlink:href="../../images/foreignKeys.png" width="11px" height="12px" preserveAspectRatio="xMinYMin meet" x="251.5" y="-240.7"/>
<text text-anchor="start" x="266.5" y="-230.8" font-family="Helvetica,sans-Serif" font-size="11.00" fill="#000000">updated_by</text>
<polygon fill="none" stroke="#000000" points="405.5,-223.7 405.5,-245.7 497.5,-245.7 497.5,-223.7 405.5,-223.7"/>
<text text-anchor="start" x="408.5" y="-231.4" font-family="Helvetica,sans-Serif" font-size="11.00" fill="#000000">int8[19]</text>
<polygon fill="#ffffff" stroke="transparent" points="246.5,-204.7 246.5,-223.7 317.5,-223.7 317.5,-204.7 246.5,-204.7"/>
<polygon fill="none" stroke="#000000" points="246.5,-204.7 246.5,-223.7 317.5,-223.7 317.5,-204.7 246.5,-204.7"/>
<text text-anchor="start" x="249.5" y="-210.8" font-family="Helvetica,sans-Serif" font-size="11.00" fill="#000000">&lt; 5</text>
<polygon fill="#ffffff" stroke="transparent" points="317.5,-204.7 317.5,-223.7 405.5,-223.7 405.5,-204.7 317.5,-204.7"/>
<polygon fill="none" stroke="#000000" points="317.5,-204.7 317.5,-223.7 405.5,-223.7 405.5,-204.7 317.5,-204.7"/>
<text text-anchor="start" x="370.1105" y="-210.8" font-family="Helvetica,sans-Serif" font-size="11.00" fill="#000000">0 rows</text>
<polygon fill="#ffffff" stroke="transparent" points="405.5,-204.7 405.5,-223.7 497.5,-223.7 497.5,-204.7 405.5,-204.7"/>
<polygon fill="none" stroke="#000000" points="405.5,-204.7 405.5,-223.7 497.5,-223.7 497.5,-204.7 405.5,-204.7"/>
<text text-anchor="start" x="478.9053" y="-210.8" font-family="Helvetica,sans-Serif" font-size="11.00" fill="#000000">0 &gt;</text>
<polygon fill="none" stroke="#000000" stroke-width="2" points="245,-203.7 245,-577.7 498,-577.7 498,-203.7 245,-203.7"/>
</a>
</g>
</g>
<!-- public.appointment_types -->
<g id="node2" class="node">
<title>public.appointment_types</title>
<g id="a_node2"><a xlink:href="../../../public/tables/appointment_types.html" xlink:title="public.appointment_types" target="_top">
<polygon fill="#ffffff" stroke="transparent" points="8,-416.2 8,-477.2 195,-477.2 195,-416.2 8,-416.2"/>
<polygon fill="#f5f5f5" stroke="transparent" points="8.5,-453.7 8.5,-476.7 195.5,-476.7 195.5,-453.7 8.5,-453.7"/>
<polygon fill="none" stroke="#000000" points="8.5,-453.7 8.5,-476.7 195.5,-476.7 195.5,-453.7 8.5,-453.7"/>
<text text-anchor="start" x="13.5" y="-462.3" font-family="Helvetica,sans-Serif" font-weight="bold" font-size="11.00" fill="#000000">public.appointment_types</text>
<text text-anchor="start" x="161.0219" y="-461.8" font-family="Helvetica,sans-Serif" font-size="11.00" fill="#000000">[table]</text>
<polygon fill="none" stroke="#000000" points="8.5,-434.7 8.5,-453.7 195.5,-453.7 195.5,-434.7 8.5,-434.7"/>
<text text-anchor="start" x="11.5" y="-440.8" font-family="Helvetica,sans-Serif" font-size="11.00" fill="#000000">...</text>
<polygon fill="#ffffff" stroke="transparent" points="8.5,-415.7 8.5,-434.7 78.5,-434.7 78.5,-415.7 8.5,-415.7"/>
<polygon fill="none" stroke="#000000" points="8.5,-415.7 8.5,-434.7 78.5,-434.7 78.5,-415.7 8.5,-415.7"/>
<text text-anchor="start" x="11.5" y="-421.8" font-family="Helvetica,sans-Serif" font-size="11.00" fill="#000000"> &#160;</text>
<polygon fill="#ffffff" stroke="transparent" points="78.5,-415.7 78.5,-434.7 145.5,-434.7 145.5,-415.7 78.5,-415.7"/>
<polygon fill="none" stroke="#000000" points="78.5,-415.7 78.5,-434.7 145.5,-434.7 145.5,-415.7 78.5,-415.7"/>
<text text-anchor="start" x="110.1105" y="-421.8" font-family="Helvetica,sans-Serif" font-size="11.00" fill="#000000">0 rows</text>
<polygon fill="#ffffff" stroke="transparent" points="145.5,-415.7 145.5,-434.7 195.5,-434.7 195.5,-415.7 145.5,-415.7"/>
<polygon fill="none" stroke="#000000" points="145.5,-415.7 145.5,-434.7 195.5,-434.7 195.5,-415.7 145.5,-415.7"/>
<text text-anchor="start" x="176.9053" y="-421.8" font-family="Helvetica,sans-Serif" font-size="11.00" fill="#000000">1 &gt;</text>
</a>
</g>
</g>
<!-- delivery_appointments&#45;&gt;public.appointment_types -->
<g id="edge1" class="edge">
<title>delivery_appointments:w&#45;&gt;public.appointment_types:e</title>
<path fill="none" stroke="#000000" d="M232.0765,-476.2537C222.4807,-475.6805 212.7486,-474.5848 203.1489,-473.1408"/>
<polygon fill="#000000" stroke="#000000" points="238.5038,-476.4525 246.3886,-480.2983 242.5019,-476.5763 246.5,-476.7 246.5,-476.7 246.5,-476.7 242.5019,-476.5763 246.6114,-473.1017 238.5038,-476.4525 238.5038,-476.4525"/>
<ellipse fill="none" stroke="#000000" cx="235.3054" cy="-476.3536" rx="3.2" ry="3.2"/>
</g>
<!-- public.users -->
<g id="node3" class="node">
<title>public.users</title>
<g id="a_node3"><a xlink:href="../../../public/tables/users.html" xlink:title="public.users" target="_top">
<polygon fill="#ffffff" stroke="transparent" points="47,-117.2 47,-178.2 156,-178.2 156,-117.2 47,-117.2"/>
<polygon fill="#f5f5f5" stroke="transparent" points="47.5,-154.7 47.5,-177.7 156.5,-177.7 156.5,-154.7 47.5,-154.7"/>
<polygon fill="none" stroke="#000000" points="47.5,-154.7 47.5,-177.7 156.5,-177.7 156.5,-154.7 47.5,-154.7"/>
<text text-anchor="start" x="52.5" y="-163.3" font-family="Helvetica,sans-Serif" font-weight="bold" font-size="11.00" fill="#000000">public.users</text>
<text text-anchor="start" x="122.0219" y="-162.8" font-family="Helvetica,sans-Serif" font-size="11.00" fill="#000000">[table]</text>
<polygon fill="none" stroke="#000000" points="47.5,-135.7 47.5,-154.7 156.5,-154.7 156.5,-135.7 47.5,-135.7"/>
<text text-anchor="start" x="50.5" y="-141.8" font-family="Helvetica,sans-Serif" font-size="11.00" fill="#000000">...</text>
<polygon fill="#ffffff" stroke="transparent" points="47.5,-116.7 47.5,-135.7 78.5,-135.7 78.5,-116.7 47.5,-116.7"/>
<polygon fill="none" stroke="#000000" points="47.5,-116.7 47.5,-135.7 78.5,-135.7 78.5,-116.7 47.5,-116.7"/>
<text text-anchor="start" x="50.5" y="-122.8" font-family="Helvetica,sans-Serif" font-size="11.00" fill="#000000"> &#160;</text>
<polygon fill="#ffffff" stroke="transparent" points="78.5,-116.7 78.5,-135.7 125.5,-135.7 125.5,-116.7 78.5,-116.7"/>
<polygon fill="none" stroke="#000000" points="78.5,-116.7 78.5,-135.7 125.5,-135.7 125.5,-116.7 78.5,-116.7"/>
<text text-anchor="start" x="90.1105" y="-122.8" font-family="Helvetica,sans-Serif" font-size="11.00" fill="#000000">0 rows</text>
<polygon fill="#ffffff" stroke="transparent" points="125.5,-116.7 125.5,-135.7 156.5,-135.7 156.5,-116.7 125.5,-116.7"/>
<polygon fill="none" stroke="#000000" points="125.5,-116.7 125.5,-135.7 156.5,-135.7 156.5,-116.7 125.5,-116.7"/>
<text text-anchor="start" x="137.9053" y="-122.8" font-family="Helvetica,sans-Serif" font-size="11.00" fill="#000000">6 &gt;</text>
</a>
</g>
</g>
<!-- delivery_appointments&#45;&gt;public.users -->
<g id="edge2" class="edge">
<title>delivery_appointments:w&#45;&gt;public.users:e</title>
<path fill="none" stroke="#000000" d="M232.4262,-253.0459C216.0863,-241.8568 225.8613,-207.6759 203,-188.7 191.6667,-179.2929 177.8931,-171.8239 164.1954,-165.9817"/>
<polygon fill="#000000" stroke="#000000" points="238.7567,-254.6895 245.5953,-260.1845 242.6284,-255.6947 246.5,-256.7 246.5,-256.7 246.5,-256.7 242.6284,-255.6947 247.4047,-253.2155 238.7567,-254.6895 238.7567,-254.6895"/>
<ellipse fill="none" stroke="#000000" cx="235.6594" cy="-253.8853" rx="3.2" ry="3.2"/>
</g>
<!-- delivery_appointments&#45;&gt;public.users -->
<g id="edge5" class="edge">
<title>delivery_appointments:w&#45;&gt;public.users:e</title>
<path fill="none" stroke="#000000" d="M232.5025,-230.8377C220.3214,-222.1956 221.1605,-201.0873 203,-188.7 191.1463,-180.6146 177.4561,-173.7322 164.0436,-168.0464"/>
<polygon fill="#000000" stroke="#000000" points="238.7882,-232.5721 245.5424,-238.1703 242.6441,-233.636 246.5,-234.7 246.5,-234.7 246.5,-234.7 242.6441,-233.636 247.4576,-231.2297 238.7882,-232.5721 238.7882,-232.5721"/>
<ellipse fill="none" stroke="#000000" cx="235.7035" cy="-231.7209" rx="3.2" ry="3.2"/>
</g>
<!-- public.locations -->
<g id="node4" class="node">
<title>public.locations</title>
<g id="a_node4"><a xlink:href="../../../public/tables/locations.html" xlink:title="public.locations" target="_top">
<polygon fill="#ffffff" stroke="transparent" points="36.5,-498.2 36.5,-559.2 166.5,-559.2 166.5,-498.2 36.5,-498.2"/>
<polygon fill="#f5f5f5" stroke="transparent" points="36.5,-535.7 36.5,-558.7 166.5,-558.7 166.5,-535.7 36.5,-535.7"/>
<polygon fill="none" stroke="#000000" points="36.5,-535.7 36.5,-558.7 166.5,-558.7 166.5,-535.7 36.5,-535.7"/>
<text text-anchor="start" x="41.5" y="-544.3" font-family="Helvetica,sans-Serif" font-weight="bold" font-size="11.00" fill="#000000">public.locations</text>
<text text-anchor="start" x="132.0219" y="-543.8" font-family="Helvetica,sans-Serif" font-size="11.00" fill="#000000">[table]</text>
<polygon fill="none" stroke="#000000" points="36.5,-516.7 36.5,-535.7 166.5,-535.7 166.5,-516.7 36.5,-516.7"/>
<text text-anchor="start" x="39.5" y="-522.8" font-family="Helvetica,sans-Serif" font-size="11.00" fill="#000000">...</text>
<polygon fill="#ffffff" stroke="transparent" points="36.5,-497.7 36.5,-516.7 77.5,-516.7 77.5,-497.7 36.5,-497.7"/>
<polygon fill="none" stroke="#000000" points="36.5,-497.7 36.5,-516.7 77.5,-516.7 77.5,-497.7 36.5,-497.7"/>
<text text-anchor="start" x="39.5" y="-503.8" font-family="Helvetica,sans-Serif" font-size="11.00" fill="#000000"> &#160;</text>
<polygon fill="#ffffff" stroke="transparent" points="77.5,-497.7 77.5,-516.7 130.5,-516.7 130.5,-497.7 77.5,-497.7"/>
<polygon fill="none" stroke="#000000" points="77.5,-497.7 77.5,-516.7 130.5,-516.7 130.5,-497.7 77.5,-497.7"/>
<text text-anchor="start" x="95.1105" y="-503.8" font-family="Helvetica,sans-Serif" font-size="11.00" fill="#000000">0 rows</text>
<polygon fill="#ffffff" stroke="transparent" points="130.5,-497.7 130.5,-516.7 166.5,-516.7 166.5,-497.7 130.5,-497.7"/>
<polygon fill="none" stroke="#000000" points="130.5,-497.7 130.5,-516.7 166.5,-516.7 166.5,-497.7 130.5,-497.7"/>
<text text-anchor="start" x="147.9053" y="-503.8" font-family="Helvetica,sans-Serif" font-size="11.00" fill="#000000">1 &gt;</text>
</a>
</g>
</g>
<!-- delivery_appointments&#45;&gt;public.locations -->
<g id="edge3" class="edge">
<title>delivery_appointments:w&#45;&gt;public.locations:e</title>
<path fill="none" stroke="#000000" d="M231.9102,-499.1562C212.6458,-500.319 192.8381,-503.5829 174.6613,-507.5387"/>
<polygon fill="#000000" stroke="#000000" points="238.5039,-498.9501 246.6125,-502.2982 242.502,-498.8251 246.5,-498.7 246.5,-498.7 246.5,-498.7 242.502,-498.8251 246.3875,-495.1018 238.5039,-498.9501 238.5039,-498.9501"/>
<ellipse fill="none" stroke="#000000" cx="235.3055" cy="-499.0501" rx="3.2" ry="3.2"/>
</g>
<!-- public.orders -->
<g id="node5" class="node">
<title>public.orders</title>
<g id="a_node5"><a xlink:href="../../../public/tables/orders.html" xlink:title="public.orders" target="_top">
<polygon fill="#ffffff" stroke="transparent" points="44,-199.2 44,-260.2 159,-260.2 159,-199.2 44,-199.2"/>
<polygon fill="#f5f5f5" stroke="transparent" points="44.5,-236.7 44.5,-259.7 159.5,-259.7 159.5,-236.7 44.5,-236.7"/>
<polygon fill="none" stroke="#000000" points="44.5,-236.7 44.5,-259.7 159.5,-259.7 159.5,-236.7 44.5,-236.7"/>
<text text-anchor="start" x="49.5" y="-245.3" font-family="Helvetica,sans-Serif" font-weight="bold" font-size="11.00" fill="#000000">public.orders</text>
<text text-anchor="start" x="125.0219" y="-244.8" font-family="Helvetica,sans-Serif" font-size="11.00" fill="#000000">[table]</text>
<polygon fill="none" stroke="#000000" points="44.5,-217.7 44.5,-236.7 159.5,-236.7 159.5,-217.7 44.5,-217.7"/>
<text text-anchor="start" x="47.5" y="-223.8" font-family="Helvetica,sans-Serif" font-size="11.00" fill="#000000">...</text>
<polygon fill="#ffffff" stroke="transparent" points="44.5,-198.7 44.5,-217.7 78.5,-217.7 78.5,-198.7 44.5,-198.7"/>
<polygon fill="none" stroke="#000000" points="44.5,-198.7 44.5,-217.7 78.5,-217.7 78.5,-198.7 44.5,-198.7"/>
<text text-anchor="start" x="47.5" y="-204.8" font-family="Helvetica,sans-Serif" font-size="11.00" fill="#000000"> &#160;</text>
<polygon fill="#ffffff" stroke="transparent" points="78.5,-198.7 78.5,-217.7 127.5,-217.7 127.5,-198.7 78.5,-198.7"/>
<polygon fill="none" stroke="#000000" points="78.5,-198.7 78.5,-217.7 127.5,-217.7 127.5,-198.7 78.5,-198.7"/>
<text text-anchor="start" x="92.1105" y="-204.8" font-family="Helvetica,sans-Serif" font-size="11.00" fill="#000000">0 rows</text>
<polygon fill="#ffffff" stroke="transparent" points="127.5,-198.7 127.5,-217.7 159.5,-217.7 159.5,-198.7 127.5,-198.7"/>
<polygon fill="none" stroke="#000000" points="127.5,-198.7 127.5,-217.7 159.5,-217.7 159.5,-198.7 127.5,-198.7"/>
<text text-anchor="start" x="140.9053" y="-204.8" font-family="Helvetica,sans-Serif" font-size="11.00" fill="#000000">3 &gt;</text>
</a>
</g>
</g>
<!-- delivery_appointments&#45;&gt;public.orders -->
<g id="edge4" class="edge">
<title>delivery_appointments:w&#45;&gt;public.orders:e</title>
<path fill="none" stroke="#000000" d="M232.0134,-518.6064C198.4956,-507.0399 223.9256,-449.8766 203,-405.7 178.9916,-355.0151 145.6518,-299.397 123.8333,-264.5258"/>
<polygon fill="#000000" stroke="#000000" points="238.5823,-519.5557 245.9851,-524.263 242.5411,-520.1278 246.5,-520.7 246.5,-520.7 246.5,-520.7 242.5411,-520.1278 247.0149,-517.137 238.5823,-519.5557 238.5823,-519.5557"/>
<ellipse fill="none" stroke="#000000" cx="235.4152" cy="-519.098" rx="3.2" ry="3.2"/>
</g>
<!-- order_allocations -->
<g id="node6" class="node">
<title>order_allocations</title>
<g id="a_node6"><a xlink:href="../../tables/order_allocations.html" xlink:title="order_allocations" target="_top">
<polygon fill="#ffffff" stroke="transparent" points="302,-120.2 302,-181.2 441,-181.2 441,-120.2 302,-120.2"/>
<polygon fill="#f5f5f5" stroke="transparent" points="302.5,-157.7 302.5,-180.7 441.5,-180.7 441.5,-157.7 302.5,-157.7"/>
<polygon fill="none" stroke="#000000" points="302.5,-157.7 302.5,-180.7 441.5,-180.7 441.5,-157.7 302.5,-157.7"/>
<text text-anchor="start" x="307.5" y="-166.3" font-family="Helvetica,sans-Serif" font-weight="bold" font-size="11.00" fill="#000000">order_allocations</text>
<text text-anchor="start" x="407.0219" y="-165.8" font-family="Helvetica,sans-Serif" font-size="11.00" fill="#000000">[table]</text>
<polygon fill="none" stroke="#000000" points="302.5,-138.7 302.5,-157.7 441.5,-157.7 441.5,-138.7 302.5,-138.7"/>
<text text-anchor="start" x="305.5" y="-144.8" font-family="Helvetica,sans-Serif" font-size="11.00" fill="#000000">...</text>
<polygon fill="#ffffff" stroke="transparent" points="302.5,-119.7 302.5,-138.7 370.5,-138.7 370.5,-119.7 302.5,-119.7"/>
<polygon fill="none" stroke="#000000" points="302.5,-119.7 302.5,-138.7 370.5,-138.7 370.5,-119.7 302.5,-119.7"/>
<text text-anchor="start" x="305.5" y="-125.8" font-family="Helvetica,sans-Serif" font-size="11.00" fill="#000000">&lt; 3</text>
<polygon fill="#ffffff" stroke="transparent" points="370.5,-119.7 370.5,-138.7 405.5,-138.7 405.5,-119.7 370.5,-119.7"/>
<polygon fill="none" stroke="#000000" points="370.5,-119.7 370.5,-138.7 405.5,-138.7 405.5,-119.7 370.5,-119.7"/>
<text text-anchor="start" x="396.3862" y="-125.8" font-family="Helvetica,sans-Serif" font-size="11.00" fill="#000000"> &#160;</text>
<polygon fill="#ffffff" stroke="transparent" points="405.5,-119.7 405.5,-138.7 441.5,-138.7 441.5,-119.7 405.5,-119.7"/>
<polygon fill="none" stroke="#000000" points="405.5,-119.7 405.5,-138.7 441.5,-138.7 441.5,-119.7 405.5,-119.7"/>
<text text-anchor="start" x="432.3862" y="-125.8" font-family="Helvetica,sans-Serif" font-size="11.00" fill="#000000"> &#160;</text>
</a>
</g>
</g>
<!-- order_allocations&#45;&gt;public.users -->
<g id="edge6" class="edge">
<title>order_allocations:w&#45;&gt;public.users:e</title>
<path fill="none" stroke="#000000" d="M287.9695,-146.7873C245.5869,-144.3016 199.9416,-143.1077 164.4201,-143.2056"/>
<polygon fill="#000000" stroke="#000000" points="294.5157,-147.1984 302.2743,-151.2929 298.5079,-147.4492 302.5,-147.7 302.5,-147.7 302.5,-147.7 298.5079,-147.4492 302.7257,-144.1071 294.5157,-147.1984 294.5157,-147.1984"/>
<ellipse fill="none" stroke="#000000" cx="291.322" cy="-146.9978" rx="3.2" ry="3.2"/>
</g>
<!-- order_allocations&#45;&gt;public.users -->
<g id="edge8" class="edge">
<title>order_allocations:w&#45;&gt;public.users:e</title>
<path fill="none" stroke="#000000" d="M287.9695,-148.7648C245.5869,-151.6648 199.9416,-153.0577 164.4201,-152.9435"/>
<polygon fill="#000000" stroke="#000000" points="294.5214,-148.2848 302.7631,-151.2904 298.5107,-147.9924 302.5,-147.7 302.5,-147.7 302.5,-147.7 298.5107,-147.9924 302.2369,-144.1096 294.5214,-148.2848 294.5214,-148.2848"/>
<ellipse fill="none" stroke="#000000" cx="291.33" cy="-148.5187" rx="3.2" ry="3.2"/>
</g>
<!-- order_allocations&#45;&gt;public.orders -->
<g id="edge7" class="edge">
<title>order_allocations:w&#45;&gt;public.orders:e</title>
<path fill="none" stroke="#000000" d="M287.6901,-148.5424C252.5238,-152.8331 242.2687,-172.6786 203,-188.7 191.3862,-193.4384 179.0144,-198.4587 167.0472,-203.3006"/>
<polygon fill="#000000" stroke="#000000" points="294.5129,-148.1544 302.7045,-151.2942 298.5065,-147.9272 302.5,-147.7 302.5,-147.7 302.5,-147.7 298.5065,-147.9272 302.2955,-144.1058 294.5129,-148.1544 294.5129,-148.1544"/>
<ellipse fill="none" stroke="#000000" cx="291.3181" cy="-148.3361" rx="3.2" ry="3.2"/>
</g>
<!-- order_requirements -->
<g id="node7" class="node">
<title>order_requirements</title>
<g id="a_node7"><a xlink:href="../../tables/order_requirements.html" xlink:title="order_requirements" target="_top">
<polygon fill="#ffffff" stroke="transparent" points="295.5,-38.2 295.5,-99.2 447.5,-99.2 447.5,-38.2 295.5,-38.2"/>
<polygon fill="#f5f5f5" stroke="transparent" points="295.5,-75.7 295.5,-98.7 447.5,-98.7 447.5,-75.7 295.5,-75.7"/>
<polygon fill="none" stroke="#000000" points="295.5,-75.7 295.5,-98.7 447.5,-98.7 447.5,-75.7 295.5,-75.7"/>
<text text-anchor="start" x="300.5" y="-84.3" font-family="Helvetica,sans-Serif" font-weight="bold" font-size="11.00" fill="#000000">order_requirements</text>
<text text-anchor="start" x="413.0219" y="-83.8" font-family="Helvetica,sans-Serif" font-size="11.00" fill="#000000">[table]</text>
<polygon fill="none" stroke="#000000" points="295.5,-56.7 295.5,-75.7 447.5,-75.7 447.5,-56.7 295.5,-56.7"/>
<text text-anchor="start" x="298.5" y="-62.8" font-family="Helvetica,sans-Serif" font-size="11.00" fill="#000000">...</text>
<polygon fill="#ffffff" stroke="transparent" points="295.5,-37.7 295.5,-56.7 369.5,-56.7 369.5,-37.7 295.5,-37.7"/>
<polygon fill="none" stroke="#000000" points="295.5,-37.7 295.5,-56.7 369.5,-56.7 369.5,-37.7 295.5,-37.7"/>
<text text-anchor="start" x="298.5" y="-43.8" font-family="Helvetica,sans-Serif" font-size="11.00" fill="#000000">&lt; 3</text>
<polygon fill="#ffffff" stroke="transparent" points="369.5,-37.7 369.5,-56.7 408.5,-56.7 408.5,-37.7 369.5,-37.7"/>
<polygon fill="none" stroke="#000000" points="369.5,-37.7 369.5,-56.7 408.5,-56.7 408.5,-37.7 369.5,-37.7"/>
<text text-anchor="start" x="399.3862" y="-43.8" font-family="Helvetica,sans-Serif" font-size="11.00" fill="#000000"> &#160;</text>
<polygon fill="#ffffff" stroke="transparent" points="408.5,-37.7 408.5,-56.7 447.5,-56.7 447.5,-37.7 408.5,-37.7"/>
<polygon fill="none" stroke="#000000" points="408.5,-37.7 408.5,-56.7 447.5,-56.7 447.5,-37.7 408.5,-37.7"/>
<text text-anchor="start" x="438.3862" y="-43.8" font-family="Helvetica,sans-Serif" font-size="11.00" fill="#000000"> &#160;</text>
</a>
</g>
</g>
<!-- order_requirements&#45;&gt;public.users -->
<g id="edge9" class="edge">
<title>order_requirements:w&#45;&gt;public.users:e</title>
<path fill="none" stroke="#000000" d="M280.9502,-65.4521C230.5332,-66.8764 179.7579,-91.167 145.1487,-113.0382"/>
<polygon fill="#000000" stroke="#000000" points="287.5012,-65.5637 295.4387,-69.2995 291.5006,-65.6318 295.5,-65.7 295.5,-65.7 295.5,-65.7 291.5006,-65.6318 295.5613,-62.1005 287.5012,-65.5637 287.5012,-65.5637"/>
<ellipse fill="none" stroke="#000000" cx="284.3016" cy="-65.5092" rx="3.2" ry="3.2"/>
</g>
<!-- order_requirements&#45;&gt;public.users -->
<g id="edge11" class="edge">
<title>order_requirements:w&#45;&gt;public.users:e</title>
<path fill="none" stroke="#000000" d="M280.9212,-67.3676C237.8593,-73.9289 194.5383,-94.4411 161.2543,-113.149"/>
<polygon fill="#000000" stroke="#000000" points="287.5518,-66.6092 295.9091,-69.2767 291.5259,-66.1546 295.5,-65.7 295.5,-65.7 295.5,-65.7 291.5259,-66.1546 295.0909,-62.1233 287.5518,-66.6092 287.5518,-66.6092"/>
<ellipse fill="none" stroke="#000000" cx="284.3726" cy="-66.9729" rx="3.2" ry="3.2"/>
</g>
<!-- order_requirements&#45;&gt;public.orders -->
<g id="edge10" class="edge">
<title>order_requirements:w&#45;&gt;public.orders:e</title>
<path fill="none" stroke="#000000" d="M280.9835,-67.1843C260.0934,-72.005 252.8832,-88.1637 236,-109.7 212.524,-139.6462 230.0645,-161.9528 203,-188.7 192.9295,-198.6525 180.1243,-206.2846 167.0289,-212.104"/>
<polygon fill="#000000" stroke="#000000" points="287.5415,-66.5138 295.8662,-69.2813 291.5207,-66.1069 295.5,-65.7 295.5,-65.7 295.5,-65.7 291.5207,-66.1069 295.1338,-62.1187 287.5415,-66.5138 287.5415,-66.5138"/>
<ellipse fill="none" stroke="#000000" cx="284.3581" cy="-66.8393" rx="3.2" ry="3.2"/>
</g>
</g>
</svg>
