<?xml version="1.0" encoding="UTF-8" standalone="no"?>
<!DOCTYPE svg PUBLIC "-//W3C//DTD SVG 1.1//EN"
 "http://www.w3.org/Graphics/SVG/1.1/DTD/svg11.dtd">
<!-- Generated by graphviz version 2.40.1 (20161225.0304)
 -->
<!-- Title: oneDegreeRelationshipsDiagram Pages: 1 -->
<svg width="515pt" height="459pt"
 viewBox="0.00 0.00 515.00 458.70" xmlns="http://www.w3.org/2000/svg" xmlns:xlink="http://www.w3.org/1999/xlink">
<g id="graph0" class="graph" transform="scale(1 1) rotate(0) translate(4 454.7)">
<title>oneDegreeRelationshipsDiagram</title>
<polygon fill="#ffffff" stroke="transparent" points="-4,4 -4,-454.7 511,-454.7 511,4 -4,4"/>
<text text-anchor="middle" x="72.4936" y="-7.3" font-family="Helvetica,sans-Serif" font-size="11.00" fill="#000000">Generated by SchemaSpy</text>
<!-- delivery_appointments -->
<g id="node1" class="node">
<title>delivery_appointments</title>
<g id="a_node1"><a xlink:href="../../tables/delivery_appointments.html" xlink:title="delivery_appointments" target="_top">
<polygon fill="#ffffff" stroke="transparent" points="244,-38.2 244,-414.2 499,-414.2 499,-38.2 244,-38.2"/>
<polygon fill="#f5f5f5" stroke="transparent" points="246.5,-389.2 246.5,-412.2 497.5,-412.2 497.5,-389.2 246.5,-389.2"/>
<polygon fill="none" stroke="#000000" points="246.5,-389.2 246.5,-412.2 497.5,-412.2 497.5,-389.2 246.5,-389.2"/>
<text text-anchor="start" x="251.5" y="-397.8" font-family="Helvetica,sans-Serif" font-weight="bold" font-size="11.00" fill="#000000">delivery_appointments</text>
<text text-anchor="start" x="462.5437" y="-397.3" font-family="Helvetica,sans-Serif" font-size="11.00" fill="#000000">[table]</text>
<polygon fill="none" stroke="#000000" points="246.5,-367.2 246.5,-389.2 405.5,-389.2 405.5,-367.2 246.5,-367.2"/>
<image xlink:href="../../images/primaryKeys.png" width="11px" height="12px" preserveAspectRatio="xMinYMin meet" x="251.5" y="-384.2"/>
<text text-anchor="start" x="266.5" y="-374.3" font-family="Helvetica,sans-Serif" font-size="11.00" fill="#000000">appointment_id</text>
<polygon fill="none" stroke="#000000" points="405.5,-367.2 405.5,-389.2 497.5,-389.2 497.5,-367.2 405.5,-367.2"/>
<text text-anchor="start" x="408.5" y="-374.9" font-family="Helvetica,sans-Serif" font-size="11.00" fill="#000000">int8[19]</text>
<polygon fill="none" stroke="#000000" points="246.5,-345.2 246.5,-367.2 405.5,-367.2 405.5,-345.2 246.5,-345.2"/>
<image xlink:href="../../images/foreignKeys.png" width="11px" height="12px" preserveAspectRatio="xMinYMin meet" x="251.5" y="-362.2"/>
<text text-anchor="start" x="266.5" y="-352.3" font-family="Helvetica,sans-Serif" font-size="11.00" fill="#000000">order_id</text>
<polygon fill="none" stroke="#000000" points="405.5,-345.2 405.5,-367.2 497.5,-367.2 497.5,-345.2 405.5,-345.2"/>
<text text-anchor="start" x="408.5" y="-352.9" font-family="Helvetica,sans-Serif" font-size="11.00" fill="#000000">int8[19]</text>
<polygon fill="none" stroke="#000000" points="246.5,-323.2 246.5,-345.2 405.5,-345.2 405.5,-323.2 246.5,-323.2"/>
<image xlink:href="../../images/foreignKeys.png" width="11px" height="12px" preserveAspectRatio="xMinYMin meet" x="251.5" y="-340.2"/>
<text text-anchor="start" x="266.5" y="-330.3" font-family="Helvetica,sans-Serif" font-size="11.00" fill="#000000">location_id</text>
<polygon fill="none" stroke="#000000" points="405.5,-323.2 405.5,-345.2 497.5,-345.2 497.5,-323.2 405.5,-323.2"/>
<text text-anchor="start" x="408.5" y="-330.9" font-family="Helvetica,sans-Serif" font-size="11.00" fill="#000000">int8[19]</text>
<polygon fill="none" stroke="#000000" points="246.5,-301.2 246.5,-323.2 405.5,-323.2 405.5,-301.2 246.5,-301.2"/>
<image xlink:href="../../images/foreignKeys.png" width="11px" height="12px" preserveAspectRatio="xMinYMin meet" x="251.5" y="-318.2"/>
<text text-anchor="start" x="266.5" y="-308.3" font-family="Helvetica,sans-Serif" font-size="11.00" fill="#000000">appointment_type_code</text>
<polygon fill="none" stroke="#000000" points="405.5,-301.2 405.5,-323.2 497.5,-323.2 497.5,-301.2 405.5,-301.2"/>
<text text-anchor="start" x="408.5" y="-308.9" font-family="Helvetica,sans-Serif" font-size="11.00" fill="#000000">varchar[50]</text>
<polygon fill="none" stroke="#000000" points="246.5,-279.2 246.5,-301.2 405.5,-301.2 405.5,-279.2 246.5,-279.2"/>
<text text-anchor="start" x="266.5" y="-286.3" font-family="Helvetica,sans-Serif" font-size="11.00" fill="#000000">requested_start</text>
<polygon fill="none" stroke="#000000" points="405.5,-279.2 405.5,-301.2 497.5,-301.2 497.5,-279.2 405.5,-279.2"/>
<text text-anchor="start" x="408.1023" y="-286.9" font-family="Helvetica,sans-Serif" font-size="11.00" fill="#000000">timestamptz[35,6]</text>
<polygon fill="none" stroke="#000000" points="246.5,-257.2 246.5,-279.2 405.5,-279.2 405.5,-257.2 246.5,-257.2"/>
<text text-anchor="start" x="266.5" y="-264.3" font-family="Helvetica,sans-Serif" font-size="11.00" fill="#000000">requested_end</text>
<polygon fill="none" stroke="#000000" points="405.5,-257.2 405.5,-279.2 497.5,-279.2 497.5,-257.2 405.5,-257.2"/>
<text text-anchor="start" x="408.1023" y="-264.9" font-family="Helvetica,sans-Serif" font-size="11.00" fill="#000000">timestamptz[35,6]</text>
<polygon fill="none" stroke="#000000" points="246.5,-235.2 246.5,-257.2 405.5,-257.2 405.5,-235.2 246.5,-235.2"/>
<text text-anchor="start" x="266.5" y="-242.3" font-family="Helvetica,sans-Serif" font-size="11.00" fill="#000000">confirmed_start</text>
<polygon fill="none" stroke="#000000" points="405.5,-235.2 405.5,-257.2 497.5,-257.2 497.5,-235.2 405.5,-235.2"/>
<text text-anchor="start" x="408.1023" y="-242.9" font-family="Helvetica,sans-Serif" font-size="11.00" fill="#000000">timestamptz[35,6]</text>
<polygon fill="none" stroke="#000000" points="246.5,-213.2 246.5,-235.2 405.5,-235.2 405.5,-213.2 246.5,-213.2"/>
<text text-anchor="start" x="266.5" y="-220.3" font-family="Helvetica,sans-Serif" font-size="11.00" fill="#000000">confirmed_end</text>
<polygon fill="none" stroke="#000000" points="405.5,-213.2 405.5,-235.2 497.5,-235.2 497.5,-213.2 405.5,-213.2"/>
<text text-anchor="start" x="408.1023" y="-220.9" font-family="Helvetica,sans-Serif" font-size="11.00" fill="#000000">timestamptz[35,6]</text>
<polygon fill="none" stroke="#000000" points="246.5,-191.2 246.5,-213.2 405.5,-213.2 405.5,-191.2 246.5,-191.2"/>
<text text-anchor="start" x="266.5" y="-198.3" font-family="Helvetica,sans-Serif" font-size="11.00" fill="#000000">status</text>
<polygon fill="none" stroke="#000000" points="405.5,-191.2 405.5,-213.2 497.5,-213.2 497.5,-191.2 405.5,-191.2"/>
<text text-anchor="start" x="408.5" y="-198.9" font-family="Helvetica,sans-Serif" font-size="11.00" fill="#000000">varchar[50]</text>
<polygon fill="none" stroke="#000000" points="246.5,-169.2 246.5,-191.2 405.5,-191.2 405.5,-169.2 246.5,-169.2"/>
<text text-anchor="start" x="266.5" y="-176.3" font-family="Helvetica,sans-Serif" font-size="11.00" fill="#000000">reference_number</text>
<polygon fill="none" stroke="#000000" points="405.5,-169.2 405.5,-191.2 497.5,-191.2 497.5,-169.2 405.5,-169.2"/>
<text text-anchor="start" x="408.5" y="-176.9" font-family="Helvetica,sans-Serif" font-size="11.00" fill="#000000">varchar[100]</text>
<polygon fill="none" stroke="#000000" points="246.5,-147.2 246.5,-169.2 405.5,-169.2 405.5,-147.2 246.5,-147.2"/>
<text text-anchor="start" x="266.5" y="-154.3" font-family="Helvetica,sans-Serif" font-size="11.00" fill="#000000">notes</text>
<polygon fill="none" stroke="#000000" points="405.5,-147.2 405.5,-169.2 497.5,-169.2 497.5,-147.2 405.5,-147.2"/>
<text text-anchor="start" x="408.5" y="-154.9" font-family="Helvetica,sans-Serif" font-size="11.00" fill="#000000">text[2147483647]</text>
<polygon fill="none" stroke="#000000" points="246.5,-125.2 246.5,-147.2 405.5,-147.2 405.5,-125.2 246.5,-125.2"/>
<text text-anchor="start" x="266.5" y="-132.3" font-family="Helvetica,sans-Serif" font-size="11.00" fill="#000000">created_at</text>
<polygon fill="none" stroke="#000000" points="405.5,-125.2 405.5,-147.2 497.5,-147.2 497.5,-125.2 405.5,-125.2"/>
<text text-anchor="start" x="408.1023" y="-132.9" font-family="Helvetica,sans-Serif" font-size="11.00" fill="#000000">timestamptz[35,6]</text>
<polygon fill="none" stroke="#000000" points="246.5,-103.2 246.5,-125.2 405.5,-125.2 405.5,-103.2 246.5,-103.2"/>
<text text-anchor="start" x="266.5" y="-110.3" font-family="Helvetica,sans-Serif" font-size="11.00" fill="#000000">updated_at</text>
<polygon fill="none" stroke="#000000" points="405.5,-103.2 405.5,-125.2 497.5,-125.2 497.5,-103.2 405.5,-103.2"/>
<text text-anchor="start" x="408.1023" y="-110.9" font-family="Helvetica,sans-Serif" font-size="11.00" fill="#000000">timestamptz[35,6]</text>
<polygon fill="none" stroke="#000000" points="246.5,-81.2 246.5,-103.2 405.5,-103.2 405.5,-81.2 246.5,-81.2"/>
<image xlink:href="../../images/foreignKeys.png" width="11px" height="12px" preserveAspectRatio="xMinYMin meet" x="251.5" y="-98.2"/>
<text text-anchor="start" x="266.5" y="-88.3" font-family="Helvetica,sans-Serif" font-size="11.00" fill="#000000">created_by</text>
<polygon fill="none" stroke="#000000" points="405.5,-81.2 405.5,-103.2 497.5,-103.2 497.5,-81.2 405.5,-81.2"/>
<text text-anchor="start" x="408.5" y="-88.9" font-family="Helvetica,sans-Serif" font-size="11.00" fill="#000000">int8[19]</text>
<polygon fill="none" stroke="#000000" points="246.5,-59.2 246.5,-81.2 405.5,-81.2 405.5,-59.2 246.5,-59.2"/>
<image xlink:href="../../images/foreignKeys.png" width="11px" height="12px" preserveAspectRatio="xMinYMin meet" x="251.5" y="-76.2"/>
<text text-anchor="start" x="266.5" y="-66.3" font-family="Helvetica,sans-Serif" font-size="11.00" fill="#000000">updated_by</text>
<polygon fill="none" stroke="#000000" points="405.5,-59.2 405.5,-81.2 497.5,-81.2 497.5,-59.2 405.5,-59.2"/>
<text text-anchor="start" x="408.5" y="-66.9" font-family="Helvetica,sans-Serif" font-size="11.00" fill="#000000">int8[19]</text>
<polygon fill="#ffffff" stroke="transparent" points="246.5,-40.2 246.5,-59.2 317.5,-59.2 317.5,-40.2 246.5,-40.2"/>
<polygon fill="none" stroke="#000000" points="246.5,-40.2 246.5,-59.2 317.5,-59.2 317.5,-40.2 246.5,-40.2"/>
<text text-anchor="start" x="249.5" y="-46.3" font-family="Helvetica,sans-Serif" font-size="11.00" fill="#000000">&lt; 5</text>
<polygon fill="#ffffff" stroke="transparent" points="317.5,-40.2 317.5,-59.2 405.5,-59.2 405.5,-40.2 317.5,-40.2"/>
<polygon fill="none" stroke="#000000" points="317.5,-40.2 317.5,-59.2 405.5,-59.2 405.5,-40.2 317.5,-40.2"/>
<text text-anchor="start" x="370.1105" y="-46.3" font-family="Helvetica,sans-Serif" font-size="11.00" fill="#000000">0 rows</text>
<polygon fill="#ffffff" stroke="transparent" points="405.5,-40.2 405.5,-59.2 497.5,-59.2 497.5,-40.2 405.5,-40.2"/>
<polygon fill="none" stroke="#000000" points="405.5,-40.2 405.5,-59.2 497.5,-59.2 497.5,-40.2 405.5,-40.2"/>
<text text-anchor="start" x="478.9053" y="-46.3" font-family="Helvetica,sans-Serif" font-size="11.00" fill="#000000">0 &gt;</text>
<polygon fill="none" stroke="#000000" stroke-width="2" points="245,-39.2 245,-413.2 498,-413.2 498,-39.2 245,-39.2"/>
</a>
</g>
</g>
<!-- public.appointment_types -->
<g id="node2" class="node">
<title>public.appointment_types</title>
<g id="a_node2"><a xlink:href="../../../public/tables/appointment_types.html" xlink:title="public.appointment_types" target="_top">
<polygon fill="#ffffff" stroke="transparent" points="8,-221.7 8,-282.7 195,-282.7 195,-221.7 8,-221.7"/>
<polygon fill="#f5f5f5" stroke="transparent" points="8.5,-259.2 8.5,-282.2 195.5,-282.2 195.5,-259.2 8.5,-259.2"/>
<polygon fill="none" stroke="#000000" points="8.5,-259.2 8.5,-282.2 195.5,-282.2 195.5,-259.2 8.5,-259.2"/>
<text text-anchor="start" x="13.5" y="-267.8" font-family="Helvetica,sans-Serif" font-weight="bold" font-size="11.00" fill="#000000">public.appointment_types</text>
<text text-anchor="start" x="161.0219" y="-267.3" font-family="Helvetica,sans-Serif" font-size="11.00" fill="#000000">[table]</text>
<polygon fill="none" stroke="#000000" points="8.5,-240.2 8.5,-259.2 195.5,-259.2 195.5,-240.2 8.5,-240.2"/>
<text text-anchor="start" x="11.5" y="-246.3" font-family="Helvetica,sans-Serif" font-size="11.00" fill="#000000">...</text>
<polygon fill="#ffffff" stroke="transparent" points="8.5,-221.2 8.5,-240.2 78.5,-240.2 78.5,-221.2 8.5,-221.2"/>
<polygon fill="none" stroke="#000000" points="8.5,-221.2 8.5,-240.2 78.5,-240.2 78.5,-221.2 8.5,-221.2"/>
<text text-anchor="start" x="11.5" y="-227.3" font-family="Helvetica,sans-Serif" font-size="11.00" fill="#000000"> &#160;</text>
<polygon fill="#ffffff" stroke="transparent" points="78.5,-221.2 78.5,-240.2 145.5,-240.2 145.5,-221.2 78.5,-221.2"/>
<polygon fill="none" stroke="#000000" points="78.5,-221.2 78.5,-240.2 145.5,-240.2 145.5,-221.2 78.5,-221.2"/>
<text text-anchor="start" x="110.1105" y="-227.3" font-family="Helvetica,sans-Serif" font-size="11.00" fill="#000000">0 rows</text>
<polygon fill="#ffffff" stroke="transparent" points="145.5,-221.2 145.5,-240.2 195.5,-240.2 195.5,-221.2 145.5,-221.2"/>
<polygon fill="none" stroke="#000000" points="145.5,-221.2 145.5,-240.2 195.5,-240.2 195.5,-221.2 145.5,-221.2"/>
<text text-anchor="start" x="176.9053" y="-227.3" font-family="Helvetica,sans-Serif" font-size="11.00" fill="#000000">1 &gt;</text>
</a>
</g>
</g>
<!-- delivery_appointments&#45;&gt;public.appointment_types -->
<g id="edge1" class="edge">
<title>delivery_appointments:w&#45;&gt;public.appointment_types:e</title>
<path fill="none" stroke="#000000" d="M232.2342,-309.9308C222.4367,-306.3201 216.9792,-299.075 203,-293.2 197.9191,-291.0647 192.6868,-288.887 187.4026,-286.7039"/>
<polygon fill="#000000" stroke="#000000" points="238.5993,-310.9432 245.9344,-315.7553 242.5497,-311.5716 246.5,-312.2 246.5,-312.2 246.5,-312.2 242.5497,-311.5716 247.0656,-308.6447 238.5993,-310.9432 238.5993,-310.9432"/>
<ellipse fill="none" stroke="#000000" cx="235.4391" cy="-310.4405" rx="3.2" ry="3.2"/>
</g>
<!-- public.users -->
<g id="node3" class="node">
<title>public.users</title>
<g id="a_node3"><a xlink:href="../../../public/tables/users.html" xlink:title="public.users" target="_top">
<polygon fill="#ffffff" stroke="transparent" points="47,-50.7 47,-111.7 156,-111.7 156,-50.7 47,-50.7"/>
<polygon fill="#f5f5f5" stroke="transparent" points="47.5,-88.2 47.5,-111.2 156.5,-111.2 156.5,-88.2 47.5,-88.2"/>
<polygon fill="none" stroke="#000000" points="47.5,-88.2 47.5,-111.2 156.5,-111.2 156.5,-88.2 47.5,-88.2"/>
<text text-anchor="start" x="52.5" y="-96.8" font-family="Helvetica,sans-Serif" font-weight="bold" font-size="11.00" fill="#000000">public.users</text>
<text text-anchor="start" x="122.0219" y="-96.3" font-family="Helvetica,sans-Serif" font-size="11.00" fill="#000000">[table]</text>
<polygon fill="none" stroke="#000000" points="47.5,-69.2 47.5,-88.2 156.5,-88.2 156.5,-69.2 47.5,-69.2"/>
<text text-anchor="start" x="50.5" y="-75.3" font-family="Helvetica,sans-Serif" font-size="11.00" fill="#000000">...</text>
<polygon fill="#ffffff" stroke="transparent" points="47.5,-50.2 47.5,-69.2 78.5,-69.2 78.5,-50.2 47.5,-50.2"/>
<polygon fill="none" stroke="#000000" points="47.5,-50.2 47.5,-69.2 78.5,-69.2 78.5,-50.2 47.5,-50.2"/>
<text text-anchor="start" x="50.5" y="-56.3" font-family="Helvetica,sans-Serif" font-size="11.00" fill="#000000"> &#160;</text>
<polygon fill="#ffffff" stroke="transparent" points="78.5,-50.2 78.5,-69.2 125.5,-69.2 125.5,-50.2 78.5,-50.2"/>
<polygon fill="none" stroke="#000000" points="78.5,-50.2 78.5,-69.2 125.5,-69.2 125.5,-50.2 78.5,-50.2"/>
<text text-anchor="start" x="90.1105" y="-56.3" font-family="Helvetica,sans-Serif" font-size="11.00" fill="#000000">0 rows</text>
<polygon fill="#ffffff" stroke="transparent" points="125.5,-50.2 125.5,-69.2 156.5,-69.2 156.5,-50.2 125.5,-50.2"/>
<polygon fill="none" stroke="#000000" points="125.5,-50.2 125.5,-69.2 156.5,-69.2 156.5,-50.2 125.5,-50.2"/>
<text text-anchor="start" x="137.9053" y="-56.3" font-family="Helvetica,sans-Serif" font-size="11.00" fill="#000000">6 &gt;</text>
</a>
</g>
</g>
<!-- delivery_appointments&#45;&gt;public.users -->
<g id="edge2" class="edge">
<title>delivery_appointments:w&#45;&gt;public.users:e</title>
<path fill="none" stroke="#000000" d="M232.038,-92.0306C209.1551,-91.5147 185.2422,-89.8851 164.2288,-88.0414"/>
<polygon fill="#000000" stroke="#000000" points="238.5005,-92.1062 246.4578,-95.7998 242.5003,-92.1531 246.5,-92.2 246.5,-92.2 246.5,-92.2 242.5003,-92.1531 246.5422,-88.6002 238.5005,-92.1062 238.5005,-92.1062"/>
<ellipse fill="none" stroke="#000000" cx="235.3008" cy="-92.0687" rx="3.2" ry="3.2"/>
</g>
<!-- delivery_appointments&#45;&gt;public.users -->
<g id="edge5" class="edge">
<title>delivery_appointments:w&#45;&gt;public.users:e</title>
<path fill="none" stroke="#000000" d="M232.038,-70.3694C209.1551,-70.8853 185.2422,-72.5149 164.2288,-74.3586"/>
<polygon fill="#000000" stroke="#000000" points="238.5005,-70.2938 246.5422,-73.7998 242.5003,-70.2469 246.5,-70.2 246.5,-70.2 246.5,-70.2 242.5003,-70.2469 246.4578,-66.6002 238.5005,-70.2938 238.5005,-70.2938"/>
<ellipse fill="none" stroke="#000000" cx="235.3008" cy="-70.3313" rx="3.2" ry="3.2"/>
</g>
<!-- public.locations -->
<g id="node4" class="node">
<title>public.locations</title>
<g id="a_node4"><a xlink:href="../../../public/tables/locations.html" xlink:title="public.locations" target="_top">
<polygon fill="#ffffff" stroke="transparent" points="36.5,-303.7 36.5,-364.7 166.5,-364.7 166.5,-303.7 36.5,-303.7"/>
<polygon fill="#f5f5f5" stroke="transparent" points="36.5,-341.2 36.5,-364.2 166.5,-364.2 166.5,-341.2 36.5,-341.2"/>
<polygon fill="none" stroke="#000000" points="36.5,-341.2 36.5,-364.2 166.5,-364.2 166.5,-341.2 36.5,-341.2"/>
<text text-anchor="start" x="41.5" y="-349.8" font-family="Helvetica,sans-Serif" font-weight="bold" font-size="11.00" fill="#000000">public.locations</text>
<text text-anchor="start" x="132.0219" y="-349.3" font-family="Helvetica,sans-Serif" font-size="11.00" fill="#000000">[table]</text>
<polygon fill="none" stroke="#000000" points="36.5,-322.2 36.5,-341.2 166.5,-341.2 166.5,-322.2 36.5,-322.2"/>
<text text-anchor="start" x="39.5" y="-328.3" font-family="Helvetica,sans-Serif" font-size="11.00" fill="#000000">...</text>
<polygon fill="#ffffff" stroke="transparent" points="36.5,-303.2 36.5,-322.2 77.5,-322.2 77.5,-303.2 36.5,-303.2"/>
<polygon fill="none" stroke="#000000" points="36.5,-303.2 36.5,-322.2 77.5,-322.2 77.5,-303.2 36.5,-303.2"/>
<text text-anchor="start" x="39.5" y="-309.3" font-family="Helvetica,sans-Serif" font-size="11.00" fill="#000000"> &#160;</text>
<polygon fill="#ffffff" stroke="transparent" points="77.5,-303.2 77.5,-322.2 130.5,-322.2 130.5,-303.2 77.5,-303.2"/>
<polygon fill="none" stroke="#000000" points="77.5,-303.2 77.5,-322.2 130.5,-322.2 130.5,-303.2 77.5,-303.2"/>
<text text-anchor="start" x="95.1105" y="-309.3" font-family="Helvetica,sans-Serif" font-size="11.00" fill="#000000">0 rows</text>
<polygon fill="#ffffff" stroke="transparent" points="130.5,-303.2 130.5,-322.2 166.5,-322.2 166.5,-303.2 130.5,-303.2"/>
<polygon fill="none" stroke="#000000" points="130.5,-303.2 130.5,-322.2 166.5,-322.2 166.5,-303.2 130.5,-303.2"/>
<text text-anchor="start" x="147.9053" y="-309.3" font-family="Helvetica,sans-Serif" font-size="11.00" fill="#000000">1 &gt;</text>
</a>
</g>
</g>
<!-- delivery_appointments&#45;&gt;public.locations -->
<g id="edge3" class="edge">
<title>delivery_appointments:w&#45;&gt;public.locations:e</title>
<path fill="none" stroke="#000000" d="M232.0093,-334.2C212.8173,-334.2 192.873,-334.2 174.5214,-334.2"/>
<polygon fill="#000000" stroke="#000000" points="238.5,-334.2001 246.5,-337.8 242.5,-334.2 246.5,-334.2 246.5,-334.2 246.5,-334.2 242.5,-334.2 246.5,-330.6 238.5,-334.2001 238.5,-334.2001"/>
<ellipse fill="none" stroke="#000000" cx="235.3" cy="-334.2001" rx="3.2" ry="3.2"/>
</g>
<!-- public.orders -->
<g id="node5" class="node">
<title>public.orders</title>
<g id="a_node5"><a xlink:href="../../../public/tables/orders.html" xlink:title="public.orders" target="_top">
<polygon fill="#ffffff" stroke="transparent" points="44,-385.7 44,-446.7 159,-446.7 159,-385.7 44,-385.7"/>
<polygon fill="#f5f5f5" stroke="transparent" points="44.5,-423.2 44.5,-446.2 159.5,-446.2 159.5,-423.2 44.5,-423.2"/>
<polygon fill="none" stroke="#000000" points="44.5,-423.2 44.5,-446.2 159.5,-446.2 159.5,-423.2 44.5,-423.2"/>
<text text-anchor="start" x="49.5" y="-431.8" font-family="Helvetica,sans-Serif" font-weight="bold" font-size="11.00" fill="#000000">public.orders</text>
<text text-anchor="start" x="125.0219" y="-431.3" font-family="Helvetica,sans-Serif" font-size="11.00" fill="#000000">[table]</text>
<polygon fill="none" stroke="#000000" points="44.5,-404.2 44.5,-423.2 159.5,-423.2 159.5,-404.2 44.5,-404.2"/>
<text text-anchor="start" x="47.5" y="-410.3" font-family="Helvetica,sans-Serif" font-size="11.00" fill="#000000">...</text>
<polygon fill="#ffffff" stroke="transparent" points="44.5,-385.2 44.5,-404.2 78.5,-404.2 78.5,-385.2 44.5,-385.2"/>
<polygon fill="none" stroke="#000000" points="44.5,-385.2 44.5,-404.2 78.5,-404.2 78.5,-385.2 44.5,-385.2"/>
<text text-anchor="start" x="47.5" y="-391.3" font-family="Helvetica,sans-Serif" font-size="11.00" fill="#000000"> &#160;</text>
<polygon fill="#ffffff" stroke="transparent" points="78.5,-385.2 78.5,-404.2 127.5,-404.2 127.5,-385.2 78.5,-385.2"/>
<polygon fill="none" stroke="#000000" points="78.5,-385.2 78.5,-404.2 127.5,-404.2 127.5,-385.2 78.5,-385.2"/>
<text text-anchor="start" x="92.1105" y="-391.3" font-family="Helvetica,sans-Serif" font-size="11.00" fill="#000000">0 rows</text>
<polygon fill="#ffffff" stroke="transparent" points="127.5,-385.2 127.5,-404.2 159.5,-404.2 159.5,-385.2 127.5,-385.2"/>
<polygon fill="none" stroke="#000000" points="127.5,-385.2 127.5,-404.2 159.5,-404.2 159.5,-385.2 127.5,-385.2"/>
<text text-anchor="start" x="140.9053" y="-391.3" font-family="Helvetica,sans-Serif" font-size="11.00" fill="#000000">3 &gt;</text>
</a>
</g>
</g>
<!-- delivery_appointments&#45;&gt;public.orders -->
<g id="edge4" class="edge">
<title>delivery_appointments:w&#45;&gt;public.orders:e</title>
<path fill="none" stroke="#000000" d="M232.2342,-358.4692C222.4367,-362.0799 216.9792,-369.325 203,-375.2 191.4365,-380.0597 179.089,-385.1388 167.1303,-390.0012"/>
<polygon fill="#000000" stroke="#000000" points="238.5993,-357.4568 247.0656,-359.7553 242.5497,-356.8284 246.5,-356.2 246.5,-356.2 246.5,-356.2 242.5497,-356.8284 245.9344,-352.6447 238.5993,-357.4568 238.5993,-357.4568"/>
<ellipse fill="none" stroke="#000000" cx="235.4391" cy="-357.9595" rx="3.2" ry="3.2"/>
</g>
</g>
</svg>
