<?xml version="1.0" encoding="UTF-8" standalone="no"?>
<!DOCTYPE svg PUBLIC "-//W3C//DTD SVG 1.1//EN"
 "http://www.w3.org/Graphics/SVG/1.1/DTD/svg11.dtd">
<!-- Generated by graphviz version 2.40.1 (20161225.0304)
 -->
<!-- Title: oneDegreeRelationshipsDiagram Pages: 1 -->
<svg width="431pt" height="272pt"
 viewBox="0.00 0.00 431.00 272.20" xmlns="http://www.w3.org/2000/svg" xmlns:xlink="http://www.w3.org/1999/xlink">
<g id="graph0" class="graph" transform="scale(1 1) rotate(0) translate(4 268.2)">
<title>oneDegreeRelationshipsDiagram</title>
<polygon fill="#ffffff" stroke="transparent" points="-4,4 -4,-268.2 427,-268.2 427,4 -4,4"/>
<text text-anchor="middle" x="72.4936" y="-7.3" font-family="Helvetica,sans-Serif" font-size="11.00" fill="#000000">Generated by SchemaSpy</text>
<!-- order_allocations -->
<g id="node1" class="node">
<title>order_allocations</title>
<g id="a_node1"><a xlink:href="../../tables/order_allocations.html" xlink:title="order_allocations" target="_top">
<polygon fill="#ffffff" stroke="transparent" points="172,-38.2 172,-260.2 415,-260.2 415,-38.2 172,-38.2"/>
<polygon fill="#f5f5f5" stroke="transparent" points="174.5,-235.2 174.5,-258.2 413.5,-258.2 413.5,-235.2 174.5,-235.2"/>
<polygon fill="none" stroke="#000000" points="174.5,-235.2 174.5,-258.2 413.5,-258.2 413.5,-235.2 174.5,-235.2"/>
<text text-anchor="start" x="179.5" y="-243.8" font-family="Helvetica,sans-Serif" font-weight="bold" font-size="11.00" fill="#000000">order_allocations</text>
<text text-anchor="start" x="378.5437" y="-243.3" font-family="Helvetica,sans-Serif" font-size="11.00" fill="#000000">[table]</text>
<polygon fill="none" stroke="#000000" points="174.5,-213.2 174.5,-235.2 321.5,-235.2 321.5,-213.2 174.5,-213.2"/>
<image xlink:href="../../images/primaryKeys.png" width="11px" height="12px" preserveAspectRatio="xMinYMin meet" x="179.5" y="-230.2"/>
<text text-anchor="start" x="194.5" y="-220.3" font-family="Helvetica,sans-Serif" font-size="11.00" fill="#000000">allocation_id</text>
<polygon fill="none" stroke="#000000" points="321.5,-213.2 321.5,-235.2 413.5,-235.2 413.5,-213.2 321.5,-213.2"/>
<text text-anchor="start" x="324.5" y="-220.9" font-family="Helvetica,sans-Serif" font-size="11.00" fill="#000000">int8[19]</text>
<polygon fill="none" stroke="#000000" points="174.5,-191.2 174.5,-213.2 321.5,-213.2 321.5,-191.2 174.5,-191.2"/>
<image xlink:href="../../images/foreignKeys.png" width="11px" height="12px" preserveAspectRatio="xMinYMin meet" x="179.5" y="-208.2"/>
<text text-anchor="start" x="194.5" y="-198.3" font-family="Helvetica,sans-Serif" font-size="11.00" fill="#000000">order_id</text>
<polygon fill="none" stroke="#000000" points="321.5,-191.2 321.5,-213.2 413.5,-213.2 413.5,-191.2 321.5,-191.2"/>
<text text-anchor="start" x="324.5" y="-198.9" font-family="Helvetica,sans-Serif" font-size="11.00" fill="#000000">int8[19]</text>
<polygon fill="none" stroke="#000000" points="174.5,-169.2 174.5,-191.2 321.5,-191.2 321.5,-169.2 174.5,-169.2"/>
<text text-anchor="start" x="194.5" y="-176.3" font-family="Helvetica,sans-Serif" font-size="11.00" fill="#000000">allocation_entity_type</text>
<polygon fill="none" stroke="#000000" points="321.5,-169.2 321.5,-191.2 413.5,-191.2 413.5,-169.2 321.5,-169.2"/>
<text text-anchor="start" x="324.5" y="-176.9" font-family="Helvetica,sans-Serif" font-size="11.00" fill="#000000">varchar[50]</text>
<polygon fill="none" stroke="#000000" points="174.5,-147.2 174.5,-169.2 321.5,-169.2 321.5,-147.2 174.5,-147.2"/>
<text text-anchor="start" x="194.5" y="-154.3" font-family="Helvetica,sans-Serif" font-size="11.00" fill="#000000">notes</text>
<polygon fill="none" stroke="#000000" points="321.5,-147.2 321.5,-169.2 413.5,-169.2 413.5,-147.2 321.5,-147.2"/>
<text text-anchor="start" x="324.5" y="-154.9" font-family="Helvetica,sans-Serif" font-size="11.00" fill="#000000">text[2147483647]</text>
<polygon fill="none" stroke="#000000" points="174.5,-125.2 174.5,-147.2 321.5,-147.2 321.5,-125.2 174.5,-125.2"/>
<text text-anchor="start" x="194.5" y="-132.3" font-family="Helvetica,sans-Serif" font-size="11.00" fill="#000000">created_at</text>
<polygon fill="none" stroke="#000000" points="321.5,-125.2 321.5,-147.2 413.5,-147.2 413.5,-125.2 321.5,-125.2"/>
<text text-anchor="start" x="324.1023" y="-132.9" font-family="Helvetica,sans-Serif" font-size="11.00" fill="#000000">timestamptz[35,6]</text>
<polygon fill="none" stroke="#000000" points="174.5,-103.2 174.5,-125.2 321.5,-125.2 321.5,-103.2 174.5,-103.2"/>
<text text-anchor="start" x="194.5" y="-110.3" font-family="Helvetica,sans-Serif" font-size="11.00" fill="#000000">updated_at</text>
<polygon fill="none" stroke="#000000" points="321.5,-103.2 321.5,-125.2 413.5,-125.2 413.5,-103.2 321.5,-103.2"/>
<text text-anchor="start" x="324.1023" y="-110.9" font-family="Helvetica,sans-Serif" font-size="11.00" fill="#000000">timestamptz[35,6]</text>
<polygon fill="none" stroke="#000000" points="174.5,-81.2 174.5,-103.2 321.5,-103.2 321.5,-81.2 174.5,-81.2"/>
<image xlink:href="../../images/foreignKeys.png" width="11px" height="12px" preserveAspectRatio="xMinYMin meet" x="179.5" y="-98.2"/>
<text text-anchor="start" x="194.5" y="-88.3" font-family="Helvetica,sans-Serif" font-size="11.00" fill="#000000">created_by</text>
<polygon fill="none" stroke="#000000" points="321.5,-81.2 321.5,-103.2 413.5,-103.2 413.5,-81.2 321.5,-81.2"/>
<text text-anchor="start" x="324.5" y="-88.9" font-family="Helvetica,sans-Serif" font-size="11.00" fill="#000000">int8[19]</text>
<polygon fill="none" stroke="#000000" points="174.5,-59.2 174.5,-81.2 321.5,-81.2 321.5,-59.2 174.5,-59.2"/>
<image xlink:href="../../images/foreignKeys.png" width="11px" height="12px" preserveAspectRatio="xMinYMin meet" x="179.5" y="-76.2"/>
<text text-anchor="start" x="194.5" y="-66.3" font-family="Helvetica,sans-Serif" font-size="11.00" fill="#000000">updated_by</text>
<polygon fill="none" stroke="#000000" points="321.5,-59.2 321.5,-81.2 413.5,-81.2 413.5,-59.2 321.5,-59.2"/>
<text text-anchor="start" x="324.5" y="-66.9" font-family="Helvetica,sans-Serif" font-size="11.00" fill="#000000">int8[19]</text>
<polygon fill="#ffffff" stroke="transparent" points="174.5,-40.2 174.5,-59.2 252.5,-59.2 252.5,-40.2 174.5,-40.2"/>
<polygon fill="none" stroke="#000000" points="174.5,-40.2 174.5,-59.2 252.5,-59.2 252.5,-40.2 174.5,-40.2"/>
<text text-anchor="start" x="177.5" y="-46.3" font-family="Helvetica,sans-Serif" font-size="11.00" fill="#000000">&lt; 3</text>
<polygon fill="#ffffff" stroke="transparent" points="252.5,-40.2 252.5,-59.2 321.5,-59.2 321.5,-40.2 252.5,-40.2"/>
<polygon fill="none" stroke="#000000" points="252.5,-40.2 252.5,-59.2 321.5,-59.2 321.5,-40.2 252.5,-40.2"/>
<text text-anchor="start" x="312.3862" y="-46.3" font-family="Helvetica,sans-Serif" font-size="11.00" fill="#000000"> &#160;</text>
<polygon fill="#ffffff" stroke="transparent" points="321.5,-40.2 321.5,-59.2 413.5,-59.2 413.5,-40.2 321.5,-40.2"/>
<polygon fill="none" stroke="#000000" points="321.5,-40.2 321.5,-59.2 413.5,-59.2 413.5,-40.2 321.5,-40.2"/>
<text text-anchor="start" x="394.9053" y="-46.3" font-family="Helvetica,sans-Serif" font-size="11.00" fill="#000000">0 &gt;</text>
<polygon fill="none" stroke="#000000" stroke-width="2" points="173,-39.2 173,-259.2 414,-259.2 414,-39.2 173,-39.2"/>
</a>
</g>
</g>
<!-- public.users -->
<g id="node2" class="node">
<title>public.users</title>
<g id="a_node2"><a xlink:href="../../../public/tables/users.html" xlink:title="public.users" target="_top">
<polygon fill="#ffffff" stroke="transparent" points="11,-50.7 11,-111.7 120,-111.7 120,-50.7 11,-50.7"/>
<polygon fill="#f5f5f5" stroke="transparent" points="11.5,-88.2 11.5,-111.2 120.5,-111.2 120.5,-88.2 11.5,-88.2"/>
<polygon fill="none" stroke="#000000" points="11.5,-88.2 11.5,-111.2 120.5,-111.2 120.5,-88.2 11.5,-88.2"/>
<text text-anchor="start" x="16.5" y="-96.8" font-family="Helvetica,sans-Serif" font-weight="bold" font-size="11.00" fill="#000000">public.users</text>
<text text-anchor="start" x="86.0219" y="-96.3" font-family="Helvetica,sans-Serif" font-size="11.00" fill="#000000">[table]</text>
<polygon fill="none" stroke="#000000" points="11.5,-69.2 11.5,-88.2 120.5,-88.2 120.5,-69.2 11.5,-69.2"/>
<text text-anchor="start" x="14.5" y="-75.3" font-family="Helvetica,sans-Serif" font-size="11.00" fill="#000000">...</text>
<polygon fill="#ffffff" stroke="transparent" points="11.5,-50.2 11.5,-69.2 42.5,-69.2 42.5,-50.2 11.5,-50.2"/>
<polygon fill="none" stroke="#000000" points="11.5,-50.2 11.5,-69.2 42.5,-69.2 42.5,-50.2 11.5,-50.2"/>
<text text-anchor="start" x="14.5" y="-56.3" font-family="Helvetica,sans-Serif" font-size="11.00" fill="#000000"> &#160;</text>
<polygon fill="#ffffff" stroke="transparent" points="42.5,-50.2 42.5,-69.2 89.5,-69.2 89.5,-50.2 42.5,-50.2"/>
<polygon fill="none" stroke="#000000" points="42.5,-50.2 42.5,-69.2 89.5,-69.2 89.5,-50.2 42.5,-50.2"/>
<text text-anchor="start" x="54.1105" y="-56.3" font-family="Helvetica,sans-Serif" font-size="11.00" fill="#000000">0 rows</text>
<polygon fill="#ffffff" stroke="transparent" points="89.5,-50.2 89.5,-69.2 120.5,-69.2 120.5,-50.2 89.5,-50.2"/>
<polygon fill="none" stroke="#000000" points="89.5,-50.2 89.5,-69.2 120.5,-69.2 120.5,-50.2 89.5,-50.2"/>
<text text-anchor="start" x="101.9053" y="-56.3" font-family="Helvetica,sans-Serif" font-size="11.00" fill="#000000">6 &gt;</text>
</a>
</g>
</g>
<!-- order_allocations&#45;&gt;public.users -->
<g id="edge1" class="edge">
<title>order_allocations:w&#45;&gt;public.users:e</title>
<path fill="none" stroke="#000000" d="M159.7902,-91.8988C149.2432,-91.4878 138.4977,-90.6885 128.2176,-89.7039"/>
<polygon fill="#000000" stroke="#000000" points="166.5017,-92.0362 174.4263,-95.7992 170.5008,-92.1181 174.5,-92.2 174.5,-92.2 174.5,-92.2 170.5008,-92.1181 174.5737,-88.6008 166.5017,-92.0362 166.5017,-92.0362"/>
<ellipse fill="none" stroke="#000000" cx="163.3023" cy="-91.9707" rx="3.2" ry="3.2"/>
</g>
<!-- order_allocations&#45;&gt;public.users -->
<g id="edge3" class="edge">
<title>order_allocations:w&#45;&gt;public.users:e</title>
<path fill="none" stroke="#000000" d="M159.7902,-70.5012C149.2432,-70.9122 138.4977,-71.7115 128.2176,-72.6961"/>
<polygon fill="#000000" stroke="#000000" points="166.5017,-70.3638 174.5737,-73.7992 170.5008,-70.2819 174.5,-70.2 174.5,-70.2 174.5,-70.2 170.5008,-70.2819 174.4263,-66.6008 166.5017,-70.3638 166.5017,-70.3638"/>
<ellipse fill="none" stroke="#000000" cx="163.3023" cy="-70.4293" rx="3.2" ry="3.2"/>
</g>
<!-- public.orders -->
<g id="node3" class="node">
<title>public.orders</title>
<g id="a_node3"><a xlink:href="../../../public/tables/orders.html" xlink:title="public.orders" target="_top">
<polygon fill="#ffffff" stroke="transparent" points="8,-171.7 8,-232.7 123,-232.7 123,-171.7 8,-171.7"/>
<polygon fill="#f5f5f5" stroke="transparent" points="8.5,-209.2 8.5,-232.2 123.5,-232.2 123.5,-209.2 8.5,-209.2"/>
<polygon fill="none" stroke="#000000" points="8.5,-209.2 8.5,-232.2 123.5,-232.2 123.5,-209.2 8.5,-209.2"/>
<text text-anchor="start" x="13.5" y="-217.8" font-family="Helvetica,sans-Serif" font-weight="bold" font-size="11.00" fill="#000000">public.orders</text>
<text text-anchor="start" x="89.0219" y="-217.3" font-family="Helvetica,sans-Serif" font-size="11.00" fill="#000000">[table]</text>
<polygon fill="none" stroke="#000000" points="8.5,-190.2 8.5,-209.2 123.5,-209.2 123.5,-190.2 8.5,-190.2"/>
<text text-anchor="start" x="11.5" y="-196.3" font-family="Helvetica,sans-Serif" font-size="11.00" fill="#000000">...</text>
<polygon fill="#ffffff" stroke="transparent" points="8.5,-171.2 8.5,-190.2 42.5,-190.2 42.5,-171.2 8.5,-171.2"/>
<polygon fill="none" stroke="#000000" points="8.5,-171.2 8.5,-190.2 42.5,-190.2 42.5,-171.2 8.5,-171.2"/>
<text text-anchor="start" x="11.5" y="-177.3" font-family="Helvetica,sans-Serif" font-size="11.00" fill="#000000"> &#160;</text>
<polygon fill="#ffffff" stroke="transparent" points="42.5,-171.2 42.5,-190.2 91.5,-190.2 91.5,-171.2 42.5,-171.2"/>
<polygon fill="none" stroke="#000000" points="42.5,-171.2 42.5,-190.2 91.5,-190.2 91.5,-171.2 42.5,-171.2"/>
<text text-anchor="start" x="56.1105" y="-177.3" font-family="Helvetica,sans-Serif" font-size="11.00" fill="#000000">0 rows</text>
<polygon fill="#ffffff" stroke="transparent" points="91.5,-171.2 91.5,-190.2 123.5,-190.2 123.5,-171.2 91.5,-171.2"/>
<polygon fill="none" stroke="#000000" points="91.5,-171.2 91.5,-190.2 123.5,-190.2 123.5,-171.2 91.5,-171.2"/>
<text text-anchor="start" x="104.9053" y="-177.3" font-family="Helvetica,sans-Serif" font-size="11.00" fill="#000000">3 &gt;</text>
</a>
</g>
</g>
<!-- order_allocations&#45;&gt;public.orders -->
<g id="edge2" class="edge">
<title>order_allocations:w&#45;&gt;public.orders:e</title>
<path fill="none" stroke="#000000" d="M159.7715,-202.2C150.2612,-202.2 140.575,-202.2 131.2088,-202.2"/>
<polygon fill="#000000" stroke="#000000" points="166.5,-202.2001 174.5,-205.8 170.5,-202.2 174.5,-202.2 174.5,-202.2 174.5,-202.2 170.5,-202.2 174.5,-198.6 166.5,-202.2001 166.5,-202.2001"/>
<ellipse fill="none" stroke="#000000" cx="163.3" cy="-202.2001" rx="3.2" ry="3.2"/>
</g>
</g>
</svg>
