<?xml version="1.0" encoding="UTF-8" standalone="no"?>
<!DOCTYPE svg PUBLIC "-//W3C//DTD SVG 1.1//EN"
 "http://www.w3.org/Graphics/SVG/1.1/DTD/svg11.dtd">
<!-- Generated by graphviz version 2.40.1 (20161225.0304)
 -->
<!-- Title: twoDegreesRelationshipsDiagram Pages: 1 -->
<svg width="418pt" height="459pt"
 viewBox="0.00 0.00 418.00 458.70" xmlns="http://www.w3.org/2000/svg" xmlns:xlink="http://www.w3.org/1999/xlink">
<g id="graph0" class="graph" transform="scale(1 1) rotate(0) translate(4 454.7)">
<title>twoDegreesRelationshipsDiagram</title>
<polygon fill="#ffffff" stroke="transparent" points="-4,4 -4,-454.7 414,-454.7 414,4 -4,4"/>
<text text-anchor="middle" x="72.4936" y="-7.3" font-family="Helvetica,sans-Serif" font-size="11.00" fill="#000000">Generated by SchemaSpy</text>
<!-- delivery_appointments -->
<g id="node1" class="node">
<title>delivery_appointments</title>
<g id="a_node1"><a xlink:href="../../tables/delivery_appointments.html" xlink:title="delivery_appointments" target="_top">
<polygon fill="#ffffff" stroke="transparent" points="202.5,-38.2 202.5,-99.2 371.5,-99.2 371.5,-38.2 202.5,-38.2"/>
<polygon fill="#f5f5f5" stroke="transparent" points="203,-75.7 203,-98.7 372,-98.7 372,-75.7 203,-75.7"/>
<polygon fill="none" stroke="#000000" points="203,-75.7 203,-98.7 372,-98.7 372,-75.7 203,-75.7"/>
<text text-anchor="start" x="208" y="-84.3" font-family="Helvetica,sans-Serif" font-weight="bold" font-size="11.00" fill="#000000">delivery_appointments</text>
<text text-anchor="start" x="337.5219" y="-83.8" font-family="Helvetica,sans-Serif" font-size="11.00" fill="#000000">[table]</text>
<polygon fill="none" stroke="#000000" points="203,-56.7 203,-75.7 372,-75.7 372,-56.7 203,-56.7"/>
<text text-anchor="start" x="206" y="-62.8" font-family="Helvetica,sans-Serif" font-size="11.00" fill="#000000">...</text>
<polygon fill="#ffffff" stroke="transparent" points="203,-37.7 203,-56.7 273,-56.7 273,-37.7 203,-37.7"/>
<polygon fill="none" stroke="#000000" points="203,-37.7 203,-56.7 273,-56.7 273,-37.7 203,-37.7"/>
<text text-anchor="start" x="206" y="-43.8" font-family="Helvetica,sans-Serif" font-size="11.00" fill="#000000">&lt; 5</text>
<polygon fill="#ffffff" stroke="transparent" points="273,-37.7 273,-56.7 335,-56.7 335,-37.7 273,-37.7"/>
<polygon fill="none" stroke="#000000" points="273,-37.7 273,-56.7 335,-56.7 335,-37.7 273,-37.7"/>
<text text-anchor="start" x="299.6105" y="-43.8" font-family="Helvetica,sans-Serif" font-size="11.00" fill="#000000">0 rows</text>
<polygon fill="#ffffff" stroke="transparent" points="335,-37.7 335,-56.7 372,-56.7 372,-37.7 335,-37.7"/>
<polygon fill="none" stroke="#000000" points="335,-37.7 335,-56.7 372,-56.7 372,-37.7 335,-37.7"/>
<text text-anchor="start" x="362.8862" y="-43.8" font-family="Helvetica,sans-Serif" font-size="11.00" fill="#000000"> &#160;</text>
</a>
</g>
</g>
<!-- public.users -->
<g id="node2" class="node">
<title>public.users</title>
<g id="a_node2"><a xlink:href="../../../public/tables/users.html" xlink:title="public.users" target="_top">
<polygon fill="#ffffff" stroke="transparent" points="11,-117.2 11,-178.2 120,-178.2 120,-117.2 11,-117.2"/>
<polygon fill="#f5f5f5" stroke="transparent" points="11.5,-154.7 11.5,-177.7 120.5,-177.7 120.5,-154.7 11.5,-154.7"/>
<polygon fill="none" stroke="#000000" points="11.5,-154.7 11.5,-177.7 120.5,-177.7 120.5,-154.7 11.5,-154.7"/>
<text text-anchor="start" x="16.5" y="-163.3" font-family="Helvetica,sans-Serif" font-weight="bold" font-size="11.00" fill="#000000">public.users</text>
<text text-anchor="start" x="86.0219" y="-162.8" font-family="Helvetica,sans-Serif" font-size="11.00" fill="#000000">[table]</text>
<polygon fill="none" stroke="#000000" points="11.5,-135.7 11.5,-154.7 120.5,-154.7 120.5,-135.7 11.5,-135.7"/>
<text text-anchor="start" x="14.5" y="-141.8" font-family="Helvetica,sans-Serif" font-size="11.00" fill="#000000">...</text>
<polygon fill="#ffffff" stroke="transparent" points="11.5,-116.7 11.5,-135.7 42.5,-135.7 42.5,-116.7 11.5,-116.7"/>
<polygon fill="none" stroke="#000000" points="11.5,-116.7 11.5,-135.7 42.5,-135.7 42.5,-116.7 11.5,-116.7"/>
<text text-anchor="start" x="14.5" y="-122.8" font-family="Helvetica,sans-Serif" font-size="11.00" fill="#000000"> &#160;</text>
<polygon fill="#ffffff" stroke="transparent" points="42.5,-116.7 42.5,-135.7 89.5,-135.7 89.5,-116.7 42.5,-116.7"/>
<polygon fill="none" stroke="#000000" points="42.5,-116.7 42.5,-135.7 89.5,-135.7 89.5,-116.7 42.5,-116.7"/>
<text text-anchor="start" x="54.1105" y="-122.8" font-family="Helvetica,sans-Serif" font-size="11.00" fill="#000000">0 rows</text>
<polygon fill="#ffffff" stroke="transparent" points="89.5,-116.7 89.5,-135.7 120.5,-135.7 120.5,-116.7 89.5,-116.7"/>
<polygon fill="none" stroke="#000000" points="89.5,-116.7 89.5,-135.7 120.5,-135.7 120.5,-116.7 89.5,-116.7"/>
<text text-anchor="start" x="101.9053" y="-122.8" font-family="Helvetica,sans-Serif" font-size="11.00" fill="#000000">6 &gt;</text>
</a>
</g>
</g>
<!-- delivery_appointments&#45;&gt;public.users -->
<g id="edge1" class="edge">
<title>delivery_appointments:w&#45;&gt;public.users:e</title>
<path fill="none" stroke="#000000" d="M188.3826,-65.6593C151.9496,-68.4343 117.9533,-91.8695 94.9967,-113.0382"/>
<polygon fill="#000000" stroke="#000000" points="195,-65.6777 202.99,-69.3 199,-65.6888 203,-65.7 203,-65.7 203,-65.7 199,-65.6888 203.01,-62.1 195,-65.6777 195,-65.6777"/>
<ellipse fill="none" stroke="#000000" cx="191.8" cy="-65.6688" rx="3.2" ry="3.2"/>
</g>
<!-- delivery_appointments&#45;&gt;public.users -->
<g id="edge3" class="edge">
<title>delivery_appointments:w&#45;&gt;public.users:e</title>
<path fill="none" stroke="#000000" d="M188.6333,-68.1022C157.5916,-75.3537 128.3033,-95.0918 106.0848,-113.149"/>
<polygon fill="#000000" stroke="#000000" points="195.1095,-67.0194 203.5937,-69.2507 199.0548,-66.3597 203,-65.7 203,-65.7 203,-65.7 199.0548,-66.3597 202.4063,-62.1493 195.1095,-67.0194 195.1095,-67.0194"/>
<ellipse fill="none" stroke="#000000" cx="191.9534" cy="-67.5471" rx="3.2" ry="3.2"/>
</g>
<!-- public.orders -->
<g id="node3" class="node">
<title>public.orders</title>
<g id="a_node3"><a xlink:href="../../../public/tables/orders.html" xlink:title="public.orders" target="_top">
<polygon fill="#ffffff" stroke="transparent" points="8,-199.2 8,-260.2 123,-260.2 123,-199.2 8,-199.2"/>
<polygon fill="#f5f5f5" stroke="transparent" points="8.5,-236.7 8.5,-259.7 123.5,-259.7 123.5,-236.7 8.5,-236.7"/>
<polygon fill="none" stroke="#000000" points="8.5,-236.7 8.5,-259.7 123.5,-259.7 123.5,-236.7 8.5,-236.7"/>
<text text-anchor="start" x="13.5" y="-245.3" font-family="Helvetica,sans-Serif" font-weight="bold" font-size="11.00" fill="#000000">public.orders</text>
<text text-anchor="start" x="89.0219" y="-244.8" font-family="Helvetica,sans-Serif" font-size="11.00" fill="#000000">[table]</text>
<polygon fill="none" stroke="#000000" points="8.5,-217.7 8.5,-236.7 123.5,-236.7 123.5,-217.7 8.5,-217.7"/>
<text text-anchor="start" x="11.5" y="-223.8" font-family="Helvetica,sans-Serif" font-size="11.00" fill="#000000">...</text>
<polygon fill="#ffffff" stroke="transparent" points="8.5,-198.7 8.5,-217.7 42.5,-217.7 42.5,-198.7 8.5,-198.7"/>
<polygon fill="none" stroke="#000000" points="8.5,-198.7 8.5,-217.7 42.5,-217.7 42.5,-198.7 8.5,-198.7"/>
<text text-anchor="start" x="11.5" y="-204.8" font-family="Helvetica,sans-Serif" font-size="11.00" fill="#000000"> &#160;</text>
<polygon fill="#ffffff" stroke="transparent" points="42.5,-198.7 42.5,-217.7 91.5,-217.7 91.5,-198.7 42.5,-198.7"/>
<polygon fill="none" stroke="#000000" points="42.5,-198.7 42.5,-217.7 91.5,-217.7 91.5,-198.7 42.5,-198.7"/>
<text text-anchor="start" x="56.1105" y="-204.8" font-family="Helvetica,sans-Serif" font-size="11.00" fill="#000000">0 rows</text>
<polygon fill="#ffffff" stroke="transparent" points="91.5,-198.7 91.5,-217.7 123.5,-217.7 123.5,-198.7 91.5,-198.7"/>
<polygon fill="none" stroke="#000000" points="91.5,-198.7 91.5,-217.7 123.5,-217.7 123.5,-198.7 91.5,-198.7"/>
<text text-anchor="start" x="104.9053" y="-204.8" font-family="Helvetica,sans-Serif" font-size="11.00" fill="#000000">3 &gt;</text>
</a>
</g>
</g>
<!-- delivery_appointments&#45;&gt;public.orders -->
<g id="edge2" class="edge">
<title>delivery_appointments:w&#45;&gt;public.orders:e</title>
<path fill="none" stroke="#000000" d="M188.6815,-67.2909C144.6707,-78.344 168.4596,-144.55 131,-188.7 129.0905,-190.9505 127.0255,-193.117 124.8458,-195.1973"/>
<polygon fill="#000000" stroke="#000000" points="195.0489,-66.5835 203.3976,-69.278 199.0245,-66.1417 203,-65.7 203,-65.7 203,-65.7 199.0245,-66.1417 202.6024,-62.122 195.0489,-66.5835 195.0489,-66.5835"/>
<ellipse fill="none" stroke="#000000" cx="191.8685" cy="-66.9368" rx="3.2" ry="3.2"/>
</g>
<!-- order_allocations -->
<g id="node4" class="node">
<title>order_allocations</title>
<g id="a_node4"><a xlink:href="../../tables/order_allocations.html" xlink:title="order_allocations" target="_top">
<polygon fill="#ffffff" stroke="transparent" points="217.5,-120.2 217.5,-181.2 356.5,-181.2 356.5,-120.2 217.5,-120.2"/>
<polygon fill="#f5f5f5" stroke="transparent" points="218,-157.7 218,-180.7 357,-180.7 357,-157.7 218,-157.7"/>
<polygon fill="none" stroke="#000000" points="218,-157.7 218,-180.7 357,-180.7 357,-157.7 218,-157.7"/>
<text text-anchor="start" x="223" y="-166.3" font-family="Helvetica,sans-Serif" font-weight="bold" font-size="11.00" fill="#000000">order_allocations</text>
<text text-anchor="start" x="322.5219" y="-165.8" font-family="Helvetica,sans-Serif" font-size="11.00" fill="#000000">[table]</text>
<polygon fill="none" stroke="#000000" points="218,-138.7 218,-157.7 357,-157.7 357,-138.7 218,-138.7"/>
<text text-anchor="start" x="221" y="-144.8" font-family="Helvetica,sans-Serif" font-size="11.00" fill="#000000">...</text>
<polygon fill="#ffffff" stroke="transparent" points="218,-119.7 218,-138.7 286,-138.7 286,-119.7 218,-119.7"/>
<polygon fill="none" stroke="#000000" points="218,-119.7 218,-138.7 286,-138.7 286,-119.7 218,-119.7"/>
<text text-anchor="start" x="221" y="-125.8" font-family="Helvetica,sans-Serif" font-size="11.00" fill="#000000">&lt; 3</text>
<polygon fill="#ffffff" stroke="transparent" points="286,-119.7 286,-138.7 321,-138.7 321,-119.7 286,-119.7"/>
<polygon fill="none" stroke="#000000" points="286,-119.7 286,-138.7 321,-138.7 321,-119.7 286,-119.7"/>
<text text-anchor="start" x="311.8862" y="-125.8" font-family="Helvetica,sans-Serif" font-size="11.00" fill="#000000"> &#160;</text>
<polygon fill="#ffffff" stroke="transparent" points="321,-119.7 321,-138.7 357,-138.7 357,-119.7 321,-119.7"/>
<polygon fill="none" stroke="#000000" points="321,-119.7 321,-138.7 357,-138.7 357,-119.7 321,-119.7"/>
<text text-anchor="start" x="347.8862" y="-125.8" font-family="Helvetica,sans-Serif" font-size="11.00" fill="#000000"> &#160;</text>
</a>
</g>
</g>
<!-- order_allocations&#45;&gt;public.users -->
<g id="edge4" class="edge">
<title>order_allocations:w&#45;&gt;public.users:e</title>
<path fill="none" stroke="#000000" d="M203.6035,-146.532C178.1273,-144.6434 151.3327,-143.5577 128.1957,-143.2748"/>
<polygon fill="#000000" stroke="#000000" points="210.0262,-147.053 217.7089,-151.2882 214.0131,-147.3765 218,-147.7 218,-147.7 218,-147.7 214.0131,-147.3765 218.2911,-144.1118 210.0262,-147.053 210.0262,-147.053"/>
<ellipse fill="none" stroke="#000000" cx="206.8367" cy="-146.7942" rx="3.2" ry="3.2"/>
</g>
<!-- order_allocations&#45;&gt;public.users -->
<g id="edge6" class="edge">
<title>order_allocations:w&#45;&gt;public.users:e</title>
<path fill="none" stroke="#000000" d="M203.6035,-149.0627C178.1273,-151.266 151.3327,-152.5327 128.1957,-152.8628"/>
<polygon fill="#000000" stroke="#000000" points="210.0356,-148.4539 218.3393,-151.284 214.0178,-148.077 218,-147.7 218,-147.7 218,-147.7 214.0178,-148.077 217.6607,-144.116 210.0356,-148.4539 210.0356,-148.4539"/>
<ellipse fill="none" stroke="#000000" cx="206.8498" cy="-148.7555" rx="3.2" ry="3.2"/>
</g>
<!-- order_allocations&#45;&gt;public.orders -->
<g id="edge5" class="edge">
<title>order_allocations:w&#45;&gt;public.orders:e</title>
<path fill="none" stroke="#000000" d="M204.1454,-151.9646C185.064,-160.061 152.2599,-178.3548 123.3499,-195.1623"/>
<polygon fill="#000000" stroke="#000000" points="210.354,-150.0535 219.0591,-151.1407 214.177,-148.8768 218,-147.7 218,-147.7 218,-147.7 214.177,-148.8768 216.9409,-144.2593 210.354,-150.0535 210.354,-150.0535"/>
<ellipse fill="none" stroke="#000000" cx="207.2956" cy="-150.995" rx="3.2" ry="3.2"/>
</g>
<!-- order_requirements -->
<g id="node5" class="node">
<title>order_requirements</title>
<g id="a_node5"><a xlink:href="../../tables/order_requirements.html" xlink:title="order_requirements" target="_top">
<polygon fill="#ffffff" stroke="transparent" points="172,-202.7 172,-446.7 402,-446.7 402,-202.7 172,-202.7"/>
<polygon fill="#f5f5f5" stroke="transparent" points="174,-421.7 174,-444.7 400,-444.7 400,-421.7 174,-421.7"/>
<polygon fill="none" stroke="#000000" points="174,-421.7 174,-444.7 400,-444.7 400,-421.7 174,-421.7"/>
<text text-anchor="start" x="179" y="-430.3" font-family="Helvetica,sans-Serif" font-weight="bold" font-size="11.00" fill="#000000">order_requirements</text>
<text text-anchor="start" x="365.0437" y="-429.8" font-family="Helvetica,sans-Serif" font-size="11.00" fill="#000000">[table]</text>
<polygon fill="none" stroke="#000000" points="174,-399.7 174,-421.7 308,-421.7 308,-399.7 174,-399.7"/>
<image xlink:href="../../images/primaryKeys.png" width="11px" height="12px" preserveAspectRatio="xMinYMin meet" x="179" y="-416.7"/>
<text text-anchor="start" x="194" y="-406.8" font-family="Helvetica,sans-Serif" font-size="11.00" fill="#000000">requirement_id</text>
<polygon fill="none" stroke="#000000" points="308,-399.7 308,-421.7 400,-421.7 400,-399.7 308,-399.7"/>
<text text-anchor="start" x="311" y="-407.4" font-family="Helvetica,sans-Serif" font-size="11.00" fill="#000000">int8[19]</text>
<polygon fill="none" stroke="#000000" points="174,-377.7 174,-399.7 308,-399.7 308,-377.7 174,-377.7"/>
<image xlink:href="../../images/foreignKeys.png" width="11px" height="12px" preserveAspectRatio="xMinYMin meet" x="179" y="-394.7"/>
<text text-anchor="start" x="194" y="-384.8" font-family="Helvetica,sans-Serif" font-size="11.00" fill="#000000">order_id</text>
<polygon fill="none" stroke="#000000" points="308,-377.7 308,-399.7 400,-399.7 400,-377.7 308,-377.7"/>
<text text-anchor="start" x="311" y="-385.4" font-family="Helvetica,sans-Serif" font-size="11.00" fill="#000000">int8[19]</text>
<polygon fill="none" stroke="#000000" points="174,-355.7 174,-377.7 308,-377.7 308,-355.7 174,-355.7"/>
<text text-anchor="start" x="194" y="-362.8" font-family="Helvetica,sans-Serif" font-size="11.00" fill="#000000">requirement_type</text>
<polygon fill="none" stroke="#000000" points="308,-355.7 308,-377.7 400,-377.7 400,-355.7 308,-355.7"/>
<text text-anchor="start" x="311" y="-363.4" font-family="Helvetica,sans-Serif" font-size="11.00" fill="#000000">varchar[50]</text>
<polygon fill="none" stroke="#000000" points="174,-333.7 174,-355.7 308,-355.7 308,-333.7 174,-333.7"/>
<text text-anchor="start" x="194" y="-340.8" font-family="Helvetica,sans-Serif" font-size="11.00" fill="#000000">requirement_value</text>
<polygon fill="none" stroke="#000000" points="308,-333.7 308,-355.7 400,-355.7 400,-333.7 308,-333.7"/>
<text text-anchor="start" x="311" y="-341.4" font-family="Helvetica,sans-Serif" font-size="11.00" fill="#000000">text[2147483647]</text>
<polygon fill="none" stroke="#000000" points="174,-311.7 174,-333.7 308,-333.7 308,-311.7 174,-311.7"/>
<text text-anchor="start" x="194" y="-318.8" font-family="Helvetica,sans-Serif" font-size="11.00" fill="#000000">notes</text>
<polygon fill="none" stroke="#000000" points="308,-311.7 308,-333.7 400,-333.7 400,-311.7 308,-311.7"/>
<text text-anchor="start" x="311" y="-319.4" font-family="Helvetica,sans-Serif" font-size="11.00" fill="#000000">text[2147483647]</text>
<polygon fill="none" stroke="#000000" points="174,-289.7 174,-311.7 308,-311.7 308,-289.7 174,-289.7"/>
<text text-anchor="start" x="194" y="-296.8" font-family="Helvetica,sans-Serif" font-size="11.00" fill="#000000">created_at</text>
<polygon fill="none" stroke="#000000" points="308,-289.7 308,-311.7 400,-311.7 400,-289.7 308,-289.7"/>
<text text-anchor="start" x="310.6023" y="-297.4" font-family="Helvetica,sans-Serif" font-size="11.00" fill="#000000">timestamptz[35,6]</text>
<polygon fill="none" stroke="#000000" points="174,-267.7 174,-289.7 308,-289.7 308,-267.7 174,-267.7"/>
<text text-anchor="start" x="194" y="-274.8" font-family="Helvetica,sans-Serif" font-size="11.00" fill="#000000">updated_at</text>
<polygon fill="none" stroke="#000000" points="308,-267.7 308,-289.7 400,-289.7 400,-267.7 308,-267.7"/>
<text text-anchor="start" x="310.6023" y="-275.4" font-family="Helvetica,sans-Serif" font-size="11.00" fill="#000000">timestamptz[35,6]</text>
<polygon fill="none" stroke="#000000" points="174,-245.7 174,-267.7 308,-267.7 308,-245.7 174,-245.7"/>
<image xlink:href="../../images/foreignKeys.png" width="11px" height="12px" preserveAspectRatio="xMinYMin meet" x="179" y="-262.7"/>
<text text-anchor="start" x="194" y="-252.8" font-family="Helvetica,sans-Serif" font-size="11.00" fill="#000000">created_by</text>
<polygon fill="none" stroke="#000000" points="308,-245.7 308,-267.7 400,-267.7 400,-245.7 308,-245.7"/>
<text text-anchor="start" x="311" y="-253.4" font-family="Helvetica,sans-Serif" font-size="11.00" fill="#000000">int8[19]</text>
<polygon fill="none" stroke="#000000" points="174,-223.7 174,-245.7 308,-245.7 308,-223.7 174,-223.7"/>
<image xlink:href="../../images/foreignKeys.png" width="11px" height="12px" preserveAspectRatio="xMinYMin meet" x="179" y="-240.7"/>
<text text-anchor="start" x="194" y="-230.8" font-family="Helvetica,sans-Serif" font-size="11.00" fill="#000000">updated_by</text>
<polygon fill="none" stroke="#000000" points="308,-223.7 308,-245.7 400,-245.7 400,-223.7 308,-223.7"/>
<text text-anchor="start" x="311" y="-231.4" font-family="Helvetica,sans-Serif" font-size="11.00" fill="#000000">int8[19]</text>
<polygon fill="#ffffff" stroke="transparent" points="174,-204.7 174,-223.7 245,-223.7 245,-204.7 174,-204.7"/>
<polygon fill="none" stroke="#000000" points="174,-204.7 174,-223.7 245,-223.7 245,-204.7 174,-204.7"/>
<text text-anchor="start" x="177" y="-210.8" font-family="Helvetica,sans-Serif" font-size="11.00" fill="#000000">&lt; 3</text>
<polygon fill="#ffffff" stroke="transparent" points="245,-204.7 245,-223.7 308,-223.7 308,-204.7 245,-204.7"/>
<polygon fill="none" stroke="#000000" points="245,-204.7 245,-223.7 308,-223.7 308,-204.7 245,-204.7"/>
<text text-anchor="start" x="298.8862" y="-210.8" font-family="Helvetica,sans-Serif" font-size="11.00" fill="#000000"> &#160;</text>
<polygon fill="#ffffff" stroke="transparent" points="308,-204.7 308,-223.7 400,-223.7 400,-204.7 308,-204.7"/>
<polygon fill="none" stroke="#000000" points="308,-204.7 308,-223.7 400,-223.7 400,-204.7 308,-204.7"/>
<text text-anchor="start" x="381.4053" y="-210.8" font-family="Helvetica,sans-Serif" font-size="11.00" fill="#000000">0 &gt;</text>
<polygon fill="none" stroke="#000000" stroke-width="2" points="173,-203.7 173,-445.7 401,-445.7 401,-203.7 173,-203.7"/>
</a>
</g>
</g>
<!-- order_requirements&#45;&gt;public.users -->
<g id="edge7" class="edge">
<title>order_requirements:w&#45;&gt;public.users:e</title>
<path fill="none" stroke="#000000" d="M159.8414,-253.2156C143.1808,-242.515 151.9867,-209.5907 131,-188.7 128.8132,-186.5232 126.4906,-184.4065 124.0743,-182.3569"/>
<polygon fill="#000000" stroke="#000000" points="166.2318,-254.7882 173.1397,-260.1957 170.1159,-255.7441 174,-256.7 174,-256.7 174,-256.7 170.1159,-255.7441 174.8603,-253.2043 166.2318,-254.7882 166.2318,-254.7882"/>
<ellipse fill="none" stroke="#000000" cx="163.1245" cy="-254.0235" rx="3.2" ry="3.2"/>
</g>
<!-- order_requirements&#45;&gt;public.users -->
<g id="edge9" class="edge">
<title>order_requirements:w&#45;&gt;public.users:e</title>
<path fill="none" stroke="#000000" d="M159.9401,-231.0554C147.5462,-222.859 147.8738,-202.6036 131,-188.7 128.4116,-186.5672 125.7041,-184.46 122.9254,-182.3937"/>
<polygon fill="#000000" stroke="#000000" points="166.2559,-232.6926 173.0967,-238.1848 170.128,-233.6963 174,-234.7 174,-234.7 174,-234.7 170.128,-233.6963 174.9033,-231.2152 166.2559,-232.6926 166.2559,-232.6926"/>
<ellipse fill="none" stroke="#000000" cx="163.1583" cy="-231.8896" rx="3.2" ry="3.2"/>
</g>
<!-- order_requirements&#45;&gt;public.orders -->
<g id="edge8" class="edge">
<title>order_requirements:w&#45;&gt;public.orders:e</title>
<path fill="none" stroke="#000000" d="M159.5679,-387.1195C109.3939,-375.8612 83.947,-307.0364 72.8074,-264.2006"/>
<polygon fill="#000000" stroke="#000000" points="166.0475,-387.829 173.6081,-392.2786 170.0238,-388.2645 174,-388.7 174,-388.7 174,-388.7 170.0238,-388.2645 174.3919,-385.1214 166.0475,-387.829 166.0475,-387.829"/>
<ellipse fill="none" stroke="#000000" cx="162.8666" cy="-387.4807" rx="3.2" ry="3.2"/>
</g>
</g>
</svg>
