<?xml version="1.0" encoding="UTF-8" standalone="no"?>
<!DOCTYPE svg PUBLIC "-//W3C//DTD SVG 1.1//EN"
 "http://www.w3.org/Graphics/SVG/1.1/DTD/svg11.dtd">
<!-- Generated by graphviz version 2.40.1 (20161225.0304)
 -->
<!-- Title: twoDegreesRelationshipsDiagram Pages: 1 -->
<svg width="431pt" height="437pt"
 viewBox="0.00 0.00 431.00 436.70" xmlns="http://www.w3.org/2000/svg" xmlns:xlink="http://www.w3.org/1999/xlink">
<g id="graph0" class="graph" transform="scale(1 1) rotate(0) translate(4 432.7)">
<title>twoDegreesRelationshipsDiagram</title>
<polygon fill="#ffffff" stroke="transparent" points="-4,4 -4,-432.7 427,-432.7 427,4 -4,4"/>
<text text-anchor="middle" x="72.4936" y="-7.3" font-family="Helvetica,sans-Serif" font-size="11.00" fill="#000000">Generated by SchemaSpy</text>
<!-- delivery_appointments -->
<g id="node1" class="node">
<title>delivery_appointments</title>
<g id="a_node1"><a xlink:href="../../tables/delivery_appointments.html" xlink:title="delivery_appointments" target="_top">
<polygon fill="#ffffff" stroke="transparent" points="209,-38.2 209,-99.2 378,-99.2 378,-38.2 209,-38.2"/>
<polygon fill="#f5f5f5" stroke="transparent" points="209.5,-75.7 209.5,-98.7 378.5,-98.7 378.5,-75.7 209.5,-75.7"/>
<polygon fill="none" stroke="#000000" points="209.5,-75.7 209.5,-98.7 378.5,-98.7 378.5,-75.7 209.5,-75.7"/>
<text text-anchor="start" x="214.5" y="-84.3" font-family="Helvetica,sans-Serif" font-weight="bold" font-size="11.00" fill="#000000">delivery_appointments</text>
<text text-anchor="start" x="344.0219" y="-83.8" font-family="Helvetica,sans-Serif" font-size="11.00" fill="#000000">[table]</text>
<polygon fill="none" stroke="#000000" points="209.5,-56.7 209.5,-75.7 378.5,-75.7 378.5,-56.7 209.5,-56.7"/>
<text text-anchor="start" x="212.5" y="-62.8" font-family="Helvetica,sans-Serif" font-size="11.00" fill="#000000">...</text>
<polygon fill="#ffffff" stroke="transparent" points="209.5,-37.7 209.5,-56.7 279.5,-56.7 279.5,-37.7 209.5,-37.7"/>
<polygon fill="none" stroke="#000000" points="209.5,-37.7 209.5,-56.7 279.5,-56.7 279.5,-37.7 209.5,-37.7"/>
<text text-anchor="start" x="212.5" y="-43.8" font-family="Helvetica,sans-Serif" font-size="11.00" fill="#000000">&lt; 5</text>
<polygon fill="#ffffff" stroke="transparent" points="279.5,-37.7 279.5,-56.7 341.5,-56.7 341.5,-37.7 279.5,-37.7"/>
<polygon fill="none" stroke="#000000" points="279.5,-37.7 279.5,-56.7 341.5,-56.7 341.5,-37.7 279.5,-37.7"/>
<text text-anchor="start" x="306.1105" y="-43.8" font-family="Helvetica,sans-Serif" font-size="11.00" fill="#000000">0 rows</text>
<polygon fill="#ffffff" stroke="transparent" points="341.5,-37.7 341.5,-56.7 378.5,-56.7 378.5,-37.7 341.5,-37.7"/>
<polygon fill="none" stroke="#000000" points="341.5,-37.7 341.5,-56.7 378.5,-56.7 378.5,-37.7 341.5,-37.7"/>
<text text-anchor="start" x="369.3862" y="-43.8" font-family="Helvetica,sans-Serif" font-size="11.00" fill="#000000"> &#160;</text>
</a>
</g>
</g>
<!-- public.users -->
<g id="node2" class="node">
<title>public.users</title>
<g id="a_node2"><a xlink:href="../../../public/tables/users.html" xlink:title="public.users" target="_top">
<polygon fill="#ffffff" stroke="transparent" points="11,-117.2 11,-178.2 120,-178.2 120,-117.2 11,-117.2"/>
<polygon fill="#f5f5f5" stroke="transparent" points="11.5,-154.7 11.5,-177.7 120.5,-177.7 120.5,-154.7 11.5,-154.7"/>
<polygon fill="none" stroke="#000000" points="11.5,-154.7 11.5,-177.7 120.5,-177.7 120.5,-154.7 11.5,-154.7"/>
<text text-anchor="start" x="16.5" y="-163.3" font-family="Helvetica,sans-Serif" font-weight="bold" font-size="11.00" fill="#000000">public.users</text>
<text text-anchor="start" x="86.0219" y="-162.8" font-family="Helvetica,sans-Serif" font-size="11.00" fill="#000000">[table]</text>
<polygon fill="none" stroke="#000000" points="11.5,-135.7 11.5,-154.7 120.5,-154.7 120.5,-135.7 11.5,-135.7"/>
<text text-anchor="start" x="14.5" y="-141.8" font-family="Helvetica,sans-Serif" font-size="11.00" fill="#000000">...</text>
<polygon fill="#ffffff" stroke="transparent" points="11.5,-116.7 11.5,-135.7 42.5,-135.7 42.5,-116.7 11.5,-116.7"/>
<polygon fill="none" stroke="#000000" points="11.5,-116.7 11.5,-135.7 42.5,-135.7 42.5,-116.7 11.5,-116.7"/>
<text text-anchor="start" x="14.5" y="-122.8" font-family="Helvetica,sans-Serif" font-size="11.00" fill="#000000"> &#160;</text>
<polygon fill="#ffffff" stroke="transparent" points="42.5,-116.7 42.5,-135.7 89.5,-135.7 89.5,-116.7 42.5,-116.7"/>
<polygon fill="none" stroke="#000000" points="42.5,-116.7 42.5,-135.7 89.5,-135.7 89.5,-116.7 42.5,-116.7"/>
<text text-anchor="start" x="54.1105" y="-122.8" font-family="Helvetica,sans-Serif" font-size="11.00" fill="#000000">0 rows</text>
<polygon fill="#ffffff" stroke="transparent" points="89.5,-116.7 89.5,-135.7 120.5,-135.7 120.5,-116.7 89.5,-116.7"/>
<polygon fill="none" stroke="#000000" points="89.5,-116.7 89.5,-135.7 120.5,-135.7 120.5,-116.7 89.5,-116.7"/>
<text text-anchor="start" x="101.9053" y="-122.8" font-family="Helvetica,sans-Serif" font-size="11.00" fill="#000000">6 &gt;</text>
</a>
</g>
</g>
<!-- delivery_appointments&#45;&gt;public.users -->
<g id="edge1" class="edge">
<title>delivery_appointments:w&#45;&gt;public.users:e</title>
<path fill="none" stroke="#000000" d="M194.8493,-65.6237C156.8405,-68.2269 120.9415,-91.7758 96.6509,-113.0382"/>
<polygon fill="#000000" stroke="#000000" points="201.5001,-65.6583 209.4812,-69.3 205.5001,-65.6791 209.5,-65.7 209.5,-65.7 209.5,-65.7 205.5001,-65.6791 209.5188,-62.1 201.5001,-65.6583 201.5001,-65.6583"/>
<ellipse fill="none" stroke="#000000" cx="198.3002" cy="-65.6416" rx="3.2" ry="3.2"/>
</g>
<!-- delivery_appointments&#45;&gt;public.users -->
<g id="edge3" class="edge">
<title>delivery_appointments:w&#45;&gt;public.users:e</title>
<path fill="none" stroke="#000000" d="M195.0429,-68.005C162.6597,-75.1758 131.7958,-95.0105 108.3222,-113.149"/>
<polygon fill="#000000" stroke="#000000" points="201.5998,-66.9596 210.0668,-69.2551 205.5499,-66.3298 209.5,-65.7 209.5,-65.7 209.5,-65.7 205.5499,-66.3298 208.9332,-62.1449 201.5998,-66.9596 201.5998,-66.9596"/>
<ellipse fill="none" stroke="#000000" cx="198.4397" cy="-67.4635" rx="3.2" ry="3.2"/>
</g>
<!-- public.orders -->
<g id="node3" class="node">
<title>public.orders</title>
<g id="a_node3"><a xlink:href="../../../public/tables/orders.html" xlink:title="public.orders" target="_top">
<polygon fill="#ffffff" stroke="transparent" points="8,-199.2 8,-260.2 123,-260.2 123,-199.2 8,-199.2"/>
<polygon fill="#f5f5f5" stroke="transparent" points="8.5,-236.7 8.5,-259.7 123.5,-259.7 123.5,-236.7 8.5,-236.7"/>
<polygon fill="none" stroke="#000000" points="8.5,-236.7 8.5,-259.7 123.5,-259.7 123.5,-236.7 8.5,-236.7"/>
<text text-anchor="start" x="13.5" y="-245.3" font-family="Helvetica,sans-Serif" font-weight="bold" font-size="11.00" fill="#000000">public.orders</text>
<text text-anchor="start" x="89.0219" y="-244.8" font-family="Helvetica,sans-Serif" font-size="11.00" fill="#000000">[table]</text>
<polygon fill="none" stroke="#000000" points="8.5,-217.7 8.5,-236.7 123.5,-236.7 123.5,-217.7 8.5,-217.7"/>
<text text-anchor="start" x="11.5" y="-223.8" font-family="Helvetica,sans-Serif" font-size="11.00" fill="#000000">...</text>
<polygon fill="#ffffff" stroke="transparent" points="8.5,-198.7 8.5,-217.7 42.5,-217.7 42.5,-198.7 8.5,-198.7"/>
<polygon fill="none" stroke="#000000" points="8.5,-198.7 8.5,-217.7 42.5,-217.7 42.5,-198.7 8.5,-198.7"/>
<text text-anchor="start" x="11.5" y="-204.8" font-family="Helvetica,sans-Serif" font-size="11.00" fill="#000000"> &#160;</text>
<polygon fill="#ffffff" stroke="transparent" points="42.5,-198.7 42.5,-217.7 91.5,-217.7 91.5,-198.7 42.5,-198.7"/>
<polygon fill="none" stroke="#000000" points="42.5,-198.7 42.5,-217.7 91.5,-217.7 91.5,-198.7 42.5,-198.7"/>
<text text-anchor="start" x="56.1105" y="-204.8" font-family="Helvetica,sans-Serif" font-size="11.00" fill="#000000">0 rows</text>
<polygon fill="#ffffff" stroke="transparent" points="91.5,-198.7 91.5,-217.7 123.5,-217.7 123.5,-198.7 91.5,-198.7"/>
<polygon fill="none" stroke="#000000" points="91.5,-198.7 91.5,-217.7 123.5,-217.7 123.5,-198.7 91.5,-198.7"/>
<text text-anchor="start" x="104.9053" y="-204.8" font-family="Helvetica,sans-Serif" font-size="11.00" fill="#000000">3 &gt;</text>
</a>
</g>
</g>
<!-- delivery_appointments&#45;&gt;public.orders -->
<g id="edge2" class="edge">
<title>delivery_appointments:w&#45;&gt;public.orders:e</title>
<path fill="none" stroke="#000000" d="M195.035,-67.1985C148.908,-77.8841 169.4329,-143.4028 131,-188.7 129.0905,-190.9505 127.0255,-193.117 124.8458,-195.1973"/>
<polygon fill="#000000" stroke="#000000" points="201.5426,-66.5244 209.871,-69.2808 205.5213,-66.1122 209.5,-65.7 209.5,-65.7 209.5,-65.7 205.5213,-66.1122 209.129,-62.1192 201.5426,-66.5244 201.5426,-66.5244"/>
<ellipse fill="none" stroke="#000000" cx="198.3596" cy="-66.8541" rx="3.2" ry="3.2"/>
</g>
<!-- order_allocations -->
<g id="node4" class="node">
<title>order_allocations</title>
<g id="a_node4"><a xlink:href="../../tables/order_allocations.html" xlink:title="order_allocations" target="_top">
<polygon fill="#ffffff" stroke="transparent" points="172,-202.7 172,-424.7 415,-424.7 415,-202.7 172,-202.7"/>
<polygon fill="#f5f5f5" stroke="transparent" points="174.5,-399.7 174.5,-422.7 413.5,-422.7 413.5,-399.7 174.5,-399.7"/>
<polygon fill="none" stroke="#000000" points="174.5,-399.7 174.5,-422.7 413.5,-422.7 413.5,-399.7 174.5,-399.7"/>
<text text-anchor="start" x="179.5" y="-408.3" font-family="Helvetica,sans-Serif" font-weight="bold" font-size="11.00" fill="#000000">order_allocations</text>
<text text-anchor="start" x="378.5437" y="-407.8" font-family="Helvetica,sans-Serif" font-size="11.00" fill="#000000">[table]</text>
<polygon fill="none" stroke="#000000" points="174.5,-377.7 174.5,-399.7 321.5,-399.7 321.5,-377.7 174.5,-377.7"/>
<image xlink:href="../../images/primaryKeys.png" width="11px" height="12px" preserveAspectRatio="xMinYMin meet" x="179.5" y="-394.7"/>
<text text-anchor="start" x="194.5" y="-384.8" font-family="Helvetica,sans-Serif" font-size="11.00" fill="#000000">allocation_id</text>
<polygon fill="none" stroke="#000000" points="321.5,-377.7 321.5,-399.7 413.5,-399.7 413.5,-377.7 321.5,-377.7"/>
<text text-anchor="start" x="324.5" y="-385.4" font-family="Helvetica,sans-Serif" font-size="11.00" fill="#000000">int8[19]</text>
<polygon fill="none" stroke="#000000" points="174.5,-355.7 174.5,-377.7 321.5,-377.7 321.5,-355.7 174.5,-355.7"/>
<image xlink:href="../../images/foreignKeys.png" width="11px" height="12px" preserveAspectRatio="xMinYMin meet" x="179.5" y="-372.7"/>
<text text-anchor="start" x="194.5" y="-362.8" font-family="Helvetica,sans-Serif" font-size="11.00" fill="#000000">order_id</text>
<polygon fill="none" stroke="#000000" points="321.5,-355.7 321.5,-377.7 413.5,-377.7 413.5,-355.7 321.5,-355.7"/>
<text text-anchor="start" x="324.5" y="-363.4" font-family="Helvetica,sans-Serif" font-size="11.00" fill="#000000">int8[19]</text>
<polygon fill="none" stroke="#000000" points="174.5,-333.7 174.5,-355.7 321.5,-355.7 321.5,-333.7 174.5,-333.7"/>
<text text-anchor="start" x="194.5" y="-340.8" font-family="Helvetica,sans-Serif" font-size="11.00" fill="#000000">allocation_entity_type</text>
<polygon fill="none" stroke="#000000" points="321.5,-333.7 321.5,-355.7 413.5,-355.7 413.5,-333.7 321.5,-333.7"/>
<text text-anchor="start" x="324.5" y="-341.4" font-family="Helvetica,sans-Serif" font-size="11.00" fill="#000000">varchar[50]</text>
<polygon fill="none" stroke="#000000" points="174.5,-311.7 174.5,-333.7 321.5,-333.7 321.5,-311.7 174.5,-311.7"/>
<text text-anchor="start" x="194.5" y="-318.8" font-family="Helvetica,sans-Serif" font-size="11.00" fill="#000000">notes</text>
<polygon fill="none" stroke="#000000" points="321.5,-311.7 321.5,-333.7 413.5,-333.7 413.5,-311.7 321.5,-311.7"/>
<text text-anchor="start" x="324.5" y="-319.4" font-family="Helvetica,sans-Serif" font-size="11.00" fill="#000000">text[2147483647]</text>
<polygon fill="none" stroke="#000000" points="174.5,-289.7 174.5,-311.7 321.5,-311.7 321.5,-289.7 174.5,-289.7"/>
<text text-anchor="start" x="194.5" y="-296.8" font-family="Helvetica,sans-Serif" font-size="11.00" fill="#000000">created_at</text>
<polygon fill="none" stroke="#000000" points="321.5,-289.7 321.5,-311.7 413.5,-311.7 413.5,-289.7 321.5,-289.7"/>
<text text-anchor="start" x="324.1023" y="-297.4" font-family="Helvetica,sans-Serif" font-size="11.00" fill="#000000">timestamptz[35,6]</text>
<polygon fill="none" stroke="#000000" points="174.5,-267.7 174.5,-289.7 321.5,-289.7 321.5,-267.7 174.5,-267.7"/>
<text text-anchor="start" x="194.5" y="-274.8" font-family="Helvetica,sans-Serif" font-size="11.00" fill="#000000">updated_at</text>
<polygon fill="none" stroke="#000000" points="321.5,-267.7 321.5,-289.7 413.5,-289.7 413.5,-267.7 321.5,-267.7"/>
<text text-anchor="start" x="324.1023" y="-275.4" font-family="Helvetica,sans-Serif" font-size="11.00" fill="#000000">timestamptz[35,6]</text>
<polygon fill="none" stroke="#000000" points="174.5,-245.7 174.5,-267.7 321.5,-267.7 321.5,-245.7 174.5,-245.7"/>
<image xlink:href="../../images/foreignKeys.png" width="11px" height="12px" preserveAspectRatio="xMinYMin meet" x="179.5" y="-262.7"/>
<text text-anchor="start" x="194.5" y="-252.8" font-family="Helvetica,sans-Serif" font-size="11.00" fill="#000000">created_by</text>
<polygon fill="none" stroke="#000000" points="321.5,-245.7 321.5,-267.7 413.5,-267.7 413.5,-245.7 321.5,-245.7"/>
<text text-anchor="start" x="324.5" y="-253.4" font-family="Helvetica,sans-Serif" font-size="11.00" fill="#000000">int8[19]</text>
<polygon fill="none" stroke="#000000" points="174.5,-223.7 174.5,-245.7 321.5,-245.7 321.5,-223.7 174.5,-223.7"/>
<image xlink:href="../../images/foreignKeys.png" width="11px" height="12px" preserveAspectRatio="xMinYMin meet" x="179.5" y="-240.7"/>
<text text-anchor="start" x="194.5" y="-230.8" font-family="Helvetica,sans-Serif" font-size="11.00" fill="#000000">updated_by</text>
<polygon fill="none" stroke="#000000" points="321.5,-223.7 321.5,-245.7 413.5,-245.7 413.5,-223.7 321.5,-223.7"/>
<text text-anchor="start" x="324.5" y="-231.4" font-family="Helvetica,sans-Serif" font-size="11.00" fill="#000000">int8[19]</text>
<polygon fill="#ffffff" stroke="transparent" points="174.5,-204.7 174.5,-223.7 252.5,-223.7 252.5,-204.7 174.5,-204.7"/>
<polygon fill="none" stroke="#000000" points="174.5,-204.7 174.5,-223.7 252.5,-223.7 252.5,-204.7 174.5,-204.7"/>
<text text-anchor="start" x="177.5" y="-210.8" font-family="Helvetica,sans-Serif" font-size="11.00" fill="#000000">&lt; 3</text>
<polygon fill="#ffffff" stroke="transparent" points="252.5,-204.7 252.5,-223.7 321.5,-223.7 321.5,-204.7 252.5,-204.7"/>
<polygon fill="none" stroke="#000000" points="252.5,-204.7 252.5,-223.7 321.5,-223.7 321.5,-204.7 252.5,-204.7"/>
<text text-anchor="start" x="312.3862" y="-210.8" font-family="Helvetica,sans-Serif" font-size="11.00" fill="#000000"> &#160;</text>
<polygon fill="#ffffff" stroke="transparent" points="321.5,-204.7 321.5,-223.7 413.5,-223.7 413.5,-204.7 321.5,-204.7"/>
<polygon fill="none" stroke="#000000" points="321.5,-204.7 321.5,-223.7 413.5,-223.7 413.5,-204.7 321.5,-204.7"/>
<text text-anchor="start" x="394.9053" y="-210.8" font-family="Helvetica,sans-Serif" font-size="11.00" fill="#000000">0 &gt;</text>
<polygon fill="none" stroke="#000000" stroke-width="2" points="173,-203.7 173,-423.7 414,-423.7 414,-203.7 173,-203.7"/>
</a>
</g>
</g>
<!-- order_allocations&#45;&gt;public.users -->
<g id="edge4" class="edge">
<title>order_allocations:w&#45;&gt;public.users:e</title>
<path fill="none" stroke="#000000" d="M160.2711,-253.2168C143.4848,-242.52 152.1115,-209.6052 131,-188.7 128.8075,-186.5289 126.4802,-184.417 124.0601,-182.3711"/>
<polygon fill="#000000" stroke="#000000" points="166.7294,-254.7978 173.644,-260.1968 170.6147,-255.7489 174.5,-256.7 174.5,-256.7 174.5,-256.7 170.6147,-255.7489 175.356,-253.2032 166.7294,-254.7978 166.7294,-254.7978"/>
<ellipse fill="none" stroke="#000000" cx="163.6212" cy="-254.0369" rx="3.2" ry="3.2"/>
</g>
<!-- order_allocations&#45;&gt;public.users -->
<g id="edge6" class="edge">
<title>order_allocations:w&#45;&gt;public.users:e</title>
<path fill="none" stroke="#000000" d="M160.3368,-231.0592C147.8162,-222.8706 148.0058,-202.6302 131,-188.7 128.4054,-186.5747 125.693,-184.4735 122.9104,-182.4119"/>
<polygon fill="#000000" stroke="#000000" points="166.7519,-232.7083 173.6037,-238.1866 170.6259,-233.7041 174.5,-234.7 174.5,-234.7 174.5,-234.7 170.6259,-233.7041 175.3963,-231.2134 166.7519,-232.7083 166.7519,-232.7083"/>
<ellipse fill="none" stroke="#000000" cx="163.6527" cy="-231.9116" rx="3.2" ry="3.2"/>
</g>
<!-- order_allocations&#45;&gt;public.orders -->
<g id="edge5" class="edge">
<title>order_allocations:w&#45;&gt;public.orders:e</title>
<path fill="none" stroke="#000000" d="M160.0646,-365.0735C116.3933,-355.0574 89.5651,-300.9719 76.1195,-264.2709"/>
<polygon fill="#000000" stroke="#000000" points="166.5503,-365.8042 174.0969,-370.2774 170.5252,-366.2521 174.5,-366.7 174.5,-366.7 174.5,-366.7 170.5252,-366.2521 174.9031,-363.1226 166.5503,-365.8042 166.5503,-365.8042"/>
<ellipse fill="none" stroke="#000000" cx="163.3704" cy="-365.4459" rx="3.2" ry="3.2"/>
</g>
<!-- order_requirements -->
<g id="node5" class="node">
<title>order_requirements</title>
<g id="a_node5"><a xlink:href="../../tables/order_requirements.html" xlink:title="order_requirements" target="_top">
<polygon fill="#ffffff" stroke="transparent" points="217.5,-120.2 217.5,-181.2 369.5,-181.2 369.5,-120.2 217.5,-120.2"/>
<polygon fill="#f5f5f5" stroke="transparent" points="217.5,-157.7 217.5,-180.7 369.5,-180.7 369.5,-157.7 217.5,-157.7"/>
<polygon fill="none" stroke="#000000" points="217.5,-157.7 217.5,-180.7 369.5,-180.7 369.5,-157.7 217.5,-157.7"/>
<text text-anchor="start" x="222.5" y="-166.3" font-family="Helvetica,sans-Serif" font-weight="bold" font-size="11.00" fill="#000000">order_requirements</text>
<text text-anchor="start" x="335.0219" y="-165.8" font-family="Helvetica,sans-Serif" font-size="11.00" fill="#000000">[table]</text>
<polygon fill="none" stroke="#000000" points="217.5,-138.7 217.5,-157.7 369.5,-157.7 369.5,-138.7 217.5,-138.7"/>
<text text-anchor="start" x="220.5" y="-144.8" font-family="Helvetica,sans-Serif" font-size="11.00" fill="#000000">...</text>
<polygon fill="#ffffff" stroke="transparent" points="217.5,-119.7 217.5,-138.7 291.5,-138.7 291.5,-119.7 217.5,-119.7"/>
<polygon fill="none" stroke="#000000" points="217.5,-119.7 217.5,-138.7 291.5,-138.7 291.5,-119.7 217.5,-119.7"/>
<text text-anchor="start" x="220.5" y="-125.8" font-family="Helvetica,sans-Serif" font-size="11.00" fill="#000000">&lt; 3</text>
<polygon fill="#ffffff" stroke="transparent" points="291.5,-119.7 291.5,-138.7 330.5,-138.7 330.5,-119.7 291.5,-119.7"/>
<polygon fill="none" stroke="#000000" points="291.5,-119.7 291.5,-138.7 330.5,-138.7 330.5,-119.7 291.5,-119.7"/>
<text text-anchor="start" x="321.3862" y="-125.8" font-family="Helvetica,sans-Serif" font-size="11.00" fill="#000000"> &#160;</text>
<polygon fill="#ffffff" stroke="transparent" points="330.5,-119.7 330.5,-138.7 369.5,-138.7 369.5,-119.7 330.5,-119.7"/>
<polygon fill="none" stroke="#000000" points="330.5,-119.7 330.5,-138.7 369.5,-138.7 369.5,-119.7 330.5,-119.7"/>
<text text-anchor="start" x="360.3862" y="-125.8" font-family="Helvetica,sans-Serif" font-size="11.00" fill="#000000"> &#160;</text>
</a>
</g>
</g>
<!-- order_requirements&#45;&gt;public.users -->
<g id="edge7" class="edge">
<title>order_requirements:w&#45;&gt;public.users:e</title>
<path fill="none" stroke="#000000" d="M202.8631,-146.5106C177.692,-144.6453 151.2492,-143.5682 128.3599,-143.2794"/>
<polygon fill="#000000" stroke="#000000" points="209.5263,-147.052 217.2084,-151.2882 213.5131,-147.376 217.5,-147.7 217.5,-147.7 217.5,-147.7 213.5131,-147.376 217.7916,-144.1118 209.5263,-147.052 209.5263,-147.052"/>
<ellipse fill="none" stroke="#000000" cx="206.3368" cy="-146.7928" rx="3.2" ry="3.2"/>
</g>
<!-- order_requirements&#45;&gt;public.users -->
<g id="edge9" class="edge">
<title>order_requirements:w&#45;&gt;public.users:e</title>
<path fill="none" stroke="#000000" d="M202.8631,-149.0876C177.692,-151.2638 151.2492,-152.5204 128.3599,-152.8574"/>
<polygon fill="#000000" stroke="#000000" points="209.5357,-148.4551 217.8398,-151.2839 213.5179,-148.0775 217.5,-147.7 217.5,-147.7 217.5,-147.7 213.5179,-148.0775 217.1602,-144.1161 209.5357,-148.4551 209.5357,-148.4551"/>
<ellipse fill="none" stroke="#000000" cx="206.35" cy="-148.7571" rx="3.2" ry="3.2"/>
</g>
<!-- order_requirements&#45;&gt;public.orders -->
<g id="edge8" class="edge">
<title>order_requirements:w&#45;&gt;public.orders:e</title>
<path fill="none" stroke="#000000" d="M203.6864,-151.9646C184.6647,-160.061 151.969,-178.3548 123.1556,-195.1623"/>
<polygon fill="#000000" stroke="#000000" points="209.856,-150.0599 218.562,-151.1398 213.678,-148.88 217.5,-147.7 217.5,-147.7 217.5,-147.7 213.678,-148.88 216.438,-144.2602 209.856,-150.0599 209.856,-150.0599"/>
<ellipse fill="none" stroke="#000000" cx="206.7984" cy="-151.0039" rx="3.2" ry="3.2"/>
</g>
</g>
</svg>
