<?xml version="1.0" encoding="UTF-8" standalone="no"?>
<!DOCTYPE svg PUBLIC "-//W3C//DTD SVG 1.1//EN"
 "http://www.w3.org/Graphics/SVG/1.1/DTD/svg11.dtd">
<!-- Generated by graphviz version 2.40.1 (20161225.0304)
 -->
<!-- Title: oneDegreeRelationshipsDiagram Pages: 1 -->
<svg width="418pt" height="294pt"
 viewBox="0.00 0.00 418.00 294.20" xmlns="http://www.w3.org/2000/svg" xmlns:xlink="http://www.w3.org/1999/xlink">
<g id="graph0" class="graph" transform="scale(1 1) rotate(0) translate(4 290.2)">
<title>oneDegreeRelationshipsDiagram</title>
<polygon fill="#ffffff" stroke="transparent" points="-4,4 -4,-290.2 414,-290.2 414,4 -4,4"/>
<text text-anchor="middle" x="72.4936" y="-7.3" font-family="Helvetica,sans-Serif" font-size="11.00" fill="#000000">Generated by SchemaSpy</text>
<!-- order_requirements -->
<g id="node1" class="node">
<title>order_requirements</title>
<g id="a_node1"><a xlink:href="../../tables/order_requirements.html" xlink:title="order_requirements" target="_top">
<polygon fill="#ffffff" stroke="transparent" points="172,-38.2 172,-282.2 402,-282.2 402,-38.2 172,-38.2"/>
<polygon fill="#f5f5f5" stroke="transparent" points="174,-257.2 174,-280.2 400,-280.2 400,-257.2 174,-257.2"/>
<polygon fill="none" stroke="#000000" points="174,-257.2 174,-280.2 400,-280.2 400,-257.2 174,-257.2"/>
<text text-anchor="start" x="179" y="-265.8" font-family="Helvetica,sans-Serif" font-weight="bold" font-size="11.00" fill="#000000">order_requirements</text>
<text text-anchor="start" x="365.0437" y="-265.3" font-family="Helvetica,sans-Serif" font-size="11.00" fill="#000000">[table]</text>
<polygon fill="none" stroke="#000000" points="174,-235.2 174,-257.2 308,-257.2 308,-235.2 174,-235.2"/>
<image xlink:href="../../images/primaryKeys.png" width="11px" height="12px" preserveAspectRatio="xMinYMin meet" x="179" y="-252.2"/>
<text text-anchor="start" x="194" y="-242.3" font-family="Helvetica,sans-Serif" font-size="11.00" fill="#000000">requirement_id</text>
<polygon fill="none" stroke="#000000" points="308,-235.2 308,-257.2 400,-257.2 400,-235.2 308,-235.2"/>
<text text-anchor="start" x="311" y="-242.9" font-family="Helvetica,sans-Serif" font-size="11.00" fill="#000000">int8[19]</text>
<polygon fill="none" stroke="#000000" points="174,-213.2 174,-235.2 308,-235.2 308,-213.2 174,-213.2"/>
<image xlink:href="../../images/foreignKeys.png" width="11px" height="12px" preserveAspectRatio="xMinYMin meet" x="179" y="-230.2"/>
<text text-anchor="start" x="194" y="-220.3" font-family="Helvetica,sans-Serif" font-size="11.00" fill="#000000">order_id</text>
<polygon fill="none" stroke="#000000" points="308,-213.2 308,-235.2 400,-235.2 400,-213.2 308,-213.2"/>
<text text-anchor="start" x="311" y="-220.9" font-family="Helvetica,sans-Serif" font-size="11.00" fill="#000000">int8[19]</text>
<polygon fill="none" stroke="#000000" points="174,-191.2 174,-213.2 308,-213.2 308,-191.2 174,-191.2"/>
<text text-anchor="start" x="194" y="-198.3" font-family="Helvetica,sans-Serif" font-size="11.00" fill="#000000">requirement_type</text>
<polygon fill="none" stroke="#000000" points="308,-191.2 308,-213.2 400,-213.2 400,-191.2 308,-191.2"/>
<text text-anchor="start" x="311" y="-198.9" font-family="Helvetica,sans-Serif" font-size="11.00" fill="#000000">varchar[50]</text>
<polygon fill="none" stroke="#000000" points="174,-169.2 174,-191.2 308,-191.2 308,-169.2 174,-169.2"/>
<text text-anchor="start" x="194" y="-176.3" font-family="Helvetica,sans-Serif" font-size="11.00" fill="#000000">requirement_value</text>
<polygon fill="none" stroke="#000000" points="308,-169.2 308,-191.2 400,-191.2 400,-169.2 308,-169.2"/>
<text text-anchor="start" x="311" y="-176.9" font-family="Helvetica,sans-Serif" font-size="11.00" fill="#000000">text[2147483647]</text>
<polygon fill="none" stroke="#000000" points="174,-147.2 174,-169.2 308,-169.2 308,-147.2 174,-147.2"/>
<text text-anchor="start" x="194" y="-154.3" font-family="Helvetica,sans-Serif" font-size="11.00" fill="#000000">notes</text>
<polygon fill="none" stroke="#000000" points="308,-147.2 308,-169.2 400,-169.2 400,-147.2 308,-147.2"/>
<text text-anchor="start" x="311" y="-154.9" font-family="Helvetica,sans-Serif" font-size="11.00" fill="#000000">text[2147483647]</text>
<polygon fill="none" stroke="#000000" points="174,-125.2 174,-147.2 308,-147.2 308,-125.2 174,-125.2"/>
<text text-anchor="start" x="194" y="-132.3" font-family="Helvetica,sans-Serif" font-size="11.00" fill="#000000">created_at</text>
<polygon fill="none" stroke="#000000" points="308,-125.2 308,-147.2 400,-147.2 400,-125.2 308,-125.2"/>
<text text-anchor="start" x="310.6023" y="-132.9" font-family="Helvetica,sans-Serif" font-size="11.00" fill="#000000">timestamptz[35,6]</text>
<polygon fill="none" stroke="#000000" points="174,-103.2 174,-125.2 308,-125.2 308,-103.2 174,-103.2"/>
<text text-anchor="start" x="194" y="-110.3" font-family="Helvetica,sans-Serif" font-size="11.00" fill="#000000">updated_at</text>
<polygon fill="none" stroke="#000000" points="308,-103.2 308,-125.2 400,-125.2 400,-103.2 308,-103.2"/>
<text text-anchor="start" x="310.6023" y="-110.9" font-family="Helvetica,sans-Serif" font-size="11.00" fill="#000000">timestamptz[35,6]</text>
<polygon fill="none" stroke="#000000" points="174,-81.2 174,-103.2 308,-103.2 308,-81.2 174,-81.2"/>
<image xlink:href="../../images/foreignKeys.png" width="11px" height="12px" preserveAspectRatio="xMinYMin meet" x="179" y="-98.2"/>
<text text-anchor="start" x="194" y="-88.3" font-family="Helvetica,sans-Serif" font-size="11.00" fill="#000000">created_by</text>
<polygon fill="none" stroke="#000000" points="308,-81.2 308,-103.2 400,-103.2 400,-81.2 308,-81.2"/>
<text text-anchor="start" x="311" y="-88.9" font-family="Helvetica,sans-Serif" font-size="11.00" fill="#000000">int8[19]</text>
<polygon fill="none" stroke="#000000" points="174,-59.2 174,-81.2 308,-81.2 308,-59.2 174,-59.2"/>
<image xlink:href="../../images/foreignKeys.png" width="11px" height="12px" preserveAspectRatio="xMinYMin meet" x="179" y="-76.2"/>
<text text-anchor="start" x="194" y="-66.3" font-family="Helvetica,sans-Serif" font-size="11.00" fill="#000000">updated_by</text>
<polygon fill="none" stroke="#000000" points="308,-59.2 308,-81.2 400,-81.2 400,-59.2 308,-59.2"/>
<text text-anchor="start" x="311" y="-66.9" font-family="Helvetica,sans-Serif" font-size="11.00" fill="#000000">int8[19]</text>
<polygon fill="#ffffff" stroke="transparent" points="174,-40.2 174,-59.2 245,-59.2 245,-40.2 174,-40.2"/>
<polygon fill="none" stroke="#000000" points="174,-40.2 174,-59.2 245,-59.2 245,-40.2 174,-40.2"/>
<text text-anchor="start" x="177" y="-46.3" font-family="Helvetica,sans-Serif" font-size="11.00" fill="#000000">&lt; 3</text>
<polygon fill="#ffffff" stroke="transparent" points="245,-40.2 245,-59.2 308,-59.2 308,-40.2 245,-40.2"/>
<polygon fill="none" stroke="#000000" points="245,-40.2 245,-59.2 308,-59.2 308,-40.2 245,-40.2"/>
<text text-anchor="start" x="298.8862" y="-46.3" font-family="Helvetica,sans-Serif" font-size="11.00" fill="#000000"> &#160;</text>
<polygon fill="#ffffff" stroke="transparent" points="308,-40.2 308,-59.2 400,-59.2 400,-40.2 308,-40.2"/>
<polygon fill="none" stroke="#000000" points="308,-40.2 308,-59.2 400,-59.2 400,-40.2 308,-40.2"/>
<text text-anchor="start" x="381.4053" y="-46.3" font-family="Helvetica,sans-Serif" font-size="11.00" fill="#000000">0 &gt;</text>
<polygon fill="none" stroke="#000000" stroke-width="2" points="173,-39.2 173,-281.2 401,-281.2 401,-39.2 173,-39.2"/>
</a>
</g>
</g>
<!-- public.users -->
<g id="node2" class="node">
<title>public.users</title>
<g id="a_node2"><a xlink:href="../../../public/tables/users.html" xlink:title="public.users" target="_top">
<polygon fill="#ffffff" stroke="transparent" points="11,-50.7 11,-111.7 120,-111.7 120,-50.7 11,-50.7"/>
<polygon fill="#f5f5f5" stroke="transparent" points="11.5,-88.2 11.5,-111.2 120.5,-111.2 120.5,-88.2 11.5,-88.2"/>
<polygon fill="none" stroke="#000000" points="11.5,-88.2 11.5,-111.2 120.5,-111.2 120.5,-88.2 11.5,-88.2"/>
<text text-anchor="start" x="16.5" y="-96.8" font-family="Helvetica,sans-Serif" font-weight="bold" font-size="11.00" fill="#000000">public.users</text>
<text text-anchor="start" x="86.0219" y="-96.3" font-family="Helvetica,sans-Serif" font-size="11.00" fill="#000000">[table]</text>
<polygon fill="none" stroke="#000000" points="11.5,-69.2 11.5,-88.2 120.5,-88.2 120.5,-69.2 11.5,-69.2"/>
<text text-anchor="start" x="14.5" y="-75.3" font-family="Helvetica,sans-Serif" font-size="11.00" fill="#000000">...</text>
<polygon fill="#ffffff" stroke="transparent" points="11.5,-50.2 11.5,-69.2 42.5,-69.2 42.5,-50.2 11.5,-50.2"/>
<polygon fill="none" stroke="#000000" points="11.5,-50.2 11.5,-69.2 42.5,-69.2 42.5,-50.2 11.5,-50.2"/>
<text text-anchor="start" x="14.5" y="-56.3" font-family="Helvetica,sans-Serif" font-size="11.00" fill="#000000"> &#160;</text>
<polygon fill="#ffffff" stroke="transparent" points="42.5,-50.2 42.5,-69.2 89.5,-69.2 89.5,-50.2 42.5,-50.2"/>
<polygon fill="none" stroke="#000000" points="42.5,-50.2 42.5,-69.2 89.5,-69.2 89.5,-50.2 42.5,-50.2"/>
<text text-anchor="start" x="54.1105" y="-56.3" font-family="Helvetica,sans-Serif" font-size="11.00" fill="#000000">0 rows</text>
<polygon fill="#ffffff" stroke="transparent" points="89.5,-50.2 89.5,-69.2 120.5,-69.2 120.5,-50.2 89.5,-50.2"/>
<polygon fill="none" stroke="#000000" points="89.5,-50.2 89.5,-69.2 120.5,-69.2 120.5,-50.2 89.5,-50.2"/>
<text text-anchor="start" x="101.9053" y="-56.3" font-family="Helvetica,sans-Serif" font-size="11.00" fill="#000000">6 &gt;</text>
</a>
</g>
</g>
<!-- order_requirements&#45;&gt;public.users -->
<g id="edge1" class="edge">
<title>order_requirements:w&#45;&gt;public.users:e</title>
<path fill="none" stroke="#000000" d="M159.4511,-91.9025C149.0197,-91.4964 138.3916,-90.7063 128.2149,-89.7314"/>
<polygon fill="#000000" stroke="#000000" points="166.0017,-92.0364 173.9264,-95.7992 170.0008,-92.1182 174,-92.2 174,-92.2 174,-92.2 170.0008,-92.1182 174.0736,-88.6008 166.0017,-92.0364 166.0017,-92.0364"/>
<ellipse fill="none" stroke="#000000" cx="162.8023" cy="-91.9709" rx="3.2" ry="3.2"/>
</g>
<!-- order_requirements&#45;&gt;public.users -->
<g id="edge3" class="edge">
<title>order_requirements:w&#45;&gt;public.users:e</title>
<path fill="none" stroke="#000000" d="M159.4511,-70.4975C149.0197,-70.9036 138.3916,-71.6937 128.2149,-72.6686"/>
<polygon fill="#000000" stroke="#000000" points="166.0017,-70.3636 174.0736,-73.7992 170.0008,-70.2818 174,-70.2 174,-70.2 174,-70.2 170.0008,-70.2818 173.9264,-66.6008 166.0017,-70.3636 166.0017,-70.3636"/>
<ellipse fill="none" stroke="#000000" cx="162.8023" cy="-70.4291" rx="3.2" ry="3.2"/>
</g>
<!-- public.orders -->
<g id="node3" class="node">
<title>public.orders</title>
<g id="a_node3"><a xlink:href="../../../public/tables/orders.html" xlink:title="public.orders" target="_top">
<polygon fill="#ffffff" stroke="transparent" points="8,-193.7 8,-254.7 123,-254.7 123,-193.7 8,-193.7"/>
<polygon fill="#f5f5f5" stroke="transparent" points="8.5,-231.2 8.5,-254.2 123.5,-254.2 123.5,-231.2 8.5,-231.2"/>
<polygon fill="none" stroke="#000000" points="8.5,-231.2 8.5,-254.2 123.5,-254.2 123.5,-231.2 8.5,-231.2"/>
<text text-anchor="start" x="13.5" y="-239.8" font-family="Helvetica,sans-Serif" font-weight="bold" font-size="11.00" fill="#000000">public.orders</text>
<text text-anchor="start" x="89.0219" y="-239.3" font-family="Helvetica,sans-Serif" font-size="11.00" fill="#000000">[table]</text>
<polygon fill="none" stroke="#000000" points="8.5,-212.2 8.5,-231.2 123.5,-231.2 123.5,-212.2 8.5,-212.2"/>
<text text-anchor="start" x="11.5" y="-218.3" font-family="Helvetica,sans-Serif" font-size="11.00" fill="#000000">...</text>
<polygon fill="#ffffff" stroke="transparent" points="8.5,-193.2 8.5,-212.2 42.5,-212.2 42.5,-193.2 8.5,-193.2"/>
<polygon fill="none" stroke="#000000" points="8.5,-193.2 8.5,-212.2 42.5,-212.2 42.5,-193.2 8.5,-193.2"/>
<text text-anchor="start" x="11.5" y="-199.3" font-family="Helvetica,sans-Serif" font-size="11.00" fill="#000000"> &#160;</text>
<polygon fill="#ffffff" stroke="transparent" points="42.5,-193.2 42.5,-212.2 91.5,-212.2 91.5,-193.2 42.5,-193.2"/>
<polygon fill="none" stroke="#000000" points="42.5,-193.2 42.5,-212.2 91.5,-212.2 91.5,-193.2 42.5,-193.2"/>
<text text-anchor="start" x="56.1105" y="-199.3" font-family="Helvetica,sans-Serif" font-size="11.00" fill="#000000">0 rows</text>
<polygon fill="#ffffff" stroke="transparent" points="91.5,-193.2 91.5,-212.2 123.5,-212.2 123.5,-193.2 91.5,-193.2"/>
<polygon fill="none" stroke="#000000" points="91.5,-193.2 91.5,-212.2 123.5,-212.2 123.5,-193.2 91.5,-193.2"/>
<text text-anchor="start" x="104.9053" y="-199.3" font-family="Helvetica,sans-Serif" font-size="11.00" fill="#000000">3 &gt;</text>
</a>
</g>
</g>
<!-- order_requirements&#45;&gt;public.orders -->
<g id="edge2" class="edge">
<title>order_requirements:w&#45;&gt;public.orders:e</title>
<path fill="none" stroke="#000000" d="M159.4395,-224.2C150.0381,-224.2 140.4622,-224.2 131.1955,-224.2"/>
<polygon fill="#000000" stroke="#000000" points="166,-224.2001 174,-227.8 170,-224.2 174,-224.2 174,-224.2 174,-224.2 170,-224.2 174,-220.6 166,-224.2001 166,-224.2001"/>
<ellipse fill="none" stroke="#000000" cx="162.8" cy="-224.2001" rx="3.2" ry="3.2"/>
</g>
</g>
</svg>
