<?xml version="1.0" encoding="UTF-8" standalone="no"?>
<!DOCTYPE svg PUBLIC "-//W3C//DTD SVG 1.1//EN"
 "http://www.w3.org/Graphics/SVG/1.1/DTD/svg11.dtd">
<!-- Generated by graphviz version 2.40.1 (20161225.0304)
 -->
<!-- Title: orphans Pages: 1 -->
<svg width="190pt" height="282pt"
 viewBox="0.00 0.00 190.00 282.00" xmlns="http://www.w3.org/2000/svg" xmlns:xlink="http://www.w3.org/1999/xlink">
<g id="graph0" class="graph" transform="scale(1 1) rotate(0) translate(4 278)">
<title>orphans</title>
<polygon fill="#ffffff" stroke="transparent" points="-4,4 -4,-278 186,-278 186,4 -4,4"/>
<!-- calendar_dim -->
<g id="node1" class="node">
<title>calendar_dim</title>
<g id="a_node1"><a xlink:href="../../tables/calendar_dim.html" xlink:title="calendar_dim" target="_top">
<polygon fill="#ffffff" stroke="transparent" points="8,-4 8,-270 174,-270 174,-4 8,-4"/>
<polygon fill="#f5f5f5" stroke="transparent" points="10,-245 10,-268 172,-268 172,-245 10,-245"/>
<polygon fill="none" stroke="#000000" points="10,-245 10,-268 172,-268 172,-245 10,-245"/>
<text text-anchor="start" x="15" y="-253.6" font-family="Helvetica,sans-Serif" font-weight="bold" font-size="11.00" fill="#000000">calendar_dim</text>
<text text-anchor="start" x="137.0437" y="-253.1" font-family="Helvetica,sans-Serif" font-size="11.00" fill="#000000">[table]</text>
<polygon fill="none" stroke="#000000" points="10,-223 10,-245 111,-245 111,-223 10,-223"/>
<image xlink:href="../../images/primaryKeys.png" width="11px" height="12px" preserveAspectRatio="xMinYMin meet" x="15" y="-240"/>
<text text-anchor="start" x="30" y="-230.1" font-family="Helvetica,sans-Serif" font-size="11.00" fill="#000000">calendar_date</text>
<polygon fill="none" stroke="#000000" points="111,-223 111,-245 172,-245 172,-223 111,-223"/>
<text text-anchor="start" x="114" y="-230.7" font-family="Helvetica,sans-Serif" font-size="11.00" fill="#000000">date[13]</text>
<polygon fill="none" stroke="#000000" points="10,-201 10,-223 111,-223 111,-201 10,-201"/>
<text text-anchor="start" x="30" y="-208.1" font-family="Helvetica,sans-Serif" font-size="11.00" fill="#000000">year</text>
<polygon fill="none" stroke="#000000" points="111,-201 111,-223 172,-223 172,-201 111,-201"/>
<text text-anchor="start" x="114" y="-208.7" font-family="Helvetica,sans-Serif" font-size="11.00" fill="#000000">int4[10]</text>
<polygon fill="none" stroke="#000000" points="10,-179 10,-201 111,-201 111,-179 10,-179"/>
<text text-anchor="start" x="30" y="-186.1" font-family="Helvetica,sans-Serif" font-size="11.00" fill="#000000">quarter</text>
<polygon fill="none" stroke="#000000" points="111,-179 111,-201 172,-201 172,-179 111,-179"/>
<text text-anchor="start" x="114" y="-186.7" font-family="Helvetica,sans-Serif" font-size="11.00" fill="#000000">int4[10]</text>
<polygon fill="none" stroke="#000000" points="10,-157 10,-179 111,-179 111,-157 10,-157"/>
<text text-anchor="start" x="30" y="-164.1" font-family="Helvetica,sans-Serif" font-size="11.00" fill="#000000">month</text>
<polygon fill="none" stroke="#000000" points="111,-157 111,-179 172,-179 172,-157 111,-157"/>
<text text-anchor="start" x="114" y="-164.7" font-family="Helvetica,sans-Serif" font-size="11.00" fill="#000000">int4[10]</text>
<polygon fill="none" stroke="#000000" points="10,-135 10,-157 111,-157 111,-135 10,-135"/>
<text text-anchor="start" x="30" y="-142.1" font-family="Helvetica,sans-Serif" font-size="11.00" fill="#000000">month_name</text>
<polygon fill="none" stroke="#000000" points="111,-135 111,-157 172,-157 172,-135 111,-135"/>
<text text-anchor="start" x="113.994" y="-142.7" font-family="Helvetica,sans-Serif" font-size="11.00" fill="#000000">varchar[20]</text>
<polygon fill="none" stroke="#000000" points="10,-113 10,-135 111,-135 111,-113 10,-113"/>
<text text-anchor="start" x="30" y="-120.1" font-family="Helvetica,sans-Serif" font-size="11.00" fill="#000000">week_of_year</text>
<polygon fill="none" stroke="#000000" points="111,-113 111,-135 172,-135 172,-113 111,-113"/>
<text text-anchor="start" x="114" y="-120.7" font-family="Helvetica,sans-Serif" font-size="11.00" fill="#000000">int4[10]</text>
<polygon fill="none" stroke="#000000" points="10,-91 10,-113 111,-113 111,-91 10,-91"/>
<text text-anchor="start" x="30" y="-98.1" font-family="Helvetica,sans-Serif" font-size="11.00" fill="#000000">day_of_week</text>
<polygon fill="none" stroke="#000000" points="111,-91 111,-113 172,-113 172,-91 111,-91"/>
<text text-anchor="start" x="114" y="-98.7" font-family="Helvetica,sans-Serif" font-size="11.00" fill="#000000">int4[10]</text>
<polygon fill="none" stroke="#000000" points="10,-69 10,-91 111,-91 111,-69 10,-69"/>
<text text-anchor="start" x="30" y="-76.1" font-family="Helvetica,sans-Serif" font-size="11.00" fill="#000000">day_name</text>
<polygon fill="none" stroke="#000000" points="111,-69 111,-91 172,-91 172,-69 111,-69"/>
<text text-anchor="start" x="113.994" y="-76.7" font-family="Helvetica,sans-Serif" font-size="11.00" fill="#000000">varchar[20]</text>
<polygon fill="none" stroke="#000000" points="10,-47 10,-69 111,-69 111,-47 10,-47"/>
<text text-anchor="start" x="30" y="-54.1" font-family="Helvetica,sans-Serif" font-size="11.00" fill="#000000">is_weekend</text>
<polygon fill="none" stroke="#000000" points="111,-47 111,-69 172,-69 172,-47 111,-47"/>
<text text-anchor="start" x="114" y="-54.7" font-family="Helvetica,sans-Serif" font-size="11.00" fill="#000000">bool[1]</text>
<polygon fill="none" stroke="#000000" points="10,-25 10,-47 111,-47 111,-25 10,-25"/>
<text text-anchor="start" x="30" y="-32.1" font-family="Helvetica,sans-Serif" font-size="11.00" fill="#000000">is_holiday</text>
<polygon fill="none" stroke="#000000" points="111,-25 111,-47 172,-47 172,-25 111,-25"/>
<text text-anchor="start" x="114" y="-32.7" font-family="Helvetica,sans-Serif" font-size="11.00" fill="#000000">bool[1]</text>
<polygon fill="#ffffff" stroke="transparent" points="10,-6 10,-25 46,-25 46,-6 10,-6"/>
<polygon fill="none" stroke="#000000" points="10,-6 10,-25 46,-25 46,-6 10,-6"/>
<text text-anchor="start" x="13" y="-12.1" font-family="Helvetica,sans-Serif" font-size="11.00" fill="#000000">&lt; 0</text>
<polygon fill="#ffffff" stroke="transparent" points="46,-6 46,-25 111,-25 111,-6 46,-6"/>
<polygon fill="none" stroke="#000000" points="46,-6 46,-25 111,-25 111,-6 46,-6"/>
<text text-anchor="start" x="63.3807" y="-12.1" font-family="Helvetica,sans-Serif" font-size="11.00" fill="#000000">730 rows</text>
<polygon fill="#ffffff" stroke="transparent" points="111,-6 111,-25 172,-25 172,-6 111,-6"/>
<polygon fill="none" stroke="#000000" points="111,-6 111,-25 172,-25 172,-6 111,-6"/>
<text text-anchor="start" x="153.4053" y="-12.1" font-family="Helvetica,sans-Serif" font-size="11.00" fill="#000000">0 &gt;</text>
<polygon fill="none" stroke="#000000" stroke-width="2" points="9,-5 9,-269 173,-269 173,-5 9,-5"/>
</a>
</g>
</g>
</g>
</svg>
