<?xml version="1.0" encoding="UTF-8" standalone="no"?>
<!DOCTYPE svg PUBLIC "-//W3C//DTD SVG 1.1//EN"
 "http://www.w3.org/Graphics/SVG/1.1/DTD/svg11.dtd">
<!-- Generated by graphviz version 2.40.1 (20161225.0304)
 -->
<!-- Title: oneDegreeRelationshipsDiagram Pages: 1 -->
<svg width="693pt" height="405pt"
 viewBox="0.00 0.00 693.00 404.70" xmlns="http://www.w3.org/2000/svg" xmlns:xlink="http://www.w3.org/1999/xlink">
<g id="graph0" class="graph" transform="scale(1 1) rotate(0) translate(4 400.7)">
<title>oneDegreeRelationshipsDiagram</title>
<polygon fill="#ffffff" stroke="transparent" points="-4,4 -4,-400.7 689,-400.7 689,4 -4,4"/>
<text text-anchor="middle" x="72.4936" y="-7.3" font-family="Helvetica,sans-Serif" font-size="11.00" fill="#000000">Generated by SchemaSpy</text>
<!-- oms.delivery_appointments -->
<g id="node1" class="node">
<title>oms.delivery_appointments</title>
<g id="a_node1"><a xlink:href="../../../oms/tables/delivery_appointments.html" xlink:title="oms.delivery_appointments" target="_top">
<polygon fill="#ffffff" stroke="transparent" points="480,-98.2 480,-269.2 677,-269.2 677,-98.2 480,-98.2"/>
<polygon fill="#f5f5f5" stroke="transparent" points="480.5,-245.7 480.5,-268.7 677.5,-268.7 677.5,-245.7 480.5,-245.7"/>
<polygon fill="none" stroke="#000000" points="480.5,-245.7 480.5,-268.7 677.5,-268.7 677.5,-245.7 480.5,-245.7"/>
<text text-anchor="start" x="485.5" y="-254.3" font-family="Helvetica,sans-Serif" font-weight="bold" font-size="11.00" fill="#000000">oms.delivery_appointments</text>
<text text-anchor="start" x="643.0219" y="-253.8" font-family="Helvetica,sans-Serif" font-size="11.00" fill="#000000">[table]</text>
<polygon fill="none" stroke="#000000" points="480.5,-223.7 480.5,-245.7 677.5,-245.7 677.5,-223.7 480.5,-223.7"/>
<image xlink:href="../../images/foreignKeys.png" width="11px" height="12px" preserveAspectRatio="xMinYMin meet" x="485.5" y="-240.7"/>
<text text-anchor="start" x="519.5" y="-230.8" font-family="Helvetica,sans-Serif" font-size="11.00" fill="#000000">order_id</text>
<polygon fill="none" stroke="#000000" points="480.5,-201.7 480.5,-223.7 677.5,-223.7 677.5,-201.7 480.5,-201.7"/>
<image xlink:href="../../images/foreignKeys.png" width="11px" height="12px" preserveAspectRatio="xMinYMin meet" x="485.5" y="-218.7"/>
<text text-anchor="start" x="519.5" y="-208.8" font-family="Helvetica,sans-Serif" font-size="11.00" fill="#000000">location_id</text>
<polygon fill="none" stroke="#000000" points="480.5,-179.7 480.5,-201.7 677.5,-201.7 677.5,-179.7 480.5,-179.7"/>
<image xlink:href="../../images/foreignKeys.png" width="11px" height="12px" preserveAspectRatio="xMinYMin meet" x="485.5" y="-196.7"/>
<text text-anchor="start" x="519.5" y="-186.8" font-family="Helvetica,sans-Serif" font-size="11.00" fill="#000000">appointment_type_code</text>
<polygon fill="none" stroke="#000000" points="480.5,-157.7 480.5,-179.7 677.5,-179.7 677.5,-157.7 480.5,-157.7"/>
<image xlink:href="../../images/foreignKeys.png" width="11px" height="12px" preserveAspectRatio="xMinYMin meet" x="485.5" y="-174.7"/>
<text text-anchor="start" x="519.5" y="-164.8" font-family="Helvetica,sans-Serif" font-size="11.00" fill="#000000">created_by</text>
<polygon fill="none" stroke="#000000" points="480.5,-135.7 480.5,-157.7 677.5,-157.7 677.5,-135.7 480.5,-135.7"/>
<image xlink:href="../../images/foreignKeys.png" width="11px" height="12px" preserveAspectRatio="xMinYMin meet" x="485.5" y="-152.7"/>
<text text-anchor="start" x="519.5" y="-142.8" font-family="Helvetica,sans-Serif" font-size="11.00" fill="#000000">updated_by</text>
<polygon fill="none" stroke="#000000" points="480.5,-116.7 480.5,-135.7 677.5,-135.7 677.5,-116.7 480.5,-116.7"/>
<text text-anchor="start" x="483.5" y="-122.8" font-family="Helvetica,sans-Serif" font-size="11.00" fill="#000000">...</text>
<polygon fill="#ffffff" stroke="transparent" points="480.5,-97.7 480.5,-116.7 564.5,-116.7 564.5,-97.7 480.5,-97.7"/>
<polygon fill="none" stroke="#000000" points="480.5,-97.7 480.5,-116.7 564.5,-116.7 564.5,-97.7 480.5,-97.7"/>
<text text-anchor="start" x="483.5" y="-103.8" font-family="Helvetica,sans-Serif" font-size="11.00" fill="#000000">&lt; 5</text>
<polygon fill="#ffffff" stroke="transparent" points="564.5,-97.7 564.5,-116.7 633.5,-116.7 633.5,-97.7 564.5,-97.7"/>
<polygon fill="none" stroke="#000000" points="564.5,-97.7 564.5,-116.7 633.5,-116.7 633.5,-97.7 564.5,-97.7"/>
<text text-anchor="start" x="598.1105" y="-103.8" font-family="Helvetica,sans-Serif" font-size="11.00" fill="#000000">0 rows</text>
<polygon fill="#ffffff" stroke="transparent" points="633.5,-97.7 633.5,-116.7 677.5,-116.7 677.5,-97.7 633.5,-97.7"/>
<polygon fill="none" stroke="#000000" points="633.5,-97.7 633.5,-116.7 677.5,-116.7 677.5,-97.7 633.5,-97.7"/>
<text text-anchor="start" x="668.3862" y="-103.8" font-family="Helvetica,sans-Serif" font-size="11.00" fill="#000000"> &#160;</text>
</a>
</g>
</g>
<!-- appointment_types -->
<g id="node2" class="node">
<title>appointment_types</title>
<g id="a_node2"><a xlink:href="../../tables/appointment_types.html" xlink:title="appointment_types" target="_top">
<polygon fill="#ffffff" stroke="transparent" points="168,-192.7 168,-392.7 431,-392.7 431,-192.7 168,-192.7"/>
<polygon fill="#f5f5f5" stroke="transparent" points="170.5,-367.7 170.5,-390.7 429.5,-390.7 429.5,-367.7 170.5,-367.7"/>
<polygon fill="none" stroke="#000000" points="170.5,-367.7 170.5,-390.7 429.5,-390.7 429.5,-367.7 170.5,-367.7"/>
<text text-anchor="start" x="175.5" y="-376.3" font-family="Helvetica,sans-Serif" font-weight="bold" font-size="11.00" fill="#000000">appointment_types</text>
<text text-anchor="start" x="394.5437" y="-375.8" font-family="Helvetica,sans-Serif" font-size="11.00" fill="#000000">[table]</text>
<polygon fill="none" stroke="#000000" points="170.5,-345.7 170.5,-367.7 337.5,-367.7 337.5,-345.7 170.5,-345.7"/>
<image xlink:href="../../images/primaryKeys.png" width="11px" height="12px" preserveAspectRatio="xMinYMin meet" x="175.5" y="-362.7"/>
<text text-anchor="start" x="190.5" y="-352.8" font-family="Helvetica,sans-Serif" font-size="11.00" fill="#000000">appointment_type_code</text>
<polygon fill="none" stroke="#000000" points="337.5,-345.7 337.5,-367.7 429.5,-367.7 429.5,-345.7 337.5,-345.7"/>
<text text-anchor="start" x="340.5" y="-353.4" font-family="Helvetica,sans-Serif" font-size="11.00" fill="#000000">varchar[50]</text>
<polygon fill="none" stroke="#000000" points="170.5,-323.7 170.5,-345.7 337.5,-345.7 337.5,-323.7 170.5,-323.7"/>
<text text-anchor="start" x="190.5" y="-330.8" font-family="Helvetica,sans-Serif" font-size="11.00" fill="#000000">description</text>
<polygon fill="none" stroke="#000000" points="337.5,-323.7 337.5,-345.7 429.5,-345.7 429.5,-323.7 337.5,-323.7"/>
<text text-anchor="start" x="340.5" y="-331.4" font-family="Helvetica,sans-Serif" font-size="11.00" fill="#000000">varchar[200]</text>
<polygon fill="none" stroke="#000000" points="170.5,-301.7 170.5,-323.7 337.5,-323.7 337.5,-301.7 170.5,-301.7"/>
<text text-anchor="start" x="190.5" y="-308.8" font-family="Helvetica,sans-Serif" font-size="11.00" fill="#000000">default_duration_minutes</text>
<polygon fill="none" stroke="#000000" points="337.5,-301.7 337.5,-323.7 429.5,-323.7 429.5,-301.7 337.5,-301.7"/>
<text text-anchor="start" x="340.5" y="-309.4" font-family="Helvetica,sans-Serif" font-size="11.00" fill="#000000">int4[10]</text>
<polygon fill="none" stroke="#000000" points="170.5,-279.7 170.5,-301.7 337.5,-301.7 337.5,-279.7 170.5,-279.7"/>
<text text-anchor="start" x="190.5" y="-286.8" font-family="Helvetica,sans-Serif" font-size="11.00" fill="#000000">created_at</text>
<polygon fill="none" stroke="#000000" points="337.5,-279.7 337.5,-301.7 429.5,-301.7 429.5,-279.7 337.5,-279.7"/>
<text text-anchor="start" x="340.1023" y="-287.4" font-family="Helvetica,sans-Serif" font-size="11.00" fill="#000000">timestamptz[35,6]</text>
<polygon fill="none" stroke="#000000" points="170.5,-257.7 170.5,-279.7 337.5,-279.7 337.5,-257.7 170.5,-257.7"/>
<text text-anchor="start" x="190.5" y="-264.8" font-family="Helvetica,sans-Serif" font-size="11.00" fill="#000000">updated_at</text>
<polygon fill="none" stroke="#000000" points="337.5,-257.7 337.5,-279.7 429.5,-279.7 429.5,-257.7 337.5,-257.7"/>
<text text-anchor="start" x="340.1023" y="-265.4" font-family="Helvetica,sans-Serif" font-size="11.00" fill="#000000">timestamptz[35,6]</text>
<polygon fill="none" stroke="#000000" points="170.5,-235.7 170.5,-257.7 337.5,-257.7 337.5,-235.7 170.5,-235.7"/>
<image xlink:href="../../images/foreignKeys.png" width="11px" height="12px" preserveAspectRatio="xMinYMin meet" x="175.5" y="-252.7"/>
<text text-anchor="start" x="190.5" y="-242.8" font-family="Helvetica,sans-Serif" font-size="11.00" fill="#000000">created_by</text>
<polygon fill="none" stroke="#000000" points="337.5,-235.7 337.5,-257.7 429.5,-257.7 429.5,-235.7 337.5,-235.7"/>
<text text-anchor="start" x="340.5" y="-243.4" font-family="Helvetica,sans-Serif" font-size="11.00" fill="#000000">int8[19]</text>
<polygon fill="none" stroke="#000000" points="170.5,-213.7 170.5,-235.7 337.5,-235.7 337.5,-213.7 170.5,-213.7"/>
<image xlink:href="../../images/foreignKeys.png" width="11px" height="12px" preserveAspectRatio="xMinYMin meet" x="175.5" y="-230.7"/>
<text text-anchor="start" x="190.5" y="-220.8" font-family="Helvetica,sans-Serif" font-size="11.00" fill="#000000">updated_by</text>
<polygon fill="none" stroke="#000000" points="337.5,-213.7 337.5,-235.7 429.5,-235.7 429.5,-213.7 337.5,-213.7"/>
<text text-anchor="start" x="340.5" y="-221.4" font-family="Helvetica,sans-Serif" font-size="11.00" fill="#000000">int8[19]</text>
<polygon fill="#ffffff" stroke="transparent" points="170.5,-194.7 170.5,-213.7 258.5,-213.7 258.5,-194.7 170.5,-194.7"/>
<polygon fill="none" stroke="#000000" points="170.5,-194.7 170.5,-213.7 258.5,-213.7 258.5,-194.7 170.5,-194.7"/>
<text text-anchor="start" x="173.5" y="-200.8" font-family="Helvetica,sans-Serif" font-size="11.00" fill="#000000">&lt; 2</text>
<polygon fill="#ffffff" stroke="transparent" points="258.5,-194.7 258.5,-213.7 337.5,-213.7 337.5,-194.7 258.5,-194.7"/>
<polygon fill="none" stroke="#000000" points="258.5,-194.7 258.5,-213.7 337.5,-213.7 337.5,-194.7 258.5,-194.7"/>
<text text-anchor="start" x="328.3862" y="-200.8" font-family="Helvetica,sans-Serif" font-size="11.00" fill="#000000"> &#160;</text>
<polygon fill="#ffffff" stroke="transparent" points="337.5,-194.7 337.5,-213.7 429.5,-213.7 429.5,-194.7 337.5,-194.7"/>
<polygon fill="none" stroke="#000000" points="337.5,-194.7 337.5,-213.7 429.5,-213.7 429.5,-194.7 337.5,-194.7"/>
<text text-anchor="start" x="410.9053" y="-200.8" font-family="Helvetica,sans-Serif" font-size="11.00" fill="#000000">1 &gt;</text>
<polygon fill="none" stroke="#000000" stroke-width="2" points="169,-193.7 169,-391.7 430,-391.7 430,-193.7 169,-193.7"/>
</a>
</g>
</g>
<!-- oms.delivery_appointments&#45;&gt;appointment_types -->
<g id="edge1" class="edge">
<title>oms.delivery_appointments:w&#45;&gt;appointment_types:e</title>
<path fill="none" stroke="#000000" d="M466.151,-193.3075C417.6671,-214.4262 500.9529,-356.7 429.5,-356.7"/>
<polygon fill="#000000" stroke="#000000" points="472.6289,-192.1304 481.1437,-194.242 476.5645,-191.4152 480.5,-190.7 480.5,-190.7 480.5,-190.7 476.5645,-191.4152 479.8563,-187.158 472.6289,-192.1304 472.6289,-192.1304"/>
<ellipse fill="none" stroke="#000000" cx="469.4805" cy="-192.7025" rx="3.2" ry="3.2"/>
</g>
<!-- users -->
<g id="node3" class="node">
<title>users</title>
<g id="a_node3"><a xlink:href="../../tables/users.html" xlink:title="users" target="_top">
<polygon fill="#ffffff" stroke="transparent" points="8,-38.2 8,-231.2 119,-231.2 119,-38.2 8,-38.2"/>
<polygon fill="#f5f5f5" stroke="transparent" points="8.5,-207.7 8.5,-230.7 119.5,-230.7 119.5,-207.7 8.5,-207.7"/>
<polygon fill="none" stroke="#000000" points="8.5,-207.7 8.5,-230.7 119.5,-230.7 119.5,-207.7 8.5,-207.7"/>
<text text-anchor="start" x="13.5" y="-216.3" font-family="Helvetica,sans-Serif" font-weight="bold" font-size="11.00" fill="#000000">users</text>
<text text-anchor="start" x="84.5437" y="-215.8" font-family="Helvetica,sans-Serif" font-size="11.00" fill="#000000">[table]</text>
<polygon fill="none" stroke="#000000" points="8.5,-185.7 8.5,-207.7 119.5,-207.7 119.5,-185.7 8.5,-185.7"/>
<image xlink:href="../../images/primaryKeys.png" width="11px" height="12px" preserveAspectRatio="xMinYMin meet" x="13.5" y="-202.7"/>
<text text-anchor="start" x="28.5" y="-192.8" font-family="Helvetica,sans-Serif" font-size="11.00" fill="#000000">id</text>
<polygon fill="#ffffff" stroke="transparent" points="8.5,-163.7 8.5,-185.7 119.5,-185.7 119.5,-163.7 8.5,-163.7"/>
<polygon fill="none" stroke="#000000" points="8.5,-163.7 8.5,-185.7 119.5,-185.7 119.5,-163.7 8.5,-163.7"/>
<text text-anchor="start" x="28.5" y="-170.8" font-family="Helvetica,sans-Serif" font-size="11.00" fill="#000000">username</text>
<polygon fill="#ffffff" stroke="transparent" points="8.5,-141.7 8.5,-163.7 119.5,-163.7 119.5,-141.7 8.5,-141.7"/>
<polygon fill="none" stroke="#000000" points="8.5,-141.7 8.5,-163.7 119.5,-163.7 119.5,-141.7 8.5,-141.7"/>
<text text-anchor="start" x="28.5" y="-148.8" font-family="Helvetica,sans-Serif" font-size="11.00" fill="#000000">email</text>
<polygon fill="#ffffff" stroke="transparent" points="8.5,-119.7 8.5,-141.7 119.5,-141.7 119.5,-119.7 8.5,-119.7"/>
<polygon fill="none" stroke="#000000" points="8.5,-119.7 8.5,-141.7 119.5,-141.7 119.5,-119.7 8.5,-119.7"/>
<image xlink:href="../../images/foreignKeys.png" width="11px" height="12px" preserveAspectRatio="xMinYMin meet" x="13.5" y="-136.7"/>
<text text-anchor="start" x="28.5" y="-126.8" font-family="Helvetica,sans-Serif" font-size="11.00" fill="#000000">department_id</text>
<polygon fill="none" stroke="#000000" points="8.5,-97.7 8.5,-119.7 119.5,-119.7 119.5,-97.7 8.5,-97.7"/>
<image xlink:href="../../images/foreignKeys.png" width="11px" height="12px" preserveAspectRatio="xMinYMin meet" x="13.5" y="-114.7"/>
<text text-anchor="start" x="28.5" y="-104.8" font-family="Helvetica,sans-Serif" font-size="11.00" fill="#000000">created_by</text>
<polygon fill="none" stroke="#000000" points="8.5,-75.7 8.5,-97.7 119.5,-97.7 119.5,-75.7 8.5,-75.7"/>
<image xlink:href="../../images/foreignKeys.png" width="11px" height="12px" preserveAspectRatio="xMinYMin meet" x="13.5" y="-92.7"/>
<text text-anchor="start" x="28.5" y="-82.8" font-family="Helvetica,sans-Serif" font-size="11.00" fill="#000000">updated_by</text>
<polygon fill="none" stroke="#000000" points="8.5,-56.7 8.5,-75.7 119.5,-75.7 119.5,-56.7 8.5,-56.7"/>
<text text-anchor="start" x="11.5" y="-62.8" font-family="Helvetica,sans-Serif" font-size="11.00" fill="#000000">...</text>
<polygon fill="#ffffff" stroke="transparent" points="8.5,-37.7 8.5,-56.7 38.5,-56.7 38.5,-37.7 8.5,-37.7"/>
<polygon fill="none" stroke="#000000" points="8.5,-37.7 8.5,-56.7 38.5,-56.7 38.5,-37.7 8.5,-37.7"/>
<text text-anchor="start" x="11.5" y="-43.8" font-family="Helvetica,sans-Serif" font-size="11.00" fill="#000000">&lt; 3</text>
<polygon fill="#ffffff" stroke="transparent" points="38.5,-37.7 38.5,-56.7 87.5,-56.7 87.5,-37.7 38.5,-37.7"/>
<polygon fill="none" stroke="#000000" points="38.5,-37.7 38.5,-56.7 87.5,-56.7 87.5,-37.7 38.5,-37.7"/>
<text text-anchor="start" x="45.9956" y="-43.8" font-family="Helvetica,sans-Serif" font-size="11.00" fill="#000000">10 rows</text>
<polygon fill="#ffffff" stroke="transparent" points="87.5,-37.7 87.5,-56.7 119.5,-56.7 119.5,-37.7 87.5,-37.7"/>
<polygon fill="none" stroke="#000000" points="87.5,-37.7 87.5,-56.7 119.5,-56.7 119.5,-37.7 87.5,-37.7"/>
<text text-anchor="start" x="94.7904" y="-43.8" font-family="Helvetica,sans-Serif" font-size="11.00" fill="#000000">66 &gt;</text>
</a>
</g>
</g>
<!-- oms.delivery_appointments&#45;&gt;users -->
<g id="edge2" class="edge">
<title>oms.delivery_appointments:w&#45;&gt;users:e</title>
<path fill="none" stroke="#000000" d="M465.8415,-168.6552C335.1315,-167.857 295.1376,-156.9573 160,-182.7 141.2913,-186.2639 138.5451,-196.7 119.5,-196.7"/>
<polygon fill="#000000" stroke="#000000" points="472.5,-168.6755 480.489,-172.3 476.5,-168.6878 480.5,-168.7 480.5,-168.7 480.5,-168.7 476.5,-168.6878 480.511,-165.1 472.5,-168.6755 472.5,-168.6755"/>
<ellipse fill="none" stroke="#000000" cx="469.3001" cy="-168.6657" rx="3.2" ry="3.2"/>
</g>
<!-- oms.delivery_appointments&#45;&gt;users -->
<g id="edge3" class="edge">
<title>oms.delivery_appointments:w&#45;&gt;users:e</title>
<path fill="none" stroke="#000000" d="M465.8123,-146.5652C334.5959,-144.1503 287.7864,-110.7015 160,-161.7 137.9044,-170.5182 143.2902,-196.7 119.5,-196.7"/>
<polygon fill="#000000" stroke="#000000" points="472.5003,-146.6265 480.4669,-150.2998 476.5002,-146.6633 480.5,-146.7 480.5,-146.7 480.5,-146.7 476.5002,-146.6633 480.5331,-143.1002 472.5003,-146.6265 472.5003,-146.6265"/>
<ellipse fill="none" stroke="#000000" cx="469.3005" cy="-146.5972" rx="3.2" ry="3.2"/>
</g>
<!-- appointment_types&#45;&gt;users -->
<g id="edge4" class="edge">
<title>appointment_types:w&#45;&gt;users:e</title>
<path fill="none" stroke="#000000" d="M156.7263,-242.0857C141.8844,-229.7078 145.291,-196.7 119.5,-196.7"/>
<polygon fill="#000000" stroke="#000000" points="162.9143,-244.1587 169.3564,-250.1135 166.7072,-245.4294 170.5,-246.7 170.5,-246.7 170.5,-246.7 166.7072,-245.4294 171.6436,-243.2865 162.9143,-244.1587 162.9143,-244.1587"/>
<ellipse fill="none" stroke="#000000" cx="159.8801" cy="-243.1422" rx="3.2" ry="3.2"/>
</g>
<!-- appointment_types&#45;&gt;users -->
<g id="edge5" class="edge">
<title>appointment_types:w&#45;&gt;users:e</title>
<path fill="none" stroke="#000000" d="M156.3987,-221.0395C143.6024,-213.4498 139.4996,-196.7 119.5,-196.7"/>
<polygon fill="#000000" stroke="#000000" points="162.7566,-222.6899 169.5954,-228.1845 166.6283,-223.6949 170.5,-224.7 170.5,-224.7 170.5,-224.7 166.6283,-223.6949 171.4046,-221.2155 162.7566,-222.6899 162.7566,-222.6899"/>
<ellipse fill="none" stroke="#000000" cx="159.6593" cy="-221.8858" rx="3.2" ry="3.2"/>
</g>
</g>
</svg>
