<?xml version="1.0" encoding="UTF-8" standalone="no"?>
<!DOCTYPE svg PUBLIC "-//W3C//DTD SVG 1.1//EN"
 "http://www.w3.org/Graphics/SVG/1.1/DTD/svg11.dtd">
<!-- Generated by graphviz version 2.40.1 (20161225.0304)
 -->
<!-- Title: oneDegreeRelationshipsDiagram Pages: 1 -->
<svg width="190pt" height="316pt"
 viewBox="0.00 0.00 190.00 316.20" xmlns="http://www.w3.org/2000/svg" xmlns:xlink="http://www.w3.org/1999/xlink">
<g id="graph0" class="graph" transform="scale(1 1) rotate(0) translate(4 312.2)">
<title>oneDegreeRelationshipsDiagram</title>
<polygon fill="#ffffff" stroke="transparent" points="-4,4 -4,-312.2 186,-312.2 186,4 -4,4"/>
<text text-anchor="middle" x="72.4936" y="-7.3" font-family="Helvetica,sans-Serif" font-size="11.00" fill="#000000">Generated by SchemaSpy</text>
<!-- calendar_dim -->
<g id="node1" class="node">
<title>calendar_dim</title>
<g id="a_node1"><a xlink:href="../../tables/calendar_dim.html" xlink:title="calendar_dim" target="_top">
<polygon fill="#ffffff" stroke="transparent" points="8,-38.2 8,-304.2 174,-304.2 174,-38.2 8,-38.2"/>
<polygon fill="#f5f5f5" stroke="transparent" points="10,-279.2 10,-302.2 172,-302.2 172,-279.2 10,-279.2"/>
<polygon fill="none" stroke="#000000" points="10,-279.2 10,-302.2 172,-302.2 172,-279.2 10,-279.2"/>
<text text-anchor="start" x="15" y="-287.8" font-family="Helvetica,sans-Serif" font-weight="bold" font-size="11.00" fill="#000000">calendar_dim</text>
<text text-anchor="start" x="137.0437" y="-287.3" font-family="Helvetica,sans-Serif" font-size="11.00" fill="#000000">[table]</text>
<polygon fill="none" stroke="#000000" points="10,-257.2 10,-279.2 111,-279.2 111,-257.2 10,-257.2"/>
<image xlink:href="../../images/primaryKeys.png" width="11px" height="12px" preserveAspectRatio="xMinYMin meet" x="15" y="-274.2"/>
<text text-anchor="start" x="30" y="-264.3" font-family="Helvetica,sans-Serif" font-size="11.00" fill="#000000">calendar_date</text>
<polygon fill="none" stroke="#000000" points="111,-257.2 111,-279.2 172,-279.2 172,-257.2 111,-257.2"/>
<text text-anchor="start" x="114" y="-264.9" font-family="Helvetica,sans-Serif" font-size="11.00" fill="#000000">date[13]</text>
<polygon fill="none" stroke="#000000" points="10,-235.2 10,-257.2 111,-257.2 111,-235.2 10,-235.2"/>
<text text-anchor="start" x="30" y="-242.3" font-family="Helvetica,sans-Serif" font-size="11.00" fill="#000000">year</text>
<polygon fill="none" stroke="#000000" points="111,-235.2 111,-257.2 172,-257.2 172,-235.2 111,-235.2"/>
<text text-anchor="start" x="114" y="-242.9" font-family="Helvetica,sans-Serif" font-size="11.00" fill="#000000">int4[10]</text>
<polygon fill="none" stroke="#000000" points="10,-213.2 10,-235.2 111,-235.2 111,-213.2 10,-213.2"/>
<text text-anchor="start" x="30" y="-220.3" font-family="Helvetica,sans-Serif" font-size="11.00" fill="#000000">quarter</text>
<polygon fill="none" stroke="#000000" points="111,-213.2 111,-235.2 172,-235.2 172,-213.2 111,-213.2"/>
<text text-anchor="start" x="114" y="-220.9" font-family="Helvetica,sans-Serif" font-size="11.00" fill="#000000">int4[10]</text>
<polygon fill="none" stroke="#000000" points="10,-191.2 10,-213.2 111,-213.2 111,-191.2 10,-191.2"/>
<text text-anchor="start" x="30" y="-198.3" font-family="Helvetica,sans-Serif" font-size="11.00" fill="#000000">month</text>
<polygon fill="none" stroke="#000000" points="111,-191.2 111,-213.2 172,-213.2 172,-191.2 111,-191.2"/>
<text text-anchor="start" x="114" y="-198.9" font-family="Helvetica,sans-Serif" font-size="11.00" fill="#000000">int4[10]</text>
<polygon fill="none" stroke="#000000" points="10,-169.2 10,-191.2 111,-191.2 111,-169.2 10,-169.2"/>
<text text-anchor="start" x="30" y="-176.3" font-family="Helvetica,sans-Serif" font-size="11.00" fill="#000000">month_name</text>
<polygon fill="none" stroke="#000000" points="111,-169.2 111,-191.2 172,-191.2 172,-169.2 111,-169.2"/>
<text text-anchor="start" x="113.994" y="-176.9" font-family="Helvetica,sans-Serif" font-size="11.00" fill="#000000">varchar[20]</text>
<polygon fill="none" stroke="#000000" points="10,-147.2 10,-169.2 111,-169.2 111,-147.2 10,-147.2"/>
<text text-anchor="start" x="30" y="-154.3" font-family="Helvetica,sans-Serif" font-size="11.00" fill="#000000">week_of_year</text>
<polygon fill="none" stroke="#000000" points="111,-147.2 111,-169.2 172,-169.2 172,-147.2 111,-147.2"/>
<text text-anchor="start" x="114" y="-154.9" font-family="Helvetica,sans-Serif" font-size="11.00" fill="#000000">int4[10]</text>
<polygon fill="none" stroke="#000000" points="10,-125.2 10,-147.2 111,-147.2 111,-125.2 10,-125.2"/>
<text text-anchor="start" x="30" y="-132.3" font-family="Helvetica,sans-Serif" font-size="11.00" fill="#000000">day_of_week</text>
<polygon fill="none" stroke="#000000" points="111,-125.2 111,-147.2 172,-147.2 172,-125.2 111,-125.2"/>
<text text-anchor="start" x="114" y="-132.9" font-family="Helvetica,sans-Serif" font-size="11.00" fill="#000000">int4[10]</text>
<polygon fill="none" stroke="#000000" points="10,-103.2 10,-125.2 111,-125.2 111,-103.2 10,-103.2"/>
<text text-anchor="start" x="30" y="-110.3" font-family="Helvetica,sans-Serif" font-size="11.00" fill="#000000">day_name</text>
<polygon fill="none" stroke="#000000" points="111,-103.2 111,-125.2 172,-125.2 172,-103.2 111,-103.2"/>
<text text-anchor="start" x="113.994" y="-110.9" font-family="Helvetica,sans-Serif" font-size="11.00" fill="#000000">varchar[20]</text>
<polygon fill="none" stroke="#000000" points="10,-81.2 10,-103.2 111,-103.2 111,-81.2 10,-81.2"/>
<text text-anchor="start" x="30" y="-88.3" font-family="Helvetica,sans-Serif" font-size="11.00" fill="#000000">is_weekend</text>
<polygon fill="none" stroke="#000000" points="111,-81.2 111,-103.2 172,-103.2 172,-81.2 111,-81.2"/>
<text text-anchor="start" x="114" y="-88.9" font-family="Helvetica,sans-Serif" font-size="11.00" fill="#000000">bool[1]</text>
<polygon fill="none" stroke="#000000" points="10,-59.2 10,-81.2 111,-81.2 111,-59.2 10,-59.2"/>
<text text-anchor="start" x="30" y="-66.3" font-family="Helvetica,sans-Serif" font-size="11.00" fill="#000000">is_holiday</text>
<polygon fill="none" stroke="#000000" points="111,-59.2 111,-81.2 172,-81.2 172,-59.2 111,-59.2"/>
<text text-anchor="start" x="114" y="-66.9" font-family="Helvetica,sans-Serif" font-size="11.00" fill="#000000">bool[1]</text>
<polygon fill="#ffffff" stroke="transparent" points="10,-40.2 10,-59.2 46,-59.2 46,-40.2 10,-40.2"/>
<polygon fill="none" stroke="#000000" points="10,-40.2 10,-59.2 46,-59.2 46,-40.2 10,-40.2"/>
<text text-anchor="start" x="13" y="-46.3" font-family="Helvetica,sans-Serif" font-size="11.00" fill="#000000">&lt; 0</text>
<polygon fill="#ffffff" stroke="transparent" points="46,-40.2 46,-59.2 111,-59.2 111,-40.2 46,-40.2"/>
<polygon fill="none" stroke="#000000" points="46,-40.2 46,-59.2 111,-59.2 111,-40.2 46,-40.2"/>
<text text-anchor="start" x="63.3807" y="-46.3" font-family="Helvetica,sans-Serif" font-size="11.00" fill="#000000">730 rows</text>
<polygon fill="#ffffff" stroke="transparent" points="111,-40.2 111,-59.2 172,-59.2 172,-40.2 111,-40.2"/>
<polygon fill="none" stroke="#000000" points="111,-40.2 111,-59.2 172,-59.2 172,-40.2 111,-40.2"/>
<text text-anchor="start" x="153.4053" y="-46.3" font-family="Helvetica,sans-Serif" font-size="11.00" fill="#000000">0 &gt;</text>
<polygon fill="none" stroke="#000000" stroke-width="2" points="9,-39.2 9,-303.2 173,-303.2 173,-39.2 9,-39.2"/>
</a>
</g>
</g>
</g>
</svg>
