<?xml version="1.0" encoding="UTF-8" standalone="no"?>
<!DOCTYPE svg PUBLIC "-//W3C//DTD SVG 1.1//EN"
 "http://www.w3.org/Graphics/SVG/1.1/DTD/svg11.dtd">
<!-- Generated by graphviz version 2.40.1 (20161225.0304)
 -->
<!-- Title: oneDegreeRelationshipsDiagram Pages: 1 -->
<svg width="969pt" height="880pt"
 viewBox="0.00 0.00 969.00 880.20" xmlns="http://www.w3.org/2000/svg" xmlns:xlink="http://www.w3.org/1999/xlink">
<g id="graph0" class="graph" transform="scale(1 1) rotate(0) translate(4 876.2)">
<title>oneDegreeRelationshipsDiagram</title>
<polygon fill="#ffffff" stroke="transparent" points="-4,4 -4,-876.2 965,-876.2 965,4 -4,4"/>
<text text-anchor="middle" x="72.4936" y="-7.3" font-family="Helvetica,sans-Serif" font-size="11.00" fill="#000000">Generated by SchemaSpy</text>
<!-- carrier_service_levels -->
<g id="node1" class="node">
<title>carrier_service_levels</title>
<g id="a_node1"><a xlink:href="../../tables/carrier_service_levels.html" xlink:title="carrier_service_levels" target="_top">
<polygon fill="#ffffff" stroke="transparent" points="585,-697.2 585,-868.2 749,-868.2 749,-697.2 585,-697.2"/>
<polygon fill="#f5f5f5" stroke="transparent" points="585,-844.7 585,-867.7 749,-867.7 749,-844.7 585,-844.7"/>
<polygon fill="none" stroke="#000000" points="585,-844.7 585,-867.7 749,-867.7 749,-844.7 585,-844.7"/>
<text text-anchor="start" x="590" y="-853.3" font-family="Helvetica,sans-Serif" font-weight="bold" font-size="11.00" fill="#000000">carrier_service_levels</text>
<text text-anchor="start" x="714.5219" y="-852.8" font-family="Helvetica,sans-Serif" font-size="11.00" fill="#000000">[table]</text>
<polygon fill="none" stroke="#000000" points="585,-822.7 585,-844.7 749,-844.7 749,-822.7 585,-822.7"/>
<image xlink:href="../../images/primaryKeys.png" width="11px" height="12px" preserveAspectRatio="xMinYMin meet" x="590" y="-839.7"/>
<text text-anchor="start" x="614" y="-829.8" font-family="Helvetica,sans-Serif" font-size="11.00" fill="#000000">service_level_id</text>
<polygon fill="#ffffff" stroke="transparent" points="585,-800.7 585,-822.7 749,-822.7 749,-800.7 585,-800.7"/>
<polygon fill="none" stroke="#000000" points="585,-800.7 585,-822.7 749,-822.7 749,-800.7 585,-800.7"/>
<image xlink:href="../../images/foreignKeys.png" width="11px" height="12px" preserveAspectRatio="xMinYMin meet" x="590" y="-817.7"/>
<text text-anchor="start" x="614" y="-807.8" font-family="Helvetica,sans-Serif" font-size="11.00" fill="#000000">carrier_id</text>
<polygon fill="#ffffff" stroke="transparent" points="585,-778.7 585,-800.7 749,-800.7 749,-778.7 585,-778.7"/>
<polygon fill="none" stroke="#000000" points="585,-778.7 585,-800.7 749,-800.7 749,-778.7 585,-778.7"/>
<text text-anchor="start" x="614" y="-785.8" font-family="Helvetica,sans-Serif" font-size="11.00" fill="#000000">service_level_code</text>
<polygon fill="none" stroke="#000000" points="585,-756.7 585,-778.7 749,-778.7 749,-756.7 585,-756.7"/>
<image xlink:href="../../images/foreignKeys.png" width="11px" height="12px" preserveAspectRatio="xMinYMin meet" x="590" y="-773.7"/>
<text text-anchor="start" x="614" y="-763.8" font-family="Helvetica,sans-Serif" font-size="11.00" fill="#000000">created_by</text>
<polygon fill="none" stroke="#000000" points="585,-734.7 585,-756.7 749,-756.7 749,-734.7 585,-734.7"/>
<image xlink:href="../../images/foreignKeys.png" width="11px" height="12px" preserveAspectRatio="xMinYMin meet" x="590" y="-751.7"/>
<text text-anchor="start" x="614" y="-741.8" font-family="Helvetica,sans-Serif" font-size="11.00" fill="#000000">updated_by</text>
<polygon fill="none" stroke="#000000" points="585,-715.7 585,-734.7 749,-734.7 749,-715.7 585,-715.7"/>
<text text-anchor="start" x="588" y="-721.8" font-family="Helvetica,sans-Serif" font-size="11.00" fill="#000000">...</text>
<polygon fill="#ffffff" stroke="transparent" points="585,-696.7 585,-715.7 665,-715.7 665,-696.7 585,-696.7"/>
<polygon fill="none" stroke="#000000" points="585,-696.7 585,-715.7 665,-715.7 665,-696.7 585,-696.7"/>
<text text-anchor="start" x="588" y="-702.8" font-family="Helvetica,sans-Serif" font-size="11.00" fill="#000000">&lt; 3</text>
<polygon fill="#ffffff" stroke="transparent" points="665,-696.7 665,-715.7 707,-715.7 707,-696.7 665,-696.7"/>
<polygon fill="none" stroke="#000000" points="665,-696.7 665,-715.7 707,-715.7 707,-696.7 665,-696.7"/>
<text text-anchor="start" x="697.8862" y="-702.8" font-family="Helvetica,sans-Serif" font-size="11.00" fill="#000000"> &#160;</text>
<polygon fill="#ffffff" stroke="transparent" points="707,-696.7 707,-715.7 749,-715.7 749,-696.7 707,-696.7"/>
<polygon fill="none" stroke="#000000" points="707,-696.7 707,-715.7 749,-715.7 749,-696.7 707,-696.7"/>
<text text-anchor="start" x="739.8862" y="-702.8" font-family="Helvetica,sans-Serif" font-size="11.00" fill="#000000"> &#160;</text>
</a>
</g>
</g>
<!-- carriers -->
<g id="node2" class="node">
<title>carriers</title>
<g id="a_node2"><a xlink:href="../../tables/carriers.html" xlink:title="carriers" target="_top">
<polygon fill="#ffffff" stroke="transparent" points="347,-386.7 347,-630.7 536,-630.7 536,-386.7 347,-386.7"/>
<polygon fill="#f5f5f5" stroke="transparent" points="349.5,-605.7 349.5,-628.7 534.5,-628.7 534.5,-605.7 349.5,-605.7"/>
<polygon fill="none" stroke="#000000" points="349.5,-605.7 349.5,-628.7 534.5,-628.7 534.5,-605.7 349.5,-605.7"/>
<text text-anchor="start" x="354.5" y="-614.3" font-family="Helvetica,sans-Serif" font-weight="bold" font-size="11.00" fill="#000000">carriers</text>
<text text-anchor="start" x="499.5437" y="-613.8" font-family="Helvetica,sans-Serif" font-size="11.00" fill="#000000">[table]</text>
<polygon fill="none" stroke="#000000" points="349.5,-583.7 349.5,-605.7 442.5,-605.7 442.5,-583.7 349.5,-583.7"/>
<image xlink:href="../../images/primaryKeys.png" width="11px" height="12px" preserveAspectRatio="xMinYMin meet" x="354.5" y="-600.7"/>
<text text-anchor="start" x="369.5" y="-590.8" font-family="Helvetica,sans-Serif" font-size="11.00" fill="#000000">carrier_id</text>
<polygon fill="none" stroke="#000000" points="442.5,-583.7 442.5,-605.7 534.5,-605.7 534.5,-583.7 442.5,-583.7"/>
<text text-anchor="start" x="445.5" y="-591.4" font-family="Helvetica,sans-Serif" font-size="11.00" fill="#000000">int8[19]</text>
<polygon fill="#ffffff" stroke="transparent" points="349.5,-561.7 349.5,-583.7 442.5,-583.7 442.5,-561.7 349.5,-561.7"/>
<polygon fill="none" stroke="#000000" points="349.5,-561.7 349.5,-583.7 442.5,-583.7 442.5,-561.7 349.5,-561.7"/>
<text text-anchor="start" x="369.5" y="-568.8" font-family="Helvetica,sans-Serif" font-size="11.00" fill="#000000">carrier_code</text>
<polygon fill="none" stroke="#000000" points="442.5,-561.7 442.5,-583.7 534.5,-583.7 534.5,-561.7 442.5,-561.7"/>
<text text-anchor="start" x="445.5" y="-569.4" font-family="Helvetica,sans-Serif" font-size="11.00" fill="#000000">varchar[50]</text>
<polygon fill="none" stroke="#000000" points="349.5,-539.7 349.5,-561.7 442.5,-561.7 442.5,-539.7 349.5,-539.7"/>
<text text-anchor="start" x="369.5" y="-546.8" font-family="Helvetica,sans-Serif" font-size="11.00" fill="#000000">name</text>
<polygon fill="none" stroke="#000000" points="442.5,-539.7 442.5,-561.7 534.5,-561.7 534.5,-539.7 442.5,-539.7"/>
<text text-anchor="start" x="445.5" y="-547.4" font-family="Helvetica,sans-Serif" font-size="11.00" fill="#000000">varchar[200]</text>
<polygon fill="none" stroke="#000000" points="349.5,-517.7 349.5,-539.7 442.5,-539.7 442.5,-517.7 349.5,-517.7"/>
<text text-anchor="start" x="369.5" y="-524.8" font-family="Helvetica,sans-Serif" font-size="11.00" fill="#000000">carrier_type</text>
<polygon fill="none" stroke="#000000" points="442.5,-517.7 442.5,-539.7 534.5,-539.7 534.5,-517.7 442.5,-517.7"/>
<text text-anchor="start" x="445.5" y="-525.4" font-family="Helvetica,sans-Serif" font-size="11.00" fill="#000000">varchar[50]</text>
<polygon fill="none" stroke="#000000" points="349.5,-495.7 349.5,-517.7 442.5,-517.7 442.5,-495.7 349.5,-495.7"/>
<text text-anchor="start" x="369.5" y="-502.8" font-family="Helvetica,sans-Serif" font-size="11.00" fill="#000000">created_at</text>
<polygon fill="none" stroke="#000000" points="442.5,-495.7 442.5,-517.7 534.5,-517.7 534.5,-495.7 442.5,-495.7"/>
<text text-anchor="start" x="445.1023" y="-503.4" font-family="Helvetica,sans-Serif" font-size="11.00" fill="#000000">timestamptz[35,6]</text>
<polygon fill="none" stroke="#000000" points="349.5,-473.7 349.5,-495.7 442.5,-495.7 442.5,-473.7 349.5,-473.7"/>
<text text-anchor="start" x="369.5" y="-480.8" font-family="Helvetica,sans-Serif" font-size="11.00" fill="#000000">updated_at</text>
<polygon fill="none" stroke="#000000" points="442.5,-473.7 442.5,-495.7 534.5,-495.7 534.5,-473.7 442.5,-473.7"/>
<text text-anchor="start" x="445.1023" y="-481.4" font-family="Helvetica,sans-Serif" font-size="11.00" fill="#000000">timestamptz[35,6]</text>
<polygon fill="none" stroke="#000000" points="349.5,-451.7 349.5,-473.7 442.5,-473.7 442.5,-451.7 349.5,-451.7"/>
<image xlink:href="../../images/foreignKeys.png" width="11px" height="12px" preserveAspectRatio="xMinYMin meet" x="354.5" y="-468.7"/>
<text text-anchor="start" x="369.5" y="-458.8" font-family="Helvetica,sans-Serif" font-size="11.00" fill="#000000">contact_id</text>
<polygon fill="none" stroke="#000000" points="442.5,-451.7 442.5,-473.7 534.5,-473.7 534.5,-451.7 442.5,-451.7"/>
<text text-anchor="start" x="445.5" y="-459.4" font-family="Helvetica,sans-Serif" font-size="11.00" fill="#000000">int8[19]</text>
<polygon fill="none" stroke="#000000" points="349.5,-429.7 349.5,-451.7 442.5,-451.7 442.5,-429.7 349.5,-429.7"/>
<image xlink:href="../../images/foreignKeys.png" width="11px" height="12px" preserveAspectRatio="xMinYMin meet" x="354.5" y="-446.7"/>
<text text-anchor="start" x="369.5" y="-436.8" font-family="Helvetica,sans-Serif" font-size="11.00" fill="#000000">created_by</text>
<polygon fill="none" stroke="#000000" points="442.5,-429.7 442.5,-451.7 534.5,-451.7 534.5,-429.7 442.5,-429.7"/>
<text text-anchor="start" x="445.5" y="-437.4" font-family="Helvetica,sans-Serif" font-size="11.00" fill="#000000">int8[19]</text>
<polygon fill="none" stroke="#000000" points="349.5,-407.7 349.5,-429.7 442.5,-429.7 442.5,-407.7 349.5,-407.7"/>
<image xlink:href="../../images/foreignKeys.png" width="11px" height="12px" preserveAspectRatio="xMinYMin meet" x="354.5" y="-424.7"/>
<text text-anchor="start" x="369.5" y="-414.8" font-family="Helvetica,sans-Serif" font-size="11.00" fill="#000000">updated_by</text>
<polygon fill="none" stroke="#000000" points="442.5,-407.7 442.5,-429.7 534.5,-429.7 534.5,-407.7 442.5,-407.7"/>
<text text-anchor="start" x="445.5" y="-415.4" font-family="Helvetica,sans-Serif" font-size="11.00" fill="#000000">int8[19]</text>
<polygon fill="#ffffff" stroke="transparent" points="349.5,-388.7 349.5,-407.7 400.5,-407.7 400.5,-388.7 349.5,-388.7"/>
<polygon fill="none" stroke="#000000" points="349.5,-388.7 349.5,-407.7 400.5,-407.7 400.5,-388.7 349.5,-388.7"/>
<text text-anchor="start" x="352.5" y="-394.8" font-family="Helvetica,sans-Serif" font-size="11.00" fill="#000000">&lt; 3</text>
<polygon fill="#ffffff" stroke="transparent" points="400.5,-388.7 400.5,-407.7 442.5,-407.7 442.5,-388.7 400.5,-388.7"/>
<polygon fill="none" stroke="#000000" points="400.5,-388.7 400.5,-407.7 442.5,-407.7 442.5,-388.7 400.5,-388.7"/>
<text text-anchor="start" x="433.3862" y="-394.8" font-family="Helvetica,sans-Serif" font-size="11.00" fill="#000000"> &#160;</text>
<polygon fill="#ffffff" stroke="transparent" points="442.5,-388.7 442.5,-407.7 534.5,-407.7 534.5,-388.7 442.5,-388.7"/>
<polygon fill="none" stroke="#000000" points="442.5,-388.7 442.5,-407.7 534.5,-407.7 534.5,-388.7 442.5,-388.7"/>
<text text-anchor="start" x="515.9053" y="-394.8" font-family="Helvetica,sans-Serif" font-size="11.00" fill="#000000">5 &gt;</text>
<polygon fill="none" stroke="#000000" stroke-width="2" points="348,-387.7 348,-629.7 535,-629.7 535,-387.7 348,-387.7"/>
</a>
</g>
</g>
<!-- carrier_service_levels&#45;&gt;carriers -->
<g id="edge1" class="edge">
<title>carrier_service_levels:w&#45;&gt;carriers:e</title>
<path fill="none" stroke="#000000" d="M570.4575,-809.6904C501.9012,-787.8141 627.913,-594.7 534.5,-594.7"/>
<polygon fill="#000000" stroke="#000000" points="577.0753,-810.6048 584.5072,-815.2661 581.0377,-811.1524 585,-811.7 585,-811.7 585,-811.7 581.0377,-811.1524 585.4928,-808.1339 577.0753,-810.6048 577.0753,-810.6048"/>
<ellipse fill="none" stroke="#000000" cx="573.9054" cy="-810.1668" rx="3.2" ry="3.2"/>
</g>
<!-- users -->
<g id="node3" class="node">
<title>users</title>
<g id="a_node3"><a xlink:href="../../tables/users.html" xlink:title="users" target="_top">
<polygon fill="#ffffff" stroke="transparent" points="8,-190.2 8,-383.2 119,-383.2 119,-190.2 8,-190.2"/>
<polygon fill="#f5f5f5" stroke="transparent" points="8.5,-359.7 8.5,-382.7 119.5,-382.7 119.5,-359.7 8.5,-359.7"/>
<polygon fill="none" stroke="#000000" points="8.5,-359.7 8.5,-382.7 119.5,-382.7 119.5,-359.7 8.5,-359.7"/>
<text text-anchor="start" x="13.5" y="-368.3" font-family="Helvetica,sans-Serif" font-weight="bold" font-size="11.00" fill="#000000">users</text>
<text text-anchor="start" x="84.5437" y="-367.8" font-family="Helvetica,sans-Serif" font-size="11.00" fill="#000000">[table]</text>
<polygon fill="none" stroke="#000000" points="8.5,-337.7 8.5,-359.7 119.5,-359.7 119.5,-337.7 8.5,-337.7"/>
<image xlink:href="../../images/primaryKeys.png" width="11px" height="12px" preserveAspectRatio="xMinYMin meet" x="13.5" y="-354.7"/>
<text text-anchor="start" x="28.5" y="-344.8" font-family="Helvetica,sans-Serif" font-size="11.00" fill="#000000">id</text>
<polygon fill="#ffffff" stroke="transparent" points="8.5,-315.7 8.5,-337.7 119.5,-337.7 119.5,-315.7 8.5,-315.7"/>
<polygon fill="none" stroke="#000000" points="8.5,-315.7 8.5,-337.7 119.5,-337.7 119.5,-315.7 8.5,-315.7"/>
<text text-anchor="start" x="28.5" y="-322.8" font-family="Helvetica,sans-Serif" font-size="11.00" fill="#000000">username</text>
<polygon fill="#ffffff" stroke="transparent" points="8.5,-293.7 8.5,-315.7 119.5,-315.7 119.5,-293.7 8.5,-293.7"/>
<polygon fill="none" stroke="#000000" points="8.5,-293.7 8.5,-315.7 119.5,-315.7 119.5,-293.7 8.5,-293.7"/>
<text text-anchor="start" x="28.5" y="-300.8" font-family="Helvetica,sans-Serif" font-size="11.00" fill="#000000">email</text>
<polygon fill="#ffffff" stroke="transparent" points="8.5,-271.7 8.5,-293.7 119.5,-293.7 119.5,-271.7 8.5,-271.7"/>
<polygon fill="none" stroke="#000000" points="8.5,-271.7 8.5,-293.7 119.5,-293.7 119.5,-271.7 8.5,-271.7"/>
<image xlink:href="../../images/foreignKeys.png" width="11px" height="12px" preserveAspectRatio="xMinYMin meet" x="13.5" y="-288.7"/>
<text text-anchor="start" x="28.5" y="-278.8" font-family="Helvetica,sans-Serif" font-size="11.00" fill="#000000">department_id</text>
<polygon fill="none" stroke="#000000" points="8.5,-249.7 8.5,-271.7 119.5,-271.7 119.5,-249.7 8.5,-249.7"/>
<image xlink:href="../../images/foreignKeys.png" width="11px" height="12px" preserveAspectRatio="xMinYMin meet" x="13.5" y="-266.7"/>
<text text-anchor="start" x="28.5" y="-256.8" font-family="Helvetica,sans-Serif" font-size="11.00" fill="#000000">created_by</text>
<polygon fill="none" stroke="#000000" points="8.5,-227.7 8.5,-249.7 119.5,-249.7 119.5,-227.7 8.5,-227.7"/>
<image xlink:href="../../images/foreignKeys.png" width="11px" height="12px" preserveAspectRatio="xMinYMin meet" x="13.5" y="-244.7"/>
<text text-anchor="start" x="28.5" y="-234.8" font-family="Helvetica,sans-Serif" font-size="11.00" fill="#000000">updated_by</text>
<polygon fill="none" stroke="#000000" points="8.5,-208.7 8.5,-227.7 119.5,-227.7 119.5,-208.7 8.5,-208.7"/>
<text text-anchor="start" x="11.5" y="-214.8" font-family="Helvetica,sans-Serif" font-size="11.00" fill="#000000">...</text>
<polygon fill="#ffffff" stroke="transparent" points="8.5,-189.7 8.5,-208.7 38.5,-208.7 38.5,-189.7 8.5,-189.7"/>
<polygon fill="none" stroke="#000000" points="8.5,-189.7 8.5,-208.7 38.5,-208.7 38.5,-189.7 8.5,-189.7"/>
<text text-anchor="start" x="11.5" y="-195.8" font-family="Helvetica,sans-Serif" font-size="11.00" fill="#000000">&lt; 3</text>
<polygon fill="#ffffff" stroke="transparent" points="38.5,-189.7 38.5,-208.7 87.5,-208.7 87.5,-189.7 38.5,-189.7"/>
<polygon fill="none" stroke="#000000" points="38.5,-189.7 38.5,-208.7 87.5,-208.7 87.5,-189.7 38.5,-189.7"/>
<text text-anchor="start" x="45.9956" y="-195.8" font-family="Helvetica,sans-Serif" font-size="11.00" fill="#000000">10 rows</text>
<polygon fill="#ffffff" stroke="transparent" points="87.5,-189.7 87.5,-208.7 119.5,-208.7 119.5,-189.7 87.5,-189.7"/>
<polygon fill="none" stroke="#000000" points="87.5,-189.7 87.5,-208.7 119.5,-208.7 119.5,-189.7 87.5,-189.7"/>
<text text-anchor="start" x="94.7904" y="-195.8" font-family="Helvetica,sans-Serif" font-size="11.00" fill="#000000">66 &gt;</text>
</a>
</g>
</g>
<!-- carrier_service_levels&#45;&gt;users -->
<g id="edge2" class="edge">
<title>carrier_service_levels:w&#45;&gt;users:e</title>
<path fill="none" stroke="#000000" d="M570.3628,-767.8476C388.9125,-771.4877 289.4614,-840.0921 160,-706.7 104.2397,-649.2467 199.563,-348.7 119.5,-348.7"/>
<polygon fill="#000000" stroke="#000000" points="577.0004,-767.7807 585.0363,-771.2998 581.0002,-767.7404 585,-767.7 585,-767.7 585,-767.7 581.0002,-767.7404 584.9637,-764.1002 577.0004,-767.7807 577.0004,-767.7807"/>
<ellipse fill="none" stroke="#000000" cx="573.8006" cy="-767.813" rx="3.2" ry="3.2"/>
</g>
<!-- carrier_service_levels&#45;&gt;users -->
<g id="edge3" class="edge">
<title>carrier_service_levels:w&#45;&gt;users:e</title>
<path fill="none" stroke="#000000" d="M570.3802,-745.19C460.3092,-738.0192 217.8471,-656.4583 160,-578.7 129.0234,-537.0611 171.3975,-348.7 119.5,-348.7"/>
<polygon fill="#000000" stroke="#000000" points="577.0049,-745.4211 584.8745,-749.2978 581.0024,-745.5605 585,-745.7 585,-745.7 585,-745.7 581.0024,-745.5605 585.1255,-742.1022 577.0049,-745.4211 577.0049,-745.4211"/>
<ellipse fill="none" stroke="#000000" cx="573.8068" cy="-745.3095" rx="3.2" ry="3.2"/>
</g>
<!-- carriers&#45;&gt;users -->
<g id="edge5" class="edge">
<title>carriers:w&#45;&gt;users:e</title>
<path fill="none" stroke="#000000" d="M335.1411,-439.3754C325.7849,-437.4317 319.6194,-433.7111 306,-430.7 241.2287,-416.3797 216.3982,-434.6233 160,-399.7 135.3916,-384.4618 148.4444,-348.7 119.5,-348.7"/>
<polygon fill="#000000" stroke="#000000" points="341.5338,-439.9651 349.1693,-444.2848 345.5169,-440.3325 349.5,-440.7 349.5,-440.7 349.5,-440.7 345.5169,-440.3325 349.8307,-437.1152 341.5338,-439.9651 341.5338,-439.9651"/>
<ellipse fill="none" stroke="#000000" cx="338.3474" cy="-439.6711" rx="3.2" ry="3.2"/>
</g>
<!-- carriers&#45;&gt;users -->
<g id="edge6" class="edge">
<title>carriers:w&#45;&gt;users:e</title>
<path fill="none" stroke="#000000" d="M335.0985,-416.1269C325.6494,-412.2644 320.25,-404.9665 306,-400.7 242.7047,-381.7491 221.7843,-396.1123 160,-372.7 140.4345,-365.2859 140.4231,-348.7 119.5,-348.7"/>
<polygon fill="#000000" stroke="#000000" points="341.6247,-417.2929 348.8668,-422.2439 345.5624,-417.9965 349.5,-418.7 349.5,-418.7 349.5,-418.7 345.5624,-417.9965 350.1332,-415.1561 341.6247,-417.2929 341.6247,-417.2929"/>
<ellipse fill="none" stroke="#000000" cx="338.4746" cy="-416.7301" rx="3.2" ry="3.2"/>
</g>
<!-- contact_roles -->
<g id="node4" class="node">
<title>contact_roles</title>
<g id="a_node4"><a xlink:href="../../tables/contact_roles.html" xlink:title="contact_roles" target="_top">
<polygon fill="#ffffff" stroke="transparent" points="168,-441.2 168,-568.2 298,-568.2 298,-441.2 168,-441.2"/>
<polygon fill="#f5f5f5" stroke="transparent" points="168,-544.7 168,-567.7 298,-567.7 298,-544.7 168,-544.7"/>
<polygon fill="none" stroke="#000000" points="168,-544.7 168,-567.7 298,-567.7 298,-544.7 168,-544.7"/>
<text text-anchor="start" x="173" y="-553.3" font-family="Helvetica,sans-Serif" font-weight="bold" font-size="11.00" fill="#000000">contact_roles</text>
<text text-anchor="start" x="263.0437" y="-552.8" font-family="Helvetica,sans-Serif" font-size="11.00" fill="#000000">[table]</text>
<polygon fill="none" stroke="#000000" points="168,-522.7 168,-544.7 298,-544.7 298,-522.7 168,-522.7"/>
<image xlink:href="../../images/primaryKeys.png" width="11px" height="12px" preserveAspectRatio="xMinYMin meet" x="173" y="-539.7"/>
<text text-anchor="start" x="188" y="-529.8" font-family="Helvetica,sans-Serif" font-size="11.00" fill="#000000">contact_id</text>
<polygon fill="none" stroke="#000000" points="168,-500.7 168,-522.7 298,-522.7 298,-500.7 168,-500.7"/>
<image xlink:href="../../images/foreignKeys.png" width="11px" height="12px" preserveAspectRatio="xMinYMin meet" x="173" y="-517.7"/>
<text text-anchor="start" x="188" y="-507.8" font-family="Helvetica,sans-Serif" font-size="11.00" fill="#000000">created_by</text>
<polygon fill="none" stroke="#000000" points="168,-478.7 168,-500.7 298,-500.7 298,-478.7 168,-478.7"/>
<image xlink:href="../../images/foreignKeys.png" width="11px" height="12px" preserveAspectRatio="xMinYMin meet" x="173" y="-495.7"/>
<text text-anchor="start" x="188" y="-485.8" font-family="Helvetica,sans-Serif" font-size="11.00" fill="#000000">updated_by</text>
<polygon fill="none" stroke="#000000" points="168,-459.7 168,-478.7 298,-478.7 298,-459.7 168,-459.7"/>
<text text-anchor="start" x="171" y="-465.8" font-family="Helvetica,sans-Serif" font-size="11.00" fill="#000000">...</text>
<polygon fill="#ffffff" stroke="transparent" points="168,-440.7 168,-459.7 208,-459.7 208,-440.7 168,-440.7"/>
<polygon fill="none" stroke="#000000" points="168,-440.7 168,-459.7 208,-459.7 208,-440.7 168,-440.7"/>
<text text-anchor="start" x="171" y="-446.8" font-family="Helvetica,sans-Serif" font-size="11.00" fill="#000000">&lt; 2</text>
<polygon fill="#ffffff" stroke="transparent" points="208,-440.7 208,-459.7 267,-459.7 267,-440.7 208,-440.7"/>
<polygon fill="none" stroke="#000000" points="208,-440.7 208,-459.7 267,-459.7 267,-440.7 208,-440.7"/>
<text text-anchor="start" x="219.3807" y="-446.8" font-family="Helvetica,sans-Serif" font-size="11.00" fill="#000000">138 rows</text>
<polygon fill="#ffffff" stroke="transparent" points="267,-440.7 267,-459.7 298,-459.7 298,-440.7 267,-440.7"/>
<polygon fill="none" stroke="#000000" points="267,-440.7 267,-459.7 298,-459.7 298,-440.7 267,-440.7"/>
<text text-anchor="start" x="279.4053" y="-446.8" font-family="Helvetica,sans-Serif" font-size="11.00" fill="#000000">3 &gt;</text>
</a>
</g>
</g>
<!-- carriers&#45;&gt;contact_roles -->
<g id="edge4" class="edge">
<title>carriers:w&#45;&gt;contact_roles:e</title>
<path fill="none" stroke="#000000" d="M335.7777,-467.1414C317.062,-482.685 331.044,-533.7 298,-533.7"/>
<polygon fill="#000000" stroke="#000000" points="341.8887,-465.1635 350.6086,-466.1251 345.6944,-463.9318 349.5,-462.7 349.5,-462.7 349.5,-462.7 345.6944,-463.9318 348.3914,-459.2749 341.8887,-465.1635 341.8887,-465.1635"/>
<ellipse fill="none" stroke="#000000" cx="338.8442" cy="-466.1489" rx="3.2" ry="3.2"/>
</g>
<!-- contact_roles&#45;&gt;users -->
<g id="edge7" class="edge">
<title>contact_roles:w&#45;&gt;users:e</title>
<path fill="none" stroke="#000000" d="M153.6732,-509.0068C107.0231,-487.8137 189.326,-348.7 119.5,-348.7"/>
<polygon fill="#000000" stroke="#000000" points="160.1377,-510.222 167.3349,-515.238 164.0689,-510.961 168,-511.7 168,-511.7 168,-511.7 164.0689,-510.961 168.6651,-508.162 160.1377,-510.222 160.1377,-510.222"/>
<ellipse fill="none" stroke="#000000" cx="156.9928" cy="-509.6308" rx="3.2" ry="3.2"/>
</g>
<!-- contact_roles&#45;&gt;users -->
<g id="edge8" class="edge">
<title>contact_roles:w&#45;&gt;users:e</title>
<path fill="none" stroke="#000000" d="M153.56,-486.4901C115.6174,-465.5022 179.8163,-348.7 119.5,-348.7"/>
<polygon fill="#000000" stroke="#000000" points="160.1906,-487.964 167.2188,-493.2142 164.0953,-488.832 168,-489.7 168,-489.7 168,-489.7 164.0953,-488.832 168.7812,-486.1858 160.1906,-487.964 160.1906,-487.964"/>
<ellipse fill="none" stroke="#000000" cx="157.0669" cy="-487.2696" rx="3.2" ry="3.2"/>
</g>
<!-- drivers -->
<g id="node5" class="node">
<title>drivers</title>
<g id="a_node5"><a xlink:href="../../tables/drivers.html" xlink:title="drivers" target="_top">
<polygon fill="#ffffff" stroke="transparent" points="604.5,-455.2 604.5,-648.2 729.5,-648.2 729.5,-455.2 604.5,-455.2"/>
<polygon fill="#f5f5f5" stroke="transparent" points="605,-624.7 605,-647.7 730,-647.7 730,-624.7 605,-624.7"/>
<polygon fill="none" stroke="#000000" points="605,-624.7 605,-647.7 730,-647.7 730,-624.7 605,-624.7"/>
<text text-anchor="start" x="610" y="-633.3" font-family="Helvetica,sans-Serif" font-weight="bold" font-size="11.00" fill="#000000">drivers</text>
<text text-anchor="start" x="695.0437" y="-632.8" font-family="Helvetica,sans-Serif" font-size="11.00" fill="#000000">[table]</text>
<polygon fill="none" stroke="#000000" points="605,-602.7 605,-624.7 730,-624.7 730,-602.7 605,-602.7"/>
<image xlink:href="../../images/primaryKeys.png" width="11px" height="12px" preserveAspectRatio="xMinYMin meet" x="610" y="-619.7"/>
<text text-anchor="start" x="625" y="-609.8" font-family="Helvetica,sans-Serif" font-size="11.00" fill="#000000">driver_id</text>
<polygon fill="none" stroke="#000000" points="605,-580.7 605,-602.7 730,-602.7 730,-580.7 605,-580.7"/>
<image xlink:href="../../images/foreignKeys.png" width="11px" height="12px" preserveAspectRatio="xMinYMin meet" x="610" y="-597.7"/>
<text text-anchor="start" x="625" y="-587.8" font-family="Helvetica,sans-Serif" font-size="11.00" fill="#000000">carrier_id</text>
<polygon fill="#ffffff" stroke="transparent" points="605,-558.7 605,-580.7 730,-580.7 730,-558.7 605,-558.7"/>
<polygon fill="none" stroke="#000000" points="605,-558.7 605,-580.7 730,-580.7 730,-558.7 605,-558.7"/>
<text text-anchor="start" x="625" y="-565.8" font-family="Helvetica,sans-Serif" font-size="11.00" fill="#000000">driver_code</text>
<polygon fill="none" stroke="#000000" points="605,-536.7 605,-558.7 730,-558.7 730,-536.7 605,-536.7"/>
<image xlink:href="../../images/foreignKeys.png" width="11px" height="12px" preserveAspectRatio="xMinYMin meet" x="610" y="-553.7"/>
<text text-anchor="start" x="625" y="-543.8" font-family="Helvetica,sans-Serif" font-size="11.00" fill="#000000">contact_id</text>
<polygon fill="none" stroke="#000000" points="605,-514.7 605,-536.7 730,-536.7 730,-514.7 605,-514.7"/>
<image xlink:href="../../images/foreignKeys.png" width="11px" height="12px" preserveAspectRatio="xMinYMin meet" x="610" y="-531.7"/>
<text text-anchor="start" x="625" y="-521.8" font-family="Helvetica,sans-Serif" font-size="11.00" fill="#000000">created_by</text>
<polygon fill="none" stroke="#000000" points="605,-492.7 605,-514.7 730,-514.7 730,-492.7 605,-492.7"/>
<image xlink:href="../../images/foreignKeys.png" width="11px" height="12px" preserveAspectRatio="xMinYMin meet" x="610" y="-509.7"/>
<text text-anchor="start" x="625" y="-499.8" font-family="Helvetica,sans-Serif" font-size="11.00" fill="#000000">updated_by</text>
<polygon fill="none" stroke="#000000" points="605,-473.7 605,-492.7 730,-492.7 730,-473.7 605,-473.7"/>
<text text-anchor="start" x="608" y="-479.8" font-family="Helvetica,sans-Serif" font-size="11.00" fill="#000000">...</text>
<polygon fill="#ffffff" stroke="transparent" points="605,-454.7 605,-473.7 666,-473.7 666,-454.7 605,-454.7"/>
<polygon fill="none" stroke="#000000" points="605,-454.7 605,-473.7 666,-473.7 666,-454.7 605,-454.7"/>
<text text-anchor="start" x="608" y="-460.8" font-family="Helvetica,sans-Serif" font-size="11.00" fill="#000000">&lt; 4</text>
<polygon fill="#ffffff" stroke="transparent" points="666,-454.7 666,-473.7 698,-473.7 698,-454.7 666,-454.7"/>
<polygon fill="none" stroke="#000000" points="666,-454.7 666,-473.7 698,-473.7 698,-454.7 666,-454.7"/>
<text text-anchor="start" x="688.8862" y="-460.8" font-family="Helvetica,sans-Serif" font-size="11.00" fill="#000000"> &#160;</text>
<polygon fill="#ffffff" stroke="transparent" points="698,-454.7 698,-473.7 730,-473.7 730,-454.7 698,-454.7"/>
<polygon fill="none" stroke="#000000" points="698,-454.7 698,-473.7 730,-473.7 730,-454.7 698,-454.7"/>
<text text-anchor="start" x="720.8862" y="-460.8" font-family="Helvetica,sans-Serif" font-size="11.00" fill="#000000"> &#160;</text>
</a>
</g>
</g>
<!-- drivers&#45;&gt;carriers -->
<g id="edge9" class="edge">
<title>drivers:w&#45;&gt;carriers:e</title>
<path fill="none" stroke="#000000" d="M590.3917,-591.9455C570.1756,-592.662 560.3489,-594.7 534.5,-594.7"/>
<polygon fill="#000000" stroke="#000000" points="597.0011,-591.8345 605.0605,-595.2995 601.0006,-591.7672 605,-591.7 605,-591.7 605,-591.7 601.0006,-591.7672 604.9395,-588.1005 597.0011,-591.8345 597.0011,-591.8345"/>
<ellipse fill="none" stroke="#000000" cx="593.8016" cy="-591.8883" rx="3.2" ry="3.2"/>
</g>
<!-- drivers&#45;&gt;users -->
<g id="edge11" class="edge">
<title>drivers:w&#45;&gt;users:e</title>
<path fill="none" stroke="#000000" d="M590.6684,-523.8196C543.3928,-509.3509 597.5335,-415.2455 544,-376.7 505.6399,-349.0797 166.7692,-348.7 119.5,-348.7"/>
<polygon fill="#000000" stroke="#000000" points="597.068,-524.6592 604.5317,-529.2694 601.034,-525.1796 605,-525.7 605,-525.7 605,-525.7 601.034,-525.1796 605.4683,-522.1306 597.068,-524.6592 597.068,-524.6592"/>
<ellipse fill="none" stroke="#000000" cx="593.8952" cy="-524.2429" rx="3.2" ry="3.2"/>
</g>
<!-- drivers&#45;&gt;users -->
<g id="edge12" class="edge">
<title>drivers:w&#45;&gt;users:e</title>
<path fill="none" stroke="#000000" d="M590.5199,-501.8346C541.3333,-487.0743 599.5018,-388.6637 544,-348.7 467.4468,-293.5784 213.8333,-348.7 119.5,-348.7"/>
<polygon fill="#000000" stroke="#000000" points="597.0656,-502.6778 604.54,-507.2705 601.0328,-503.1889 605,-503.7 605,-503.7 605,-503.7 601.0328,-503.1889 605.46,-500.1295 597.0656,-502.6778 597.0656,-502.6778"/>
<ellipse fill="none" stroke="#000000" cx="593.8918" cy="-502.2689" rx="3.2" ry="3.2"/>
</g>
<!-- drivers&#45;&gt;contact_roles -->
<g id="edge10" class="edge">
<title>drivers:w&#45;&gt;contact_roles:e</title>
<path fill="none" stroke="#000000" d="M590.6291,-550.4055C561.7813,-563.5218 582.6357,-620.7143 544,-641.7 463.9372,-685.1877 413.9916,-693.4446 339,-641.7 296.7411,-612.5412 349.3425,-533.7 298,-533.7"/>
<polygon fill="#000000" stroke="#000000" points="597.1381,-549.1802 605.6661,-551.2378 601.0691,-548.4401 605,-547.7 605,-547.7 605,-547.7 601.0691,-548.4401 604.3339,-544.1622 597.1381,-549.1802 597.1381,-549.1802"/>
<ellipse fill="none" stroke="#000000" cx="593.9934" cy="-549.7722" rx="3.2" ry="3.2"/>
</g>
<!-- vehicles -->
<g id="node6" class="node">
<title>vehicles</title>
<g id="a_node6"><a xlink:href="../../tables/vehicles.html" xlink:title="vehicles" target="_top">
<polygon fill="#ffffff" stroke="transparent" points="608.5,-241.2 608.5,-434.2 725.5,-434.2 725.5,-241.2 608.5,-241.2"/>
<polygon fill="#f5f5f5" stroke="transparent" points="609,-410.7 609,-433.7 726,-433.7 726,-410.7 609,-410.7"/>
<polygon fill="none" stroke="#000000" points="609,-410.7 609,-433.7 726,-433.7 726,-410.7 609,-410.7"/>
<text text-anchor="start" x="614" y="-419.3" font-family="Helvetica,sans-Serif" font-weight="bold" font-size="11.00" fill="#000000">vehicles</text>
<text text-anchor="start" x="691.0437" y="-418.8" font-family="Helvetica,sans-Serif" font-size="11.00" fill="#000000">[table]</text>
<polygon fill="none" stroke="#000000" points="609,-388.7 609,-410.7 726,-410.7 726,-388.7 609,-388.7"/>
<image xlink:href="../../images/primaryKeys.png" width="11px" height="12px" preserveAspectRatio="xMinYMin meet" x="614" y="-405.7"/>
<text text-anchor="start" x="629" y="-395.8" font-family="Helvetica,sans-Serif" font-size="11.00" fill="#000000">vehicle_id</text>
<polygon fill="none" stroke="#000000" points="609,-366.7 609,-388.7 726,-388.7 726,-366.7 609,-366.7"/>
<image xlink:href="../../images/foreignKeys.png" width="11px" height="12px" preserveAspectRatio="xMinYMin meet" x="614" y="-383.7"/>
<text text-anchor="start" x="629" y="-373.8" font-family="Helvetica,sans-Serif" font-size="11.00" fill="#000000">carrier_id</text>
<polygon fill="#ffffff" stroke="transparent" points="609,-344.7 609,-366.7 726,-366.7 726,-344.7 609,-344.7"/>
<polygon fill="none" stroke="#000000" points="609,-344.7 609,-366.7 726,-366.7 726,-344.7 609,-344.7"/>
<text text-anchor="start" x="629" y="-351.8" font-family="Helvetica,sans-Serif" font-size="11.00" fill="#000000">vehicle_code</text>
<polygon fill="#ffffff" stroke="transparent" points="609,-322.7 609,-344.7 726,-344.7 726,-322.7 609,-322.7"/>
<polygon fill="none" stroke="#000000" points="609,-322.7 609,-344.7 726,-344.7 726,-322.7 609,-322.7"/>
<text text-anchor="start" x="629" y="-329.8" font-family="Helvetica,sans-Serif" font-size="11.00" fill="#000000">plate_number</text>
<polygon fill="none" stroke="#000000" points="609,-300.7 609,-322.7 726,-322.7 726,-300.7 609,-300.7"/>
<image xlink:href="../../images/foreignKeys.png" width="11px" height="12px" preserveAspectRatio="xMinYMin meet" x="614" y="-317.7"/>
<text text-anchor="start" x="629" y="-307.8" font-family="Helvetica,sans-Serif" font-size="11.00" fill="#000000">created_by</text>
<polygon fill="none" stroke="#000000" points="609,-278.7 609,-300.7 726,-300.7 726,-278.7 609,-278.7"/>
<image xlink:href="../../images/foreignKeys.png" width="11px" height="12px" preserveAspectRatio="xMinYMin meet" x="614" y="-295.7"/>
<text text-anchor="start" x="629" y="-285.8" font-family="Helvetica,sans-Serif" font-size="11.00" fill="#000000">updated_by</text>
<polygon fill="none" stroke="#000000" points="609,-259.7 609,-278.7 726,-278.7 726,-259.7 609,-259.7"/>
<text text-anchor="start" x="612" y="-265.8" font-family="Helvetica,sans-Serif" font-size="11.00" fill="#000000">...</text>
<polygon fill="#ffffff" stroke="transparent" points="609,-240.7 609,-259.7 661,-259.7 661,-240.7 609,-240.7"/>
<polygon fill="none" stroke="#000000" points="609,-240.7 609,-259.7 661,-259.7 661,-240.7 609,-240.7"/>
<text text-anchor="start" x="612" y="-246.8" font-family="Helvetica,sans-Serif" font-size="11.00" fill="#000000">&lt; 3</text>
<polygon fill="#ffffff" stroke="transparent" points="661,-240.7 661,-259.7 689,-259.7 689,-240.7 661,-240.7"/>
<polygon fill="none" stroke="#000000" points="661,-240.7 661,-259.7 689,-259.7 689,-240.7 661,-240.7"/>
<text text-anchor="start" x="679.8862" y="-246.8" font-family="Helvetica,sans-Serif" font-size="11.00" fill="#000000"> &#160;</text>
<polygon fill="#ffffff" stroke="transparent" points="689,-240.7 689,-259.7 726,-259.7 726,-240.7 689,-240.7"/>
<polygon fill="none" stroke="#000000" points="689,-240.7 689,-259.7 726,-259.7 726,-240.7 689,-240.7"/>
<text text-anchor="start" x="707.4053" y="-246.8" font-family="Helvetica,sans-Serif" font-size="11.00" fill="#000000">1 &gt;</text>
</a>
</g>
</g>
<!-- vehicles&#45;&gt;carriers -->
<g id="edge13" class="edge">
<title>vehicles:w&#45;&gt;carriers:e</title>
<path fill="none" stroke="#000000" d="M594.2711,-379.576C520.4954,-400.7854 630.8935,-594.7 534.5,-594.7"/>
<polygon fill="#000000" stroke="#000000" points="601.0641,-378.7108 609.4549,-381.2712 605.0321,-378.2054 609,-377.7 609,-377.7 609,-377.7 605.0321,-378.2054 608.5451,-374.1288 601.0641,-378.7108 601.0641,-378.7108"/>
<ellipse fill="none" stroke="#000000" cx="597.8898" cy="-379.1151" rx="3.2" ry="3.2"/>
</g>
<!-- vehicles&#45;&gt;users -->
<g id="edge14" class="edge">
<title>vehicles:w&#45;&gt;users:e</title>
<path fill="none" stroke="#000000" d="M594.3454,-311.6277C406.4182,-309.7666 347.4275,-273.0549 160,-325.7 140.0711,-331.2977 140.2001,-348.7 119.5,-348.7"/>
<polygon fill="#000000" stroke="#000000" points="601.0001,-311.6605 608.9822,-315.3 605,-311.6802 609,-311.7 609,-311.7 609,-311.7 605,-311.6802 609.0178,-308.1 601.0001,-311.6605 601.0001,-311.6605"/>
<ellipse fill="none" stroke="#000000" cx="597.8001" cy="-311.6446" rx="3.2" ry="3.2"/>
</g>
<!-- vehicles&#45;&gt;users -->
<g id="edge15" class="edge">
<title>vehicles:w&#45;&gt;users:e</title>
<path fill="none" stroke="#000000" d="M594.3258,-289.5484C405.8181,-285.6417 333.8682,-208.2908 160,-295.7 133.5131,-309.0158 149.1456,-348.7 119.5,-348.7"/>
<polygon fill="#000000" stroke="#000000" points="601.0004,-289.6173 608.9628,-293.2998 605.0002,-289.6586 609,-289.7 609,-289.7 609,-289.7 605.0002,-289.6586 609.0372,-286.1002 601.0004,-289.6173 601.0004,-289.6173"/>
<ellipse fill="none" stroke="#000000" cx="597.8006" cy="-289.5842" rx="3.2" ry="3.2"/>
</g>
<!-- tms.container_legs -->
<g id="node7" class="node">
<title>tms.container_legs</title>
<g id="a_node7"><a xlink:href="../../../tms/tables/container_legs.html" xlink:title="tms.container_legs" target="_top">
<polygon fill="#ffffff" stroke="transparent" points="798,-226.2 798,-419.2 953,-419.2 953,-226.2 798,-226.2"/>
<polygon fill="#f5f5f5" stroke="transparent" points="798.5,-395.7 798.5,-418.7 953.5,-418.7 953.5,-395.7 798.5,-395.7"/>
<polygon fill="none" stroke="#000000" points="798.5,-395.7 798.5,-418.7 953.5,-418.7 953.5,-395.7 798.5,-395.7"/>
<text text-anchor="start" x="803.5" y="-404.3" font-family="Helvetica,sans-Serif" font-weight="bold" font-size="11.00" fill="#000000">tms.container_legs</text>
<text text-anchor="start" x="918.5437" y="-403.8" font-family="Helvetica,sans-Serif" font-size="11.00" fill="#000000">[table]</text>
<polygon fill="none" stroke="#000000" points="798.5,-373.7 798.5,-395.7 953.5,-395.7 953.5,-373.7 798.5,-373.7"/>
<image xlink:href="../../images/foreignKeys.png" width="11px" height="12px" preserveAspectRatio="xMinYMin meet" x="803.5" y="-390.7"/>
<text text-anchor="start" x="818.5" y="-380.8" font-family="Helvetica,sans-Serif" font-size="11.00" fill="#000000">origin_location_id</text>
<polygon fill="none" stroke="#000000" points="798.5,-351.7 798.5,-373.7 953.5,-373.7 953.5,-351.7 798.5,-351.7"/>
<image xlink:href="../../images/foreignKeys.png" width="11px" height="12px" preserveAspectRatio="xMinYMin meet" x="803.5" y="-368.7"/>
<text text-anchor="start" x="818.5" y="-358.8" font-family="Helvetica,sans-Serif" font-size="11.00" fill="#000000">destination_location_id</text>
<polygon fill="none" stroke="#000000" points="798.5,-329.7 798.5,-351.7 953.5,-351.7 953.5,-329.7 798.5,-329.7"/>
<image xlink:href="../../images/foreignKeys.png" width="11px" height="12px" preserveAspectRatio="xMinYMin meet" x="803.5" y="-346.7"/>
<text text-anchor="start" x="818.5" y="-336.8" font-family="Helvetica,sans-Serif" font-size="11.00" fill="#000000">carrier_id</text>
<polygon fill="none" stroke="#000000" points="798.5,-307.7 798.5,-329.7 953.5,-329.7 953.5,-307.7 798.5,-307.7"/>
<image xlink:href="../../images/foreignKeys.png" width="11px" height="12px" preserveAspectRatio="xMinYMin meet" x="803.5" y="-324.7"/>
<text text-anchor="start" x="818.5" y="-314.8" font-family="Helvetica,sans-Serif" font-size="11.00" fill="#000000">vehicle_id</text>
<polygon fill="none" stroke="#000000" points="798.5,-285.7 798.5,-307.7 953.5,-307.7 953.5,-285.7 798.5,-285.7"/>
<image xlink:href="../../images/foreignKeys.png" width="11px" height="12px" preserveAspectRatio="xMinYMin meet" x="803.5" y="-302.7"/>
<text text-anchor="start" x="818.5" y="-292.8" font-family="Helvetica,sans-Serif" font-size="11.00" fill="#000000">created_by</text>
<polygon fill="none" stroke="#000000" points="798.5,-263.7 798.5,-285.7 953.5,-285.7 953.5,-263.7 798.5,-263.7"/>
<image xlink:href="../../images/foreignKeys.png" width="11px" height="12px" preserveAspectRatio="xMinYMin meet" x="803.5" y="-280.7"/>
<text text-anchor="start" x="818.5" y="-270.8" font-family="Helvetica,sans-Serif" font-size="11.00" fill="#000000">updated_by</text>
<polygon fill="none" stroke="#000000" points="798.5,-244.7 798.5,-263.7 953.5,-263.7 953.5,-244.7 798.5,-244.7"/>
<text text-anchor="start" x="801.5" y="-250.8" font-family="Helvetica,sans-Serif" font-size="11.00" fill="#000000">...</text>
<polygon fill="#ffffff" stroke="transparent" points="798.5,-225.7 798.5,-244.7 861.5,-244.7 861.5,-225.7 798.5,-225.7"/>
<polygon fill="none" stroke="#000000" points="798.5,-225.7 798.5,-244.7 861.5,-244.7 861.5,-225.7 798.5,-225.7"/>
<text text-anchor="start" x="801.5" y="-231.8" font-family="Helvetica,sans-Serif" font-size="11.00" fill="#000000">&lt; 6</text>
<polygon fill="#ffffff" stroke="transparent" points="861.5,-225.7 861.5,-244.7 920.5,-244.7 920.5,-225.7 861.5,-225.7"/>
<polygon fill="none" stroke="#000000" points="861.5,-225.7 861.5,-244.7 920.5,-244.7 920.5,-225.7 861.5,-225.7"/>
<text text-anchor="start" x="885.1105" y="-231.8" font-family="Helvetica,sans-Serif" font-size="11.00" fill="#000000">0 rows</text>
<polygon fill="#ffffff" stroke="transparent" points="920.5,-225.7 920.5,-244.7 953.5,-244.7 953.5,-225.7 920.5,-225.7"/>
<polygon fill="none" stroke="#000000" points="920.5,-225.7 920.5,-244.7 953.5,-244.7 953.5,-225.7 920.5,-225.7"/>
<text text-anchor="start" x="944.3862" y="-231.8" font-family="Helvetica,sans-Serif" font-size="11.00" fill="#000000"> &#160;</text>
</a>
</g>
</g>
<!-- tms.container_legs&#45;&gt;carriers -->
<g id="edge16" class="edge">
<title>tms.container_legs:w&#45;&gt;carriers:e</title>
<path fill="none" stroke="#000000" d="M784.7766,-345.1981C739.1332,-380.6828 806.4747,-615.2624 757,-658.7 726.9413,-685.0908 612.2499,-677.6061 577,-658.7 546.9098,-642.5613 568.6449,-594.7 534.5,-594.7"/>
<polygon fill="#000000" stroke="#000000" points="790.8979,-343.1917 799.6213,-344.1209 794.699,-341.9459 798.5,-340.7 798.5,-340.7 798.5,-340.7 794.699,-341.9459 797.3787,-337.2791 790.8979,-343.1917 790.8979,-343.1917"/>
<ellipse fill="none" stroke="#000000" cx="787.8571" cy="-344.1884" rx="3.2" ry="3.2"/>
</g>
<!-- tms.container_legs&#45;&gt;users -->
<g id="edge17" class="edge">
<title>tms.container_legs:w&#45;&gt;users:e</title>
<path fill="none" stroke="#000000" d="M784.4022,-292.0451C770.7629,-279.3757 781.6427,-244.3144 757,-230.7 709.3608,-204.3807 225.0462,-204.9065 160,-250.7 121.4637,-277.8301 166.6284,-348.7 119.5,-348.7"/>
<polygon fill="#000000" stroke="#000000" points="790.9034,-294.1916 797.3712,-300.1185 794.7017,-295.4458 798.5,-296.7 798.5,-296.7 798.5,-296.7 794.7017,-295.4458 799.6288,-293.2815 790.9034,-294.1916 790.9034,-294.1916"/>
<ellipse fill="none" stroke="#000000" cx="787.8648" cy="-293.1883" rx="3.2" ry="3.2"/>
</g>
<!-- tms.container_legs&#45;&gt;users -->
<g id="edge18" class="edge">
<title>tms.container_legs:w&#45;&gt;users:e</title>
<path fill="none" stroke="#000000" d="M784.5184,-270.1129C770.928,-257.6287 781.422,-223.0827 757,-209.7 698.8214,-177.8196 212.4286,-178.0509 160,-218.7 112.1742,-255.7805 180.0167,-348.7 119.5,-348.7"/>
<polygon fill="#000000" stroke="#000000" points="790.8986,-272.2061 797.3778,-278.1206 794.6993,-273.4531 798.5,-274.7 798.5,-274.7 798.5,-274.7 794.6993,-273.4531 799.6222,-271.2794 790.8986,-272.2061 790.8986,-272.2061"/>
<ellipse fill="none" stroke="#000000" cx="787.8581" cy="-271.2086" rx="3.2" ry="3.2"/>
</g>
<!-- tms.container_legs&#45;&gt;vehicles -->
<g id="edge19" class="edge">
<title>tms.container_legs:w&#45;&gt;vehicles:e</title>
<path fill="none" stroke="#000000" d="M784.2659,-321.7764C754.846,-336.572 768.6525,-399.7 726,-399.7"/>
<polygon fill="#000000" stroke="#000000" points="790.6805,-320.39 799.2605,-322.2188 794.5903,-319.545 798.5,-318.7 798.5,-318.7 798.5,-318.7 794.5903,-319.545 797.7395,-315.1812 790.6805,-320.39 790.6805,-320.39"/>
<ellipse fill="none" stroke="#000000" cx="787.5528" cy="-321.0661" rx="3.2" ry="3.2"/>
</g>
<!-- tms.freight_bills -->
<g id="node8" class="node">
<title>tms.freight_bills</title>
<g id="a_node8"><a xlink:href="../../../tms/tables/freight_bills.html" xlink:title="tms.freight_bills" target="_top">
<polygon fill="#ffffff" stroke="transparent" points="601.5,-38.2 601.5,-165.2 732.5,-165.2 732.5,-38.2 601.5,-38.2"/>
<polygon fill="#f5f5f5" stroke="transparent" points="602,-141.7 602,-164.7 733,-164.7 733,-141.7 602,-141.7"/>
<polygon fill="none" stroke="#000000" points="602,-141.7 602,-164.7 733,-164.7 733,-141.7 602,-141.7"/>
<text text-anchor="start" x="607" y="-150.3" font-family="Helvetica,sans-Serif" font-weight="bold" font-size="11.00" fill="#000000">tms.freight_bills</text>
<text text-anchor="start" x="698.5219" y="-149.8" font-family="Helvetica,sans-Serif" font-size="11.00" fill="#000000">[table]</text>
<polygon fill="none" stroke="#000000" points="602,-119.7 602,-141.7 733,-141.7 733,-119.7 602,-119.7"/>
<image xlink:href="../../images/foreignKeys.png" width="11px" height="12px" preserveAspectRatio="xMinYMin meet" x="607" y="-136.7"/>
<text text-anchor="start" x="635" y="-126.8" font-family="Helvetica,sans-Serif" font-size="11.00" fill="#000000">carrier_id</text>
<polygon fill="none" stroke="#000000" points="602,-97.7 602,-119.7 733,-119.7 733,-97.7 602,-97.7"/>
<image xlink:href="../../images/foreignKeys.png" width="11px" height="12px" preserveAspectRatio="xMinYMin meet" x="607" y="-114.7"/>
<text text-anchor="start" x="635" y="-104.8" font-family="Helvetica,sans-Serif" font-size="11.00" fill="#000000">created_by</text>
<polygon fill="none" stroke="#000000" points="602,-75.7 602,-97.7 733,-97.7 733,-75.7 602,-75.7"/>
<image xlink:href="../../images/foreignKeys.png" width="11px" height="12px" preserveAspectRatio="xMinYMin meet" x="607" y="-92.7"/>
<text text-anchor="start" x="635" y="-82.8" font-family="Helvetica,sans-Serif" font-size="11.00" fill="#000000">updated_by</text>
<polygon fill="none" stroke="#000000" points="602,-56.7 602,-75.7 733,-75.7 733,-56.7 602,-56.7"/>
<text text-anchor="start" x="605" y="-62.8" font-family="Helvetica,sans-Serif" font-size="11.00" fill="#000000">...</text>
<polygon fill="#ffffff" stroke="transparent" points="602,-37.7 602,-56.7 653,-56.7 653,-37.7 602,-37.7"/>
<polygon fill="none" stroke="#000000" points="602,-37.7 602,-56.7 653,-56.7 653,-37.7 602,-37.7"/>
<text text-anchor="start" x="605" y="-43.8" font-family="Helvetica,sans-Serif" font-size="11.00" fill="#000000">&lt; 3</text>
<polygon fill="#ffffff" stroke="transparent" points="653,-37.7 653,-56.7 706,-56.7 706,-37.7 653,-37.7"/>
<polygon fill="none" stroke="#000000" points="653,-37.7 653,-56.7 706,-56.7 706,-37.7 653,-37.7"/>
<text text-anchor="start" x="670.6105" y="-43.8" font-family="Helvetica,sans-Serif" font-size="11.00" fill="#000000">0 rows</text>
<polygon fill="#ffffff" stroke="transparent" points="706,-37.7 706,-56.7 733,-56.7 733,-37.7 706,-37.7"/>
<polygon fill="none" stroke="#000000" points="706,-37.7 706,-56.7 733,-56.7 733,-37.7 706,-37.7"/>
<text text-anchor="start" x="723.8862" y="-43.8" font-family="Helvetica,sans-Serif" font-size="11.00" fill="#000000"> &#160;</text>
</a>
</g>
</g>
<!-- tms.freight_bills&#45;&gt;carriers -->
<g id="edge20" class="edge">
<title>tms.freight_bills:w&#45;&gt;carriers:e</title>
<path fill="none" stroke="#000000" d="M587.9582,-134.1681C511.481,-176.6285 633.4052,-594.7 534.5,-594.7"/>
<polygon fill="#000000" stroke="#000000" points="594.2334,-132.6183 602.8632,-134.195 598.1167,-131.6591 602,-130.7 602,-130.7 602,-130.7 598.1167,-131.6591 601.1368,-127.205 594.2334,-132.6183 594.2334,-132.6183"/>
<ellipse fill="none" stroke="#000000" cx="591.1267" cy="-133.3856" rx="3.2" ry="3.2"/>
</g>
<!-- tms.freight_bills&#45;&gt;users -->
<g id="edge21" class="edge">
<title>tms.freight_bills:w&#45;&gt;users:e</title>
<path fill="none" stroke="#000000" d="M587.4482,-109.2228C504.458,-113.8408 193.9522,-148.2328 160,-179.7 103.3508,-232.2029 196.7378,-348.7 119.5,-348.7"/>
<polygon fill="#000000" stroke="#000000" points="594.0052,-108.9873 602.1293,-112.2977 598.0026,-108.8436 602,-108.7 602,-108.7 602,-108.7 598.0026,-108.8436 601.8707,-105.1023 594.0052,-108.9873 594.0052,-108.9873"/>
<ellipse fill="none" stroke="#000000" cx="590.8072" cy="-109.1022" rx="3.2" ry="3.2"/>
</g>
<!-- tms.freight_bills&#45;&gt;users -->
<g id="edge22" class="edge">
<title>tms.freight_bills:w&#45;&gt;users:e</title>
<path fill="none" stroke="#000000" d="M587.3951,-86.5471C399.0381,-82.6179 298.5024,-5.398 160,-139.7 92.0737,-205.5663 214.1168,-348.7 119.5,-348.7"/>
<polygon fill="#000000" stroke="#000000" points="594.0004,-86.6162 601.9623,-90.2998 598.0002,-86.6581 602,-86.7 602,-86.7 602,-86.7 598.0002,-86.6581 602.0377,-83.1002 594.0004,-86.6162 594.0004,-86.6162"/>
<ellipse fill="none" stroke="#000000" cx="590.8006" cy="-86.5827" rx="3.2" ry="3.2"/>
</g>
</g>
</svg>
