<?xml version="1.0" encoding="UTF-8" standalone="no"?>
<!DOCTYPE svg PUBLIC "-//W3C//DTD SVG 1.1//EN"
 "http://www.w3.org/Graphics/SVG/1.1/DTD/svg11.dtd">
<!-- Generated by graphviz version 2.40.1 (20161225.0304)
 -->
<!-- Title: oneDegreeRelationshipsDiagram Pages: 1 -->
<svg width="568pt" height="424pt"
 viewBox="0.00 0.00 568.00 423.70" xmlns="http://www.w3.org/2000/svg" xmlns:xlink="http://www.w3.org/1999/xlink">
<g id="graph0" class="graph" transform="scale(1 1) rotate(0) translate(4 419.7)">
<title>oneDegreeRelationshipsDiagram</title>
<polygon fill="#ffffff" stroke="transparent" points="-4,4 -4,-419.7 564,-419.7 564,4 -4,4"/>
<text text-anchor="middle" x="72.4936" y="-7.3" font-family="Helvetica,sans-Serif" font-size="11.00" fill="#000000">Generated by SchemaSpy</text>
<!-- carrier_service_levels -->
<g id="node1" class="node">
<title>carrier_service_levels</title>
<g id="a_node1"><a xlink:href="../../tables/carrier_service_levels.html" xlink:title="carrier_service_levels" target="_top">
<polygon fill="#ffffff" stroke="transparent" points="310,-101.7 310,-411.7 552,-411.7 552,-101.7 310,-101.7"/>
<polygon fill="#f5f5f5" stroke="transparent" points="312,-386.7 312,-409.7 550,-409.7 550,-386.7 312,-386.7"/>
<polygon fill="none" stroke="#000000" points="312,-386.7 312,-409.7 550,-409.7 550,-386.7 312,-386.7"/>
<text text-anchor="start" x="317" y="-395.3" font-family="Helvetica,sans-Serif" font-weight="bold" font-size="11.00" fill="#000000">carrier_service_levels</text>
<text text-anchor="start" x="515.0437" y="-394.8" font-family="Helvetica,sans-Serif" font-size="11.00" fill="#000000">[table]</text>
<polygon fill="none" stroke="#000000" points="312,-364.7 312,-386.7 458,-386.7 458,-364.7 312,-364.7"/>
<image xlink:href="../../images/primaryKeys.png" width="11px" height="12px" preserveAspectRatio="xMinYMin meet" x="317" y="-381.7"/>
<text text-anchor="start" x="332" y="-371.8" font-family="Helvetica,sans-Serif" font-size="11.00" fill="#000000">service_level_id</text>
<polygon fill="none" stroke="#000000" points="458,-364.7 458,-386.7 550,-386.7 550,-364.7 458,-364.7"/>
<text text-anchor="start" x="461" y="-372.4" font-family="Helvetica,sans-Serif" font-size="11.00" fill="#000000">int8[19]</text>
<polygon fill="#ffffff" stroke="transparent" points="312,-342.7 312,-364.7 458,-364.7 458,-342.7 312,-342.7"/>
<polygon fill="none" stroke="#000000" points="312,-342.7 312,-364.7 458,-364.7 458,-342.7 312,-342.7"/>
<image xlink:href="../../images/foreignKeys.png" width="11px" height="12px" preserveAspectRatio="xMinYMin meet" x="317" y="-359.7"/>
<text text-anchor="start" x="332" y="-349.8" font-family="Helvetica,sans-Serif" font-size="11.00" fill="#000000">carrier_id</text>
<polygon fill="none" stroke="#000000" points="458,-342.7 458,-364.7 550,-364.7 550,-342.7 458,-342.7"/>
<text text-anchor="start" x="461" y="-350.4" font-family="Helvetica,sans-Serif" font-size="11.00" fill="#000000">int8[19]</text>
<polygon fill="#ffffff" stroke="transparent" points="312,-320.7 312,-342.7 458,-342.7 458,-320.7 312,-320.7"/>
<polygon fill="none" stroke="#000000" points="312,-320.7 312,-342.7 458,-342.7 458,-320.7 312,-320.7"/>
<text text-anchor="start" x="332" y="-327.8" font-family="Helvetica,sans-Serif" font-size="11.00" fill="#000000">service_level_code</text>
<polygon fill="none" stroke="#000000" points="458,-320.7 458,-342.7 550,-342.7 550,-320.7 458,-320.7"/>
<text text-anchor="start" x="461" y="-328.4" font-family="Helvetica,sans-Serif" font-size="11.00" fill="#000000">varchar[50]</text>
<polygon fill="none" stroke="#000000" points="312,-298.7 312,-320.7 458,-320.7 458,-298.7 312,-298.7"/>
<text text-anchor="start" x="332" y="-305.8" font-family="Helvetica,sans-Serif" font-size="11.00" fill="#000000">description</text>
<polygon fill="none" stroke="#000000" points="458,-298.7 458,-320.7 550,-320.7 550,-298.7 458,-298.7"/>
<text text-anchor="start" x="461" y="-306.4" font-family="Helvetica,sans-Serif" font-size="11.00" fill="#000000">varchar[200]</text>
<polygon fill="none" stroke="#000000" points="312,-276.7 312,-298.7 458,-298.7 458,-276.7 312,-276.7"/>
<text text-anchor="start" x="332" y="-283.8" font-family="Helvetica,sans-Serif" font-size="11.00" fill="#000000">transit_time_days</text>
<polygon fill="none" stroke="#000000" points="458,-276.7 458,-298.7 550,-298.7 550,-276.7 458,-276.7"/>
<text text-anchor="start" x="461" y="-284.4" font-family="Helvetica,sans-Serif" font-size="11.00" fill="#000000">int4[10]</text>
<polygon fill="none" stroke="#000000" points="312,-254.7 312,-276.7 458,-276.7 458,-254.7 312,-254.7"/>
<text text-anchor="start" x="332" y="-261.8" font-family="Helvetica,sans-Serif" font-size="11.00" fill="#000000">on_time_target</text>
<polygon fill="none" stroke="#000000" points="458,-254.7 458,-276.7 550,-276.7 550,-254.7 458,-254.7"/>
<text text-anchor="start" x="461" y="-262.4" font-family="Helvetica,sans-Serif" font-size="11.00" fill="#000000">numeric[5,2]</text>
<polygon fill="none" stroke="#000000" points="312,-232.7 312,-254.7 458,-254.7 458,-232.7 312,-232.7"/>
<text text-anchor="start" x="332" y="-239.8" font-family="Helvetica,sans-Serif" font-size="11.00" fill="#000000">effective_from</text>
<polygon fill="none" stroke="#000000" points="458,-232.7 458,-254.7 550,-254.7 550,-232.7 458,-232.7"/>
<text text-anchor="start" x="461" y="-240.4" font-family="Helvetica,sans-Serif" font-size="11.00" fill="#000000">date[13]</text>
<polygon fill="none" stroke="#000000" points="312,-210.7 312,-232.7 458,-232.7 458,-210.7 312,-210.7"/>
<text text-anchor="start" x="332" y="-217.8" font-family="Helvetica,sans-Serif" font-size="11.00" fill="#000000">effective_to</text>
<polygon fill="none" stroke="#000000" points="458,-210.7 458,-232.7 550,-232.7 550,-210.7 458,-210.7"/>
<text text-anchor="start" x="461" y="-218.4" font-family="Helvetica,sans-Serif" font-size="11.00" fill="#000000">date[13]</text>
<polygon fill="none" stroke="#000000" points="312,-188.7 312,-210.7 458,-210.7 458,-188.7 312,-188.7"/>
<text text-anchor="start" x="332" y="-195.8" font-family="Helvetica,sans-Serif" font-size="11.00" fill="#000000">created_at</text>
<polygon fill="none" stroke="#000000" points="458,-188.7 458,-210.7 550,-210.7 550,-188.7 458,-188.7"/>
<text text-anchor="start" x="460.6023" y="-196.4" font-family="Helvetica,sans-Serif" font-size="11.00" fill="#000000">timestamptz[35,6]</text>
<polygon fill="none" stroke="#000000" points="312,-166.7 312,-188.7 458,-188.7 458,-166.7 312,-166.7"/>
<text text-anchor="start" x="332" y="-173.8" font-family="Helvetica,sans-Serif" font-size="11.00" fill="#000000">updated_at</text>
<polygon fill="none" stroke="#000000" points="458,-166.7 458,-188.7 550,-188.7 550,-166.7 458,-166.7"/>
<text text-anchor="start" x="460.6023" y="-174.4" font-family="Helvetica,sans-Serif" font-size="11.00" fill="#000000">timestamptz[35,6]</text>
<polygon fill="none" stroke="#000000" points="312,-144.7 312,-166.7 458,-166.7 458,-144.7 312,-144.7"/>
<image xlink:href="../../images/foreignKeys.png" width="11px" height="12px" preserveAspectRatio="xMinYMin meet" x="317" y="-161.7"/>
<text text-anchor="start" x="332" y="-151.8" font-family="Helvetica,sans-Serif" font-size="11.00" fill="#000000">created_by</text>
<polygon fill="none" stroke="#000000" points="458,-144.7 458,-166.7 550,-166.7 550,-144.7 458,-144.7"/>
<text text-anchor="start" x="461" y="-152.4" font-family="Helvetica,sans-Serif" font-size="11.00" fill="#000000">int8[19]</text>
<polygon fill="none" stroke="#000000" points="312,-122.7 312,-144.7 458,-144.7 458,-122.7 312,-122.7"/>
<image xlink:href="../../images/foreignKeys.png" width="11px" height="12px" preserveAspectRatio="xMinYMin meet" x="317" y="-139.7"/>
<text text-anchor="start" x="332" y="-129.8" font-family="Helvetica,sans-Serif" font-size="11.00" fill="#000000">updated_by</text>
<polygon fill="none" stroke="#000000" points="458,-122.7 458,-144.7 550,-144.7 550,-122.7 458,-122.7"/>
<text text-anchor="start" x="461" y="-130.4" font-family="Helvetica,sans-Serif" font-size="11.00" fill="#000000">int8[19]</text>
<polygon fill="#ffffff" stroke="transparent" points="312,-103.7 312,-122.7 389,-122.7 389,-103.7 312,-103.7"/>
<polygon fill="none" stroke="#000000" points="312,-103.7 312,-122.7 389,-122.7 389,-103.7 312,-103.7"/>
<text text-anchor="start" x="315" y="-109.8" font-family="Helvetica,sans-Serif" font-size="11.00" fill="#000000">&lt; 3</text>
<polygon fill="#ffffff" stroke="transparent" points="389,-103.7 389,-122.7 458,-122.7 458,-103.7 389,-103.7"/>
<polygon fill="none" stroke="#000000" points="389,-103.7 389,-122.7 458,-122.7 458,-103.7 389,-103.7"/>
<text text-anchor="start" x="448.8862" y="-109.8" font-family="Helvetica,sans-Serif" font-size="11.00" fill="#000000"> &#160;</text>
<polygon fill="#ffffff" stroke="transparent" points="458,-103.7 458,-122.7 550,-122.7 550,-103.7 458,-103.7"/>
<polygon fill="none" stroke="#000000" points="458,-103.7 458,-122.7 550,-122.7 550,-103.7 458,-103.7"/>
<text text-anchor="start" x="531.4053" y="-109.8" font-family="Helvetica,sans-Serif" font-size="11.00" fill="#000000">0 &gt;</text>
<polygon fill="none" stroke="#000000" stroke-width="2" points="311,-102.7 311,-410.7 551,-410.7 551,-102.7 311,-102.7"/>
</a>
</g>
</g>
<!-- carriers -->
<g id="node2" class="node">
<title>carriers</title>
<g id="a_node2"><a xlink:href="../../tables/carriers.html" xlink:title="carriers" target="_top">
<polygon fill="#ffffff" stroke="transparent" points="168,-185.2 168,-356.2 261,-356.2 261,-185.2 168,-185.2"/>
<polygon fill="#f5f5f5" stroke="transparent" points="168.5,-332.7 168.5,-355.7 261.5,-355.7 261.5,-332.7 168.5,-332.7"/>
<polygon fill="none" stroke="#000000" points="168.5,-332.7 168.5,-355.7 261.5,-355.7 261.5,-332.7 168.5,-332.7"/>
<text text-anchor="start" x="173.5" y="-341.3" font-family="Helvetica,sans-Serif" font-weight="bold" font-size="11.00" fill="#000000">carriers</text>
<text text-anchor="start" x="226.5437" y="-340.8" font-family="Helvetica,sans-Serif" font-size="11.00" fill="#000000">[table]</text>
<polygon fill="none" stroke="#000000" points="168.5,-310.7 168.5,-332.7 261.5,-332.7 261.5,-310.7 168.5,-310.7"/>
<image xlink:href="../../images/primaryKeys.png" width="11px" height="12px" preserveAspectRatio="xMinYMin meet" x="173.5" y="-327.7"/>
<text text-anchor="start" x="188.5" y="-317.8" font-family="Helvetica,sans-Serif" font-size="11.00" fill="#000000">carrier_id</text>
<polygon fill="#ffffff" stroke="transparent" points="168.5,-288.7 168.5,-310.7 261.5,-310.7 261.5,-288.7 168.5,-288.7"/>
<polygon fill="none" stroke="#000000" points="168.5,-288.7 168.5,-310.7 261.5,-310.7 261.5,-288.7 168.5,-288.7"/>
<text text-anchor="start" x="188.5" y="-295.8" font-family="Helvetica,sans-Serif" font-size="11.00" fill="#000000">carrier_code</text>
<polygon fill="none" stroke="#000000" points="168.5,-266.7 168.5,-288.7 261.5,-288.7 261.5,-266.7 168.5,-266.7"/>
<image xlink:href="../../images/foreignKeys.png" width="11px" height="12px" preserveAspectRatio="xMinYMin meet" x="173.5" y="-283.7"/>
<text text-anchor="start" x="188.5" y="-273.8" font-family="Helvetica,sans-Serif" font-size="11.00" fill="#000000">contact_id</text>
<polygon fill="none" stroke="#000000" points="168.5,-244.7 168.5,-266.7 261.5,-266.7 261.5,-244.7 168.5,-244.7"/>
<image xlink:href="../../images/foreignKeys.png" width="11px" height="12px" preserveAspectRatio="xMinYMin meet" x="173.5" y="-261.7"/>
<text text-anchor="start" x="188.5" y="-251.8" font-family="Helvetica,sans-Serif" font-size="11.00" fill="#000000">created_by</text>
<polygon fill="none" stroke="#000000" points="168.5,-222.7 168.5,-244.7 261.5,-244.7 261.5,-222.7 168.5,-222.7"/>
<image xlink:href="../../images/foreignKeys.png" width="11px" height="12px" preserveAspectRatio="xMinYMin meet" x="173.5" y="-239.7"/>
<text text-anchor="start" x="188.5" y="-229.8" font-family="Helvetica,sans-Serif" font-size="11.00" fill="#000000">updated_by</text>
<polygon fill="none" stroke="#000000" points="168.5,-203.7 168.5,-222.7 261.5,-222.7 261.5,-203.7 168.5,-203.7"/>
<text text-anchor="start" x="171.5" y="-209.8" font-family="Helvetica,sans-Serif" font-size="11.00" fill="#000000">...</text>
<polygon fill="#ffffff" stroke="transparent" points="168.5,-184.7 168.5,-203.7 208.5,-203.7 208.5,-184.7 168.5,-184.7"/>
<polygon fill="none" stroke="#000000" points="168.5,-184.7 168.5,-203.7 208.5,-203.7 208.5,-184.7 168.5,-184.7"/>
<text text-anchor="start" x="171.5" y="-190.8" font-family="Helvetica,sans-Serif" font-size="11.00" fill="#000000">&lt; 3</text>
<polygon fill="#ffffff" stroke="transparent" points="208.5,-184.7 208.5,-203.7 230.5,-203.7 230.5,-184.7 208.5,-184.7"/>
<polygon fill="none" stroke="#000000" points="208.5,-184.7 208.5,-203.7 230.5,-203.7 230.5,-184.7 208.5,-184.7"/>
<text text-anchor="start" x="221.3862" y="-190.8" font-family="Helvetica,sans-Serif" font-size="11.00" fill="#000000"> &#160;</text>
<polygon fill="#ffffff" stroke="transparent" points="230.5,-184.7 230.5,-203.7 261.5,-203.7 261.5,-184.7 230.5,-184.7"/>
<polygon fill="none" stroke="#000000" points="230.5,-184.7 230.5,-203.7 261.5,-203.7 261.5,-184.7 230.5,-184.7"/>
<text text-anchor="start" x="242.9053" y="-190.8" font-family="Helvetica,sans-Serif" font-size="11.00" fill="#000000">5 &gt;</text>
</a>
</g>
</g>
<!-- carrier_service_levels&#45;&gt;carriers -->
<g id="edge1" class="edge">
<title>carrier_service_levels:w&#45;&gt;carriers:e</title>
<path fill="none" stroke="#000000" d="M298.1448,-349.7762C285.187,-341.2313 282.2587,-321.7 261.5,-321.7"/>
<polygon fill="#000000" stroke="#000000" points="304.3027,-351.5201 311.019,-357.1638 308.1514,-352.61 312,-353.7 312,-353.7 312,-353.7 308.1514,-352.61 312.981,-350.2362 304.3027,-351.5201 304.3027,-351.5201"/>
<ellipse fill="none" stroke="#000000" cx="301.2238" cy="-350.6481" rx="3.2" ry="3.2"/>
</g>
<!-- users -->
<g id="node3" class="node">
<title>users</title>
<g id="a_node3"><a xlink:href="../../tables/users.html" xlink:title="users" target="_top">
<polygon fill="#ffffff" stroke="transparent" points="8,-38.2 8,-231.2 119,-231.2 119,-38.2 8,-38.2"/>
<polygon fill="#f5f5f5" stroke="transparent" points="8.5,-207.7 8.5,-230.7 119.5,-230.7 119.5,-207.7 8.5,-207.7"/>
<polygon fill="none" stroke="#000000" points="8.5,-207.7 8.5,-230.7 119.5,-230.7 119.5,-207.7 8.5,-207.7"/>
<text text-anchor="start" x="13.5" y="-216.3" font-family="Helvetica,sans-Serif" font-weight="bold" font-size="11.00" fill="#000000">users</text>
<text text-anchor="start" x="84.5437" y="-215.8" font-family="Helvetica,sans-Serif" font-size="11.00" fill="#000000">[table]</text>
<polygon fill="none" stroke="#000000" points="8.5,-185.7 8.5,-207.7 119.5,-207.7 119.5,-185.7 8.5,-185.7"/>
<image xlink:href="../../images/primaryKeys.png" width="11px" height="12px" preserveAspectRatio="xMinYMin meet" x="13.5" y="-202.7"/>
<text text-anchor="start" x="28.5" y="-192.8" font-family="Helvetica,sans-Serif" font-size="11.00" fill="#000000">id</text>
<polygon fill="#ffffff" stroke="transparent" points="8.5,-163.7 8.5,-185.7 119.5,-185.7 119.5,-163.7 8.5,-163.7"/>
<polygon fill="none" stroke="#000000" points="8.5,-163.7 8.5,-185.7 119.5,-185.7 119.5,-163.7 8.5,-163.7"/>
<text text-anchor="start" x="28.5" y="-170.8" font-family="Helvetica,sans-Serif" font-size="11.00" fill="#000000">username</text>
<polygon fill="#ffffff" stroke="transparent" points="8.5,-141.7 8.5,-163.7 119.5,-163.7 119.5,-141.7 8.5,-141.7"/>
<polygon fill="none" stroke="#000000" points="8.5,-141.7 8.5,-163.7 119.5,-163.7 119.5,-141.7 8.5,-141.7"/>
<text text-anchor="start" x="28.5" y="-148.8" font-family="Helvetica,sans-Serif" font-size="11.00" fill="#000000">email</text>
<polygon fill="#ffffff" stroke="transparent" points="8.5,-119.7 8.5,-141.7 119.5,-141.7 119.5,-119.7 8.5,-119.7"/>
<polygon fill="none" stroke="#000000" points="8.5,-119.7 8.5,-141.7 119.5,-141.7 119.5,-119.7 8.5,-119.7"/>
<image xlink:href="../../images/foreignKeys.png" width="11px" height="12px" preserveAspectRatio="xMinYMin meet" x="13.5" y="-136.7"/>
<text text-anchor="start" x="28.5" y="-126.8" font-family="Helvetica,sans-Serif" font-size="11.00" fill="#000000">department_id</text>
<polygon fill="none" stroke="#000000" points="8.5,-97.7 8.5,-119.7 119.5,-119.7 119.5,-97.7 8.5,-97.7"/>
<image xlink:href="../../images/foreignKeys.png" width="11px" height="12px" preserveAspectRatio="xMinYMin meet" x="13.5" y="-114.7"/>
<text text-anchor="start" x="28.5" y="-104.8" font-family="Helvetica,sans-Serif" font-size="11.00" fill="#000000">created_by</text>
<polygon fill="none" stroke="#000000" points="8.5,-75.7 8.5,-97.7 119.5,-97.7 119.5,-75.7 8.5,-75.7"/>
<image xlink:href="../../images/foreignKeys.png" width="11px" height="12px" preserveAspectRatio="xMinYMin meet" x="13.5" y="-92.7"/>
<text text-anchor="start" x="28.5" y="-82.8" font-family="Helvetica,sans-Serif" font-size="11.00" fill="#000000">updated_by</text>
<polygon fill="none" stroke="#000000" points="8.5,-56.7 8.5,-75.7 119.5,-75.7 119.5,-56.7 8.5,-56.7"/>
<text text-anchor="start" x="11.5" y="-62.8" font-family="Helvetica,sans-Serif" font-size="11.00" fill="#000000">...</text>
<polygon fill="#ffffff" stroke="transparent" points="8.5,-37.7 8.5,-56.7 38.5,-56.7 38.5,-37.7 8.5,-37.7"/>
<polygon fill="none" stroke="#000000" points="8.5,-37.7 8.5,-56.7 38.5,-56.7 38.5,-37.7 8.5,-37.7"/>
<text text-anchor="start" x="11.5" y="-43.8" font-family="Helvetica,sans-Serif" font-size="11.00" fill="#000000">&lt; 3</text>
<polygon fill="#ffffff" stroke="transparent" points="38.5,-37.7 38.5,-56.7 87.5,-56.7 87.5,-37.7 38.5,-37.7"/>
<polygon fill="none" stroke="#000000" points="38.5,-37.7 38.5,-56.7 87.5,-56.7 87.5,-37.7 38.5,-37.7"/>
<text text-anchor="start" x="45.9956" y="-43.8" font-family="Helvetica,sans-Serif" font-size="11.00" fill="#000000">10 rows</text>
<polygon fill="#ffffff" stroke="transparent" points="87.5,-37.7 87.5,-56.7 119.5,-56.7 119.5,-37.7 87.5,-37.7"/>
<polygon fill="none" stroke="#000000" points="87.5,-37.7 87.5,-56.7 119.5,-56.7 119.5,-37.7 87.5,-37.7"/>
<text text-anchor="start" x="94.7904" y="-43.8" font-family="Helvetica,sans-Serif" font-size="11.00" fill="#000000">66 &gt;</text>
</a>
</g>
</g>
<!-- carrier_service_levels&#45;&gt;users -->
<g id="edge2" class="edge">
<title>carrier_service_levels:w&#45;&gt;users:e</title>
<path fill="none" stroke="#000000" d="M297.253,-155.6789C240.7432,-155.5523 219.8785,-155.4542 160,-174.7 140.4983,-180.9681 139.9843,-196.7 119.5,-196.7"/>
<polygon fill="#000000" stroke="#000000" points="304,-155.6885 311.9948,-159.3 308,-155.6943 312,-155.7 312,-155.7 312,-155.7 308,-155.6943 312.0052,-152.1 304,-155.6885 304,-155.6885"/>
<ellipse fill="none" stroke="#000000" cx="300.8" cy="-155.6839" rx="3.2" ry="3.2"/>
</g>
<!-- carrier_service_levels&#45;&gt;users -->
<g id="edge3" class="edge">
<title>carrier_service_levels:w&#45;&gt;users:e</title>
<path fill="none" stroke="#000000" d="M297.5463,-133.5216C240.2419,-132.1321 216.0341,-123.8425 160,-152.7 136.3709,-164.869 146.0786,-196.7 119.5,-196.7"/>
<polygon fill="#000000" stroke="#000000" points="304.0006,-133.6012 311.9555,-137.2997 308.0003,-133.6506 312,-133.7 312,-133.7 312,-133.7 308.0003,-133.6506 312.0445,-130.1003 304.0006,-133.6012 304.0006,-133.6012"/>
<ellipse fill="none" stroke="#000000" cx="300.8009" cy="-133.5617" rx="3.2" ry="3.2"/>
</g>
<!-- carriers&#45;&gt;users -->
<g id="edge4" class="edge">
<title>carriers:w&#45;&gt;users:e</title>
<path fill="none" stroke="#000000" d="M154.6662,-250.6697C139.5842,-236.4018 147.4614,-196.7 119.5,-196.7"/>
<polygon fill="#000000" stroke="#000000" points="160.9816,-252.9661 167.2697,-259.0833 164.7408,-254.3331 168.5,-255.7 168.5,-255.7 168.5,-255.7 164.7408,-254.3331 169.7303,-252.3167 160.9816,-252.9661 160.9816,-252.9661"/>
<ellipse fill="none" stroke="#000000" cx="157.9743" cy="-251.8725" rx="3.2" ry="3.2"/>
</g>
<!-- carriers&#45;&gt;users -->
<g id="edge5" class="edge">
<title>carriers:w&#45;&gt;users:e</title>
<path fill="none" stroke="#000000" d="M154.6217,-229.1631C142.0786,-219.283 140.8196,-196.7 119.5,-196.7"/>
<polygon fill="#000000" stroke="#000000" points="160.896,-231.2142 167.3814,-237.1218 164.698,-232.4571 168.5,-233.7 168.5,-233.7 168.5,-233.7 164.698,-232.4571 169.6186,-230.2782 160.896,-231.2142 160.896,-231.2142"/>
<ellipse fill="none" stroke="#000000" cx="157.8544" cy="-230.2198" rx="3.2" ry="3.2"/>
</g>
</g>
</svg>
