<?xml version="1.0" encoding="UTF-8" standalone="no"?>
<!DOCTYPE svg PUBLIC "-//W3C//DTD SVG 1.1//EN"
 "http://www.w3.org/Graphics/SVG/1.1/DTD/svg11.dtd">
<!-- Generated by graphviz version 2.40.1 (20161225.0304)
 -->
<!-- Title: oneDegreeRelationshipsDiagram Pages: 1 -->
<svg width="744pt" height="763pt"
 viewBox="0.00 0.00 744.00 763.20" xmlns="http://www.w3.org/2000/svg" xmlns:xlink="http://www.w3.org/1999/xlink">
<g id="graph0" class="graph" transform="scale(1 1) rotate(0) translate(4 759.2)">
<title>oneDegreeRelationshipsDiagram</title>
<polygon fill="#ffffff" stroke="transparent" points="-4,4 -4,-759.2 740,-759.2 740,4 -4,4"/>
<text text-anchor="middle" x="72.4936" y="-7.3" font-family="Helvetica,sans-Serif" font-size="11.00" fill="#000000">Generated by SchemaSpy</text>
<!-- carriers -->
<g id="node1" class="node">
<title>carriers</title>
<g id="a_node1"><a xlink:href="../../tables/carriers.html" xlink:title="carriers" target="_top">
<polygon fill="#ffffff" stroke="transparent" points="452,-580.2 452,-751.2 545,-751.2 545,-580.2 452,-580.2"/>
<polygon fill="#f5f5f5" stroke="transparent" points="452.5,-727.7 452.5,-750.7 545.5,-750.7 545.5,-727.7 452.5,-727.7"/>
<polygon fill="none" stroke="#000000" points="452.5,-727.7 452.5,-750.7 545.5,-750.7 545.5,-727.7 452.5,-727.7"/>
<text text-anchor="start" x="457.5" y="-736.3" font-family="Helvetica,sans-Serif" font-weight="bold" font-size="11.00" fill="#000000">carriers</text>
<text text-anchor="start" x="510.5437" y="-735.8" font-family="Helvetica,sans-Serif" font-size="11.00" fill="#000000">[table]</text>
<polygon fill="none" stroke="#000000" points="452.5,-705.7 452.5,-727.7 545.5,-727.7 545.5,-705.7 452.5,-705.7"/>
<image xlink:href="../../images/primaryKeys.png" width="11px" height="12px" preserveAspectRatio="xMinYMin meet" x="457.5" y="-722.7"/>
<text text-anchor="start" x="472.5" y="-712.8" font-family="Helvetica,sans-Serif" font-size="11.00" fill="#000000">carrier_id</text>
<polygon fill="#ffffff" stroke="transparent" points="452.5,-683.7 452.5,-705.7 545.5,-705.7 545.5,-683.7 452.5,-683.7"/>
<polygon fill="none" stroke="#000000" points="452.5,-683.7 452.5,-705.7 545.5,-705.7 545.5,-683.7 452.5,-683.7"/>
<text text-anchor="start" x="472.5" y="-690.8" font-family="Helvetica,sans-Serif" font-size="11.00" fill="#000000">carrier_code</text>
<polygon fill="none" stroke="#000000" points="452.5,-661.7 452.5,-683.7 545.5,-683.7 545.5,-661.7 452.5,-661.7"/>
<image xlink:href="../../images/foreignKeys.png" width="11px" height="12px" preserveAspectRatio="xMinYMin meet" x="457.5" y="-678.7"/>
<text text-anchor="start" x="472.5" y="-668.8" font-family="Helvetica,sans-Serif" font-size="11.00" fill="#000000">contact_id</text>
<polygon fill="none" stroke="#000000" points="452.5,-639.7 452.5,-661.7 545.5,-661.7 545.5,-639.7 452.5,-639.7"/>
<image xlink:href="../../images/foreignKeys.png" width="11px" height="12px" preserveAspectRatio="xMinYMin meet" x="457.5" y="-656.7"/>
<text text-anchor="start" x="472.5" y="-646.8" font-family="Helvetica,sans-Serif" font-size="11.00" fill="#000000">created_by</text>
<polygon fill="none" stroke="#000000" points="452.5,-617.7 452.5,-639.7 545.5,-639.7 545.5,-617.7 452.5,-617.7"/>
<image xlink:href="../../images/foreignKeys.png" width="11px" height="12px" preserveAspectRatio="xMinYMin meet" x="457.5" y="-634.7"/>
<text text-anchor="start" x="472.5" y="-624.8" font-family="Helvetica,sans-Serif" font-size="11.00" fill="#000000">updated_by</text>
<polygon fill="none" stroke="#000000" points="452.5,-598.7 452.5,-617.7 545.5,-617.7 545.5,-598.7 452.5,-598.7"/>
<text text-anchor="start" x="455.5" y="-604.8" font-family="Helvetica,sans-Serif" font-size="11.00" fill="#000000">...</text>
<polygon fill="#ffffff" stroke="transparent" points="452.5,-579.7 452.5,-598.7 492.5,-598.7 492.5,-579.7 452.5,-579.7"/>
<polygon fill="none" stroke="#000000" points="452.5,-579.7 452.5,-598.7 492.5,-598.7 492.5,-579.7 452.5,-579.7"/>
<text text-anchor="start" x="455.5" y="-585.8" font-family="Helvetica,sans-Serif" font-size="11.00" fill="#000000">&lt; 3</text>
<polygon fill="#ffffff" stroke="transparent" points="492.5,-579.7 492.5,-598.7 514.5,-598.7 514.5,-579.7 492.5,-579.7"/>
<polygon fill="none" stroke="#000000" points="492.5,-579.7 492.5,-598.7 514.5,-598.7 514.5,-579.7 492.5,-579.7"/>
<text text-anchor="start" x="505.3862" y="-585.8" font-family="Helvetica,sans-Serif" font-size="11.00" fill="#000000"> &#160;</text>
<polygon fill="#ffffff" stroke="transparent" points="514.5,-579.7 514.5,-598.7 545.5,-598.7 545.5,-579.7 514.5,-579.7"/>
<polygon fill="none" stroke="#000000" points="514.5,-579.7 514.5,-598.7 545.5,-598.7 545.5,-579.7 514.5,-579.7"/>
<text text-anchor="start" x="526.9053" y="-585.8" font-family="Helvetica,sans-Serif" font-size="11.00" fill="#000000">5 &gt;</text>
</a>
</g>
</g>
<!-- contact_roles -->
<g id="node2" class="node">
<title>contact_roles</title>
<g id="a_node2"><a xlink:href="../../tables/contact_roles.html" xlink:title="contact_roles" target="_top">
<polygon fill="#ffffff" stroke="transparent" points="168,-192.7 168,-656.7 394,-656.7 394,-192.7 168,-192.7"/>
<polygon fill="#f5f5f5" stroke="transparent" points="170,-631.7 170,-654.7 392,-654.7 392,-631.7 170,-631.7"/>
<polygon fill="none" stroke="#000000" points="170,-631.7 170,-654.7 392,-654.7 392,-631.7 170,-631.7"/>
<text text-anchor="start" x="175" y="-640.3" font-family="Helvetica,sans-Serif" font-weight="bold" font-size="11.00" fill="#000000">contact_roles</text>
<text text-anchor="start" x="357.0437" y="-639.8" font-family="Helvetica,sans-Serif" font-size="11.00" fill="#000000">[table]</text>
<polygon fill="none" stroke="#000000" points="170,-609.7 170,-631.7 300,-631.7 300,-609.7 170,-609.7"/>
<image xlink:href="../../images/primaryKeys.png" width="11px" height="12px" preserveAspectRatio="xMinYMin meet" x="175" y="-626.7"/>
<text text-anchor="start" x="190" y="-616.8" font-family="Helvetica,sans-Serif" font-size="11.00" fill="#000000">contact_id</text>
<polygon fill="none" stroke="#000000" points="300,-609.7 300,-631.7 392,-631.7 392,-609.7 300,-609.7"/>
<text text-anchor="start" x="303" y="-617.4" font-family="Helvetica,sans-Serif" font-size="11.00" fill="#000000">int8[19]</text>
<polygon fill="none" stroke="#000000" points="170,-587.7 170,-609.7 300,-609.7 300,-587.7 170,-587.7"/>
<text text-anchor="start" x="190" y="-594.8" font-family="Helvetica,sans-Serif" font-size="11.00" fill="#000000">related_entity_type</text>
<polygon fill="none" stroke="#000000" points="300,-587.7 300,-609.7 392,-609.7 392,-587.7 300,-587.7"/>
<text text-anchor="start" x="303" y="-595.4" font-family="Helvetica,sans-Serif" font-size="11.00" fill="#000000">varchar[50]</text>
<polygon fill="none" stroke="#000000" points="170,-565.7 170,-587.7 300,-587.7 300,-565.7 170,-565.7"/>
<text text-anchor="start" x="190" y="-572.8" font-family="Helvetica,sans-Serif" font-size="11.00" fill="#000000">related_entity_id</text>
<polygon fill="none" stroke="#000000" points="300,-565.7 300,-587.7 392,-587.7 392,-565.7 300,-565.7"/>
<text text-anchor="start" x="303" y="-573.4" font-family="Helvetica,sans-Serif" font-size="11.00" fill="#000000">int8[19]</text>
<polygon fill="none" stroke="#000000" points="170,-543.7 170,-565.7 300,-565.7 300,-543.7 170,-543.7"/>
<text text-anchor="start" x="190" y="-550.8" font-family="Helvetica,sans-Serif" font-size="11.00" fill="#000000">role</text>
<polygon fill="none" stroke="#000000" points="300,-543.7 300,-565.7 392,-565.7 392,-543.7 300,-543.7"/>
<text text-anchor="start" x="303" y="-551.4" font-family="Helvetica,sans-Serif" font-size="11.00" fill="#000000">varchar[50]</text>
<polygon fill="none" stroke="#000000" points="170,-521.7 170,-543.7 300,-543.7 300,-521.7 170,-521.7"/>
<text text-anchor="start" x="190" y="-528.8" font-family="Helvetica,sans-Serif" font-size="11.00" fill="#000000">name</text>
<polygon fill="none" stroke="#000000" points="300,-521.7 300,-543.7 392,-543.7 392,-521.7 300,-521.7"/>
<text text-anchor="start" x="303" y="-529.4" font-family="Helvetica,sans-Serif" font-size="11.00" fill="#000000">varchar[100]</text>
<polygon fill="none" stroke="#000000" points="170,-499.7 170,-521.7 300,-521.7 300,-499.7 170,-499.7"/>
<text text-anchor="start" x="190" y="-506.8" font-family="Helvetica,sans-Serif" font-size="11.00" fill="#000000">phone</text>
<polygon fill="none" stroke="#000000" points="300,-499.7 300,-521.7 392,-521.7 392,-499.7 300,-499.7"/>
<text text-anchor="start" x="303" y="-507.4" font-family="Helvetica,sans-Serif" font-size="11.00" fill="#000000">varchar[50]</text>
<polygon fill="none" stroke="#000000" points="170,-477.7 170,-499.7 300,-499.7 300,-477.7 170,-477.7"/>
<text text-anchor="start" x="190" y="-484.8" font-family="Helvetica,sans-Serif" font-size="11.00" fill="#000000">email</text>
<polygon fill="none" stroke="#000000" points="300,-477.7 300,-499.7 392,-499.7 392,-477.7 300,-477.7"/>
<text text-anchor="start" x="303" y="-485.4" font-family="Helvetica,sans-Serif" font-size="11.00" fill="#000000">varchar[200]</text>
<polygon fill="none" stroke="#000000" points="170,-455.7 170,-477.7 300,-477.7 300,-455.7 170,-455.7"/>
<text text-anchor="start" x="190" y="-462.8" font-family="Helvetica,sans-Serif" font-size="11.00" fill="#000000">notes</text>
<polygon fill="none" stroke="#000000" points="300,-455.7 300,-477.7 392,-477.7 392,-455.7 300,-455.7"/>
<text text-anchor="start" x="303" y="-463.4" font-family="Helvetica,sans-Serif" font-size="11.00" fill="#000000">text[2147483647]</text>
<polygon fill="none" stroke="#000000" points="170,-433.7 170,-455.7 300,-455.7 300,-433.7 170,-433.7"/>
<text text-anchor="start" x="190" y="-440.8" font-family="Helvetica,sans-Serif" font-size="11.00" fill="#000000">created_at</text>
<polygon fill="none" stroke="#000000" points="300,-433.7 300,-455.7 392,-455.7 392,-433.7 300,-433.7"/>
<text text-anchor="start" x="302.6023" y="-441.4" font-family="Helvetica,sans-Serif" font-size="11.00" fill="#000000">timestamptz[35,6]</text>
<polygon fill="none" stroke="#000000" points="170,-411.7 170,-433.7 300,-433.7 300,-411.7 170,-411.7"/>
<text text-anchor="start" x="190" y="-418.8" font-family="Helvetica,sans-Serif" font-size="11.00" fill="#000000">updated_at</text>
<polygon fill="none" stroke="#000000" points="300,-411.7 300,-433.7 392,-433.7 392,-411.7 300,-411.7"/>
<text text-anchor="start" x="302.6023" y="-419.4" font-family="Helvetica,sans-Serif" font-size="11.00" fill="#000000">timestamptz[35,6]</text>
<polygon fill="none" stroke="#000000" points="170,-389.7 170,-411.7 300,-411.7 300,-389.7 170,-389.7"/>
<text text-anchor="start" x="190" y="-396.8" font-family="Helvetica,sans-Serif" font-size="11.00" fill="#000000">address_line1</text>
<polygon fill="none" stroke="#000000" points="300,-389.7 300,-411.7 392,-411.7 392,-389.7 300,-389.7"/>
<text text-anchor="start" x="303" y="-397.4" font-family="Helvetica,sans-Serif" font-size="11.00" fill="#000000">varchar[200]</text>
<polygon fill="none" stroke="#000000" points="170,-367.7 170,-389.7 300,-389.7 300,-367.7 170,-367.7"/>
<text text-anchor="start" x="190" y="-374.8" font-family="Helvetica,sans-Serif" font-size="11.00" fill="#000000">address_line2</text>
<polygon fill="none" stroke="#000000" points="300,-367.7 300,-389.7 392,-389.7 392,-367.7 300,-367.7"/>
<text text-anchor="start" x="303" y="-375.4" font-family="Helvetica,sans-Serif" font-size="11.00" fill="#000000">varchar[200]</text>
<polygon fill="none" stroke="#000000" points="170,-345.7 170,-367.7 300,-367.7 300,-345.7 170,-345.7"/>
<text text-anchor="start" x="190" y="-352.8" font-family="Helvetica,sans-Serif" font-size="11.00" fill="#000000">city</text>
<polygon fill="none" stroke="#000000" points="300,-345.7 300,-367.7 392,-367.7 392,-345.7 300,-345.7"/>
<text text-anchor="start" x="303" y="-353.4" font-family="Helvetica,sans-Serif" font-size="11.00" fill="#000000">varchar[100]</text>
<polygon fill="none" stroke="#000000" points="170,-323.7 170,-345.7 300,-345.7 300,-323.7 170,-323.7"/>
<text text-anchor="start" x="190" y="-330.8" font-family="Helvetica,sans-Serif" font-size="11.00" fill="#000000">state</text>
<polygon fill="none" stroke="#000000" points="300,-323.7 300,-345.7 392,-345.7 392,-323.7 300,-323.7"/>
<text text-anchor="start" x="303" y="-331.4" font-family="Helvetica,sans-Serif" font-size="11.00" fill="#000000">varchar[100]</text>
<polygon fill="none" stroke="#000000" points="170,-301.7 170,-323.7 300,-323.7 300,-301.7 170,-301.7"/>
<text text-anchor="start" x="190" y="-308.8" font-family="Helvetica,sans-Serif" font-size="11.00" fill="#000000">postal_code</text>
<polygon fill="none" stroke="#000000" points="300,-301.7 300,-323.7 392,-323.7 392,-301.7 300,-301.7"/>
<text text-anchor="start" x="303" y="-309.4" font-family="Helvetica,sans-Serif" font-size="11.00" fill="#000000">varchar[20]</text>
<polygon fill="none" stroke="#000000" points="170,-279.7 170,-301.7 300,-301.7 300,-279.7 170,-279.7"/>
<text text-anchor="start" x="190" y="-286.8" font-family="Helvetica,sans-Serif" font-size="11.00" fill="#000000">country</text>
<polygon fill="none" stroke="#000000" points="300,-279.7 300,-301.7 392,-301.7 392,-279.7 300,-279.7"/>
<text text-anchor="start" x="303" y="-287.4" font-family="Helvetica,sans-Serif" font-size="11.00" fill="#000000">varchar[100]</text>
<polygon fill="none" stroke="#000000" points="170,-257.7 170,-279.7 300,-279.7 300,-257.7 170,-257.7"/>
<text text-anchor="start" x="190" y="-264.8" font-family="Helvetica,sans-Serif" font-size="11.00" fill="#000000">is_primary</text>
<polygon fill="none" stroke="#000000" points="300,-257.7 300,-279.7 392,-279.7 392,-257.7 300,-257.7"/>
<text text-anchor="start" x="303" y="-265.4" font-family="Helvetica,sans-Serif" font-size="11.00" fill="#000000">bool[1]</text>
<polygon fill="none" stroke="#000000" points="170,-235.7 170,-257.7 300,-257.7 300,-235.7 170,-235.7"/>
<image xlink:href="../../images/foreignKeys.png" width="11px" height="12px" preserveAspectRatio="xMinYMin meet" x="175" y="-252.7"/>
<text text-anchor="start" x="190" y="-242.8" font-family="Helvetica,sans-Serif" font-size="11.00" fill="#000000">created_by</text>
<polygon fill="none" stroke="#000000" points="300,-235.7 300,-257.7 392,-257.7 392,-235.7 300,-235.7"/>
<text text-anchor="start" x="303" y="-243.4" font-family="Helvetica,sans-Serif" font-size="11.00" fill="#000000">int8[19]</text>
<polygon fill="none" stroke="#000000" points="170,-213.7 170,-235.7 300,-235.7 300,-213.7 170,-213.7"/>
<image xlink:href="../../images/foreignKeys.png" width="11px" height="12px" preserveAspectRatio="xMinYMin meet" x="175" y="-230.7"/>
<text text-anchor="start" x="190" y="-220.8" font-family="Helvetica,sans-Serif" font-size="11.00" fill="#000000">updated_by</text>
<polygon fill="none" stroke="#000000" points="300,-213.7 300,-235.7 392,-235.7 392,-213.7 300,-213.7"/>
<text text-anchor="start" x="303" y="-221.4" font-family="Helvetica,sans-Serif" font-size="11.00" fill="#000000">int8[19]</text>
<polygon fill="#ffffff" stroke="transparent" points="170,-194.7 170,-213.7 220,-213.7 220,-194.7 170,-194.7"/>
<polygon fill="none" stroke="#000000" points="170,-194.7 170,-213.7 220,-213.7 220,-194.7 170,-194.7"/>
<text text-anchor="start" x="173" y="-200.8" font-family="Helvetica,sans-Serif" font-size="11.00" fill="#000000">&lt; 2</text>
<polygon fill="#ffffff" stroke="transparent" points="220,-194.7 220,-213.7 300,-213.7 300,-194.7 220,-194.7"/>
<polygon fill="none" stroke="#000000" points="220,-194.7 220,-213.7 300,-213.7 300,-194.7 220,-194.7"/>
<text text-anchor="start" x="252.3807" y="-200.8" font-family="Helvetica,sans-Serif" font-size="11.00" fill="#000000">138 rows</text>
<polygon fill="#ffffff" stroke="transparent" points="300,-194.7 300,-213.7 392,-213.7 392,-194.7 300,-194.7"/>
<polygon fill="none" stroke="#000000" points="300,-194.7 300,-213.7 392,-213.7 392,-194.7 300,-194.7"/>
<text text-anchor="start" x="373.4053" y="-200.8" font-family="Helvetica,sans-Serif" font-size="11.00" fill="#000000">3 &gt;</text>
<polygon fill="none" stroke="#000000" stroke-width="2" points="169,-193.7 169,-655.7 393,-655.7 393,-193.7 169,-193.7"/>
</a>
</g>
</g>
<!-- carriers&#45;&gt;contact_roles -->
<g id="edge1" class="edge">
<title>carriers:w&#45;&gt;contact_roles:e</title>
<path fill="none" stroke="#000000" d="M438.3477,-668.9603C419.2258,-657.0372 421.6391,-620.7 392,-620.7"/>
<polygon fill="#000000" stroke="#000000" points="444.7655,-670.6561 451.5803,-676.1805 448.6327,-671.6781 452.5,-672.7 452.5,-672.7 452.5,-672.7 448.6327,-671.6781 453.4197,-669.2195 444.7655,-670.6561 444.7655,-670.6561"/>
<ellipse fill="none" stroke="#000000" cx="441.6717" cy="-669.8386" rx="3.2" ry="3.2"/>
</g>
<!-- users -->
<g id="node3" class="node">
<title>users</title>
<g id="a_node3"><a xlink:href="../../tables/users.html" xlink:title="users" target="_top">
<polygon fill="#ffffff" stroke="transparent" points="8,-38.2 8,-231.2 119,-231.2 119,-38.2 8,-38.2"/>
<polygon fill="#f5f5f5" stroke="transparent" points="8.5,-207.7 8.5,-230.7 119.5,-230.7 119.5,-207.7 8.5,-207.7"/>
<polygon fill="none" stroke="#000000" points="8.5,-207.7 8.5,-230.7 119.5,-230.7 119.5,-207.7 8.5,-207.7"/>
<text text-anchor="start" x="13.5" y="-216.3" font-family="Helvetica,sans-Serif" font-weight="bold" font-size="11.00" fill="#000000">users</text>
<text text-anchor="start" x="84.5437" y="-215.8" font-family="Helvetica,sans-Serif" font-size="11.00" fill="#000000">[table]</text>
<polygon fill="none" stroke="#000000" points="8.5,-185.7 8.5,-207.7 119.5,-207.7 119.5,-185.7 8.5,-185.7"/>
<image xlink:href="../../images/primaryKeys.png" width="11px" height="12px" preserveAspectRatio="xMinYMin meet" x="13.5" y="-202.7"/>
<text text-anchor="start" x="28.5" y="-192.8" font-family="Helvetica,sans-Serif" font-size="11.00" fill="#000000">id</text>
<polygon fill="#ffffff" stroke="transparent" points="8.5,-163.7 8.5,-185.7 119.5,-185.7 119.5,-163.7 8.5,-163.7"/>
<polygon fill="none" stroke="#000000" points="8.5,-163.7 8.5,-185.7 119.5,-185.7 119.5,-163.7 8.5,-163.7"/>
<text text-anchor="start" x="28.5" y="-170.8" font-family="Helvetica,sans-Serif" font-size="11.00" fill="#000000">username</text>
<polygon fill="#ffffff" stroke="transparent" points="8.5,-141.7 8.5,-163.7 119.5,-163.7 119.5,-141.7 8.5,-141.7"/>
<polygon fill="none" stroke="#000000" points="8.5,-141.7 8.5,-163.7 119.5,-163.7 119.5,-141.7 8.5,-141.7"/>
<text text-anchor="start" x="28.5" y="-148.8" font-family="Helvetica,sans-Serif" font-size="11.00" fill="#000000">email</text>
<polygon fill="#ffffff" stroke="transparent" points="8.5,-119.7 8.5,-141.7 119.5,-141.7 119.5,-119.7 8.5,-119.7"/>
<polygon fill="none" stroke="#000000" points="8.5,-119.7 8.5,-141.7 119.5,-141.7 119.5,-119.7 8.5,-119.7"/>
<image xlink:href="../../images/foreignKeys.png" width="11px" height="12px" preserveAspectRatio="xMinYMin meet" x="13.5" y="-136.7"/>
<text text-anchor="start" x="28.5" y="-126.8" font-family="Helvetica,sans-Serif" font-size="11.00" fill="#000000">department_id</text>
<polygon fill="none" stroke="#000000" points="8.5,-97.7 8.5,-119.7 119.5,-119.7 119.5,-97.7 8.5,-97.7"/>
<image xlink:href="../../images/foreignKeys.png" width="11px" height="12px" preserveAspectRatio="xMinYMin meet" x="13.5" y="-114.7"/>
<text text-anchor="start" x="28.5" y="-104.8" font-family="Helvetica,sans-Serif" font-size="11.00" fill="#000000">created_by</text>
<polygon fill="none" stroke="#000000" points="8.5,-75.7 8.5,-97.7 119.5,-97.7 119.5,-75.7 8.5,-75.7"/>
<image xlink:href="../../images/foreignKeys.png" width="11px" height="12px" preserveAspectRatio="xMinYMin meet" x="13.5" y="-92.7"/>
<text text-anchor="start" x="28.5" y="-82.8" font-family="Helvetica,sans-Serif" font-size="11.00" fill="#000000">updated_by</text>
<polygon fill="none" stroke="#000000" points="8.5,-56.7 8.5,-75.7 119.5,-75.7 119.5,-56.7 8.5,-56.7"/>
<text text-anchor="start" x="11.5" y="-62.8" font-family="Helvetica,sans-Serif" font-size="11.00" fill="#000000">...</text>
<polygon fill="#ffffff" stroke="transparent" points="8.5,-37.7 8.5,-56.7 38.5,-56.7 38.5,-37.7 8.5,-37.7"/>
<polygon fill="none" stroke="#000000" points="8.5,-37.7 8.5,-56.7 38.5,-56.7 38.5,-37.7 8.5,-37.7"/>
<text text-anchor="start" x="11.5" y="-43.8" font-family="Helvetica,sans-Serif" font-size="11.00" fill="#000000">&lt; 3</text>
<polygon fill="#ffffff" stroke="transparent" points="38.5,-37.7 38.5,-56.7 87.5,-56.7 87.5,-37.7 38.5,-37.7"/>
<polygon fill="none" stroke="#000000" points="38.5,-37.7 38.5,-56.7 87.5,-56.7 87.5,-37.7 38.5,-37.7"/>
<text text-anchor="start" x="45.9956" y="-43.8" font-family="Helvetica,sans-Serif" font-size="11.00" fill="#000000">10 rows</text>
<polygon fill="#ffffff" stroke="transparent" points="87.5,-37.7 87.5,-56.7 119.5,-56.7 119.5,-37.7 87.5,-37.7"/>
<polygon fill="none" stroke="#000000" points="87.5,-37.7 87.5,-56.7 119.5,-56.7 119.5,-37.7 87.5,-37.7"/>
<text text-anchor="start" x="94.7904" y="-43.8" font-family="Helvetica,sans-Serif" font-size="11.00" fill="#000000">66 &gt;</text>
</a>
</g>
</g>
<!-- carriers&#45;&gt;users -->
<g id="edge2" class="edge">
<title>carriers:w&#45;&gt;users:e</title>
<path fill="none" stroke="#000000" d="M438.274,-654.2972C424.6169,-662.6621 423.3371,-683.2734 402,-690.7 300.4215,-726.0555 239.0994,-763.5799 160,-690.7 119.4977,-653.3824 174.573,-196.7 119.5,-196.7"/>
<polygon fill="#000000" stroke="#000000" points="444.7441,-652.6612 453.3825,-654.1902 448.6221,-651.6806 452.5,-650.7 452.5,-650.7 452.5,-650.7 448.6221,-651.6806 451.6175,-647.2098 444.7441,-652.6612 444.7441,-652.6612"/>
<ellipse fill="none" stroke="#000000" cx="441.6417" cy="-653.4457" rx="3.2" ry="3.2"/>
</g>
<!-- carriers&#45;&gt;users -->
<g id="edge3" class="edge">
<title>carriers:w&#45;&gt;users:e</title>
<path fill="none" stroke="#000000" d="M438.3607,-632.2093C424.7202,-640.3695 423.1778,-660.4744 402,-667.7 351.1031,-685.0654 199.6221,-704.0613 160,-667.7 82.5998,-596.6696 224.5529,-196.7 119.5,-196.7"/>
<polygon fill="#000000" stroke="#000000" points="444.7356,-630.6271 453.3672,-632.194 448.6178,-629.6636 452.5,-628.7 452.5,-628.7 452.5,-628.7 448.6178,-629.6636 451.6328,-625.206 444.7356,-630.6271 444.7356,-630.6271"/>
<ellipse fill="none" stroke="#000000" cx="441.6298" cy="-631.398" rx="3.2" ry="3.2"/>
</g>
<!-- contact_roles&#45;&gt;users -->
<g id="edge4" class="edge">
<title>contact_roles:w&#45;&gt;users:e</title>
<path fill="none" stroke="#000000" d="M156.3177,-242.0857C141.6106,-229.7078 145.1624,-196.7 119.5,-196.7"/>
<polygon fill="#000000" stroke="#000000" points="162.4195,-244.1435 168.8496,-250.1112 166.2097,-245.4217 170,-246.7 170,-246.7 170,-246.7 166.2097,-245.4217 171.1504,-243.2888 162.4195,-244.1435 162.4195,-244.1435"/>
<ellipse fill="none" stroke="#000000" cx="159.3873" cy="-243.1209" rx="3.2" ry="3.2"/>
</g>
<!-- contact_roles&#45;&gt;users -->
<g id="edge5" class="edge">
<title>contact_roles:w&#45;&gt;users:e</title>
<path fill="none" stroke="#000000" d="M156.02,-221.0395C143.3515,-213.4498 139.3491,-196.7 119.5,-196.7"/>
<polygon fill="#000000" stroke="#000000" points="162.2609,-222.6736 169.0881,-228.1826 166.1304,-223.6868 170,-224.7 170,-224.7 170,-224.7 166.1304,-223.6868 170.9119,-221.2174 162.2609,-222.6736 162.2609,-222.6736"/>
<ellipse fill="none" stroke="#000000" cx="159.1653" cy="-221.863" rx="3.2" ry="3.2"/>
</g>
<!-- customers -->
<g id="node4" class="node">
<title>customers</title>
<g id="a_node4"><a xlink:href="../../tables/customers.html" xlink:title="customers" target="_top">
<polygon fill="#ffffff" stroke="transparent" points="443,-139.2 443,-310.2 554,-310.2 554,-139.2 443,-139.2"/>
<polygon fill="#f5f5f5" stroke="transparent" points="443.5,-286.7 443.5,-309.7 554.5,-309.7 554.5,-286.7 443.5,-286.7"/>
<polygon fill="none" stroke="#000000" points="443.5,-286.7 443.5,-309.7 554.5,-309.7 554.5,-286.7 443.5,-286.7"/>
<text text-anchor="start" x="448.5" y="-295.3" font-family="Helvetica,sans-Serif" font-weight="bold" font-size="11.00" fill="#000000">customers</text>
<text text-anchor="start" x="519.5437" y="-294.8" font-family="Helvetica,sans-Serif" font-size="11.00" fill="#000000">[table]</text>
<polygon fill="none" stroke="#000000" points="443.5,-264.7 443.5,-286.7 554.5,-286.7 554.5,-264.7 443.5,-264.7"/>
<image xlink:href="../../images/primaryKeys.png" width="11px" height="12px" preserveAspectRatio="xMinYMin meet" x="448.5" y="-281.7"/>
<text text-anchor="start" x="463.5" y="-271.8" font-family="Helvetica,sans-Serif" font-size="11.00" fill="#000000">id</text>
<polygon fill="#ffffff" stroke="transparent" points="443.5,-242.7 443.5,-264.7 554.5,-264.7 554.5,-242.7 443.5,-242.7"/>
<polygon fill="none" stroke="#000000" points="443.5,-242.7 443.5,-264.7 554.5,-264.7 554.5,-242.7 443.5,-242.7"/>
<text text-anchor="start" x="463.5" y="-249.8" font-family="Helvetica,sans-Serif" font-size="11.00" fill="#000000">code</text>
<polygon fill="none" stroke="#000000" points="443.5,-220.7 443.5,-242.7 554.5,-242.7 554.5,-220.7 443.5,-220.7"/>
<image xlink:href="../../images/foreignKeys.png" width="11px" height="12px" preserveAspectRatio="xMinYMin meet" x="448.5" y="-237.7"/>
<text text-anchor="start" x="463.5" y="-227.8" font-family="Helvetica,sans-Serif" font-size="11.00" fill="#000000">contact_id</text>
<polygon fill="none" stroke="#000000" points="443.5,-198.7 443.5,-220.7 554.5,-220.7 554.5,-198.7 443.5,-198.7"/>
<image xlink:href="../../images/foreignKeys.png" width="11px" height="12px" preserveAspectRatio="xMinYMin meet" x="448.5" y="-215.7"/>
<text text-anchor="start" x="463.5" y="-205.8" font-family="Helvetica,sans-Serif" font-size="11.00" fill="#000000">created_by</text>
<polygon fill="none" stroke="#000000" points="443.5,-176.7 443.5,-198.7 554.5,-198.7 554.5,-176.7 443.5,-176.7"/>
<image xlink:href="../../images/foreignKeys.png" width="11px" height="12px" preserveAspectRatio="xMinYMin meet" x="448.5" y="-193.7"/>
<text text-anchor="start" x="463.5" y="-183.8" font-family="Helvetica,sans-Serif" font-size="11.00" fill="#000000">updated_by</text>
<polygon fill="none" stroke="#000000" points="443.5,-157.7 443.5,-176.7 554.5,-176.7 554.5,-157.7 443.5,-157.7"/>
<text text-anchor="start" x="446.5" y="-163.8" font-family="Helvetica,sans-Serif" font-size="11.00" fill="#000000">...</text>
<polygon fill="#ffffff" stroke="transparent" points="443.5,-138.7 443.5,-157.7 473.5,-157.7 473.5,-138.7 443.5,-138.7"/>
<polygon fill="none" stroke="#000000" points="443.5,-138.7 443.5,-157.7 473.5,-157.7 473.5,-138.7 443.5,-138.7"/>
<text text-anchor="start" x="446.5" y="-144.8" font-family="Helvetica,sans-Serif" font-size="11.00" fill="#000000">&lt; 3</text>
<polygon fill="#ffffff" stroke="transparent" points="473.5,-138.7 473.5,-157.7 528.5,-157.7 528.5,-138.7 473.5,-138.7"/>
<polygon fill="none" stroke="#000000" points="473.5,-138.7 473.5,-157.7 528.5,-157.7 528.5,-138.7 473.5,-138.7"/>
<text text-anchor="start" x="480.8807" y="-144.8" font-family="Helvetica,sans-Serif" font-size="11.00" fill="#000000">135 rows</text>
<polygon fill="#ffffff" stroke="transparent" points="528.5,-138.7 528.5,-157.7 554.5,-157.7 554.5,-138.7 528.5,-138.7"/>
<polygon fill="none" stroke="#000000" points="528.5,-138.7 528.5,-157.7 554.5,-157.7 554.5,-138.7 528.5,-138.7"/>
<text text-anchor="start" x="535.9053" y="-144.8" font-family="Helvetica,sans-Serif" font-size="11.00" fill="#000000">1 &gt;</text>
</a>
</g>
</g>
<!-- customers&#45;&gt;contact_roles -->
<g id="edge6" class="edge">
<title>customers:w&#45;&gt;contact_roles:e</title>
<path fill="none" stroke="#000000" d="M429.5097,-236.0687C370.8428,-278.8055 473.7488,-620.7 392,-620.7"/>
<polygon fill="#000000" stroke="#000000" points="435.8636,-234.0846 444.5731,-235.1364 439.6818,-232.8923 443.5,-231.7 443.5,-231.7 443.5,-231.7 439.6818,-232.8923 442.4269,-228.2636 435.8636,-234.0846 435.8636,-234.0846"/>
<ellipse fill="none" stroke="#000000" cx="432.8091" cy="-235.0384" rx="3.2" ry="3.2"/>
</g>
<!-- customers&#45;&gt;users -->
<g id="edge7" class="edge">
<title>customers:w&#45;&gt;users:e</title>
<path fill="none" stroke="#000000" d="M429.5052,-205.5616C420.6003,-199.1785 417.1625,-187.1983 402,-182.7 298.8864,-152.1093 266.0698,-164.8842 160,-182.7 141.218,-185.8547 138.5451,-196.7 119.5,-196.7"/>
<polygon fill="#000000" stroke="#000000" points="435.8284,-207.4314 442.4791,-213.1522 439.6642,-208.5657 443.5,-209.7 443.5,-209.7 443.5,-209.7 439.6642,-208.5657 444.5209,-206.2478 435.8284,-207.4314 435.8284,-207.4314"/>
<ellipse fill="none" stroke="#000000" cx="432.7597" cy="-206.524" rx="3.2" ry="3.2"/>
</g>
<!-- customers&#45;&gt;users -->
<g id="edge8" class="edge">
<title>customers:w&#45;&gt;users:e</title>
<path fill="none" stroke="#000000" d="M429.5052,-183.5616C420.6003,-177.1785 417.1625,-165.1983 402,-160.7 298.8864,-130.1093 260.5345,-122.4768 160,-160.7 137.4889,-169.2587 143.5832,-196.7 119.5,-196.7"/>
<polygon fill="#000000" stroke="#000000" points="435.8284,-185.4314 442.4791,-191.1522 439.6642,-186.5657 443.5,-187.7 443.5,-187.7 443.5,-187.7 439.6642,-186.5657 444.5209,-184.2478 435.8284,-185.4314 435.8284,-185.4314"/>
<ellipse fill="none" stroke="#000000" cx="432.7597" cy="-184.524" rx="3.2" ry="3.2"/>
</g>
<!-- drivers -->
<g id="node5" class="node">
<title>drivers</title>
<g id="a_node5"><a xlink:href="../../tables/drivers.html" xlink:title="drivers" target="_top">
<polygon fill="#ffffff" stroke="transparent" points="603,-211.2 603,-404.2 728,-404.2 728,-211.2 603,-211.2"/>
<polygon fill="#f5f5f5" stroke="transparent" points="603.5,-380.7 603.5,-403.7 728.5,-403.7 728.5,-380.7 603.5,-380.7"/>
<polygon fill="none" stroke="#000000" points="603.5,-380.7 603.5,-403.7 728.5,-403.7 728.5,-380.7 603.5,-380.7"/>
<text text-anchor="start" x="608.5" y="-389.3" font-family="Helvetica,sans-Serif" font-weight="bold" font-size="11.00" fill="#000000">drivers</text>
<text text-anchor="start" x="693.5437" y="-388.8" font-family="Helvetica,sans-Serif" font-size="11.00" fill="#000000">[table]</text>
<polygon fill="none" stroke="#000000" points="603.5,-358.7 603.5,-380.7 728.5,-380.7 728.5,-358.7 603.5,-358.7"/>
<image xlink:href="../../images/primaryKeys.png" width="11px" height="12px" preserveAspectRatio="xMinYMin meet" x="608.5" y="-375.7"/>
<text text-anchor="start" x="623.5" y="-365.8" font-family="Helvetica,sans-Serif" font-size="11.00" fill="#000000">driver_id</text>
<polygon fill="none" stroke="#000000" points="603.5,-336.7 603.5,-358.7 728.5,-358.7 728.5,-336.7 603.5,-336.7"/>
<image xlink:href="../../images/foreignKeys.png" width="11px" height="12px" preserveAspectRatio="xMinYMin meet" x="608.5" y="-353.7"/>
<text text-anchor="start" x="623.5" y="-343.8" font-family="Helvetica,sans-Serif" font-size="11.00" fill="#000000">carrier_id</text>
<polygon fill="#ffffff" stroke="transparent" points="603.5,-314.7 603.5,-336.7 728.5,-336.7 728.5,-314.7 603.5,-314.7"/>
<polygon fill="none" stroke="#000000" points="603.5,-314.7 603.5,-336.7 728.5,-336.7 728.5,-314.7 603.5,-314.7"/>
<text text-anchor="start" x="623.5" y="-321.8" font-family="Helvetica,sans-Serif" font-size="11.00" fill="#000000">driver_code</text>
<polygon fill="none" stroke="#000000" points="603.5,-292.7 603.5,-314.7 728.5,-314.7 728.5,-292.7 603.5,-292.7"/>
<image xlink:href="../../images/foreignKeys.png" width="11px" height="12px" preserveAspectRatio="xMinYMin meet" x="608.5" y="-309.7"/>
<text text-anchor="start" x="623.5" y="-299.8" font-family="Helvetica,sans-Serif" font-size="11.00" fill="#000000">contact_id</text>
<polygon fill="none" stroke="#000000" points="603.5,-270.7 603.5,-292.7 728.5,-292.7 728.5,-270.7 603.5,-270.7"/>
<image xlink:href="../../images/foreignKeys.png" width="11px" height="12px" preserveAspectRatio="xMinYMin meet" x="608.5" y="-287.7"/>
<text text-anchor="start" x="623.5" y="-277.8" font-family="Helvetica,sans-Serif" font-size="11.00" fill="#000000">created_by</text>
<polygon fill="none" stroke="#000000" points="603.5,-248.7 603.5,-270.7 728.5,-270.7 728.5,-248.7 603.5,-248.7"/>
<image xlink:href="../../images/foreignKeys.png" width="11px" height="12px" preserveAspectRatio="xMinYMin meet" x="608.5" y="-265.7"/>
<text text-anchor="start" x="623.5" y="-255.8" font-family="Helvetica,sans-Serif" font-size="11.00" fill="#000000">updated_by</text>
<polygon fill="none" stroke="#000000" points="603.5,-229.7 603.5,-248.7 728.5,-248.7 728.5,-229.7 603.5,-229.7"/>
<text text-anchor="start" x="606.5" y="-235.8" font-family="Helvetica,sans-Serif" font-size="11.00" fill="#000000">...</text>
<polygon fill="#ffffff" stroke="transparent" points="603.5,-210.7 603.5,-229.7 664.5,-229.7 664.5,-210.7 603.5,-210.7"/>
<polygon fill="none" stroke="#000000" points="603.5,-210.7 603.5,-229.7 664.5,-229.7 664.5,-210.7 603.5,-210.7"/>
<text text-anchor="start" x="606.5" y="-216.8" font-family="Helvetica,sans-Serif" font-size="11.00" fill="#000000">&lt; 4</text>
<polygon fill="#ffffff" stroke="transparent" points="664.5,-210.7 664.5,-229.7 696.5,-229.7 696.5,-210.7 664.5,-210.7"/>
<polygon fill="none" stroke="#000000" points="664.5,-210.7 664.5,-229.7 696.5,-229.7 696.5,-210.7 664.5,-210.7"/>
<text text-anchor="start" x="687.3862" y="-216.8" font-family="Helvetica,sans-Serif" font-size="11.00" fill="#000000"> &#160;</text>
<polygon fill="#ffffff" stroke="transparent" points="696.5,-210.7 696.5,-229.7 728.5,-229.7 728.5,-210.7 696.5,-210.7"/>
<polygon fill="none" stroke="#000000" points="696.5,-210.7 696.5,-229.7 728.5,-229.7 728.5,-210.7 696.5,-210.7"/>
<text text-anchor="start" x="719.3862" y="-216.8" font-family="Helvetica,sans-Serif" font-size="11.00" fill="#000000"> &#160;</text>
</a>
</g>
</g>
<!-- drivers&#45;&gt;carriers -->
<g id="edge9" class="edge">
<title>drivers:w&#45;&gt;carriers:e</title>
<path fill="none" stroke="#000000" d="M589.7282,-352.1011C533.6233,-393.7335 623.1567,-716.7 545.5,-716.7"/>
<polygon fill="#000000" stroke="#000000" points="595.8797,-350.1353 604.5959,-351.1292 599.6898,-348.9176 603.5,-347.7 603.5,-347.7 603.5,-347.7 599.6898,-348.9176 602.4041,-344.2708 595.8797,-350.1353 595.8797,-350.1353"/>
<ellipse fill="none" stroke="#000000" cx="592.8315" cy="-351.1094" rx="3.2" ry="3.2"/>
</g>
<!-- drivers&#45;&gt;contact_roles -->
<g id="edge10" class="edge">
<title>drivers:w&#45;&gt;contact_roles:e</title>
<path fill="none" stroke="#000000" d="M592.4964,-313.1872C548.8937,-365.9321 410.9795,-620.7 392,-620.7"/>
<polygon fill="#000000" stroke="#000000" points="597.4411,-308.924 605.8508,-306.4265 600.4705,-306.312 603.5,-303.7 603.5,-303.7 603.5,-303.7 600.4705,-306.312 601.1492,-300.9735 597.4411,-308.924 597.4411,-308.924"/>
<ellipse fill="none" stroke="#000000" cx="595.0175" cy="-311.0135" rx="3.2" ry="3.2"/>
</g>
<!-- drivers&#45;&gt;users -->
<g id="edge11" class="edge">
<title>drivers:w&#45;&gt;users:e</title>
<path fill="none" stroke="#000000" d="M589.1341,-279.5735C546.0271,-264.0747 613.3724,-167.9943 562,-128.7 540.8231,-112.502 218.2751,-98.9313 160,-131.7 130.3311,-148.3831 153.5377,-196.7 119.5,-196.7"/>
<polygon fill="#000000" stroke="#000000" points="595.5862,-280.5285 602.9728,-285.2612 599.5431,-281.1143 603.5,-281.7 603.5,-281.7 603.5,-281.7 599.5431,-281.1143 604.0272,-278.1388 595.5862,-280.5285 595.5862,-280.5285"/>
<ellipse fill="none" stroke="#000000" cx="592.4207" cy="-280.0599" rx="3.2" ry="3.2"/>
</g>
<!-- drivers&#45;&gt;users -->
<g id="edge12" class="edge">
<title>drivers:w&#45;&gt;users:e</title>
<path fill="none" stroke="#000000" d="M589.1095,-257.5222C547.2109,-242.0601 612.1836,-148.3823 562,-109.7 531.6312,-86.2913 205.5813,-78.3632 160,-107.7 123.4562,-131.2201 162.9585,-196.7 119.5,-196.7"/>
<polygon fill="#000000" stroke="#000000" points="595.5901,-258.5029 602.9613,-263.2595 599.545,-259.1015 603.5,-259.7 603.5,-259.7 603.5,-259.7 599.545,-259.1015 604.0387,-256.1405 595.5901,-258.5029 595.5901,-258.5029"/>
<ellipse fill="none" stroke="#000000" cx="592.4261" cy="-258.0241" rx="3.2" ry="3.2"/>
</g>
</g>
</svg>
