<?xml version="1.0" encoding="UTF-8" standalone="no"?>
<!DOCTYPE svg PUBLIC "-//W3C//DTD SVG 1.1//EN"
 "http://www.w3.org/Graphics/SVG/1.1/DTD/svg11.dtd">
<!-- Generated by graphviz version 2.40.1 (20161225.0304)
 -->
<!-- Title: oneDegreeRelationshipsDiagram Pages: 1 -->
<svg width="740pt" height="494pt"
 viewBox="0.00 0.00 740.00 493.70" xmlns="http://www.w3.org/2000/svg" xmlns:xlink="http://www.w3.org/1999/xlink">
<g id="graph0" class="graph" transform="scale(1 1) rotate(0) translate(4 489.7)">
<title>oneDegreeRelationshipsDiagram</title>
<polygon fill="#ffffff" stroke="transparent" points="-4,4 -4,-489.7 736,-489.7 736,4 -4,4"/>
<text text-anchor="middle" x="72.4936" y="-7.3" font-family="Helvetica,sans-Serif" font-size="11.00" fill="#000000">Generated by SchemaSpy</text>
<!-- contact_roles -->
<g id="node1" class="node">
<title>contact_roles</title>
<g id="a_node1"><a xlink:href="../../tables/contact_roles.html" xlink:title="contact_roles" target="_top">
<polygon fill="#ffffff" stroke="transparent" points="168,-248.2 168,-375.2 298,-375.2 298,-248.2 168,-248.2"/>
<polygon fill="#f5f5f5" stroke="transparent" points="168,-351.7 168,-374.7 298,-374.7 298,-351.7 168,-351.7"/>
<polygon fill="none" stroke="#000000" points="168,-351.7 168,-374.7 298,-374.7 298,-351.7 168,-351.7"/>
<text text-anchor="start" x="173" y="-360.3" font-family="Helvetica,sans-Serif" font-weight="bold" font-size="11.00" fill="#000000">contact_roles</text>
<text text-anchor="start" x="263.0437" y="-359.8" font-family="Helvetica,sans-Serif" font-size="11.00" fill="#000000">[table]</text>
<polygon fill="none" stroke="#000000" points="168,-329.7 168,-351.7 298,-351.7 298,-329.7 168,-329.7"/>
<image xlink:href="../../images/primaryKeys.png" width="11px" height="12px" preserveAspectRatio="xMinYMin meet" x="173" y="-346.7"/>
<text text-anchor="start" x="188" y="-336.8" font-family="Helvetica,sans-Serif" font-size="11.00" fill="#000000">contact_id</text>
<polygon fill="none" stroke="#000000" points="168,-307.7 168,-329.7 298,-329.7 298,-307.7 168,-307.7"/>
<image xlink:href="../../images/foreignKeys.png" width="11px" height="12px" preserveAspectRatio="xMinYMin meet" x="173" y="-324.7"/>
<text text-anchor="start" x="188" y="-314.8" font-family="Helvetica,sans-Serif" font-size="11.00" fill="#000000">created_by</text>
<polygon fill="none" stroke="#000000" points="168,-285.7 168,-307.7 298,-307.7 298,-285.7 168,-285.7"/>
<image xlink:href="../../images/foreignKeys.png" width="11px" height="12px" preserveAspectRatio="xMinYMin meet" x="173" y="-302.7"/>
<text text-anchor="start" x="188" y="-292.8" font-family="Helvetica,sans-Serif" font-size="11.00" fill="#000000">updated_by</text>
<polygon fill="none" stroke="#000000" points="168,-266.7 168,-285.7 298,-285.7 298,-266.7 168,-266.7"/>
<text text-anchor="start" x="171" y="-272.8" font-family="Helvetica,sans-Serif" font-size="11.00" fill="#000000">...</text>
<polygon fill="#ffffff" stroke="transparent" points="168,-247.7 168,-266.7 208,-266.7 208,-247.7 168,-247.7"/>
<polygon fill="none" stroke="#000000" points="168,-247.7 168,-266.7 208,-266.7 208,-247.7 168,-247.7"/>
<text text-anchor="start" x="171" y="-253.8" font-family="Helvetica,sans-Serif" font-size="11.00" fill="#000000">&lt; 2</text>
<polygon fill="#ffffff" stroke="transparent" points="208,-247.7 208,-266.7 267,-266.7 267,-247.7 208,-247.7"/>
<polygon fill="none" stroke="#000000" points="208,-247.7 208,-266.7 267,-266.7 267,-247.7 208,-247.7"/>
<text text-anchor="start" x="219.3807" y="-253.8" font-family="Helvetica,sans-Serif" font-size="11.00" fill="#000000">138 rows</text>
<polygon fill="#ffffff" stroke="transparent" points="267,-247.7 267,-266.7 298,-266.7 298,-247.7 267,-247.7"/>
<polygon fill="none" stroke="#000000" points="267,-247.7 267,-266.7 298,-266.7 298,-247.7 267,-247.7"/>
<text text-anchor="start" x="279.4053" y="-253.8" font-family="Helvetica,sans-Serif" font-size="11.00" fill="#000000">3 &gt;</text>
</a>
</g>
</g>
<!-- users -->
<g id="node2" class="node">
<title>users</title>
<g id="a_node2"><a xlink:href="../../tables/users.html" xlink:title="users" target="_top">
<polygon fill="#ffffff" stroke="transparent" points="8,-38.2 8,-231.2 119,-231.2 119,-38.2 8,-38.2"/>
<polygon fill="#f5f5f5" stroke="transparent" points="8.5,-207.7 8.5,-230.7 119.5,-230.7 119.5,-207.7 8.5,-207.7"/>
<polygon fill="none" stroke="#000000" points="8.5,-207.7 8.5,-230.7 119.5,-230.7 119.5,-207.7 8.5,-207.7"/>
<text text-anchor="start" x="13.5" y="-216.3" font-family="Helvetica,sans-Serif" font-weight="bold" font-size="11.00" fill="#000000">users</text>
<text text-anchor="start" x="84.5437" y="-215.8" font-family="Helvetica,sans-Serif" font-size="11.00" fill="#000000">[table]</text>
<polygon fill="none" stroke="#000000" points="8.5,-185.7 8.5,-207.7 119.5,-207.7 119.5,-185.7 8.5,-185.7"/>
<image xlink:href="../../images/primaryKeys.png" width="11px" height="12px" preserveAspectRatio="xMinYMin meet" x="13.5" y="-202.7"/>
<text text-anchor="start" x="28.5" y="-192.8" font-family="Helvetica,sans-Serif" font-size="11.00" fill="#000000">id</text>
<polygon fill="#ffffff" stroke="transparent" points="8.5,-163.7 8.5,-185.7 119.5,-185.7 119.5,-163.7 8.5,-163.7"/>
<polygon fill="none" stroke="#000000" points="8.5,-163.7 8.5,-185.7 119.5,-185.7 119.5,-163.7 8.5,-163.7"/>
<text text-anchor="start" x="28.5" y="-170.8" font-family="Helvetica,sans-Serif" font-size="11.00" fill="#000000">username</text>
<polygon fill="#ffffff" stroke="transparent" points="8.5,-141.7 8.5,-163.7 119.5,-163.7 119.5,-141.7 8.5,-141.7"/>
<polygon fill="none" stroke="#000000" points="8.5,-141.7 8.5,-163.7 119.5,-163.7 119.5,-141.7 8.5,-141.7"/>
<text text-anchor="start" x="28.5" y="-148.8" font-family="Helvetica,sans-Serif" font-size="11.00" fill="#000000">email</text>
<polygon fill="#ffffff" stroke="transparent" points="8.5,-119.7 8.5,-141.7 119.5,-141.7 119.5,-119.7 8.5,-119.7"/>
<polygon fill="none" stroke="#000000" points="8.5,-119.7 8.5,-141.7 119.5,-141.7 119.5,-119.7 8.5,-119.7"/>
<image xlink:href="../../images/foreignKeys.png" width="11px" height="12px" preserveAspectRatio="xMinYMin meet" x="13.5" y="-136.7"/>
<text text-anchor="start" x="28.5" y="-126.8" font-family="Helvetica,sans-Serif" font-size="11.00" fill="#000000">department_id</text>
<polygon fill="none" stroke="#000000" points="8.5,-97.7 8.5,-119.7 119.5,-119.7 119.5,-97.7 8.5,-97.7"/>
<image xlink:href="../../images/foreignKeys.png" width="11px" height="12px" preserveAspectRatio="xMinYMin meet" x="13.5" y="-114.7"/>
<text text-anchor="start" x="28.5" y="-104.8" font-family="Helvetica,sans-Serif" font-size="11.00" fill="#000000">created_by</text>
<polygon fill="none" stroke="#000000" points="8.5,-75.7 8.5,-97.7 119.5,-97.7 119.5,-75.7 8.5,-75.7"/>
<image xlink:href="../../images/foreignKeys.png" width="11px" height="12px" preserveAspectRatio="xMinYMin meet" x="13.5" y="-92.7"/>
<text text-anchor="start" x="28.5" y="-82.8" font-family="Helvetica,sans-Serif" font-size="11.00" fill="#000000">updated_by</text>
<polygon fill="none" stroke="#000000" points="8.5,-56.7 8.5,-75.7 119.5,-75.7 119.5,-56.7 8.5,-56.7"/>
<text text-anchor="start" x="11.5" y="-62.8" font-family="Helvetica,sans-Serif" font-size="11.00" fill="#000000">...</text>
<polygon fill="#ffffff" stroke="transparent" points="8.5,-37.7 8.5,-56.7 38.5,-56.7 38.5,-37.7 8.5,-37.7"/>
<polygon fill="none" stroke="#000000" points="8.5,-37.7 8.5,-56.7 38.5,-56.7 38.5,-37.7 8.5,-37.7"/>
<text text-anchor="start" x="11.5" y="-43.8" font-family="Helvetica,sans-Serif" font-size="11.00" fill="#000000">&lt; 3</text>
<polygon fill="#ffffff" stroke="transparent" points="38.5,-37.7 38.5,-56.7 87.5,-56.7 87.5,-37.7 38.5,-37.7"/>
<polygon fill="none" stroke="#000000" points="38.5,-37.7 38.5,-56.7 87.5,-56.7 87.5,-37.7 38.5,-37.7"/>
<text text-anchor="start" x="45.9956" y="-43.8" font-family="Helvetica,sans-Serif" font-size="11.00" fill="#000000">10 rows</text>
<polygon fill="#ffffff" stroke="transparent" points="87.5,-37.7 87.5,-56.7 119.5,-56.7 119.5,-37.7 87.5,-37.7"/>
<polygon fill="none" stroke="#000000" points="87.5,-37.7 87.5,-56.7 119.5,-56.7 119.5,-37.7 87.5,-37.7"/>
<text text-anchor="start" x="94.7904" y="-43.8" font-family="Helvetica,sans-Serif" font-size="11.00" fill="#000000">66 &gt;</text>
</a>
</g>
</g>
<!-- contact_roles&#45;&gt;users -->
<g id="edge1" class="edge">
<title>contact_roles:w&#45;&gt;users:e</title>
<path fill="none" stroke="#000000" d="M153.8725,-315.1803C122.1979,-295.1772 171.9236,-196.7 119.5,-196.7"/>
<polygon fill="#000000" stroke="#000000" points="160.2373,-316.766 167.1297,-322.1932 164.1186,-317.733 168,-318.7 168,-318.7 168,-318.7 164.1186,-317.733 168.8703,-315.2068 160.2373,-316.766 160.2373,-316.766"/>
<ellipse fill="none" stroke="#000000" cx="157.1322" cy="-315.9924" rx="3.2" ry="3.2"/>
</g>
<!-- contact_roles&#45;&gt;users -->
<g id="edge2" class="edge">
<title>contact_roles:w&#45;&gt;users:e</title>
<path fill="none" stroke="#000000" d="M154.0867,-292.656C129.3224,-273.9476 162.9143,-196.7 119.5,-196.7"/>
<polygon fill="#000000" stroke="#000000" points="160.3179,-294.4671 166.9952,-300.1569 164.159,-295.5836 168,-296.7 168,-296.7 168,-296.7 164.159,-295.5836 169.0048,-293.2431 160.3179,-294.4671 160.3179,-294.4671"/>
<ellipse fill="none" stroke="#000000" cx="157.2451" cy="-293.574" rx="3.2" ry="3.2"/>
</g>
<!-- customers -->
<g id="node3" class="node">
<title>customers</title>
<g id="a_node3"><a xlink:href="../../tables/customers.html" xlink:title="customers" target="_top">
<polygon fill="#ffffff" stroke="transparent" points="347,-193.7 347,-481.7 554,-481.7 554,-193.7 347,-193.7"/>
<polygon fill="#f5f5f5" stroke="transparent" points="349.5,-456.7 349.5,-479.7 552.5,-479.7 552.5,-456.7 349.5,-456.7"/>
<polygon fill="none" stroke="#000000" points="349.5,-456.7 349.5,-479.7 552.5,-479.7 552.5,-456.7 349.5,-456.7"/>
<text text-anchor="start" x="354.5" y="-465.3" font-family="Helvetica,sans-Serif" font-weight="bold" font-size="11.00" fill="#000000">customers</text>
<text text-anchor="start" x="517.5437" y="-464.8" font-family="Helvetica,sans-Serif" font-size="11.00" fill="#000000">[table]</text>
<polygon fill="none" stroke="#000000" points="349.5,-434.7 349.5,-456.7 460.5,-456.7 460.5,-434.7 349.5,-434.7"/>
<image xlink:href="../../images/primaryKeys.png" width="11px" height="12px" preserveAspectRatio="xMinYMin meet" x="354.5" y="-451.7"/>
<text text-anchor="start" x="369.5" y="-441.8" font-family="Helvetica,sans-Serif" font-size="11.00" fill="#000000">id</text>
<polygon fill="none" stroke="#000000" points="460.5,-434.7 460.5,-456.7 552.5,-456.7 552.5,-434.7 460.5,-434.7"/>
<text text-anchor="start" x="463.5" y="-442.4" font-family="Helvetica,sans-Serif" font-size="11.00" fill="#000000">bigserial[19]</text>
<polygon fill="#ffffff" stroke="transparent" points="349.5,-412.7 349.5,-434.7 460.5,-434.7 460.5,-412.7 349.5,-412.7"/>
<polygon fill="none" stroke="#000000" points="349.5,-412.7 349.5,-434.7 460.5,-434.7 460.5,-412.7 349.5,-412.7"/>
<text text-anchor="start" x="369.5" y="-419.8" font-family="Helvetica,sans-Serif" font-size="11.00" fill="#000000">code</text>
<polygon fill="none" stroke="#000000" points="460.5,-412.7 460.5,-434.7 552.5,-434.7 552.5,-412.7 460.5,-412.7"/>
<text text-anchor="start" x="463.5" y="-420.4" font-family="Helvetica,sans-Serif" font-size="11.00" fill="#000000">varchar[50]</text>
<polygon fill="none" stroke="#000000" points="349.5,-390.7 349.5,-412.7 460.5,-412.7 460.5,-390.7 349.5,-390.7"/>
<text text-anchor="start" x="369.5" y="-397.8" font-family="Helvetica,sans-Serif" font-size="11.00" fill="#000000">name</text>
<polygon fill="none" stroke="#000000" points="460.5,-390.7 460.5,-412.7 552.5,-412.7 552.5,-390.7 460.5,-390.7"/>
<text text-anchor="start" x="463.5" y="-398.4" font-family="Helvetica,sans-Serif" font-size="11.00" fill="#000000">varchar[200]</text>
<polygon fill="none" stroke="#000000" points="349.5,-368.7 349.5,-390.7 460.5,-390.7 460.5,-368.7 349.5,-368.7"/>
<text text-anchor="start" x="369.5" y="-375.8" font-family="Helvetica,sans-Serif" font-size="11.00" fill="#000000">company_name</text>
<polygon fill="none" stroke="#000000" points="460.5,-368.7 460.5,-390.7 552.5,-390.7 552.5,-368.7 460.5,-368.7"/>
<text text-anchor="start" x="463.5" y="-376.4" font-family="Helvetica,sans-Serif" font-size="11.00" fill="#000000">varchar[200]</text>
<polygon fill="none" stroke="#000000" points="349.5,-346.7 349.5,-368.7 460.5,-368.7 460.5,-346.7 349.5,-346.7"/>
<text text-anchor="start" x="369.5" y="-353.8" font-family="Helvetica,sans-Serif" font-size="11.00" fill="#000000">credit_limit</text>
<polygon fill="none" stroke="#000000" points="460.5,-346.7 460.5,-368.7 552.5,-368.7 552.5,-346.7 460.5,-346.7"/>
<text text-anchor="start" x="463.5" y="-354.4" font-family="Helvetica,sans-Serif" font-size="11.00" fill="#000000">numeric[12,2]</text>
<polygon fill="none" stroke="#000000" points="349.5,-324.7 349.5,-346.7 460.5,-346.7 460.5,-324.7 349.5,-324.7"/>
<text text-anchor="start" x="369.5" y="-331.8" font-family="Helvetica,sans-Serif" font-size="11.00" fill="#000000">status</text>
<polygon fill="none" stroke="#000000" points="460.5,-324.7 460.5,-346.7 552.5,-346.7 552.5,-324.7 460.5,-324.7"/>
<text text-anchor="start" x="463.5" y="-332.4" font-family="Helvetica,sans-Serif" font-size="11.00" fill="#000000">varchar[20]</text>
<polygon fill="none" stroke="#000000" points="349.5,-302.7 349.5,-324.7 460.5,-324.7 460.5,-302.7 349.5,-302.7"/>
<text text-anchor="start" x="369.5" y="-309.8" font-family="Helvetica,sans-Serif" font-size="11.00" fill="#000000">created_at</text>
<polygon fill="none" stroke="#000000" points="460.5,-302.7 460.5,-324.7 552.5,-324.7 552.5,-302.7 460.5,-302.7"/>
<text text-anchor="start" x="463.1023" y="-310.4" font-family="Helvetica,sans-Serif" font-size="11.00" fill="#000000">timestamptz[35,6]</text>
<polygon fill="none" stroke="#000000" points="349.5,-280.7 349.5,-302.7 460.5,-302.7 460.5,-280.7 349.5,-280.7"/>
<text text-anchor="start" x="369.5" y="-287.8" font-family="Helvetica,sans-Serif" font-size="11.00" fill="#000000">updated_at</text>
<polygon fill="none" stroke="#000000" points="460.5,-280.7 460.5,-302.7 552.5,-302.7 552.5,-280.7 460.5,-280.7"/>
<text text-anchor="start" x="463.1023" y="-288.4" font-family="Helvetica,sans-Serif" font-size="11.00" fill="#000000">timestamptz[35,6]</text>
<polygon fill="none" stroke="#000000" points="349.5,-258.7 349.5,-280.7 460.5,-280.7 460.5,-258.7 349.5,-258.7"/>
<image xlink:href="../../images/foreignKeys.png" width="11px" height="12px" preserveAspectRatio="xMinYMin meet" x="354.5" y="-275.7"/>
<text text-anchor="start" x="369.5" y="-265.8" font-family="Helvetica,sans-Serif" font-size="11.00" fill="#000000">contact_id</text>
<polygon fill="none" stroke="#000000" points="460.5,-258.7 460.5,-280.7 552.5,-280.7 552.5,-258.7 460.5,-258.7"/>
<text text-anchor="start" x="463.5" y="-266.4" font-family="Helvetica,sans-Serif" font-size="11.00" fill="#000000">int8[19]</text>
<polygon fill="none" stroke="#000000" points="349.5,-236.7 349.5,-258.7 460.5,-258.7 460.5,-236.7 349.5,-236.7"/>
<image xlink:href="../../images/foreignKeys.png" width="11px" height="12px" preserveAspectRatio="xMinYMin meet" x="354.5" y="-253.7"/>
<text text-anchor="start" x="369.5" y="-243.8" font-family="Helvetica,sans-Serif" font-size="11.00" fill="#000000">created_by</text>
<polygon fill="none" stroke="#000000" points="460.5,-236.7 460.5,-258.7 552.5,-258.7 552.5,-236.7 460.5,-236.7"/>
<text text-anchor="start" x="463.5" y="-244.4" font-family="Helvetica,sans-Serif" font-size="11.00" fill="#000000">int8[19]</text>
<polygon fill="none" stroke="#000000" points="349.5,-214.7 349.5,-236.7 460.5,-236.7 460.5,-214.7 349.5,-214.7"/>
<image xlink:href="../../images/foreignKeys.png" width="11px" height="12px" preserveAspectRatio="xMinYMin meet" x="354.5" y="-231.7"/>
<text text-anchor="start" x="369.5" y="-221.8" font-family="Helvetica,sans-Serif" font-size="11.00" fill="#000000">updated_by</text>
<polygon fill="none" stroke="#000000" points="460.5,-214.7 460.5,-236.7 552.5,-236.7 552.5,-214.7 460.5,-214.7"/>
<text text-anchor="start" x="463.5" y="-222.4" font-family="Helvetica,sans-Serif" font-size="11.00" fill="#000000">int8[19]</text>
<polygon fill="#ffffff" stroke="transparent" points="349.5,-195.7 349.5,-214.7 390.5,-214.7 390.5,-195.7 349.5,-195.7"/>
<polygon fill="none" stroke="#000000" points="349.5,-195.7 349.5,-214.7 390.5,-214.7 390.5,-195.7 349.5,-195.7"/>
<text text-anchor="start" x="352.5" y="-201.8" font-family="Helvetica,sans-Serif" font-size="11.00" fill="#000000">&lt; 3</text>
<polygon fill="#ffffff" stroke="transparent" points="390.5,-195.7 390.5,-214.7 460.5,-214.7 460.5,-195.7 390.5,-195.7"/>
<polygon fill="none" stroke="#000000" points="390.5,-195.7 390.5,-214.7 460.5,-214.7 460.5,-195.7 390.5,-195.7"/>
<text text-anchor="start" x="412.8807" y="-201.8" font-family="Helvetica,sans-Serif" font-size="11.00" fill="#000000">135 rows</text>
<polygon fill="#ffffff" stroke="transparent" points="460.5,-195.7 460.5,-214.7 552.5,-214.7 552.5,-195.7 460.5,-195.7"/>
<polygon fill="none" stroke="#000000" points="460.5,-195.7 460.5,-214.7 552.5,-214.7 552.5,-195.7 460.5,-195.7"/>
<text text-anchor="start" x="533.9053" y="-201.8" font-family="Helvetica,sans-Serif" font-size="11.00" fill="#000000">1 &gt;</text>
<polygon fill="none" stroke="#000000" stroke-width="2" points="348,-194.7 348,-480.7 553,-480.7 553,-194.7 348,-194.7"/>
</a>
</g>
</g>
<!-- customers&#45;&gt;contact_roles -->
<g id="edge3" class="edge">
<title>customers:w&#45;&gt;contact_roles:e</title>
<path fill="none" stroke="#000000" d="M335.7777,-274.1414C317.062,-289.685 331.044,-340.7 298,-340.7"/>
<polygon fill="#000000" stroke="#000000" points="341.8887,-272.1635 350.6086,-273.1251 345.6944,-270.9318 349.5,-269.7 349.5,-269.7 349.5,-269.7 345.6944,-270.9318 348.3914,-266.2749 341.8887,-272.1635 341.8887,-272.1635"/>
<ellipse fill="none" stroke="#000000" cx="338.8442" cy="-273.1489" rx="3.2" ry="3.2"/>
</g>
<!-- customers&#45;&gt;users -->
<g id="edge4" class="edge">
<title>customers:w&#45;&gt;users:e</title>
<path fill="none" stroke="#000000" d="M335.1411,-246.3754C325.7849,-244.4317 319.6194,-240.7111 306,-237.7 241.2287,-223.3797 224.6538,-221.5417 160,-206.7 141.9294,-202.5518 138.0406,-196.7 119.5,-196.7"/>
<polygon fill="#000000" stroke="#000000" points="341.5338,-246.9651 349.1693,-251.2848 345.5169,-247.3325 349.5,-247.7 349.5,-247.7 349.5,-247.7 345.5169,-247.3325 349.8307,-244.1152 341.5338,-246.9651 341.5338,-246.9651"/>
<ellipse fill="none" stroke="#000000" cx="338.3474" cy="-246.6711" rx="3.2" ry="3.2"/>
</g>
<!-- customers&#45;&gt;users -->
<g id="edge5" class="edge">
<title>customers:w&#45;&gt;users:e</title>
<path fill="none" stroke="#000000" d="M335.1607,-222.8916C325.7927,-218.7217 320.498,-211.0278 306,-207.7 225.0716,-189.1241 202.5329,-196.7 119.5,-196.7"/>
<polygon fill="#000000" stroke="#000000" points="341.6492,-224.1624 348.8081,-229.2329 345.5746,-224.9312 349.5,-225.7 349.5,-225.7 349.5,-225.7 345.5746,-224.9312 350.1919,-222.1671 341.6492,-224.1624 341.6492,-224.1624"/>
<ellipse fill="none" stroke="#000000" cx="338.5088" cy="-223.5473" rx="3.2" ry="3.2"/>
</g>
<!-- orders -->
<g id="node4" class="node">
<title>orders</title>
<g id="a_node4"><a xlink:href="../../tables/orders.html" xlink:title="orders" target="_top">
<polygon fill="#ffffff" stroke="transparent" points="603,-70.2 603,-285.2 724,-285.2 724,-70.2 603,-70.2"/>
<polygon fill="#f5f5f5" stroke="transparent" points="603.5,-261.7 603.5,-284.7 724.5,-284.7 724.5,-261.7 603.5,-261.7"/>
<polygon fill="none" stroke="#000000" points="603.5,-261.7 603.5,-284.7 724.5,-284.7 724.5,-261.7 603.5,-261.7"/>
<text text-anchor="start" x="608.5" y="-270.3" font-family="Helvetica,sans-Serif" font-weight="bold" font-size="11.00" fill="#000000">orders</text>
<text text-anchor="start" x="689.5437" y="-269.8" font-family="Helvetica,sans-Serif" font-size="11.00" fill="#000000">[table]</text>
<polygon fill="none" stroke="#000000" points="603.5,-239.7 603.5,-261.7 724.5,-261.7 724.5,-239.7 603.5,-239.7"/>
<image xlink:href="../../images/primaryKeys.png" width="11px" height="12px" preserveAspectRatio="xMinYMin meet" x="608.5" y="-256.7"/>
<text text-anchor="start" x="623.5" y="-246.8" font-family="Helvetica,sans-Serif" font-size="11.00" fill="#000000">order_id</text>
<polygon fill="#ffffff" stroke="transparent" points="603.5,-217.7 603.5,-239.7 724.5,-239.7 724.5,-217.7 603.5,-217.7"/>
<polygon fill="none" stroke="#000000" points="603.5,-217.7 603.5,-239.7 724.5,-239.7 724.5,-217.7 603.5,-217.7"/>
<text text-anchor="start" x="623.5" y="-224.8" font-family="Helvetica,sans-Serif" font-size="11.00" fill="#000000">order_number</text>
<polygon fill="#ffffff" stroke="transparent" points="603.5,-195.7 603.5,-217.7 724.5,-217.7 724.5,-195.7 603.5,-195.7"/>
<polygon fill="none" stroke="#000000" points="603.5,-195.7 603.5,-217.7 724.5,-217.7 724.5,-195.7 603.5,-195.7"/>
<image xlink:href="../../images/foreignKeys.png" width="11px" height="12px" preserveAspectRatio="xMinYMin meet" x="608.5" y="-212.7"/>
<text text-anchor="start" x="623.5" y="-202.8" font-family="Helvetica,sans-Serif" font-size="11.00" fill="#000000">customer_id</text>
<polygon fill="#ffffff" stroke="transparent" points="603.5,-173.7 603.5,-195.7 724.5,-195.7 724.5,-173.7 603.5,-173.7"/>
<polygon fill="none" stroke="#000000" points="603.5,-173.7 603.5,-195.7 724.5,-195.7 724.5,-173.7 603.5,-173.7"/>
<image xlink:href="../../images/foreignKeys.png" width="11px" height="12px" preserveAspectRatio="xMinYMin meet" x="608.5" y="-190.7"/>
<text text-anchor="start" x="623.5" y="-180.8" font-family="Helvetica,sans-Serif" font-size="11.00" fill="#000000">user_id</text>
<polygon fill="#ffffff" stroke="transparent" points="603.5,-151.7 603.5,-173.7 724.5,-173.7 724.5,-151.7 603.5,-151.7"/>
<polygon fill="none" stroke="#000000" points="603.5,-151.7 603.5,-173.7 724.5,-173.7 724.5,-151.7 603.5,-151.7"/>
<text text-anchor="start" x="623.5" y="-158.8" font-family="Helvetica,sans-Serif" font-size="11.00" fill="#000000">order_date</text>
<polygon fill="none" stroke="#000000" points="603.5,-129.7 603.5,-151.7 724.5,-151.7 724.5,-129.7 603.5,-129.7"/>
<image xlink:href="../../images/foreignKeys.png" width="11px" height="12px" preserveAspectRatio="xMinYMin meet" x="608.5" y="-146.7"/>
<text text-anchor="start" x="623.5" y="-136.8" font-family="Helvetica,sans-Serif" font-size="11.00" fill="#000000">created_by</text>
<polygon fill="none" stroke="#000000" points="603.5,-107.7 603.5,-129.7 724.5,-129.7 724.5,-107.7 603.5,-107.7"/>
<image xlink:href="../../images/foreignKeys.png" width="11px" height="12px" preserveAspectRatio="xMinYMin meet" x="608.5" y="-124.7"/>
<text text-anchor="start" x="623.5" y="-114.8" font-family="Helvetica,sans-Serif" font-size="11.00" fill="#000000">updated_by</text>
<polygon fill="none" stroke="#000000" points="603.5,-88.7 603.5,-107.7 724.5,-107.7 724.5,-88.7 603.5,-88.7"/>
<text text-anchor="start" x="606.5" y="-94.8" font-family="Helvetica,sans-Serif" font-size="11.00" fill="#000000">...</text>
<polygon fill="#ffffff" stroke="transparent" points="603.5,-69.7 603.5,-88.7 644.5,-88.7 644.5,-69.7 603.5,-69.7"/>
<polygon fill="none" stroke="#000000" points="603.5,-69.7 603.5,-88.7 644.5,-88.7 644.5,-69.7 603.5,-69.7"/>
<text text-anchor="start" x="606.5" y="-75.8" font-family="Helvetica,sans-Serif" font-size="11.00" fill="#000000">&lt; 4</text>
<polygon fill="#ffffff" stroke="transparent" points="644.5,-69.7 644.5,-88.7 692.5,-88.7 692.5,-69.7 644.5,-69.7"/>
<polygon fill="none" stroke="#000000" points="644.5,-69.7 644.5,-88.7 692.5,-88.7 692.5,-69.7 644.5,-69.7"/>
<text text-anchor="start" x="657.1105" y="-75.8" font-family="Helvetica,sans-Serif" font-size="11.00" fill="#000000">2 rows</text>
<polygon fill="#ffffff" stroke="transparent" points="692.5,-69.7 692.5,-88.7 724.5,-88.7 724.5,-69.7 692.5,-69.7"/>
<polygon fill="none" stroke="#000000" points="692.5,-69.7 692.5,-88.7 724.5,-88.7 724.5,-69.7 692.5,-69.7"/>
<text text-anchor="start" x="705.9053" y="-75.8" font-family="Helvetica,sans-Serif" font-size="11.00" fill="#000000">8 &gt;</text>
</a>
</g>
</g>
<!-- orders&#45;&gt;users -->
<g id="edge6" class="edge">
<title>orders:w&#45;&gt;users:e</title>
<path fill="none" stroke="#000000" d="M588.9678,-140.5894C481.9099,-139.1071 246.9956,-123.7832 160,-159.7 137.4644,-169.004 143.8807,-196.7 119.5,-196.7"/>
<polygon fill="#000000" stroke="#000000" points="595.5002,-140.6391 603.4726,-144.2999 599.5001,-140.6695 603.5,-140.7 603.5,-140.7 603.5,-140.7 599.5001,-140.6695 603.5274,-137.1001 595.5002,-140.6391 595.5002,-140.6391"/>
<ellipse fill="none" stroke="#000000" cx="592.3003" cy="-140.6147" rx="3.2" ry="3.2"/>
</g>
<!-- orders&#45;&gt;users -->
<g id="edge8" class="edge">
<title>orders:w&#45;&gt;users:e</title>
<path fill="none" stroke="#000000" d="M588.9897,-118.5533C402.489,-114.7765 327.4657,-40.1211 160,-134.7 131.3411,-150.8856 152.4137,-196.7 119.5,-196.7"/>
<polygon fill="#000000" stroke="#000000" points="595.5004,-118.6191 603.4636,-122.2998 599.5002,-118.6595 603.5,-118.7 603.5,-118.7 603.5,-118.7 599.5002,-118.6595 603.5364,-115.1002 595.5004,-118.6191 595.5004,-118.6191"/>
<ellipse fill="none" stroke="#000000" cx="592.3006" cy="-118.5867" rx="3.2" ry="3.2"/>
</g>
<!-- orders&#45;&gt;users -->
<g id="edge9" class="edge">
<title>orders:w&#45;&gt;users:e</title>
<path fill="none" stroke="#000000" d="M588.8285,-184.2918C580.5375,-183.7989 574.4031,-182.9987 562,-182.7 383.3299,-178.3972 338.1906,-178.9294 160,-192.7 141.9662,-194.0937 137.5876,-196.7 119.5,-196.7"/>
<polygon fill="#000000" stroke="#000000" points="595.5031,-184.4774 603.3999,-188.2986 599.5015,-184.5887 603.5,-184.7 603.5,-184.7 603.5,-184.7 599.5015,-184.5887 603.6001,-181.1014 595.5031,-184.4774 595.5031,-184.4774"/>
<ellipse fill="none" stroke="#000000" cx="592.3043" cy="-184.3884" rx="3.2" ry="3.2"/>
</g>
<!-- orders&#45;&gt;customers -->
<g id="edge7" class="edge">
<title>orders:w&#45;&gt;customers:e</title>
<path fill="none" stroke="#000000" d="M589.0076,-208.4864C511.06,-230.3571 655.5982,-445.7 552.5,-445.7"/>
<polygon fill="#000000" stroke="#000000" points="595.5601,-207.6787 603.9404,-210.273 599.53,-207.1894 603.5,-206.7 603.5,-206.7 603.5,-206.7 599.53,-207.1894 603.0596,-203.127 595.5601,-207.6787 595.5601,-207.6787"/>
<ellipse fill="none" stroke="#000000" cx="592.3841" cy="-208.0702" rx="3.2" ry="3.2"/>
</g>
</g>
</svg>
