<?xml version="1.0" encoding="UTF-8" standalone="no"?>
<!DOCTYPE svg PUBLIC "-//W3C//DTD SVG 1.1//EN"
 "http://www.w3.org/Graphics/SVG/1.1/DTD/svg11.dtd">
<!-- Generated by graphviz version 2.40.1 (20161225.0304)
 -->
<!-- Title: oneDegreeRelationshipsDiagram Pages: 1 -->
<svg width="579pt" height="405pt"
 viewBox="0.00 0.00 579.00 404.70" xmlns="http://www.w3.org/2000/svg" xmlns:xlink="http://www.w3.org/1999/xlink">
<g id="graph0" class="graph" transform="scale(1 1) rotate(0) translate(4 400.7)">
<title>oneDegreeRelationshipsDiagram</title>
<polygon fill="#ffffff" stroke="transparent" points="-4,4 -4,-400.7 575,-400.7 575,4 -4,4"/>
<text text-anchor="middle" x="72.4936" y="-7.3" font-family="Helvetica,sans-Serif" font-size="11.00" fill="#000000">Generated by SchemaSpy</text>
<!-- delivery_status_codes -->
<g id="node1" class="node">
<title>delivery_status_codes</title>
<g id="a_node1"><a xlink:href="../../tables/delivery_status_codes.html" xlink:title="delivery_status_codes" target="_top">
<polygon fill="#ffffff" stroke="transparent" points="168,-192.7 168,-392.7 413,-392.7 413,-192.7 168,-192.7"/>
<polygon fill="#f5f5f5" stroke="transparent" points="170.5,-367.7 170.5,-390.7 411.5,-390.7 411.5,-367.7 170.5,-367.7"/>
<polygon fill="none" stroke="#000000" points="170.5,-367.7 170.5,-390.7 411.5,-390.7 411.5,-367.7 170.5,-367.7"/>
<text text-anchor="start" x="175.5" y="-376.3" font-family="Helvetica,sans-Serif" font-weight="bold" font-size="11.00" fill="#000000">delivery_status_codes</text>
<text text-anchor="start" x="376.5437" y="-375.8" font-family="Helvetica,sans-Serif" font-size="11.00" fill="#000000">[table]</text>
<polygon fill="none" stroke="#000000" points="170.5,-345.7 170.5,-367.7 319.5,-367.7 319.5,-345.7 170.5,-345.7"/>
<image xlink:href="../../images/primaryKeys.png" width="11px" height="12px" preserveAspectRatio="xMinYMin meet" x="175.5" y="-362.7"/>
<text text-anchor="start" x="190.5" y="-352.8" font-family="Helvetica,sans-Serif" font-size="11.00" fill="#000000">status_code</text>
<polygon fill="none" stroke="#000000" points="319.5,-345.7 319.5,-367.7 411.5,-367.7 411.5,-345.7 319.5,-345.7"/>
<text text-anchor="start" x="322.5" y="-353.4" font-family="Helvetica,sans-Serif" font-size="11.00" fill="#000000">varchar[50]</text>
<polygon fill="none" stroke="#000000" points="170.5,-323.7 170.5,-345.7 319.5,-345.7 319.5,-323.7 170.5,-323.7"/>
<text text-anchor="start" x="190.5" y="-330.8" font-family="Helvetica,sans-Serif" font-size="11.00" fill="#000000">description</text>
<polygon fill="none" stroke="#000000" points="319.5,-323.7 319.5,-345.7 411.5,-345.7 411.5,-323.7 319.5,-323.7"/>
<text text-anchor="start" x="322.5" y="-331.4" font-family="Helvetica,sans-Serif" font-size="11.00" fill="#000000">varchar[200]</text>
<polygon fill="none" stroke="#000000" points="170.5,-301.7 170.5,-323.7 319.5,-323.7 319.5,-301.7 170.5,-301.7"/>
<text text-anchor="start" x="190.5" y="-308.8" font-family="Helvetica,sans-Serif" font-size="11.00" fill="#000000">is_active</text>
<polygon fill="none" stroke="#000000" points="319.5,-301.7 319.5,-323.7 411.5,-323.7 411.5,-301.7 319.5,-301.7"/>
<text text-anchor="start" x="322.5" y="-309.4" font-family="Helvetica,sans-Serif" font-size="11.00" fill="#000000">bool[1]</text>
<polygon fill="none" stroke="#000000" points="170.5,-279.7 170.5,-301.7 319.5,-301.7 319.5,-279.7 170.5,-279.7"/>
<text text-anchor="start" x="190.5" y="-286.8" font-family="Helvetica,sans-Serif" font-size="11.00" fill="#000000">created_at</text>
<polygon fill="none" stroke="#000000" points="319.5,-279.7 319.5,-301.7 411.5,-301.7 411.5,-279.7 319.5,-279.7"/>
<text text-anchor="start" x="322.1023" y="-287.4" font-family="Helvetica,sans-Serif" font-size="11.00" fill="#000000">timestamptz[35,6]</text>
<polygon fill="none" stroke="#000000" points="170.5,-257.7 170.5,-279.7 319.5,-279.7 319.5,-257.7 170.5,-257.7"/>
<text text-anchor="start" x="190.5" y="-264.8" font-family="Helvetica,sans-Serif" font-size="11.00" fill="#000000">updated_at</text>
<polygon fill="none" stroke="#000000" points="319.5,-257.7 319.5,-279.7 411.5,-279.7 411.5,-257.7 319.5,-257.7"/>
<text text-anchor="start" x="322.1023" y="-265.4" font-family="Helvetica,sans-Serif" font-size="11.00" fill="#000000">timestamptz[35,6]</text>
<polygon fill="none" stroke="#000000" points="170.5,-235.7 170.5,-257.7 319.5,-257.7 319.5,-235.7 170.5,-235.7"/>
<image xlink:href="../../images/foreignKeys.png" width="11px" height="12px" preserveAspectRatio="xMinYMin meet" x="175.5" y="-252.7"/>
<text text-anchor="start" x="190.5" y="-242.8" font-family="Helvetica,sans-Serif" font-size="11.00" fill="#000000">created_by</text>
<polygon fill="none" stroke="#000000" points="319.5,-235.7 319.5,-257.7 411.5,-257.7 411.5,-235.7 319.5,-235.7"/>
<text text-anchor="start" x="322.5" y="-243.4" font-family="Helvetica,sans-Serif" font-size="11.00" fill="#000000">int8[19]</text>
<polygon fill="none" stroke="#000000" points="170.5,-213.7 170.5,-235.7 319.5,-235.7 319.5,-213.7 170.5,-213.7"/>
<image xlink:href="../../images/foreignKeys.png" width="11px" height="12px" preserveAspectRatio="xMinYMin meet" x="175.5" y="-230.7"/>
<text text-anchor="start" x="190.5" y="-220.8" font-family="Helvetica,sans-Serif" font-size="11.00" fill="#000000">updated_by</text>
<polygon fill="none" stroke="#000000" points="319.5,-213.7 319.5,-235.7 411.5,-235.7 411.5,-213.7 319.5,-213.7"/>
<text text-anchor="start" x="322.5" y="-221.4" font-family="Helvetica,sans-Serif" font-size="11.00" fill="#000000">int8[19]</text>
<polygon fill="#ffffff" stroke="transparent" points="170.5,-194.7 170.5,-213.7 249.5,-213.7 249.5,-194.7 170.5,-194.7"/>
<polygon fill="none" stroke="#000000" points="170.5,-194.7 170.5,-213.7 249.5,-213.7 249.5,-194.7 170.5,-194.7"/>
<text text-anchor="start" x="173.5" y="-200.8" font-family="Helvetica,sans-Serif" font-size="11.00" fill="#000000">&lt; 2</text>
<polygon fill="#ffffff" stroke="transparent" points="249.5,-194.7 249.5,-213.7 319.5,-213.7 319.5,-194.7 249.5,-194.7"/>
<polygon fill="none" stroke="#000000" points="249.5,-194.7 249.5,-213.7 319.5,-213.7 319.5,-194.7 249.5,-194.7"/>
<text text-anchor="start" x="310.3862" y="-200.8" font-family="Helvetica,sans-Serif" font-size="11.00" fill="#000000"> &#160;</text>
<polygon fill="#ffffff" stroke="transparent" points="319.5,-194.7 319.5,-213.7 411.5,-213.7 411.5,-194.7 319.5,-194.7"/>
<polygon fill="none" stroke="#000000" points="319.5,-194.7 319.5,-213.7 411.5,-213.7 411.5,-194.7 319.5,-194.7"/>
<text text-anchor="start" x="392.9053" y="-200.8" font-family="Helvetica,sans-Serif" font-size="11.00" fill="#000000">1 &gt;</text>
<polygon fill="none" stroke="#000000" stroke-width="2" points="169,-193.7 169,-391.7 412,-391.7 412,-193.7 169,-193.7"/>
</a>
</g>
</g>
<!-- users -->
<g id="node2" class="node">
<title>users</title>
<g id="a_node2"><a xlink:href="../../tables/users.html" xlink:title="users" target="_top">
<polygon fill="#ffffff" stroke="transparent" points="8,-38.2 8,-231.2 119,-231.2 119,-38.2 8,-38.2"/>
<polygon fill="#f5f5f5" stroke="transparent" points="8.5,-207.7 8.5,-230.7 119.5,-230.7 119.5,-207.7 8.5,-207.7"/>
<polygon fill="none" stroke="#000000" points="8.5,-207.7 8.5,-230.7 119.5,-230.7 119.5,-207.7 8.5,-207.7"/>
<text text-anchor="start" x="13.5" y="-216.3" font-family="Helvetica,sans-Serif" font-weight="bold" font-size="11.00" fill="#000000">users</text>
<text text-anchor="start" x="84.5437" y="-215.8" font-family="Helvetica,sans-Serif" font-size="11.00" fill="#000000">[table]</text>
<polygon fill="none" stroke="#000000" points="8.5,-185.7 8.5,-207.7 119.5,-207.7 119.5,-185.7 8.5,-185.7"/>
<image xlink:href="../../images/primaryKeys.png" width="11px" height="12px" preserveAspectRatio="xMinYMin meet" x="13.5" y="-202.7"/>
<text text-anchor="start" x="28.5" y="-192.8" font-family="Helvetica,sans-Serif" font-size="11.00" fill="#000000">id</text>
<polygon fill="#ffffff" stroke="transparent" points="8.5,-163.7 8.5,-185.7 119.5,-185.7 119.5,-163.7 8.5,-163.7"/>
<polygon fill="none" stroke="#000000" points="8.5,-163.7 8.5,-185.7 119.5,-185.7 119.5,-163.7 8.5,-163.7"/>
<text text-anchor="start" x="28.5" y="-170.8" font-family="Helvetica,sans-Serif" font-size="11.00" fill="#000000">username</text>
<polygon fill="#ffffff" stroke="transparent" points="8.5,-141.7 8.5,-163.7 119.5,-163.7 119.5,-141.7 8.5,-141.7"/>
<polygon fill="none" stroke="#000000" points="8.5,-141.7 8.5,-163.7 119.5,-163.7 119.5,-141.7 8.5,-141.7"/>
<text text-anchor="start" x="28.5" y="-148.8" font-family="Helvetica,sans-Serif" font-size="11.00" fill="#000000">email</text>
<polygon fill="#ffffff" stroke="transparent" points="8.5,-119.7 8.5,-141.7 119.5,-141.7 119.5,-119.7 8.5,-119.7"/>
<polygon fill="none" stroke="#000000" points="8.5,-119.7 8.5,-141.7 119.5,-141.7 119.5,-119.7 8.5,-119.7"/>
<image xlink:href="../../images/foreignKeys.png" width="11px" height="12px" preserveAspectRatio="xMinYMin meet" x="13.5" y="-136.7"/>
<text text-anchor="start" x="28.5" y="-126.8" font-family="Helvetica,sans-Serif" font-size="11.00" fill="#000000">department_id</text>
<polygon fill="none" stroke="#000000" points="8.5,-97.7 8.5,-119.7 119.5,-119.7 119.5,-97.7 8.5,-97.7"/>
<image xlink:href="../../images/foreignKeys.png" width="11px" height="12px" preserveAspectRatio="xMinYMin meet" x="13.5" y="-114.7"/>
<text text-anchor="start" x="28.5" y="-104.8" font-family="Helvetica,sans-Serif" font-size="11.00" fill="#000000">created_by</text>
<polygon fill="none" stroke="#000000" points="8.5,-75.7 8.5,-97.7 119.5,-97.7 119.5,-75.7 8.5,-75.7"/>
<image xlink:href="../../images/foreignKeys.png" width="11px" height="12px" preserveAspectRatio="xMinYMin meet" x="13.5" y="-92.7"/>
<text text-anchor="start" x="28.5" y="-82.8" font-family="Helvetica,sans-Serif" font-size="11.00" fill="#000000">updated_by</text>
<polygon fill="none" stroke="#000000" points="8.5,-56.7 8.5,-75.7 119.5,-75.7 119.5,-56.7 8.5,-56.7"/>
<text text-anchor="start" x="11.5" y="-62.8" font-family="Helvetica,sans-Serif" font-size="11.00" fill="#000000">...</text>
<polygon fill="#ffffff" stroke="transparent" points="8.5,-37.7 8.5,-56.7 38.5,-56.7 38.5,-37.7 8.5,-37.7"/>
<polygon fill="none" stroke="#000000" points="8.5,-37.7 8.5,-56.7 38.5,-56.7 38.5,-37.7 8.5,-37.7"/>
<text text-anchor="start" x="11.5" y="-43.8" font-family="Helvetica,sans-Serif" font-size="11.00" fill="#000000">&lt; 3</text>
<polygon fill="#ffffff" stroke="transparent" points="38.5,-37.7 38.5,-56.7 87.5,-56.7 87.5,-37.7 38.5,-37.7"/>
<polygon fill="none" stroke="#000000" points="38.5,-37.7 38.5,-56.7 87.5,-56.7 87.5,-37.7 38.5,-37.7"/>
<text text-anchor="start" x="45.9956" y="-43.8" font-family="Helvetica,sans-Serif" font-size="11.00" fill="#000000">10 rows</text>
<polygon fill="#ffffff" stroke="transparent" points="87.5,-37.7 87.5,-56.7 119.5,-56.7 119.5,-37.7 87.5,-37.7"/>
<polygon fill="none" stroke="#000000" points="87.5,-37.7 87.5,-56.7 119.5,-56.7 119.5,-37.7 87.5,-37.7"/>
<text text-anchor="start" x="94.7904" y="-43.8" font-family="Helvetica,sans-Serif" font-size="11.00" fill="#000000">66 &gt;</text>
</a>
</g>
</g>
<!-- delivery_status_codes&#45;&gt;users -->
<g id="edge1" class="edge">
<title>delivery_status_codes:w&#45;&gt;users:e</title>
<path fill="none" stroke="#000000" d="M156.7263,-242.0857C141.8844,-229.7078 145.291,-196.7 119.5,-196.7"/>
<polygon fill="#000000" stroke="#000000" points="162.9143,-244.1587 169.3564,-250.1135 166.7072,-245.4294 170.5,-246.7 170.5,-246.7 170.5,-246.7 166.7072,-245.4294 171.6436,-243.2865 162.9143,-244.1587 162.9143,-244.1587"/>
<ellipse fill="none" stroke="#000000" cx="159.8801" cy="-243.1422" rx="3.2" ry="3.2"/>
</g>
<!-- delivery_status_codes&#45;&gt;users -->
<g id="edge2" class="edge">
<title>delivery_status_codes:w&#45;&gt;users:e</title>
<path fill="none" stroke="#000000" d="M156.3987,-221.0395C143.6024,-213.4498 139.4996,-196.7 119.5,-196.7"/>
<polygon fill="#000000" stroke="#000000" points="162.7566,-222.6899 169.5954,-228.1845 166.6283,-223.6949 170.5,-224.7 170.5,-224.7 170.5,-224.7 166.6283,-223.6949 171.4046,-221.2155 162.7566,-222.6899 162.7566,-222.6899"/>
<ellipse fill="none" stroke="#000000" cx="159.6593" cy="-221.8858" rx="3.2" ry="3.2"/>
</g>
<!-- events_log -->
<g id="node3" class="node">
<title>events_log</title>
<g id="a_node3"><a xlink:href="../../tables/events_log.html" xlink:title="events_log" target="_top">
<polygon fill="#ffffff" stroke="transparent" points="462,-98.2 462,-335.2 563,-335.2 563,-98.2 462,-98.2"/>
<polygon fill="#f5f5f5" stroke="transparent" points="462.5,-311.7 462.5,-334.7 563.5,-334.7 563.5,-311.7 462.5,-311.7"/>
<polygon fill="none" stroke="#000000" points="462.5,-311.7 462.5,-334.7 563.5,-334.7 563.5,-311.7 462.5,-311.7"/>
<text text-anchor="start" x="467.5" y="-320.3" font-family="Helvetica,sans-Serif" font-weight="bold" font-size="11.00" fill="#000000">events_log</text>
<text text-anchor="start" x="529.0219" y="-319.8" font-family="Helvetica,sans-Serif" font-size="11.00" fill="#000000">[table]</text>
<polygon fill="none" stroke="#000000" points="462.5,-289.7 462.5,-311.7 563.5,-311.7 563.5,-289.7 462.5,-289.7"/>
<image xlink:href="../../images/primaryKeys.png" width="11px" height="12px" preserveAspectRatio="xMinYMin meet" x="467.5" y="-306.7"/>
<text text-anchor="start" x="487.5" y="-296.8" font-family="Helvetica,sans-Serif" font-size="11.00" fill="#000000">event_id</text>
<polygon fill="#ffffff" stroke="transparent" points="462.5,-267.7 462.5,-289.7 563.5,-289.7 563.5,-267.7 462.5,-267.7"/>
<polygon fill="none" stroke="#000000" points="462.5,-267.7 462.5,-289.7 563.5,-289.7 563.5,-267.7 462.5,-267.7"/>
<text text-anchor="start" x="487.5" y="-274.8" font-family="Helvetica,sans-Serif" font-size="11.00" fill="#000000">entity_type</text>
<polygon fill="#ffffff" stroke="transparent" points="462.5,-245.7 462.5,-267.7 563.5,-267.7 563.5,-245.7 462.5,-245.7"/>
<polygon fill="none" stroke="#000000" points="462.5,-245.7 462.5,-267.7 563.5,-267.7 563.5,-245.7 462.5,-245.7"/>
<text text-anchor="start" x="487.5" y="-252.8" font-family="Helvetica,sans-Serif" font-size="11.00" fill="#000000">entity_id</text>
<polygon fill="#ffffff" stroke="transparent" points="462.5,-223.7 462.5,-245.7 563.5,-245.7 563.5,-223.7 462.5,-223.7"/>
<polygon fill="none" stroke="#000000" points="462.5,-223.7 462.5,-245.7 563.5,-245.7 563.5,-223.7 462.5,-223.7"/>
<text text-anchor="start" x="487.5" y="-230.8" font-family="Helvetica,sans-Serif" font-size="11.00" fill="#000000">event_time</text>
<polygon fill="none" stroke="#000000" points="462.5,-201.7 462.5,-223.7 563.5,-223.7 563.5,-201.7 462.5,-201.7"/>
<image xlink:href="../../images/foreignKeys.png" width="11px" height="12px" preserveAspectRatio="xMinYMin meet" x="467.5" y="-218.7"/>
<text text-anchor="start" x="487.5" y="-208.8" font-family="Helvetica,sans-Serif" font-size="11.00" fill="#000000">location_id</text>
<polygon fill="none" stroke="#000000" points="462.5,-179.7 462.5,-201.7 563.5,-201.7 563.5,-179.7 462.5,-179.7"/>
<image xlink:href="../../images/foreignKeys.png" width="11px" height="12px" preserveAspectRatio="xMinYMin meet" x="467.5" y="-196.7"/>
<text text-anchor="start" x="487.5" y="-186.8" font-family="Helvetica,sans-Serif" font-size="11.00" fill="#000000">status_code</text>
<polygon fill="none" stroke="#000000" points="462.5,-157.7 462.5,-179.7 563.5,-179.7 563.5,-157.7 462.5,-157.7"/>
<image xlink:href="../../images/foreignKeys.png" width="11px" height="12px" preserveAspectRatio="xMinYMin meet" x="467.5" y="-174.7"/>
<text text-anchor="start" x="487.5" y="-164.8" font-family="Helvetica,sans-Serif" font-size="11.00" fill="#000000">created_by</text>
<polygon fill="none" stroke="#000000" points="462.5,-135.7 462.5,-157.7 563.5,-157.7 563.5,-135.7 462.5,-135.7"/>
<image xlink:href="../../images/foreignKeys.png" width="11px" height="12px" preserveAspectRatio="xMinYMin meet" x="467.5" y="-152.7"/>
<text text-anchor="start" x="487.5" y="-142.8" font-family="Helvetica,sans-Serif" font-size="11.00" fill="#000000">updated_by</text>
<polygon fill="none" stroke="#000000" points="462.5,-116.7 462.5,-135.7 563.5,-135.7 563.5,-116.7 462.5,-116.7"/>
<text text-anchor="start" x="465.5" y="-122.8" font-family="Helvetica,sans-Serif" font-size="11.00" fill="#000000">...</text>
<polygon fill="#ffffff" stroke="transparent" points="462.5,-97.7 462.5,-116.7 511.5,-116.7 511.5,-97.7 462.5,-97.7"/>
<polygon fill="none" stroke="#000000" points="462.5,-97.7 462.5,-116.7 511.5,-116.7 511.5,-97.7 462.5,-97.7"/>
<text text-anchor="start" x="465.5" y="-103.8" font-family="Helvetica,sans-Serif" font-size="11.00" fill="#000000">&lt; 4</text>
<polygon fill="#ffffff" stroke="transparent" points="511.5,-97.7 511.5,-116.7 537.5,-116.7 537.5,-97.7 511.5,-97.7"/>
<polygon fill="none" stroke="#000000" points="511.5,-97.7 511.5,-116.7 537.5,-116.7 537.5,-97.7 511.5,-97.7"/>
<text text-anchor="start" x="528.3862" y="-103.8" font-family="Helvetica,sans-Serif" font-size="11.00" fill="#000000"> &#160;</text>
<polygon fill="#ffffff" stroke="transparent" points="537.5,-97.7 537.5,-116.7 563.5,-116.7 563.5,-97.7 537.5,-97.7"/>
<polygon fill="none" stroke="#000000" points="537.5,-97.7 537.5,-116.7 563.5,-116.7 563.5,-97.7 537.5,-97.7"/>
<text text-anchor="start" x="554.3862" y="-103.8" font-family="Helvetica,sans-Serif" font-size="11.00" fill="#000000"> &#160;</text>
</a>
</g>
</g>
<!-- events_log&#45;&gt;delivery_status_codes -->
<g id="edge4" class="edge">
<title>events_log:w&#45;&gt;delivery_status_codes:e</title>
<path fill="none" stroke="#000000" d="M448.151,-193.3075C399.6671,-214.4262 482.9529,-356.7 411.5,-356.7"/>
<polygon fill="#000000" stroke="#000000" points="454.6289,-192.1304 463.1437,-194.242 458.5645,-191.4152 462.5,-190.7 462.5,-190.7 462.5,-190.7 458.5645,-191.4152 461.8563,-187.158 454.6289,-192.1304 454.6289,-192.1304"/>
<ellipse fill="none" stroke="#000000" cx="451.4805" cy="-192.7025" rx="3.2" ry="3.2"/>
</g>
<!-- events_log&#45;&gt;users -->
<g id="edge3" class="edge">
<title>events_log:w&#45;&gt;users:e</title>
<path fill="none" stroke="#000000" d="M447.916,-168.6466C325.1265,-167.7474 287.022,-156.1064 160,-181.7 141.1833,-185.4914 138.6949,-196.7 119.5,-196.7"/>
<polygon fill="#000000" stroke="#000000" points="454.5001,-168.6707 462.4868,-172.3 458.5,-168.6853 462.5,-168.7 462.5,-168.7 462.5,-168.7 458.5,-168.6853 462.5132,-165.1 454.5001,-168.6707 454.5001,-168.6707"/>
<ellipse fill="none" stroke="#000000" cx="451.3001" cy="-168.6589" rx="3.2" ry="3.2"/>
</g>
<!-- events_log&#45;&gt;users -->
<g id="edge5" class="edge">
<title>events_log:w&#45;&gt;users:e</title>
<path fill="none" stroke="#000000" d="M447.8828,-146.568C324.5906,-144.336 280.5987,-115.1446 160,-162.7 138.1364,-171.3214 143.002,-196.7 119.5,-196.7"/>
<polygon fill="#000000" stroke="#000000" points="454.5003,-146.6277 462.4675,-150.2999 458.5002,-146.6639 462.5,-146.7 462.5,-146.7 462.5,-146.7 458.5002,-146.6639 462.5325,-143.1001 454.5003,-146.6277 454.5003,-146.6277"/>
<ellipse fill="none" stroke="#000000" cx="451.3005" cy="-146.5988" rx="3.2" ry="3.2"/>
</g>
</g>
</svg>
