<?xml version="1.0" encoding="UTF-8" standalone="no"?>
<!DOCTYPE svg PUBLIC "-//W3C//DTD SVG 1.1//EN"
 "http://www.w3.org/Graphics/SVG/1.1/DTD/svg11.dtd">
<!-- Generated by graphviz version 2.40.1 (20161225.0304)
 -->
<!-- Title: oneDegreeRelationshipsDiagram Pages: 1 -->
<svg width="539pt" height="481pt"
 viewBox="0.00 0.00 539.00 480.70" xmlns="http://www.w3.org/2000/svg" xmlns:xlink="http://www.w3.org/1999/xlink">
<g id="graph0" class="graph" transform="scale(1 1) rotate(0) translate(4 476.7)">
<title>oneDegreeRelationshipsDiagram</title>
<polygon fill="#ffffff" stroke="transparent" points="-4,4 -4,-476.7 535,-476.7 535,4 -4,4"/>
<text text-anchor="middle" x="72.4936" y="-7.3" font-family="Helvetica,sans-Serif" font-size="11.00" fill="#000000">Generated by SchemaSpy</text>
<!-- departments -->
<g id="node1" class="node">
<title>departments</title>
<g id="a_node1"><a xlink:href="../../tables/departments.html" xlink:title="departments" target="_top">
<polygon fill="#ffffff" stroke="transparent" points="168,-38.2 168,-304.2 357,-304.2 357,-38.2 168,-38.2"/>
<polygon fill="#f5f5f5" stroke="transparent" points="170.5,-279.2 170.5,-302.2 355.5,-302.2 355.5,-279.2 170.5,-279.2"/>
<polygon fill="none" stroke="#000000" points="170.5,-279.2 170.5,-302.2 355.5,-302.2 355.5,-279.2 170.5,-279.2"/>
<text text-anchor="start" x="175.5" y="-287.8" font-family="Helvetica,sans-Serif" font-weight="bold" font-size="11.00" fill="#000000">departments</text>
<text text-anchor="start" x="320.5437" y="-287.3" font-family="Helvetica,sans-Serif" font-size="11.00" fill="#000000">[table]</text>
<polygon fill="none" stroke="#000000" points="170.5,-257.2 170.5,-279.2 263.5,-279.2 263.5,-257.2 170.5,-257.2"/>
<image xlink:href="../../images/primaryKeys.png" width="11px" height="12px" preserveAspectRatio="xMinYMin meet" x="175.5" y="-274.2"/>
<text text-anchor="start" x="190.5" y="-264.3" font-family="Helvetica,sans-Serif" font-size="11.00" fill="#000000">id</text>
<polygon fill="none" stroke="#000000" points="263.5,-257.2 263.5,-279.2 355.5,-279.2 355.5,-257.2 263.5,-257.2"/>
<text text-anchor="start" x="266.5" y="-264.9" font-family="Helvetica,sans-Serif" font-size="11.00" fill="#000000">bigserial[19]</text>
<polygon fill="none" stroke="#000000" points="170.5,-235.2 170.5,-257.2 263.5,-257.2 263.5,-235.2 170.5,-235.2"/>
<text text-anchor="start" x="190.5" y="-242.3" font-family="Helvetica,sans-Serif" font-size="11.00" fill="#000000">name</text>
<polygon fill="none" stroke="#000000" points="263.5,-235.2 263.5,-257.2 355.5,-257.2 355.5,-235.2 263.5,-235.2"/>
<text text-anchor="start" x="266.5" y="-242.9" font-family="Helvetica,sans-Serif" font-size="11.00" fill="#000000">varchar[100]</text>
<polygon fill="#ffffff" stroke="transparent" points="170.5,-213.2 170.5,-235.2 263.5,-235.2 263.5,-213.2 170.5,-213.2"/>
<polygon fill="none" stroke="#000000" points="170.5,-213.2 170.5,-235.2 263.5,-235.2 263.5,-213.2 170.5,-213.2"/>
<text text-anchor="start" x="190.5" y="-220.3" font-family="Helvetica,sans-Serif" font-size="11.00" fill="#000000">code</text>
<polygon fill="none" stroke="#000000" points="263.5,-213.2 263.5,-235.2 355.5,-235.2 355.5,-213.2 263.5,-213.2"/>
<text text-anchor="start" x="266.5" y="-220.9" font-family="Helvetica,sans-Serif" font-size="11.00" fill="#000000">varchar[20]</text>
<polygon fill="none" stroke="#000000" points="170.5,-191.2 170.5,-213.2 263.5,-213.2 263.5,-191.2 170.5,-191.2"/>
<image xlink:href="../../images/foreignKeys.png" width="11px" height="12px" preserveAspectRatio="xMinYMin meet" x="175.5" y="-208.2"/>
<text text-anchor="start" x="190.5" y="-198.3" font-family="Helvetica,sans-Serif" font-size="11.00" fill="#000000">parent_id</text>
<polygon fill="none" stroke="#000000" points="263.5,-191.2 263.5,-213.2 355.5,-213.2 355.5,-191.2 263.5,-191.2"/>
<text text-anchor="start" x="266.5" y="-198.9" font-family="Helvetica,sans-Serif" font-size="11.00" fill="#000000">int8[19]</text>
<polygon fill="none" stroke="#000000" points="170.5,-169.2 170.5,-191.2 263.5,-191.2 263.5,-169.2 170.5,-169.2"/>
<text text-anchor="start" x="190.5" y="-176.3" font-family="Helvetica,sans-Serif" font-size="11.00" fill="#000000">manager_id</text>
<polygon fill="none" stroke="#000000" points="263.5,-169.2 263.5,-191.2 355.5,-191.2 355.5,-169.2 263.5,-169.2"/>
<text text-anchor="start" x="266.5" y="-176.9" font-family="Helvetica,sans-Serif" font-size="11.00" fill="#000000">int8[19]</text>
<polygon fill="none" stroke="#000000" points="170.5,-147.2 170.5,-169.2 263.5,-169.2 263.5,-147.2 170.5,-147.2"/>
<text text-anchor="start" x="190.5" y="-154.3" font-family="Helvetica,sans-Serif" font-size="11.00" fill="#000000">description</text>
<polygon fill="none" stroke="#000000" points="263.5,-147.2 263.5,-169.2 355.5,-169.2 355.5,-147.2 263.5,-147.2"/>
<text text-anchor="start" x="266.5" y="-154.9" font-family="Helvetica,sans-Serif" font-size="11.00" fill="#000000">text[2147483647]</text>
<polygon fill="none" stroke="#000000" points="170.5,-125.2 170.5,-147.2 263.5,-147.2 263.5,-125.2 170.5,-125.2"/>
<text text-anchor="start" x="190.5" y="-132.3" font-family="Helvetica,sans-Serif" font-size="11.00" fill="#000000">created_at</text>
<polygon fill="none" stroke="#000000" points="263.5,-125.2 263.5,-147.2 355.5,-147.2 355.5,-125.2 263.5,-125.2"/>
<text text-anchor="start" x="266.1023" y="-132.9" font-family="Helvetica,sans-Serif" font-size="11.00" fill="#000000">timestamptz[35,6]</text>
<polygon fill="none" stroke="#000000" points="170.5,-103.2 170.5,-125.2 263.5,-125.2 263.5,-103.2 170.5,-103.2"/>
<text text-anchor="start" x="190.5" y="-110.3" font-family="Helvetica,sans-Serif" font-size="11.00" fill="#000000">updated_at</text>
<polygon fill="none" stroke="#000000" points="263.5,-103.2 263.5,-125.2 355.5,-125.2 355.5,-103.2 263.5,-103.2"/>
<text text-anchor="start" x="266.1023" y="-110.9" font-family="Helvetica,sans-Serif" font-size="11.00" fill="#000000">timestamptz[35,6]</text>
<polygon fill="none" stroke="#000000" points="170.5,-81.2 170.5,-103.2 263.5,-103.2 263.5,-81.2 170.5,-81.2"/>
<image xlink:href="../../images/foreignKeys.png" width="11px" height="12px" preserveAspectRatio="xMinYMin meet" x="175.5" y="-98.2"/>
<text text-anchor="start" x="190.5" y="-88.3" font-family="Helvetica,sans-Serif" font-size="11.00" fill="#000000">created_by</text>
<polygon fill="none" stroke="#000000" points="263.5,-81.2 263.5,-103.2 355.5,-103.2 355.5,-81.2 263.5,-81.2"/>
<text text-anchor="start" x="266.5" y="-88.9" font-family="Helvetica,sans-Serif" font-size="11.00" fill="#000000">int8[19]</text>
<polygon fill="none" stroke="#000000" points="170.5,-59.2 170.5,-81.2 263.5,-81.2 263.5,-59.2 170.5,-59.2"/>
<image xlink:href="../../images/foreignKeys.png" width="11px" height="12px" preserveAspectRatio="xMinYMin meet" x="175.5" y="-76.2"/>
<text text-anchor="start" x="190.5" y="-66.3" font-family="Helvetica,sans-Serif" font-size="11.00" fill="#000000">updated_by</text>
<polygon fill="none" stroke="#000000" points="263.5,-59.2 263.5,-81.2 355.5,-81.2 355.5,-59.2 263.5,-59.2"/>
<text text-anchor="start" x="266.5" y="-66.9" font-family="Helvetica,sans-Serif" font-size="11.00" fill="#000000">int8[19]</text>
<polygon fill="#ffffff" stroke="transparent" points="170.5,-40.2 170.5,-59.2 205.5,-59.2 205.5,-40.2 170.5,-40.2"/>
<polygon fill="none" stroke="#000000" points="170.5,-40.2 170.5,-59.2 205.5,-59.2 205.5,-40.2 170.5,-40.2"/>
<text text-anchor="start" x="173.5" y="-46.3" font-family="Helvetica,sans-Serif" font-size="11.00" fill="#000000">&lt; 3</text>
<polygon fill="#ffffff" stroke="transparent" points="205.5,-40.2 205.5,-59.2 263.5,-59.2 263.5,-40.2 205.5,-40.2"/>
<polygon fill="none" stroke="#000000" points="205.5,-40.2 205.5,-59.2 263.5,-59.2 263.5,-40.2 205.5,-40.2"/>
<text text-anchor="start" x="221.9956" y="-46.3" font-family="Helvetica,sans-Serif" font-size="11.00" fill="#000000">11 rows</text>
<polygon fill="#ffffff" stroke="transparent" points="263.5,-40.2 263.5,-59.2 355.5,-59.2 355.5,-40.2 263.5,-40.2"/>
<polygon fill="none" stroke="#000000" points="263.5,-40.2 263.5,-59.2 355.5,-59.2 355.5,-40.2 263.5,-40.2"/>
<text text-anchor="start" x="336.9053" y="-46.3" font-family="Helvetica,sans-Serif" font-size="11.00" fill="#000000">3 &gt;</text>
<polygon fill="none" stroke="#000000" stroke-width="2" points="169,-39.2 169,-303.2 356,-303.2 356,-39.2 169,-39.2"/>
</a>
</g>
</g>
<!-- departments&#45;&gt;departments -->
<g id="edge2" class="edge">
<title>departments:w&#45;&gt;departments:e</title>
<path fill="none" stroke="#000000" d="M160.8249,-212.9981C121.702,-261.562 130.9844,-321.2 263,-321.2 405,-321.2 405,-312.5333 355.5,-268.2"/>
<polygon fill="#000000" stroke="#000000" points="165.1614,-208.1582 173.1812,-204.6024 167.8307,-205.1791 170.5,-202.2 170.5,-202.2 170.5,-202.2 167.8307,-205.1791 167.8188,-199.7976 165.1614,-208.1582 165.1614,-208.1582"/>
<ellipse fill="none" stroke="#000000" cx="163.026" cy="-210.5415" rx="3.2" ry="3.2"/>
</g>
<!-- users -->
<g id="node2" class="node">
<title>users</title>
<g id="a_node2"><a xlink:href="../../tables/users.html" xlink:title="users" target="_top">
<polygon fill="#ffffff" stroke="transparent" points="8,-175.7 8,-368.7 119,-368.7 119,-175.7 8,-175.7"/>
<polygon fill="#f5f5f5" stroke="transparent" points="8.5,-345.2 8.5,-368.2 119.5,-368.2 119.5,-345.2 8.5,-345.2"/>
<polygon fill="none" stroke="#000000" points="8.5,-345.2 8.5,-368.2 119.5,-368.2 119.5,-345.2 8.5,-345.2"/>
<text text-anchor="start" x="13.5" y="-353.8" font-family="Helvetica,sans-Serif" font-weight="bold" font-size="11.00" fill="#000000">users</text>
<text text-anchor="start" x="84.5437" y="-353.3" font-family="Helvetica,sans-Serif" font-size="11.00" fill="#000000">[table]</text>
<polygon fill="none" stroke="#000000" points="8.5,-323.2 8.5,-345.2 119.5,-345.2 119.5,-323.2 8.5,-323.2"/>
<image xlink:href="../../images/primaryKeys.png" width="11px" height="12px" preserveAspectRatio="xMinYMin meet" x="13.5" y="-340.2"/>
<text text-anchor="start" x="28.5" y="-330.3" font-family="Helvetica,sans-Serif" font-size="11.00" fill="#000000">id</text>
<polygon fill="#ffffff" stroke="transparent" points="8.5,-301.2 8.5,-323.2 119.5,-323.2 119.5,-301.2 8.5,-301.2"/>
<polygon fill="none" stroke="#000000" points="8.5,-301.2 8.5,-323.2 119.5,-323.2 119.5,-301.2 8.5,-301.2"/>
<text text-anchor="start" x="28.5" y="-308.3" font-family="Helvetica,sans-Serif" font-size="11.00" fill="#000000">username</text>
<polygon fill="#ffffff" stroke="transparent" points="8.5,-279.2 8.5,-301.2 119.5,-301.2 119.5,-279.2 8.5,-279.2"/>
<polygon fill="none" stroke="#000000" points="8.5,-279.2 8.5,-301.2 119.5,-301.2 119.5,-279.2 8.5,-279.2"/>
<text text-anchor="start" x="28.5" y="-286.3" font-family="Helvetica,sans-Serif" font-size="11.00" fill="#000000">email</text>
<polygon fill="#ffffff" stroke="transparent" points="8.5,-257.2 8.5,-279.2 119.5,-279.2 119.5,-257.2 8.5,-257.2"/>
<polygon fill="none" stroke="#000000" points="8.5,-257.2 8.5,-279.2 119.5,-279.2 119.5,-257.2 8.5,-257.2"/>
<image xlink:href="../../images/foreignKeys.png" width="11px" height="12px" preserveAspectRatio="xMinYMin meet" x="13.5" y="-274.2"/>
<text text-anchor="start" x="28.5" y="-264.3" font-family="Helvetica,sans-Serif" font-size="11.00" fill="#000000">department_id</text>
<polygon fill="none" stroke="#000000" points="8.5,-235.2 8.5,-257.2 119.5,-257.2 119.5,-235.2 8.5,-235.2"/>
<image xlink:href="../../images/foreignKeys.png" width="11px" height="12px" preserveAspectRatio="xMinYMin meet" x="13.5" y="-252.2"/>
<text text-anchor="start" x="28.5" y="-242.3" font-family="Helvetica,sans-Serif" font-size="11.00" fill="#000000">created_by</text>
<polygon fill="none" stroke="#000000" points="8.5,-213.2 8.5,-235.2 119.5,-235.2 119.5,-213.2 8.5,-213.2"/>
<image xlink:href="../../images/foreignKeys.png" width="11px" height="12px" preserveAspectRatio="xMinYMin meet" x="13.5" y="-230.2"/>
<text text-anchor="start" x="28.5" y="-220.3" font-family="Helvetica,sans-Serif" font-size="11.00" fill="#000000">updated_by</text>
<polygon fill="none" stroke="#000000" points="8.5,-194.2 8.5,-213.2 119.5,-213.2 119.5,-194.2 8.5,-194.2"/>
<text text-anchor="start" x="11.5" y="-200.3" font-family="Helvetica,sans-Serif" font-size="11.00" fill="#000000">...</text>
<polygon fill="#ffffff" stroke="transparent" points="8.5,-175.2 8.5,-194.2 38.5,-194.2 38.5,-175.2 8.5,-175.2"/>
<polygon fill="none" stroke="#000000" points="8.5,-175.2 8.5,-194.2 38.5,-194.2 38.5,-175.2 8.5,-175.2"/>
<text text-anchor="start" x="11.5" y="-181.3" font-family="Helvetica,sans-Serif" font-size="11.00" fill="#000000">&lt; 3</text>
<polygon fill="#ffffff" stroke="transparent" points="38.5,-175.2 38.5,-194.2 87.5,-194.2 87.5,-175.2 38.5,-175.2"/>
<polygon fill="none" stroke="#000000" points="38.5,-175.2 38.5,-194.2 87.5,-194.2 87.5,-175.2 38.5,-175.2"/>
<text text-anchor="start" x="45.9956" y="-181.3" font-family="Helvetica,sans-Serif" font-size="11.00" fill="#000000">10 rows</text>
<polygon fill="#ffffff" stroke="transparent" points="87.5,-175.2 87.5,-194.2 119.5,-194.2 119.5,-175.2 87.5,-175.2"/>
<polygon fill="none" stroke="#000000" points="87.5,-175.2 87.5,-194.2 119.5,-194.2 119.5,-175.2 87.5,-175.2"/>
<text text-anchor="start" x="94.7904" y="-181.3" font-family="Helvetica,sans-Serif" font-size="11.00" fill="#000000">66 &gt;</text>
</a>
</g>
</g>
<!-- departments&#45;&gt;users -->
<g id="edge1" class="edge">
<title>departments:w&#45;&gt;users:e</title>
<path fill="none" stroke="#000000" d="M155.8382,-94.0088C77.0105,-116.1541 223.8363,-334.2 119.5,-334.2"/>
<polygon fill="#000000" stroke="#000000" points="162.5602,-93.1796 170.9408,-95.7729 166.5301,-92.6898 170.5,-92.2 170.5,-92.2 170.5,-92.2 166.5301,-92.6898 170.0592,-88.6271 162.5602,-93.1796 162.5602,-93.1796"/>
<ellipse fill="none" stroke="#000000" cx="159.3843" cy="-93.5714" rx="3.2" ry="3.2"/>
</g>
<!-- departments&#45;&gt;users -->
<g id="edge3" class="edge">
<title>departments:w&#45;&gt;users:e</title>
<path fill="none" stroke="#000000" d="M155.929,-71.8174C67.6078,-93.8782 233.5177,-334.2 119.5,-334.2"/>
<polygon fill="#000000" stroke="#000000" points="162.5488,-71.0827 170.8972,-73.778 166.5244,-70.6413 170.5,-70.2 170.5,-70.2 170.5,-70.2 166.5244,-70.6413 170.1028,-66.622 162.5488,-71.0827 162.5488,-71.0827"/>
<ellipse fill="none" stroke="#000000" cx="159.3684" cy="-71.4357" rx="3.2" ry="3.2"/>
</g>
<!-- users&#45;&gt;departments -->
<g id="edge7" class="edge">
<title>users:w&#45;&gt;departments:e</title>
<path fill="none" stroke="#000000" d="M19.8623,-258.9472C49.5219,-234.794 127,-171.7 127,-171.7 127,-171.7 355.5,-268.2 355.5,-268.2"/>
<polygon fill="#000000" stroke="#000000" points="14.7033,-263.1483 6.2268,-265.4085 11.6017,-265.6742 8.5,-268.2 8.5,-268.2 8.5,-268.2 11.6017,-265.6742 10.7732,-270.9915 14.7033,-263.1483 14.7033,-263.1483"/>
<ellipse fill="none" stroke="#000000" cx="17.1846" cy="-261.1277" rx="3.2" ry="3.2"/>
</g>
<!-- trailers -->
<g id="node3" class="node">
<title>trailers</title>
<g id="a_node3"><a xlink:href="../../tables/trailers.html" xlink:title="trailers" target="_top">
<polygon fill="#ffffff" stroke="transparent" points="406,-297.7 406,-468.7 523,-468.7 523,-297.7 406,-297.7"/>
<polygon fill="#f5f5f5" stroke="transparent" points="406.5,-445.2 406.5,-468.2 523.5,-468.2 523.5,-445.2 406.5,-445.2"/>
<polygon fill="none" stroke="#000000" points="406.5,-445.2 406.5,-468.2 523.5,-468.2 523.5,-445.2 406.5,-445.2"/>
<text text-anchor="start" x="411.5" y="-453.8" font-family="Helvetica,sans-Serif" font-weight="bold" font-size="11.00" fill="#000000">trailers</text>
<text text-anchor="start" x="488.5437" y="-453.3" font-family="Helvetica,sans-Serif" font-size="11.00" fill="#000000">[table]</text>
<polygon fill="none" stroke="#000000" points="406.5,-423.2 406.5,-445.2 523.5,-445.2 523.5,-423.2 406.5,-423.2"/>
<image xlink:href="../../images/primaryKeys.png" width="11px" height="12px" preserveAspectRatio="xMinYMin meet" x="411.5" y="-440.2"/>
<text text-anchor="start" x="426.5" y="-430.3" font-family="Helvetica,sans-Serif" font-size="11.00" fill="#000000">trailer_id</text>
<polygon fill="none" stroke="#000000" points="406.5,-401.2 406.5,-423.2 523.5,-423.2 523.5,-401.2 406.5,-401.2"/>
<image xlink:href="../../images/foreignKeys.png" width="11px" height="12px" preserveAspectRatio="xMinYMin meet" x="411.5" y="-418.2"/>
<text text-anchor="start" x="426.5" y="-408.3" font-family="Helvetica,sans-Serif" font-size="11.00" fill="#000000">department_id</text>
<polygon fill="#ffffff" stroke="transparent" points="406.5,-379.2 406.5,-401.2 523.5,-401.2 523.5,-379.2 406.5,-379.2"/>
<polygon fill="none" stroke="#000000" points="406.5,-379.2 406.5,-401.2 523.5,-401.2 523.5,-379.2 406.5,-379.2"/>
<text text-anchor="start" x="426.5" y="-386.3" font-family="Helvetica,sans-Serif" font-size="11.00" fill="#000000">trailer_code</text>
<polygon fill="none" stroke="#000000" points="406.5,-357.2 406.5,-379.2 523.5,-379.2 523.5,-357.2 406.5,-357.2"/>
<image xlink:href="../../images/foreignKeys.png" width="11px" height="12px" preserveAspectRatio="xMinYMin meet" x="411.5" y="-374.2"/>
<text text-anchor="start" x="426.5" y="-364.3" font-family="Helvetica,sans-Serif" font-size="11.00" fill="#000000">created_by</text>
<polygon fill="none" stroke="#000000" points="406.5,-335.2 406.5,-357.2 523.5,-357.2 523.5,-335.2 406.5,-335.2"/>
<image xlink:href="../../images/foreignKeys.png" width="11px" height="12px" preserveAspectRatio="xMinYMin meet" x="411.5" y="-352.2"/>
<text text-anchor="start" x="426.5" y="-342.3" font-family="Helvetica,sans-Serif" font-size="11.00" fill="#000000">updated_by</text>
<polygon fill="none" stroke="#000000" points="406.5,-316.2 406.5,-335.2 523.5,-335.2 523.5,-316.2 406.5,-316.2"/>
<text text-anchor="start" x="409.5" y="-322.3" font-family="Helvetica,sans-Serif" font-size="11.00" fill="#000000">...</text>
<polygon fill="#ffffff" stroke="transparent" points="406.5,-297.2 406.5,-316.2 458.5,-316.2 458.5,-297.2 406.5,-297.2"/>
<polygon fill="none" stroke="#000000" points="406.5,-297.2 406.5,-316.2 458.5,-316.2 458.5,-297.2 406.5,-297.2"/>
<text text-anchor="start" x="409.5" y="-303.3" font-family="Helvetica,sans-Serif" font-size="11.00" fill="#000000">&lt; 3</text>
<polygon fill="#ffffff" stroke="transparent" points="458.5,-297.2 458.5,-316.2 486.5,-316.2 486.5,-297.2 458.5,-297.2"/>
<polygon fill="none" stroke="#000000" points="458.5,-297.2 458.5,-316.2 486.5,-316.2 486.5,-297.2 458.5,-297.2"/>
<text text-anchor="start" x="477.3862" y="-303.3" font-family="Helvetica,sans-Serif" font-size="11.00" fill="#000000"> &#160;</text>
<polygon fill="#ffffff" stroke="transparent" points="486.5,-297.2 486.5,-316.2 523.5,-316.2 523.5,-297.2 486.5,-297.2"/>
<polygon fill="none" stroke="#000000" points="486.5,-297.2 486.5,-316.2 523.5,-316.2 523.5,-297.2 486.5,-297.2"/>
<text text-anchor="start" x="504.9053" y="-303.3" font-family="Helvetica,sans-Serif" font-size="11.00" fill="#000000">2 &gt;</text>
</a>
</g>
</g>
<!-- trailers&#45;&gt;departments -->
<g id="edge5" class="edge">
<title>trailers:w&#45;&gt;departments:e</title>
<path fill="none" stroke="#000000" d="M392.1848,-409.1924C352.0504,-388.5135 417.5606,-268.2 355.5,-268.2"/>
<polygon fill="#000000" stroke="#000000" points="398.6709,-410.5551 405.7598,-415.7231 402.5855,-411.3775 406.5,-412.2 406.5,-412.2 406.5,-412.2 402.5855,-411.3775 407.2402,-408.6769 398.6709,-410.5551 398.6709,-410.5551"/>
<ellipse fill="none" stroke="#000000" cx="395.5393" cy="-409.8971" rx="3.2" ry="3.2"/>
</g>
<!-- trailers&#45;&gt;users -->
<g id="edge4" class="edge">
<title>trailers:w&#45;&gt;users:e</title>
<path fill="none" stroke="#000000" d="M391.8781,-368.3049C293.7943,-369.7151 260.7717,-384.4292 160,-356.2 140.2751,-350.6745 139.9843,-334.2 119.5,-334.2"/>
<polygon fill="#000000" stroke="#000000" points="398.5002,-368.2574 406.5258,-371.7999 402.5001,-368.2287 406.5,-368.2 406.5,-368.2 406.5,-368.2 402.5001,-368.2287 406.4742,-364.6001 398.5002,-368.2574 398.5002,-368.2574"/>
<ellipse fill="none" stroke="#000000" cx="395.3003" cy="-368.2804" rx="3.2" ry="3.2"/>
</g>
<!-- trailers&#45;&gt;users -->
<g id="edge6" class="edge">
<title>trailers:w&#45;&gt;users:e</title>
<path fill="none" stroke="#000000" d="M391.967,-346.1465C276.2126,-345.2808 242.18,-334.2 119.5,-334.2"/>
<polygon fill="#000000" stroke="#000000" points="398.5001,-346.1705 406.4867,-349.8 402.5,-346.1852 406.5,-346.2 406.5,-346.2 406.5,-346.2 402.5,-346.1852 406.5133,-342.6 398.5001,-346.1705 398.5001,-346.1705"/>
<ellipse fill="none" stroke="#000000" cx="395.3001" cy="-346.1587" rx="3.2" ry="3.2"/>
</g>
</g>
</svg>
