<?xml version="1.0" encoding="UTF-8" standalone="no"?>
<!DOCTYPE svg PUBLIC "-//W3C//DTD SVG 1.1//EN"
 "http://www.w3.org/Graphics/SVG/1.1/DTD/svg11.dtd">
<!-- Generated by graphviz version 2.40.1 (20161225.0304)
 -->
<!-- Title: oneDegreeRelationshipsDiagram Pages: 1 -->
<svg width="643pt" height="551pt"
 viewBox="0.00 0.00 643.00 550.70" xmlns="http://www.w3.org/2000/svg" xmlns:xlink="http://www.w3.org/1999/xlink">
<g id="graph0" class="graph" transform="scale(1 1) rotate(0) translate(4 546.7)">
<title>oneDegreeRelationshipsDiagram</title>
<polygon fill="#ffffff" stroke="transparent" points="-4,4 -4,-546.7 639,-546.7 639,4 -4,4"/>
<text text-anchor="middle" x="72.4936" y="-7.3" font-family="Helvetica,sans-Serif" font-size="11.00" fill="#000000">Generated by SchemaSpy</text>
<!-- document_links -->
<g id="node1" class="node">
<title>document_links</title>
<g id="a_node1"><a xlink:href="../../tables/document_links.html" xlink:title="document_links" target="_top">
<polygon fill="#ffffff" stroke="transparent" points="168,-38.2 168,-370.2 387,-370.2 387,-38.2 168,-38.2"/>
<polygon fill="#f5f5f5" stroke="transparent" points="170.5,-345.2 170.5,-368.2 385.5,-368.2 385.5,-345.2 170.5,-345.2"/>
<polygon fill="none" stroke="#000000" points="170.5,-345.2 170.5,-368.2 385.5,-368.2 385.5,-345.2 170.5,-345.2"/>
<text text-anchor="start" x="175.5" y="-353.8" font-family="Helvetica,sans-Serif" font-weight="bold" font-size="11.00" fill="#000000">document_links</text>
<text text-anchor="start" x="350.5437" y="-353.3" font-family="Helvetica,sans-Serif" font-size="11.00" fill="#000000">[table]</text>
<polygon fill="none" stroke="#000000" points="170.5,-323.2 170.5,-345.2 286.5,-345.2 286.5,-323.2 170.5,-323.2"/>
<image xlink:href="../../images/primaryKeys.png" width="11px" height="12px" preserveAspectRatio="xMinYMin meet" x="175.5" y="-340.2"/>
<text text-anchor="start" x="190.5" y="-330.3" font-family="Helvetica,sans-Serif" font-size="11.00" fill="#000000">document_id</text>
<polygon fill="none" stroke="#000000" points="286.5,-323.2 286.5,-345.2 385.5,-345.2 385.5,-323.2 286.5,-323.2"/>
<text text-anchor="start" x="289.5" y="-330.9" font-family="Helvetica,sans-Serif" font-size="11.00" fill="#000000">int8[19]</text>
<polygon fill="none" stroke="#000000" points="170.5,-301.2 170.5,-323.2 286.5,-323.2 286.5,-301.2 170.5,-301.2"/>
<text text-anchor="start" x="190.5" y="-308.3" font-family="Helvetica,sans-Serif" font-size="11.00" fill="#000000">entity_type</text>
<polygon fill="none" stroke="#000000" points="286.5,-301.2 286.5,-323.2 385.5,-323.2 385.5,-301.2 286.5,-301.2"/>
<text text-anchor="start" x="289.5" y="-308.9" font-family="Helvetica,sans-Serif" font-size="11.00" fill="#000000">varchar[50]</text>
<polygon fill="none" stroke="#000000" points="170.5,-279.2 170.5,-301.2 286.5,-301.2 286.5,-279.2 170.5,-279.2"/>
<text text-anchor="start" x="190.5" y="-286.3" font-family="Helvetica,sans-Serif" font-size="11.00" fill="#000000">entity_id</text>
<polygon fill="none" stroke="#000000" points="286.5,-279.2 286.5,-301.2 385.5,-301.2 385.5,-279.2 286.5,-279.2"/>
<text text-anchor="start" x="289.5" y="-286.9" font-family="Helvetica,sans-Serif" font-size="11.00" fill="#000000">int8[19]</text>
<polygon fill="none" stroke="#000000" points="170.5,-257.2 170.5,-279.2 286.5,-279.2 286.5,-257.2 170.5,-257.2"/>
<text text-anchor="start" x="190.5" y="-264.3" font-family="Helvetica,sans-Serif" font-size="11.00" fill="#000000">document_type</text>
<polygon fill="none" stroke="#000000" points="286.5,-257.2 286.5,-279.2 385.5,-279.2 385.5,-257.2 286.5,-257.2"/>
<text text-anchor="start" x="289.5" y="-264.9" font-family="Helvetica,sans-Serif" font-size="11.00" fill="#000000">varchar[50]</text>
<polygon fill="none" stroke="#000000" points="170.5,-235.2 170.5,-257.2 286.5,-257.2 286.5,-235.2 170.5,-235.2"/>
<text text-anchor="start" x="190.5" y="-242.3" font-family="Helvetica,sans-Serif" font-size="11.00" fill="#000000">document_name</text>
<polygon fill="none" stroke="#000000" points="286.5,-235.2 286.5,-257.2 385.5,-257.2 385.5,-235.2 286.5,-235.2"/>
<text text-anchor="start" x="289.5" y="-242.9" font-family="Helvetica,sans-Serif" font-size="11.00" fill="#000000">varchar[200]</text>
<polygon fill="none" stroke="#000000" points="170.5,-213.2 170.5,-235.2 286.5,-235.2 286.5,-213.2 170.5,-213.2"/>
<text text-anchor="start" x="190.5" y="-220.3" font-family="Helvetica,sans-Serif" font-size="11.00" fill="#000000">document_url</text>
<polygon fill="none" stroke="#000000" points="286.5,-213.2 286.5,-235.2 385.5,-235.2 385.5,-213.2 286.5,-213.2"/>
<text text-anchor="start" x="289.5" y="-220.9" font-family="Helvetica,sans-Serif" font-size="11.00" fill="#000000">text[2147483647]</text>
<polygon fill="none" stroke="#000000" points="170.5,-191.2 170.5,-213.2 286.5,-213.2 286.5,-191.2 170.5,-191.2"/>
<text text-anchor="start" x="190.5" y="-198.3" font-family="Helvetica,sans-Serif" font-size="11.00" fill="#000000">metadata</text>
<polygon fill="none" stroke="#000000" points="286.5,-191.2 286.5,-213.2 385.5,-213.2 385.5,-191.2 286.5,-191.2"/>
<text text-anchor="start" x="289.2258" y="-198.9" font-family="Helvetica,sans-Serif" font-size="11.00" fill="#000000">jsonb[2147483647]</text>
<polygon fill="none" stroke="#000000" points="170.5,-169.2 170.5,-191.2 286.5,-191.2 286.5,-169.2 170.5,-169.2"/>
<text text-anchor="start" x="190.5" y="-176.3" font-family="Helvetica,sans-Serif" font-size="11.00" fill="#000000">uploaded_at</text>
<polygon fill="none" stroke="#000000" points="286.5,-169.2 286.5,-191.2 385.5,-191.2 385.5,-169.2 286.5,-169.2"/>
<text text-anchor="start" x="289.5" y="-176.9" font-family="Helvetica,sans-Serif" font-size="11.00" fill="#000000">timestamptz[35,6]</text>
<polygon fill="none" stroke="#000000" points="170.5,-147.2 170.5,-169.2 286.5,-169.2 286.5,-147.2 170.5,-147.2"/>
<image xlink:href="../../images/foreignKeys.png" width="11px" height="12px" preserveAspectRatio="xMinYMin meet" x="175.5" y="-164.2"/>
<text text-anchor="start" x="190.5" y="-154.3" font-family="Helvetica,sans-Serif" font-size="11.00" fill="#000000">uploaded_by</text>
<polygon fill="none" stroke="#000000" points="286.5,-147.2 286.5,-169.2 385.5,-169.2 385.5,-147.2 286.5,-147.2"/>
<text text-anchor="start" x="289.5" y="-154.9" font-family="Helvetica,sans-Serif" font-size="11.00" fill="#000000">int8[19]</text>
<polygon fill="none" stroke="#000000" points="170.5,-125.2 170.5,-147.2 286.5,-147.2 286.5,-125.2 170.5,-125.2"/>
<text text-anchor="start" x="190.5" y="-132.3" font-family="Helvetica,sans-Serif" font-size="11.00" fill="#000000">created_at</text>
<polygon fill="none" stroke="#000000" points="286.5,-125.2 286.5,-147.2 385.5,-147.2 385.5,-125.2 286.5,-125.2"/>
<text text-anchor="start" x="289.5" y="-132.9" font-family="Helvetica,sans-Serif" font-size="11.00" fill="#000000">timestamptz[35,6]</text>
<polygon fill="none" stroke="#000000" points="170.5,-103.2 170.5,-125.2 286.5,-125.2 286.5,-103.2 170.5,-103.2"/>
<text text-anchor="start" x="190.5" y="-110.3" font-family="Helvetica,sans-Serif" font-size="11.00" fill="#000000">updated_at</text>
<polygon fill="none" stroke="#000000" points="286.5,-103.2 286.5,-125.2 385.5,-125.2 385.5,-103.2 286.5,-103.2"/>
<text text-anchor="start" x="289.5" y="-110.9" font-family="Helvetica,sans-Serif" font-size="11.00" fill="#000000">timestamptz[35,6]</text>
<polygon fill="none" stroke="#000000" points="170.5,-81.2 170.5,-103.2 286.5,-103.2 286.5,-81.2 170.5,-81.2"/>
<image xlink:href="../../images/foreignKeys.png" width="11px" height="12px" preserveAspectRatio="xMinYMin meet" x="175.5" y="-98.2"/>
<text text-anchor="start" x="190.5" y="-88.3" font-family="Helvetica,sans-Serif" font-size="11.00" fill="#000000">created_by</text>
<polygon fill="none" stroke="#000000" points="286.5,-81.2 286.5,-103.2 385.5,-103.2 385.5,-81.2 286.5,-81.2"/>
<text text-anchor="start" x="289.5" y="-88.9" font-family="Helvetica,sans-Serif" font-size="11.00" fill="#000000">int8[19]</text>
<polygon fill="none" stroke="#000000" points="170.5,-59.2 170.5,-81.2 286.5,-81.2 286.5,-59.2 170.5,-59.2"/>
<image xlink:href="../../images/foreignKeys.png" width="11px" height="12px" preserveAspectRatio="xMinYMin meet" x="175.5" y="-76.2"/>
<text text-anchor="start" x="190.5" y="-66.3" font-family="Helvetica,sans-Serif" font-size="11.00" fill="#000000">updated_by</text>
<polygon fill="none" stroke="#000000" points="286.5,-59.2 286.5,-81.2 385.5,-81.2 385.5,-59.2 286.5,-59.2"/>
<text text-anchor="start" x="289.5" y="-66.9" font-family="Helvetica,sans-Serif" font-size="11.00" fill="#000000">int8[19]</text>
<polygon fill="#ffffff" stroke="transparent" points="170.5,-40.2 170.5,-59.2 232.5,-59.2 232.5,-40.2 170.5,-40.2"/>
<polygon fill="none" stroke="#000000" points="170.5,-40.2 170.5,-59.2 232.5,-59.2 232.5,-40.2 170.5,-40.2"/>
<text text-anchor="start" x="173.5" y="-46.3" font-family="Helvetica,sans-Serif" font-size="11.00" fill="#000000">&lt; 3</text>
<polygon fill="#ffffff" stroke="transparent" points="232.5,-40.2 232.5,-59.2 286.5,-59.2 286.5,-40.2 232.5,-40.2"/>
<polygon fill="none" stroke="#000000" points="232.5,-40.2 232.5,-59.2 286.5,-59.2 286.5,-40.2 232.5,-40.2"/>
<text text-anchor="start" x="277.3862" y="-46.3" font-family="Helvetica,sans-Serif" font-size="11.00" fill="#000000"> &#160;</text>
<polygon fill="#ffffff" stroke="transparent" points="286.5,-40.2 286.5,-59.2 385.5,-59.2 385.5,-40.2 286.5,-40.2"/>
<polygon fill="none" stroke="#000000" points="286.5,-40.2 286.5,-59.2 385.5,-59.2 385.5,-40.2 286.5,-40.2"/>
<text text-anchor="start" x="366.9053" y="-46.3" font-family="Helvetica,sans-Serif" font-size="11.00" fill="#000000">2 &gt;</text>
<polygon fill="none" stroke="#000000" stroke-width="2" points="169,-39.2 169,-369.2 386,-369.2 386,-39.2 169,-39.2"/>
</a>
</g>
</g>
<!-- users -->
<g id="node2" class="node">
<title>users</title>
<g id="a_node2"><a xlink:href="../../tables/users.html" xlink:title="users" target="_top">
<polygon fill="#ffffff" stroke="transparent" points="8,-117.7 8,-310.7 119,-310.7 119,-117.7 8,-117.7"/>
<polygon fill="#f5f5f5" stroke="transparent" points="8.5,-287.2 8.5,-310.2 119.5,-310.2 119.5,-287.2 8.5,-287.2"/>
<polygon fill="none" stroke="#000000" points="8.5,-287.2 8.5,-310.2 119.5,-310.2 119.5,-287.2 8.5,-287.2"/>
<text text-anchor="start" x="13.5" y="-295.8" font-family="Helvetica,sans-Serif" font-weight="bold" font-size="11.00" fill="#000000">users</text>
<text text-anchor="start" x="84.5437" y="-295.3" font-family="Helvetica,sans-Serif" font-size="11.00" fill="#000000">[table]</text>
<polygon fill="none" stroke="#000000" points="8.5,-265.2 8.5,-287.2 119.5,-287.2 119.5,-265.2 8.5,-265.2"/>
<image xlink:href="../../images/primaryKeys.png" width="11px" height="12px" preserveAspectRatio="xMinYMin meet" x="13.5" y="-282.2"/>
<text text-anchor="start" x="28.5" y="-272.3" font-family="Helvetica,sans-Serif" font-size="11.00" fill="#000000">id</text>
<polygon fill="#ffffff" stroke="transparent" points="8.5,-243.2 8.5,-265.2 119.5,-265.2 119.5,-243.2 8.5,-243.2"/>
<polygon fill="none" stroke="#000000" points="8.5,-243.2 8.5,-265.2 119.5,-265.2 119.5,-243.2 8.5,-243.2"/>
<text text-anchor="start" x="28.5" y="-250.3" font-family="Helvetica,sans-Serif" font-size="11.00" fill="#000000">username</text>
<polygon fill="#ffffff" stroke="transparent" points="8.5,-221.2 8.5,-243.2 119.5,-243.2 119.5,-221.2 8.5,-221.2"/>
<polygon fill="none" stroke="#000000" points="8.5,-221.2 8.5,-243.2 119.5,-243.2 119.5,-221.2 8.5,-221.2"/>
<text text-anchor="start" x="28.5" y="-228.3" font-family="Helvetica,sans-Serif" font-size="11.00" fill="#000000">email</text>
<polygon fill="#ffffff" stroke="transparent" points="8.5,-199.2 8.5,-221.2 119.5,-221.2 119.5,-199.2 8.5,-199.2"/>
<polygon fill="none" stroke="#000000" points="8.5,-199.2 8.5,-221.2 119.5,-221.2 119.5,-199.2 8.5,-199.2"/>
<image xlink:href="../../images/foreignKeys.png" width="11px" height="12px" preserveAspectRatio="xMinYMin meet" x="13.5" y="-216.2"/>
<text text-anchor="start" x="28.5" y="-206.3" font-family="Helvetica,sans-Serif" font-size="11.00" fill="#000000">department_id</text>
<polygon fill="none" stroke="#000000" points="8.5,-177.2 8.5,-199.2 119.5,-199.2 119.5,-177.2 8.5,-177.2"/>
<image xlink:href="../../images/foreignKeys.png" width="11px" height="12px" preserveAspectRatio="xMinYMin meet" x="13.5" y="-194.2"/>
<text text-anchor="start" x="28.5" y="-184.3" font-family="Helvetica,sans-Serif" font-size="11.00" fill="#000000">created_by</text>
<polygon fill="none" stroke="#000000" points="8.5,-155.2 8.5,-177.2 119.5,-177.2 119.5,-155.2 8.5,-155.2"/>
<image xlink:href="../../images/foreignKeys.png" width="11px" height="12px" preserveAspectRatio="xMinYMin meet" x="13.5" y="-172.2"/>
<text text-anchor="start" x="28.5" y="-162.3" font-family="Helvetica,sans-Serif" font-size="11.00" fill="#000000">updated_by</text>
<polygon fill="none" stroke="#000000" points="8.5,-136.2 8.5,-155.2 119.5,-155.2 119.5,-136.2 8.5,-136.2"/>
<text text-anchor="start" x="11.5" y="-142.3" font-family="Helvetica,sans-Serif" font-size="11.00" fill="#000000">...</text>
<polygon fill="#ffffff" stroke="transparent" points="8.5,-117.2 8.5,-136.2 38.5,-136.2 38.5,-117.2 8.5,-117.2"/>
<polygon fill="none" stroke="#000000" points="8.5,-117.2 8.5,-136.2 38.5,-136.2 38.5,-117.2 8.5,-117.2"/>
<text text-anchor="start" x="11.5" y="-123.3" font-family="Helvetica,sans-Serif" font-size="11.00" fill="#000000">&lt; 3</text>
<polygon fill="#ffffff" stroke="transparent" points="38.5,-117.2 38.5,-136.2 87.5,-136.2 87.5,-117.2 38.5,-117.2"/>
<polygon fill="none" stroke="#000000" points="38.5,-117.2 38.5,-136.2 87.5,-136.2 87.5,-117.2 38.5,-117.2"/>
<text text-anchor="start" x="45.9956" y="-123.3" font-family="Helvetica,sans-Serif" font-size="11.00" fill="#000000">10 rows</text>
<polygon fill="#ffffff" stroke="transparent" points="87.5,-117.2 87.5,-136.2 119.5,-136.2 119.5,-117.2 87.5,-117.2"/>
<polygon fill="none" stroke="#000000" points="87.5,-117.2 87.5,-136.2 119.5,-136.2 119.5,-117.2 87.5,-117.2"/>
<text text-anchor="start" x="94.7904" y="-123.3" font-family="Helvetica,sans-Serif" font-size="11.00" fill="#000000">66 &gt;</text>
</a>
</g>
</g>
<!-- document_links&#45;&gt;users -->
<g id="edge1" class="edge">
<title>document_links:w&#45;&gt;users:e</title>
<path fill="none" stroke="#000000" d="M156.1681,-94.5264C100.509,-115.8261 198.7257,-276.2 119.5,-276.2"/>
<polygon fill="#000000" stroke="#000000" points="162.6034,-93.4819 171.0768,-95.7535 166.5517,-92.8409 170.5,-92.2 170.5,-92.2 170.5,-92.2 166.5517,-92.8409 169.9232,-88.6465 162.6034,-93.4819 162.6034,-93.4819"/>
<ellipse fill="none" stroke="#000000" cx="159.4447" cy="-93.9946" rx="3.2" ry="3.2"/>
</g>
<!-- document_links&#45;&gt;users -->
<g id="edge2" class="edge">
<title>document_links:w&#45;&gt;users:e</title>
<path fill="none" stroke="#000000" d="M156.2162,-72.2389C91.5136,-93.6334 208.2931,-276.2 119.5,-276.2"/>
<polygon fill="#000000" stroke="#000000" points="162.5803,-71.3305 171.0087,-73.7639 166.5401,-70.7652 170.5,-70.2 170.5,-70.2 170.5,-70.2 166.5401,-70.7652 169.9913,-66.6361 162.5803,-71.3305 162.5803,-71.3305"/>
<ellipse fill="none" stroke="#000000" cx="159.4124" cy="-71.7827" rx="3.2" ry="3.2"/>
</g>
<!-- document_links&#45;&gt;users -->
<g id="edge3" class="edge">
<title>document_links:w&#45;&gt;users:e</title>
<path fill="none" stroke="#000000" d="M156.1581,-161.8609C125.3728,-181.778 170.6074,-276.2 119.5,-276.2"/>
<polygon fill="#000000" stroke="#000000" points="162.7485,-160.1787 171.3904,-161.6882 166.6243,-159.1893 170.5,-158.2 170.5,-158.2 170.5,-158.2 166.6243,-159.1893 169.6096,-154.7118 162.7485,-160.1787 162.7485,-160.1787"/>
<ellipse fill="none" stroke="#000000" cx="159.648" cy="-160.9701" rx="3.2" ry="3.2"/>
</g>
<!-- wms.outbound_shipments -->
<g id="node3" class="node">
<title>wms.outbound_shipments</title>
<g id="a_node3"><a xlink:href="../../../wms/tables/outbound_shipments.html" xlink:title="wms.outbound_shipments" target="_top">
<polygon fill="#ffffff" stroke="transparent" points="436,-301.7 436,-538.7 627,-538.7 627,-301.7 436,-301.7"/>
<polygon fill="#f5f5f5" stroke="transparent" points="436.5,-515.2 436.5,-538.2 627.5,-538.2 627.5,-515.2 436.5,-515.2"/>
<polygon fill="none" stroke="#000000" points="436.5,-515.2 436.5,-538.2 627.5,-538.2 627.5,-515.2 436.5,-515.2"/>
<text text-anchor="start" x="441.5" y="-523.8" font-family="Helvetica,sans-Serif" font-weight="bold" font-size="11.00" fill="#000000">wms.outbound_shipments</text>
<text text-anchor="start" x="593.0219" y="-523.3" font-family="Helvetica,sans-Serif" font-size="11.00" fill="#000000">[table]</text>
<polygon fill="none" stroke="#000000" points="436.5,-493.2 436.5,-515.2 627.5,-515.2 627.5,-493.2 436.5,-493.2"/>
<image xlink:href="../../images/foreignKeys.png" width="11px" height="12px" preserveAspectRatio="xMinYMin meet" x="441.5" y="-510.2"/>
<text text-anchor="start" x="469.5" y="-500.3" font-family="Helvetica,sans-Serif" font-size="11.00" fill="#000000">warehouse_id</text>
<polygon fill="none" stroke="#000000" points="436.5,-471.2 436.5,-493.2 627.5,-493.2 627.5,-471.2 436.5,-471.2"/>
<image xlink:href="../../images/foreignKeys.png" width="11px" height="12px" preserveAspectRatio="xMinYMin meet" x="441.5" y="-488.2"/>
<text text-anchor="start" x="469.5" y="-478.3" font-family="Helvetica,sans-Serif" font-size="11.00" fill="#000000">destination_location_id</text>
<polygon fill="none" stroke="#000000" points="436.5,-449.2 436.5,-471.2 627.5,-471.2 627.5,-449.2 436.5,-449.2"/>
<image xlink:href="../../images/foreignKeys.png" width="11px" height="12px" preserveAspectRatio="xMinYMin meet" x="441.5" y="-466.2"/>
<text text-anchor="start" x="469.5" y="-456.3" font-family="Helvetica,sans-Serif" font-size="11.00" fill="#000000">trailer_id</text>
<polygon fill="none" stroke="#000000" points="436.5,-427.2 436.5,-449.2 627.5,-449.2 627.5,-427.2 436.5,-427.2"/>
<image xlink:href="../../images/foreignKeys.png" width="11px" height="12px" preserveAspectRatio="xMinYMin meet" x="441.5" y="-444.2"/>
<text text-anchor="start" x="469.5" y="-434.3" font-family="Helvetica,sans-Serif" font-size="11.00" fill="#000000">loaded_by</text>
<polygon fill="none" stroke="#000000" points="436.5,-405.2 436.5,-427.2 627.5,-427.2 627.5,-405.2 436.5,-405.2"/>
<image xlink:href="../../images/foreignKeys.png" width="11px" height="12px" preserveAspectRatio="xMinYMin meet" x="441.5" y="-422.2"/>
<text text-anchor="start" x="469.5" y="-412.3" font-family="Helvetica,sans-Serif" font-size="11.00" fill="#000000">created_by</text>
<polygon fill="none" stroke="#000000" points="436.5,-383.2 436.5,-405.2 627.5,-405.2 627.5,-383.2 436.5,-383.2"/>
<image xlink:href="../../images/foreignKeys.png" width="11px" height="12px" preserveAspectRatio="xMinYMin meet" x="441.5" y="-400.2"/>
<text text-anchor="start" x="469.5" y="-390.3" font-family="Helvetica,sans-Serif" font-size="11.00" fill="#000000">updated_by</text>
<polygon fill="none" stroke="#000000" points="436.5,-361.2 436.5,-383.2 627.5,-383.2 627.5,-361.2 436.5,-361.2"/>
<image xlink:href="../../images/foreignKeys.png" width="11px" height="12px" preserveAspectRatio="xMinYMin meet" x="441.5" y="-378.2"/>
<text text-anchor="start" x="469.5" y="-368.3" font-family="Helvetica,sans-Serif" font-size="11.00" fill="#000000">bol_document_id</text>
<polygon fill="none" stroke="#000000" points="436.5,-339.2 436.5,-361.2 627.5,-361.2 627.5,-339.2 436.5,-339.2"/>
<image xlink:href="../../images/foreignKeys.png" width="11px" height="12px" preserveAspectRatio="xMinYMin meet" x="441.5" y="-356.2"/>
<text text-anchor="start" x="469.5" y="-346.3" font-family="Helvetica,sans-Serif" font-size="11.00" fill="#000000">load_sheet_document_id</text>
<polygon fill="none" stroke="#000000" points="436.5,-320.2 436.5,-339.2 627.5,-339.2 627.5,-320.2 436.5,-320.2"/>
<text text-anchor="start" x="439.5" y="-326.3" font-family="Helvetica,sans-Serif" font-size="11.00" fill="#000000">...</text>
<polygon fill="#ffffff" stroke="transparent" points="436.5,-301.2 436.5,-320.2 517.5,-320.2 517.5,-301.2 436.5,-301.2"/>
<polygon fill="none" stroke="#000000" points="436.5,-301.2 436.5,-320.2 517.5,-320.2 517.5,-301.2 436.5,-301.2"/>
<text text-anchor="start" x="439.5" y="-307.3" font-family="Helvetica,sans-Serif" font-size="11.00" fill="#000000">&lt; 8</text>
<polygon fill="#ffffff" stroke="transparent" points="517.5,-301.2 517.5,-320.2 585.5,-320.2 585.5,-301.2 517.5,-301.2"/>
<polygon fill="none" stroke="#000000" points="517.5,-301.2 517.5,-320.2 585.5,-320.2 585.5,-301.2 517.5,-301.2"/>
<text text-anchor="start" x="550.1105" y="-307.3" font-family="Helvetica,sans-Serif" font-size="11.00" fill="#000000">0 rows</text>
<polygon fill="#ffffff" stroke="transparent" points="585.5,-301.2 585.5,-320.2 627.5,-320.2 627.5,-301.2 585.5,-301.2"/>
<polygon fill="none" stroke="#000000" points="585.5,-301.2 585.5,-320.2 627.5,-320.2 627.5,-301.2 585.5,-301.2"/>
<text text-anchor="start" x="618.3862" y="-307.3" font-family="Helvetica,sans-Serif" font-size="11.00" fill="#000000"> &#160;</text>
</a>
</g>
</g>
<!-- wms.outbound_shipments&#45;&gt;document_links -->
<g id="edge4" class="edge">
<title>wms.outbound_shipments:w&#45;&gt;document_links:e</title>
<path fill="none" stroke="#000000" d="M422.4897,-367.8409C409.0637,-357.8595 407.8043,-334.2 385.5,-334.2"/>
<polygon fill="#000000" stroke="#000000" points="428.8612,-369.8233 435.4305,-375.6375 432.6806,-371.0116 436.5,-372.2 436.5,-372.2 436.5,-372.2 432.6806,-371.0116 437.5695,-368.7625 428.8612,-369.8233 428.8612,-369.8233"/>
<ellipse fill="none" stroke="#000000" cx="425.8057" cy="-368.8726" rx="3.2" ry="3.2"/>
</g>
<!-- wms.outbound_shipments&#45;&gt;document_links -->
<g id="edge6" class="edge">
<title>wms.outbound_shipments:w&#45;&gt;document_links:e</title>
<path fill="none" stroke="#000000" d="M422.2304,-347.8391C409.8657,-343.3885 403.5026,-334.2 385.5,-334.2"/>
<polygon fill="#000000" stroke="#000000" points="428.6073,-348.8941 435.9124,-353.7517 432.5536,-349.5471 436.5,-350.2 436.5,-350.2 436.5,-350.2 432.5536,-349.5471 437.0876,-346.6483 428.6073,-348.8941 428.6073,-348.8941"/>
<ellipse fill="none" stroke="#000000" cx="425.4502" cy="-348.3718" rx="3.2" ry="3.2"/>
</g>
<!-- wms.outbound_shipments&#45;&gt;users -->
<g id="edge5" class="edge">
<title>wms.outbound_shipments:w&#45;&gt;users:e</title>
<path fill="none" stroke="#000000" d="M422.0515,-416.5462C352.2088,-419.4626 205.3843,-438.9789 160,-404.2 112.6387,-367.9061 179.1686,-276.2 119.5,-276.2"/>
<polygon fill="#000000" stroke="#000000" points="428.5023,-416.3917 436.5863,-419.799 432.5011,-416.2958 436.5,-416.2 436.5,-416.2 436.5,-416.2 432.5011,-416.2958 436.4137,-412.601 428.5023,-416.3917 428.5023,-416.3917"/>
<ellipse fill="none" stroke="#000000" cx="425.3032" cy="-416.4684" rx="3.2" ry="3.2"/>
</g>
<!-- wms.outbound_shipments&#45;&gt;users -->
<g id="edge7" class="edge">
<title>wms.outbound_shipments:w&#45;&gt;users:e</title>
<path fill="none" stroke="#000000" d="M422.031,-438.4946C308.8076,-443.0983 252.1128,-499.1092 160,-425.2 106.4751,-382.2528 188.1249,-276.2 119.5,-276.2"/>
<polygon fill="#000000" stroke="#000000" points="428.5017,-438.3629 436.5733,-441.7993 432.5008,-438.2815 436.5,-438.2 436.5,-438.2 436.5,-438.2 432.5008,-438.2815 436.4267,-434.6007 428.5017,-438.3629 428.5017,-438.3629"/>
<ellipse fill="none" stroke="#000000" cx="425.3023" cy="-438.4281" rx="3.2" ry="3.2"/>
</g>
<!-- wms.outbound_shipments&#45;&gt;users -->
<g id="edge8" class="edge">
<title>wms.outbound_shipments:w&#45;&gt;users:e</title>
<path fill="none" stroke="#000000" d="M422.0625,-394.4985C352.3313,-397.0067 206.3844,-413.6667 160,-380.2 119.7739,-351.1766 169.1034,-276.2 119.5,-276.2"/>
<polygon fill="#000000" stroke="#000000" points="428.5017,-394.3654 436.5744,-397.7992 432.5009,-394.2827 436.5,-394.2 436.5,-394.2 436.5,-394.2 432.5009,-394.2827 436.4256,-390.6008 428.5017,-394.3654 428.5017,-394.3654"/>
<ellipse fill="none" stroke="#000000" cx="425.3024" cy="-394.4316" rx="3.2" ry="3.2"/>
</g>
</g>
</svg>
