<?xml version="1.0" encoding="UTF-8" standalone="no"?>
<!DOCTYPE svg PUBLIC "-//W3C//DTD SVG 1.1//EN"
 "http://www.w3.org/Graphics/SVG/1.1/DTD/svg11.dtd">
<!-- Generated by graphviz version 2.40.1 (20161225.0304)
 -->
<!-- Title: oneDegreeRelationshipsDiagram Pages: 1 -->
<svg width="726pt" height="402pt"
 viewBox="0.00 0.00 726.00 401.70" xmlns="http://www.w3.org/2000/svg" xmlns:xlink="http://www.w3.org/1999/xlink">
<g id="graph0" class="graph" transform="scale(1 1) rotate(0) translate(4 397.7)">
<title>oneDegreeRelationshipsDiagram</title>
<polygon fill="#ffffff" stroke="transparent" points="-4,4 -4,-397.7 722,-397.7 722,4 -4,4"/>
<text text-anchor="middle" x="72.4936" y="-7.3" font-family="Helvetica,sans-Serif" font-size="11.00" fill="#000000">Generated by SchemaSpy</text>
<!-- carriers -->
<g id="node1" class="node">
<title>carriers</title>
<g id="a_node1"><a xlink:href="../../tables/carriers.html" xlink:title="carriers" target="_top">
<polygon fill="#ffffff" stroke="transparent" points="347,-161.2 347,-332.2 440,-332.2 440,-161.2 347,-161.2"/>
<polygon fill="#f5f5f5" stroke="transparent" points="347.5,-308.7 347.5,-331.7 440.5,-331.7 440.5,-308.7 347.5,-308.7"/>
<polygon fill="none" stroke="#000000" points="347.5,-308.7 347.5,-331.7 440.5,-331.7 440.5,-308.7 347.5,-308.7"/>
<text text-anchor="start" x="352.5" y="-317.3" font-family="Helvetica,sans-Serif" font-weight="bold" font-size="11.00" fill="#000000">carriers</text>
<text text-anchor="start" x="405.5437" y="-316.8" font-family="Helvetica,sans-Serif" font-size="11.00" fill="#000000">[table]</text>
<polygon fill="none" stroke="#000000" points="347.5,-286.7 347.5,-308.7 440.5,-308.7 440.5,-286.7 347.5,-286.7"/>
<image xlink:href="../../images/primaryKeys.png" width="11px" height="12px" preserveAspectRatio="xMinYMin meet" x="352.5" y="-303.7"/>
<text text-anchor="start" x="367.5" y="-293.8" font-family="Helvetica,sans-Serif" font-size="11.00" fill="#000000">carrier_id</text>
<polygon fill="#ffffff" stroke="transparent" points="347.5,-264.7 347.5,-286.7 440.5,-286.7 440.5,-264.7 347.5,-264.7"/>
<polygon fill="none" stroke="#000000" points="347.5,-264.7 347.5,-286.7 440.5,-286.7 440.5,-264.7 347.5,-264.7"/>
<text text-anchor="start" x="367.5" y="-271.8" font-family="Helvetica,sans-Serif" font-size="11.00" fill="#000000">carrier_code</text>
<polygon fill="none" stroke="#000000" points="347.5,-242.7 347.5,-264.7 440.5,-264.7 440.5,-242.7 347.5,-242.7"/>
<image xlink:href="../../images/foreignKeys.png" width="11px" height="12px" preserveAspectRatio="xMinYMin meet" x="352.5" y="-259.7"/>
<text text-anchor="start" x="367.5" y="-249.8" font-family="Helvetica,sans-Serif" font-size="11.00" fill="#000000">contact_id</text>
<polygon fill="none" stroke="#000000" points="347.5,-220.7 347.5,-242.7 440.5,-242.7 440.5,-220.7 347.5,-220.7"/>
<image xlink:href="../../images/foreignKeys.png" width="11px" height="12px" preserveAspectRatio="xMinYMin meet" x="352.5" y="-237.7"/>
<text text-anchor="start" x="367.5" y="-227.8" font-family="Helvetica,sans-Serif" font-size="11.00" fill="#000000">created_by</text>
<polygon fill="none" stroke="#000000" points="347.5,-198.7 347.5,-220.7 440.5,-220.7 440.5,-198.7 347.5,-198.7"/>
<image xlink:href="../../images/foreignKeys.png" width="11px" height="12px" preserveAspectRatio="xMinYMin meet" x="352.5" y="-215.7"/>
<text text-anchor="start" x="367.5" y="-205.8" font-family="Helvetica,sans-Serif" font-size="11.00" fill="#000000">updated_by</text>
<polygon fill="none" stroke="#000000" points="347.5,-179.7 347.5,-198.7 440.5,-198.7 440.5,-179.7 347.5,-179.7"/>
<text text-anchor="start" x="350.5" y="-185.8" font-family="Helvetica,sans-Serif" font-size="11.00" fill="#000000">...</text>
<polygon fill="#ffffff" stroke="transparent" points="347.5,-160.7 347.5,-179.7 387.5,-179.7 387.5,-160.7 347.5,-160.7"/>
<polygon fill="none" stroke="#000000" points="347.5,-160.7 347.5,-179.7 387.5,-179.7 387.5,-160.7 347.5,-160.7"/>
<text text-anchor="start" x="350.5" y="-166.8" font-family="Helvetica,sans-Serif" font-size="11.00" fill="#000000">&lt; 3</text>
<polygon fill="#ffffff" stroke="transparent" points="387.5,-160.7 387.5,-179.7 409.5,-179.7 409.5,-160.7 387.5,-160.7"/>
<polygon fill="none" stroke="#000000" points="387.5,-160.7 387.5,-179.7 409.5,-179.7 409.5,-160.7 387.5,-160.7"/>
<text text-anchor="start" x="400.3862" y="-166.8" font-family="Helvetica,sans-Serif" font-size="11.00" fill="#000000"> &#160;</text>
<polygon fill="#ffffff" stroke="transparent" points="409.5,-160.7 409.5,-179.7 440.5,-179.7 440.5,-160.7 409.5,-160.7"/>
<polygon fill="none" stroke="#000000" points="409.5,-160.7 409.5,-179.7 440.5,-179.7 440.5,-160.7 409.5,-160.7"/>
<text text-anchor="start" x="421.9053" y="-166.8" font-family="Helvetica,sans-Serif" font-size="11.00" fill="#000000">5 &gt;</text>
</a>
</g>
</g>
<!-- contact_roles -->
<g id="node2" class="node">
<title>contact_roles</title>
<g id="a_node2"><a xlink:href="../../tables/contact_roles.html" xlink:title="contact_roles" target="_top">
<polygon fill="#ffffff" stroke="transparent" points="168,-235.2 168,-362.2 298,-362.2 298,-235.2 168,-235.2"/>
<polygon fill="#f5f5f5" stroke="transparent" points="168,-338.7 168,-361.7 298,-361.7 298,-338.7 168,-338.7"/>
<polygon fill="none" stroke="#000000" points="168,-338.7 168,-361.7 298,-361.7 298,-338.7 168,-338.7"/>
<text text-anchor="start" x="173" y="-347.3" font-family="Helvetica,sans-Serif" font-weight="bold" font-size="11.00" fill="#000000">contact_roles</text>
<text text-anchor="start" x="263.0437" y="-346.8" font-family="Helvetica,sans-Serif" font-size="11.00" fill="#000000">[table]</text>
<polygon fill="none" stroke="#000000" points="168,-316.7 168,-338.7 298,-338.7 298,-316.7 168,-316.7"/>
<image xlink:href="../../images/primaryKeys.png" width="11px" height="12px" preserveAspectRatio="xMinYMin meet" x="173" y="-333.7"/>
<text text-anchor="start" x="188" y="-323.8" font-family="Helvetica,sans-Serif" font-size="11.00" fill="#000000">contact_id</text>
<polygon fill="none" stroke="#000000" points="168,-294.7 168,-316.7 298,-316.7 298,-294.7 168,-294.7"/>
<image xlink:href="../../images/foreignKeys.png" width="11px" height="12px" preserveAspectRatio="xMinYMin meet" x="173" y="-311.7"/>
<text text-anchor="start" x="188" y="-301.8" font-family="Helvetica,sans-Serif" font-size="11.00" fill="#000000">created_by</text>
<polygon fill="none" stroke="#000000" points="168,-272.7 168,-294.7 298,-294.7 298,-272.7 168,-272.7"/>
<image xlink:href="../../images/foreignKeys.png" width="11px" height="12px" preserveAspectRatio="xMinYMin meet" x="173" y="-289.7"/>
<text text-anchor="start" x="188" y="-279.8" font-family="Helvetica,sans-Serif" font-size="11.00" fill="#000000">updated_by</text>
<polygon fill="none" stroke="#000000" points="168,-253.7 168,-272.7 298,-272.7 298,-253.7 168,-253.7"/>
<text text-anchor="start" x="171" y="-259.8" font-family="Helvetica,sans-Serif" font-size="11.00" fill="#000000">...</text>
<polygon fill="#ffffff" stroke="transparent" points="168,-234.7 168,-253.7 208,-253.7 208,-234.7 168,-234.7"/>
<polygon fill="none" stroke="#000000" points="168,-234.7 168,-253.7 208,-253.7 208,-234.7 168,-234.7"/>
<text text-anchor="start" x="171" y="-240.8" font-family="Helvetica,sans-Serif" font-size="11.00" fill="#000000">&lt; 2</text>
<polygon fill="#ffffff" stroke="transparent" points="208,-234.7 208,-253.7 267,-253.7 267,-234.7 208,-234.7"/>
<polygon fill="none" stroke="#000000" points="208,-234.7 208,-253.7 267,-253.7 267,-234.7 208,-234.7"/>
<text text-anchor="start" x="219.3807" y="-240.8" font-family="Helvetica,sans-Serif" font-size="11.00" fill="#000000">138 rows</text>
<polygon fill="#ffffff" stroke="transparent" points="267,-234.7 267,-253.7 298,-253.7 298,-234.7 267,-234.7"/>
<polygon fill="none" stroke="#000000" points="267,-234.7 267,-253.7 298,-253.7 298,-234.7 267,-234.7"/>
<text text-anchor="start" x="279.4053" y="-240.8" font-family="Helvetica,sans-Serif" font-size="11.00" fill="#000000">3 &gt;</text>
</a>
</g>
</g>
<!-- carriers&#45;&gt;contact_roles -->
<g id="edge1" class="edge">
<title>carriers:w&#45;&gt;contact_roles:e</title>
<path fill="none" stroke="#000000" d="M333.745,-258.329C315.3553,-274.5294 331.5406,-327.7 298,-327.7"/>
<polygon fill="#000000" stroke="#000000" points="339.9178,-256.2517 348.6483,-257.112 343.7089,-254.9758 347.5,-253.7 347.5,-253.7 347.5,-253.7 343.7089,-254.9758 346.3517,-250.288 339.9178,-256.2517 339.9178,-256.2517"/>
<ellipse fill="none" stroke="#000000" cx="336.885" cy="-257.2724" rx="3.2" ry="3.2"/>
</g>
<!-- users -->
<g id="node3" class="node">
<title>users</title>
<g id="a_node3"><a xlink:href="../../tables/users.html" xlink:title="users" target="_top">
<polygon fill="#ffffff" stroke="transparent" points="8,-38.2 8,-231.2 119,-231.2 119,-38.2 8,-38.2"/>
<polygon fill="#f5f5f5" stroke="transparent" points="8.5,-207.7 8.5,-230.7 119.5,-230.7 119.5,-207.7 8.5,-207.7"/>
<polygon fill="none" stroke="#000000" points="8.5,-207.7 8.5,-230.7 119.5,-230.7 119.5,-207.7 8.5,-207.7"/>
<text text-anchor="start" x="13.5" y="-216.3" font-family="Helvetica,sans-Serif" font-weight="bold" font-size="11.00" fill="#000000">users</text>
<text text-anchor="start" x="84.5437" y="-215.8" font-family="Helvetica,sans-Serif" font-size="11.00" fill="#000000">[table]</text>
<polygon fill="none" stroke="#000000" points="8.5,-185.7 8.5,-207.7 119.5,-207.7 119.5,-185.7 8.5,-185.7"/>
<image xlink:href="../../images/primaryKeys.png" width="11px" height="12px" preserveAspectRatio="xMinYMin meet" x="13.5" y="-202.7"/>
<text text-anchor="start" x="28.5" y="-192.8" font-family="Helvetica,sans-Serif" font-size="11.00" fill="#000000">id</text>
<polygon fill="#ffffff" stroke="transparent" points="8.5,-163.7 8.5,-185.7 119.5,-185.7 119.5,-163.7 8.5,-163.7"/>
<polygon fill="none" stroke="#000000" points="8.5,-163.7 8.5,-185.7 119.5,-185.7 119.5,-163.7 8.5,-163.7"/>
<text text-anchor="start" x="28.5" y="-170.8" font-family="Helvetica,sans-Serif" font-size="11.00" fill="#000000">username</text>
<polygon fill="#ffffff" stroke="transparent" points="8.5,-141.7 8.5,-163.7 119.5,-163.7 119.5,-141.7 8.5,-141.7"/>
<polygon fill="none" stroke="#000000" points="8.5,-141.7 8.5,-163.7 119.5,-163.7 119.5,-141.7 8.5,-141.7"/>
<text text-anchor="start" x="28.5" y="-148.8" font-family="Helvetica,sans-Serif" font-size="11.00" fill="#000000">email</text>
<polygon fill="#ffffff" stroke="transparent" points="8.5,-119.7 8.5,-141.7 119.5,-141.7 119.5,-119.7 8.5,-119.7"/>
<polygon fill="none" stroke="#000000" points="8.5,-119.7 8.5,-141.7 119.5,-141.7 119.5,-119.7 8.5,-119.7"/>
<image xlink:href="../../images/foreignKeys.png" width="11px" height="12px" preserveAspectRatio="xMinYMin meet" x="13.5" y="-136.7"/>
<text text-anchor="start" x="28.5" y="-126.8" font-family="Helvetica,sans-Serif" font-size="11.00" fill="#000000">department_id</text>
<polygon fill="none" stroke="#000000" points="8.5,-97.7 8.5,-119.7 119.5,-119.7 119.5,-97.7 8.5,-97.7"/>
<image xlink:href="../../images/foreignKeys.png" width="11px" height="12px" preserveAspectRatio="xMinYMin meet" x="13.5" y="-114.7"/>
<text text-anchor="start" x="28.5" y="-104.8" font-family="Helvetica,sans-Serif" font-size="11.00" fill="#000000">created_by</text>
<polygon fill="none" stroke="#000000" points="8.5,-75.7 8.5,-97.7 119.5,-97.7 119.5,-75.7 8.5,-75.7"/>
<image xlink:href="../../images/foreignKeys.png" width="11px" height="12px" preserveAspectRatio="xMinYMin meet" x="13.5" y="-92.7"/>
<text text-anchor="start" x="28.5" y="-82.8" font-family="Helvetica,sans-Serif" font-size="11.00" fill="#000000">updated_by</text>
<polygon fill="none" stroke="#000000" points="8.5,-56.7 8.5,-75.7 119.5,-75.7 119.5,-56.7 8.5,-56.7"/>
<text text-anchor="start" x="11.5" y="-62.8" font-family="Helvetica,sans-Serif" font-size="11.00" fill="#000000">...</text>
<polygon fill="#ffffff" stroke="transparent" points="8.5,-37.7 8.5,-56.7 38.5,-56.7 38.5,-37.7 8.5,-37.7"/>
<polygon fill="none" stroke="#000000" points="8.5,-37.7 8.5,-56.7 38.5,-56.7 38.5,-37.7 8.5,-37.7"/>
<text text-anchor="start" x="11.5" y="-43.8" font-family="Helvetica,sans-Serif" font-size="11.00" fill="#000000">&lt; 3</text>
<polygon fill="#ffffff" stroke="transparent" points="38.5,-37.7 38.5,-56.7 87.5,-56.7 87.5,-37.7 38.5,-37.7"/>
<polygon fill="none" stroke="#000000" points="38.5,-37.7 38.5,-56.7 87.5,-56.7 87.5,-37.7 38.5,-37.7"/>
<text text-anchor="start" x="45.9956" y="-43.8" font-family="Helvetica,sans-Serif" font-size="11.00" fill="#000000">10 rows</text>
<polygon fill="#ffffff" stroke="transparent" points="87.5,-37.7 87.5,-56.7 119.5,-56.7 119.5,-37.7 87.5,-37.7"/>
<polygon fill="none" stroke="#000000" points="87.5,-37.7 87.5,-56.7 119.5,-56.7 119.5,-37.7 87.5,-37.7"/>
<text text-anchor="start" x="94.7904" y="-43.8" font-family="Helvetica,sans-Serif" font-size="11.00" fill="#000000">66 &gt;</text>
</a>
</g>
</g>
<!-- carriers&#45;&gt;users -->
<g id="edge2" class="edge">
<title>carriers:w&#45;&gt;users:e</title>
<path fill="none" stroke="#000000" d="M333.0148,-230.6215C324.5738,-229.2158 318.5551,-226.7012 306,-224.7 223.227,-211.5067 203.3179,-196.7 119.5,-196.7"/>
<polygon fill="#000000" stroke="#000000" points="339.5221,-231.1059 347.2327,-235.2901 343.511,-231.403 347.5,-231.7 347.5,-231.7 347.5,-231.7 343.511,-231.403 347.7673,-228.1099 339.5221,-231.1059 339.5221,-231.1059"/>
<ellipse fill="none" stroke="#000000" cx="336.3309" cy="-230.8683" rx="3.2" ry="3.2"/>
</g>
<!-- carriers&#45;&gt;users -->
<g id="edge3" class="edge">
<title>carriers:w&#45;&gt;users:e</title>
<path fill="none" stroke="#000000" d="M333.0752,-206.9026C324.6461,-203.2439 319.2812,-197.0266 306,-194.7 242.0844,-183.5035 224.8691,-193.0993 160,-194.7 141.9835,-195.1446 137.5219,-196.7 119.5,-196.7"/>
<polygon fill="#000000" stroke="#000000" points="339.6463,-208.1769 346.8146,-213.2342 343.5732,-208.9384 347.5,-209.7 347.5,-209.7 347.5,-209.7 343.5732,-208.9384 348.1854,-206.1658 339.6463,-208.1769 339.6463,-208.1769"/>
<ellipse fill="none" stroke="#000000" cx="336.5048" cy="-207.5677" rx="3.2" ry="3.2"/>
</g>
<!-- contact_roles&#45;&gt;users -->
<g id="edge4" class="edge">
<title>contact_roles:w&#45;&gt;users:e</title>
<path fill="none" stroke="#000000" d="M153.9155,-301.8206C126.5955,-282.4034 166.5171,-196.7 119.5,-196.7"/>
<polygon fill="#000000" stroke="#000000" points="160.2872,-303.5756 167.044,-309.1708 164.1436,-304.6378 168,-305.7 168,-305.7 168,-305.7 164.1436,-304.6378 168.956,-302.2292 160.2872,-303.5756 160.2872,-303.5756"/>
<ellipse fill="none" stroke="#000000" cx="157.2021" cy="-302.7258" rx="3.2" ry="3.2"/>
</g>
<!-- contact_roles&#45;&gt;users -->
<g id="edge5" class="edge">
<title>contact_roles:w&#45;&gt;users:e</title>
<path fill="none" stroke="#000000" d="M154.1395,-279.266C133.103,-261.5371 157.7167,-196.7 119.5,-196.7"/>
<polygon fill="#000000" stroke="#000000" points="160.3804,-281.2625 166.9031,-287.1288 164.1902,-282.4812 168,-283.7 168,-283.7 168,-283.7 164.1902,-282.4812 169.0969,-280.2712 160.3804,-281.2625 160.3804,-281.2625"/>
<ellipse fill="none" stroke="#000000" cx="157.3325" cy="-280.2874" rx="3.2" ry="3.2"/>
</g>
<!-- drivers -->
<g id="node4" class="node">
<title>drivers</title>
<g id="a_node4"><a xlink:href="../../tables/drivers.html" xlink:title="drivers" target="_top">
<polygon fill="#ffffff" stroke="transparent" points="489,-79.7 489,-389.7 710,-389.7 710,-79.7 489,-79.7"/>
<polygon fill="#f5f5f5" stroke="transparent" points="491.5,-364.7 491.5,-387.7 708.5,-387.7 708.5,-364.7 491.5,-364.7"/>
<polygon fill="none" stroke="#000000" points="491.5,-364.7 491.5,-387.7 708.5,-387.7 708.5,-364.7 491.5,-364.7"/>
<text text-anchor="start" x="496.5" y="-373.3" font-family="Helvetica,sans-Serif" font-weight="bold" font-size="11.00" fill="#000000">drivers</text>
<text text-anchor="start" x="673.5437" y="-372.8" font-family="Helvetica,sans-Serif" font-size="11.00" fill="#000000">[table]</text>
<polygon fill="none" stroke="#000000" points="491.5,-342.7 491.5,-364.7 616.5,-364.7 616.5,-342.7 491.5,-342.7"/>
<image xlink:href="../../images/primaryKeys.png" width="11px" height="12px" preserveAspectRatio="xMinYMin meet" x="496.5" y="-359.7"/>
<text text-anchor="start" x="511.5" y="-349.8" font-family="Helvetica,sans-Serif" font-size="11.00" fill="#000000">driver_id</text>
<polygon fill="none" stroke="#000000" points="616.5,-342.7 616.5,-364.7 708.5,-364.7 708.5,-342.7 616.5,-342.7"/>
<text text-anchor="start" x="619.5" y="-350.4" font-family="Helvetica,sans-Serif" font-size="11.00" fill="#000000">int8[19]</text>
<polygon fill="none" stroke="#000000" points="491.5,-320.7 491.5,-342.7 616.5,-342.7 616.5,-320.7 491.5,-320.7"/>
<image xlink:href="../../images/foreignKeys.png" width="11px" height="12px" preserveAspectRatio="xMinYMin meet" x="496.5" y="-337.7"/>
<text text-anchor="start" x="511.5" y="-327.8" font-family="Helvetica,sans-Serif" font-size="11.00" fill="#000000">carrier_id</text>
<polygon fill="none" stroke="#000000" points="616.5,-320.7 616.5,-342.7 708.5,-342.7 708.5,-320.7 616.5,-320.7"/>
<text text-anchor="start" x="619.5" y="-328.4" font-family="Helvetica,sans-Serif" font-size="11.00" fill="#000000">int8[19]</text>
<polygon fill="#ffffff" stroke="transparent" points="491.5,-298.7 491.5,-320.7 616.5,-320.7 616.5,-298.7 491.5,-298.7"/>
<polygon fill="none" stroke="#000000" points="491.5,-298.7 491.5,-320.7 616.5,-320.7 616.5,-298.7 491.5,-298.7"/>
<text text-anchor="start" x="511.5" y="-305.8" font-family="Helvetica,sans-Serif" font-size="11.00" fill="#000000">driver_code</text>
<polygon fill="none" stroke="#000000" points="616.5,-298.7 616.5,-320.7 708.5,-320.7 708.5,-298.7 616.5,-298.7"/>
<text text-anchor="start" x="619.5" y="-306.4" font-family="Helvetica,sans-Serif" font-size="11.00" fill="#000000">varchar[50]</text>
<polygon fill="none" stroke="#000000" points="491.5,-276.7 491.5,-298.7 616.5,-298.7 616.5,-276.7 491.5,-276.7"/>
<text text-anchor="start" x="511.5" y="-283.8" font-family="Helvetica,sans-Serif" font-size="11.00" fill="#000000">license_number</text>
<polygon fill="none" stroke="#000000" points="616.5,-276.7 616.5,-298.7 708.5,-298.7 708.5,-276.7 616.5,-276.7"/>
<text text-anchor="start" x="619.5" y="-284.4" font-family="Helvetica,sans-Serif" font-size="11.00" fill="#000000">varchar[100]</text>
<polygon fill="none" stroke="#000000" points="491.5,-254.7 491.5,-276.7 616.5,-276.7 616.5,-254.7 491.5,-254.7"/>
<text text-anchor="start" x="511.5" y="-261.8" font-family="Helvetica,sans-Serif" font-size="11.00" fill="#000000">license_expiration</text>
<polygon fill="none" stroke="#000000" points="616.5,-254.7 616.5,-276.7 708.5,-276.7 708.5,-254.7 616.5,-254.7"/>
<text text-anchor="start" x="619.5" y="-262.4" font-family="Helvetica,sans-Serif" font-size="11.00" fill="#000000">date[13]</text>
<polygon fill="none" stroke="#000000" points="491.5,-232.7 491.5,-254.7 616.5,-254.7 616.5,-232.7 491.5,-232.7"/>
<text text-anchor="start" x="511.5" y="-239.8" font-family="Helvetica,sans-Serif" font-size="11.00" fill="#000000">notes</text>
<polygon fill="none" stroke="#000000" points="616.5,-232.7 616.5,-254.7 708.5,-254.7 708.5,-232.7 616.5,-232.7"/>
<text text-anchor="start" x="619.5" y="-240.4" font-family="Helvetica,sans-Serif" font-size="11.00" fill="#000000">text[2147483647]</text>
<polygon fill="none" stroke="#000000" points="491.5,-210.7 491.5,-232.7 616.5,-232.7 616.5,-210.7 491.5,-210.7"/>
<text text-anchor="start" x="511.5" y="-217.8" font-family="Helvetica,sans-Serif" font-size="11.00" fill="#000000">status</text>
<polygon fill="none" stroke="#000000" points="616.5,-210.7 616.5,-232.7 708.5,-232.7 708.5,-210.7 616.5,-210.7"/>
<text text-anchor="start" x="619.5" y="-218.4" font-family="Helvetica,sans-Serif" font-size="11.00" fill="#000000">varchar[50]</text>
<polygon fill="none" stroke="#000000" points="491.5,-188.7 491.5,-210.7 616.5,-210.7 616.5,-188.7 491.5,-188.7"/>
<text text-anchor="start" x="511.5" y="-195.8" font-family="Helvetica,sans-Serif" font-size="11.00" fill="#000000">created_at</text>
<polygon fill="none" stroke="#000000" points="616.5,-188.7 616.5,-210.7 708.5,-210.7 708.5,-188.7 616.5,-188.7"/>
<text text-anchor="start" x="619.1023" y="-196.4" font-family="Helvetica,sans-Serif" font-size="11.00" fill="#000000">timestamptz[35,6]</text>
<polygon fill="none" stroke="#000000" points="491.5,-166.7 491.5,-188.7 616.5,-188.7 616.5,-166.7 491.5,-166.7"/>
<text text-anchor="start" x="511.5" y="-173.8" font-family="Helvetica,sans-Serif" font-size="11.00" fill="#000000">updated_at</text>
<polygon fill="none" stroke="#000000" points="616.5,-166.7 616.5,-188.7 708.5,-188.7 708.5,-166.7 616.5,-166.7"/>
<text text-anchor="start" x="619.1023" y="-174.4" font-family="Helvetica,sans-Serif" font-size="11.00" fill="#000000">timestamptz[35,6]</text>
<polygon fill="none" stroke="#000000" points="491.5,-144.7 491.5,-166.7 616.5,-166.7 616.5,-144.7 491.5,-144.7"/>
<image xlink:href="../../images/foreignKeys.png" width="11px" height="12px" preserveAspectRatio="xMinYMin meet" x="496.5" y="-161.7"/>
<text text-anchor="start" x="511.5" y="-151.8" font-family="Helvetica,sans-Serif" font-size="11.00" fill="#000000">contact_id</text>
<polygon fill="none" stroke="#000000" points="616.5,-144.7 616.5,-166.7 708.5,-166.7 708.5,-144.7 616.5,-144.7"/>
<text text-anchor="start" x="619.5" y="-152.4" font-family="Helvetica,sans-Serif" font-size="11.00" fill="#000000">int8[19]</text>
<polygon fill="none" stroke="#000000" points="491.5,-122.7 491.5,-144.7 616.5,-144.7 616.5,-122.7 491.5,-122.7"/>
<image xlink:href="../../images/foreignKeys.png" width="11px" height="12px" preserveAspectRatio="xMinYMin meet" x="496.5" y="-139.7"/>
<text text-anchor="start" x="511.5" y="-129.8" font-family="Helvetica,sans-Serif" font-size="11.00" fill="#000000">created_by</text>
<polygon fill="none" stroke="#000000" points="616.5,-122.7 616.5,-144.7 708.5,-144.7 708.5,-122.7 616.5,-122.7"/>
<text text-anchor="start" x="619.5" y="-130.4" font-family="Helvetica,sans-Serif" font-size="11.00" fill="#000000">int8[19]</text>
<polygon fill="none" stroke="#000000" points="491.5,-100.7 491.5,-122.7 616.5,-122.7 616.5,-100.7 491.5,-100.7"/>
<image xlink:href="../../images/foreignKeys.png" width="11px" height="12px" preserveAspectRatio="xMinYMin meet" x="496.5" y="-117.7"/>
<text text-anchor="start" x="511.5" y="-107.8" font-family="Helvetica,sans-Serif" font-size="11.00" fill="#000000">updated_by</text>
<polygon fill="none" stroke="#000000" points="616.5,-100.7 616.5,-122.7 708.5,-122.7 708.5,-100.7 616.5,-100.7"/>
<text text-anchor="start" x="619.5" y="-108.4" font-family="Helvetica,sans-Serif" font-size="11.00" fill="#000000">int8[19]</text>
<polygon fill="#ffffff" stroke="transparent" points="491.5,-81.7 491.5,-100.7 558.5,-100.7 558.5,-81.7 491.5,-81.7"/>
<polygon fill="none" stroke="#000000" points="491.5,-81.7 491.5,-100.7 558.5,-100.7 558.5,-81.7 491.5,-81.7"/>
<text text-anchor="start" x="494.5" y="-87.8" font-family="Helvetica,sans-Serif" font-size="11.00" fill="#000000">&lt; 4</text>
<polygon fill="#ffffff" stroke="transparent" points="558.5,-81.7 558.5,-100.7 616.5,-100.7 616.5,-81.7 558.5,-81.7"/>
<polygon fill="none" stroke="#000000" points="558.5,-81.7 558.5,-100.7 616.5,-100.7 616.5,-81.7 558.5,-81.7"/>
<text text-anchor="start" x="607.3862" y="-87.8" font-family="Helvetica,sans-Serif" font-size="11.00" fill="#000000"> &#160;</text>
<polygon fill="#ffffff" stroke="transparent" points="616.5,-81.7 616.5,-100.7 708.5,-100.7 708.5,-81.7 616.5,-81.7"/>
<polygon fill="none" stroke="#000000" points="616.5,-81.7 616.5,-100.7 708.5,-100.7 708.5,-81.7 616.5,-81.7"/>
<text text-anchor="start" x="689.9053" y="-87.8" font-family="Helvetica,sans-Serif" font-size="11.00" fill="#000000">0 &gt;</text>
<polygon fill="none" stroke="#000000" stroke-width="2" points="490,-80.7 490,-388.7 709,-388.7 709,-80.7 490,-80.7"/>
</a>
</g>
</g>
<!-- drivers&#45;&gt;carriers -->
<g id="edge6" class="edge">
<title>drivers:w&#45;&gt;carriers:e</title>
<path fill="none" stroke="#000000" d="M477.3901,-327.5309C464.312,-318.452 461.7828,-297.7 440.5,-297.7"/>
<polygon fill="#000000" stroke="#000000" points="483.8279,-329.4331 490.4799,-335.1524 487.6639,-330.5665 491.5,-331.7 491.5,-331.7 491.5,-331.7 487.6639,-330.5665 492.5201,-328.2476 483.8279,-329.4331 483.8279,-329.4331"/>
<ellipse fill="none" stroke="#000000" cx="480.759" cy="-328.5263" rx="3.2" ry="3.2"/>
</g>
<!-- drivers&#45;&gt;contact_roles -->
<g id="edge7" class="edge">
<title>drivers:w&#45;&gt;contact_roles:e</title>
<path fill="none" stroke="#000000" d="M476.9587,-157.409C419.8267,-173.1318 510.3867,-293.16 448,-342.7 410.0619,-372.8258 386.7015,-351.1519 339,-342.7 319.8941,-339.3147 317.4034,-327.7 298,-327.7"/>
<polygon fill="#000000" stroke="#000000" points="483.5547,-156.6338 491.9202,-159.2754 487.5273,-156.1669 491.5,-155.7 491.5,-155.7 491.5,-155.7 487.5273,-156.1669 491.0798,-152.1246 483.5547,-156.6338 483.5547,-156.6338"/>
<ellipse fill="none" stroke="#000000" cx="480.3766" cy="-157.0074" rx="3.2" ry="3.2"/>
</g>
<!-- drivers&#45;&gt;users -->
<g id="edge8" class="edge">
<title>drivers:w&#45;&gt;users:e</title>
<path fill="none" stroke="#000000" d="M477.0071,-133.7599C339.7803,-134.9209 300.4142,-152.9487 160,-185.7 141.8355,-189.9368 138.1521,-196.7 119.5,-196.7"/>
<polygon fill="#000000" stroke="#000000" points="483.5001,-133.7331 491.5149,-137.3 487.5,-133.7165 491.5,-133.7 491.5,-133.7 491.5,-133.7 487.5,-133.7165 491.4851,-130.1 483.5001,-133.7331 483.5001,-133.7331"/>
<ellipse fill="none" stroke="#000000" cx="480.3001" cy="-133.7463" rx="3.2" ry="3.2"/>
</g>
<!-- drivers&#45;&gt;users -->
<g id="edge9" class="edge">
<title>drivers:w&#45;&gt;users:e</title>
<path fill="none" stroke="#000000" d="M477.047,-111.5917C339.7067,-109.5385 286.1401,-79.7477 160,-147.7 135.126,-161.0998 147.7537,-196.7 119.5,-196.7"/>
<polygon fill="#000000" stroke="#000000" points="483.5002,-111.64 491.473,-115.2999 487.5001,-111.67 491.5,-111.7 491.5,-111.7 491.5,-111.7 487.5001,-111.67 491.527,-108.1001 483.5002,-111.64 483.5002,-111.64"/>
<ellipse fill="none" stroke="#000000" cx="480.3003" cy="-111.616" rx="3.2" ry="3.2"/>
</g>
</g>
</svg>
