<?xml version="1.0" encoding="UTF-8" standalone="no"?>
<!DOCTYPE svg PUBLIC "-//W3C//DTD SVG 1.1//EN"
 "http://www.w3.org/Graphics/SVG/1.1/DTD/svg11.dtd">
<!-- Generated by graphviz version 2.40.1 (20161225.0304)
 -->
<!-- Title: oneDegreeRelationshipsDiagram Pages: 1 -->
<svg width="594pt" height="446pt"
 viewBox="0.00 0.00 594.00 446.20" xmlns="http://www.w3.org/2000/svg" xmlns:xlink="http://www.w3.org/1999/xlink">
<g id="graph0" class="graph" transform="scale(1 1) rotate(0) translate(4 442.2)">
<title>oneDegreeRelationshipsDiagram</title>
<polygon fill="#ffffff" stroke="transparent" points="-4,4 -4,-442.2 590,-442.2 590,4 -4,4"/>
<text text-anchor="middle" x="72.4936" y="-7.3" font-family="Helvetica,sans-Serif" font-size="11.00" fill="#000000">Generated by SchemaSpy</text>
<!-- delivery_status_codes -->
<g id="node1" class="node">
<title>delivery_status_codes</title>
<g id="a_node1"><a xlink:href="../../tables/delivery_status_codes.html" xlink:title="delivery_status_codes" target="_top">
<polygon fill="#ffffff" stroke="transparent" points="168,-137.2 168,-264.2 335,-264.2 335,-137.2 168,-137.2"/>
<polygon fill="#f5f5f5" stroke="transparent" points="168.5,-240.7 168.5,-263.7 335.5,-263.7 335.5,-240.7 168.5,-240.7"/>
<polygon fill="none" stroke="#000000" points="168.5,-240.7 168.5,-263.7 335.5,-263.7 335.5,-240.7 168.5,-240.7"/>
<text text-anchor="start" x="173.5" y="-249.3" font-family="Helvetica,sans-Serif" font-weight="bold" font-size="11.00" fill="#000000">delivery_status_codes</text>
<text text-anchor="start" x="301.0219" y="-248.8" font-family="Helvetica,sans-Serif" font-size="11.00" fill="#000000">[table]</text>
<polygon fill="none" stroke="#000000" points="168.5,-218.7 168.5,-240.7 335.5,-240.7 335.5,-218.7 168.5,-218.7"/>
<image xlink:href="../../images/primaryKeys.png" width="11px" height="12px" preserveAspectRatio="xMinYMin meet" x="173.5" y="-235.7"/>
<text text-anchor="start" x="197.5" y="-225.8" font-family="Helvetica,sans-Serif" font-size="11.00" fill="#000000">status_code</text>
<polygon fill="none" stroke="#000000" points="168.5,-196.7 168.5,-218.7 335.5,-218.7 335.5,-196.7 168.5,-196.7"/>
<image xlink:href="../../images/foreignKeys.png" width="11px" height="12px" preserveAspectRatio="xMinYMin meet" x="173.5" y="-213.7"/>
<text text-anchor="start" x="197.5" y="-203.8" font-family="Helvetica,sans-Serif" font-size="11.00" fill="#000000">created_by</text>
<polygon fill="none" stroke="#000000" points="168.5,-174.7 168.5,-196.7 335.5,-196.7 335.5,-174.7 168.5,-174.7"/>
<image xlink:href="../../images/foreignKeys.png" width="11px" height="12px" preserveAspectRatio="xMinYMin meet" x="173.5" y="-191.7"/>
<text text-anchor="start" x="197.5" y="-181.8" font-family="Helvetica,sans-Serif" font-size="11.00" fill="#000000">updated_by</text>
<polygon fill="none" stroke="#000000" points="168.5,-155.7 168.5,-174.7 335.5,-174.7 335.5,-155.7 168.5,-155.7"/>
<text text-anchor="start" x="171.5" y="-161.8" font-family="Helvetica,sans-Serif" font-size="11.00" fill="#000000">...</text>
<polygon fill="#ffffff" stroke="transparent" points="168.5,-136.7 168.5,-155.7 245.5,-155.7 245.5,-136.7 168.5,-136.7"/>
<polygon fill="none" stroke="#000000" points="168.5,-136.7 168.5,-155.7 245.5,-155.7 245.5,-136.7 168.5,-136.7"/>
<text text-anchor="start" x="171.5" y="-142.8" font-family="Helvetica,sans-Serif" font-size="11.00" fill="#000000">&lt; 2</text>
<polygon fill="#ffffff" stroke="transparent" points="245.5,-136.7 245.5,-155.7 285.5,-155.7 285.5,-136.7 245.5,-136.7"/>
<polygon fill="none" stroke="#000000" points="245.5,-136.7 245.5,-155.7 285.5,-155.7 285.5,-136.7 245.5,-136.7"/>
<text text-anchor="start" x="276.3862" y="-142.8" font-family="Helvetica,sans-Serif" font-size="11.00" fill="#000000"> &#160;</text>
<polygon fill="#ffffff" stroke="transparent" points="285.5,-136.7 285.5,-155.7 335.5,-155.7 335.5,-136.7 285.5,-136.7"/>
<polygon fill="none" stroke="#000000" points="285.5,-136.7 285.5,-155.7 335.5,-155.7 335.5,-136.7 285.5,-136.7"/>
<text text-anchor="start" x="316.9053" y="-142.8" font-family="Helvetica,sans-Serif" font-size="11.00" fill="#000000">1 &gt;</text>
</a>
</g>
</g>
<!-- users -->
<g id="node2" class="node">
<title>users</title>
<g id="a_node2"><a xlink:href="../../tables/users.html" xlink:title="users" target="_top">
<polygon fill="#ffffff" stroke="transparent" points="8,-38.2 8,-231.2 119,-231.2 119,-38.2 8,-38.2"/>
<polygon fill="#f5f5f5" stroke="transparent" points="8.5,-207.7 8.5,-230.7 119.5,-230.7 119.5,-207.7 8.5,-207.7"/>
<polygon fill="none" stroke="#000000" points="8.5,-207.7 8.5,-230.7 119.5,-230.7 119.5,-207.7 8.5,-207.7"/>
<text text-anchor="start" x="13.5" y="-216.3" font-family="Helvetica,sans-Serif" font-weight="bold" font-size="11.00" fill="#000000">users</text>
<text text-anchor="start" x="84.5437" y="-215.8" font-family="Helvetica,sans-Serif" font-size="11.00" fill="#000000">[table]</text>
<polygon fill="none" stroke="#000000" points="8.5,-185.7 8.5,-207.7 119.5,-207.7 119.5,-185.7 8.5,-185.7"/>
<image xlink:href="../../images/primaryKeys.png" width="11px" height="12px" preserveAspectRatio="xMinYMin meet" x="13.5" y="-202.7"/>
<text text-anchor="start" x="28.5" y="-192.8" font-family="Helvetica,sans-Serif" font-size="11.00" fill="#000000">id</text>
<polygon fill="#ffffff" stroke="transparent" points="8.5,-163.7 8.5,-185.7 119.5,-185.7 119.5,-163.7 8.5,-163.7"/>
<polygon fill="none" stroke="#000000" points="8.5,-163.7 8.5,-185.7 119.5,-185.7 119.5,-163.7 8.5,-163.7"/>
<text text-anchor="start" x="28.5" y="-170.8" font-family="Helvetica,sans-Serif" font-size="11.00" fill="#000000">username</text>
<polygon fill="#ffffff" stroke="transparent" points="8.5,-141.7 8.5,-163.7 119.5,-163.7 119.5,-141.7 8.5,-141.7"/>
<polygon fill="none" stroke="#000000" points="8.5,-141.7 8.5,-163.7 119.5,-163.7 119.5,-141.7 8.5,-141.7"/>
<text text-anchor="start" x="28.5" y="-148.8" font-family="Helvetica,sans-Serif" font-size="11.00" fill="#000000">email</text>
<polygon fill="#ffffff" stroke="transparent" points="8.5,-119.7 8.5,-141.7 119.5,-141.7 119.5,-119.7 8.5,-119.7"/>
<polygon fill="none" stroke="#000000" points="8.5,-119.7 8.5,-141.7 119.5,-141.7 119.5,-119.7 8.5,-119.7"/>
<image xlink:href="../../images/foreignKeys.png" width="11px" height="12px" preserveAspectRatio="xMinYMin meet" x="13.5" y="-136.7"/>
<text text-anchor="start" x="28.5" y="-126.8" font-family="Helvetica,sans-Serif" font-size="11.00" fill="#000000">department_id</text>
<polygon fill="none" stroke="#000000" points="8.5,-97.7 8.5,-119.7 119.5,-119.7 119.5,-97.7 8.5,-97.7"/>
<image xlink:href="../../images/foreignKeys.png" width="11px" height="12px" preserveAspectRatio="xMinYMin meet" x="13.5" y="-114.7"/>
<text text-anchor="start" x="28.5" y="-104.8" font-family="Helvetica,sans-Serif" font-size="11.00" fill="#000000">created_by</text>
<polygon fill="none" stroke="#000000" points="8.5,-75.7 8.5,-97.7 119.5,-97.7 119.5,-75.7 8.5,-75.7"/>
<image xlink:href="../../images/foreignKeys.png" width="11px" height="12px" preserveAspectRatio="xMinYMin meet" x="13.5" y="-92.7"/>
<text text-anchor="start" x="28.5" y="-82.8" font-family="Helvetica,sans-Serif" font-size="11.00" fill="#000000">updated_by</text>
<polygon fill="none" stroke="#000000" points="8.5,-56.7 8.5,-75.7 119.5,-75.7 119.5,-56.7 8.5,-56.7"/>
<text text-anchor="start" x="11.5" y="-62.8" font-family="Helvetica,sans-Serif" font-size="11.00" fill="#000000">...</text>
<polygon fill="#ffffff" stroke="transparent" points="8.5,-37.7 8.5,-56.7 38.5,-56.7 38.5,-37.7 8.5,-37.7"/>
<polygon fill="none" stroke="#000000" points="8.5,-37.7 8.5,-56.7 38.5,-56.7 38.5,-37.7 8.5,-37.7"/>
<text text-anchor="start" x="11.5" y="-43.8" font-family="Helvetica,sans-Serif" font-size="11.00" fill="#000000">&lt; 3</text>
<polygon fill="#ffffff" stroke="transparent" points="38.5,-37.7 38.5,-56.7 87.5,-56.7 87.5,-37.7 38.5,-37.7"/>
<polygon fill="none" stroke="#000000" points="38.5,-37.7 38.5,-56.7 87.5,-56.7 87.5,-37.7 38.5,-37.7"/>
<text text-anchor="start" x="45.9956" y="-43.8" font-family="Helvetica,sans-Serif" font-size="11.00" fill="#000000">10 rows</text>
<polygon fill="#ffffff" stroke="transparent" points="87.5,-37.7 87.5,-56.7 119.5,-56.7 119.5,-37.7 87.5,-37.7"/>
<polygon fill="none" stroke="#000000" points="87.5,-37.7 87.5,-56.7 119.5,-56.7 119.5,-37.7 87.5,-37.7"/>
<text text-anchor="start" x="94.7904" y="-43.8" font-family="Helvetica,sans-Serif" font-size="11.00" fill="#000000">66 &gt;</text>
</a>
</g>
</g>
<!-- delivery_status_codes&#45;&gt;users -->
<g id="edge1" class="edge">
<title>delivery_status_codes:w&#45;&gt;users:e</title>
<path fill="none" stroke="#000000" d="M154.2027,-205.8836C142.7382,-202.7593 136.0655,-196.7 119.5,-196.7"/>
<polygon fill="#000000" stroke="#000000" points="160.5638,-206.6917 168.0463,-211.2713 164.5319,-207.1958 168.5,-207.7 168.5,-207.7 168.5,-207.7 164.5319,-207.1958 168.9537,-204.1287 160.5638,-206.6917 160.5638,-206.6917"/>
<ellipse fill="none" stroke="#000000" cx="157.3893" cy="-206.2884" rx="3.2" ry="3.2"/>
</g>
<!-- delivery_status_codes&#45;&gt;users -->
<g id="edge2" class="edge">
<title>delivery_status_codes:w&#45;&gt;users:e</title>
<path fill="none" stroke="#000000" d="M154.2027,-187.5164C142.7382,-190.6407 136.0655,-196.7 119.5,-196.7"/>
<polygon fill="#000000" stroke="#000000" points="160.5638,-186.7083 168.9537,-189.2713 164.5319,-186.2042 168.5,-185.7 168.5,-185.7 168.5,-185.7 164.5319,-186.2042 168.0463,-182.1287 160.5638,-186.7083 160.5638,-186.7083"/>
<ellipse fill="none" stroke="#000000" cx="157.3893" cy="-187.1116" rx="3.2" ry="3.2"/>
</g>
<!-- events_log -->
<g id="node3" class="node">
<title>events_log</title>
<g id="a_node3"><a xlink:href="../../tables/events_log.html" xlink:title="events_log" target="_top">
<polygon fill="#ffffff" stroke="transparent" points="384,-70.7 384,-380.7 578,-380.7 578,-70.7 384,-70.7"/>
<polygon fill="#f5f5f5" stroke="transparent" points="386,-355.7 386,-378.7 576,-378.7 576,-355.7 386,-355.7"/>
<polygon fill="none" stroke="#000000" points="386,-355.7 386,-378.7 576,-378.7 576,-355.7 386,-355.7"/>
<text text-anchor="start" x="391" y="-364.3" font-family="Helvetica,sans-Serif" font-weight="bold" font-size="11.00" fill="#000000">events_log</text>
<text text-anchor="start" x="541.0437" y="-363.8" font-family="Helvetica,sans-Serif" font-size="11.00" fill="#000000">[table]</text>
<polygon fill="none" stroke="#000000" points="386,-333.7 386,-355.7 477,-355.7 477,-333.7 386,-333.7"/>
<image xlink:href="../../images/primaryKeys.png" width="11px" height="12px" preserveAspectRatio="xMinYMin meet" x="391" y="-350.7"/>
<text text-anchor="start" x="406" y="-340.8" font-family="Helvetica,sans-Serif" font-size="11.00" fill="#000000">event_id</text>
<polygon fill="none" stroke="#000000" points="477,-333.7 477,-355.7 576,-355.7 576,-333.7 477,-333.7"/>
<text text-anchor="start" x="480" y="-341.4" font-family="Helvetica,sans-Serif" font-size="11.00" fill="#000000">int8[19]</text>
<polygon fill="#ffffff" stroke="transparent" points="386,-311.7 386,-333.7 477,-333.7 477,-311.7 386,-311.7"/>
<polygon fill="none" stroke="#000000" points="386,-311.7 386,-333.7 477,-333.7 477,-311.7 386,-311.7"/>
<text text-anchor="start" x="406" y="-318.8" font-family="Helvetica,sans-Serif" font-size="11.00" fill="#000000">entity_type</text>
<polygon fill="none" stroke="#000000" points="477,-311.7 477,-333.7 576,-333.7 576,-311.7 477,-311.7"/>
<text text-anchor="start" x="480" y="-319.4" font-family="Helvetica,sans-Serif" font-size="11.00" fill="#000000">varchar[50]</text>
<polygon fill="#ffffff" stroke="transparent" points="386,-289.7 386,-311.7 477,-311.7 477,-289.7 386,-289.7"/>
<polygon fill="none" stroke="#000000" points="386,-289.7 386,-311.7 477,-311.7 477,-289.7 386,-289.7"/>
<text text-anchor="start" x="406" y="-296.8" font-family="Helvetica,sans-Serif" font-size="11.00" fill="#000000">entity_id</text>
<polygon fill="none" stroke="#000000" points="477,-289.7 477,-311.7 576,-311.7 576,-289.7 477,-289.7"/>
<text text-anchor="start" x="480" y="-297.4" font-family="Helvetica,sans-Serif" font-size="11.00" fill="#000000">int8[19]</text>
<polygon fill="none" stroke="#000000" points="386,-267.7 386,-289.7 477,-289.7 477,-267.7 386,-267.7"/>
<text text-anchor="start" x="406" y="-274.8" font-family="Helvetica,sans-Serif" font-size="11.00" fill="#000000">event_type</text>
<polygon fill="none" stroke="#000000" points="477,-267.7 477,-289.7 576,-289.7 576,-267.7 477,-267.7"/>
<text text-anchor="start" x="480" y="-275.4" font-family="Helvetica,sans-Serif" font-size="11.00" fill="#000000">varchar[100]</text>
<polygon fill="#ffffff" stroke="transparent" points="386,-245.7 386,-267.7 477,-267.7 477,-245.7 386,-245.7"/>
<polygon fill="none" stroke="#000000" points="386,-245.7 386,-267.7 477,-267.7 477,-245.7 386,-245.7"/>
<text text-anchor="start" x="406" y="-252.8" font-family="Helvetica,sans-Serif" font-size="11.00" fill="#000000">event_time</text>
<polygon fill="none" stroke="#000000" points="477,-245.7 477,-267.7 576,-267.7 576,-245.7 477,-245.7"/>
<text text-anchor="start" x="480" y="-253.4" font-family="Helvetica,sans-Serif" font-size="11.00" fill="#000000">timestamptz[35,6]</text>
<polygon fill="none" stroke="#000000" points="386,-223.7 386,-245.7 477,-245.7 477,-223.7 386,-223.7"/>
<image xlink:href="../../images/foreignKeys.png" width="11px" height="12px" preserveAspectRatio="xMinYMin meet" x="391" y="-240.7"/>
<text text-anchor="start" x="406" y="-230.8" font-family="Helvetica,sans-Serif" font-size="11.00" fill="#000000">location_id</text>
<polygon fill="none" stroke="#000000" points="477,-223.7 477,-245.7 576,-245.7 576,-223.7 477,-223.7"/>
<text text-anchor="start" x="480" y="-231.4" font-family="Helvetica,sans-Serif" font-size="11.00" fill="#000000">int8[19]</text>
<polygon fill="none" stroke="#000000" points="386,-201.7 386,-223.7 477,-223.7 477,-201.7 386,-201.7"/>
<image xlink:href="../../images/foreignKeys.png" width="11px" height="12px" preserveAspectRatio="xMinYMin meet" x="391" y="-218.7"/>
<text text-anchor="start" x="406" y="-208.8" font-family="Helvetica,sans-Serif" font-size="11.00" fill="#000000">status_code</text>
<polygon fill="none" stroke="#000000" points="477,-201.7 477,-223.7 576,-223.7 576,-201.7 477,-201.7"/>
<text text-anchor="start" x="480" y="-209.4" font-family="Helvetica,sans-Serif" font-size="11.00" fill="#000000">varchar[50]</text>
<polygon fill="none" stroke="#000000" points="386,-179.7 386,-201.7 477,-201.7 477,-179.7 386,-179.7"/>
<text text-anchor="start" x="406" y="-186.8" font-family="Helvetica,sans-Serif" font-size="11.00" fill="#000000">details</text>
<polygon fill="none" stroke="#000000" points="477,-179.7 477,-201.7 576,-201.7 576,-179.7 477,-179.7"/>
<text text-anchor="start" x="479.7258" y="-187.4" font-family="Helvetica,sans-Serif" font-size="11.00" fill="#000000">jsonb[2147483647]</text>
<polygon fill="none" stroke="#000000" points="386,-157.7 386,-179.7 477,-179.7 477,-157.7 386,-157.7"/>
<text text-anchor="start" x="406" y="-164.8" font-family="Helvetica,sans-Serif" font-size="11.00" fill="#000000">created_at</text>
<polygon fill="none" stroke="#000000" points="477,-157.7 477,-179.7 576,-179.7 576,-157.7 477,-157.7"/>
<text text-anchor="start" x="480" y="-165.4" font-family="Helvetica,sans-Serif" font-size="11.00" fill="#000000">timestamptz[35,6]</text>
<polygon fill="none" stroke="#000000" points="386,-135.7 386,-157.7 477,-157.7 477,-135.7 386,-135.7"/>
<image xlink:href="../../images/foreignKeys.png" width="11px" height="12px" preserveAspectRatio="xMinYMin meet" x="391" y="-152.7"/>
<text text-anchor="start" x="406" y="-142.8" font-family="Helvetica,sans-Serif" font-size="11.00" fill="#000000">created_by</text>
<polygon fill="none" stroke="#000000" points="477,-135.7 477,-157.7 576,-157.7 576,-135.7 477,-135.7"/>
<text text-anchor="start" x="480" y="-143.4" font-family="Helvetica,sans-Serif" font-size="11.00" fill="#000000">int8[19]</text>
<polygon fill="none" stroke="#000000" points="386,-113.7 386,-135.7 477,-135.7 477,-113.7 386,-113.7"/>
<text text-anchor="start" x="406" y="-120.8" font-family="Helvetica,sans-Serif" font-size="11.00" fill="#000000">updated_at</text>
<polygon fill="none" stroke="#000000" points="477,-113.7 477,-135.7 576,-135.7 576,-113.7 477,-113.7"/>
<text text-anchor="start" x="480" y="-121.4" font-family="Helvetica,sans-Serif" font-size="11.00" fill="#000000">timestamptz[35,6]</text>
<polygon fill="none" stroke="#000000" points="386,-91.7 386,-113.7 477,-113.7 477,-91.7 386,-91.7"/>
<image xlink:href="../../images/foreignKeys.png" width="11px" height="12px" preserveAspectRatio="xMinYMin meet" x="391" y="-108.7"/>
<text text-anchor="start" x="406" y="-98.8" font-family="Helvetica,sans-Serif" font-size="11.00" fill="#000000">updated_by</text>
<polygon fill="none" stroke="#000000" points="477,-91.7 477,-113.7 576,-113.7 576,-91.7 477,-91.7"/>
<text text-anchor="start" x="480" y="-99.4" font-family="Helvetica,sans-Serif" font-size="11.00" fill="#000000">int8[19]</text>
<polygon fill="#ffffff" stroke="transparent" points="386,-72.7 386,-91.7 436,-91.7 436,-72.7 386,-72.7"/>
<polygon fill="none" stroke="#000000" points="386,-72.7 386,-91.7 436,-91.7 436,-72.7 386,-72.7"/>
<text text-anchor="start" x="389" y="-78.8" font-family="Helvetica,sans-Serif" font-size="11.00" fill="#000000">&lt; 4</text>
<polygon fill="#ffffff" stroke="transparent" points="436,-72.7 436,-91.7 477,-91.7 477,-72.7 436,-72.7"/>
<polygon fill="none" stroke="#000000" points="436,-72.7 436,-91.7 477,-91.7 477,-72.7 436,-72.7"/>
<text text-anchor="start" x="467.8862" y="-78.8" font-family="Helvetica,sans-Serif" font-size="11.00" fill="#000000"> &#160;</text>
<polygon fill="#ffffff" stroke="transparent" points="477,-72.7 477,-91.7 576,-91.7 576,-72.7 477,-72.7"/>
<polygon fill="none" stroke="#000000" points="477,-72.7 477,-91.7 576,-91.7 576,-72.7 477,-72.7"/>
<text text-anchor="start" x="557.4053" y="-78.8" font-family="Helvetica,sans-Serif" font-size="11.00" fill="#000000">0 &gt;</text>
<polygon fill="none" stroke="#000000" stroke-width="2" points="385,-71.7 385,-379.7 577,-379.7 577,-71.7 385,-71.7"/>
</a>
</g>
</g>
<!-- events_log&#45;&gt;delivery_status_codes -->
<g id="edge5" class="edge">
<title>events_log:w&#45;&gt;delivery_status_codes:e</title>
<path fill="none" stroke="#000000" d="M371.4488,-215.3563C359.4659,-220.1375 353.2615,-229.7 335.5,-229.7"/>
<polygon fill="#000000" stroke="#000000" points="378.13,-214.1367 386.6465,-216.2415 382.065,-213.4183 386,-212.7 386,-212.7 386,-212.7 382.065,-213.4183 385.3535,-209.1585 378.13,-214.1367 378.13,-214.1367"/>
<ellipse fill="none" stroke="#000000" cx="374.9821" cy="-214.7113" rx="3.2" ry="3.2"/>
</g>
<!-- events_log&#45;&gt;users -->
<g id="edge3" class="edge">
<title>events_log:w&#45;&gt;users:e</title>
<path fill="none" stroke="#000000" d="M371.7277,-143.4639C362.539,-138.6795 357.6309,-129.9361 343,-126.7 263.586,-109.1351 230.4553,-86.0656 160,-126.7 128.8642,-144.6573 155.443,-196.7 119.5,-196.7"/>
<polygon fill="#000000" stroke="#000000" points="378.198,-144.9309 385.2039,-150.2109 382.099,-145.8155 386,-146.7 386,-146.7 386,-146.7 382.099,-145.8155 386.7961,-143.1891 378.198,-144.9309 378.198,-144.9309"/>
<ellipse fill="none" stroke="#000000" cx="375.0773" cy="-144.2233" rx="3.2" ry="3.2"/>
</g>
<!-- events_log&#45;&gt;users -->
<g id="edge6" class="edge">
<title>events_log:w&#45;&gt;users:e</title>
<path fill="none" stroke="#000000" d="M371.4164,-102.3013C281.2914,-97.3618 239.6294,-49.0837 160,-101.7 121.7058,-127.0035 165.399,-196.7 119.5,-196.7"/>
<polygon fill="#000000" stroke="#000000" points="378.003,-102.4813 385.9016,-106.2987 382.0015,-102.5906 386,-102.7 386,-102.7 386,-102.7 382.0015,-102.5906 386.0984,-99.1013 378.003,-102.4813 378.003,-102.4813"/>
<ellipse fill="none" stroke="#000000" cx="374.8042" cy="-102.3938" rx="3.2" ry="3.2"/>
</g>
<!-- locations -->
<g id="node4" class="node">
<title>locations</title>
<g id="a_node4"><a xlink:href="../../tables/locations.html" xlink:title="locations" target="_top">
<polygon fill="#ffffff" stroke="transparent" points="201,-285.2 201,-434.2 302,-434.2 302,-285.2 201,-285.2"/>
<polygon fill="#f5f5f5" stroke="transparent" points="201.5,-410.7 201.5,-433.7 302.5,-433.7 302.5,-410.7 201.5,-410.7"/>
<polygon fill="none" stroke="#000000" points="201.5,-410.7 201.5,-433.7 302.5,-433.7 302.5,-410.7 201.5,-410.7"/>
<text text-anchor="start" x="206.5" y="-419.3" font-family="Helvetica,sans-Serif" font-weight="bold" font-size="11.00" fill="#000000">locations</text>
<text text-anchor="start" x="267.5437" y="-418.8" font-family="Helvetica,sans-Serif" font-size="11.00" fill="#000000">[table]</text>
<polygon fill="none" stroke="#000000" points="201.5,-388.7 201.5,-410.7 302.5,-410.7 302.5,-388.7 201.5,-388.7"/>
<image xlink:href="../../images/primaryKeys.png" width="11px" height="12px" preserveAspectRatio="xMinYMin meet" x="206.5" y="-405.7"/>
<text text-anchor="start" x="221.5" y="-395.8" font-family="Helvetica,sans-Serif" font-size="11.00" fill="#000000">location_id</text>
<polygon fill="#ffffff" stroke="transparent" points="201.5,-366.7 201.5,-388.7 302.5,-388.7 302.5,-366.7 201.5,-366.7"/>
<polygon fill="none" stroke="#000000" points="201.5,-366.7 201.5,-388.7 302.5,-388.7 302.5,-366.7 201.5,-366.7"/>
<text text-anchor="start" x="221.5" y="-373.8" font-family="Helvetica,sans-Serif" font-size="11.00" fill="#000000">location_code</text>
<polygon fill="none" stroke="#000000" points="201.5,-344.7 201.5,-366.7 302.5,-366.7 302.5,-344.7 201.5,-344.7"/>
<image xlink:href="../../images/foreignKeys.png" width="11px" height="12px" preserveAspectRatio="xMinYMin meet" x="206.5" y="-361.7"/>
<text text-anchor="start" x="221.5" y="-351.8" font-family="Helvetica,sans-Serif" font-size="11.00" fill="#000000">created_by</text>
<polygon fill="none" stroke="#000000" points="201.5,-322.7 201.5,-344.7 302.5,-344.7 302.5,-322.7 201.5,-322.7"/>
<image xlink:href="../../images/foreignKeys.png" width="11px" height="12px" preserveAspectRatio="xMinYMin meet" x="206.5" y="-339.7"/>
<text text-anchor="start" x="221.5" y="-329.8" font-family="Helvetica,sans-Serif" font-size="11.00" fill="#000000">updated_by</text>
<polygon fill="none" stroke="#000000" points="201.5,-303.7 201.5,-322.7 302.5,-322.7 302.5,-303.7 201.5,-303.7"/>
<text text-anchor="start" x="204.5" y="-309.8" font-family="Helvetica,sans-Serif" font-size="11.00" fill="#000000">...</text>
<polygon fill="#ffffff" stroke="transparent" points="201.5,-284.7 201.5,-303.7 245.5,-303.7 245.5,-284.7 201.5,-284.7"/>
<polygon fill="none" stroke="#000000" points="201.5,-284.7 201.5,-303.7 245.5,-303.7 245.5,-284.7 201.5,-284.7"/>
<text text-anchor="start" x="204.5" y="-290.8" font-family="Helvetica,sans-Serif" font-size="11.00" fill="#000000">&lt; 2</text>
<polygon fill="#ffffff" stroke="transparent" points="245.5,-284.7 245.5,-303.7 269.5,-303.7 269.5,-284.7 245.5,-284.7"/>
<polygon fill="none" stroke="#000000" points="245.5,-284.7 245.5,-303.7 269.5,-303.7 269.5,-284.7 245.5,-284.7"/>
<text text-anchor="start" x="260.3862" y="-290.8" font-family="Helvetica,sans-Serif" font-size="11.00" fill="#000000"> &#160;</text>
<polygon fill="#ffffff" stroke="transparent" points="269.5,-284.7 269.5,-303.7 302.5,-303.7 302.5,-284.7 269.5,-284.7"/>
<polygon fill="none" stroke="#000000" points="269.5,-284.7 269.5,-303.7 302.5,-303.7 302.5,-284.7 269.5,-284.7"/>
<text text-anchor="start" x="283.9053" y="-290.8" font-family="Helvetica,sans-Serif" font-size="11.00" fill="#000000">6 &gt;</text>
</a>
</g>
</g>
<!-- events_log&#45;&gt;locations -->
<g id="edge4" class="edge">
<title>events_log:w&#45;&gt;locations:e</title>
<path fill="none" stroke="#000000" d="M371.6882,-236.7862C313.8336,-255.8864 379.231,-399.7 302.5,-399.7"/>
<polygon fill="#000000" stroke="#000000" points="378.0837,-235.854 386.5193,-238.2624 382.0418,-235.277 386,-234.7 386,-234.7 386,-234.7 382.0418,-235.277 385.4807,-231.1376 378.0837,-235.854 378.0837,-235.854"/>
<ellipse fill="none" stroke="#000000" cx="374.9171" cy="-236.3156" rx="3.2" ry="3.2"/>
</g>
<!-- locations&#45;&gt;users -->
<g id="edge7" class="edge">
<title>locations:w&#45;&gt;users:e</title>
<path fill="none" stroke="#000000" d="M191.0161,-345.7538C169.27,-310.9449 136.3495,-196.7 119.5,-196.7"/>
<polygon fill="#000000" stroke="#000000" points="195.6963,-350.1939 199.0223,-358.3117 198.5981,-352.947 201.5,-355.7 201.5,-355.7 201.5,-355.7 198.5981,-352.947 203.9777,-353.0883 195.6963,-350.1939 195.6963,-350.1939"/>
<ellipse fill="none" stroke="#000000" cx="193.3748" cy="-347.9915" rx="3.2" ry="3.2"/>
</g>
<!-- locations&#45;&gt;users -->
<g id="edge8" class="edge">
<title>locations:w&#45;&gt;users:e</title>
<path fill="none" stroke="#000000" d="M187.1918,-330.6031C171.3042,-321.9973 173.5252,-296.9616 160,-274.7 139.7181,-241.3171 158.5612,-196.7 119.5,-196.7"/>
<polygon fill="#000000" stroke="#000000" points="193.6811,-332.0076 200.7384,-337.2185 197.5905,-332.8538 201.5,-333.7 201.5,-333.7 201.5,-333.7 197.5905,-332.8538 202.2616,-330.1815 193.6811,-332.0076 193.6811,-332.0076"/>
<ellipse fill="none" stroke="#000000" cx="190.5535" cy="-331.3306" rx="3.2" ry="3.2"/>
</g>
</g>
</svg>
