<?xml version="1.0" encoding="UTF-8" standalone="no"?>
<!DOCTYPE svg PUBLIC "-//W3C//DTD SVG 1.1//EN"
 "http://www.w3.org/Graphics/SVG/1.1/DTD/svg11.dtd">
<!-- Generated by graphviz version 2.40.1 (20161225.0304)
 -->
<!-- Title: oneDegreeRelationshipsDiagram Pages: 1 -->
<svg width="573pt" height="515pt"
 viewBox="0.00 0.00 573.00 514.70" xmlns="http://www.w3.org/2000/svg" xmlns:xlink="http://www.w3.org/1999/xlink">
<g id="graph0" class="graph" transform="scale(1 1) rotate(0) translate(4 510.7)">
<title>oneDegreeRelationshipsDiagram</title>
<polygon fill="#ffffff" stroke="transparent" points="-4,4 -4,-510.7 569,-510.7 569,4 -4,4"/>
<text text-anchor="middle" x="72.4936" y="-7.3" font-family="Helvetica,sans-Serif" font-size="11.00" fill="#000000">Generated by SchemaSpy</text>
<!-- order_detail -->
<g id="node1" class="node">
<title>order_detail</title>
<g id="a_node1"><a xlink:href="../../tables/order_detail.html" xlink:title="order_detail" target="_top">
<polygon fill="#ffffff" stroke="transparent" points="434,-82.2 434,-253.2 557,-253.2 557,-82.2 434,-82.2"/>
<polygon fill="#f5f5f5" stroke="transparent" points="434.5,-229.7 434.5,-252.7 557.5,-252.7 557.5,-229.7 434.5,-229.7"/>
<polygon fill="none" stroke="#000000" points="434.5,-229.7 434.5,-252.7 557.5,-252.7 557.5,-229.7 434.5,-229.7"/>
<text text-anchor="start" x="439.5" y="-238.3" font-family="Helvetica,sans-Serif" font-weight="bold" font-size="11.00" fill="#000000">order_detail</text>
<text text-anchor="start" x="522.5437" y="-237.8" font-family="Helvetica,sans-Serif" font-size="11.00" fill="#000000">[table]</text>
<polygon fill="none" stroke="#000000" points="434.5,-207.7 434.5,-229.7 557.5,-229.7 557.5,-207.7 434.5,-207.7"/>
<image xlink:href="../../images/primaryKeys.png" width="11px" height="12px" preserveAspectRatio="xMinYMin meet" x="439.5" y="-224.7"/>
<text text-anchor="start" x="454.5" y="-214.8" font-family="Helvetica,sans-Serif" font-size="11.00" fill="#000000">id</text>
<polygon fill="#ffffff" stroke="transparent" points="434.5,-185.7 434.5,-207.7 557.5,-207.7 557.5,-185.7 434.5,-185.7"/>
<polygon fill="none" stroke="#000000" points="434.5,-185.7 434.5,-207.7 557.5,-207.7 557.5,-185.7 434.5,-185.7"/>
<image xlink:href="../../images/foreignKeys.png" width="11px" height="12px" preserveAspectRatio="xMinYMin meet" x="439.5" y="-202.7"/>
<text text-anchor="start" x="454.5" y="-192.8" font-family="Helvetica,sans-Serif" font-size="11.00" fill="#000000">order_id</text>
<polygon fill="#ffffff" stroke="transparent" points="434.5,-163.7 434.5,-185.7 557.5,-185.7 557.5,-163.7 434.5,-163.7"/>
<polygon fill="none" stroke="#000000" points="434.5,-163.7 434.5,-185.7 557.5,-185.7 557.5,-163.7 434.5,-163.7"/>
<image xlink:href="../../images/foreignKeys.png" width="11px" height="12px" preserveAspectRatio="xMinYMin meet" x="439.5" y="-180.7"/>
<text text-anchor="start" x="454.5" y="-170.8" font-family="Helvetica,sans-Serif" font-size="11.00" fill="#000000">detail_id</text>
<polygon fill="none" stroke="#000000" points="434.5,-141.7 434.5,-163.7 557.5,-163.7 557.5,-141.7 434.5,-141.7"/>
<image xlink:href="../../images/foreignKeys.png" width="11px" height="12px" preserveAspectRatio="xMinYMin meet" x="439.5" y="-158.7"/>
<text text-anchor="start" x="454.5" y="-148.8" font-family="Helvetica,sans-Serif" font-size="11.00" fill="#000000">created_by</text>
<polygon fill="none" stroke="#000000" points="434.5,-119.7 434.5,-141.7 557.5,-141.7 557.5,-119.7 434.5,-119.7"/>
<image xlink:href="../../images/foreignKeys.png" width="11px" height="12px" preserveAspectRatio="xMinYMin meet" x="439.5" y="-136.7"/>
<text text-anchor="start" x="454.5" y="-126.8" font-family="Helvetica,sans-Serif" font-size="11.00" fill="#000000">updated_by</text>
<polygon fill="none" stroke="#000000" points="434.5,-100.7 434.5,-119.7 557.5,-119.7 557.5,-100.7 434.5,-100.7"/>
<text text-anchor="start" x="437.5" y="-106.8" font-family="Helvetica,sans-Serif" font-size="11.00" fill="#000000">...</text>
<polygon fill="#ffffff" stroke="transparent" points="434.5,-81.7 434.5,-100.7 473.5,-100.7 473.5,-81.7 434.5,-81.7"/>
<polygon fill="none" stroke="#000000" points="434.5,-81.7 434.5,-100.7 473.5,-100.7 473.5,-81.7 434.5,-81.7"/>
<text text-anchor="start" x="437.5" y="-87.8" font-family="Helvetica,sans-Serif" font-size="11.00" fill="#000000">&lt; 4</text>
<polygon fill="#ffffff" stroke="transparent" points="473.5,-81.7 473.5,-100.7 526.5,-100.7 526.5,-81.7 473.5,-81.7"/>
<polygon fill="none" stroke="#000000" points="473.5,-81.7 473.5,-100.7 526.5,-100.7 526.5,-81.7 473.5,-81.7"/>
<text text-anchor="start" x="484.9956" y="-87.8" font-family="Helvetica,sans-Serif" font-size="11.00" fill="#000000">10 rows</text>
<polygon fill="#ffffff" stroke="transparent" points="526.5,-81.7 526.5,-100.7 557.5,-100.7 557.5,-81.7 526.5,-81.7"/>
<polygon fill="none" stroke="#000000" points="526.5,-81.7 526.5,-100.7 557.5,-100.7 557.5,-81.7 526.5,-81.7"/>
<text text-anchor="start" x="538.9053" y="-87.8" font-family="Helvetica,sans-Serif" font-size="11.00" fill="#000000">3 &gt;</text>
</a>
</g>
</g>
<!-- users -->
<g id="node2" class="node">
<title>users</title>
<g id="a_node2"><a xlink:href="../../tables/users.html" xlink:title="users" target="_top">
<polygon fill="#ffffff" stroke="transparent" points="8,-38.2 8,-231.2 119,-231.2 119,-38.2 8,-38.2"/>
<polygon fill="#f5f5f5" stroke="transparent" points="8.5,-207.7 8.5,-230.7 119.5,-230.7 119.5,-207.7 8.5,-207.7"/>
<polygon fill="none" stroke="#000000" points="8.5,-207.7 8.5,-230.7 119.5,-230.7 119.5,-207.7 8.5,-207.7"/>
<text text-anchor="start" x="13.5" y="-216.3" font-family="Helvetica,sans-Serif" font-weight="bold" font-size="11.00" fill="#000000">users</text>
<text text-anchor="start" x="84.5437" y="-215.8" font-family="Helvetica,sans-Serif" font-size="11.00" fill="#000000">[table]</text>
<polygon fill="none" stroke="#000000" points="8.5,-185.7 8.5,-207.7 119.5,-207.7 119.5,-185.7 8.5,-185.7"/>
<image xlink:href="../../images/primaryKeys.png" width="11px" height="12px" preserveAspectRatio="xMinYMin meet" x="13.5" y="-202.7"/>
<text text-anchor="start" x="28.5" y="-192.8" font-family="Helvetica,sans-Serif" font-size="11.00" fill="#000000">id</text>
<polygon fill="#ffffff" stroke="transparent" points="8.5,-163.7 8.5,-185.7 119.5,-185.7 119.5,-163.7 8.5,-163.7"/>
<polygon fill="none" stroke="#000000" points="8.5,-163.7 8.5,-185.7 119.5,-185.7 119.5,-163.7 8.5,-163.7"/>
<text text-anchor="start" x="28.5" y="-170.8" font-family="Helvetica,sans-Serif" font-size="11.00" fill="#000000">username</text>
<polygon fill="#ffffff" stroke="transparent" points="8.5,-141.7 8.5,-163.7 119.5,-163.7 119.5,-141.7 8.5,-141.7"/>
<polygon fill="none" stroke="#000000" points="8.5,-141.7 8.5,-163.7 119.5,-163.7 119.5,-141.7 8.5,-141.7"/>
<text text-anchor="start" x="28.5" y="-148.8" font-family="Helvetica,sans-Serif" font-size="11.00" fill="#000000">email</text>
<polygon fill="#ffffff" stroke="transparent" points="8.5,-119.7 8.5,-141.7 119.5,-141.7 119.5,-119.7 8.5,-119.7"/>
<polygon fill="none" stroke="#000000" points="8.5,-119.7 8.5,-141.7 119.5,-141.7 119.5,-119.7 8.5,-119.7"/>
<image xlink:href="../../images/foreignKeys.png" width="11px" height="12px" preserveAspectRatio="xMinYMin meet" x="13.5" y="-136.7"/>
<text text-anchor="start" x="28.5" y="-126.8" font-family="Helvetica,sans-Serif" font-size="11.00" fill="#000000">department_id</text>
<polygon fill="none" stroke="#000000" points="8.5,-97.7 8.5,-119.7 119.5,-119.7 119.5,-97.7 8.5,-97.7"/>
<image xlink:href="../../images/foreignKeys.png" width="11px" height="12px" preserveAspectRatio="xMinYMin meet" x="13.5" y="-114.7"/>
<text text-anchor="start" x="28.5" y="-104.8" font-family="Helvetica,sans-Serif" font-size="11.00" fill="#000000">created_by</text>
<polygon fill="none" stroke="#000000" points="8.5,-75.7 8.5,-97.7 119.5,-97.7 119.5,-75.7 8.5,-75.7"/>
<image xlink:href="../../images/foreignKeys.png" width="11px" height="12px" preserveAspectRatio="xMinYMin meet" x="13.5" y="-92.7"/>
<text text-anchor="start" x="28.5" y="-82.8" font-family="Helvetica,sans-Serif" font-size="11.00" fill="#000000">updated_by</text>
<polygon fill="none" stroke="#000000" points="8.5,-56.7 8.5,-75.7 119.5,-75.7 119.5,-56.7 8.5,-56.7"/>
<text text-anchor="start" x="11.5" y="-62.8" font-family="Helvetica,sans-Serif" font-size="11.00" fill="#000000">...</text>
<polygon fill="#ffffff" stroke="transparent" points="8.5,-37.7 8.5,-56.7 38.5,-56.7 38.5,-37.7 8.5,-37.7"/>
<polygon fill="none" stroke="#000000" points="8.5,-37.7 8.5,-56.7 38.5,-56.7 38.5,-37.7 8.5,-37.7"/>
<text text-anchor="start" x="11.5" y="-43.8" font-family="Helvetica,sans-Serif" font-size="11.00" fill="#000000">&lt; 3</text>
<polygon fill="#ffffff" stroke="transparent" points="38.5,-37.7 38.5,-56.7 87.5,-56.7 87.5,-37.7 38.5,-37.7"/>
<polygon fill="none" stroke="#000000" points="38.5,-37.7 38.5,-56.7 87.5,-56.7 87.5,-37.7 38.5,-37.7"/>
<text text-anchor="start" x="45.9956" y="-43.8" font-family="Helvetica,sans-Serif" font-size="11.00" fill="#000000">10 rows</text>
<polygon fill="#ffffff" stroke="transparent" points="87.5,-37.7 87.5,-56.7 119.5,-56.7 119.5,-37.7 87.5,-37.7"/>
<polygon fill="none" stroke="#000000" points="87.5,-37.7 87.5,-56.7 119.5,-56.7 119.5,-37.7 87.5,-37.7"/>
<text text-anchor="start" x="94.7904" y="-43.8" font-family="Helvetica,sans-Serif" font-size="11.00" fill="#000000">66 &gt;</text>
</a>
</g>
</g>
<!-- order_detail&#45;&gt;users -->
<g id="edge1" class="edge">
<title>order_detail:w&#45;&gt;users:e</title>
<path fill="none" stroke="#000000" d="M419.8904,-152.5137C309.1156,-149.6758 268.5599,-115.9767 160,-159.7 137.3846,-168.8085 143.8807,-196.7 119.5,-196.7"/>
<polygon fill="#000000" stroke="#000000" points="426.5007,-152.5979 434.4541,-156.2997 430.5003,-152.649 434.5,-152.7 434.5,-152.7 434.5,-152.7 430.5003,-152.649 434.5459,-149.1003 426.5007,-152.5979 426.5007,-152.5979"/>
<ellipse fill="none" stroke="#000000" cx="423.3009" cy="-152.5571" rx="3.2" ry="3.2"/>
</g>
<!-- order_detail&#45;&gt;users -->
<g id="edge3" class="edge">
<title>order_detail:w&#45;&gt;users:e</title>
<path fill="none" stroke="#000000" d="M419.8628,-130.4348C308.6427,-126.3914 262.4954,-78.258 160,-134.7 131.1688,-150.5767 152.4137,-196.7 119.5,-196.7"/>
<polygon fill="#000000" stroke="#000000" points="426.5013,-130.555 434.4348,-134.2994 430.5007,-130.6275 434.5,-130.7 434.5,-130.7 434.5,-130.7 430.5007,-130.6275 434.5652,-127.1006 426.5013,-130.555 426.5013,-130.555"/>
<ellipse fill="none" stroke="#000000" cx="423.3018" cy="-130.497" rx="3.2" ry="3.2"/>
</g>
<!-- order_detail_item -->
<g id="node3" class="node">
<title>order_detail_item</title>
<g id="a_node3"><a xlink:href="../../tables/order_detail_item.html" xlink:title="order_detail_item" target="_top">
<polygon fill="#ffffff" stroke="transparent" points="168,-170.7 168,-502.7 385,-502.7 385,-170.7 168,-170.7"/>
<polygon fill="#f5f5f5" stroke="transparent" points="170.5,-477.7 170.5,-500.7 383.5,-500.7 383.5,-477.7 170.5,-477.7"/>
<polygon fill="none" stroke="#000000" points="170.5,-477.7 170.5,-500.7 383.5,-500.7 383.5,-477.7 170.5,-477.7"/>
<text text-anchor="start" x="175.5" y="-486.3" font-family="Helvetica,sans-Serif" font-weight="bold" font-size="11.00" fill="#000000">order_detail_item</text>
<text text-anchor="start" x="348.5437" y="-485.8" font-family="Helvetica,sans-Serif" font-size="11.00" fill="#000000">[table]</text>
<polygon fill="none" stroke="#000000" points="170.5,-455.7 170.5,-477.7 291.5,-477.7 291.5,-455.7 170.5,-455.7"/>
<image xlink:href="../../images/primaryKeys.png" width="11px" height="12px" preserveAspectRatio="xMinYMin meet" x="175.5" y="-472.7"/>
<text text-anchor="start" x="190.5" y="-462.8" font-family="Helvetica,sans-Serif" font-size="11.00" fill="#000000">id</text>
<polygon fill="none" stroke="#000000" points="291.5,-455.7 291.5,-477.7 383.5,-477.7 383.5,-455.7 291.5,-455.7"/>
<text text-anchor="start" x="294.5" y="-463.4" font-family="Helvetica,sans-Serif" font-size="11.00" fill="#000000">bigserial[19]</text>
<polygon fill="#ffffff" stroke="transparent" points="170.5,-433.7 170.5,-455.7 291.5,-455.7 291.5,-433.7 170.5,-433.7"/>
<polygon fill="none" stroke="#000000" points="170.5,-433.7 170.5,-455.7 291.5,-455.7 291.5,-433.7 170.5,-433.7"/>
<text text-anchor="start" x="190.5" y="-440.8" font-family="Helvetica,sans-Serif" font-size="11.00" fill="#000000">detail_name</text>
<polygon fill="none" stroke="#000000" points="291.5,-433.7 291.5,-455.7 383.5,-455.7 383.5,-433.7 291.5,-433.7"/>
<text text-anchor="start" x="294.5" y="-441.4" font-family="Helvetica,sans-Serif" font-size="11.00" fill="#000000">varchar[50]</text>
<polygon fill="none" stroke="#000000" points="170.5,-411.7 170.5,-433.7 291.5,-433.7 291.5,-411.7 170.5,-411.7"/>
<text text-anchor="start" x="190.5" y="-418.8" font-family="Helvetica,sans-Serif" font-size="11.00" fill="#000000">sku</text>
<polygon fill="none" stroke="#000000" points="291.5,-411.7 291.5,-433.7 383.5,-433.7 383.5,-411.7 291.5,-411.7"/>
<text text-anchor="start" x="294.5" y="-419.4" font-family="Helvetica,sans-Serif" font-size="11.00" fill="#000000">varchar[200]</text>
<polygon fill="none" stroke="#000000" points="170.5,-389.7 170.5,-411.7 291.5,-411.7 291.5,-389.7 170.5,-389.7"/>
<text text-anchor="start" x="190.5" y="-396.8" font-family="Helvetica,sans-Serif" font-size="11.00" fill="#000000">description</text>
<polygon fill="none" stroke="#000000" points="291.5,-389.7 291.5,-411.7 383.5,-411.7 383.5,-389.7 291.5,-389.7"/>
<text text-anchor="start" x="294.5" y="-397.4" font-family="Helvetica,sans-Serif" font-size="11.00" fill="#000000">text[2147483647]</text>
<polygon fill="none" stroke="#000000" points="170.5,-367.7 170.5,-389.7 291.5,-389.7 291.5,-367.7 170.5,-367.7"/>
<text text-anchor="start" x="190.5" y="-374.8" font-family="Helvetica,sans-Serif" font-size="11.00" fill="#000000">stock_quantity</text>
<polygon fill="none" stroke="#000000" points="291.5,-367.7 291.5,-389.7 383.5,-389.7 383.5,-367.7 291.5,-367.7"/>
<text text-anchor="start" x="294.5" y="-375.4" font-family="Helvetica,sans-Serif" font-size="11.00" fill="#000000">int4[10]</text>
<polygon fill="none" stroke="#000000" points="170.5,-345.7 170.5,-367.7 291.5,-367.7 291.5,-345.7 170.5,-345.7"/>
<text text-anchor="start" x="190.5" y="-352.8" font-family="Helvetica,sans-Serif" font-size="11.00" fill="#000000">status</text>
<polygon fill="none" stroke="#000000" points="291.5,-345.7 291.5,-367.7 383.5,-367.7 383.5,-345.7 291.5,-345.7"/>
<text text-anchor="start" x="294.5" y="-353.4" font-family="Helvetica,sans-Serif" font-size="11.00" fill="#000000">varchar[20]</text>
<polygon fill="none" stroke="#000000" points="170.5,-323.7 170.5,-345.7 291.5,-345.7 291.5,-323.7 170.5,-323.7"/>
<text text-anchor="start" x="190.5" y="-330.8" font-family="Helvetica,sans-Serif" font-size="11.00" fill="#000000">created_at</text>
<polygon fill="none" stroke="#000000" points="291.5,-323.7 291.5,-345.7 383.5,-345.7 383.5,-323.7 291.5,-323.7"/>
<text text-anchor="start" x="294.1023" y="-331.4" font-family="Helvetica,sans-Serif" font-size="11.00" fill="#000000">timestamptz[35,6]</text>
<polygon fill="none" stroke="#000000" points="170.5,-301.7 170.5,-323.7 291.5,-323.7 291.5,-301.7 170.5,-301.7"/>
<text text-anchor="start" x="190.5" y="-308.8" font-family="Helvetica,sans-Serif" font-size="11.00" fill="#000000">updated_at</text>
<polygon fill="none" stroke="#000000" points="291.5,-301.7 291.5,-323.7 383.5,-323.7 383.5,-301.7 291.5,-301.7"/>
<text text-anchor="start" x="294.1023" y="-309.4" font-family="Helvetica,sans-Serif" font-size="11.00" fill="#000000">timestamptz[35,6]</text>
<polygon fill="none" stroke="#000000" points="170.5,-279.7 170.5,-301.7 291.5,-301.7 291.5,-279.7 170.5,-279.7"/>
<text text-anchor="start" x="190.5" y="-286.8" font-family="Helvetica,sans-Serif" font-size="11.00" fill="#000000">fba</text>
<polygon fill="none" stroke="#000000" points="291.5,-279.7 291.5,-301.7 383.5,-301.7 383.5,-279.7 291.5,-279.7"/>
<text text-anchor="start" x="294.5" y="-287.4" font-family="Helvetica,sans-Serif" font-size="11.00" fill="#000000">varchar[100]</text>
<polygon fill="none" stroke="#000000" points="170.5,-257.7 170.5,-279.7 291.5,-279.7 291.5,-257.7 170.5,-257.7"/>
<image xlink:href="../../images/foreignKeys.png" width="11px" height="12px" preserveAspectRatio="xMinYMin meet" x="175.5" y="-274.7"/>
<text text-anchor="start" x="190.5" y="-264.8" font-family="Helvetica,sans-Serif" font-size="11.00" fill="#000000">created_by</text>
<polygon fill="none" stroke="#000000" points="291.5,-257.7 291.5,-279.7 383.5,-279.7 383.5,-257.7 291.5,-257.7"/>
<text text-anchor="start" x="294.5" y="-265.4" font-family="Helvetica,sans-Serif" font-size="11.00" fill="#000000">int8[19]</text>
<polygon fill="none" stroke="#000000" points="170.5,-235.7 170.5,-257.7 291.5,-257.7 291.5,-235.7 170.5,-235.7"/>
<image xlink:href="../../images/foreignKeys.png" width="11px" height="12px" preserveAspectRatio="xMinYMin meet" x="175.5" y="-252.7"/>
<text text-anchor="start" x="190.5" y="-242.8" font-family="Helvetica,sans-Serif" font-size="11.00" fill="#000000">updated_by</text>
<polygon fill="none" stroke="#000000" points="291.5,-235.7 291.5,-257.7 383.5,-257.7 383.5,-235.7 291.5,-235.7"/>
<text text-anchor="start" x="294.5" y="-243.4" font-family="Helvetica,sans-Serif" font-size="11.00" fill="#000000">int8[19]</text>
<polygon fill="none" stroke="#000000" points="170.5,-213.7 170.5,-235.7 291.5,-235.7 291.5,-213.7 170.5,-213.7"/>
<image xlink:href="../../images/foreignKeys.png" width="11px" height="12px" preserveAspectRatio="xMinYMin meet" x="175.5" y="-230.7"/>
<text text-anchor="start" x="190.5" y="-220.8" font-family="Helvetica,sans-Serif" font-size="11.00" fill="#000000">detail_id</text>
<polygon fill="none" stroke="#000000" points="291.5,-213.7 291.5,-235.7 383.5,-235.7 383.5,-213.7 291.5,-213.7"/>
<text text-anchor="start" x="294.5" y="-221.4" font-family="Helvetica,sans-Serif" font-size="11.00" fill="#000000">int8[19]</text>
<polygon fill="none" stroke="#000000" points="170.5,-191.7 170.5,-213.7 291.5,-213.7 291.5,-191.7 170.5,-191.7"/>
<text text-anchor="start" x="190.5" y="-198.8" font-family="Helvetica,sans-Serif" font-size="11.00" fill="#000000">volume</text>
<polygon fill="none" stroke="#000000" points="291.5,-191.7 291.5,-213.7 383.5,-213.7 383.5,-191.7 291.5,-191.7"/>
<text text-anchor="start" x="294.5" y="-199.4" font-family="Helvetica,sans-Serif" font-size="11.00" fill="#000000">numeric[0]</text>
<polygon fill="#ffffff" stroke="transparent" points="170.5,-172.7 170.5,-191.7 222.5,-191.7 222.5,-172.7 170.5,-172.7"/>
<polygon fill="none" stroke="#000000" points="170.5,-172.7 170.5,-191.7 222.5,-191.7 222.5,-172.7 170.5,-172.7"/>
<text text-anchor="start" x="173.5" y="-178.8" font-family="Helvetica,sans-Serif" font-size="11.00" fill="#000000">&lt; 3</text>
<polygon fill="#ffffff" stroke="transparent" points="222.5,-172.7 222.5,-191.7 291.5,-191.7 291.5,-172.7 222.5,-172.7"/>
<polygon fill="none" stroke="#000000" points="222.5,-172.7 222.5,-191.7 291.5,-191.7 291.5,-172.7 222.5,-172.7"/>
<text text-anchor="start" x="256.1105" y="-178.8" font-family="Helvetica,sans-Serif" font-size="11.00" fill="#000000">8 rows</text>
<polygon fill="#ffffff" stroke="transparent" points="291.5,-172.7 291.5,-191.7 383.5,-191.7 383.5,-172.7 291.5,-172.7"/>
<polygon fill="none" stroke="#000000" points="291.5,-172.7 291.5,-191.7 383.5,-191.7 383.5,-172.7 291.5,-172.7"/>
<text text-anchor="start" x="364.9053" y="-178.8" font-family="Helvetica,sans-Serif" font-size="11.00" fill="#000000">1 &gt;</text>
<polygon fill="none" stroke="#000000" stroke-width="2" points="169,-171.7 169,-501.7 384,-501.7 384,-171.7 169,-171.7"/>
</a>
</g>
</g>
<!-- order_detail&#45;&gt;order_detail_item -->
<g id="edge2" class="edge">
<title>order_detail:w&#45;&gt;order_detail_item:e</title>
<path fill="none" stroke="#000000" d="M419.9793,-176.1334C319.6089,-198.1619 509.8389,-466.7 383.5,-466.7"/>
<polygon fill="#000000" stroke="#000000" points="426.5387,-175.4859 434.8537,-178.2826 430.5193,-175.093 434.5,-174.7 434.5,-174.7 434.5,-174.7 430.5193,-175.093 434.1463,-171.1174 426.5387,-175.4859 426.5387,-175.4859"/>
<ellipse fill="none" stroke="#000000" cx="423.3542" cy="-175.8003" rx="3.2" ry="3.2"/>
</g>
<!-- order_detail_item&#45;&gt;order_detail -->
<g id="edge5" class="edge">
<title>order_detail_item:w&#45;&gt;order_detail:e</title>
<path fill="none" stroke="#000000" d="M184.7568,-220.9836C233.8649,-208.1824 393,-166.7 393,-166.7 428.0775,-191.246 390.9225,-232.654 426,-257.2 426,-257.2 557.5,-218.7 557.5,-218.7"/>
<polygon fill="#000000" stroke="#000000" points="178.2413,-222.682 169.5919,-221.2164 174.3707,-223.691 170.5,-224.7 170.5,-224.7 170.5,-224.7 174.3707,-223.691 171.4081,-228.1836 178.2413,-222.682 178.2413,-222.682"/>
<ellipse fill="none" stroke="#000000" cx="181.3378" cy="-221.8748" rx="3.2" ry="3.2"/>
</g>
<!-- order_detail_item&#45;&gt;users -->
<g id="edge4" class="edge">
<title>order_detail_item:w&#45;&gt;users:e</title>
<path fill="none" stroke="#000000" d="M156.7466,-264.1961C138.0961,-248.4335 152.7404,-196.7 119.5,-196.7"/>
<polygon fill="#000000" stroke="#000000" points="162.8973,-266.2102 169.3796,-272.1212 166.6986,-267.4551 170.5,-268.7 170.5,-268.7 170.5,-268.7 166.6986,-267.4551 171.6204,-265.2788 162.8973,-266.2102 162.8973,-266.2102"/>
<ellipse fill="none" stroke="#000000" cx="159.8562" cy="-265.2143" rx="3.2" ry="3.2"/>
</g>
<!-- order_detail_item&#45;&gt;users -->
<g id="edge6" class="edge">
<title>order_detail_item:w&#45;&gt;users:e</title>
<path fill="none" stroke="#000000" d="M156.7263,-242.0857C141.8844,-229.7078 145.291,-196.7 119.5,-196.7"/>
<polygon fill="#000000" stroke="#000000" points="162.9143,-244.1587 169.3564,-250.1135 166.7072,-245.4294 170.5,-246.7 170.5,-246.7 170.5,-246.7 166.7072,-245.4294 171.6436,-243.2865 162.9143,-244.1587 162.9143,-244.1587"/>
<ellipse fill="none" stroke="#000000" cx="159.8801" cy="-243.1422" rx="3.2" ry="3.2"/>
</g>
</g>
</svg>
