<?xml version="1.0" encoding="UTF-8" standalone="no"?>
<!DOCTYPE svg PUBLIC "-//W3C//DTD SVG 1.1//EN"
 "http://www.w3.org/Graphics/SVG/1.1/DTD/svg11.dtd">
<!-- Generated by graphviz version 2.40.1 (20161225.0304)
 -->
<!-- Title: oneDegreeRelationshipsDiagram Pages: 1 -->
<svg width="858pt" height="769pt"
 viewBox="0.00 0.00 858.00 769.14" xmlns="http://www.w3.org/2000/svg" xmlns:xlink="http://www.w3.org/1999/xlink">
<g id="graph0" class="graph" transform="scale(1 1) rotate(0) translate(4 765.1401)">
<title>oneDegreeRelationshipsDiagram</title>
<polygon fill="#ffffff" stroke="transparent" points="-4,4 -4,-765.1401 854,-765.1401 854,4 -4,4"/>
<text text-anchor="middle" x="72.4936" y="-7.3" font-family="Helvetica,sans-Serif" font-size="11.00" fill="#000000">Generated by SchemaSpy</text>
<!-- order_detail -->
<g id="node1" class="node">
<title>order_detail</title>
<g id="a_node1"><a xlink:href="../../tables/order_detail.html" xlink:title="order_detail" target="_top">
<polygon fill="#ffffff" stroke="transparent" points="356,-151.6401 356,-439.6401 575,-439.6401 575,-151.6401 356,-151.6401"/>
<polygon fill="#f5f5f5" stroke="transparent" points="358.5,-414.6401 358.5,-437.6401 573.5,-437.6401 573.5,-414.6401 358.5,-414.6401"/>
<polygon fill="none" stroke="#000000" points="358.5,-414.6401 358.5,-437.6401 573.5,-437.6401 573.5,-414.6401 358.5,-414.6401"/>
<text text-anchor="start" x="363.5" y="-423.2401" font-family="Helvetica,sans-Serif" font-weight="bold" font-size="11.00" fill="#000000">order_detail</text>
<text text-anchor="start" x="538.5437" y="-422.7401" font-family="Helvetica,sans-Serif" font-size="11.00" fill="#000000">[table]</text>
<polygon fill="none" stroke="#000000" points="358.5,-392.6401 358.5,-414.6401 481.5,-414.6401 481.5,-392.6401 358.5,-392.6401"/>
<image xlink:href="../../images/primaryKeys.png" width="11px" height="12px" preserveAspectRatio="xMinYMin meet" x="363.5" y="-409.64"/>
<text text-anchor="start" x="378.5" y="-399.7401" font-family="Helvetica,sans-Serif" font-size="11.00" fill="#000000">id</text>
<polygon fill="none" stroke="#000000" points="481.5,-392.6401 481.5,-414.6401 573.5,-414.6401 573.5,-392.6401 481.5,-392.6401"/>
<text text-anchor="start" x="484.5" y="-400.3401" font-family="Helvetica,sans-Serif" font-size="11.00" fill="#000000">bigserial[19]</text>
<polygon fill="#ffffff" stroke="transparent" points="358.5,-370.6401 358.5,-392.6401 481.5,-392.6401 481.5,-370.6401 358.5,-370.6401"/>
<polygon fill="none" stroke="#000000" points="358.5,-370.6401 358.5,-392.6401 481.5,-392.6401 481.5,-370.6401 358.5,-370.6401"/>
<image xlink:href="../../images/foreignKeys.png" width="11px" height="12px" preserveAspectRatio="xMinYMin meet" x="363.5" y="-387.64"/>
<text text-anchor="start" x="378.5" y="-377.7401" font-family="Helvetica,sans-Serif" font-size="11.00" fill="#000000">order_id</text>
<polygon fill="none" stroke="#000000" points="481.5,-370.6401 481.5,-392.6401 573.5,-392.6401 573.5,-370.6401 481.5,-370.6401"/>
<text text-anchor="start" x="484.5" y="-378.3401" font-family="Helvetica,sans-Serif" font-size="11.00" fill="#000000">int8[19]</text>
<polygon fill="#ffffff" stroke="transparent" points="358.5,-348.6401 358.5,-370.6401 481.5,-370.6401 481.5,-348.6401 358.5,-348.6401"/>
<polygon fill="none" stroke="#000000" points="358.5,-348.6401 358.5,-370.6401 481.5,-370.6401 481.5,-348.6401 358.5,-348.6401"/>
<image xlink:href="../../images/foreignKeys.png" width="11px" height="12px" preserveAspectRatio="xMinYMin meet" x="363.5" y="-365.64"/>
<text text-anchor="start" x="378.5" y="-355.7401" font-family="Helvetica,sans-Serif" font-size="11.00" fill="#000000">detail_id</text>
<polygon fill="none" stroke="#000000" points="481.5,-348.6401 481.5,-370.6401 573.5,-370.6401 573.5,-348.6401 481.5,-348.6401"/>
<text text-anchor="start" x="484.5" y="-356.3401" font-family="Helvetica,sans-Serif" font-size="11.00" fill="#000000">int8[19]</text>
<polygon fill="none" stroke="#000000" points="358.5,-326.6401 358.5,-348.6401 481.5,-348.6401 481.5,-326.6401 358.5,-326.6401"/>
<text text-anchor="start" x="378.5" y="-333.7401" font-family="Helvetica,sans-Serif" font-size="11.00" fill="#000000">quantity</text>
<polygon fill="none" stroke="#000000" points="481.5,-326.6401 481.5,-348.6401 573.5,-348.6401 573.5,-326.6401 481.5,-326.6401"/>
<text text-anchor="start" x="484.5" y="-334.3401" font-family="Helvetica,sans-Serif" font-size="11.00" fill="#000000">int4[10]</text>
<polygon fill="none" stroke="#000000" points="358.5,-304.6401 358.5,-326.6401 481.5,-326.6401 481.5,-304.6401 358.5,-304.6401"/>
<text text-anchor="start" x="378.5" y="-311.7401" font-family="Helvetica,sans-Serif" font-size="11.00" fill="#000000">created_at</text>
<polygon fill="none" stroke="#000000" points="481.5,-304.6401 481.5,-326.6401 573.5,-326.6401 573.5,-304.6401 481.5,-304.6401"/>
<text text-anchor="start" x="484.1023" y="-312.3401" font-family="Helvetica,sans-Serif" font-size="11.00" fill="#000000">timestamptz[35,6]</text>
<polygon fill="none" stroke="#000000" points="358.5,-282.6401 358.5,-304.6401 481.5,-304.6401 481.5,-282.6401 358.5,-282.6401"/>
<text text-anchor="start" x="378.5" y="-289.7401" font-family="Helvetica,sans-Serif" font-size="11.00" fill="#000000">volume</text>
<polygon fill="none" stroke="#000000" points="481.5,-282.6401 481.5,-304.6401 573.5,-304.6401 573.5,-282.6401 481.5,-282.6401"/>
<text text-anchor="start" x="484.5" y="-290.3401" font-family="Helvetica,sans-Serif" font-size="11.00" fill="#000000">numeric[0]</text>
<polygon fill="none" stroke="#000000" points="358.5,-260.6401 358.5,-282.6401 481.5,-282.6401 481.5,-260.6401 358.5,-260.6401"/>
<text text-anchor="start" x="378.5" y="-267.7401" font-family="Helvetica,sans-Serif" font-size="11.00" fill="#000000">container_volume</text>
<polygon fill="none" stroke="#000000" points="481.5,-260.6401 481.5,-282.6401 573.5,-282.6401 573.5,-260.6401 481.5,-260.6401"/>
<text text-anchor="start" x="484.5" y="-268.3401" font-family="Helvetica,sans-Serif" font-size="11.00" fill="#000000">numeric[0]</text>
<polygon fill="none" stroke="#000000" points="358.5,-238.6401 358.5,-260.6401 481.5,-260.6401 481.5,-238.6401 358.5,-238.6401"/>
<text text-anchor="start" x="378.5" y="-245.7401" font-family="Helvetica,sans-Serif" font-size="11.00" fill="#000000">estimated_pallets</text>
<polygon fill="none" stroke="#000000" points="481.5,-238.6401 481.5,-260.6401 573.5,-260.6401 573.5,-238.6401 481.5,-238.6401"/>
<text text-anchor="start" x="484.5" y="-246.3401" font-family="Helvetica,sans-Serif" font-size="11.00" fill="#000000">int4[10]</text>
<polygon fill="none" stroke="#000000" points="358.5,-216.6401 358.5,-238.6401 481.5,-238.6401 481.5,-216.6401 358.5,-216.6401"/>
<image xlink:href="../../images/foreignKeys.png" width="11px" height="12px" preserveAspectRatio="xMinYMin meet" x="363.5" y="-233.64"/>
<text text-anchor="start" x="378.5" y="-223.7401" font-family="Helvetica,sans-Serif" font-size="11.00" fill="#000000">created_by</text>
<polygon fill="none" stroke="#000000" points="481.5,-216.6401 481.5,-238.6401 573.5,-238.6401 573.5,-216.6401 481.5,-216.6401"/>
<text text-anchor="start" x="484.5" y="-224.3401" font-family="Helvetica,sans-Serif" font-size="11.00" fill="#000000">int8[19]</text>
<polygon fill="none" stroke="#000000" points="358.5,-194.6401 358.5,-216.6401 481.5,-216.6401 481.5,-194.6401 358.5,-194.6401"/>
<text text-anchor="start" x="378.5" y="-201.7401" font-family="Helvetica,sans-Serif" font-size="11.00" fill="#000000">updated_at</text>
<polygon fill="none" stroke="#000000" points="481.5,-194.6401 481.5,-216.6401 573.5,-216.6401 573.5,-194.6401 481.5,-194.6401"/>
<text text-anchor="start" x="484.1023" y="-202.3401" font-family="Helvetica,sans-Serif" font-size="11.00" fill="#000000">timestamptz[35,6]</text>
<polygon fill="none" stroke="#000000" points="358.5,-172.6401 358.5,-194.6401 481.5,-194.6401 481.5,-172.6401 358.5,-172.6401"/>
<image xlink:href="../../images/foreignKeys.png" width="11px" height="12px" preserveAspectRatio="xMinYMin meet" x="363.5" y="-189.64"/>
<text text-anchor="start" x="378.5" y="-179.7401" font-family="Helvetica,sans-Serif" font-size="11.00" fill="#000000">updated_by</text>
<polygon fill="none" stroke="#000000" points="481.5,-172.6401 481.5,-194.6401 573.5,-194.6401 573.5,-172.6401 481.5,-172.6401"/>
<text text-anchor="start" x="484.5" y="-180.3401" font-family="Helvetica,sans-Serif" font-size="11.00" fill="#000000">int8[19]</text>
<polygon fill="#ffffff" stroke="transparent" points="358.5,-153.6401 358.5,-172.6401 408.5,-172.6401 408.5,-153.6401 358.5,-153.6401"/>
<polygon fill="none" stroke="#000000" points="358.5,-153.6401 358.5,-172.6401 408.5,-172.6401 408.5,-153.6401 358.5,-153.6401"/>
<text text-anchor="start" x="361.5" y="-159.7401" font-family="Helvetica,sans-Serif" font-size="11.00" fill="#000000">&lt; 4</text>
<polygon fill="#ffffff" stroke="transparent" points="408.5,-153.6401 408.5,-172.6401 481.5,-172.6401 481.5,-153.6401 408.5,-153.6401"/>
<polygon fill="none" stroke="#000000" points="408.5,-153.6401 408.5,-172.6401 481.5,-172.6401 481.5,-153.6401 408.5,-153.6401"/>
<text text-anchor="start" x="439.9956" y="-159.7401" font-family="Helvetica,sans-Serif" font-size="11.00" fill="#000000">10 rows</text>
<polygon fill="#ffffff" stroke="transparent" points="481.5,-153.6401 481.5,-172.6401 573.5,-172.6401 573.5,-153.6401 481.5,-153.6401"/>
<polygon fill="none" stroke="#000000" points="481.5,-153.6401 481.5,-172.6401 573.5,-172.6401 573.5,-153.6401 481.5,-153.6401"/>
<text text-anchor="start" x="554.9053" y="-159.7401" font-family="Helvetica,sans-Serif" font-size="11.00" fill="#000000">3 &gt;</text>
<polygon fill="none" stroke="#000000" stroke-width="2" points="357,-152.6401 357,-438.6401 574,-438.6401 574,-152.6401 357,-152.6401"/>
</a>
</g>
</g>
<!-- users -->
<g id="node2" class="node">
<title>users</title>
<g id="a_node2"><a xlink:href="../../tables/users.html" xlink:title="users" target="_top">
<polygon fill="#ffffff" stroke="transparent" points="8,-140.1401 8,-333.1401 119,-333.1401 119,-140.1401 8,-140.1401"/>
<polygon fill="#f5f5f5" stroke="transparent" points="8.5,-309.6401 8.5,-332.6401 119.5,-332.6401 119.5,-309.6401 8.5,-309.6401"/>
<polygon fill="none" stroke="#000000" points="8.5,-309.6401 8.5,-332.6401 119.5,-332.6401 119.5,-309.6401 8.5,-309.6401"/>
<text text-anchor="start" x="13.5" y="-318.2401" font-family="Helvetica,sans-Serif" font-weight="bold" font-size="11.00" fill="#000000">users</text>
<text text-anchor="start" x="84.5437" y="-317.7401" font-family="Helvetica,sans-Serif" font-size="11.00" fill="#000000">[table]</text>
<polygon fill="none" stroke="#000000" points="8.5,-287.6401 8.5,-309.6401 119.5,-309.6401 119.5,-287.6401 8.5,-287.6401"/>
<image xlink:href="../../images/primaryKeys.png" width="11px" height="12px" preserveAspectRatio="xMinYMin meet" x="13.5" y="-304.64"/>
<text text-anchor="start" x="28.5" y="-294.7401" font-family="Helvetica,sans-Serif" font-size="11.00" fill="#000000">id</text>
<polygon fill="#ffffff" stroke="transparent" points="8.5,-265.6401 8.5,-287.6401 119.5,-287.6401 119.5,-265.6401 8.5,-265.6401"/>
<polygon fill="none" stroke="#000000" points="8.5,-265.6401 8.5,-287.6401 119.5,-287.6401 119.5,-265.6401 8.5,-265.6401"/>
<text text-anchor="start" x="28.5" y="-272.7401" font-family="Helvetica,sans-Serif" font-size="11.00" fill="#000000">username</text>
<polygon fill="#ffffff" stroke="transparent" points="8.5,-243.6401 8.5,-265.6401 119.5,-265.6401 119.5,-243.6401 8.5,-243.6401"/>
<polygon fill="none" stroke="#000000" points="8.5,-243.6401 8.5,-265.6401 119.5,-265.6401 119.5,-243.6401 8.5,-243.6401"/>
<text text-anchor="start" x="28.5" y="-250.7401" font-family="Helvetica,sans-Serif" font-size="11.00" fill="#000000">email</text>
<polygon fill="#ffffff" stroke="transparent" points="8.5,-221.6401 8.5,-243.6401 119.5,-243.6401 119.5,-221.6401 8.5,-221.6401"/>
<polygon fill="none" stroke="#000000" points="8.5,-221.6401 8.5,-243.6401 119.5,-243.6401 119.5,-221.6401 8.5,-221.6401"/>
<image xlink:href="../../images/foreignKeys.png" width="11px" height="12px" preserveAspectRatio="xMinYMin meet" x="13.5" y="-238.64"/>
<text text-anchor="start" x="28.5" y="-228.7401" font-family="Helvetica,sans-Serif" font-size="11.00" fill="#000000">department_id</text>
<polygon fill="none" stroke="#000000" points="8.5,-199.6401 8.5,-221.6401 119.5,-221.6401 119.5,-199.6401 8.5,-199.6401"/>
<image xlink:href="../../images/foreignKeys.png" width="11px" height="12px" preserveAspectRatio="xMinYMin meet" x="13.5" y="-216.64"/>
<text text-anchor="start" x="28.5" y="-206.7401" font-family="Helvetica,sans-Serif" font-size="11.00" fill="#000000">created_by</text>
<polygon fill="none" stroke="#000000" points="8.5,-177.6401 8.5,-199.6401 119.5,-199.6401 119.5,-177.6401 8.5,-177.6401"/>
<image xlink:href="../../images/foreignKeys.png" width="11px" height="12px" preserveAspectRatio="xMinYMin meet" x="13.5" y="-194.64"/>
<text text-anchor="start" x="28.5" y="-184.7401" font-family="Helvetica,sans-Serif" font-size="11.00" fill="#000000">updated_by</text>
<polygon fill="none" stroke="#000000" points="8.5,-158.6401 8.5,-177.6401 119.5,-177.6401 119.5,-158.6401 8.5,-158.6401"/>
<text text-anchor="start" x="11.5" y="-164.7401" font-family="Helvetica,sans-Serif" font-size="11.00" fill="#000000">...</text>
<polygon fill="#ffffff" stroke="transparent" points="8.5,-139.6401 8.5,-158.6401 38.5,-158.6401 38.5,-139.6401 8.5,-139.6401"/>
<polygon fill="none" stroke="#000000" points="8.5,-139.6401 8.5,-158.6401 38.5,-158.6401 38.5,-139.6401 8.5,-139.6401"/>
<text text-anchor="start" x="11.5" y="-145.7401" font-family="Helvetica,sans-Serif" font-size="11.00" fill="#000000">&lt; 3</text>
<polygon fill="#ffffff" stroke="transparent" points="38.5,-139.6401 38.5,-158.6401 87.5,-158.6401 87.5,-139.6401 38.5,-139.6401"/>
<polygon fill="none" stroke="#000000" points="38.5,-139.6401 38.5,-158.6401 87.5,-158.6401 87.5,-139.6401 38.5,-139.6401"/>
<text text-anchor="start" x="45.9956" y="-145.7401" font-family="Helvetica,sans-Serif" font-size="11.00" fill="#000000">10 rows</text>
<polygon fill="#ffffff" stroke="transparent" points="87.5,-139.6401 87.5,-158.6401 119.5,-158.6401 119.5,-139.6401 87.5,-139.6401"/>
<polygon fill="none" stroke="#000000" points="87.5,-139.6401 87.5,-158.6401 119.5,-158.6401 119.5,-139.6401 87.5,-139.6401"/>
<text text-anchor="start" x="94.7904" y="-145.7401" font-family="Helvetica,sans-Serif" font-size="11.00" fill="#000000">66 &gt;</text>
</a>
</g>
</g>
<!-- order_detail&#45;&gt;users -->
<g id="edge1" class="edge">
<title>order_detail:w&#45;&gt;users:e</title>
<path fill="none" stroke="#000000" d="M344.4663,-223.4636C334.4678,-216.1312 331.925,-201.1949 315,-195.6401 249.5461,-174.1583 216.931,-156.8517 160,-195.6401 119.349,-223.3366 168.6895,-298.6401 119.5,-298.6401"/>
<polygon fill="#000000" stroke="#000000" points="350.8324,-225.3581 357.4731,-231.0906 354.6662,-226.4991 358.5,-227.6401 358.5,-227.6401 358.5,-227.6401 354.6662,-226.4991 359.5269,-224.1897 350.8324,-225.3581 350.8324,-225.3581"/>
<ellipse fill="none" stroke="#000000" cx="347.7653" cy="-224.4453" rx="3.2" ry="3.2"/>
</g>
<!-- order_detail&#45;&gt;users -->
<g id="edge4" class="edge">
<title>order_detail:w&#45;&gt;users:e</title>
<path fill="none" stroke="#000000" d="M344.0198,-181.0873C334.8156,-177.4669 329.1815,-171.0165 315,-168.6401 247.0584,-157.255 215.4853,-127.8104 160,-168.6401 111.258,-204.5077 180.0167,-298.6401 119.5,-298.6401"/>
<polygon fill="#000000" stroke="#000000" points="350.6215,-182.2511 357.875,-187.1854 354.5607,-182.9456 358.5,-183.6401 358.5,-183.6401 358.5,-183.6401 354.5607,-182.9456 359.125,-180.0948 350.6215,-182.2511 350.6215,-182.2511"/>
<ellipse fill="none" stroke="#000000" cx="347.4701" cy="-181.6955" rx="3.2" ry="3.2"/>
</g>
<!-- order_detail_item -->
<g id="node3" class="node">
<title>order_detail_item</title>
<g id="a_node3"><a xlink:href="../../tables/order_detail_item.html" xlink:title="order_detail_item" target="_top">
<polygon fill="#ffffff" stroke="transparent" points="168,-206.1401 168,-377.1401 307,-377.1401 307,-206.1401 168,-206.1401"/>
<polygon fill="#f5f5f5" stroke="transparent" points="168.5,-353.6401 168.5,-376.6401 307.5,-376.6401 307.5,-353.6401 168.5,-353.6401"/>
<polygon fill="none" stroke="#000000" points="168.5,-353.6401 168.5,-376.6401 307.5,-376.6401 307.5,-353.6401 168.5,-353.6401"/>
<text text-anchor="start" x="173.5" y="-362.2401" font-family="Helvetica,sans-Serif" font-weight="bold" font-size="11.00" fill="#000000">order_detail_item</text>
<text text-anchor="start" x="273.0219" y="-361.7401" font-family="Helvetica,sans-Serif" font-size="11.00" fill="#000000">[table]</text>
<polygon fill="none" stroke="#000000" points="168.5,-331.6401 168.5,-353.6401 307.5,-353.6401 307.5,-331.6401 168.5,-331.6401"/>
<image xlink:href="../../images/primaryKeys.png" width="11px" height="12px" preserveAspectRatio="xMinYMin meet" x="173.5" y="-348.64"/>
<text text-anchor="start" x="197.5" y="-338.7401" font-family="Helvetica,sans-Serif" font-size="11.00" fill="#000000">id</text>
<polygon fill="#ffffff" stroke="transparent" points="168.5,-309.6401 168.5,-331.6401 307.5,-331.6401 307.5,-309.6401 168.5,-309.6401"/>
<polygon fill="none" stroke="#000000" points="168.5,-309.6401 168.5,-331.6401 307.5,-331.6401 307.5,-309.6401 168.5,-309.6401"/>
<text text-anchor="start" x="197.5" y="-316.7401" font-family="Helvetica,sans-Serif" font-size="11.00" fill="#000000">detail_name</text>
<polygon fill="none" stroke="#000000" points="168.5,-287.6401 168.5,-309.6401 307.5,-309.6401 307.5,-287.6401 168.5,-287.6401"/>
<image xlink:href="../../images/foreignKeys.png" width="11px" height="12px" preserveAspectRatio="xMinYMin meet" x="173.5" y="-304.64"/>
<text text-anchor="start" x="197.5" y="-294.7401" font-family="Helvetica,sans-Serif" font-size="11.00" fill="#000000">created_by</text>
<polygon fill="none" stroke="#000000" points="168.5,-265.6401 168.5,-287.6401 307.5,-287.6401 307.5,-265.6401 168.5,-265.6401"/>
<image xlink:href="../../images/foreignKeys.png" width="11px" height="12px" preserveAspectRatio="xMinYMin meet" x="173.5" y="-282.64"/>
<text text-anchor="start" x="197.5" y="-272.7401" font-family="Helvetica,sans-Serif" font-size="11.00" fill="#000000">updated_by</text>
<polygon fill="none" stroke="#000000" points="168.5,-243.6401 168.5,-265.6401 307.5,-265.6401 307.5,-243.6401 168.5,-243.6401"/>
<image xlink:href="../../images/foreignKeys.png" width="11px" height="12px" preserveAspectRatio="xMinYMin meet" x="173.5" y="-260.64"/>
<text text-anchor="start" x="197.5" y="-250.7401" font-family="Helvetica,sans-Serif" font-size="11.00" fill="#000000">detail_id</text>
<polygon fill="none" stroke="#000000" points="168.5,-224.6401 168.5,-243.6401 307.5,-243.6401 307.5,-224.6401 168.5,-224.6401"/>
<text text-anchor="start" x="171.5" y="-230.7401" font-family="Helvetica,sans-Serif" font-size="11.00" fill="#000000">...</text>
<polygon fill="#ffffff" stroke="transparent" points="168.5,-205.6401 168.5,-224.6401 218.5,-224.6401 218.5,-205.6401 168.5,-205.6401"/>
<polygon fill="none" stroke="#000000" points="168.5,-205.6401 168.5,-224.6401 218.5,-224.6401 218.5,-205.6401 168.5,-205.6401"/>
<text text-anchor="start" x="171.5" y="-211.7401" font-family="Helvetica,sans-Serif" font-size="11.00" fill="#000000">&lt; 3</text>
<polygon fill="#ffffff" stroke="transparent" points="218.5,-205.6401 218.5,-224.6401 271.5,-224.6401 271.5,-205.6401 218.5,-205.6401"/>
<polygon fill="none" stroke="#000000" points="218.5,-205.6401 218.5,-224.6401 271.5,-224.6401 271.5,-205.6401 218.5,-205.6401"/>
<text text-anchor="start" x="236.1105" y="-211.7401" font-family="Helvetica,sans-Serif" font-size="11.00" fill="#000000">8 rows</text>
<polygon fill="#ffffff" stroke="transparent" points="271.5,-205.6401 271.5,-224.6401 307.5,-224.6401 307.5,-205.6401 271.5,-205.6401"/>
<polygon fill="none" stroke="#000000" points="271.5,-205.6401 271.5,-224.6401 307.5,-224.6401 307.5,-205.6401 271.5,-205.6401"/>
<text text-anchor="start" x="288.9053" y="-211.7401" font-family="Helvetica,sans-Serif" font-size="11.00" fill="#000000">1 &gt;</text>
</a>
</g>
</g>
<!-- order_detail&#45;&gt;order_detail_item -->
<g id="edge2" class="edge">
<title>order_detail:w&#45;&gt;order_detail_item:e</title>
<path fill="none" stroke="#000000" d="M344.1916,-357.1317C331.8373,-352.4029 325.6062,-342.6401 307.5,-342.6401"/>
<polygon fill="#000000" stroke="#000000" points="350.6202,-358.2587 357.8783,-363.186 354.5601,-358.9494 358.5,-359.6401 358.5,-359.6401 358.5,-359.6401 354.5601,-358.9494 359.1217,-356.0942 350.6202,-358.2587 350.6202,-358.2587"/>
<ellipse fill="none" stroke="#000000" cx="347.4682" cy="-357.7061" rx="3.2" ry="3.2"/>
</g>
<!-- orders -->
<g id="node4" class="node">
<title>orders</title>
<g id="a_node4"><a xlink:href="../../tables/orders.html" xlink:title="orders" target="_top">
<polygon fill="#ffffff" stroke="transparent" points="177,-398.1401 177,-613.1401 298,-613.1401 298,-398.1401 177,-398.1401"/>
<polygon fill="#f5f5f5" stroke="transparent" points="177.5,-589.6401 177.5,-612.6401 298.5,-612.6401 298.5,-589.6401 177.5,-589.6401"/>
<polygon fill="none" stroke="#000000" points="177.5,-589.6401 177.5,-612.6401 298.5,-612.6401 298.5,-589.6401 177.5,-589.6401"/>
<text text-anchor="start" x="182.5" y="-598.2401" font-family="Helvetica,sans-Serif" font-weight="bold" font-size="11.00" fill="#000000">orders</text>
<text text-anchor="start" x="263.5437" y="-597.7401" font-family="Helvetica,sans-Serif" font-size="11.00" fill="#000000">[table]</text>
<polygon fill="none" stroke="#000000" points="177.5,-567.6401 177.5,-589.6401 298.5,-589.6401 298.5,-567.6401 177.5,-567.6401"/>
<image xlink:href="../../images/primaryKeys.png" width="11px" height="12px" preserveAspectRatio="xMinYMin meet" x="182.5" y="-584.64"/>
<text text-anchor="start" x="197.5" y="-574.7401" font-family="Helvetica,sans-Serif" font-size="11.00" fill="#000000">order_id</text>
<polygon fill="#ffffff" stroke="transparent" points="177.5,-545.6401 177.5,-567.6401 298.5,-567.6401 298.5,-545.6401 177.5,-545.6401"/>
<polygon fill="none" stroke="#000000" points="177.5,-545.6401 177.5,-567.6401 298.5,-567.6401 298.5,-545.6401 177.5,-545.6401"/>
<text text-anchor="start" x="197.5" y="-552.7401" font-family="Helvetica,sans-Serif" font-size="11.00" fill="#000000">order_number</text>
<polygon fill="#ffffff" stroke="transparent" points="177.5,-523.6401 177.5,-545.6401 298.5,-545.6401 298.5,-523.6401 177.5,-523.6401"/>
<polygon fill="none" stroke="#000000" points="177.5,-523.6401 177.5,-545.6401 298.5,-545.6401 298.5,-523.6401 177.5,-523.6401"/>
<image xlink:href="../../images/foreignKeys.png" width="11px" height="12px" preserveAspectRatio="xMinYMin meet" x="182.5" y="-540.64"/>
<text text-anchor="start" x="197.5" y="-530.7401" font-family="Helvetica,sans-Serif" font-size="11.00" fill="#000000">customer_id</text>
<polygon fill="#ffffff" stroke="transparent" points="177.5,-501.6401 177.5,-523.6401 298.5,-523.6401 298.5,-501.6401 177.5,-501.6401"/>
<polygon fill="none" stroke="#000000" points="177.5,-501.6401 177.5,-523.6401 298.5,-523.6401 298.5,-501.6401 177.5,-501.6401"/>
<image xlink:href="../../images/foreignKeys.png" width="11px" height="12px" preserveAspectRatio="xMinYMin meet" x="182.5" y="-518.64"/>
<text text-anchor="start" x="197.5" y="-508.7401" font-family="Helvetica,sans-Serif" font-size="11.00" fill="#000000">user_id</text>
<polygon fill="#ffffff" stroke="transparent" points="177.5,-479.6401 177.5,-501.6401 298.5,-501.6401 298.5,-479.6401 177.5,-479.6401"/>
<polygon fill="none" stroke="#000000" points="177.5,-479.6401 177.5,-501.6401 298.5,-501.6401 298.5,-479.6401 177.5,-479.6401"/>
<text text-anchor="start" x="197.5" y="-486.7401" font-family="Helvetica,sans-Serif" font-size="11.00" fill="#000000">order_date</text>
<polygon fill="none" stroke="#000000" points="177.5,-457.6401 177.5,-479.6401 298.5,-479.6401 298.5,-457.6401 177.5,-457.6401"/>
<image xlink:href="../../images/foreignKeys.png" width="11px" height="12px" preserveAspectRatio="xMinYMin meet" x="182.5" y="-474.64"/>
<text text-anchor="start" x="197.5" y="-464.7401" font-family="Helvetica,sans-Serif" font-size="11.00" fill="#000000">created_by</text>
<polygon fill="none" stroke="#000000" points="177.5,-435.6401 177.5,-457.6401 298.5,-457.6401 298.5,-435.6401 177.5,-435.6401"/>
<image xlink:href="../../images/foreignKeys.png" width="11px" height="12px" preserveAspectRatio="xMinYMin meet" x="182.5" y="-452.64"/>
<text text-anchor="start" x="197.5" y="-442.7401" font-family="Helvetica,sans-Serif" font-size="11.00" fill="#000000">updated_by</text>
<polygon fill="none" stroke="#000000" points="177.5,-416.6401 177.5,-435.6401 298.5,-435.6401 298.5,-416.6401 177.5,-416.6401"/>
<text text-anchor="start" x="180.5" y="-422.7401" font-family="Helvetica,sans-Serif" font-size="11.00" fill="#000000">...</text>
<polygon fill="#ffffff" stroke="transparent" points="177.5,-397.6401 177.5,-416.6401 218.5,-416.6401 218.5,-397.6401 177.5,-397.6401"/>
<polygon fill="none" stroke="#000000" points="177.5,-397.6401 177.5,-416.6401 218.5,-416.6401 218.5,-397.6401 177.5,-397.6401"/>
<text text-anchor="start" x="180.5" y="-403.7401" font-family="Helvetica,sans-Serif" font-size="11.00" fill="#000000">&lt; 4</text>
<polygon fill="#ffffff" stroke="transparent" points="218.5,-397.6401 218.5,-416.6401 266.5,-416.6401 266.5,-397.6401 218.5,-397.6401"/>
<polygon fill="none" stroke="#000000" points="218.5,-397.6401 218.5,-416.6401 266.5,-416.6401 266.5,-397.6401 218.5,-397.6401"/>
<text text-anchor="start" x="231.1105" y="-403.7401" font-family="Helvetica,sans-Serif" font-size="11.00" fill="#000000">2 rows</text>
<polygon fill="#ffffff" stroke="transparent" points="266.5,-397.6401 266.5,-416.6401 298.5,-416.6401 298.5,-397.6401 266.5,-397.6401"/>
<polygon fill="none" stroke="#000000" points="266.5,-397.6401 266.5,-416.6401 298.5,-416.6401 298.5,-397.6401 266.5,-397.6401"/>
<text text-anchor="start" x="279.9053" y="-403.7401" font-family="Helvetica,sans-Serif" font-size="11.00" fill="#000000">8 &gt;</text>
</a>
</g>
</g>
<!-- order_detail&#45;&gt;orders -->
<g id="edge3" class="edge">
<title>order_detail:w&#45;&gt;orders:e</title>
<path fill="none" stroke="#000000" d="M344.1397,-383.7192C281.0879,-404.7734 384.4848,-578.6401 298.5,-578.6401"/>
<polygon fill="#000000" stroke="#000000" points="350.5826,-382.7865 359.0159,-385.203 354.5413,-382.2133 358.5,-381.6401 358.5,-381.6401 358.5,-381.6401 354.5413,-382.2133 357.9841,-378.0773 350.5826,-382.7865 350.5826,-382.7865"/>
<ellipse fill="none" stroke="#000000" cx="347.4156" cy="-383.245" rx="3.2" ry="3.2"/>
</g>
<!-- order_detail_item&#45;&gt;order_detail -->
<g id="edge6" class="edge">
<title>order_detail_item:w&#45;&gt;order_detail:e</title>
<path fill="none" stroke="#000000" d="M182.2824,-249.701C218.7515,-236.6319 315,-202.1401 315,-202.1401 315,-202.1401 573.5,-403.6401 573.5,-403.6401"/>
<polygon fill="#000000" stroke="#000000" points="176.031,-251.9412 167.2855,-251.2511 172.2655,-253.2907 168.5,-254.6401 168.5,-254.6401 168.5,-254.6401 172.2655,-253.2907 169.7145,-258.0291 176.031,-251.9412 176.031,-251.9412"/>
<ellipse fill="none" stroke="#000000" cx="179.0434" cy="-250.8617" rx="3.2" ry="3.2"/>
</g>
<!-- order_detail_item&#45;&gt;users -->
<g id="edge5" class="edge">
<title>order_detail_item:w&#45;&gt;users:e</title>
<path fill="none" stroke="#000000" d="M153.9909,-298.6401C142.6774,-298.6401 135.4931,-298.6401 119.5,-298.6401"/>
<polygon fill="#000000" stroke="#000000" points="160.5,-298.6402 168.5,-302.2401 164.5,-298.6401 168.5,-298.6401 168.5,-298.6401 168.5,-298.6401 164.5,-298.6401 168.5,-295.0401 160.5,-298.6402 160.5,-298.6402"/>
<ellipse fill="none" stroke="#000000" cx="157.3" cy="-298.6402" rx="3.2" ry="3.2"/>
</g>
<!-- order_detail_item&#45;&gt;users -->
<g id="edge7" class="edge">
<title>order_detail_item:w&#45;&gt;users:e</title>
<path fill="none" stroke="#000000" d="M154.1297,-280.0776C142.5865,-286.2651 137.4041,-298.6401 119.5,-298.6401"/>
<polygon fill="#000000" stroke="#000000" points="160.7195,-278.5013 169.3375,-280.1413 164.6098,-277.5707 168.5,-276.6401 168.5,-276.6401 168.5,-276.6401 164.6098,-277.5707 167.6625,-273.1389 160.7195,-278.5013 160.7195,-278.5013"/>
<ellipse fill="none" stroke="#000000" cx="157.6073" cy="-279.2458" rx="3.2" ry="3.2"/>
</g>
<!-- orders&#45;&gt;users -->
<g id="edge8" class="edge">
<title>orders:w&#45;&gt;users:e</title>
<path fill="none" stroke="#000000" d="M163.2261,-466.2369C111.0673,-445.5743 193.7187,-298.6401 119.5,-298.6401"/>
<polygon fill="#000000" stroke="#000000" points="169.611,-467.3119 176.9023,-472.1901 173.5555,-467.976 177.5,-468.6401 177.5,-468.6401 177.5,-468.6401 173.5555,-467.976 178.0977,-465.0901 169.611,-467.3119 169.611,-467.3119"/>
<ellipse fill="none" stroke="#000000" cx="166.4554" cy="-466.7806" rx="3.2" ry="3.2"/>
</g>
<!-- orders&#45;&gt;users -->
<g id="edge9" class="edge">
<title>orders:w&#45;&gt;users:e</title>
<path fill="none" stroke="#000000" d="M163.3312,-443.945C119.2049,-423.886 184.4911,-298.6401 119.5,-298.6401"/>
<polygon fill="#000000" stroke="#000000" points="169.6409,-445.1451 176.8273,-450.1767 173.5705,-445.8926 177.5,-446.6401 177.5,-446.6401 177.5,-446.6401 173.5705,-445.8926 178.1727,-443.1035 169.6409,-445.1451 169.6409,-445.1451"/>
<ellipse fill="none" stroke="#000000" cx="166.4973" cy="-444.5471" rx="3.2" ry="3.2"/>
</g>
<!-- orders&#45;&gt;users -->
<g id="edge10" class="edge">
<title>orders:w&#45;&gt;users:e</title>
<path fill="none" stroke="#000000" d="M162.9562,-510.6582C93.9509,-489.0845 212.461,-298.6401 119.5,-298.6401"/>
<polygon fill="#000000" stroke="#000000" points="169.5733,-511.5599 177.0139,-516.2071 173.5366,-512.1 177.5,-512.6401 177.5,-512.6401 177.5,-512.6401 173.5366,-512.1 177.9861,-509.0731 169.5733,-511.5599 169.5733,-511.5599"/>
<ellipse fill="none" stroke="#000000" cx="166.4026" cy="-511.1278" rx="3.2" ry="3.2"/>
</g>
<!-- wms.inventory_lots -->
<g id="node5" class="node">
<title>wms.inventory_lots</title>
<g id="a_node5"><a xlink:href="../../../wms/tables/inventory_lots.html" xlink:title="wms.inventory_lots" target="_top">
<polygon fill="#ffffff" stroke="transparent" points="657.5,-586.1401 657.5,-757.1401 808.5,-757.1401 808.5,-586.1401 657.5,-586.1401"/>
<polygon fill="#f5f5f5" stroke="transparent" points="658,-733.6401 658,-756.6401 809,-756.6401 809,-733.6401 658,-733.6401"/>
<polygon fill="none" stroke="#000000" points="658,-733.6401 658,-756.6401 809,-756.6401 809,-733.6401 658,-733.6401"/>
<text text-anchor="start" x="663" y="-742.2401" font-family="Helvetica,sans-Serif" font-weight="bold" font-size="11.00" fill="#000000">wms.inventory_lots</text>
<text text-anchor="start" x="774.5219" y="-741.7401" font-family="Helvetica,sans-Serif" font-size="11.00" fill="#000000">[table]</text>
<polygon fill="none" stroke="#000000" points="658,-711.6401 658,-733.6401 809,-733.6401 809,-711.6401 658,-711.6401"/>
<image xlink:href="../../images/foreignKeys.png" width="11px" height="12px" preserveAspectRatio="xMinYMin meet" x="663" y="-728.64"/>
<text text-anchor="start" x="678" y="-718.7401" font-family="Helvetica,sans-Serif" font-size="11.00" fill="#000000">warehouse_id</text>
<polygon fill="none" stroke="#000000" points="658,-689.6401 658,-711.6401 809,-711.6401 809,-689.6401 658,-689.6401"/>
<image xlink:href="../../images/foreignKeys.png" width="11px" height="12px" preserveAspectRatio="xMinYMin meet" x="663" y="-706.64"/>
<text text-anchor="start" x="678" y="-696.7401" font-family="Helvetica,sans-Serif" font-size="11.00" fill="#000000">order_id</text>
<polygon fill="none" stroke="#000000" points="658,-667.6401 658,-689.6401 809,-689.6401 809,-667.6401 658,-667.6401"/>
<image xlink:href="../../images/foreignKeys.png" width="11px" height="12px" preserveAspectRatio="xMinYMin meet" x="663" y="-684.64"/>
<text text-anchor="start" x="678" y="-674.7401" font-family="Helvetica,sans-Serif" font-size="11.00" fill="#000000">order_detail_id</text>
<polygon fill="none" stroke="#000000" points="658,-645.6401 658,-667.6401 809,-667.6401 809,-645.6401 658,-645.6401"/>
<image xlink:href="../../images/foreignKeys.png" width="11px" height="12px" preserveAspectRatio="xMinYMin meet" x="663" y="-662.64"/>
<text text-anchor="start" x="678" y="-652.7401" font-family="Helvetica,sans-Serif" font-size="11.00" fill="#000000">created_by</text>
<polygon fill="none" stroke="#000000" points="658,-623.6401 658,-645.6401 809,-645.6401 809,-623.6401 658,-623.6401"/>
<image xlink:href="../../images/foreignKeys.png" width="11px" height="12px" preserveAspectRatio="xMinYMin meet" x="663" y="-640.64"/>
<text text-anchor="start" x="678" y="-630.7401" font-family="Helvetica,sans-Serif" font-size="11.00" fill="#000000">updated_by</text>
<polygon fill="none" stroke="#000000" points="658,-604.6401 658,-623.6401 809,-623.6401 809,-604.6401 658,-604.6401"/>
<text text-anchor="start" x="661" y="-610.7401" font-family="Helvetica,sans-Serif" font-size="11.00" fill="#000000">...</text>
<polygon fill="#ffffff" stroke="transparent" points="658,-585.6401 658,-604.6401 719,-604.6401 719,-585.6401 658,-585.6401"/>
<polygon fill="none" stroke="#000000" points="658,-585.6401 658,-604.6401 719,-604.6401 719,-585.6401 658,-585.6401"/>
<text text-anchor="start" x="661" y="-591.7401" font-family="Helvetica,sans-Serif" font-size="11.00" fill="#000000">&lt; 5</text>
<polygon fill="#ffffff" stroke="transparent" points="719,-585.6401 719,-604.6401 777,-604.6401 777,-585.6401 719,-585.6401"/>
<polygon fill="none" stroke="#000000" points="719,-585.6401 719,-604.6401 777,-604.6401 777,-585.6401 719,-585.6401"/>
<text text-anchor="start" x="741.6105" y="-591.7401" font-family="Helvetica,sans-Serif" font-size="11.00" fill="#000000">0 rows</text>
<polygon fill="#ffffff" stroke="transparent" points="777,-585.6401 777,-604.6401 809,-604.6401 809,-585.6401 777,-585.6401"/>
<polygon fill="none" stroke="#000000" points="777,-585.6401 777,-604.6401 809,-604.6401 809,-585.6401 777,-585.6401"/>
<text text-anchor="start" x="799.8862" y="-591.7401" font-family="Helvetica,sans-Serif" font-size="11.00" fill="#000000"> &#160;</text>
</a>
</g>
</g>
<!-- wms.inventory_lots&#45;&gt;order_detail -->
<g id="edge12" class="edge">
<title>wms.inventory_lots:w&#45;&gt;order_detail:e</title>
<path fill="none" stroke="#000000" d="M643.4303,-677.2261C543.9907,-656.0293 695.9928,-403.6401 573.5,-403.6401"/>
<polygon fill="#000000" stroke="#000000" points="650.0374,-677.8673 657.6522,-682.2233 654.0187,-678.2537 658,-678.6401 658,-678.6401 658,-678.6401 654.0187,-678.2537 658.3478,-675.0569 650.0374,-677.8673 650.0374,-677.8673"/>
<ellipse fill="none" stroke="#000000" cx="646.8524" cy="-677.5581" rx="3.2" ry="3.2"/>
</g>
<!-- wms.inventory_lots&#45;&gt;users -->
<g id="edge11" class="edge">
<title>wms.inventory_lots:w&#45;&gt;users:e</title>
<path fill="none" stroke="#000000" d="M643.5635,-656.8379C431.6549,-662.641 320.3679,-793.0937 160,-647.6401 102.1683,-595.1868 197.576,-298.6401 119.5,-298.6401"/>
<polygon fill="#000000" stroke="#000000" points="650.0008,-656.7498 658.0494,-660.2398 654.0004,-656.6949 658,-656.6401 658,-656.6401 658,-656.6401 654.0004,-656.6949 657.9506,-653.0404 650.0008,-656.7498 650.0008,-656.7498"/>
<ellipse fill="none" stroke="#000000" cx="646.8011" cy="-656.7937" rx="3.2" ry="3.2"/>
</g>
<!-- wms.inventory_lots&#45;&gt;users -->
<g id="edge14" class="edge">
<title>wms.inventory_lots:w&#45;&gt;users:e</title>
<path fill="none" stroke="#000000" d="M643.4559,-634.9327C553.1245,-637.698 198.4708,-658.378 160,-623.6401 105.9822,-574.8638 192.2808,-298.6401 119.5,-298.6401"/>
<polygon fill="#000000" stroke="#000000" points="650.0016,-634.8011 658.0724,-638.2394 654.0008,-634.7206 658,-634.6401 658,-634.6401 658,-634.6401 654.0008,-634.7206 657.9276,-631.0408 650.0016,-634.8011 650.0016,-634.8011"/>
<ellipse fill="none" stroke="#000000" cx="646.8023" cy="-634.8654" rx="3.2" ry="3.2"/>
</g>
<!-- wms.inventory_lots&#45;&gt;orders -->
<g id="edge13" class="edge">
<title>wms.inventory_lots:w&#45;&gt;orders:e</title>
<path fill="none" stroke="#000000" d="M643.5407,-700.3321C487.8549,-693.5964 462.2844,-578.6401 298.5,-578.6401"/>
<polygon fill="#000000" stroke="#000000" points="650.0018,-700.4697 657.9233,-704.2393 654.0009,-700.5549 658,-700.6401 658,-700.6401 658,-700.6401 654.0009,-700.5549 658.0767,-697.0409 650.0018,-700.4697 650.0018,-700.4697"/>
<ellipse fill="none" stroke="#000000" cx="646.8025" cy="-700.4015" rx="3.2" ry="3.2"/>
</g>
<!-- wms.outbound_shipment_lines -->
<g id="node6" class="node">
<title>wms.outbound_shipment_lines</title>
<g id="a_node6"><a xlink:href="../../../wms/tables/outbound_shipment_lines.html" xlink:title="wms.outbound_shipment_lines" target="_top">
<polygon fill="#ffffff" stroke="transparent" points="624,-184.1401 624,-333.1401 842,-333.1401 842,-184.1401 624,-184.1401"/>
<polygon fill="#f5f5f5" stroke="transparent" points="624,-309.6401 624,-332.6401 842,-332.6401 842,-309.6401 624,-309.6401"/>
<polygon fill="none" stroke="#000000" points="624,-309.6401 624,-332.6401 842,-332.6401 842,-309.6401 624,-309.6401"/>
<text text-anchor="start" x="629" y="-318.2401" font-family="Helvetica,sans-Serif" font-weight="bold" font-size="11.00" fill="#000000">wms.outbound_shipment_lines</text>
<text text-anchor="start" x="807.5219" y="-317.7401" font-family="Helvetica,sans-Serif" font-size="11.00" fill="#000000">[table]</text>
<polygon fill="none" stroke="#000000" points="624,-287.6401 624,-309.6401 842,-309.6401 842,-287.6401 624,-287.6401"/>
<image xlink:href="../../images/foreignKeys.png" width="11px" height="12px" preserveAspectRatio="xMinYMin meet" x="629" y="-304.64"/>
<text text-anchor="start" x="663" y="-294.7401" font-family="Helvetica,sans-Serif" font-size="11.00" fill="#000000">order_id</text>
<polygon fill="none" stroke="#000000" points="624,-265.6401 624,-287.6401 842,-287.6401 842,-265.6401 624,-265.6401"/>
<image xlink:href="../../images/foreignKeys.png" width="11px" height="12px" preserveAspectRatio="xMinYMin meet" x="629" y="-282.64"/>
<text text-anchor="start" x="663" y="-272.7401" font-family="Helvetica,sans-Serif" font-size="11.00" fill="#000000">order_detail_id</text>
<polygon fill="none" stroke="#000000" points="624,-243.6401 624,-265.6401 842,-265.6401 842,-243.6401 624,-243.6401"/>
<image xlink:href="../../images/foreignKeys.png" width="11px" height="12px" preserveAspectRatio="xMinYMin meet" x="629" y="-260.64"/>
<text text-anchor="start" x="663" y="-250.7401" font-family="Helvetica,sans-Serif" font-size="11.00" fill="#000000">created_by</text>
<polygon fill="none" stroke="#000000" points="624,-221.6401 624,-243.6401 842,-243.6401 842,-221.6401 624,-221.6401"/>
<image xlink:href="../../images/foreignKeys.png" width="11px" height="12px" preserveAspectRatio="xMinYMin meet" x="629" y="-238.64"/>
<text text-anchor="start" x="663" y="-228.7401" font-family="Helvetica,sans-Serif" font-size="11.00" fill="#000000">updated_by</text>
<polygon fill="none" stroke="#000000" points="624,-202.6401 624,-221.6401 842,-221.6401 842,-202.6401 624,-202.6401"/>
<text text-anchor="start" x="627" y="-208.7401" font-family="Helvetica,sans-Serif" font-size="11.00" fill="#000000">...</text>
<polygon fill="#ffffff" stroke="transparent" points="624,-183.6401 624,-202.6401 718,-202.6401 718,-183.6401 624,-183.6401"/>
<polygon fill="none" stroke="#000000" points="624,-183.6401 624,-202.6401 718,-202.6401 718,-183.6401 624,-183.6401"/>
<text text-anchor="start" x="627" y="-189.7401" font-family="Helvetica,sans-Serif" font-size="11.00" fill="#000000">&lt; 4</text>
<polygon fill="#ffffff" stroke="transparent" points="718,-183.6401 718,-202.6401 793,-202.6401 793,-183.6401 718,-183.6401"/>
<polygon fill="none" stroke="#000000" points="718,-183.6401 718,-202.6401 793,-202.6401 793,-183.6401 718,-183.6401"/>
<text text-anchor="start" x="757.6105" y="-189.7401" font-family="Helvetica,sans-Serif" font-size="11.00" fill="#000000">0 rows</text>
<polygon fill="#ffffff" stroke="transparent" points="793,-183.6401 793,-202.6401 842,-202.6401 842,-183.6401 793,-183.6401"/>
<polygon fill="none" stroke="#000000" points="793,-183.6401 793,-202.6401 842,-202.6401 842,-183.6401 793,-183.6401"/>
<text text-anchor="start" x="832.8862" y="-189.7401" font-family="Helvetica,sans-Serif" font-size="11.00" fill="#000000"> &#160;</text>
</a>
</g>
</g>
<!-- wms.outbound_shipment_lines&#45;&gt;order_detail -->
<g id="edge16" class="edge">
<title>wms.outbound_shipment_lines:w&#45;&gt;order_detail:e</title>
<path fill="none" stroke="#000000" d="M609.7276,-280.0371C575.8651,-300.2336 628.3112,-403.6401 573.5,-403.6401"/>
<polygon fill="#000000" stroke="#000000" points="616.2174,-278.4925 624.8336,-280.1423 620.1087,-277.5663 624,-276.6401 624,-276.6401 624,-276.6401 620.1087,-277.5663 623.1664,-273.1379 616.2174,-278.4925 616.2174,-278.4925"/>
<ellipse fill="none" stroke="#000000" cx="613.1044" cy="-279.2334" rx="3.2" ry="3.2"/>
</g>
<!-- wms.outbound_shipment_lines&#45;&gt;users -->
<g id="edge15" class="edge">
<title>wms.outbound_shipment_lines:w&#45;&gt;users:e</title>
<path fill="none" stroke="#000000" d="M609.7584,-251.6652C582.0189,-236.6493 621.7926,-168.8321 583,-141.6401 544.5124,-114.662 196.992,-115.6452 160,-144.6401 104.2995,-188.299 190.2718,-298.6401 119.5,-298.6401"/>
<polygon fill="#000000" stroke="#000000" points="616.169,-253.0043 623.2639,-258.1641 620.0845,-253.8222 624,-254.6401 624,-254.6401 624,-254.6401 620.0845,-253.8222 624.7361,-251.1162 616.169,-253.0043 616.169,-253.0043"/>
<ellipse fill="none" stroke="#000000" cx="613.0366" cy="-252.3499" rx="3.2" ry="3.2"/>
</g>
<!-- wms.outbound_shipment_lines&#45;&gt;users -->
<g id="edge18" class="edge">
<title>wms.outbound_shipment_lines:w&#45;&gt;users:e</title>
<path fill="none" stroke="#000000" d="M609.6569,-229.6399C581.7502,-214.4962 622.0575,-146.0998 583,-118.6401 429.2053,-10.5134 306.5613,-1.8947 160,-119.6401 96.4125,-170.7255 201.0665,-298.6401 119.5,-298.6401"/>
<polygon fill="#000000" stroke="#000000" points="616.1695,-231.0021 623.2629,-236.1639 620.0847,-231.8211 624,-232.6401 624,-232.6401 624,-232.6401 620.0847,-231.8211 624.7371,-229.1164 616.1695,-231.0021 616.1695,-231.0021"/>
<ellipse fill="none" stroke="#000000" cx="613.0373" cy="-230.347" rx="3.2" ry="3.2"/>
</g>
<!-- wms.outbound_shipment_lines&#45;&gt;orders -->
<g id="edge17" class="edge">
<title>wms.outbound_shipment_lines:w&#45;&gt;orders:e</title>
<path fill="none" stroke="#000000" d="M609.5485,-300.5539C565.4227,-314.5342 624.6596,-401.7524 583,-450.6401 493.0702,-556.1729 437.1526,-578.6401 298.5,-578.6401"/>
<polygon fill="#000000" stroke="#000000" points="616.0692,-299.6904 624.4726,-302.209 620.0346,-299.1653 624,-298.6401 624,-298.6401 624,-298.6401 620.0346,-299.1653 623.5274,-295.0713 616.0692,-299.6904 616.0692,-299.6904"/>
<ellipse fill="none" stroke="#000000" cx="612.8969" cy="-300.1105" rx="3.2" ry="3.2"/>
</g>
</g>
</svg>
