<?xml version="1.0" encoding="UTF-8" standalone="no"?>
<!DOCTYPE svg PUBLIC "-//W3C//DTD SVG 1.1//EN"
 "http://www.w3.org/Graphics/SVG/1.1/DTD/svg11.dtd">
<!-- Generated by graphviz version 2.40.1 (20161225.0304)
 -->
<!-- Title: oneDegreeRelationshipsDiagram Pages: 1 -->
<svg width="1074pt" height="1253pt"
 viewBox="0.00 0.00 1074.00 1252.80" xmlns="http://www.w3.org/2000/svg" xmlns:xlink="http://www.w3.org/1999/xlink">
<g id="graph0" class="graph" transform="scale(1 1) rotate(0) translate(4 1248.7972)">
<title>oneDegreeRelationshipsDiagram</title>
<polygon fill="#ffffff" stroke="transparent" points="-4,4 -4,-1248.7972 1070,-1248.7972 1070,4 -4,4"/>
<text text-anchor="middle" x="72.4936" y="-7.3" font-family="Helvetica,sans-Serif" font-size="11.00" fill="#000000">Generated by SchemaSpy</text>
<!-- oms.delivery_appointments -->
<g id="node1" class="node">
<title>oms.delivery_appointments</title>
<g id="a_node1"><a xlink:href="../../../oms/tables/delivery_appointments.html" xlink:title="oms.delivery_appointments" target="_top">
<polygon fill="#ffffff" stroke="transparent" points="594,-1069.7972 594,-1240.7972 791,-1240.7972 791,-1069.7972 594,-1069.7972"/>
<polygon fill="#f5f5f5" stroke="transparent" points="594.5,-1217.2972 594.5,-1240.2972 791.5,-1240.2972 791.5,-1217.2972 594.5,-1217.2972"/>
<polygon fill="none" stroke="#000000" points="594.5,-1217.2972 594.5,-1240.2972 791.5,-1240.2972 791.5,-1217.2972 594.5,-1217.2972"/>
<text text-anchor="start" x="599.5" y="-1225.8972" font-family="Helvetica,sans-Serif" font-weight="bold" font-size="11.00" fill="#000000">oms.delivery_appointments</text>
<text text-anchor="start" x="757.0219" y="-1225.3972" font-family="Helvetica,sans-Serif" font-size="11.00" fill="#000000">[table]</text>
<polygon fill="none" stroke="#000000" points="594.5,-1195.2972 594.5,-1217.2972 791.5,-1217.2972 791.5,-1195.2972 594.5,-1195.2972"/>
<image xlink:href="../../images/foreignKeys.png" width="11px" height="12px" preserveAspectRatio="xMinYMin meet" x="599.5" y="-1212.3"/>
<text text-anchor="start" x="633.5" y="-1202.3972" font-family="Helvetica,sans-Serif" font-size="11.00" fill="#000000">order_id</text>
<polygon fill="none" stroke="#000000" points="594.5,-1173.2972 594.5,-1195.2972 791.5,-1195.2972 791.5,-1173.2972 594.5,-1173.2972"/>
<image xlink:href="../../images/foreignKeys.png" width="11px" height="12px" preserveAspectRatio="xMinYMin meet" x="599.5" y="-1190.3"/>
<text text-anchor="start" x="633.5" y="-1180.3972" font-family="Helvetica,sans-Serif" font-size="11.00" fill="#000000">location_id</text>
<polygon fill="none" stroke="#000000" points="594.5,-1151.2972 594.5,-1173.2972 791.5,-1173.2972 791.5,-1151.2972 594.5,-1151.2972"/>
<image xlink:href="../../images/foreignKeys.png" width="11px" height="12px" preserveAspectRatio="xMinYMin meet" x="599.5" y="-1168.3"/>
<text text-anchor="start" x="633.5" y="-1158.3972" font-family="Helvetica,sans-Serif" font-size="11.00" fill="#000000">appointment_type_code</text>
<polygon fill="none" stroke="#000000" points="594.5,-1129.2972 594.5,-1151.2972 791.5,-1151.2972 791.5,-1129.2972 594.5,-1129.2972"/>
<image xlink:href="../../images/foreignKeys.png" width="11px" height="12px" preserveAspectRatio="xMinYMin meet" x="599.5" y="-1146.3"/>
<text text-anchor="start" x="633.5" y="-1136.3972" font-family="Helvetica,sans-Serif" font-size="11.00" fill="#000000">created_by</text>
<polygon fill="none" stroke="#000000" points="594.5,-1107.2972 594.5,-1129.2972 791.5,-1129.2972 791.5,-1107.2972 594.5,-1107.2972"/>
<image xlink:href="../../images/foreignKeys.png" width="11px" height="12px" preserveAspectRatio="xMinYMin meet" x="599.5" y="-1124.3"/>
<text text-anchor="start" x="633.5" y="-1114.3972" font-family="Helvetica,sans-Serif" font-size="11.00" fill="#000000">updated_by</text>
<polygon fill="none" stroke="#000000" points="594.5,-1088.2972 594.5,-1107.2972 791.5,-1107.2972 791.5,-1088.2972 594.5,-1088.2972"/>
<text text-anchor="start" x="597.5" y="-1094.3972" font-family="Helvetica,sans-Serif" font-size="11.00" fill="#000000">...</text>
<polygon fill="#ffffff" stroke="transparent" points="594.5,-1069.2972 594.5,-1088.2972 678.5,-1088.2972 678.5,-1069.2972 594.5,-1069.2972"/>
<polygon fill="none" stroke="#000000" points="594.5,-1069.2972 594.5,-1088.2972 678.5,-1088.2972 678.5,-1069.2972 594.5,-1069.2972"/>
<text text-anchor="start" x="597.5" y="-1075.3972" font-family="Helvetica,sans-Serif" font-size="11.00" fill="#000000">&lt; 5</text>
<polygon fill="#ffffff" stroke="transparent" points="678.5,-1069.2972 678.5,-1088.2972 747.5,-1088.2972 747.5,-1069.2972 678.5,-1069.2972"/>
<polygon fill="none" stroke="#000000" points="678.5,-1069.2972 678.5,-1088.2972 747.5,-1088.2972 747.5,-1069.2972 678.5,-1069.2972"/>
<text text-anchor="start" x="712.1105" y="-1075.3972" font-family="Helvetica,sans-Serif" font-size="11.00" fill="#000000">0 rows</text>
<polygon fill="#ffffff" stroke="transparent" points="747.5,-1069.2972 747.5,-1088.2972 791.5,-1088.2972 791.5,-1069.2972 747.5,-1069.2972"/>
<polygon fill="none" stroke="#000000" points="747.5,-1069.2972 747.5,-1088.2972 791.5,-1088.2972 791.5,-1069.2972 747.5,-1069.2972"/>
<text text-anchor="start" x="782.3862" y="-1075.3972" font-family="Helvetica,sans-Serif" font-size="11.00" fill="#000000"> &#160;</text>
</a>
</g>
</g>
<!-- users -->
<g id="node2" class="node">
<title>users</title>
<g id="a_node2"><a xlink:href="../../tables/users.html" xlink:title="users" target="_top">
<polygon fill="#ffffff" stroke="transparent" points="8,-332.7972 8,-525.7972 119,-525.7972 119,-332.7972 8,-332.7972"/>
<polygon fill="#f5f5f5" stroke="transparent" points="8.5,-502.2972 8.5,-525.2972 119.5,-525.2972 119.5,-502.2972 8.5,-502.2972"/>
<polygon fill="none" stroke="#000000" points="8.5,-502.2972 8.5,-525.2972 119.5,-525.2972 119.5,-502.2972 8.5,-502.2972"/>
<text text-anchor="start" x="13.5" y="-510.8972" font-family="Helvetica,sans-Serif" font-weight="bold" font-size="11.00" fill="#000000">users</text>
<text text-anchor="start" x="84.5437" y="-510.3972" font-family="Helvetica,sans-Serif" font-size="11.00" fill="#000000">[table]</text>
<polygon fill="none" stroke="#000000" points="8.5,-480.2972 8.5,-502.2972 119.5,-502.2972 119.5,-480.2972 8.5,-480.2972"/>
<image xlink:href="../../images/primaryKeys.png" width="11px" height="12px" preserveAspectRatio="xMinYMin meet" x="13.5" y="-497.297"/>
<text text-anchor="start" x="28.5" y="-487.3972" font-family="Helvetica,sans-Serif" font-size="11.00" fill="#000000">id</text>
<polygon fill="#ffffff" stroke="transparent" points="8.5,-458.2972 8.5,-480.2972 119.5,-480.2972 119.5,-458.2972 8.5,-458.2972"/>
<polygon fill="none" stroke="#000000" points="8.5,-458.2972 8.5,-480.2972 119.5,-480.2972 119.5,-458.2972 8.5,-458.2972"/>
<text text-anchor="start" x="28.5" y="-465.3972" font-family="Helvetica,sans-Serif" font-size="11.00" fill="#000000">username</text>
<polygon fill="#ffffff" stroke="transparent" points="8.5,-436.2972 8.5,-458.2972 119.5,-458.2972 119.5,-436.2972 8.5,-436.2972"/>
<polygon fill="none" stroke="#000000" points="8.5,-436.2972 8.5,-458.2972 119.5,-458.2972 119.5,-436.2972 8.5,-436.2972"/>
<text text-anchor="start" x="28.5" y="-443.3972" font-family="Helvetica,sans-Serif" font-size="11.00" fill="#000000">email</text>
<polygon fill="#ffffff" stroke="transparent" points="8.5,-414.2972 8.5,-436.2972 119.5,-436.2972 119.5,-414.2972 8.5,-414.2972"/>
<polygon fill="none" stroke="#000000" points="8.5,-414.2972 8.5,-436.2972 119.5,-436.2972 119.5,-414.2972 8.5,-414.2972"/>
<image xlink:href="../../images/foreignKeys.png" width="11px" height="12px" preserveAspectRatio="xMinYMin meet" x="13.5" y="-431.297"/>
<text text-anchor="start" x="28.5" y="-421.3972" font-family="Helvetica,sans-Serif" font-size="11.00" fill="#000000">department_id</text>
<polygon fill="none" stroke="#000000" points="8.5,-392.2972 8.5,-414.2972 119.5,-414.2972 119.5,-392.2972 8.5,-392.2972"/>
<image xlink:href="../../images/foreignKeys.png" width="11px" height="12px" preserveAspectRatio="xMinYMin meet" x="13.5" y="-409.297"/>
<text text-anchor="start" x="28.5" y="-399.3972" font-family="Helvetica,sans-Serif" font-size="11.00" fill="#000000">created_by</text>
<polygon fill="none" stroke="#000000" points="8.5,-370.2972 8.5,-392.2972 119.5,-392.2972 119.5,-370.2972 8.5,-370.2972"/>
<image xlink:href="../../images/foreignKeys.png" width="11px" height="12px" preserveAspectRatio="xMinYMin meet" x="13.5" y="-387.297"/>
<text text-anchor="start" x="28.5" y="-377.3972" font-family="Helvetica,sans-Serif" font-size="11.00" fill="#000000">updated_by</text>
<polygon fill="none" stroke="#000000" points="8.5,-351.2972 8.5,-370.2972 119.5,-370.2972 119.5,-351.2972 8.5,-351.2972"/>
<text text-anchor="start" x="11.5" y="-357.3972" font-family="Helvetica,sans-Serif" font-size="11.00" fill="#000000">...</text>
<polygon fill="#ffffff" stroke="transparent" points="8.5,-332.2972 8.5,-351.2972 38.5,-351.2972 38.5,-332.2972 8.5,-332.2972"/>
<polygon fill="none" stroke="#000000" points="8.5,-332.2972 8.5,-351.2972 38.5,-351.2972 38.5,-332.2972 8.5,-332.2972"/>
<text text-anchor="start" x="11.5" y="-338.3972" font-family="Helvetica,sans-Serif" font-size="11.00" fill="#000000">&lt; 3</text>
<polygon fill="#ffffff" stroke="transparent" points="38.5,-332.2972 38.5,-351.2972 87.5,-351.2972 87.5,-332.2972 38.5,-332.2972"/>
<polygon fill="none" stroke="#000000" points="38.5,-332.2972 38.5,-351.2972 87.5,-351.2972 87.5,-332.2972 38.5,-332.2972"/>
<text text-anchor="start" x="45.9956" y="-338.3972" font-family="Helvetica,sans-Serif" font-size="11.00" fill="#000000">10 rows</text>
<polygon fill="#ffffff" stroke="transparent" points="87.5,-332.2972 87.5,-351.2972 119.5,-351.2972 119.5,-332.2972 87.5,-332.2972"/>
<polygon fill="none" stroke="#000000" points="87.5,-332.2972 87.5,-351.2972 119.5,-351.2972 119.5,-332.2972 87.5,-332.2972"/>
<text text-anchor="start" x="94.7904" y="-338.3972" font-family="Helvetica,sans-Serif" font-size="11.00" fill="#000000">66 &gt;</text>
</a>
</g>
</g>
<!-- oms.delivery_appointments&#45;&gt;users -->
<g id="edge1" class="edge">
<title>oms.delivery_appointments:w&#45;&gt;users:e</title>
<path fill="none" stroke="#000000" d="M579.904,-1140.4861C395.2985,-1145.247 292.1779,-1237.2867 160,-1102.2972 112.3989,-1053.6836 187.5379,-491.2972 119.5,-491.2972"/>
<polygon fill="#000000" stroke="#000000" points="586.5007,-1140.4008 594.5466,-1143.8969 590.5003,-1140.349 594.5,-1140.2972 594.5,-1140.2972 594.5,-1140.2972 590.5003,-1140.349 594.4534,-1136.6975 586.5007,-1140.4008 586.5007,-1140.4008"/>
<ellipse fill="none" stroke="#000000" cx="583.3009" cy="-1140.4422" rx="3.2" ry="3.2"/>
</g>
<!-- oms.delivery_appointments&#45;&gt;users -->
<g id="edge3" class="edge">
<title>oms.delivery_appointments:w&#45;&gt;users:e</title>
<path fill="none" stroke="#000000" d="M579.922,-1117.8992C497.7266,-1114.4191 190.889,-1088.5045 160,-1055.2972 117.2087,-1009.2944 182.328,-491.2972 119.5,-491.2972"/>
<polygon fill="#000000" stroke="#000000" points="586.503,-1118.0788 594.4017,-1121.8959 590.5015,-1118.188 594.5,-1118.2972 594.5,-1118.2972 594.5,-1118.2972 590.5015,-1118.188 594.5983,-1114.6986 586.503,-1118.0788 586.503,-1118.0788"/>
<ellipse fill="none" stroke="#000000" cx="583.3042" cy="-1117.9915" rx="3.2" ry="3.2"/>
</g>
<!-- orders -->
<g id="node3" class="node">
<title>orders</title>
<g id="a_node3"><a xlink:href="../../tables/orders.html" xlink:title="orders" target="_top">
<polygon fill="#ffffff" stroke="transparent" points="328,-407.2972 328,-893.2972 545,-893.2972 545,-407.2972 328,-407.2972"/>
<polygon fill="#f5f5f5" stroke="transparent" points="330.5,-868.2972 330.5,-891.2972 543.5,-891.2972 543.5,-868.2972 330.5,-868.2972"/>
<polygon fill="none" stroke="#000000" points="330.5,-868.2972 330.5,-891.2972 543.5,-891.2972 543.5,-868.2972 330.5,-868.2972"/>
<text text-anchor="start" x="335.5" y="-876.8972" font-family="Helvetica,sans-Serif" font-weight="bold" font-size="11.00" fill="#000000">orders</text>
<text text-anchor="start" x="508.5437" y="-876.3972" font-family="Helvetica,sans-Serif" font-size="11.00" fill="#000000">[table]</text>
<polygon fill="none" stroke="#000000" points="330.5,-846.2972 330.5,-868.2972 451.5,-868.2972 451.5,-846.2972 330.5,-846.2972"/>
<image xlink:href="../../images/primaryKeys.png" width="11px" height="12px" preserveAspectRatio="xMinYMin meet" x="335.5" y="-863.297"/>
<text text-anchor="start" x="350.5" y="-853.3972" font-family="Helvetica,sans-Serif" font-size="11.00" fill="#000000">order_id</text>
<polygon fill="none" stroke="#000000" points="451.5,-846.2972 451.5,-868.2972 543.5,-868.2972 543.5,-846.2972 451.5,-846.2972"/>
<text text-anchor="start" x="454.5" y="-853.9972" font-family="Helvetica,sans-Serif" font-size="11.00" fill="#000000">bigserial[19]</text>
<polygon fill="#ffffff" stroke="transparent" points="330.5,-824.2972 330.5,-846.2972 451.5,-846.2972 451.5,-824.2972 330.5,-824.2972"/>
<polygon fill="none" stroke="#000000" points="330.5,-824.2972 330.5,-846.2972 451.5,-846.2972 451.5,-824.2972 330.5,-824.2972"/>
<text text-anchor="start" x="350.5" y="-831.3972" font-family="Helvetica,sans-Serif" font-size="11.00" fill="#000000">order_number</text>
<polygon fill="none" stroke="#000000" points="451.5,-824.2972 451.5,-846.2972 543.5,-846.2972 543.5,-824.2972 451.5,-824.2972"/>
<text text-anchor="start" x="454.5" y="-831.9972" font-family="Helvetica,sans-Serif" font-size="11.00" fill="#000000">varchar[50]</text>
<polygon fill="#ffffff" stroke="transparent" points="330.5,-802.2972 330.5,-824.2972 451.5,-824.2972 451.5,-802.2972 330.5,-802.2972"/>
<polygon fill="none" stroke="#000000" points="330.5,-802.2972 330.5,-824.2972 451.5,-824.2972 451.5,-802.2972 330.5,-802.2972"/>
<image xlink:href="../../images/foreignKeys.png" width="11px" height="12px" preserveAspectRatio="xMinYMin meet" x="335.5" y="-819.297"/>
<text text-anchor="start" x="350.5" y="-809.3972" font-family="Helvetica,sans-Serif" font-size="11.00" fill="#000000">customer_id</text>
<polygon fill="none" stroke="#000000" points="451.5,-802.2972 451.5,-824.2972 543.5,-824.2972 543.5,-802.2972 451.5,-802.2972"/>
<text text-anchor="start" x="454.5" y="-809.9972" font-family="Helvetica,sans-Serif" font-size="11.00" fill="#000000">int8[19]</text>
<polygon fill="#ffffff" stroke="transparent" points="330.5,-780.2972 330.5,-802.2972 451.5,-802.2972 451.5,-780.2972 330.5,-780.2972"/>
<polygon fill="none" stroke="#000000" points="330.5,-780.2972 330.5,-802.2972 451.5,-802.2972 451.5,-780.2972 330.5,-780.2972"/>
<image xlink:href="../../images/foreignKeys.png" width="11px" height="12px" preserveAspectRatio="xMinYMin meet" x="335.5" y="-797.297"/>
<text text-anchor="start" x="350.5" y="-787.3972" font-family="Helvetica,sans-Serif" font-size="11.00" fill="#000000">user_id</text>
<polygon fill="none" stroke="#000000" points="451.5,-780.2972 451.5,-802.2972 543.5,-802.2972 543.5,-780.2972 451.5,-780.2972"/>
<text text-anchor="start" x="454.5" y="-787.9972" font-family="Helvetica,sans-Serif" font-size="11.00" fill="#000000">int8[19]</text>
<polygon fill="#ffffff" stroke="transparent" points="330.5,-758.2972 330.5,-780.2972 451.5,-780.2972 451.5,-758.2972 330.5,-758.2972"/>
<polygon fill="none" stroke="#000000" points="330.5,-758.2972 330.5,-780.2972 451.5,-780.2972 451.5,-758.2972 330.5,-758.2972"/>
<text text-anchor="start" x="350.5" y="-765.3972" font-family="Helvetica,sans-Serif" font-size="11.00" fill="#000000">order_date</text>
<polygon fill="none" stroke="#000000" points="451.5,-758.2972 451.5,-780.2972 543.5,-780.2972 543.5,-758.2972 451.5,-758.2972"/>
<text text-anchor="start" x="454.5" y="-765.9972" font-family="Helvetica,sans-Serif" font-size="11.00" fill="#000000">date[13]</text>
<polygon fill="none" stroke="#000000" points="330.5,-736.2972 330.5,-758.2972 451.5,-758.2972 451.5,-736.2972 330.5,-736.2972"/>
<text text-anchor="start" x="350.5" y="-743.3972" font-family="Helvetica,sans-Serif" font-size="11.00" fill="#000000">status</text>
<polygon fill="none" stroke="#000000" points="451.5,-736.2972 451.5,-758.2972 543.5,-758.2972 543.5,-736.2972 451.5,-736.2972"/>
<text text-anchor="start" x="454.5" y="-743.9972" font-family="Helvetica,sans-Serif" font-size="11.00" fill="#000000">varchar[20]</text>
<polygon fill="none" stroke="#000000" points="330.5,-714.2972 330.5,-736.2972 451.5,-736.2972 451.5,-714.2972 330.5,-714.2972"/>
<text text-anchor="start" x="350.5" y="-721.3972" font-family="Helvetica,sans-Serif" font-size="11.00" fill="#000000">total_amount</text>
<polygon fill="none" stroke="#000000" points="451.5,-714.2972 451.5,-736.2972 543.5,-736.2972 543.5,-714.2972 451.5,-714.2972"/>
<text text-anchor="start" x="454.5" y="-721.9972" font-family="Helvetica,sans-Serif" font-size="11.00" fill="#000000">numeric[12,2]</text>
<polygon fill="none" stroke="#000000" points="330.5,-692.2972 330.5,-714.2972 451.5,-714.2972 451.5,-692.2972 330.5,-692.2972"/>
<text text-anchor="start" x="350.5" y="-699.3972" font-family="Helvetica,sans-Serif" font-size="11.00" fill="#000000">discount_amount</text>
<polygon fill="none" stroke="#000000" points="451.5,-692.2972 451.5,-714.2972 543.5,-714.2972 543.5,-692.2972 451.5,-692.2972"/>
<text text-anchor="start" x="454.5" y="-699.9972" font-family="Helvetica,sans-Serif" font-size="11.00" fill="#000000">numeric[12,2]</text>
<polygon fill="none" stroke="#000000" points="330.5,-670.2972 330.5,-692.2972 451.5,-692.2972 451.5,-670.2972 330.5,-670.2972"/>
<text text-anchor="start" x="350.5" y="-677.3972" font-family="Helvetica,sans-Serif" font-size="11.00" fill="#000000">tax_amount</text>
<polygon fill="none" stroke="#000000" points="451.5,-670.2972 451.5,-692.2972 543.5,-692.2972 543.5,-670.2972 451.5,-670.2972"/>
<text text-anchor="start" x="454.5" y="-677.9972" font-family="Helvetica,sans-Serif" font-size="11.00" fill="#000000">numeric[12,2]</text>
<polygon fill="none" stroke="#000000" points="330.5,-648.2972 330.5,-670.2972 451.5,-670.2972 451.5,-648.2972 330.5,-648.2972"/>
<text text-anchor="start" x="350.5" y="-655.3972" font-family="Helvetica,sans-Serif" font-size="11.00" fill="#000000">final_amount</text>
<polygon fill="none" stroke="#000000" points="451.5,-648.2972 451.5,-670.2972 543.5,-670.2972 543.5,-648.2972 451.5,-648.2972"/>
<text text-anchor="start" x="454.5" y="-655.9972" font-family="Helvetica,sans-Serif" font-size="11.00" fill="#000000">numeric[12,2]</text>
<polygon fill="none" stroke="#000000" points="330.5,-626.2972 330.5,-648.2972 451.5,-648.2972 451.5,-626.2972 330.5,-626.2972"/>
<text text-anchor="start" x="350.5" y="-633.3972" font-family="Helvetica,sans-Serif" font-size="11.00" fill="#000000">notes</text>
<polygon fill="none" stroke="#000000" points="451.5,-626.2972 451.5,-648.2972 543.5,-648.2972 543.5,-626.2972 451.5,-626.2972"/>
<text text-anchor="start" x="454.5" y="-633.9972" font-family="Helvetica,sans-Serif" font-size="11.00" fill="#000000">text[2147483647]</text>
<polygon fill="none" stroke="#000000" points="330.5,-604.2972 330.5,-626.2972 451.5,-626.2972 451.5,-604.2972 330.5,-604.2972"/>
<text text-anchor="start" x="350.5" y="-611.3972" font-family="Helvetica,sans-Serif" font-size="11.00" fill="#000000">created_at</text>
<polygon fill="none" stroke="#000000" points="451.5,-604.2972 451.5,-626.2972 543.5,-626.2972 543.5,-604.2972 451.5,-604.2972"/>
<text text-anchor="start" x="454.1023" y="-611.9972" font-family="Helvetica,sans-Serif" font-size="11.00" fill="#000000">timestamptz[35,6]</text>
<polygon fill="none" stroke="#000000" points="330.5,-582.2972 330.5,-604.2972 451.5,-604.2972 451.5,-582.2972 330.5,-582.2972"/>
<text text-anchor="start" x="350.5" y="-589.3972" font-family="Helvetica,sans-Serif" font-size="11.00" fill="#000000">updated_at</text>
<polygon fill="none" stroke="#000000" points="451.5,-582.2972 451.5,-604.2972 543.5,-604.2972 543.5,-582.2972 451.5,-582.2972"/>
<text text-anchor="start" x="454.1023" y="-589.9972" font-family="Helvetica,sans-Serif" font-size="11.00" fill="#000000">timestamptz[35,6]</text>
<polygon fill="none" stroke="#000000" points="330.5,-560.2972 330.5,-582.2972 451.5,-582.2972 451.5,-560.2972 330.5,-560.2972"/>
<text text-anchor="start" x="350.5" y="-567.3972" font-family="Helvetica,sans-Serif" font-size="11.00" fill="#000000">eta_date</text>
<polygon fill="none" stroke="#000000" points="451.5,-560.2972 451.5,-582.2972 543.5,-582.2972 543.5,-560.2972 451.5,-560.2972"/>
<text text-anchor="start" x="454.5" y="-567.9972" font-family="Helvetica,sans-Serif" font-size="11.00" fill="#000000">date[13]</text>
<polygon fill="none" stroke="#000000" points="330.5,-538.2972 330.5,-560.2972 451.5,-560.2972 451.5,-538.2972 330.5,-538.2972"/>
<text text-anchor="start" x="350.5" y="-545.3972" font-family="Helvetica,sans-Serif" font-size="11.00" fill="#000000">lfd_date</text>
<polygon fill="none" stroke="#000000" points="451.5,-538.2972 451.5,-560.2972 543.5,-560.2972 543.5,-538.2972 451.5,-538.2972"/>
<text text-anchor="start" x="454.5" y="-545.9972" font-family="Helvetica,sans-Serif" font-size="11.00" fill="#000000">date[13]</text>
<polygon fill="none" stroke="#000000" points="330.5,-516.2972 330.5,-538.2972 451.5,-538.2972 451.5,-516.2972 330.5,-516.2972"/>
<text text-anchor="start" x="350.5" y="-523.3972" font-family="Helvetica,sans-Serif" font-size="11.00" fill="#000000">pickup_date</text>
<polygon fill="none" stroke="#000000" points="451.5,-516.2972 451.5,-538.2972 543.5,-538.2972 543.5,-516.2972 451.5,-516.2972"/>
<text text-anchor="start" x="454.5" y="-523.9972" font-family="Helvetica,sans-Serif" font-size="11.00" fill="#000000">date[13]</text>
<polygon fill="none" stroke="#000000" points="330.5,-494.2972 330.5,-516.2972 451.5,-516.2972 451.5,-494.2972 330.5,-494.2972"/>
<image xlink:href="../../images/foreignKeys.png" width="11px" height="12px" preserveAspectRatio="xMinYMin meet" x="335.5" y="-511.297"/>
<text text-anchor="start" x="350.5" y="-501.3972" font-family="Helvetica,sans-Serif" font-size="11.00" fill="#000000">created_by</text>
<polygon fill="none" stroke="#000000" points="451.5,-494.2972 451.5,-516.2972 543.5,-516.2972 543.5,-494.2972 451.5,-494.2972"/>
<text text-anchor="start" x="454.5" y="-501.9972" font-family="Helvetica,sans-Serif" font-size="11.00" fill="#000000">int8[19]</text>
<polygon fill="none" stroke="#000000" points="330.5,-472.2972 330.5,-494.2972 451.5,-494.2972 451.5,-472.2972 330.5,-472.2972"/>
<image xlink:href="../../images/foreignKeys.png" width="11px" height="12px" preserveAspectRatio="xMinYMin meet" x="335.5" y="-489.297"/>
<text text-anchor="start" x="350.5" y="-479.3972" font-family="Helvetica,sans-Serif" font-size="11.00" fill="#000000">updated_by</text>
<polygon fill="none" stroke="#000000" points="451.5,-472.2972 451.5,-494.2972 543.5,-494.2972 543.5,-472.2972 451.5,-472.2972"/>
<text text-anchor="start" x="454.5" y="-479.9972" font-family="Helvetica,sans-Serif" font-size="11.00" fill="#000000">int8[19]</text>
<polygon fill="none" stroke="#000000" points="330.5,-450.2972 330.5,-472.2972 451.5,-472.2972 451.5,-450.2972 330.5,-450.2972"/>
<text text-anchor="start" x="350.5" y="-457.3972" font-family="Helvetica,sans-Serif" font-size="11.00" fill="#000000">ready_date</text>
<polygon fill="none" stroke="#000000" points="451.5,-450.2972 451.5,-472.2972 543.5,-472.2972 543.5,-450.2972 451.5,-450.2972"/>
<text text-anchor="start" x="454.5" y="-457.9972" font-family="Helvetica,sans-Serif" font-size="11.00" fill="#000000">date[13]</text>
<polygon fill="none" stroke="#000000" points="330.5,-428.2972 330.5,-450.2972 451.5,-450.2972 451.5,-428.2972 330.5,-428.2972"/>
<text text-anchor="start" x="350.5" y="-435.3972" font-family="Helvetica,sans-Serif" font-size="11.00" fill="#000000">return_deadline</text>
<polygon fill="none" stroke="#000000" points="451.5,-428.2972 451.5,-450.2972 543.5,-450.2972 543.5,-428.2972 451.5,-428.2972"/>
<text text-anchor="start" x="454.5" y="-435.9972" font-family="Helvetica,sans-Serif" font-size="11.00" fill="#000000">date[13]</text>
<polygon fill="#ffffff" stroke="transparent" points="330.5,-409.2972 330.5,-428.2972 382.5,-428.2972 382.5,-409.2972 330.5,-409.2972"/>
<polygon fill="none" stroke="#000000" points="330.5,-409.2972 330.5,-428.2972 382.5,-428.2972 382.5,-409.2972 330.5,-409.2972"/>
<text text-anchor="start" x="333.5" y="-415.3972" font-family="Helvetica,sans-Serif" font-size="11.00" fill="#000000">&lt; 4</text>
<polygon fill="#ffffff" stroke="transparent" points="382.5,-409.2972 382.5,-428.2972 451.5,-428.2972 451.5,-409.2972 382.5,-409.2972"/>
<polygon fill="none" stroke="#000000" points="382.5,-409.2972 382.5,-428.2972 451.5,-428.2972 451.5,-409.2972 382.5,-409.2972"/>
<text text-anchor="start" x="416.1105" y="-415.3972" font-family="Helvetica,sans-Serif" font-size="11.00" fill="#000000">2 rows</text>
<polygon fill="#ffffff" stroke="transparent" points="451.5,-409.2972 451.5,-428.2972 543.5,-428.2972 543.5,-409.2972 451.5,-409.2972"/>
<polygon fill="none" stroke="#000000" points="451.5,-409.2972 451.5,-428.2972 543.5,-428.2972 543.5,-409.2972 451.5,-409.2972"/>
<text text-anchor="start" x="524.9053" y="-415.3972" font-family="Helvetica,sans-Serif" font-size="11.00" fill="#000000">8 &gt;</text>
<polygon fill="none" stroke="#000000" stroke-width="2" points="329,-408.2972 329,-892.2972 544,-892.2972 544,-408.2972 329,-408.2972"/>
</a>
</g>
</g>
<!-- oms.delivery_appointments&#45;&gt;orders -->
<g id="edge2" class="edge">
<title>oms.delivery_appointments:w&#45;&gt;orders:e</title>
<path fill="none" stroke="#000000" d="M580.5699,-1201.3637C530.0827,-1158.9445 616.3682,-857.2972 543.5,-857.2972"/>
<polygon fill="#000000" stroke="#000000" points="586.959,-1203.6264 593.2981,-1209.6907 590.7295,-1204.9618 594.5,-1206.2972 594.5,-1206.2972 594.5,-1206.2972 590.7295,-1204.9618 595.7019,-1202.9038 586.959,-1203.6264 586.959,-1203.6264"/>
<ellipse fill="none" stroke="#000000" cx="583.9426" cy="-1202.5581" rx="3.2" ry="3.2"/>
</g>
<!-- orders&#45;&gt;users -->
<g id="edge15" class="edge">
<title>orders:w&#45;&gt;users:e</title>
<path fill="none" stroke="#000000" d="M315.9482,-505.1804C233.8372,-503.8337 208.436,-491.2972 119.5,-491.2972"/>
<polygon fill="#000000" stroke="#000000" points="322.5003,-505.233 330.4711,-508.8971 326.5001,-505.2651 330.5,-505.2972 330.5,-505.2972 330.5,-505.2972 326.5001,-505.2651 330.5289,-501.6974 322.5003,-505.233 322.5003,-505.233"/>
<ellipse fill="none" stroke="#000000" cx="319.3004" cy="-505.2073" rx="3.2" ry="3.2"/>
</g>
<!-- orders&#45;&gt;users -->
<g id="edge17" class="edge">
<title>orders:w&#45;&gt;users:e</title>
<path fill="none" stroke="#000000" d="M315.7115,-483.3357C251.8232,-483.6815 230.5783,-486.3129 160,-489.2972 141.9942,-490.0586 137.5219,-491.2972 119.5,-491.2972"/>
<polygon fill="#000000" stroke="#000000" points="322.5,-483.3181 330.5094,-486.8972 326.5,-483.3077 330.5,-483.2972 330.5,-483.2972 330.5,-483.2972 326.5,-483.3077 330.4906,-479.6973 322.5,-483.3181 322.5,-483.3181"/>
<ellipse fill="none" stroke="#000000" cx="319.3" cy="-483.3264" rx="3.2" ry="3.2"/>
</g>
<!-- orders&#45;&gt;users -->
<g id="edge18" class="edge">
<title>orders:w&#45;&gt;users:e</title>
<path fill="none" stroke="#000000" d="M317.0958,-785.8099C283.879,-753.0578 320.1956,-583.5485 287,-546.2972 247.8027,-502.3111 215.4637,-528.1715 160,-508.2972 141.6228,-501.7121 139.0214,-491.2972 119.5,-491.2972"/>
<polygon fill="#000000" stroke="#000000" points="323.0964,-788.2663 329.1361,-794.6289 326.7982,-789.7818 330.5,-791.2972 330.5,-791.2972 330.5,-791.2972 326.7982,-789.7818 331.8639,-787.9656 323.0964,-788.2663 323.0964,-788.2663"/>
<ellipse fill="none" stroke="#000000" cx="320.1349" cy="-787.054" rx="3.2" ry="3.2"/>
</g>
<!-- customers -->
<g id="node6" class="node">
<title>customers</title>
<g id="a_node6"><a xlink:href="../../tables/customers.html" xlink:title="customers" target="_top">
<polygon fill="#ffffff" stroke="transparent" points="168,-556.7972 168,-727.7972 279,-727.7972 279,-556.7972 168,-556.7972"/>
<polygon fill="#f5f5f5" stroke="transparent" points="168.5,-704.2972 168.5,-727.2972 279.5,-727.2972 279.5,-704.2972 168.5,-704.2972"/>
<polygon fill="none" stroke="#000000" points="168.5,-704.2972 168.5,-727.2972 279.5,-727.2972 279.5,-704.2972 168.5,-704.2972"/>
<text text-anchor="start" x="173.5" y="-712.8972" font-family="Helvetica,sans-Serif" font-weight="bold" font-size="11.00" fill="#000000">customers</text>
<text text-anchor="start" x="244.5437" y="-712.3972" font-family="Helvetica,sans-Serif" font-size="11.00" fill="#000000">[table]</text>
<polygon fill="none" stroke="#000000" points="168.5,-682.2972 168.5,-704.2972 279.5,-704.2972 279.5,-682.2972 168.5,-682.2972"/>
<image xlink:href="../../images/primaryKeys.png" width="11px" height="12px" preserveAspectRatio="xMinYMin meet" x="173.5" y="-699.297"/>
<text text-anchor="start" x="188.5" y="-689.3972" font-family="Helvetica,sans-Serif" font-size="11.00" fill="#000000">id</text>
<polygon fill="#ffffff" stroke="transparent" points="168.5,-660.2972 168.5,-682.2972 279.5,-682.2972 279.5,-660.2972 168.5,-660.2972"/>
<polygon fill="none" stroke="#000000" points="168.5,-660.2972 168.5,-682.2972 279.5,-682.2972 279.5,-660.2972 168.5,-660.2972"/>
<text text-anchor="start" x="188.5" y="-667.3972" font-family="Helvetica,sans-Serif" font-size="11.00" fill="#000000">code</text>
<polygon fill="none" stroke="#000000" points="168.5,-638.2972 168.5,-660.2972 279.5,-660.2972 279.5,-638.2972 168.5,-638.2972"/>
<image xlink:href="../../images/foreignKeys.png" width="11px" height="12px" preserveAspectRatio="xMinYMin meet" x="173.5" y="-655.297"/>
<text text-anchor="start" x="188.5" y="-645.3972" font-family="Helvetica,sans-Serif" font-size="11.00" fill="#000000">contact_id</text>
<polygon fill="none" stroke="#000000" points="168.5,-616.2972 168.5,-638.2972 279.5,-638.2972 279.5,-616.2972 168.5,-616.2972"/>
<image xlink:href="../../images/foreignKeys.png" width="11px" height="12px" preserveAspectRatio="xMinYMin meet" x="173.5" y="-633.297"/>
<text text-anchor="start" x="188.5" y="-623.3972" font-family="Helvetica,sans-Serif" font-size="11.00" fill="#000000">created_by</text>
<polygon fill="none" stroke="#000000" points="168.5,-594.2972 168.5,-616.2972 279.5,-616.2972 279.5,-594.2972 168.5,-594.2972"/>
<image xlink:href="../../images/foreignKeys.png" width="11px" height="12px" preserveAspectRatio="xMinYMin meet" x="173.5" y="-611.297"/>
<text text-anchor="start" x="188.5" y="-601.3972" font-family="Helvetica,sans-Serif" font-size="11.00" fill="#000000">updated_by</text>
<polygon fill="none" stroke="#000000" points="168.5,-575.2972 168.5,-594.2972 279.5,-594.2972 279.5,-575.2972 168.5,-575.2972"/>
<text text-anchor="start" x="171.5" y="-581.3972" font-family="Helvetica,sans-Serif" font-size="11.00" fill="#000000">...</text>
<polygon fill="#ffffff" stroke="transparent" points="168.5,-556.2972 168.5,-575.2972 198.5,-575.2972 198.5,-556.2972 168.5,-556.2972"/>
<polygon fill="none" stroke="#000000" points="168.5,-556.2972 168.5,-575.2972 198.5,-575.2972 198.5,-556.2972 168.5,-556.2972"/>
<text text-anchor="start" x="171.5" y="-562.3972" font-family="Helvetica,sans-Serif" font-size="11.00" fill="#000000">&lt; 3</text>
<polygon fill="#ffffff" stroke="transparent" points="198.5,-556.2972 198.5,-575.2972 253.5,-575.2972 253.5,-556.2972 198.5,-556.2972"/>
<polygon fill="none" stroke="#000000" points="198.5,-556.2972 198.5,-575.2972 253.5,-575.2972 253.5,-556.2972 198.5,-556.2972"/>
<text text-anchor="start" x="205.8807" y="-562.3972" font-family="Helvetica,sans-Serif" font-size="11.00" fill="#000000">135 rows</text>
<polygon fill="#ffffff" stroke="transparent" points="253.5,-556.2972 253.5,-575.2972 279.5,-575.2972 279.5,-556.2972 253.5,-556.2972"/>
<polygon fill="none" stroke="#000000" points="253.5,-556.2972 253.5,-575.2972 279.5,-575.2972 279.5,-556.2972 253.5,-556.2972"/>
<text text-anchor="start" x="260.9053" y="-562.3972" font-family="Helvetica,sans-Serif" font-size="11.00" fill="#000000">1 &gt;</text>
</a>
</g>
</g>
<!-- orders&#45;&gt;customers -->
<g id="edge16" class="edge">
<title>orders:w&#45;&gt;customers:e</title>
<path fill="none" stroke="#000000" d="M316.3875,-809.8353C284.4655,-790.16 331.5646,-693.2972 279.5,-693.2972"/>
<polygon fill="#000000" stroke="#000000" points="322.7304,-811.3912 329.6423,-816.7936 326.6152,-812.3442 330.5,-813.2972 330.5,-813.2972 330.5,-813.2972 326.6152,-812.3442 331.3577,-809.8009 322.7304,-811.3912 322.7304,-811.3912"/>
<ellipse fill="none" stroke="#000000" cx="319.6225" cy="-810.6288" rx="3.2" ry="3.2"/>
</g>
<!-- oms.order_allocations -->
<g id="node4" class="node">
<title>oms.order_allocations</title>
<g id="a_node4"><a xlink:href="../../../oms/tables/order_allocations.html" xlink:title="oms.order_allocations" target="_top">
<polygon fill="#ffffff" stroke="transparent" points="609,-893.7972 609,-1020.7972 776,-1020.7972 776,-893.7972 609,-893.7972"/>
<polygon fill="#f5f5f5" stroke="transparent" points="609.5,-997.2972 609.5,-1020.2972 776.5,-1020.2972 776.5,-997.2972 609.5,-997.2972"/>
<polygon fill="none" stroke="#000000" points="609.5,-997.2972 609.5,-1020.2972 776.5,-1020.2972 776.5,-997.2972 609.5,-997.2972"/>
<text text-anchor="start" x="614.5" y="-1005.8972" font-family="Helvetica,sans-Serif" font-weight="bold" font-size="11.00" fill="#000000">oms.order_allocations</text>
<text text-anchor="start" x="742.0219" y="-1005.3972" font-family="Helvetica,sans-Serif" font-size="11.00" fill="#000000">[table]</text>
<polygon fill="none" stroke="#000000" points="609.5,-975.2972 609.5,-997.2972 776.5,-997.2972 776.5,-975.2972 609.5,-975.2972"/>
<image xlink:href="../../images/foreignKeys.png" width="11px" height="12px" preserveAspectRatio="xMinYMin meet" x="614.5" y="-992.297"/>
<text text-anchor="start" x="639.5" y="-982.3972" font-family="Helvetica,sans-Serif" font-size="11.00" fill="#000000">order_id</text>
<polygon fill="none" stroke="#000000" points="609.5,-953.2972 609.5,-975.2972 776.5,-975.2972 776.5,-953.2972 609.5,-953.2972"/>
<image xlink:href="../../images/foreignKeys.png" width="11px" height="12px" preserveAspectRatio="xMinYMin meet" x="614.5" y="-970.297"/>
<text text-anchor="start" x="639.5" y="-960.3972" font-family="Helvetica,sans-Serif" font-size="11.00" fill="#000000">created_by</text>
<polygon fill="none" stroke="#000000" points="609.5,-931.2972 609.5,-953.2972 776.5,-953.2972 776.5,-931.2972 609.5,-931.2972"/>
<image xlink:href="../../images/foreignKeys.png" width="11px" height="12px" preserveAspectRatio="xMinYMin meet" x="614.5" y="-948.297"/>
<text text-anchor="start" x="639.5" y="-938.3972" font-family="Helvetica,sans-Serif" font-size="11.00" fill="#000000">updated_by</text>
<polygon fill="none" stroke="#000000" points="609.5,-912.2972 609.5,-931.2972 776.5,-931.2972 776.5,-912.2972 609.5,-912.2972"/>
<text text-anchor="start" x="612.5" y="-918.3972" font-family="Helvetica,sans-Serif" font-size="11.00" fill="#000000">...</text>
<polygon fill="#ffffff" stroke="transparent" points="609.5,-893.2972 609.5,-912.2972 678.5,-912.2972 678.5,-893.2972 609.5,-893.2972"/>
<polygon fill="none" stroke="#000000" points="609.5,-893.2972 609.5,-912.2972 678.5,-912.2972 678.5,-893.2972 609.5,-893.2972"/>
<text text-anchor="start" x="612.5" y="-899.3972" font-family="Helvetica,sans-Serif" font-size="11.00" fill="#000000">&lt; 3</text>
<polygon fill="#ffffff" stroke="transparent" points="678.5,-893.2972 678.5,-912.2972 740.5,-912.2972 740.5,-893.2972 678.5,-893.2972"/>
<polygon fill="none" stroke="#000000" points="678.5,-893.2972 678.5,-912.2972 740.5,-912.2972 740.5,-893.2972 678.5,-893.2972"/>
<text text-anchor="start" x="705.1105" y="-899.3972" font-family="Helvetica,sans-Serif" font-size="11.00" fill="#000000">0 rows</text>
<polygon fill="#ffffff" stroke="transparent" points="740.5,-893.2972 740.5,-912.2972 776.5,-912.2972 776.5,-893.2972 740.5,-893.2972"/>
<polygon fill="none" stroke="#000000" points="740.5,-893.2972 740.5,-912.2972 776.5,-912.2972 776.5,-893.2972 740.5,-893.2972"/>
<text text-anchor="start" x="767.3862" y="-899.3972" font-family="Helvetica,sans-Serif" font-size="11.00" fill="#000000"> &#160;</text>
</a>
</g>
</g>
<!-- oms.order_allocations&#45;&gt;users -->
<g id="edge4" class="edge">
<title>oms.order_allocations:w&#45;&gt;users:e</title>
<path fill="none" stroke="#000000" d="M594.9781,-965.9535C580.347,-969.6161 573.2685,-978.3141 553,-981.2972 466.5975,-994.0143 224.2471,-1040.4532 160,-981.2972 119.8112,-944.2931 174.1301,-491.2972 119.5,-491.2972"/>
<polygon fill="#000000" stroke="#000000" points="601.5515,-965.2039 609.908,-967.8741 605.5258,-964.7505 609.5,-964.2972 609.5,-964.2972 609.5,-964.2972 605.5258,-964.7505 609.092,-960.7204 601.5515,-965.2039 601.5515,-965.2039"/>
<ellipse fill="none" stroke="#000000" cx="598.3721" cy="-965.5665" rx="3.2" ry="3.2"/>
</g>
<!-- oms.order_allocations&#45;&gt;users -->
<g id="edge6" class="edge">
<title>oms.order_allocations:w&#45;&gt;users:e</title>
<path fill="none" stroke="#000000" d="M594.8633,-942.8184C580.5446,-943.9164 572.4788,-946.437 553,-947.2972 449.5453,-951.866 423.555,-947.6209 320,-947.2972 248.8878,-947.075 212.3156,-994.4643 160,-946.2972 85.3211,-877.5403 221.0109,-491.2972 119.5,-491.2972"/>
<polygon fill="#000000" stroke="#000000" points="601.5051,-942.582 609.6281,-945.895 605.5025,-942.4396 609.5,-942.2972 609.5,-942.2972 609.5,-942.2972 605.5025,-942.4396 609.3719,-938.6995 601.5051,-942.582 601.5051,-942.582"/>
<ellipse fill="none" stroke="#000000" cx="598.3071" cy="-942.6959" rx="3.2" ry="3.2"/>
</g>
<!-- oms.order_allocations&#45;&gt;orders -->
<g id="edge5" class="edge">
<title>oms.order_allocations:w&#45;&gt;orders:e</title>
<path fill="none" stroke="#000000" d="M595.2943,-983.4829C555.1555,-964.618 602.2412,-857.2972 543.5,-857.2972"/>
<polygon fill="#000000" stroke="#000000" points="601.6525,-984.7425 608.8004,-989.8286 605.5763,-985.5199 609.5,-986.2972 609.5,-986.2972 609.5,-986.2972 605.5763,-985.5199 610.1996,-982.7659 601.6525,-984.7425 601.6525,-984.7425"/>
<ellipse fill="none" stroke="#000000" cx="598.5135" cy="-984.1206" rx="3.2" ry="3.2"/>
</g>
<!-- oms.order_requirements -->
<g id="node5" class="node">
<title>oms.order_requirements</title>
<g id="a_node5"><a xlink:href="../../../oms/tables/order_requirements.html" xlink:title="oms.order_requirements" target="_top">
<polygon fill="#ffffff" stroke="transparent" points="602.5,-745.7972 602.5,-872.7972 782.5,-872.7972 782.5,-745.7972 602.5,-745.7972"/>
<polygon fill="#f5f5f5" stroke="transparent" points="602.5,-849.2972 602.5,-872.2972 782.5,-872.2972 782.5,-849.2972 602.5,-849.2972"/>
<polygon fill="none" stroke="#000000" points="602.5,-849.2972 602.5,-872.2972 782.5,-872.2972 782.5,-849.2972 602.5,-849.2972"/>
<text text-anchor="start" x="607.5" y="-857.8972" font-family="Helvetica,sans-Serif" font-weight="bold" font-size="11.00" fill="#000000">oms.order_requirements</text>
<text text-anchor="start" x="748.0219" y="-857.3972" font-family="Helvetica,sans-Serif" font-size="11.00" fill="#000000">[table]</text>
<polygon fill="none" stroke="#000000" points="602.5,-827.2972 602.5,-849.2972 782.5,-849.2972 782.5,-827.2972 602.5,-827.2972"/>
<image xlink:href="../../images/foreignKeys.png" width="11px" height="12px" preserveAspectRatio="xMinYMin meet" x="607.5" y="-844.297"/>
<text text-anchor="start" x="645.5" y="-834.3972" font-family="Helvetica,sans-Serif" font-size="11.00" fill="#000000">order_id</text>
<polygon fill="none" stroke="#000000" points="602.5,-805.2972 602.5,-827.2972 782.5,-827.2972 782.5,-805.2972 602.5,-805.2972"/>
<image xlink:href="../../images/foreignKeys.png" width="11px" height="12px" preserveAspectRatio="xMinYMin meet" x="607.5" y="-822.297"/>
<text text-anchor="start" x="645.5" y="-812.3972" font-family="Helvetica,sans-Serif" font-size="11.00" fill="#000000">created_by</text>
<polygon fill="none" stroke="#000000" points="602.5,-783.2972 602.5,-805.2972 782.5,-805.2972 782.5,-783.2972 602.5,-783.2972"/>
<image xlink:href="../../images/foreignKeys.png" width="11px" height="12px" preserveAspectRatio="xMinYMin meet" x="607.5" y="-800.297"/>
<text text-anchor="start" x="645.5" y="-790.3972" font-family="Helvetica,sans-Serif" font-size="11.00" fill="#000000">updated_by</text>
<polygon fill="none" stroke="#000000" points="602.5,-764.2972 602.5,-783.2972 782.5,-783.2972 782.5,-764.2972 602.5,-764.2972"/>
<text text-anchor="start" x="605.5" y="-770.3972" font-family="Helvetica,sans-Serif" font-size="11.00" fill="#000000">...</text>
<polygon fill="#ffffff" stroke="transparent" points="602.5,-745.2972 602.5,-764.2972 677.5,-764.2972 677.5,-745.2972 602.5,-745.2972"/>
<polygon fill="none" stroke="#000000" points="602.5,-745.2972 602.5,-764.2972 677.5,-764.2972 677.5,-745.2972 602.5,-745.2972"/>
<text text-anchor="start" x="605.5" y="-751.3972" font-family="Helvetica,sans-Serif" font-size="11.00" fill="#000000">&lt; 3</text>
<polygon fill="#ffffff" stroke="transparent" points="677.5,-745.2972 677.5,-764.2972 742.5,-764.2972 742.5,-745.2972 677.5,-745.2972"/>
<polygon fill="none" stroke="#000000" points="677.5,-745.2972 677.5,-764.2972 742.5,-764.2972 742.5,-745.2972 677.5,-745.2972"/>
<text text-anchor="start" x="707.1105" y="-751.3972" font-family="Helvetica,sans-Serif" font-size="11.00" fill="#000000">0 rows</text>
<polygon fill="#ffffff" stroke="transparent" points="742.5,-745.2972 742.5,-764.2972 782.5,-764.2972 782.5,-745.2972 742.5,-745.2972"/>
<polygon fill="none" stroke="#000000" points="742.5,-745.2972 742.5,-764.2972 782.5,-764.2972 782.5,-745.2972 742.5,-745.2972"/>
<text text-anchor="start" x="773.3862" y="-751.3972" font-family="Helvetica,sans-Serif" font-size="11.00" fill="#000000"> &#160;</text>
</a>
</g>
</g>
<!-- oms.order_requirements&#45;&gt;users -->
<g id="edge7" class="edge">
<title>oms.order_requirements:w&#45;&gt;users:e</title>
<path fill="none" stroke="#000000" d="M588.2423,-819.0505C558.2451,-833.5216 593.3549,-901.1076 553,-927.2972 516.3709,-951.0689 192.2734,-956.7117 160,-927.2972 88.0826,-861.7507 216.806,-491.2972 119.5,-491.2972"/>
<polygon fill="#000000" stroke="#000000" points="594.6451,-817.8141 603.1826,-819.8319 598.5726,-817.0557 602.5,-816.2972 602.5,-816.2972 602.5,-816.2972 598.5726,-817.0557 601.8174,-812.7625 594.6451,-817.8141 594.6451,-817.8141"/>
<ellipse fill="none" stroke="#000000" cx="591.5032" cy="-818.4209" rx="3.2" ry="3.2"/>
</g>
<!-- oms.order_requirements&#45;&gt;users -->
<g id="edge9" class="edge">
<title>oms.order_requirements:w&#45;&gt;users:e</title>
<path fill="none" stroke="#000000" d="M588.3386,-797.0267C558.5102,-811.3727 593.0957,-878.3719 553,-904.2972 509.5195,-932.4111 367.6521,-924.5511 320,-904.2972 225.6956,-864.2145 205.9274,-829.8976 160,-738.2972 135.0699,-688.5752 175.1218,-491.2972 119.5,-491.2972"/>
<polygon fill="#000000" stroke="#000000" points="594.6446,-795.8113 603.1813,-797.8322 598.5723,-795.0543 602.5,-794.2972 602.5,-794.2972 602.5,-794.2972 598.5723,-795.0543 601.8187,-790.7623 594.6446,-795.8113 594.6446,-795.8113"/>
<ellipse fill="none" stroke="#000000" cx="591.5024" cy="-796.417" rx="3.2" ry="3.2"/>
</g>
<!-- oms.order_requirements&#45;&gt;orders -->
<g id="edge8" class="edge">
<title>oms.order_requirements:w&#45;&gt;orders:e</title>
<path fill="none" stroke="#000000" d="M588.2431,-840.3306C572.3903,-845.2321 565.4526,-857.2972 543.5,-857.2972"/>
<polygon fill="#000000" stroke="#000000" points="594.5801,-839.4268 603.0083,-841.8612 598.5401,-838.862 602.5,-838.2972 602.5,-838.2972 602.5,-838.2972 598.5401,-838.862 601.9917,-834.7333 594.5801,-839.4268 594.5801,-839.4268"/>
<ellipse fill="none" stroke="#000000" cx="591.4122" cy="-839.8787" rx="3.2" ry="3.2"/>
</g>
<!-- customers&#45;&gt;users -->
<g id="edge10" class="edge">
<title>customers:w&#45;&gt;users:e</title>
<path fill="none" stroke="#000000" d="M153.9835,-623.9354C117.8941,-602.9926 177.7247,-491.2972 119.5,-491.2972"/>
<polygon fill="#000000" stroke="#000000" points="160.7063,-625.4923 167.6878,-630.8044 164.6031,-626.3948 168.5,-627.2972 168.5,-627.2972 168.5,-627.2972 164.6031,-626.3948 169.3122,-623.7901 160.7063,-625.4923 160.7063,-625.4923"/>
<ellipse fill="none" stroke="#000000" cx="157.5888" cy="-624.7703" rx="3.2" ry="3.2"/>
</g>
<!-- customers&#45;&gt;users -->
<g id="edge11" class="edge">
<title>customers:w&#45;&gt;users:e</title>
<path fill="none" stroke="#000000" d="M154.2787,-601.5043C125.3671,-581.7235 168.6168,-491.2972 119.5,-491.2972"/>
<polygon fill="#000000" stroke="#000000" points="160.7702,-603.2356 167.5723,-608.7757 164.6351,-604.2664 168.5,-605.2972 168.5,-605.2972 168.5,-605.2972 164.6351,-604.2664 169.4277,-601.8188 160.7702,-603.2356 160.7702,-603.2356"/>
<ellipse fill="none" stroke="#000000" cx="157.6783" cy="-602.4109" rx="3.2" ry="3.2"/>
</g>
<!-- order_detail -->
<g id="node7" class="node">
<title>order_detail</title>
<g id="a_node7"><a xlink:href="../../tables/order_detail.html" xlink:title="order_detail" target="_top">
<polygon fill="#ffffff" stroke="transparent" points="631,-75.7972 631,-246.7972 754,-246.7972 754,-75.7972 631,-75.7972"/>
<polygon fill="#f5f5f5" stroke="transparent" points="631.5,-223.2972 631.5,-246.2972 754.5,-246.2972 754.5,-223.2972 631.5,-223.2972"/>
<polygon fill="none" stroke="#000000" points="631.5,-223.2972 631.5,-246.2972 754.5,-246.2972 754.5,-223.2972 631.5,-223.2972"/>
<text text-anchor="start" x="636.5" y="-231.8972" font-family="Helvetica,sans-Serif" font-weight="bold" font-size="11.00" fill="#000000">order_detail</text>
<text text-anchor="start" x="719.5437" y="-231.3972" font-family="Helvetica,sans-Serif" font-size="11.00" fill="#000000">[table]</text>
<polygon fill="none" stroke="#000000" points="631.5,-201.2972 631.5,-223.2972 754.5,-223.2972 754.5,-201.2972 631.5,-201.2972"/>
<image xlink:href="../../images/primaryKeys.png" width="11px" height="12px" preserveAspectRatio="xMinYMin meet" x="636.5" y="-218.297"/>
<text text-anchor="start" x="651.5" y="-208.3972" font-family="Helvetica,sans-Serif" font-size="11.00" fill="#000000">id</text>
<polygon fill="#ffffff" stroke="transparent" points="631.5,-179.2972 631.5,-201.2972 754.5,-201.2972 754.5,-179.2972 631.5,-179.2972"/>
<polygon fill="none" stroke="#000000" points="631.5,-179.2972 631.5,-201.2972 754.5,-201.2972 754.5,-179.2972 631.5,-179.2972"/>
<image xlink:href="../../images/foreignKeys.png" width="11px" height="12px" preserveAspectRatio="xMinYMin meet" x="636.5" y="-196.297"/>
<text text-anchor="start" x="651.5" y="-186.3972" font-family="Helvetica,sans-Serif" font-size="11.00" fill="#000000">order_id</text>
<polygon fill="#ffffff" stroke="transparent" points="631.5,-157.2972 631.5,-179.2972 754.5,-179.2972 754.5,-157.2972 631.5,-157.2972"/>
<polygon fill="none" stroke="#000000" points="631.5,-157.2972 631.5,-179.2972 754.5,-179.2972 754.5,-157.2972 631.5,-157.2972"/>
<image xlink:href="../../images/foreignKeys.png" width="11px" height="12px" preserveAspectRatio="xMinYMin meet" x="636.5" y="-174.297"/>
<text text-anchor="start" x="651.5" y="-164.3972" font-family="Helvetica,sans-Serif" font-size="11.00" fill="#000000">detail_id</text>
<polygon fill="none" stroke="#000000" points="631.5,-135.2972 631.5,-157.2972 754.5,-157.2972 754.5,-135.2972 631.5,-135.2972"/>
<image xlink:href="../../images/foreignKeys.png" width="11px" height="12px" preserveAspectRatio="xMinYMin meet" x="636.5" y="-152.297"/>
<text text-anchor="start" x="651.5" y="-142.3972" font-family="Helvetica,sans-Serif" font-size="11.00" fill="#000000">created_by</text>
<polygon fill="none" stroke="#000000" points="631.5,-113.2972 631.5,-135.2972 754.5,-135.2972 754.5,-113.2972 631.5,-113.2972"/>
<image xlink:href="../../images/foreignKeys.png" width="11px" height="12px" preserveAspectRatio="xMinYMin meet" x="636.5" y="-130.297"/>
<text text-anchor="start" x="651.5" y="-120.3972" font-family="Helvetica,sans-Serif" font-size="11.00" fill="#000000">updated_by</text>
<polygon fill="none" stroke="#000000" points="631.5,-94.2972 631.5,-113.2972 754.5,-113.2972 754.5,-94.2972 631.5,-94.2972"/>
<text text-anchor="start" x="634.5" y="-100.3972" font-family="Helvetica,sans-Serif" font-size="11.00" fill="#000000">...</text>
<polygon fill="#ffffff" stroke="transparent" points="631.5,-75.2972 631.5,-94.2972 670.5,-94.2972 670.5,-75.2972 631.5,-75.2972"/>
<polygon fill="none" stroke="#000000" points="631.5,-75.2972 631.5,-94.2972 670.5,-94.2972 670.5,-75.2972 631.5,-75.2972"/>
<text text-anchor="start" x="634.5" y="-81.3972" font-family="Helvetica,sans-Serif" font-size="11.00" fill="#000000">&lt; 4</text>
<polygon fill="#ffffff" stroke="transparent" points="670.5,-75.2972 670.5,-94.2972 723.5,-94.2972 723.5,-75.2972 670.5,-75.2972"/>
<polygon fill="none" stroke="#000000" points="670.5,-75.2972 670.5,-94.2972 723.5,-94.2972 723.5,-75.2972 670.5,-75.2972"/>
<text text-anchor="start" x="681.9956" y="-81.3972" font-family="Helvetica,sans-Serif" font-size="11.00" fill="#000000">10 rows</text>
<polygon fill="#ffffff" stroke="transparent" points="723.5,-75.2972 723.5,-94.2972 754.5,-94.2972 754.5,-75.2972 723.5,-75.2972"/>
<polygon fill="none" stroke="#000000" points="723.5,-75.2972 723.5,-94.2972 754.5,-94.2972 754.5,-75.2972 723.5,-75.2972"/>
<text text-anchor="start" x="735.9053" y="-81.3972" font-family="Helvetica,sans-Serif" font-size="11.00" fill="#000000">3 &gt;</text>
</a>
</g>
</g>
<!-- order_detail&#45;&gt;users -->
<g id="edge12" class="edge">
<title>order_detail:w&#45;&gt;users:e</title>
<path fill="none" stroke="#000000" d="M617.0585,-147.7109C536.8644,-157.8595 177.0145,-219.7199 160,-237.2972 120.2464,-278.3659 176.6575,-491.2972 119.5,-491.2972"/>
<polygon fill="#000000" stroke="#000000" points="623.5381,-147.0767 631.8507,-149.8801 627.519,-146.6869 631.5,-146.2972 631.5,-146.2972 631.5,-146.2972 627.519,-146.6869 631.1493,-142.7144 623.5381,-147.0767 623.5381,-147.0767"/>
<ellipse fill="none" stroke="#000000" cx="620.3533" cy="-147.3884" rx="3.2" ry="3.2"/>
</g>
<!-- order_detail&#45;&gt;users -->
<g id="edge14" class="edge">
<title>order_detail:w&#45;&gt;users:e</title>
<path fill="none" stroke="#000000" d="M617.0167,-124.1725C413.5201,-120.6884 296.15,-46.5773 160,-203.2972 117.6141,-252.0869 184.1297,-491.2972 119.5,-491.2972"/>
<polygon fill="#000000" stroke="#000000" points="623.5003,-124.2283 631.469,-127.8971 627.5001,-124.2628 631.5,-124.2972 631.5,-124.2972 631.5,-124.2972 627.5001,-124.2628 631.531,-120.6974 623.5003,-124.2283 623.5003,-124.2283"/>
<ellipse fill="none" stroke="#000000" cx="620.3004" cy="-124.2007" rx="3.2" ry="3.2"/>
</g>
<!-- order_detail&#45;&gt;orders -->
<g id="edge13" class="edge">
<title>order_detail:w&#45;&gt;orders:e</title>
<path fill="none" stroke="#000000" d="M617.2311,-192.5915C595.8747,-200.6314 595.946,-228.6011 586,-257.2972 564.113,-320.4455 610.3337,-857.2972 543.5,-857.2972"/>
<polygon fill="#000000" stroke="#000000" points="623.6014,-191.5673 632.0715,-193.8516 627.5507,-190.9323 631.5,-190.2972 631.5,-190.2972 631.5,-190.2972 627.5507,-190.9323 630.9285,-186.7429 623.6014,-191.5673 623.6014,-191.5673"/>
<ellipse fill="none" stroke="#000000" cx="620.442" cy="-192.0753" rx="3.2" ry="3.2"/>
</g>
<!-- tms.containers -->
<g id="node8" class="node">
<title>tms.containers</title>
<g id="a_node8"><a xlink:href="../../../tms/tables/containers.html" xlink:title="tms.containers" target="_top">
<polygon fill="#ffffff" stroke="transparent" points="630.5,-481.7972 630.5,-630.7972 754.5,-630.7972 754.5,-481.7972 630.5,-481.7972"/>
<polygon fill="#f5f5f5" stroke="transparent" points="630.5,-607.2972 630.5,-630.2972 754.5,-630.2972 754.5,-607.2972 630.5,-607.2972"/>
<polygon fill="none" stroke="#000000" points="630.5,-607.2972 630.5,-630.2972 754.5,-630.2972 754.5,-607.2972 630.5,-607.2972"/>
<text text-anchor="start" x="635.5" y="-615.8972" font-family="Helvetica,sans-Serif" font-weight="bold" font-size="11.00" fill="#000000">tms.containers</text>
<text text-anchor="start" x="720.0219" y="-615.3972" font-family="Helvetica,sans-Serif" font-size="11.00" fill="#000000">[table]</text>
<polygon fill="none" stroke="#000000" points="630.5,-585.2972 630.5,-607.2972 754.5,-607.2972 754.5,-585.2972 630.5,-585.2972"/>
<image xlink:href="../../images/foreignKeys.png" width="11px" height="12px" preserveAspectRatio="xMinYMin meet" x="635.5" y="-602.297"/>
<text text-anchor="start" x="666.5" y="-592.3972" font-family="Helvetica,sans-Serif" font-size="11.00" fill="#000000">created_by</text>
<polygon fill="none" stroke="#000000" points="630.5,-563.2972 630.5,-585.2972 754.5,-585.2972 754.5,-563.2972 630.5,-563.2972"/>
<image xlink:href="../../images/foreignKeys.png" width="11px" height="12px" preserveAspectRatio="xMinYMin meet" x="635.5" y="-580.297"/>
<text text-anchor="start" x="666.5" y="-570.3972" font-family="Helvetica,sans-Serif" font-size="11.00" fill="#000000">updated_by</text>
<polygon fill="none" stroke="#000000" points="630.5,-541.2972 630.5,-563.2972 754.5,-563.2972 754.5,-541.2972 630.5,-541.2972"/>
<image xlink:href="../../images/foreignKeys.png" width="11px" height="12px" preserveAspectRatio="xMinYMin meet" x="635.5" y="-558.297"/>
<text text-anchor="start" x="666.5" y="-548.3972" font-family="Helvetica,sans-Serif" font-size="11.00" fill="#000000">order_id</text>
<polygon fill="none" stroke="#000000" points="630.5,-519.2972 630.5,-541.2972 754.5,-541.2972 754.5,-519.2972 630.5,-519.2972"/>
<image xlink:href="../../images/foreignKeys.png" width="11px" height="12px" preserveAspectRatio="xMinYMin meet" x="635.5" y="-536.297"/>
<text text-anchor="start" x="666.5" y="-526.3972" font-family="Helvetica,sans-Serif" font-size="11.00" fill="#000000">trailer_id</text>
<polygon fill="none" stroke="#000000" points="630.5,-500.2972 630.5,-519.2972 754.5,-519.2972 754.5,-500.2972 630.5,-500.2972"/>
<text text-anchor="start" x="633.5" y="-506.3972" font-family="Helvetica,sans-Serif" font-size="11.00" fill="#000000">...</text>
<polygon fill="#ffffff" stroke="transparent" points="630.5,-481.2972 630.5,-500.2972 677.5,-500.2972 677.5,-481.2972 630.5,-481.2972"/>
<polygon fill="none" stroke="#000000" points="630.5,-481.2972 630.5,-500.2972 677.5,-500.2972 677.5,-481.2972 630.5,-481.2972"/>
<text text-anchor="start" x="633.5" y="-487.3972" font-family="Helvetica,sans-Serif" font-size="11.00" fill="#000000">&lt; 4</text>
<polygon fill="#ffffff" stroke="transparent" points="677.5,-481.2972 677.5,-500.2972 728.5,-500.2972 728.5,-481.2972 677.5,-481.2972"/>
<polygon fill="none" stroke="#000000" points="677.5,-481.2972 677.5,-500.2972 728.5,-500.2972 728.5,-481.2972 677.5,-481.2972"/>
<text text-anchor="start" x="693.1105" y="-487.3972" font-family="Helvetica,sans-Serif" font-size="11.00" fill="#000000">0 rows</text>
<polygon fill="#ffffff" stroke="transparent" points="728.5,-481.2972 728.5,-500.2972 754.5,-500.2972 754.5,-481.2972 728.5,-481.2972"/>
<polygon fill="none" stroke="#000000" points="728.5,-481.2972 728.5,-500.2972 754.5,-500.2972 754.5,-481.2972 728.5,-481.2972"/>
<text text-anchor="start" x="745.3862" y="-487.3972" font-family="Helvetica,sans-Serif" font-size="11.00" fill="#000000"> &#160;</text>
</a>
</g>
</g>
<!-- tms.containers&#45;&gt;users -->
<g id="edge19" class="edge">
<title>tms.containers:w&#45;&gt;users:e</title>
<path fill="none" stroke="#000000" d="M617.0124,-591.1228C580.8948,-560.264 591.4462,-400.9184 553,-373.2972 517.5368,-347.8191 195.5372,-347.9223 160,-373.2972 114.8753,-405.5181 174.9475,-491.2972 119.5,-491.2972"/>
<polygon fill="#000000" stroke="#000000" points="623.0308,-593.4317 629.2105,-599.6584 626.7654,-594.8645 630.5,-596.2972 630.5,-596.2972 630.5,-596.2972 626.7654,-594.8645 631.7895,-592.9361 623.0308,-593.4317 623.0308,-593.4317"/>
<ellipse fill="none" stroke="#000000" cx="620.0431" cy="-592.2855" rx="3.2" ry="3.2"/>
</g>
<!-- tms.containers&#45;&gt;users -->
<g id="edge21" class="edge">
<title>tms.containers:w&#45;&gt;users:e</title>
<path fill="none" stroke="#000000" d="M619.2546,-565.3012C590.6187,-523.6808 553.6577,-351.7985 553,-351.2972 518.2697,-324.8285 194.8478,-325.9833 160,-352.2972 108.6489,-391.073 183.8467,-491.2972 119.5,-491.2972"/>
<polygon fill="#000000" stroke="#000000" points="624.253,-569.2998 628.2511,-577.1084 627.3765,-571.7985 630.5,-574.2972 630.5,-574.2972 630.5,-574.2972 627.3765,-571.7985 632.7489,-571.4861 624.253,-569.2998 624.253,-569.2998"/>
<ellipse fill="none" stroke="#000000" cx="621.7541" cy="-567.3008" rx="3.2" ry="3.2"/>
</g>
<!-- tms.containers&#45;&gt;orders -->
<g id="edge20" class="edge">
<title>tms.containers:w&#45;&gt;orders:e</title>
<path fill="none" stroke="#000000" d="M616.0824,-554.0505C576.6211,-565.134 601.2,-626.6661 586,-678.2972 574.454,-717.5166 584.3836,-857.2972 543.5,-857.2972"/>
<polygon fill="#000000" stroke="#000000" points="622.5585,-553.263 630.9346,-555.8709 626.5293,-552.7801 630.5,-552.2972 630.5,-552.2972 630.5,-552.2972 626.5293,-552.7801 630.0654,-548.7236 622.5585,-553.263 622.5585,-553.263"/>
<ellipse fill="none" stroke="#000000" cx="619.3819" cy="-553.6493" rx="3.2" ry="3.2"/>
</g>
<!-- wms.inbound_receipt -->
<g id="node9" class="node">
<title>wms.inbound_receipt</title>
<g id="a_node9"><a xlink:href="../../../wms/tables/inbound_receipt.html" xlink:title="wms.inbound_receipt" target="_top">
<polygon fill="#ffffff" stroke="transparent" points="611.5,-267.7972 611.5,-460.7972 773.5,-460.7972 773.5,-267.7972 611.5,-267.7972"/>
<polygon fill="#f5f5f5" stroke="transparent" points="611.5,-437.2972 611.5,-460.2972 773.5,-460.2972 773.5,-437.2972 611.5,-437.2972"/>
<polygon fill="none" stroke="#000000" points="611.5,-437.2972 611.5,-460.2972 773.5,-460.2972 773.5,-437.2972 611.5,-437.2972"/>
<text text-anchor="start" x="616.5" y="-445.8972" font-family="Helvetica,sans-Serif" font-weight="bold" font-size="11.00" fill="#000000">wms.inbound_receipt</text>
<text text-anchor="start" x="739.0219" y="-445.3972" font-family="Helvetica,sans-Serif" font-size="11.00" fill="#000000">[table]</text>
<polygon fill="none" stroke="#000000" points="611.5,-415.2972 611.5,-437.2972 773.5,-437.2972 773.5,-415.2972 611.5,-415.2972"/>
<image xlink:href="../../images/foreignKeys.png" width="11px" height="12px" preserveAspectRatio="xMinYMin meet" x="616.5" y="-432.297"/>
<text text-anchor="start" x="640.5" y="-422.3972" font-family="Helvetica,sans-Serif" font-size="11.00" fill="#000000">order_id</text>
<polygon fill="none" stroke="#000000" points="611.5,-393.2972 611.5,-415.2972 773.5,-415.2972 773.5,-393.2972 611.5,-393.2972"/>
<image xlink:href="../../images/foreignKeys.png" width="11px" height="12px" preserveAspectRatio="xMinYMin meet" x="616.5" y="-410.297"/>
<text text-anchor="start" x="640.5" y="-400.3972" font-family="Helvetica,sans-Serif" font-size="11.00" fill="#000000">received_by</text>
<polygon fill="none" stroke="#000000" points="611.5,-371.2972 611.5,-393.2972 773.5,-393.2972 773.5,-371.2972 611.5,-371.2972"/>
<image xlink:href="../../images/foreignKeys.png" width="11px" height="12px" preserveAspectRatio="xMinYMin meet" x="616.5" y="-388.297"/>
<text text-anchor="start" x="640.5" y="-378.3972" font-family="Helvetica,sans-Serif" font-size="11.00" fill="#000000">warehouse_id</text>
<polygon fill="none" stroke="#000000" points="611.5,-349.2972 611.5,-371.2972 773.5,-371.2972 773.5,-349.2972 611.5,-349.2972"/>
<image xlink:href="../../images/foreignKeys.png" width="11px" height="12px" preserveAspectRatio="xMinYMin meet" x="616.5" y="-366.297"/>
<text text-anchor="start" x="640.5" y="-356.3972" font-family="Helvetica,sans-Serif" font-size="11.00" fill="#000000">created_by</text>
<polygon fill="none" stroke="#000000" points="611.5,-327.2972 611.5,-349.2972 773.5,-349.2972 773.5,-327.2972 611.5,-327.2972"/>
<image xlink:href="../../images/foreignKeys.png" width="11px" height="12px" preserveAspectRatio="xMinYMin meet" x="616.5" y="-344.297"/>
<text text-anchor="start" x="640.5" y="-334.3972" font-family="Helvetica,sans-Serif" font-size="11.00" fill="#000000">updated_by</text>
<polygon fill="none" stroke="#000000" points="611.5,-305.2972 611.5,-327.2972 773.5,-327.2972 773.5,-305.2972 611.5,-305.2972"/>
<image xlink:href="../../images/foreignKeys.png" width="11px" height="12px" preserveAspectRatio="xMinYMin meet" x="616.5" y="-322.297"/>
<text text-anchor="start" x="640.5" y="-312.3972" font-family="Helvetica,sans-Serif" font-size="11.00" fill="#000000">unload_method_code</text>
<polygon fill="none" stroke="#000000" points="611.5,-286.2972 611.5,-305.2972 773.5,-305.2972 773.5,-286.2972 611.5,-286.2972"/>
<text text-anchor="start" x="614.5" y="-292.3972" font-family="Helvetica,sans-Serif" font-size="11.00" fill="#000000">...</text>
<polygon fill="#ffffff" stroke="transparent" points="611.5,-267.2972 611.5,-286.2972 677.5,-286.2972 677.5,-267.2972 611.5,-267.2972"/>
<polygon fill="none" stroke="#000000" points="611.5,-267.2972 611.5,-286.2972 677.5,-286.2972 677.5,-267.2972 611.5,-267.2972"/>
<text text-anchor="start" x="614.5" y="-273.3972" font-family="Helvetica,sans-Serif" font-size="11.00" fill="#000000">&lt; 6</text>
<polygon fill="#ffffff" stroke="transparent" points="677.5,-267.2972 677.5,-286.2972 738.5,-286.2972 738.5,-267.2972 677.5,-267.2972"/>
<polygon fill="none" stroke="#000000" points="677.5,-267.2972 677.5,-286.2972 738.5,-286.2972 738.5,-267.2972 677.5,-267.2972"/>
<text text-anchor="start" x="703.1105" y="-273.3972" font-family="Helvetica,sans-Serif" font-size="11.00" fill="#000000">0 rows</text>
<polygon fill="#ffffff" stroke="transparent" points="738.5,-267.2972 738.5,-286.2972 773.5,-286.2972 773.5,-267.2972 738.5,-267.2972"/>
<polygon fill="none" stroke="#000000" points="738.5,-267.2972 738.5,-286.2972 773.5,-286.2972 773.5,-267.2972 738.5,-267.2972"/>
<text text-anchor="start" x="764.3862" y="-273.3972" font-family="Helvetica,sans-Serif" font-size="11.00" fill="#000000"> &#160;</text>
</a>
</g>
</g>
<!-- wms.inbound_receipt&#45;&gt;users -->
<g id="edge22" class="edge">
<title>wms.inbound_receipt:w&#45;&gt;users:e</title>
<path fill="none" stroke="#000000" d="M597.1814,-357.183C575.6723,-345.8112 583.8562,-306.4552 553,-292.2972 513.3117,-274.0868 193.816,-264.6702 160,-292.2972 90.1035,-349.4015 209.7575,-491.2972 119.5,-491.2972"/>
<polygon fill="#000000" stroke="#000000" points="603.6828,-358.597 610.7349,-363.815 607.5914,-359.4471 611.5,-360.2972 611.5,-360.2972 611.5,-360.2972 607.5914,-359.4471 612.2651,-356.7795 603.6828,-358.597 603.6828,-358.597"/>
<ellipse fill="none" stroke="#000000" cx="600.5559" cy="-357.9169" rx="3.2" ry="3.2"/>
</g>
<!-- wms.inbound_receipt&#45;&gt;users -->
<g id="edge24" class="edge">
<title>wms.inbound_receipt:w&#45;&gt;users:e</title>
<path fill="none" stroke="#000000" d="M597.1397,-401.3508C571.7074,-388.5881 588.36,-337.8864 553,-319.2972 514.349,-298.9779 194.2331,-292.1887 160,-319.2972 98.4314,-368.0524 198.035,-491.2972 119.5,-491.2972"/>
<polygon fill="#000000" stroke="#000000" points="603.6633,-402.6893 610.7764,-407.8238 607.5816,-403.4932 611.5,-404.2972 611.5,-404.2972 611.5,-404.2972 607.5816,-403.4932 612.2236,-400.7707 603.6633,-402.6893 603.6633,-402.6893"/>
<ellipse fill="none" stroke="#000000" cx="600.5286" cy="-402.0461" rx="3.2" ry="3.2"/>
</g>
<!-- wms.inbound_receipt&#45;&gt;users -->
<g id="edge25" class="edge">
<title>wms.inbound_receipt:w&#45;&gt;users:e</title>
<path fill="none" stroke="#000000" d="M597.3701,-335.2716C576.0343,-324.2236 583.4401,-285.9927 553,-272.2972 473.3561,-236.4642 226.9828,-217.2574 160,-273.2972 84.417,-336.5322 218.0467,-491.2972 119.5,-491.2972"/>
<polygon fill="#000000" stroke="#000000" points="603.6773,-336.6221 610.7462,-341.8174 607.5887,-337.4597 611.5,-338.2972 611.5,-338.2972 611.5,-338.2972 607.5887,-337.4597 612.2538,-334.777 603.6773,-336.6221 603.6773,-336.6221"/>
<ellipse fill="none" stroke="#000000" cx="600.5483" cy="-335.9521" rx="3.2" ry="3.2"/>
</g>
<!-- wms.inbound_receipt&#45;&gt;orders -->
<g id="edge23" class="edge">
<title>wms.inbound_receipt:w&#45;&gt;orders:e</title>
<path fill="none" stroke="#000000" d="M597.519,-430.0233C527.6439,-472.1489 635.1599,-857.2972 543.5,-857.2972"/>
<polygon fill="#000000" stroke="#000000" points="603.7698,-428.3574 612.4271,-429.7758 607.6349,-427.3273 611.5,-426.2972 611.5,-426.2972 611.5,-426.2972 607.6349,-427.3273 610.5729,-422.8187 603.7698,-428.3574 603.7698,-428.3574"/>
<ellipse fill="none" stroke="#000000" cx="600.6777" cy="-429.1815" rx="3.2" ry="3.2"/>
</g>
<!-- wms.inventory_lots -->
<g id="node10" class="node">
<title>wms.inventory_lots</title>
<g id="a_node10"><a xlink:href="../../../wms/tables/inventory_lots.html" xlink:title="wms.inventory_lots" target="_top">
<polygon fill="#ffffff" stroke="transparent" points="873.5,-606.7972 873.5,-777.7972 1024.5,-777.7972 1024.5,-606.7972 873.5,-606.7972"/>
<polygon fill="#f5f5f5" stroke="transparent" points="874,-754.2972 874,-777.2972 1025,-777.2972 1025,-754.2972 874,-754.2972"/>
<polygon fill="none" stroke="#000000" points="874,-754.2972 874,-777.2972 1025,-777.2972 1025,-754.2972 874,-754.2972"/>
<text text-anchor="start" x="879" y="-762.8972" font-family="Helvetica,sans-Serif" font-weight="bold" font-size="11.00" fill="#000000">wms.inventory_lots</text>
<text text-anchor="start" x="990.5219" y="-762.3972" font-family="Helvetica,sans-Serif" font-size="11.00" fill="#000000">[table]</text>
<polygon fill="none" stroke="#000000" points="874,-732.2972 874,-754.2972 1025,-754.2972 1025,-732.2972 874,-732.2972"/>
<image xlink:href="../../images/foreignKeys.png" width="11px" height="12px" preserveAspectRatio="xMinYMin meet" x="879" y="-749.297"/>
<text text-anchor="start" x="894" y="-739.3972" font-family="Helvetica,sans-Serif" font-size="11.00" fill="#000000">warehouse_id</text>
<polygon fill="none" stroke="#000000" points="874,-710.2972 874,-732.2972 1025,-732.2972 1025,-710.2972 874,-710.2972"/>
<image xlink:href="../../images/foreignKeys.png" width="11px" height="12px" preserveAspectRatio="xMinYMin meet" x="879" y="-727.297"/>
<text text-anchor="start" x="894" y="-717.3972" font-family="Helvetica,sans-Serif" font-size="11.00" fill="#000000">order_id</text>
<polygon fill="none" stroke="#000000" points="874,-688.2972 874,-710.2972 1025,-710.2972 1025,-688.2972 874,-688.2972"/>
<image xlink:href="../../images/foreignKeys.png" width="11px" height="12px" preserveAspectRatio="xMinYMin meet" x="879" y="-705.297"/>
<text text-anchor="start" x="894" y="-695.3972" font-family="Helvetica,sans-Serif" font-size="11.00" fill="#000000">order_detail_id</text>
<polygon fill="none" stroke="#000000" points="874,-666.2972 874,-688.2972 1025,-688.2972 1025,-666.2972 874,-666.2972"/>
<image xlink:href="../../images/foreignKeys.png" width="11px" height="12px" preserveAspectRatio="xMinYMin meet" x="879" y="-683.297"/>
<text text-anchor="start" x="894" y="-673.3972" font-family="Helvetica,sans-Serif" font-size="11.00" fill="#000000">created_by</text>
<polygon fill="none" stroke="#000000" points="874,-644.2972 874,-666.2972 1025,-666.2972 1025,-644.2972 874,-644.2972"/>
<image xlink:href="../../images/foreignKeys.png" width="11px" height="12px" preserveAspectRatio="xMinYMin meet" x="879" y="-661.297"/>
<text text-anchor="start" x="894" y="-651.3972" font-family="Helvetica,sans-Serif" font-size="11.00" fill="#000000">updated_by</text>
<polygon fill="none" stroke="#000000" points="874,-625.2972 874,-644.2972 1025,-644.2972 1025,-625.2972 874,-625.2972"/>
<text text-anchor="start" x="877" y="-631.3972" font-family="Helvetica,sans-Serif" font-size="11.00" fill="#000000">...</text>
<polygon fill="#ffffff" stroke="transparent" points="874,-606.2972 874,-625.2972 935,-625.2972 935,-606.2972 874,-606.2972"/>
<polygon fill="none" stroke="#000000" points="874,-606.2972 874,-625.2972 935,-625.2972 935,-606.2972 874,-606.2972"/>
<text text-anchor="start" x="877" y="-612.3972" font-family="Helvetica,sans-Serif" font-size="11.00" fill="#000000">&lt; 5</text>
<polygon fill="#ffffff" stroke="transparent" points="935,-606.2972 935,-625.2972 993,-625.2972 993,-606.2972 935,-606.2972"/>
<polygon fill="none" stroke="#000000" points="935,-606.2972 935,-625.2972 993,-625.2972 993,-606.2972 935,-606.2972"/>
<text text-anchor="start" x="957.6105" y="-612.3972" font-family="Helvetica,sans-Serif" font-size="11.00" fill="#000000">0 rows</text>
<polygon fill="#ffffff" stroke="transparent" points="993,-606.2972 993,-625.2972 1025,-625.2972 1025,-606.2972 993,-606.2972"/>
<polygon fill="none" stroke="#000000" points="993,-606.2972 993,-625.2972 1025,-625.2972 1025,-606.2972 993,-606.2972"/>
<text text-anchor="start" x="1015.8862" y="-612.3972" font-family="Helvetica,sans-Serif" font-size="11.00" fill="#000000"> &#160;</text>
</a>
</g>
</g>
<!-- wms.inventory_lots&#45;&gt;users -->
<g id="edge26" class="edge">
<title>wms.inventory_lots:w&#45;&gt;users:e</title>
<path fill="none" stroke="#000000" d="M859.5855,-678.0712C726.4109,-693.4303 919.9247,-933.308 799,-1031.2972 754.1742,-1067.621 213.5033,-1057.8631 160,-1005.2972 119.1348,-965.148 176.7881,-491.2972 119.5,-491.2972"/>
<polygon fill="#000000" stroke="#000000" points="866.0115,-677.7262 874.193,-680.8921 870.0058,-677.5117 874,-677.2972 874,-677.2972 874,-677.2972 870.0058,-677.5117 873.807,-673.7024 866.0115,-677.7262 866.0115,-677.7262"/>
<ellipse fill="none" stroke="#000000" cx="862.8161" cy="-677.8978" rx="3.2" ry="3.2"/>
</g>
<!-- wms.inventory_lots&#45;&gt;users -->
<g id="edge29" class="edge">
<title>wms.inventory_lots:w&#45;&gt;users:e</title>
<path fill="none" stroke="#000000" d="M859.2639,-655.616C740.6931,-660.7295 676.7336,-724.5569 586,-641.2972 505.3706,-567.3094 635.4024,-469.3053 553,-397.2972 514.0112,-363.2266 370.5388,-386.0382 320,-397.2972 271.9683,-407.9977 168.7092,-491.2972 119.5,-491.2972"/>
<polygon fill="#000000" stroke="#000000" points="866.0019,-655.4703 874.0779,-658.8964 870.0009,-655.3838 874,-655.2972 874,-655.2972 874,-655.2972 870.0009,-655.3838 873.9221,-651.6981 866.0019,-655.4703 866.0019,-655.4703"/>
<ellipse fill="none" stroke="#000000" cx="862.8026" cy="-655.5395" rx="3.2" ry="3.2"/>
</g>
<!-- wms.inventory_lots&#45;&gt;orders -->
<g id="edge28" class="edge">
<title>wms.inventory_lots:w&#45;&gt;orders:e</title>
<path fill="none" stroke="#000000" d="M859.4114,-720.9834C786.8923,-718.2583 633.8073,-699.548 586,-735.2972 540.0165,-769.6827 600.9181,-857.2972 543.5,-857.2972"/>
<polygon fill="#000000" stroke="#000000" points="866.0019,-721.1251 873.9225,-724.8964 870.0009,-721.2112 874,-721.2972 874,-721.2972 874,-721.2972 870.0009,-721.2112 874.0775,-717.6981 866.0019,-721.1251 866.0019,-721.1251"/>
<ellipse fill="none" stroke="#000000" cx="862.8026" cy="-721.0563" rx="3.2" ry="3.2"/>
</g>
<!-- wms.inventory_lots&#45;&gt;order_detail -->
<g id="edge27" class="edge">
<title>wms.inventory_lots:w&#45;&gt;order_detail:e</title>
<path fill="none" stroke="#000000" d="M859.6129,-696.4399C781.4453,-662.7655 842.0718,-341.2674 799,-257.2972 786.1625,-232.2701 782.6276,-212.2972 754.5,-212.2972"/>
<polygon fill="#000000" stroke="#000000" points="866.1533,-697.7388 873.2987,-702.8283 870.0766,-698.518 874,-699.2972 874,-699.2972 874,-699.2972 870.0766,-698.518 874.7013,-695.7662 866.1533,-697.7388 866.1533,-697.7388"/>
<ellipse fill="none" stroke="#000000" cx="863.0146" cy="-697.1154" rx="3.2" ry="3.2"/>
</g>
<!-- wms.outbound_shipment_lines -->
<g id="node11" class="node">
<title>wms.outbound_shipment_lines</title>
<g id="a_node11"><a xlink:href="../../../wms/tables/outbound_shipment_lines.html" xlink:title="wms.outbound_shipment_lines" target="_top">
<polygon fill="#ffffff" stroke="transparent" points="840,-49.7972 840,-198.7972 1058,-198.7972 1058,-49.7972 840,-49.7972"/>
<polygon fill="#f5f5f5" stroke="transparent" points="840,-175.2972 840,-198.2972 1058,-198.2972 1058,-175.2972 840,-175.2972"/>
<polygon fill="none" stroke="#000000" points="840,-175.2972 840,-198.2972 1058,-198.2972 1058,-175.2972 840,-175.2972"/>
<text text-anchor="start" x="845" y="-183.8972" font-family="Helvetica,sans-Serif" font-weight="bold" font-size="11.00" fill="#000000">wms.outbound_shipment_lines</text>
<text text-anchor="start" x="1023.5219" y="-183.3972" font-family="Helvetica,sans-Serif" font-size="11.00" fill="#000000">[table]</text>
<polygon fill="none" stroke="#000000" points="840,-153.2972 840,-175.2972 1058,-175.2972 1058,-153.2972 840,-153.2972"/>
<image xlink:href="../../images/foreignKeys.png" width="11px" height="12px" preserveAspectRatio="xMinYMin meet" x="845" y="-170.297"/>
<text text-anchor="start" x="879" y="-160.3972" font-family="Helvetica,sans-Serif" font-size="11.00" fill="#000000">order_id</text>
<polygon fill="none" stroke="#000000" points="840,-131.2972 840,-153.2972 1058,-153.2972 1058,-131.2972 840,-131.2972"/>
<image xlink:href="../../images/foreignKeys.png" width="11px" height="12px" preserveAspectRatio="xMinYMin meet" x="845" y="-148.297"/>
<text text-anchor="start" x="879" y="-138.3972" font-family="Helvetica,sans-Serif" font-size="11.00" fill="#000000">order_detail_id</text>
<polygon fill="none" stroke="#000000" points="840,-109.2972 840,-131.2972 1058,-131.2972 1058,-109.2972 840,-109.2972"/>
<image xlink:href="../../images/foreignKeys.png" width="11px" height="12px" preserveAspectRatio="xMinYMin meet" x="845" y="-126.297"/>
<text text-anchor="start" x="879" y="-116.3972" font-family="Helvetica,sans-Serif" font-size="11.00" fill="#000000">created_by</text>
<polygon fill="none" stroke="#000000" points="840,-87.2972 840,-109.2972 1058,-109.2972 1058,-87.2972 840,-87.2972"/>
<image xlink:href="../../images/foreignKeys.png" width="11px" height="12px" preserveAspectRatio="xMinYMin meet" x="845" y="-104.297"/>
<text text-anchor="start" x="879" y="-94.3972" font-family="Helvetica,sans-Serif" font-size="11.00" fill="#000000">updated_by</text>
<polygon fill="none" stroke="#000000" points="840,-68.2972 840,-87.2972 1058,-87.2972 1058,-68.2972 840,-68.2972"/>
<text text-anchor="start" x="843" y="-74.3972" font-family="Helvetica,sans-Serif" font-size="11.00" fill="#000000">...</text>
<polygon fill="#ffffff" stroke="transparent" points="840,-49.2972 840,-68.2972 934,-68.2972 934,-49.2972 840,-49.2972"/>
<polygon fill="none" stroke="#000000" points="840,-49.2972 840,-68.2972 934,-68.2972 934,-49.2972 840,-49.2972"/>
<text text-anchor="start" x="843" y="-55.3972" font-family="Helvetica,sans-Serif" font-size="11.00" fill="#000000">&lt; 4</text>
<polygon fill="#ffffff" stroke="transparent" points="934,-49.2972 934,-68.2972 1009,-68.2972 1009,-49.2972 934,-49.2972"/>
<polygon fill="none" stroke="#000000" points="934,-49.2972 934,-68.2972 1009,-68.2972 1009,-49.2972 934,-49.2972"/>
<text text-anchor="start" x="973.6105" y="-55.3972" font-family="Helvetica,sans-Serif" font-size="11.00" fill="#000000">0 rows</text>
<polygon fill="#ffffff" stroke="transparent" points="1009,-49.2972 1009,-68.2972 1058,-68.2972 1058,-49.2972 1009,-49.2972"/>
<polygon fill="none" stroke="#000000" points="1009,-49.2972 1009,-68.2972 1058,-68.2972 1058,-49.2972 1009,-49.2972"/>
<text text-anchor="start" x="1048.8862" y="-55.3972" font-family="Helvetica,sans-Serif" font-size="11.00" fill="#000000"> &#160;</text>
</a>
</g>
</g>
<!-- wms.outbound_shipment_lines&#45;&gt;users -->
<g id="edge30" class="edge">
<title>wms.outbound_shipment_lines:w&#45;&gt;users:e</title>
<path fill="none" stroke="#000000" d="M826.1543,-115.4284C814.6156,-104.0935 820.5022,-76.0876 799,-65.2972 677.299,-4.2248 208.0548,-64.979 160,-113.2972 100.4266,-173.1972 203.9808,-491.2972 119.5,-491.2972"/>
<polygon fill="#000000" stroke="#000000" points="832.453,-117.6433 838.8057,-123.6934 836.2265,-118.9703 840,-120.2972 840,-120.2972 840,-120.2972 836.2265,-118.9703 841.1943,-116.9011 832.453,-117.6433 832.453,-117.6433"/>
<ellipse fill="none" stroke="#000000" cx="829.4342" cy="-116.5817" rx="3.2" ry="3.2"/>
</g>
<!-- wms.outbound_shipment_lines&#45;&gt;users -->
<g id="edge33" class="edge">
<title>wms.outbound_shipment_lines:w&#45;&gt;users:e</title>
<path fill="none" stroke="#000000" d="M826.1801,-93.6397C813.4586,-81.624 822.1989,-49.6567 799,-37.2972 788.0297,-31.4527 359.293,-35.3767 320,-39.2972 247.9244,-46.4888 208.7158,-16.6933 160,-70.2972 96.7879,-139.8521 213.4875,-491.2972 119.5,-491.2972"/>
<polygon fill="#000000" stroke="#000000" points="832.4189,-95.7423 838.8503,-101.7087 836.2095,-97.0198 840,-98.2972 840,-98.2972 840,-98.2972 836.2095,-97.0198 841.1497,-94.8858 832.4189,-95.7423 832.4189,-95.7423"/>
<ellipse fill="none" stroke="#000000" cx="829.3865" cy="-94.7203" rx="3.2" ry="3.2"/>
</g>
<!-- wms.outbound_shipment_lines&#45;&gt;orders -->
<g id="edge32" class="edge">
<title>wms.outbound_shipment_lines:w&#45;&gt;orders:e</title>
<path fill="none" stroke="#000000" d="M828.3555,-173.4167C794.011,-236.2167 829.2569,-603.2341 799,-641.2972 737.0786,-719.1943 655.2353,-638.8221 586,-710.2972 538.6818,-759.1463 611.5091,-857.2972 543.5,-857.2972"/>
<polygon fill="#000000" stroke="#000000" points="833.7016,-169.2299 842.2197,-167.1315 836.8508,-166.7636 840,-164.2972 840,-164.2972 840,-164.2972 836.8508,-166.7636 837.7803,-161.463 833.7016,-169.2299 833.7016,-169.2299"/>
<ellipse fill="none" stroke="#000000" cx="831.1823" cy="-171.2029" rx="3.2" ry="3.2"/>
</g>
<!-- wms.outbound_shipment_lines&#45;&gt;order_detail -->
<g id="edge31" class="edge">
<title>wms.outbound_shipment_lines:w&#45;&gt;order_detail:e</title>
<path fill="none" stroke="#000000" d="M825.5106,-144.7886C792.9778,-157.2583 798.0477,-212.2972 754.5,-212.2972"/>
<polygon fill="#000000" stroke="#000000" points="832.1157,-143.6529 840.6101,-145.8452 836.0578,-142.9751 840,-142.2972 840,-142.2972 840,-142.2972 836.0578,-142.9751 839.3899,-138.7493 832.1157,-143.6529 832.1157,-143.6529"/>
<ellipse fill="none" stroke="#000000" cx="828.962" cy="-144.1952" rx="3.2" ry="3.2"/>
</g>
</g>
</svg>
