<?xml version="1.0" encoding="UTF-8" standalone="no"?>
<!DOCTYPE svg PUBLIC "-//W3C//DTD SVG 1.1//EN"
 "http://www.w3.org/Graphics/SVG/1.1/DTD/svg11.dtd">
<!-- Generated by graphviz version 2.40.1 (20161225.0304)
 -->
<!-- Title: oneDegreeRelationshipsDiagram Pages: 1 -->
<svg width="1074pt" height="1244pt"
 viewBox="0.00 0.00 1074.00 1244.29" xmlns="http://www.w3.org/2000/svg" xmlns:xlink="http://www.w3.org/1999/xlink">
<g id="graph0" class="graph" transform="scale(1 1) rotate(0) translate(4 1240.2907)">
<title>oneDegreeRelationshipsDiagram</title>
<polygon fill="#ffffff" stroke="transparent" points="-4,4 -4,-1240.2907 1070,-1240.2907 1070,4 -4,4"/>
<text text-anchor="middle" x="72.4936" y="-7.3" font-family="Helvetica,sans-Serif" font-size="11.00" fill="#000000">Generated by SchemaSpy</text>
<!-- oms.delivery_appointments -->
<g id="node1" class="node">
<title>oms.delivery_appointments</title>
<g id="a_node1"><a xlink:href="../../../oms/tables/delivery_appointments.html" xlink:title="oms.delivery_appointments" target="_top">
<polygon fill="#ffffff" stroke="transparent" points="594,-1061.2907 594,-1232.2907 791,-1232.2907 791,-1061.2907 594,-1061.2907"/>
<polygon fill="#f5f5f5" stroke="transparent" points="594.5,-1208.7907 594.5,-1231.7907 791.5,-1231.7907 791.5,-1208.7907 594.5,-1208.7907"/>
<polygon fill="none" stroke="#000000" points="594.5,-1208.7907 594.5,-1231.7907 791.5,-1231.7907 791.5,-1208.7907 594.5,-1208.7907"/>
<text text-anchor="start" x="599.5" y="-1217.3907" font-family="Helvetica,sans-Serif" font-weight="bold" font-size="11.00" fill="#000000">oms.delivery_appointments</text>
<text text-anchor="start" x="757.0219" y="-1216.8907" font-family="Helvetica,sans-Serif" font-size="11.00" fill="#000000">[table]</text>
<polygon fill="none" stroke="#000000" points="594.5,-1186.7907 594.5,-1208.7907 791.5,-1208.7907 791.5,-1186.7907 594.5,-1186.7907"/>
<image xlink:href="../../images/foreignKeys.png" width="11px" height="12px" preserveAspectRatio="xMinYMin meet" x="599.5" y="-1203.79"/>
<text text-anchor="start" x="633.5" y="-1193.8907" font-family="Helvetica,sans-Serif" font-size="11.00" fill="#000000">order_id</text>
<polygon fill="none" stroke="#000000" points="594.5,-1164.7907 594.5,-1186.7907 791.5,-1186.7907 791.5,-1164.7907 594.5,-1164.7907"/>
<image xlink:href="../../images/foreignKeys.png" width="11px" height="12px" preserveAspectRatio="xMinYMin meet" x="599.5" y="-1181.79"/>
<text text-anchor="start" x="633.5" y="-1171.8907" font-family="Helvetica,sans-Serif" font-size="11.00" fill="#000000">location_id</text>
<polygon fill="none" stroke="#000000" points="594.5,-1142.7907 594.5,-1164.7907 791.5,-1164.7907 791.5,-1142.7907 594.5,-1142.7907"/>
<image xlink:href="../../images/foreignKeys.png" width="11px" height="12px" preserveAspectRatio="xMinYMin meet" x="599.5" y="-1159.79"/>
<text text-anchor="start" x="633.5" y="-1149.8907" font-family="Helvetica,sans-Serif" font-size="11.00" fill="#000000">appointment_type_code</text>
<polygon fill="none" stroke="#000000" points="594.5,-1120.7907 594.5,-1142.7907 791.5,-1142.7907 791.5,-1120.7907 594.5,-1120.7907"/>
<image xlink:href="../../images/foreignKeys.png" width="11px" height="12px" preserveAspectRatio="xMinYMin meet" x="599.5" y="-1137.79"/>
<text text-anchor="start" x="633.5" y="-1127.8907" font-family="Helvetica,sans-Serif" font-size="11.00" fill="#000000">created_by</text>
<polygon fill="none" stroke="#000000" points="594.5,-1098.7907 594.5,-1120.7907 791.5,-1120.7907 791.5,-1098.7907 594.5,-1098.7907"/>
<image xlink:href="../../images/foreignKeys.png" width="11px" height="12px" preserveAspectRatio="xMinYMin meet" x="599.5" y="-1115.79"/>
<text text-anchor="start" x="633.5" y="-1105.8907" font-family="Helvetica,sans-Serif" font-size="11.00" fill="#000000">updated_by</text>
<polygon fill="none" stroke="#000000" points="594.5,-1079.7907 594.5,-1098.7907 791.5,-1098.7907 791.5,-1079.7907 594.5,-1079.7907"/>
<text text-anchor="start" x="597.5" y="-1085.8907" font-family="Helvetica,sans-Serif" font-size="11.00" fill="#000000">...</text>
<polygon fill="#ffffff" stroke="transparent" points="594.5,-1060.7907 594.5,-1079.7907 678.5,-1079.7907 678.5,-1060.7907 594.5,-1060.7907"/>
<polygon fill="none" stroke="#000000" points="594.5,-1060.7907 594.5,-1079.7907 678.5,-1079.7907 678.5,-1060.7907 594.5,-1060.7907"/>
<text text-anchor="start" x="597.5" y="-1066.8907" font-family="Helvetica,sans-Serif" font-size="11.00" fill="#000000">&lt; 5</text>
<polygon fill="#ffffff" stroke="transparent" points="678.5,-1060.7907 678.5,-1079.7907 747.5,-1079.7907 747.5,-1060.7907 678.5,-1060.7907"/>
<polygon fill="none" stroke="#000000" points="678.5,-1060.7907 678.5,-1079.7907 747.5,-1079.7907 747.5,-1060.7907 678.5,-1060.7907"/>
<text text-anchor="start" x="712.1105" y="-1066.8907" font-family="Helvetica,sans-Serif" font-size="11.00" fill="#000000">0 rows</text>
<polygon fill="#ffffff" stroke="transparent" points="747.5,-1060.7907 747.5,-1079.7907 791.5,-1079.7907 791.5,-1060.7907 747.5,-1060.7907"/>
<polygon fill="none" stroke="#000000" points="747.5,-1060.7907 747.5,-1079.7907 791.5,-1079.7907 791.5,-1060.7907 747.5,-1060.7907"/>
<text text-anchor="start" x="782.3862" y="-1066.8907" font-family="Helvetica,sans-Serif" font-size="11.00" fill="#000000"> &#160;</text>
</a>
</g>
</g>
<!-- users -->
<g id="node2" class="node">
<title>users</title>
<g id="a_node2"><a xlink:href="../../tables/users.html" xlink:title="users" target="_top">
<polygon fill="#ffffff" stroke="transparent" points="8,-324.2907 8,-517.2907 119,-517.2907 119,-324.2907 8,-324.2907"/>
<polygon fill="#f5f5f5" stroke="transparent" points="8.5,-493.7907 8.5,-516.7907 119.5,-516.7907 119.5,-493.7907 8.5,-493.7907"/>
<polygon fill="none" stroke="#000000" points="8.5,-493.7907 8.5,-516.7907 119.5,-516.7907 119.5,-493.7907 8.5,-493.7907"/>
<text text-anchor="start" x="13.5" y="-502.3907" font-family="Helvetica,sans-Serif" font-weight="bold" font-size="11.00" fill="#000000">users</text>
<text text-anchor="start" x="84.5437" y="-501.8907" font-family="Helvetica,sans-Serif" font-size="11.00" fill="#000000">[table]</text>
<polygon fill="none" stroke="#000000" points="8.5,-471.7907 8.5,-493.7907 119.5,-493.7907 119.5,-471.7907 8.5,-471.7907"/>
<image xlink:href="../../images/primaryKeys.png" width="11px" height="12px" preserveAspectRatio="xMinYMin meet" x="13.5" y="-488.791"/>
<text text-anchor="start" x="28.5" y="-478.8907" font-family="Helvetica,sans-Serif" font-size="11.00" fill="#000000">id</text>
<polygon fill="#ffffff" stroke="transparent" points="8.5,-449.7907 8.5,-471.7907 119.5,-471.7907 119.5,-449.7907 8.5,-449.7907"/>
<polygon fill="none" stroke="#000000" points="8.5,-449.7907 8.5,-471.7907 119.5,-471.7907 119.5,-449.7907 8.5,-449.7907"/>
<text text-anchor="start" x="28.5" y="-456.8907" font-family="Helvetica,sans-Serif" font-size="11.00" fill="#000000">username</text>
<polygon fill="#ffffff" stroke="transparent" points="8.5,-427.7907 8.5,-449.7907 119.5,-449.7907 119.5,-427.7907 8.5,-427.7907"/>
<polygon fill="none" stroke="#000000" points="8.5,-427.7907 8.5,-449.7907 119.5,-449.7907 119.5,-427.7907 8.5,-427.7907"/>
<text text-anchor="start" x="28.5" y="-434.8907" font-family="Helvetica,sans-Serif" font-size="11.00" fill="#000000">email</text>
<polygon fill="#ffffff" stroke="transparent" points="8.5,-405.7907 8.5,-427.7907 119.5,-427.7907 119.5,-405.7907 8.5,-405.7907"/>
<polygon fill="none" stroke="#000000" points="8.5,-405.7907 8.5,-427.7907 119.5,-427.7907 119.5,-405.7907 8.5,-405.7907"/>
<image xlink:href="../../images/foreignKeys.png" width="11px" height="12px" preserveAspectRatio="xMinYMin meet" x="13.5" y="-422.791"/>
<text text-anchor="start" x="28.5" y="-412.8907" font-family="Helvetica,sans-Serif" font-size="11.00" fill="#000000">department_id</text>
<polygon fill="none" stroke="#000000" points="8.5,-383.7907 8.5,-405.7907 119.5,-405.7907 119.5,-383.7907 8.5,-383.7907"/>
<image xlink:href="../../images/foreignKeys.png" width="11px" height="12px" preserveAspectRatio="xMinYMin meet" x="13.5" y="-400.791"/>
<text text-anchor="start" x="28.5" y="-390.8907" font-family="Helvetica,sans-Serif" font-size="11.00" fill="#000000">created_by</text>
<polygon fill="none" stroke="#000000" points="8.5,-361.7907 8.5,-383.7907 119.5,-383.7907 119.5,-361.7907 8.5,-361.7907"/>
<image xlink:href="../../images/foreignKeys.png" width="11px" height="12px" preserveAspectRatio="xMinYMin meet" x="13.5" y="-378.791"/>
<text text-anchor="start" x="28.5" y="-368.8907" font-family="Helvetica,sans-Serif" font-size="11.00" fill="#000000">updated_by</text>
<polygon fill="none" stroke="#000000" points="8.5,-342.7907 8.5,-361.7907 119.5,-361.7907 119.5,-342.7907 8.5,-342.7907"/>
<text text-anchor="start" x="11.5" y="-348.8907" font-family="Helvetica,sans-Serif" font-size="11.00" fill="#000000">...</text>
<polygon fill="#ffffff" stroke="transparent" points="8.5,-323.7907 8.5,-342.7907 38.5,-342.7907 38.5,-323.7907 8.5,-323.7907"/>
<polygon fill="none" stroke="#000000" points="8.5,-323.7907 8.5,-342.7907 38.5,-342.7907 38.5,-323.7907 8.5,-323.7907"/>
<text text-anchor="start" x="11.5" y="-329.8907" font-family="Helvetica,sans-Serif" font-size="11.00" fill="#000000">&lt; 3</text>
<polygon fill="#ffffff" stroke="transparent" points="38.5,-323.7907 38.5,-342.7907 87.5,-342.7907 87.5,-323.7907 38.5,-323.7907"/>
<polygon fill="none" stroke="#000000" points="38.5,-323.7907 38.5,-342.7907 87.5,-342.7907 87.5,-323.7907 38.5,-323.7907"/>
<text text-anchor="start" x="45.9956" y="-329.8907" font-family="Helvetica,sans-Serif" font-size="11.00" fill="#000000">10 rows</text>
<polygon fill="#ffffff" stroke="transparent" points="87.5,-323.7907 87.5,-342.7907 119.5,-342.7907 119.5,-323.7907 87.5,-323.7907"/>
<polygon fill="none" stroke="#000000" points="87.5,-323.7907 87.5,-342.7907 119.5,-342.7907 119.5,-323.7907 87.5,-323.7907"/>
<text text-anchor="start" x="94.7904" y="-329.8907" font-family="Helvetica,sans-Serif" font-size="11.00" fill="#000000">66 &gt;</text>
</a>
</g>
</g>
<!-- oms.delivery_appointments&#45;&gt;users -->
<g id="edge1" class="edge">
<title>oms.delivery_appointments:w&#45;&gt;users:e</title>
<path fill="none" stroke="#000000" d="M579.904,-1131.9795C395.2985,-1136.7404 292.1779,-1228.7801 160,-1093.7907 112.3989,-1045.177 187.5379,-482.7907 119.5,-482.7907"/>
<polygon fill="#000000" stroke="#000000" points="586.5007,-1131.8942 594.5466,-1135.3903 590.5003,-1131.8424 594.5,-1131.7907 594.5,-1131.7907 594.5,-1131.7907 590.5003,-1131.8424 594.4534,-1128.191 586.5007,-1131.8942 586.5007,-1131.8942"/>
<ellipse fill="none" stroke="#000000" cx="583.3009" cy="-1131.9356" rx="3.2" ry="3.2"/>
</g>
<!-- oms.delivery_appointments&#45;&gt;users -->
<g id="edge3" class="edge">
<title>oms.delivery_appointments:w&#45;&gt;users:e</title>
<path fill="none" stroke="#000000" d="M579.922,-1109.3926C497.7266,-1105.9125 190.889,-1079.998 160,-1046.7907 117.2087,-1000.7878 182.328,-482.7907 119.5,-482.7907"/>
<polygon fill="#000000" stroke="#000000" points="586.503,-1109.5722 594.4017,-1113.3893 590.5015,-1109.6814 594.5,-1109.7907 594.5,-1109.7907 594.5,-1109.7907 590.5015,-1109.6814 594.5983,-1106.192 586.503,-1109.5722 586.503,-1109.5722"/>
<ellipse fill="none" stroke="#000000" cx="583.3042" cy="-1109.4849" rx="3.2" ry="3.2"/>
</g>
<!-- orders -->
<g id="node3" class="node">
<title>orders</title>
<g id="a_node3"><a xlink:href="../../tables/orders.html" xlink:title="orders" target="_top">
<polygon fill="#ffffff" stroke="transparent" points="328,-442.7907 328,-884.7907 545,-884.7907 545,-442.7907 328,-442.7907"/>
<polygon fill="#f5f5f5" stroke="transparent" points="330.5,-859.7907 330.5,-882.7907 543.5,-882.7907 543.5,-859.7907 330.5,-859.7907"/>
<polygon fill="none" stroke="#000000" points="330.5,-859.7907 330.5,-882.7907 543.5,-882.7907 543.5,-859.7907 330.5,-859.7907"/>
<text text-anchor="start" x="335.5" y="-868.3907" font-family="Helvetica,sans-Serif" font-weight="bold" font-size="11.00" fill="#000000">orders</text>
<text text-anchor="start" x="508.5437" y="-867.8907" font-family="Helvetica,sans-Serif" font-size="11.00" fill="#000000">[table]</text>
<polygon fill="none" stroke="#000000" points="330.5,-837.7907 330.5,-859.7907 451.5,-859.7907 451.5,-837.7907 330.5,-837.7907"/>
<image xlink:href="../../images/primaryKeys.png" width="11px" height="12px" preserveAspectRatio="xMinYMin meet" x="335.5" y="-854.791"/>
<text text-anchor="start" x="350.5" y="-844.8907" font-family="Helvetica,sans-Serif" font-size="11.00" fill="#000000">order_id</text>
<polygon fill="none" stroke="#000000" points="451.5,-837.7907 451.5,-859.7907 543.5,-859.7907 543.5,-837.7907 451.5,-837.7907"/>
<text text-anchor="start" x="454.5" y="-845.4907" font-family="Helvetica,sans-Serif" font-size="11.00" fill="#000000">bigserial[19]</text>
<polygon fill="#ffffff" stroke="transparent" points="330.5,-815.7907 330.5,-837.7907 451.5,-837.7907 451.5,-815.7907 330.5,-815.7907"/>
<polygon fill="none" stroke="#000000" points="330.5,-815.7907 330.5,-837.7907 451.5,-837.7907 451.5,-815.7907 330.5,-815.7907"/>
<text text-anchor="start" x="350.5" y="-822.8907" font-family="Helvetica,sans-Serif" font-size="11.00" fill="#000000">order_number</text>
<polygon fill="none" stroke="#000000" points="451.5,-815.7907 451.5,-837.7907 543.5,-837.7907 543.5,-815.7907 451.5,-815.7907"/>
<text text-anchor="start" x="454.5" y="-823.4907" font-family="Helvetica,sans-Serif" font-size="11.00" fill="#000000">varchar[50]</text>
<polygon fill="#ffffff" stroke="transparent" points="330.5,-793.7907 330.5,-815.7907 451.5,-815.7907 451.5,-793.7907 330.5,-793.7907"/>
<polygon fill="none" stroke="#000000" points="330.5,-793.7907 330.5,-815.7907 451.5,-815.7907 451.5,-793.7907 330.5,-793.7907"/>
<image xlink:href="../../images/foreignKeys.png" width="11px" height="12px" preserveAspectRatio="xMinYMin meet" x="335.5" y="-810.791"/>
<text text-anchor="start" x="350.5" y="-800.8907" font-family="Helvetica,sans-Serif" font-size="11.00" fill="#000000">customer_id</text>
<polygon fill="none" stroke="#000000" points="451.5,-793.7907 451.5,-815.7907 543.5,-815.7907 543.5,-793.7907 451.5,-793.7907"/>
<text text-anchor="start" x="454.5" y="-801.4907" font-family="Helvetica,sans-Serif" font-size="11.00" fill="#000000">int8[19]</text>
<polygon fill="#ffffff" stroke="transparent" points="330.5,-771.7907 330.5,-793.7907 451.5,-793.7907 451.5,-771.7907 330.5,-771.7907"/>
<polygon fill="none" stroke="#000000" points="330.5,-771.7907 330.5,-793.7907 451.5,-793.7907 451.5,-771.7907 330.5,-771.7907"/>
<image xlink:href="../../images/foreignKeys.png" width="11px" height="12px" preserveAspectRatio="xMinYMin meet" x="335.5" y="-788.791"/>
<text text-anchor="start" x="350.5" y="-778.8907" font-family="Helvetica,sans-Serif" font-size="11.00" fill="#000000">user_id</text>
<polygon fill="none" stroke="#000000" points="451.5,-771.7907 451.5,-793.7907 543.5,-793.7907 543.5,-771.7907 451.5,-771.7907"/>
<text text-anchor="start" x="454.5" y="-779.4907" font-family="Helvetica,sans-Serif" font-size="11.00" fill="#000000">int8[19]</text>
<polygon fill="#ffffff" stroke="transparent" points="330.5,-749.7907 330.5,-771.7907 451.5,-771.7907 451.5,-749.7907 330.5,-749.7907"/>
<polygon fill="none" stroke="#000000" points="330.5,-749.7907 330.5,-771.7907 451.5,-771.7907 451.5,-749.7907 330.5,-749.7907"/>
<text text-anchor="start" x="350.5" y="-756.8907" font-family="Helvetica,sans-Serif" font-size="11.00" fill="#000000">order_date</text>
<polygon fill="none" stroke="#000000" points="451.5,-749.7907 451.5,-771.7907 543.5,-771.7907 543.5,-749.7907 451.5,-749.7907"/>
<text text-anchor="start" x="454.5" y="-757.4907" font-family="Helvetica,sans-Serif" font-size="11.00" fill="#000000">date[13]</text>
<polygon fill="none" stroke="#000000" points="330.5,-727.7907 330.5,-749.7907 451.5,-749.7907 451.5,-727.7907 330.5,-727.7907"/>
<text text-anchor="start" x="350.5" y="-734.8907" font-family="Helvetica,sans-Serif" font-size="11.00" fill="#000000">status</text>
<polygon fill="none" stroke="#000000" points="451.5,-727.7907 451.5,-749.7907 543.5,-749.7907 543.5,-727.7907 451.5,-727.7907"/>
<text text-anchor="start" x="454.5" y="-735.4907" font-family="Helvetica,sans-Serif" font-size="11.00" fill="#000000">varchar[20]</text>
<polygon fill="none" stroke="#000000" points="330.5,-705.7907 330.5,-727.7907 451.5,-727.7907 451.5,-705.7907 330.5,-705.7907"/>
<text text-anchor="start" x="350.5" y="-712.8907" font-family="Helvetica,sans-Serif" font-size="11.00" fill="#000000">total_amount</text>
<polygon fill="none" stroke="#000000" points="451.5,-705.7907 451.5,-727.7907 543.5,-727.7907 543.5,-705.7907 451.5,-705.7907"/>
<text text-anchor="start" x="454.5" y="-713.4907" font-family="Helvetica,sans-Serif" font-size="11.00" fill="#000000">numeric[12,2]</text>
<polygon fill="none" stroke="#000000" points="330.5,-683.7907 330.5,-705.7907 451.5,-705.7907 451.5,-683.7907 330.5,-683.7907"/>
<text text-anchor="start" x="350.5" y="-690.8907" font-family="Helvetica,sans-Serif" font-size="11.00" fill="#000000">discount_amount</text>
<polygon fill="none" stroke="#000000" points="451.5,-683.7907 451.5,-705.7907 543.5,-705.7907 543.5,-683.7907 451.5,-683.7907"/>
<text text-anchor="start" x="454.5" y="-691.4907" font-family="Helvetica,sans-Serif" font-size="11.00" fill="#000000">numeric[12,2]</text>
<polygon fill="none" stroke="#000000" points="330.5,-661.7907 330.5,-683.7907 451.5,-683.7907 451.5,-661.7907 330.5,-661.7907"/>
<text text-anchor="start" x="350.5" y="-668.8907" font-family="Helvetica,sans-Serif" font-size="11.00" fill="#000000">tax_amount</text>
<polygon fill="none" stroke="#000000" points="451.5,-661.7907 451.5,-683.7907 543.5,-683.7907 543.5,-661.7907 451.5,-661.7907"/>
<text text-anchor="start" x="454.5" y="-669.4907" font-family="Helvetica,sans-Serif" font-size="11.00" fill="#000000">numeric[12,2]</text>
<polygon fill="none" stroke="#000000" points="330.5,-639.7907 330.5,-661.7907 451.5,-661.7907 451.5,-639.7907 330.5,-639.7907"/>
<text text-anchor="start" x="350.5" y="-646.8907" font-family="Helvetica,sans-Serif" font-size="11.00" fill="#000000">final_amount</text>
<polygon fill="none" stroke="#000000" points="451.5,-639.7907 451.5,-661.7907 543.5,-661.7907 543.5,-639.7907 451.5,-639.7907"/>
<text text-anchor="start" x="454.5" y="-647.4907" font-family="Helvetica,sans-Serif" font-size="11.00" fill="#000000">numeric[12,2]</text>
<polygon fill="none" stroke="#000000" points="330.5,-617.7907 330.5,-639.7907 451.5,-639.7907 451.5,-617.7907 330.5,-617.7907"/>
<text text-anchor="start" x="350.5" y="-624.8907" font-family="Helvetica,sans-Serif" font-size="11.00" fill="#000000">notes</text>
<polygon fill="none" stroke="#000000" points="451.5,-617.7907 451.5,-639.7907 543.5,-639.7907 543.5,-617.7907 451.5,-617.7907"/>
<text text-anchor="start" x="454.5" y="-625.4907" font-family="Helvetica,sans-Serif" font-size="11.00" fill="#000000">text[2147483647]</text>
<polygon fill="none" stroke="#000000" points="330.5,-595.7907 330.5,-617.7907 451.5,-617.7907 451.5,-595.7907 330.5,-595.7907"/>
<text text-anchor="start" x="350.5" y="-602.8907" font-family="Helvetica,sans-Serif" font-size="11.00" fill="#000000">created_at</text>
<polygon fill="none" stroke="#000000" points="451.5,-595.7907 451.5,-617.7907 543.5,-617.7907 543.5,-595.7907 451.5,-595.7907"/>
<text text-anchor="start" x="454.1023" y="-603.4907" font-family="Helvetica,sans-Serif" font-size="11.00" fill="#000000">timestamptz[35,6]</text>
<polygon fill="none" stroke="#000000" points="330.5,-573.7907 330.5,-595.7907 451.5,-595.7907 451.5,-573.7907 330.5,-573.7907"/>
<text text-anchor="start" x="350.5" y="-580.8907" font-family="Helvetica,sans-Serif" font-size="11.00" fill="#000000">updated_at</text>
<polygon fill="none" stroke="#000000" points="451.5,-573.7907 451.5,-595.7907 543.5,-595.7907 543.5,-573.7907 451.5,-573.7907"/>
<text text-anchor="start" x="454.1023" y="-581.4907" font-family="Helvetica,sans-Serif" font-size="11.00" fill="#000000">timestamptz[35,6]</text>
<polygon fill="none" stroke="#000000" points="330.5,-551.7907 330.5,-573.7907 451.5,-573.7907 451.5,-551.7907 330.5,-551.7907"/>
<text text-anchor="start" x="350.5" y="-558.8907" font-family="Helvetica,sans-Serif" font-size="11.00" fill="#000000">eta_date</text>
<polygon fill="none" stroke="#000000" points="451.5,-551.7907 451.5,-573.7907 543.5,-573.7907 543.5,-551.7907 451.5,-551.7907"/>
<text text-anchor="start" x="454.5" y="-559.4907" font-family="Helvetica,sans-Serif" font-size="11.00" fill="#000000">date[13]</text>
<polygon fill="none" stroke="#000000" points="330.5,-529.7907 330.5,-551.7907 451.5,-551.7907 451.5,-529.7907 330.5,-529.7907"/>
<text text-anchor="start" x="350.5" y="-536.8907" font-family="Helvetica,sans-Serif" font-size="11.00" fill="#000000">lfd_date</text>
<polygon fill="none" stroke="#000000" points="451.5,-529.7907 451.5,-551.7907 543.5,-551.7907 543.5,-529.7907 451.5,-529.7907"/>
<text text-anchor="start" x="454.5" y="-537.4907" font-family="Helvetica,sans-Serif" font-size="11.00" fill="#000000">date[13]</text>
<polygon fill="none" stroke="#000000" points="330.5,-507.7907 330.5,-529.7907 451.5,-529.7907 451.5,-507.7907 330.5,-507.7907"/>
<text text-anchor="start" x="350.5" y="-514.8907" font-family="Helvetica,sans-Serif" font-size="11.00" fill="#000000">pickup_date</text>
<polygon fill="none" stroke="#000000" points="451.5,-507.7907 451.5,-529.7907 543.5,-529.7907 543.5,-507.7907 451.5,-507.7907"/>
<text text-anchor="start" x="454.5" y="-515.4907" font-family="Helvetica,sans-Serif" font-size="11.00" fill="#000000">date[13]</text>
<polygon fill="none" stroke="#000000" points="330.5,-485.7907 330.5,-507.7907 451.5,-507.7907 451.5,-485.7907 330.5,-485.7907"/>
<image xlink:href="../../images/foreignKeys.png" width="11px" height="12px" preserveAspectRatio="xMinYMin meet" x="335.5" y="-502.791"/>
<text text-anchor="start" x="350.5" y="-492.8907" font-family="Helvetica,sans-Serif" font-size="11.00" fill="#000000">created_by</text>
<polygon fill="none" stroke="#000000" points="451.5,-485.7907 451.5,-507.7907 543.5,-507.7907 543.5,-485.7907 451.5,-485.7907"/>
<text text-anchor="start" x="454.5" y="-493.4907" font-family="Helvetica,sans-Serif" font-size="11.00" fill="#000000">int8[19]</text>
<polygon fill="none" stroke="#000000" points="330.5,-463.7907 330.5,-485.7907 451.5,-485.7907 451.5,-463.7907 330.5,-463.7907"/>
<image xlink:href="../../images/foreignKeys.png" width="11px" height="12px" preserveAspectRatio="xMinYMin meet" x="335.5" y="-480.791"/>
<text text-anchor="start" x="350.5" y="-470.8907" font-family="Helvetica,sans-Serif" font-size="11.00" fill="#000000">updated_by</text>
<polygon fill="none" stroke="#000000" points="451.5,-463.7907 451.5,-485.7907 543.5,-485.7907 543.5,-463.7907 451.5,-463.7907"/>
<text text-anchor="start" x="454.5" y="-471.4907" font-family="Helvetica,sans-Serif" font-size="11.00" fill="#000000">int8[19]</text>
<polygon fill="#ffffff" stroke="transparent" points="330.5,-444.7907 330.5,-463.7907 382.5,-463.7907 382.5,-444.7907 330.5,-444.7907"/>
<polygon fill="none" stroke="#000000" points="330.5,-444.7907 330.5,-463.7907 382.5,-463.7907 382.5,-444.7907 330.5,-444.7907"/>
<text text-anchor="start" x="333.5" y="-450.8907" font-family="Helvetica,sans-Serif" font-size="11.00" fill="#000000">&lt; 4</text>
<polygon fill="#ffffff" stroke="transparent" points="382.5,-444.7907 382.5,-463.7907 451.5,-463.7907 451.5,-444.7907 382.5,-444.7907"/>
<polygon fill="none" stroke="#000000" points="382.5,-444.7907 382.5,-463.7907 451.5,-463.7907 451.5,-444.7907 382.5,-444.7907"/>
<text text-anchor="start" x="416.1105" y="-450.8907" font-family="Helvetica,sans-Serif" font-size="11.00" fill="#000000">2 rows</text>
<polygon fill="#ffffff" stroke="transparent" points="451.5,-444.7907 451.5,-463.7907 543.5,-463.7907 543.5,-444.7907 451.5,-444.7907"/>
<polygon fill="none" stroke="#000000" points="451.5,-444.7907 451.5,-463.7907 543.5,-463.7907 543.5,-444.7907 451.5,-444.7907"/>
<text text-anchor="start" x="524.9053" y="-450.8907" font-family="Helvetica,sans-Serif" font-size="11.00" fill="#000000">8 &gt;</text>
<polygon fill="none" stroke="#000000" stroke-width="2" points="329,-443.7907 329,-883.7907 544,-883.7907 544,-443.7907 329,-443.7907"/>
</a>
</g>
</g>
<!-- oms.delivery_appointments&#45;&gt;orders -->
<g id="edge2" class="edge">
<title>oms.delivery_appointments:w&#45;&gt;orders:e</title>
<path fill="none" stroke="#000000" d="M580.5699,-1192.8571C530.0827,-1150.4379 616.3682,-848.7907 543.5,-848.7907"/>
<polygon fill="#000000" stroke="#000000" points="586.959,-1195.1198 593.2981,-1201.1841 590.7295,-1196.4552 594.5,-1197.7907 594.5,-1197.7907 594.5,-1197.7907 590.7295,-1196.4552 595.7019,-1194.3972 586.959,-1195.1198 586.959,-1195.1198"/>
<ellipse fill="none" stroke="#000000" cx="583.9426" cy="-1194.0515" rx="3.2" ry="3.2"/>
</g>
<!-- orders&#45;&gt;users -->
<g id="edge15" class="edge">
<title>orders:w&#45;&gt;users:e</title>
<path fill="none" stroke="#000000" d="M315.9482,-496.6738C233.8372,-495.3271 208.436,-482.7907 119.5,-482.7907"/>
<polygon fill="#000000" stroke="#000000" points="322.5003,-496.7264 330.4711,-500.3905 326.5001,-496.7585 330.5,-496.7907 330.5,-496.7907 330.5,-496.7907 326.5001,-496.7585 330.5289,-493.1908 322.5003,-496.7264 322.5003,-496.7264"/>
<ellipse fill="none" stroke="#000000" cx="319.3004" cy="-496.7007" rx="3.2" ry="3.2"/>
</g>
<!-- orders&#45;&gt;users -->
<g id="edge17" class="edge">
<title>orders:w&#45;&gt;users:e</title>
<path fill="none" stroke="#000000" d="M315.7115,-474.8291C251.8232,-475.1749 230.5783,-477.8063 160,-480.7907 141.9942,-481.552 137.5219,-482.7907 119.5,-482.7907"/>
<polygon fill="#000000" stroke="#000000" points="322.5,-474.8115 330.5094,-478.3906 326.5,-474.8011 330.5,-474.7907 330.5,-474.7907 330.5,-474.7907 326.5,-474.8011 330.4906,-471.1907 322.5,-474.8115 322.5,-474.8115"/>
<ellipse fill="none" stroke="#000000" cx="319.3" cy="-474.8198" rx="3.2" ry="3.2"/>
</g>
<!-- orders&#45;&gt;users -->
<g id="edge18" class="edge">
<title>orders:w&#45;&gt;users:e</title>
<path fill="none" stroke="#000000" d="M317.0958,-777.3033C283.879,-744.5512 320.1956,-575.0419 287,-537.7907 247.8027,-493.8045 215.4637,-519.6649 160,-499.7907 141.6228,-493.2055 139.0214,-482.7907 119.5,-482.7907"/>
<polygon fill="#000000" stroke="#000000" points="323.0964,-779.7597 329.1361,-786.1223 326.7982,-781.2752 330.5,-782.7907 330.5,-782.7907 330.5,-782.7907 326.7982,-781.2752 331.8639,-779.459 323.0964,-779.7597 323.0964,-779.7597"/>
<ellipse fill="none" stroke="#000000" cx="320.1349" cy="-778.5474" rx="3.2" ry="3.2"/>
</g>
<!-- customers -->
<g id="node6" class="node">
<title>customers</title>
<g id="a_node6"><a xlink:href="../../tables/customers.html" xlink:title="customers" target="_top">
<polygon fill="#ffffff" stroke="transparent" points="168,-548.2907 168,-719.2907 279,-719.2907 279,-548.2907 168,-548.2907"/>
<polygon fill="#f5f5f5" stroke="transparent" points="168.5,-695.7907 168.5,-718.7907 279.5,-718.7907 279.5,-695.7907 168.5,-695.7907"/>
<polygon fill="none" stroke="#000000" points="168.5,-695.7907 168.5,-718.7907 279.5,-718.7907 279.5,-695.7907 168.5,-695.7907"/>
<text text-anchor="start" x="173.5" y="-704.3907" font-family="Helvetica,sans-Serif" font-weight="bold" font-size="11.00" fill="#000000">customers</text>
<text text-anchor="start" x="244.5437" y="-703.8907" font-family="Helvetica,sans-Serif" font-size="11.00" fill="#000000">[table]</text>
<polygon fill="none" stroke="#000000" points="168.5,-673.7907 168.5,-695.7907 279.5,-695.7907 279.5,-673.7907 168.5,-673.7907"/>
<image xlink:href="../../images/primaryKeys.png" width="11px" height="12px" preserveAspectRatio="xMinYMin meet" x="173.5" y="-690.791"/>
<text text-anchor="start" x="188.5" y="-680.8907" font-family="Helvetica,sans-Serif" font-size="11.00" fill="#000000">id</text>
<polygon fill="#ffffff" stroke="transparent" points="168.5,-651.7907 168.5,-673.7907 279.5,-673.7907 279.5,-651.7907 168.5,-651.7907"/>
<polygon fill="none" stroke="#000000" points="168.5,-651.7907 168.5,-673.7907 279.5,-673.7907 279.5,-651.7907 168.5,-651.7907"/>
<text text-anchor="start" x="188.5" y="-658.8907" font-family="Helvetica,sans-Serif" font-size="11.00" fill="#000000">code</text>
<polygon fill="none" stroke="#000000" points="168.5,-629.7907 168.5,-651.7907 279.5,-651.7907 279.5,-629.7907 168.5,-629.7907"/>
<image xlink:href="../../images/foreignKeys.png" width="11px" height="12px" preserveAspectRatio="xMinYMin meet" x="173.5" y="-646.791"/>
<text text-anchor="start" x="188.5" y="-636.8907" font-family="Helvetica,sans-Serif" font-size="11.00" fill="#000000">contact_id</text>
<polygon fill="none" stroke="#000000" points="168.5,-607.7907 168.5,-629.7907 279.5,-629.7907 279.5,-607.7907 168.5,-607.7907"/>
<image xlink:href="../../images/foreignKeys.png" width="11px" height="12px" preserveAspectRatio="xMinYMin meet" x="173.5" y="-624.791"/>
<text text-anchor="start" x="188.5" y="-614.8907" font-family="Helvetica,sans-Serif" font-size="11.00" fill="#000000">created_by</text>
<polygon fill="none" stroke="#000000" points="168.5,-585.7907 168.5,-607.7907 279.5,-607.7907 279.5,-585.7907 168.5,-585.7907"/>
<image xlink:href="../../images/foreignKeys.png" width="11px" height="12px" preserveAspectRatio="xMinYMin meet" x="173.5" y="-602.791"/>
<text text-anchor="start" x="188.5" y="-592.8907" font-family="Helvetica,sans-Serif" font-size="11.00" fill="#000000">updated_by</text>
<polygon fill="none" stroke="#000000" points="168.5,-566.7907 168.5,-585.7907 279.5,-585.7907 279.5,-566.7907 168.5,-566.7907"/>
<text text-anchor="start" x="171.5" y="-572.8907" font-family="Helvetica,sans-Serif" font-size="11.00" fill="#000000">...</text>
<polygon fill="#ffffff" stroke="transparent" points="168.5,-547.7907 168.5,-566.7907 198.5,-566.7907 198.5,-547.7907 168.5,-547.7907"/>
<polygon fill="none" stroke="#000000" points="168.5,-547.7907 168.5,-566.7907 198.5,-566.7907 198.5,-547.7907 168.5,-547.7907"/>
<text text-anchor="start" x="171.5" y="-553.8907" font-family="Helvetica,sans-Serif" font-size="11.00" fill="#000000">&lt; 3</text>
<polygon fill="#ffffff" stroke="transparent" points="198.5,-547.7907 198.5,-566.7907 253.5,-566.7907 253.5,-547.7907 198.5,-547.7907"/>
<polygon fill="none" stroke="#000000" points="198.5,-547.7907 198.5,-566.7907 253.5,-566.7907 253.5,-547.7907 198.5,-547.7907"/>
<text text-anchor="start" x="205.8807" y="-553.8907" font-family="Helvetica,sans-Serif" font-size="11.00" fill="#000000">135 rows</text>
<polygon fill="#ffffff" stroke="transparent" points="253.5,-547.7907 253.5,-566.7907 279.5,-566.7907 279.5,-547.7907 253.5,-547.7907"/>
<polygon fill="none" stroke="#000000" points="253.5,-547.7907 253.5,-566.7907 279.5,-566.7907 279.5,-547.7907 253.5,-547.7907"/>
<text text-anchor="start" x="260.9053" y="-553.8907" font-family="Helvetica,sans-Serif" font-size="11.00" fill="#000000">1 &gt;</text>
</a>
</g>
</g>
<!-- orders&#45;&gt;customers -->
<g id="edge16" class="edge">
<title>orders:w&#45;&gt;customers:e</title>
<path fill="none" stroke="#000000" d="M316.3875,-801.3287C284.4655,-781.6534 331.5646,-684.7907 279.5,-684.7907"/>
<polygon fill="#000000" stroke="#000000" points="322.7304,-802.8846 329.6423,-808.287 326.6152,-803.8376 330.5,-804.7907 330.5,-804.7907 330.5,-804.7907 326.6152,-803.8376 331.3577,-801.2943 322.7304,-802.8846 322.7304,-802.8846"/>
<ellipse fill="none" stroke="#000000" cx="319.6225" cy="-802.1222" rx="3.2" ry="3.2"/>
</g>
<!-- oms.order_allocations -->
<g id="node4" class="node">
<title>oms.order_allocations</title>
<g id="a_node4"><a xlink:href="../../../oms/tables/order_allocations.html" xlink:title="oms.order_allocations" target="_top">
<polygon fill="#ffffff" stroke="transparent" points="609,-885.2907 609,-1012.2907 776,-1012.2907 776,-885.2907 609,-885.2907"/>
<polygon fill="#f5f5f5" stroke="transparent" points="609.5,-988.7907 609.5,-1011.7907 776.5,-1011.7907 776.5,-988.7907 609.5,-988.7907"/>
<polygon fill="none" stroke="#000000" points="609.5,-988.7907 609.5,-1011.7907 776.5,-1011.7907 776.5,-988.7907 609.5,-988.7907"/>
<text text-anchor="start" x="614.5" y="-997.3907" font-family="Helvetica,sans-Serif" font-weight="bold" font-size="11.00" fill="#000000">oms.order_allocations</text>
<text text-anchor="start" x="742.0219" y="-996.8907" font-family="Helvetica,sans-Serif" font-size="11.00" fill="#000000">[table]</text>
<polygon fill="none" stroke="#000000" points="609.5,-966.7907 609.5,-988.7907 776.5,-988.7907 776.5,-966.7907 609.5,-966.7907"/>
<image xlink:href="../../images/foreignKeys.png" width="11px" height="12px" preserveAspectRatio="xMinYMin meet" x="614.5" y="-983.791"/>
<text text-anchor="start" x="639.5" y="-973.8907" font-family="Helvetica,sans-Serif" font-size="11.00" fill="#000000">order_id</text>
<polygon fill="none" stroke="#000000" points="609.5,-944.7907 609.5,-966.7907 776.5,-966.7907 776.5,-944.7907 609.5,-944.7907"/>
<image xlink:href="../../images/foreignKeys.png" width="11px" height="12px" preserveAspectRatio="xMinYMin meet" x="614.5" y="-961.791"/>
<text text-anchor="start" x="639.5" y="-951.8907" font-family="Helvetica,sans-Serif" font-size="11.00" fill="#000000">created_by</text>
<polygon fill="none" stroke="#000000" points="609.5,-922.7907 609.5,-944.7907 776.5,-944.7907 776.5,-922.7907 609.5,-922.7907"/>
<image xlink:href="../../images/foreignKeys.png" width="11px" height="12px" preserveAspectRatio="xMinYMin meet" x="614.5" y="-939.791"/>
<text text-anchor="start" x="639.5" y="-929.8907" font-family="Helvetica,sans-Serif" font-size="11.00" fill="#000000">updated_by</text>
<polygon fill="none" stroke="#000000" points="609.5,-903.7907 609.5,-922.7907 776.5,-922.7907 776.5,-903.7907 609.5,-903.7907"/>
<text text-anchor="start" x="612.5" y="-909.8907" font-family="Helvetica,sans-Serif" font-size="11.00" fill="#000000">...</text>
<polygon fill="#ffffff" stroke="transparent" points="609.5,-884.7907 609.5,-903.7907 678.5,-903.7907 678.5,-884.7907 609.5,-884.7907"/>
<polygon fill="none" stroke="#000000" points="609.5,-884.7907 609.5,-903.7907 678.5,-903.7907 678.5,-884.7907 609.5,-884.7907"/>
<text text-anchor="start" x="612.5" y="-890.8907" font-family="Helvetica,sans-Serif" font-size="11.00" fill="#000000">&lt; 3</text>
<polygon fill="#ffffff" stroke="transparent" points="678.5,-884.7907 678.5,-903.7907 740.5,-903.7907 740.5,-884.7907 678.5,-884.7907"/>
<polygon fill="none" stroke="#000000" points="678.5,-884.7907 678.5,-903.7907 740.5,-903.7907 740.5,-884.7907 678.5,-884.7907"/>
<text text-anchor="start" x="705.1105" y="-890.8907" font-family="Helvetica,sans-Serif" font-size="11.00" fill="#000000">0 rows</text>
<polygon fill="#ffffff" stroke="transparent" points="740.5,-884.7907 740.5,-903.7907 776.5,-903.7907 776.5,-884.7907 740.5,-884.7907"/>
<polygon fill="none" stroke="#000000" points="740.5,-884.7907 740.5,-903.7907 776.5,-903.7907 776.5,-884.7907 740.5,-884.7907"/>
<text text-anchor="start" x="767.3862" y="-890.8907" font-family="Helvetica,sans-Serif" font-size="11.00" fill="#000000"> &#160;</text>
</a>
</g>
</g>
<!-- oms.order_allocations&#45;&gt;users -->
<g id="edge4" class="edge">
<title>oms.order_allocations:w&#45;&gt;users:e</title>
<path fill="none" stroke="#000000" d="M594.9781,-957.4469C580.347,-961.1095 573.2685,-969.8075 553,-972.7907 466.5975,-985.5077 224.2471,-1031.9466 160,-972.7907 119.8112,-935.7865 174.1301,-482.7907 119.5,-482.7907"/>
<polygon fill="#000000" stroke="#000000" points="601.5515,-956.6973 609.908,-959.3675 605.5258,-956.244 609.5,-955.7907 609.5,-955.7907 609.5,-955.7907 605.5258,-956.244 609.092,-952.2138 601.5515,-956.6973 601.5515,-956.6973"/>
<ellipse fill="none" stroke="#000000" cx="598.3721" cy="-957.0599" rx="3.2" ry="3.2"/>
</g>
<!-- oms.order_allocations&#45;&gt;users -->
<g id="edge6" class="edge">
<title>oms.order_allocations:w&#45;&gt;users:e</title>
<path fill="none" stroke="#000000" d="M594.8633,-934.3118C580.5446,-935.4098 572.4788,-937.9304 553,-938.7907 449.5453,-943.3594 423.555,-939.1143 320,-938.7907 248.8878,-938.5684 212.3156,-985.9577 160,-937.7907 85.3211,-869.0337 221.0109,-482.7907 119.5,-482.7907"/>
<polygon fill="#000000" stroke="#000000" points="601.5051,-934.0754 609.6281,-937.3884 605.5025,-933.933 609.5,-933.7907 609.5,-933.7907 609.5,-933.7907 605.5025,-933.933 609.3719,-930.1929 601.5051,-934.0754 601.5051,-934.0754"/>
<ellipse fill="none" stroke="#000000" cx="598.3071" cy="-934.1893" rx="3.2" ry="3.2"/>
</g>
<!-- oms.order_allocations&#45;&gt;orders -->
<g id="edge5" class="edge">
<title>oms.order_allocations:w&#45;&gt;orders:e</title>
<path fill="none" stroke="#000000" d="M595.2943,-974.9763C555.1555,-956.1114 602.2412,-848.7907 543.5,-848.7907"/>
<polygon fill="#000000" stroke="#000000" points="601.6525,-976.2359 608.8004,-981.322 605.5763,-977.0133 609.5,-977.7907 609.5,-977.7907 609.5,-977.7907 605.5763,-977.0133 610.1996,-974.2593 601.6525,-976.2359 601.6525,-976.2359"/>
<ellipse fill="none" stroke="#000000" cx="598.5135" cy="-975.614" rx="3.2" ry="3.2"/>
</g>
<!-- oms.order_requirements -->
<g id="node5" class="node">
<title>oms.order_requirements</title>
<g id="a_node5"><a xlink:href="../../../oms/tables/order_requirements.html" xlink:title="oms.order_requirements" target="_top">
<polygon fill="#ffffff" stroke="transparent" points="602.5,-737.2907 602.5,-864.2907 782.5,-864.2907 782.5,-737.2907 602.5,-737.2907"/>
<polygon fill="#f5f5f5" stroke="transparent" points="602.5,-840.7907 602.5,-863.7907 782.5,-863.7907 782.5,-840.7907 602.5,-840.7907"/>
<polygon fill="none" stroke="#000000" points="602.5,-840.7907 602.5,-863.7907 782.5,-863.7907 782.5,-840.7907 602.5,-840.7907"/>
<text text-anchor="start" x="607.5" y="-849.3907" font-family="Helvetica,sans-Serif" font-weight="bold" font-size="11.00" fill="#000000">oms.order_requirements</text>
<text text-anchor="start" x="748.0219" y="-848.8907" font-family="Helvetica,sans-Serif" font-size="11.00" fill="#000000">[table]</text>
<polygon fill="none" stroke="#000000" points="602.5,-818.7907 602.5,-840.7907 782.5,-840.7907 782.5,-818.7907 602.5,-818.7907"/>
<image xlink:href="../../images/foreignKeys.png" width="11px" height="12px" preserveAspectRatio="xMinYMin meet" x="607.5" y="-835.791"/>
<text text-anchor="start" x="645.5" y="-825.8907" font-family="Helvetica,sans-Serif" font-size="11.00" fill="#000000">order_id</text>
<polygon fill="none" stroke="#000000" points="602.5,-796.7907 602.5,-818.7907 782.5,-818.7907 782.5,-796.7907 602.5,-796.7907"/>
<image xlink:href="../../images/foreignKeys.png" width="11px" height="12px" preserveAspectRatio="xMinYMin meet" x="607.5" y="-813.791"/>
<text text-anchor="start" x="645.5" y="-803.8907" font-family="Helvetica,sans-Serif" font-size="11.00" fill="#000000">created_by</text>
<polygon fill="none" stroke="#000000" points="602.5,-774.7907 602.5,-796.7907 782.5,-796.7907 782.5,-774.7907 602.5,-774.7907"/>
<image xlink:href="../../images/foreignKeys.png" width="11px" height="12px" preserveAspectRatio="xMinYMin meet" x="607.5" y="-791.791"/>
<text text-anchor="start" x="645.5" y="-781.8907" font-family="Helvetica,sans-Serif" font-size="11.00" fill="#000000">updated_by</text>
<polygon fill="none" stroke="#000000" points="602.5,-755.7907 602.5,-774.7907 782.5,-774.7907 782.5,-755.7907 602.5,-755.7907"/>
<text text-anchor="start" x="605.5" y="-761.8907" font-family="Helvetica,sans-Serif" font-size="11.00" fill="#000000">...</text>
<polygon fill="#ffffff" stroke="transparent" points="602.5,-736.7907 602.5,-755.7907 677.5,-755.7907 677.5,-736.7907 602.5,-736.7907"/>
<polygon fill="none" stroke="#000000" points="602.5,-736.7907 602.5,-755.7907 677.5,-755.7907 677.5,-736.7907 602.5,-736.7907"/>
<text text-anchor="start" x="605.5" y="-742.8907" font-family="Helvetica,sans-Serif" font-size="11.00" fill="#000000">&lt; 3</text>
<polygon fill="#ffffff" stroke="transparent" points="677.5,-736.7907 677.5,-755.7907 742.5,-755.7907 742.5,-736.7907 677.5,-736.7907"/>
<polygon fill="none" stroke="#000000" points="677.5,-736.7907 677.5,-755.7907 742.5,-755.7907 742.5,-736.7907 677.5,-736.7907"/>
<text text-anchor="start" x="707.1105" y="-742.8907" font-family="Helvetica,sans-Serif" font-size="11.00" fill="#000000">0 rows</text>
<polygon fill="#ffffff" stroke="transparent" points="742.5,-736.7907 742.5,-755.7907 782.5,-755.7907 782.5,-736.7907 742.5,-736.7907"/>
<polygon fill="none" stroke="#000000" points="742.5,-736.7907 742.5,-755.7907 782.5,-755.7907 782.5,-736.7907 742.5,-736.7907"/>
<text text-anchor="start" x="773.3862" y="-742.8907" font-family="Helvetica,sans-Serif" font-size="11.00" fill="#000000"> &#160;</text>
</a>
</g>
</g>
<!-- oms.order_requirements&#45;&gt;users -->
<g id="edge7" class="edge">
<title>oms.order_requirements:w&#45;&gt;users:e</title>
<path fill="none" stroke="#000000" d="M588.2423,-810.5439C558.2451,-825.015 593.3549,-892.601 553,-918.7907 516.3709,-942.5623 192.2734,-948.2051 160,-918.7907 88.0826,-853.2441 216.806,-482.7907 119.5,-482.7907"/>
<polygon fill="#000000" stroke="#000000" points="594.6451,-809.3075 603.1826,-811.3253 598.5726,-808.5491 602.5,-807.7907 602.5,-807.7907 602.5,-807.7907 598.5726,-808.5491 601.8174,-804.256 594.6451,-809.3075 594.6451,-809.3075"/>
<ellipse fill="none" stroke="#000000" cx="591.5032" cy="-809.9143" rx="3.2" ry="3.2"/>
</g>
<!-- oms.order_requirements&#45;&gt;users -->
<g id="edge9" class="edge">
<title>oms.order_requirements:w&#45;&gt;users:e</title>
<path fill="none" stroke="#000000" d="M588.3386,-788.5201C558.5102,-802.8661 593.0957,-869.8653 553,-895.7907 509.5195,-923.9045 367.6521,-916.0445 320,-895.7907 225.6956,-855.7079 205.9274,-821.391 160,-729.7907 135.0699,-680.0686 175.1218,-482.7907 119.5,-482.7907"/>
<polygon fill="#000000" stroke="#000000" points="594.6446,-787.3047 603.1813,-789.3256 598.5723,-786.5477 602.5,-785.7907 602.5,-785.7907 602.5,-785.7907 598.5723,-786.5477 601.8187,-782.2557 594.6446,-787.3047 594.6446,-787.3047"/>
<ellipse fill="none" stroke="#000000" cx="591.5024" cy="-787.9104" rx="3.2" ry="3.2"/>
</g>
<!-- oms.order_requirements&#45;&gt;orders -->
<g id="edge8" class="edge">
<title>oms.order_requirements:w&#45;&gt;orders:e</title>
<path fill="none" stroke="#000000" d="M588.2431,-831.824C572.3903,-836.7255 565.4526,-848.7907 543.5,-848.7907"/>
<polygon fill="#000000" stroke="#000000" points="594.5801,-830.9202 603.0083,-833.3546 598.5401,-830.3554 602.5,-829.7907 602.5,-829.7907 602.5,-829.7907 598.5401,-830.3554 601.9917,-826.2267 594.5801,-830.9202 594.5801,-830.9202"/>
<ellipse fill="none" stroke="#000000" cx="591.4122" cy="-831.3721" rx="3.2" ry="3.2"/>
</g>
<!-- customers&#45;&gt;users -->
<g id="edge10" class="edge">
<title>customers:w&#45;&gt;users:e</title>
<path fill="none" stroke="#000000" d="M153.9835,-615.4288C117.8941,-594.486 177.7247,-482.7907 119.5,-482.7907"/>
<polygon fill="#000000" stroke="#000000" points="160.7063,-616.9857 167.6878,-622.2978 164.6031,-617.8882 168.5,-618.7907 168.5,-618.7907 168.5,-618.7907 164.6031,-617.8882 169.3122,-615.2835 160.7063,-616.9857 160.7063,-616.9857"/>
<ellipse fill="none" stroke="#000000" cx="157.5888" cy="-616.2637" rx="3.2" ry="3.2"/>
</g>
<!-- customers&#45;&gt;users -->
<g id="edge11" class="edge">
<title>customers:w&#45;&gt;users:e</title>
<path fill="none" stroke="#000000" d="M154.2787,-592.9977C125.3671,-573.2169 168.6168,-482.7907 119.5,-482.7907"/>
<polygon fill="#000000" stroke="#000000" points="160.7702,-594.729 167.5723,-600.2691 164.6351,-595.7598 168.5,-596.7907 168.5,-596.7907 168.5,-596.7907 164.6351,-595.7598 169.4277,-593.3122 160.7702,-594.729 160.7702,-594.729"/>
<ellipse fill="none" stroke="#000000" cx="157.6783" cy="-593.9043" rx="3.2" ry="3.2"/>
</g>
<!-- order_detail -->
<g id="node7" class="node">
<title>order_detail</title>
<g id="a_node7"><a xlink:href="../../tables/order_detail.html" xlink:title="order_detail" target="_top">
<polygon fill="#ffffff" stroke="transparent" points="631,-67.2907 631,-238.2907 754,-238.2907 754,-67.2907 631,-67.2907"/>
<polygon fill="#f5f5f5" stroke="transparent" points="631.5,-214.7907 631.5,-237.7907 754.5,-237.7907 754.5,-214.7907 631.5,-214.7907"/>
<polygon fill="none" stroke="#000000" points="631.5,-214.7907 631.5,-237.7907 754.5,-237.7907 754.5,-214.7907 631.5,-214.7907"/>
<text text-anchor="start" x="636.5" y="-223.3907" font-family="Helvetica,sans-Serif" font-weight="bold" font-size="11.00" fill="#000000">order_detail</text>
<text text-anchor="start" x="719.5437" y="-222.8907" font-family="Helvetica,sans-Serif" font-size="11.00" fill="#000000">[table]</text>
<polygon fill="none" stroke="#000000" points="631.5,-192.7907 631.5,-214.7907 754.5,-214.7907 754.5,-192.7907 631.5,-192.7907"/>
<image xlink:href="../../images/primaryKeys.png" width="11px" height="12px" preserveAspectRatio="xMinYMin meet" x="636.5" y="-209.791"/>
<text text-anchor="start" x="651.5" y="-199.8907" font-family="Helvetica,sans-Serif" font-size="11.00" fill="#000000">id</text>
<polygon fill="#ffffff" stroke="transparent" points="631.5,-170.7907 631.5,-192.7907 754.5,-192.7907 754.5,-170.7907 631.5,-170.7907"/>
<polygon fill="none" stroke="#000000" points="631.5,-170.7907 631.5,-192.7907 754.5,-192.7907 754.5,-170.7907 631.5,-170.7907"/>
<image xlink:href="../../images/foreignKeys.png" width="11px" height="12px" preserveAspectRatio="xMinYMin meet" x="636.5" y="-187.791"/>
<text text-anchor="start" x="651.5" y="-177.8907" font-family="Helvetica,sans-Serif" font-size="11.00" fill="#000000">order_id</text>
<polygon fill="#ffffff" stroke="transparent" points="631.5,-148.7907 631.5,-170.7907 754.5,-170.7907 754.5,-148.7907 631.5,-148.7907"/>
<polygon fill="none" stroke="#000000" points="631.5,-148.7907 631.5,-170.7907 754.5,-170.7907 754.5,-148.7907 631.5,-148.7907"/>
<image xlink:href="../../images/foreignKeys.png" width="11px" height="12px" preserveAspectRatio="xMinYMin meet" x="636.5" y="-165.791"/>
<text text-anchor="start" x="651.5" y="-155.8907" font-family="Helvetica,sans-Serif" font-size="11.00" fill="#000000">detail_id</text>
<polygon fill="none" stroke="#000000" points="631.5,-126.7907 631.5,-148.7907 754.5,-148.7907 754.5,-126.7907 631.5,-126.7907"/>
<image xlink:href="../../images/foreignKeys.png" width="11px" height="12px" preserveAspectRatio="xMinYMin meet" x="636.5" y="-143.791"/>
<text text-anchor="start" x="651.5" y="-133.8907" font-family="Helvetica,sans-Serif" font-size="11.00" fill="#000000">created_by</text>
<polygon fill="none" stroke="#000000" points="631.5,-104.7907 631.5,-126.7907 754.5,-126.7907 754.5,-104.7907 631.5,-104.7907"/>
<image xlink:href="../../images/foreignKeys.png" width="11px" height="12px" preserveAspectRatio="xMinYMin meet" x="636.5" y="-121.791"/>
<text text-anchor="start" x="651.5" y="-111.8907" font-family="Helvetica,sans-Serif" font-size="11.00" fill="#000000">updated_by</text>
<polygon fill="none" stroke="#000000" points="631.5,-85.7907 631.5,-104.7907 754.5,-104.7907 754.5,-85.7907 631.5,-85.7907"/>
<text text-anchor="start" x="634.5" y="-91.8907" font-family="Helvetica,sans-Serif" font-size="11.00" fill="#000000">...</text>
<polygon fill="#ffffff" stroke="transparent" points="631.5,-66.7907 631.5,-85.7907 670.5,-85.7907 670.5,-66.7907 631.5,-66.7907"/>
<polygon fill="none" stroke="#000000" points="631.5,-66.7907 631.5,-85.7907 670.5,-85.7907 670.5,-66.7907 631.5,-66.7907"/>
<text text-anchor="start" x="634.5" y="-72.8907" font-family="Helvetica,sans-Serif" font-size="11.00" fill="#000000">&lt; 4</text>
<polygon fill="#ffffff" stroke="transparent" points="670.5,-66.7907 670.5,-85.7907 723.5,-85.7907 723.5,-66.7907 670.5,-66.7907"/>
<polygon fill="none" stroke="#000000" points="670.5,-66.7907 670.5,-85.7907 723.5,-85.7907 723.5,-66.7907 670.5,-66.7907"/>
<text text-anchor="start" x="681.9956" y="-72.8907" font-family="Helvetica,sans-Serif" font-size="11.00" fill="#000000">10 rows</text>
<polygon fill="#ffffff" stroke="transparent" points="723.5,-66.7907 723.5,-85.7907 754.5,-85.7907 754.5,-66.7907 723.5,-66.7907"/>
<polygon fill="none" stroke="#000000" points="723.5,-66.7907 723.5,-85.7907 754.5,-85.7907 754.5,-66.7907 723.5,-66.7907"/>
<text text-anchor="start" x="735.9053" y="-72.8907" font-family="Helvetica,sans-Serif" font-size="11.00" fill="#000000">3 &gt;</text>
</a>
</g>
</g>
<!-- order_detail&#45;&gt;users -->
<g id="edge12" class="edge">
<title>order_detail:w&#45;&gt;users:e</title>
<path fill="none" stroke="#000000" d="M616.8056,-138.6211C592.5388,-141.5874 582.8169,-151.8513 553,-158.7907 379.5615,-199.1553 283.838,-108.8282 160,-236.7907 121.4713,-276.6025 174.9026,-482.7907 119.5,-482.7907"/>
<polygon fill="#000000" stroke="#000000" points="623.5127,-138.2421 631.7032,-141.3849 627.5064,-138.0164 631.5,-137.7907 631.5,-137.7907 631.5,-137.7907 627.5064,-138.0164 631.2968,-134.1964 623.5127,-138.2421 623.5127,-138.2421"/>
<ellipse fill="none" stroke="#000000" cx="620.3178" cy="-138.4227" rx="3.2" ry="3.2"/>
</g>
<!-- order_detail&#45;&gt;users -->
<g id="edge14" class="edge">
<title>order_detail:w&#45;&gt;users:e</title>
<path fill="none" stroke="#000000" d="M616.8502,-115.6332C415.6314,-111.3203 307.1569,-20.9979 160,-164.7907 109.0485,-214.5774 190.7375,-482.7907 119.5,-482.7907"/>
<polygon fill="#000000" stroke="#000000" points="623.5005,-115.7046 631.4613,-119.3904 627.5002,-115.7476 631.5,-115.7907 631.5,-115.7907 631.5,-115.7907 627.5002,-115.7476 631.5387,-112.1909 623.5005,-115.7046 623.5005,-115.7046"/>
<ellipse fill="none" stroke="#000000" cx="620.3006" cy="-115.6702" rx="3.2" ry="3.2"/>
</g>
<!-- order_detail&#45;&gt;orders -->
<g id="edge13" class="edge">
<title>order_detail:w&#45;&gt;orders:e</title>
<path fill="none" stroke="#000000" d="M617.2311,-184.0849C595.8747,-192.1248 595.946,-220.0945 586,-248.7907 564.113,-311.9389 610.3337,-848.7907 543.5,-848.7907"/>
<polygon fill="#000000" stroke="#000000" points="623.6014,-183.0607 632.0715,-185.345 627.5507,-182.4257 631.5,-181.7907 631.5,-181.7907 631.5,-181.7907 627.5507,-182.4257 630.9285,-178.2363 623.6014,-183.0607 623.6014,-183.0607"/>
<ellipse fill="none" stroke="#000000" cx="620.442" cy="-183.5687" rx="3.2" ry="3.2"/>
</g>
<!-- tms.containers -->
<g id="node8" class="node">
<title>tms.containers</title>
<g id="a_node8"><a xlink:href="../../../tms/tables/containers.html" xlink:title="tms.containers" target="_top">
<polygon fill="#ffffff" stroke="transparent" points="630.5,-473.2907 630.5,-622.2907 754.5,-622.2907 754.5,-473.2907 630.5,-473.2907"/>
<polygon fill="#f5f5f5" stroke="transparent" points="630.5,-598.7907 630.5,-621.7907 754.5,-621.7907 754.5,-598.7907 630.5,-598.7907"/>
<polygon fill="none" stroke="#000000" points="630.5,-598.7907 630.5,-621.7907 754.5,-621.7907 754.5,-598.7907 630.5,-598.7907"/>
<text text-anchor="start" x="635.5" y="-607.3907" font-family="Helvetica,sans-Serif" font-weight="bold" font-size="11.00" fill="#000000">tms.containers</text>
<text text-anchor="start" x="720.0219" y="-606.8907" font-family="Helvetica,sans-Serif" font-size="11.00" fill="#000000">[table]</text>
<polygon fill="none" stroke="#000000" points="630.5,-576.7907 630.5,-598.7907 754.5,-598.7907 754.5,-576.7907 630.5,-576.7907"/>
<image xlink:href="../../images/foreignKeys.png" width="11px" height="12px" preserveAspectRatio="xMinYMin meet" x="635.5" y="-593.791"/>
<text text-anchor="start" x="666.5" y="-583.8907" font-family="Helvetica,sans-Serif" font-size="11.00" fill="#000000">created_by</text>
<polygon fill="none" stroke="#000000" points="630.5,-554.7907 630.5,-576.7907 754.5,-576.7907 754.5,-554.7907 630.5,-554.7907"/>
<image xlink:href="../../images/foreignKeys.png" width="11px" height="12px" preserveAspectRatio="xMinYMin meet" x="635.5" y="-571.791"/>
<text text-anchor="start" x="666.5" y="-561.8907" font-family="Helvetica,sans-Serif" font-size="11.00" fill="#000000">updated_by</text>
<polygon fill="none" stroke="#000000" points="630.5,-532.7907 630.5,-554.7907 754.5,-554.7907 754.5,-532.7907 630.5,-532.7907"/>
<image xlink:href="../../images/foreignKeys.png" width="11px" height="12px" preserveAspectRatio="xMinYMin meet" x="635.5" y="-549.791"/>
<text text-anchor="start" x="666.5" y="-539.8907" font-family="Helvetica,sans-Serif" font-size="11.00" fill="#000000">order_id</text>
<polygon fill="none" stroke="#000000" points="630.5,-510.7907 630.5,-532.7907 754.5,-532.7907 754.5,-510.7907 630.5,-510.7907"/>
<image xlink:href="../../images/foreignKeys.png" width="11px" height="12px" preserveAspectRatio="xMinYMin meet" x="635.5" y="-527.791"/>
<text text-anchor="start" x="666.5" y="-517.8907" font-family="Helvetica,sans-Serif" font-size="11.00" fill="#000000">trailer_id</text>
<polygon fill="none" stroke="#000000" points="630.5,-491.7907 630.5,-510.7907 754.5,-510.7907 754.5,-491.7907 630.5,-491.7907"/>
<text text-anchor="start" x="633.5" y="-497.8907" font-family="Helvetica,sans-Serif" font-size="11.00" fill="#000000">...</text>
<polygon fill="#ffffff" stroke="transparent" points="630.5,-472.7907 630.5,-491.7907 677.5,-491.7907 677.5,-472.7907 630.5,-472.7907"/>
<polygon fill="none" stroke="#000000" points="630.5,-472.7907 630.5,-491.7907 677.5,-491.7907 677.5,-472.7907 630.5,-472.7907"/>
<text text-anchor="start" x="633.5" y="-478.8907" font-family="Helvetica,sans-Serif" font-size="11.00" fill="#000000">&lt; 4</text>
<polygon fill="#ffffff" stroke="transparent" points="677.5,-472.7907 677.5,-491.7907 728.5,-491.7907 728.5,-472.7907 677.5,-472.7907"/>
<polygon fill="none" stroke="#000000" points="677.5,-472.7907 677.5,-491.7907 728.5,-491.7907 728.5,-472.7907 677.5,-472.7907"/>
<text text-anchor="start" x="693.1105" y="-478.8907" font-family="Helvetica,sans-Serif" font-size="11.00" fill="#000000">0 rows</text>
<polygon fill="#ffffff" stroke="transparent" points="728.5,-472.7907 728.5,-491.7907 754.5,-491.7907 754.5,-472.7907 728.5,-472.7907"/>
<polygon fill="none" stroke="#000000" points="728.5,-472.7907 728.5,-491.7907 754.5,-491.7907 754.5,-472.7907 728.5,-472.7907"/>
<text text-anchor="start" x="745.3862" y="-478.8907" font-family="Helvetica,sans-Serif" font-size="11.00" fill="#000000"> &#160;</text>
</a>
</g>
</g>
<!-- tms.containers&#45;&gt;users -->
<g id="edge19" class="edge">
<title>tms.containers:w&#45;&gt;users:e</title>
<path fill="none" stroke="#000000" d="M616.1393,-586.3032C553.4128,-571.6917 620.9334,-453.4054 553,-408.7907 516.5008,-384.8201 197.5647,-386.527 160,-408.7907 127.7468,-427.9063 156.9924,-482.7907 119.5,-482.7907"/>
<polygon fill="#000000" stroke="#000000" points="622.5426,-586.9664 630.1291,-591.3715 626.5213,-587.3785 630.5,-587.7907 630.5,-587.7907 630.5,-587.7907 626.5213,-587.3785 630.8709,-584.2098 622.5426,-586.9664 622.5426,-586.9664"/>
<ellipse fill="none" stroke="#000000" cx="619.3596" cy="-586.6367" rx="3.2" ry="3.2"/>
</g>
<!-- tms.containers&#45;&gt;users -->
<g id="edge21" class="edge">
<title>tms.containers:w&#45;&gt;users:e</title>
<path fill="none" stroke="#000000" d="M617.0483,-559.8902C587.2434,-531.4089 584.8563,-408.6654 553,-387.7907 479.9517,-339.9236 232.7496,-341.4708 160,-389.7907 122.4462,-414.7337 164.5826,-482.7907 119.5,-482.7907"/>
<polygon fill="#000000" stroke="#000000" points="623.1738,-562.5771 629.0539,-569.0874 626.8369,-564.1839 630.5,-565.7907 630.5,-565.7907 630.5,-565.7907 626.8369,-564.1839 631.9461,-562.4939 623.1738,-562.5771 623.1738,-562.5771"/>
<ellipse fill="none" stroke="#000000" cx="620.2433" cy="-561.2916" rx="3.2" ry="3.2"/>
</g>
<!-- tms.containers&#45;&gt;orders -->
<g id="edge20" class="edge">
<title>tms.containers:w&#45;&gt;orders:e</title>
<path fill="none" stroke="#000000" d="M616.0824,-545.5439C576.6211,-556.6274 601.2,-618.1595 586,-669.7907 574.454,-709.01 584.3836,-848.7907 543.5,-848.7907"/>
<polygon fill="#000000" stroke="#000000" points="622.5585,-544.7564 630.9346,-547.3643 626.5293,-544.2735 630.5,-543.7907 630.5,-543.7907 630.5,-543.7907 626.5293,-544.2735 630.0654,-540.217 622.5585,-544.7564 622.5585,-544.7564"/>
<ellipse fill="none" stroke="#000000" cx="619.3819" cy="-545.1427" rx="3.2" ry="3.2"/>
</g>
<!-- wms.inbound_receipt -->
<g id="node9" class="node">
<title>wms.inbound_receipt</title>
<g id="a_node9"><a xlink:href="../../../wms/tables/inbound_receipt.html" xlink:title="wms.inbound_receipt" target="_top">
<polygon fill="#ffffff" stroke="transparent" points="611.5,-259.2907 611.5,-452.2907 773.5,-452.2907 773.5,-259.2907 611.5,-259.2907"/>
<polygon fill="#f5f5f5" stroke="transparent" points="611.5,-428.7907 611.5,-451.7907 773.5,-451.7907 773.5,-428.7907 611.5,-428.7907"/>
<polygon fill="none" stroke="#000000" points="611.5,-428.7907 611.5,-451.7907 773.5,-451.7907 773.5,-428.7907 611.5,-428.7907"/>
<text text-anchor="start" x="616.5" y="-437.3907" font-family="Helvetica,sans-Serif" font-weight="bold" font-size="11.00" fill="#000000">wms.inbound_receipt</text>
<text text-anchor="start" x="739.0219" y="-436.8907" font-family="Helvetica,sans-Serif" font-size="11.00" fill="#000000">[table]</text>
<polygon fill="none" stroke="#000000" points="611.5,-406.7907 611.5,-428.7907 773.5,-428.7907 773.5,-406.7907 611.5,-406.7907"/>
<image xlink:href="../../images/foreignKeys.png" width="11px" height="12px" preserveAspectRatio="xMinYMin meet" x="616.5" y="-423.791"/>
<text text-anchor="start" x="640.5" y="-413.8907" font-family="Helvetica,sans-Serif" font-size="11.00" fill="#000000">order_id</text>
<polygon fill="none" stroke="#000000" points="611.5,-384.7907 611.5,-406.7907 773.5,-406.7907 773.5,-384.7907 611.5,-384.7907"/>
<image xlink:href="../../images/foreignKeys.png" width="11px" height="12px" preserveAspectRatio="xMinYMin meet" x="616.5" y="-401.791"/>
<text text-anchor="start" x="640.5" y="-391.8907" font-family="Helvetica,sans-Serif" font-size="11.00" fill="#000000">received_by</text>
<polygon fill="none" stroke="#000000" points="611.5,-362.7907 611.5,-384.7907 773.5,-384.7907 773.5,-362.7907 611.5,-362.7907"/>
<image xlink:href="../../images/foreignKeys.png" width="11px" height="12px" preserveAspectRatio="xMinYMin meet" x="616.5" y="-379.791"/>
<text text-anchor="start" x="640.5" y="-369.8907" font-family="Helvetica,sans-Serif" font-size="11.00" fill="#000000">warehouse_id</text>
<polygon fill="none" stroke="#000000" points="611.5,-340.7907 611.5,-362.7907 773.5,-362.7907 773.5,-340.7907 611.5,-340.7907"/>
<image xlink:href="../../images/foreignKeys.png" width="11px" height="12px" preserveAspectRatio="xMinYMin meet" x="616.5" y="-357.791"/>
<text text-anchor="start" x="640.5" y="-347.8907" font-family="Helvetica,sans-Serif" font-size="11.00" fill="#000000">created_by</text>
<polygon fill="none" stroke="#000000" points="611.5,-318.7907 611.5,-340.7907 773.5,-340.7907 773.5,-318.7907 611.5,-318.7907"/>
<image xlink:href="../../images/foreignKeys.png" width="11px" height="12px" preserveAspectRatio="xMinYMin meet" x="616.5" y="-335.791"/>
<text text-anchor="start" x="640.5" y="-325.8907" font-family="Helvetica,sans-Serif" font-size="11.00" fill="#000000">updated_by</text>
<polygon fill="none" stroke="#000000" points="611.5,-296.7907 611.5,-318.7907 773.5,-318.7907 773.5,-296.7907 611.5,-296.7907"/>
<image xlink:href="../../images/foreignKeys.png" width="11px" height="12px" preserveAspectRatio="xMinYMin meet" x="616.5" y="-313.791"/>
<text text-anchor="start" x="640.5" y="-303.8907" font-family="Helvetica,sans-Serif" font-size="11.00" fill="#000000">unload_method_code</text>
<polygon fill="none" stroke="#000000" points="611.5,-277.7907 611.5,-296.7907 773.5,-296.7907 773.5,-277.7907 611.5,-277.7907"/>
<text text-anchor="start" x="614.5" y="-283.8907" font-family="Helvetica,sans-Serif" font-size="11.00" fill="#000000">...</text>
<polygon fill="#ffffff" stroke="transparent" points="611.5,-258.7907 611.5,-277.7907 677.5,-277.7907 677.5,-258.7907 611.5,-258.7907"/>
<polygon fill="none" stroke="#000000" points="611.5,-258.7907 611.5,-277.7907 677.5,-277.7907 677.5,-258.7907 611.5,-258.7907"/>
<text text-anchor="start" x="614.5" y="-264.8907" font-family="Helvetica,sans-Serif" font-size="11.00" fill="#000000">&lt; 6</text>
<polygon fill="#ffffff" stroke="transparent" points="677.5,-258.7907 677.5,-277.7907 738.5,-277.7907 738.5,-258.7907 677.5,-258.7907"/>
<polygon fill="none" stroke="#000000" points="677.5,-258.7907 677.5,-277.7907 738.5,-277.7907 738.5,-258.7907 677.5,-258.7907"/>
<text text-anchor="start" x="703.1105" y="-264.8907" font-family="Helvetica,sans-Serif" font-size="11.00" fill="#000000">0 rows</text>
<polygon fill="#ffffff" stroke="transparent" points="738.5,-258.7907 738.5,-277.7907 773.5,-277.7907 773.5,-258.7907 738.5,-258.7907"/>
<polygon fill="none" stroke="#000000" points="738.5,-258.7907 738.5,-277.7907 773.5,-277.7907 773.5,-258.7907 738.5,-258.7907"/>
<text text-anchor="start" x="764.3862" y="-264.8907" font-family="Helvetica,sans-Serif" font-size="11.00" fill="#000000"> &#160;</text>
</a>
</g>
</g>
<!-- wms.inbound_receipt&#45;&gt;users -->
<g id="edge22" class="edge">
<title>wms.inbound_receipt:w&#45;&gt;users:e</title>
<path fill="none" stroke="#000000" d="M597.0844,-349.7584C581.2284,-344.7907 574.9716,-332.1225 553,-327.7907 467.3161,-310.8976 229.1204,-274.4102 160,-327.7907 103.6471,-371.311 190.7017,-482.7907 119.5,-482.7907"/>
<polygon fill="#000000" stroke="#000000" points="603.5783,-350.6738 610.9974,-355.3554 607.5392,-351.2322 611.5,-351.7907 611.5,-351.7907 611.5,-351.7907 607.5392,-351.2322 612.0026,-348.2259 603.5783,-350.6738 603.5783,-350.6738"/>
<ellipse fill="none" stroke="#000000" cx="600.4097" cy="-350.2271" rx="3.2" ry="3.2"/>
</g>
<!-- wms.inbound_receipt&#45;&gt;users -->
<g id="edge24" class="edge">
<title>wms.inbound_receipt:w&#45;&gt;users:e</title>
<path fill="none" stroke="#000000" d="M597.1526,-392.9409C579.9062,-384.982 577.7193,-362.5905 553,-354.7907 469.7144,-328.5109 230.4555,-303.1851 160,-354.7907 111.8628,-390.0491 179.1686,-482.7907 119.5,-482.7907"/>
<polygon fill="#000000" stroke="#000000" points="603.6533,-394.2321 610.7986,-399.3217 607.5766,-395.0114 611.5,-395.7907 611.5,-395.7907 611.5,-395.7907 607.5766,-395.0114 612.2014,-392.2596 603.6533,-394.2321 603.6533,-394.2321"/>
<ellipse fill="none" stroke="#000000" cx="600.5146" cy="-393.6086" rx="3.2" ry="3.2"/>
</g>
<!-- wms.inbound_receipt&#45;&gt;users -->
<g id="edge25" class="edge">
<title>wms.inbound_receipt:w&#45;&gt;users:e</title>
<path fill="none" stroke="#000000" d="M597.077,-327.2813C580.7155,-320.8185 576.1045,-303.6969 553,-297.7907 383.775,-254.5314 296.075,-188.2825 160,-297.7907 94.4274,-350.5611 203.6694,-482.7907 119.5,-482.7907"/>
<polygon fill="#000000" stroke="#000000" points="603.6184,-328.4193 610.8829,-333.3374 607.5592,-329.105 611.5,-329.7907 611.5,-329.7907 611.5,-329.7907 607.5592,-329.105 612.1171,-326.2439 603.6184,-328.4193 603.6184,-328.4193"/>
<ellipse fill="none" stroke="#000000" cx="600.4658" cy="-327.8708" rx="3.2" ry="3.2"/>
</g>
<!-- wms.inbound_receipt&#45;&gt;orders -->
<g id="edge23" class="edge">
<title>wms.inbound_receipt:w&#45;&gt;orders:e</title>
<path fill="none" stroke="#000000" d="M597.519,-421.5167C527.6439,-463.6423 635.1599,-848.7907 543.5,-848.7907"/>
<polygon fill="#000000" stroke="#000000" points="603.7698,-419.8508 612.4271,-421.2692 607.6349,-418.8207 611.5,-417.7907 611.5,-417.7907 611.5,-417.7907 607.6349,-418.8207 610.5729,-414.3121 603.7698,-419.8508 603.7698,-419.8508"/>
<ellipse fill="none" stroke="#000000" cx="600.6777" cy="-420.6749" rx="3.2" ry="3.2"/>
</g>
<!-- wms.inventory_lots -->
<g id="node10" class="node">
<title>wms.inventory_lots</title>
<g id="a_node10"><a xlink:href="../../../wms/tables/inventory_lots.html" xlink:title="wms.inventory_lots" target="_top">
<polygon fill="#ffffff" stroke="transparent" points="873.5,-598.2907 873.5,-769.2907 1024.5,-769.2907 1024.5,-598.2907 873.5,-598.2907"/>
<polygon fill="#f5f5f5" stroke="transparent" points="874,-745.7907 874,-768.7907 1025,-768.7907 1025,-745.7907 874,-745.7907"/>
<polygon fill="none" stroke="#000000" points="874,-745.7907 874,-768.7907 1025,-768.7907 1025,-745.7907 874,-745.7907"/>
<text text-anchor="start" x="879" y="-754.3907" font-family="Helvetica,sans-Serif" font-weight="bold" font-size="11.00" fill="#000000">wms.inventory_lots</text>
<text text-anchor="start" x="990.5219" y="-753.8907" font-family="Helvetica,sans-Serif" font-size="11.00" fill="#000000">[table]</text>
<polygon fill="none" stroke="#000000" points="874,-723.7907 874,-745.7907 1025,-745.7907 1025,-723.7907 874,-723.7907"/>
<image xlink:href="../../images/foreignKeys.png" width="11px" height="12px" preserveAspectRatio="xMinYMin meet" x="879" y="-740.791"/>
<text text-anchor="start" x="894" y="-730.8907" font-family="Helvetica,sans-Serif" font-size="11.00" fill="#000000">warehouse_id</text>
<polygon fill="none" stroke="#000000" points="874,-701.7907 874,-723.7907 1025,-723.7907 1025,-701.7907 874,-701.7907"/>
<image xlink:href="../../images/foreignKeys.png" width="11px" height="12px" preserveAspectRatio="xMinYMin meet" x="879" y="-718.791"/>
<text text-anchor="start" x="894" y="-708.8907" font-family="Helvetica,sans-Serif" font-size="11.00" fill="#000000">order_id</text>
<polygon fill="none" stroke="#000000" points="874,-679.7907 874,-701.7907 1025,-701.7907 1025,-679.7907 874,-679.7907"/>
<image xlink:href="../../images/foreignKeys.png" width="11px" height="12px" preserveAspectRatio="xMinYMin meet" x="879" y="-696.791"/>
<text text-anchor="start" x="894" y="-686.8907" font-family="Helvetica,sans-Serif" font-size="11.00" fill="#000000">order_detail_id</text>
<polygon fill="none" stroke="#000000" points="874,-657.7907 874,-679.7907 1025,-679.7907 1025,-657.7907 874,-657.7907"/>
<image xlink:href="../../images/foreignKeys.png" width="11px" height="12px" preserveAspectRatio="xMinYMin meet" x="879" y="-674.791"/>
<text text-anchor="start" x="894" y="-664.8907" font-family="Helvetica,sans-Serif" font-size="11.00" fill="#000000">created_by</text>
<polygon fill="none" stroke="#000000" points="874,-635.7907 874,-657.7907 1025,-657.7907 1025,-635.7907 874,-635.7907"/>
<image xlink:href="../../images/foreignKeys.png" width="11px" height="12px" preserveAspectRatio="xMinYMin meet" x="879" y="-652.791"/>
<text text-anchor="start" x="894" y="-642.8907" font-family="Helvetica,sans-Serif" font-size="11.00" fill="#000000">updated_by</text>
<polygon fill="none" stroke="#000000" points="874,-616.7907 874,-635.7907 1025,-635.7907 1025,-616.7907 874,-616.7907"/>
<text text-anchor="start" x="877" y="-622.8907" font-family="Helvetica,sans-Serif" font-size="11.00" fill="#000000">...</text>
<polygon fill="#ffffff" stroke="transparent" points="874,-597.7907 874,-616.7907 935,-616.7907 935,-597.7907 874,-597.7907"/>
<polygon fill="none" stroke="#000000" points="874,-597.7907 874,-616.7907 935,-616.7907 935,-597.7907 874,-597.7907"/>
<text text-anchor="start" x="877" y="-603.8907" font-family="Helvetica,sans-Serif" font-size="11.00" fill="#000000">&lt; 5</text>
<polygon fill="#ffffff" stroke="transparent" points="935,-597.7907 935,-616.7907 993,-616.7907 993,-597.7907 935,-597.7907"/>
<polygon fill="none" stroke="#000000" points="935,-597.7907 935,-616.7907 993,-616.7907 993,-597.7907 935,-597.7907"/>
<text text-anchor="start" x="957.6105" y="-603.8907" font-family="Helvetica,sans-Serif" font-size="11.00" fill="#000000">0 rows</text>
<polygon fill="#ffffff" stroke="transparent" points="993,-597.7907 993,-616.7907 1025,-616.7907 1025,-597.7907 993,-597.7907"/>
<polygon fill="none" stroke="#000000" points="993,-597.7907 993,-616.7907 1025,-616.7907 1025,-597.7907 993,-597.7907"/>
<text text-anchor="start" x="1015.8862" y="-603.8907" font-family="Helvetica,sans-Serif" font-size="11.00" fill="#000000"> &#160;</text>
</a>
</g>
</g>
<!-- wms.inventory_lots&#45;&gt;users -->
<g id="edge26" class="edge">
<title>wms.inventory_lots:w&#45;&gt;users:e</title>
<path fill="none" stroke="#000000" d="M859.5855,-669.5646C726.4109,-684.9237 919.9247,-924.8014 799,-1022.7907 754.1742,-1059.1144 213.5033,-1049.3565 160,-996.7907 119.1348,-956.6414 176.7881,-482.7907 119.5,-482.7907"/>
<polygon fill="#000000" stroke="#000000" points="866.0115,-669.2196 874.193,-672.3855 870.0058,-669.0051 874,-668.7907 874,-668.7907 874,-668.7907 870.0058,-669.0051 873.807,-665.1958 866.0115,-669.2196 866.0115,-669.2196"/>
<ellipse fill="none" stroke="#000000" cx="862.8161" cy="-669.3912" rx="3.2" ry="3.2"/>
</g>
<!-- wms.inventory_lots&#45;&gt;users -->
<g id="edge29" class="edge">
<title>wms.inventory_lots:w&#45;&gt;users:e</title>
<path fill="none" stroke="#000000" d="M859.2695,-647.1033C740.787,-652.1191 677.9352,-714.7215 586,-632.7907 518.7419,-572.8515 621.6938,-491.0788 553,-432.7907 486.0816,-376.009 244.9872,-449.8954 160,-471.7907 141.9377,-476.4441 138.1521,-482.7907 119.5,-482.7907"/>
<polygon fill="#000000" stroke="#000000" points="866.0018,-646.9605 874.0764,-650.3898 870.0009,-646.8756 874,-646.7907 874,-646.7907 874,-646.7907 870.0009,-646.8756 873.9236,-643.1915 866.0018,-646.9605 866.0018,-646.9605"/>
<ellipse fill="none" stroke="#000000" cx="862.8025" cy="-647.0284" rx="3.2" ry="3.2"/>
</g>
<!-- wms.inventory_lots&#45;&gt;orders -->
<g id="edge28" class="edge">
<title>wms.inventory_lots:w&#45;&gt;orders:e</title>
<path fill="none" stroke="#000000" d="M859.4114,-712.4768C786.8923,-709.7517 633.8073,-691.0414 586,-726.7907 540.0165,-761.1761 600.9181,-848.7907 543.5,-848.7907"/>
<polygon fill="#000000" stroke="#000000" points="866.0019,-712.6185 873.9225,-716.3898 870.0009,-712.7046 874,-712.7907 874,-712.7907 874,-712.7907 870.0009,-712.7046 874.0775,-709.1915 866.0019,-712.6185 866.0019,-712.6185"/>
<ellipse fill="none" stroke="#000000" cx="862.8026" cy="-712.5497" rx="3.2" ry="3.2"/>
</g>
<!-- wms.inventory_lots&#45;&gt;order_detail -->
<g id="edge27" class="edge">
<title>wms.inventory_lots:w&#45;&gt;order_detail:e</title>
<path fill="none" stroke="#000000" d="M859.6129,-687.9333C781.4453,-654.2589 842.0718,-332.7608 799,-248.7907 786.1625,-223.7635 782.6276,-203.7907 754.5,-203.7907"/>
<polygon fill="#000000" stroke="#000000" points="866.1533,-689.2322 873.2987,-694.3217 870.0766,-690.0114 874,-690.7907 874,-690.7907 874,-690.7907 870.0766,-690.0114 874.7013,-687.2596 866.1533,-689.2322 866.1533,-689.2322"/>
<ellipse fill="none" stroke="#000000" cx="863.0146" cy="-688.6088" rx="3.2" ry="3.2"/>
</g>
<!-- wms.outbound_shipment_lines -->
<g id="node11" class="node">
<title>wms.outbound_shipment_lines</title>
<g id="a_node11"><a xlink:href="../../../wms/tables/outbound_shipment_lines.html" xlink:title="wms.outbound_shipment_lines" target="_top">
<polygon fill="#ffffff" stroke="transparent" points="840,-41.2907 840,-190.2907 1058,-190.2907 1058,-41.2907 840,-41.2907"/>
<polygon fill="#f5f5f5" stroke="transparent" points="840,-166.7907 840,-189.7907 1058,-189.7907 1058,-166.7907 840,-166.7907"/>
<polygon fill="none" stroke="#000000" points="840,-166.7907 840,-189.7907 1058,-189.7907 1058,-166.7907 840,-166.7907"/>
<text text-anchor="start" x="845" y="-175.3907" font-family="Helvetica,sans-Serif" font-weight="bold" font-size="11.00" fill="#000000">wms.outbound_shipment_lines</text>
<text text-anchor="start" x="1023.5219" y="-174.8907" font-family="Helvetica,sans-Serif" font-size="11.00" fill="#000000">[table]</text>
<polygon fill="none" stroke="#000000" points="840,-144.7907 840,-166.7907 1058,-166.7907 1058,-144.7907 840,-144.7907"/>
<image xlink:href="../../images/foreignKeys.png" width="11px" height="12px" preserveAspectRatio="xMinYMin meet" x="845" y="-161.791"/>
<text text-anchor="start" x="879" y="-151.8907" font-family="Helvetica,sans-Serif" font-size="11.00" fill="#000000">order_id</text>
<polygon fill="none" stroke="#000000" points="840,-122.7907 840,-144.7907 1058,-144.7907 1058,-122.7907 840,-122.7907"/>
<image xlink:href="../../images/foreignKeys.png" width="11px" height="12px" preserveAspectRatio="xMinYMin meet" x="845" y="-139.791"/>
<text text-anchor="start" x="879" y="-129.8907" font-family="Helvetica,sans-Serif" font-size="11.00" fill="#000000">order_detail_id</text>
<polygon fill="none" stroke="#000000" points="840,-100.7907 840,-122.7907 1058,-122.7907 1058,-100.7907 840,-100.7907"/>
<image xlink:href="../../images/foreignKeys.png" width="11px" height="12px" preserveAspectRatio="xMinYMin meet" x="845" y="-117.791"/>
<text text-anchor="start" x="879" y="-107.8907" font-family="Helvetica,sans-Serif" font-size="11.00" fill="#000000">created_by</text>
<polygon fill="none" stroke="#000000" points="840,-78.7907 840,-100.7907 1058,-100.7907 1058,-78.7907 840,-78.7907"/>
<image xlink:href="../../images/foreignKeys.png" width="11px" height="12px" preserveAspectRatio="xMinYMin meet" x="845" y="-95.7907"/>
<text text-anchor="start" x="879" y="-85.8907" font-family="Helvetica,sans-Serif" font-size="11.00" fill="#000000">updated_by</text>
<polygon fill="none" stroke="#000000" points="840,-59.7907 840,-78.7907 1058,-78.7907 1058,-59.7907 840,-59.7907"/>
<text text-anchor="start" x="843" y="-65.8907" font-family="Helvetica,sans-Serif" font-size="11.00" fill="#000000">...</text>
<polygon fill="#ffffff" stroke="transparent" points="840,-40.7907 840,-59.7907 934,-59.7907 934,-40.7907 840,-40.7907"/>
<polygon fill="none" stroke="#000000" points="840,-40.7907 840,-59.7907 934,-59.7907 934,-40.7907 840,-40.7907"/>
<text text-anchor="start" x="843" y="-46.8907" font-family="Helvetica,sans-Serif" font-size="11.00" fill="#000000">&lt; 4</text>
<polygon fill="#ffffff" stroke="transparent" points="934,-40.7907 934,-59.7907 1009,-59.7907 1009,-40.7907 934,-40.7907"/>
<polygon fill="none" stroke="#000000" points="934,-40.7907 934,-59.7907 1009,-59.7907 1009,-40.7907 934,-40.7907"/>
<text text-anchor="start" x="973.6105" y="-46.8907" font-family="Helvetica,sans-Serif" font-size="11.00" fill="#000000">0 rows</text>
<polygon fill="#ffffff" stroke="transparent" points="1009,-40.7907 1009,-59.7907 1058,-59.7907 1058,-40.7907 1009,-40.7907"/>
<polygon fill="none" stroke="#000000" points="1009,-40.7907 1009,-59.7907 1058,-59.7907 1058,-40.7907 1009,-40.7907"/>
<text text-anchor="start" x="1048.8862" y="-46.8907" font-family="Helvetica,sans-Serif" font-size="11.00" fill="#000000"> &#160;</text>
</a>
</g>
</g>
<!-- wms.outbound_shipment_lines&#45;&gt;users -->
<g id="edge30" class="edge">
<title>wms.outbound_shipment_lines:w&#45;&gt;users:e</title>
<path fill="none" stroke="#000000" d="M826.1543,-106.9218C814.6156,-95.5869 820.5022,-67.581 799,-56.7907 743.5376,-28.9583 192.6604,-56.0809 160,-87.7907 96.6918,-149.2562 207.738,-482.7907 119.5,-482.7907"/>
<polygon fill="#000000" stroke="#000000" points="832.453,-109.1367 838.8057,-115.1868 836.2265,-110.4637 840,-111.7907 840,-111.7907 840,-111.7907 836.2265,-110.4637 841.1943,-108.3945 832.453,-109.1367 832.453,-109.1367"/>
<ellipse fill="none" stroke="#000000" cx="829.4342" cy="-108.0751" rx="3.2" ry="3.2"/>
</g>
<!-- wms.outbound_shipment_lines&#45;&gt;users -->
<g id="edge33" class="edge">
<title>wms.outbound_shipment_lines:w&#45;&gt;users:e</title>
<path fill="none" stroke="#000000" d="M826.3747,-85.0127C815.7878,-74.9273 818.517,-51.6646 799,-42.7907 789.2,-38.3348 360.7546,-42.6044 320,-44.7907 248.6368,-48.6189 210.433,-10.156 160,-60.7907 93.5175,-127.539 213.7087,-482.7907 119.5,-482.7907"/>
<polygon fill="#000000" stroke="#000000" points="832.4507,-87.1433 838.8087,-93.1878 836.2253,-88.467 840,-89.7907 840,-89.7907 840,-89.7907 836.2253,-88.467 841.1913,-86.3935 832.4507,-87.1433 832.4507,-87.1433"/>
<ellipse fill="none" stroke="#000000" cx="829.431" cy="-86.0844" rx="3.2" ry="3.2"/>
</g>
<!-- wms.outbound_shipment_lines&#45;&gt;orders -->
<g id="edge32" class="edge">
<title>wms.outbound_shipment_lines:w&#45;&gt;orders:e</title>
<path fill="none" stroke="#000000" d="M828.3555,-164.9102C794.011,-227.7101 829.2569,-594.7275 799,-632.7907 737.0786,-710.6877 655.2353,-630.3155 586,-701.7907 538.6818,-750.6397 611.5091,-848.7907 543.5,-848.7907"/>
<polygon fill="#000000" stroke="#000000" points="833.7016,-160.7233 842.2197,-158.6249 836.8508,-158.257 840,-155.7907 840,-155.7907 840,-155.7907 836.8508,-158.257 837.7803,-152.9564 833.7016,-160.7233 833.7016,-160.7233"/>
<ellipse fill="none" stroke="#000000" cx="831.1823" cy="-162.6963" rx="3.2" ry="3.2"/>
</g>
<!-- wms.outbound_shipment_lines&#45;&gt;order_detail -->
<g id="edge31" class="edge">
<title>wms.outbound_shipment_lines:w&#45;&gt;order_detail:e</title>
<path fill="none" stroke="#000000" d="M825.5106,-136.282C792.9778,-148.7517 798.0477,-203.7907 754.5,-203.7907"/>
<polygon fill="#000000" stroke="#000000" points="832.1157,-135.1463 840.6101,-137.3386 836.0578,-134.4685 840,-133.7907 840,-133.7907 840,-133.7907 836.0578,-134.4685 839.3899,-130.2427 832.1157,-135.1463 832.1157,-135.1463"/>
<ellipse fill="none" stroke="#000000" cx="828.962" cy="-135.6886" rx="3.2" ry="3.2"/>
</g>
</g>
</svg>
