<?xml version="1.0" encoding="UTF-8" standalone="no"?>
<!DOCTYPE svg PUBLIC "-//W3C//DTD SVG 1.1//EN"
 "http://www.w3.org/Graphics/SVG/1.1/DTD/svg11.dtd">
<!-- Generated by graphviz version 2.40.1 (20161225.0304)
 -->
<!-- Title: twoDegreesRelationshipsDiagram Pages: 1 -->
<svg width="663pt" height="661pt"
 viewBox="0.00 0.00 663.00 661.20" xmlns="http://www.w3.org/2000/svg" xmlns:xlink="http://www.w3.org/1999/xlink">
<g id="graph0" class="graph" transform="scale(1 1) rotate(0) translate(4 657.2)">
<title>twoDegreesRelationshipsDiagram</title>
<polygon fill="#ffffff" stroke="transparent" points="-4,4 -4,-657.2 659,-657.2 659,4 -4,4"/>
<text text-anchor="middle" x="72.4936" y="-7.3" font-family="Helvetica,sans-Serif" font-size="11.00" fill="#000000">Generated by SchemaSpy</text>
<!-- locations -->
<g id="node1" class="node">
<title>locations</title>
<g id="a_node1"><a xlink:href="../../tables/locations.html" xlink:title="locations" target="_top">
<polygon fill="#ffffff" stroke="transparent" points="149,-277.2 149,-338.2 240,-338.2 240,-277.2 149,-277.2"/>
<polygon fill="#f5f5f5" stroke="transparent" points="149.5,-314.7 149.5,-337.7 240.5,-337.7 240.5,-314.7 149.5,-314.7"/>
<polygon fill="none" stroke="#000000" points="149.5,-314.7 149.5,-337.7 240.5,-337.7 240.5,-314.7 149.5,-314.7"/>
<text text-anchor="start" x="154.5" y="-323.3" font-family="Helvetica,sans-Serif" font-weight="bold" font-size="11.00" fill="#000000">locations</text>
<text text-anchor="start" x="206.0219" y="-322.8" font-family="Helvetica,sans-Serif" font-size="11.00" fill="#000000">[table]</text>
<polygon fill="none" stroke="#000000" points="149.5,-295.7 149.5,-314.7 240.5,-314.7 240.5,-295.7 149.5,-295.7"/>
<text text-anchor="start" x="152.5" y="-301.8" font-family="Helvetica,sans-Serif" font-size="11.00" fill="#000000">...</text>
<polygon fill="#ffffff" stroke="transparent" points="149.5,-276.7 149.5,-295.7 188.5,-295.7 188.5,-276.7 149.5,-276.7"/>
<polygon fill="none" stroke="#000000" points="149.5,-276.7 149.5,-295.7 188.5,-295.7 188.5,-276.7 149.5,-276.7"/>
<text text-anchor="start" x="152.5" y="-282.8" font-family="Helvetica,sans-Serif" font-size="11.00" fill="#000000">&lt; 2</text>
<polygon fill="#ffffff" stroke="transparent" points="188.5,-276.7 188.5,-295.7 209.5,-295.7 209.5,-276.7 188.5,-276.7"/>
<polygon fill="none" stroke="#000000" points="188.5,-276.7 188.5,-295.7 209.5,-295.7 209.5,-276.7 188.5,-276.7"/>
<text text-anchor="start" x="200.3862" y="-282.8" font-family="Helvetica,sans-Serif" font-size="11.00" fill="#000000"> &#160;</text>
<polygon fill="#ffffff" stroke="transparent" points="209.5,-276.7 209.5,-295.7 240.5,-295.7 240.5,-276.7 209.5,-276.7"/>
<polygon fill="none" stroke="#000000" points="209.5,-276.7 209.5,-295.7 240.5,-295.7 240.5,-276.7 209.5,-276.7"/>
<text text-anchor="start" x="221.9053" y="-282.8" font-family="Helvetica,sans-Serif" font-size="11.00" fill="#000000">6 &gt;</text>
</a>
</g>
</g>
<!-- users -->
<g id="node2" class="node">
<title>users</title>
<g id="a_node2"><a xlink:href="../../tables/users.html" xlink:title="users" target="_top">
<polygon fill="#ffffff" stroke="transparent" points="8,-208.2 8,-269.2 100,-269.2 100,-208.2 8,-208.2"/>
<polygon fill="#f5f5f5" stroke="transparent" points="8,-245.7 8,-268.7 100,-268.7 100,-245.7 8,-245.7"/>
<polygon fill="none" stroke="#000000" points="8,-245.7 8,-268.7 100,-268.7 100,-245.7 8,-245.7"/>
<text text-anchor="start" x="13" y="-254.3" font-family="Helvetica,sans-Serif" font-weight="bold" font-size="11.00" fill="#000000">users</text>
<text text-anchor="start" x="65.0437" y="-253.8" font-family="Helvetica,sans-Serif" font-size="11.00" fill="#000000">[table]</text>
<polygon fill="none" stroke="#000000" points="8,-226.7 8,-245.7 100,-245.7 100,-226.7 8,-226.7"/>
<text text-anchor="start" x="11" y="-232.8" font-family="Helvetica,sans-Serif" font-size="11.00" fill="#000000">...</text>
<polygon fill="#ffffff" stroke="transparent" points="8,-207.7 8,-226.7 29,-226.7 29,-207.7 8,-207.7"/>
<polygon fill="none" stroke="#000000" points="8,-207.7 8,-226.7 29,-226.7 29,-207.7 8,-207.7"/>
<text text-anchor="start" x="10.7027" y="-213.8" font-family="Helvetica,sans-Serif" font-size="11.00" fill="#000000">&lt; 3</text>
<polygon fill="#ffffff" stroke="transparent" points="29,-207.7 29,-226.7 73,-226.7 73,-207.7 29,-207.7"/>
<polygon fill="none" stroke="#000000" points="29,-207.7 29,-226.7 73,-226.7 73,-207.7 29,-207.7"/>
<text text-anchor="start" x="31.7478" y="-213.8" font-family="Helvetica,sans-Serif" font-size="11.00" fill="#000000">10 rows</text>
<polygon fill="#ffffff" stroke="transparent" points="73,-207.7 73,-226.7 100,-226.7 100,-207.7 73,-207.7"/>
<polygon fill="none" stroke="#000000" points="73,-207.7 73,-226.7 100,-226.7 100,-207.7 73,-207.7"/>
<text text-anchor="start" x="75.6452" y="-213.8" font-family="Helvetica,sans-Serif" font-size="11.00" fill="#000000">66 &gt;</text>
</a>
</g>
</g>
<!-- locations&#45;&gt;users -->
<g id="edge1" class="edge">
<title>locations:w&#45;&gt;users:e</title>
<path fill="none" stroke="#000000" d="M136.4886,-298.3151C118.068,-279.8682 132.1395,-230.5906 100,-235.7"/>
<polygon fill="#000000" stroke="#000000" points="142.3181,-301.1757 147.9141,-307.9319 145.9091,-302.9379 149.5,-304.7 149.5,-304.7 149.5,-304.7 145.9091,-302.9379 151.0859,-301.4681 142.3181,-301.1757 142.3181,-301.1757"/>
<ellipse fill="none" stroke="#000000" cx="139.4453" cy="-299.766" rx="3.2" ry="3.2"/>
</g>
<!-- locations&#45;&gt;users -->
<g id="edge2" class="edge">
<title>locations:w&#45;&gt;users:e</title>
<path fill="none" stroke="#000000" d="M135.0398,-302.2747C118.8075,-289.8128 131.2549,-241.4969 100,-235.7"/>
<polygon fill="#000000" stroke="#000000" points="141.6102,-303.3767 148.9045,-308.2504 145.5551,-304.0383 149.5,-304.7 149.5,-304.7 149.5,-304.7 145.5551,-304.0383 150.0955,-301.1496 141.6102,-303.3767 141.6102,-303.3767"/>
<ellipse fill="none" stroke="#000000" cx="138.4543" cy="-302.8473" rx="3.2" ry="3.2"/>
</g>
<!-- shift_dim -->
<g id="node3" class="node">
<title>shift_dim</title>
<g id="a_node3"><a xlink:href="../../tables/shift_dim.html" xlink:title="shift_dim" target="_top">
<polygon fill="#ffffff" stroke="transparent" points="465.5,-366.7 465.5,-566.7 637.5,-566.7 637.5,-366.7 465.5,-366.7"/>
<polygon fill="#f5f5f5" stroke="transparent" points="467.5,-541.7 467.5,-564.7 635.5,-564.7 635.5,-541.7 467.5,-541.7"/>
<polygon fill="none" stroke="#000000" points="467.5,-541.7 467.5,-564.7 635.5,-564.7 635.5,-541.7 467.5,-541.7"/>
<text text-anchor="start" x="472.5" y="-550.3" font-family="Helvetica,sans-Serif" font-weight="bold" font-size="11.00" fill="#000000">shift_dim</text>
<text text-anchor="start" x="600.5437" y="-549.8" font-family="Helvetica,sans-Serif" font-size="11.00" fill="#000000">[table]</text>
<polygon fill="none" stroke="#000000" points="467.5,-519.7 467.5,-541.7 568.5,-541.7 568.5,-519.7 467.5,-519.7"/>
<image xlink:href="../../images/primaryKeys.png" width="11px" height="12px" preserveAspectRatio="xMinYMin meet" x="472.5" y="-536.7"/>
<text text-anchor="start" x="487.5" y="-526.8" font-family="Helvetica,sans-Serif" font-size="11.00" fill="#000000">shift_id</text>
<polygon fill="none" stroke="#000000" points="568.5,-519.7 568.5,-541.7 635.5,-541.7 635.5,-519.7 568.5,-519.7"/>
<text text-anchor="start" x="571.5" y="-527.4" font-family="Helvetica,sans-Serif" font-size="11.00" fill="#000000">int8[19]</text>
<polygon fill="none" stroke="#000000" points="467.5,-497.7 467.5,-519.7 568.5,-519.7 568.5,-497.7 467.5,-497.7"/>
<image xlink:href="../../images/foreignKeys.png" width="11px" height="12px" preserveAspectRatio="xMinYMin meet" x="472.5" y="-514.7"/>
<text text-anchor="start" x="487.5" y="-504.8" font-family="Helvetica,sans-Serif" font-size="11.00" fill="#000000">warehouse_id</text>
<polygon fill="none" stroke="#000000" points="568.5,-497.7 568.5,-519.7 635.5,-519.7 635.5,-497.7 568.5,-497.7"/>
<text text-anchor="start" x="571.5" y="-505.4" font-family="Helvetica,sans-Serif" font-size="11.00" fill="#000000">int8[19]</text>
<polygon fill="none" stroke="#000000" points="467.5,-475.7 467.5,-497.7 568.5,-497.7 568.5,-475.7 467.5,-475.7"/>
<text text-anchor="start" x="487.5" y="-482.8" font-family="Helvetica,sans-Serif" font-size="11.00" fill="#000000">shift_code</text>
<polygon fill="none" stroke="#000000" points="568.5,-475.7 568.5,-497.7 635.5,-497.7 635.5,-475.7 568.5,-475.7"/>
<text text-anchor="start" x="571.5" y="-483.4" font-family="Helvetica,sans-Serif" font-size="11.00" fill="#000000">varchar[50]</text>
<polygon fill="none" stroke="#000000" points="467.5,-453.7 467.5,-475.7 568.5,-475.7 568.5,-453.7 467.5,-453.7"/>
<text text-anchor="start" x="487.5" y="-460.8" font-family="Helvetica,sans-Serif" font-size="11.00" fill="#000000">description</text>
<polygon fill="none" stroke="#000000" points="568.5,-453.7 568.5,-475.7 635.5,-475.7 635.5,-453.7 568.5,-453.7"/>
<text text-anchor="start" x="571.4365" y="-461.4" font-family="Helvetica,sans-Serif" font-size="11.00" fill="#000000">varchar[200]</text>
<polygon fill="none" stroke="#000000" points="467.5,-431.7 467.5,-453.7 568.5,-453.7 568.5,-431.7 467.5,-431.7"/>
<text text-anchor="start" x="487.5" y="-438.8" font-family="Helvetica,sans-Serif" font-size="11.00" fill="#000000">start_time</text>
<polygon fill="none" stroke="#000000" points="568.5,-431.7 568.5,-453.7 635.5,-453.7 635.5,-431.7 568.5,-431.7"/>
<text text-anchor="start" x="571.5" y="-439.4" font-family="Helvetica,sans-Serif" font-size="11.00" fill="#000000">time[15,6]</text>
<polygon fill="none" stroke="#000000" points="467.5,-409.7 467.5,-431.7 568.5,-431.7 568.5,-409.7 467.5,-409.7"/>
<text text-anchor="start" x="487.5" y="-416.8" font-family="Helvetica,sans-Serif" font-size="11.00" fill="#000000">end_time</text>
<polygon fill="none" stroke="#000000" points="568.5,-409.7 568.5,-431.7 635.5,-431.7 635.5,-409.7 568.5,-409.7"/>
<text text-anchor="start" x="571.5" y="-417.4" font-family="Helvetica,sans-Serif" font-size="11.00" fill="#000000">time[15,6]</text>
<polygon fill="none" stroke="#000000" points="467.5,-387.7 467.5,-409.7 568.5,-409.7 568.5,-387.7 467.5,-387.7"/>
<text text-anchor="start" x="487.5" y="-394.8" font-family="Helvetica,sans-Serif" font-size="11.00" fill="#000000">is_active</text>
<polygon fill="none" stroke="#000000" points="568.5,-387.7 568.5,-409.7 635.5,-409.7 635.5,-387.7 568.5,-387.7"/>
<text text-anchor="start" x="571.5" y="-395.4" font-family="Helvetica,sans-Serif" font-size="11.00" fill="#000000">bool[1]</text>
<polygon fill="#ffffff" stroke="transparent" points="467.5,-368.7 467.5,-387.7 522.5,-387.7 522.5,-368.7 467.5,-368.7"/>
<polygon fill="none" stroke="#000000" points="467.5,-368.7 467.5,-387.7 522.5,-387.7 522.5,-368.7 467.5,-368.7"/>
<text text-anchor="start" x="470.5" y="-374.8" font-family="Helvetica,sans-Serif" font-size="11.00" fill="#000000">&lt; 1</text>
<polygon fill="#ffffff" stroke="transparent" points="522.5,-368.7 522.5,-387.7 568.5,-387.7 568.5,-368.7 522.5,-368.7"/>
<polygon fill="none" stroke="#000000" points="522.5,-368.7 522.5,-387.7 568.5,-387.7 568.5,-368.7 522.5,-368.7"/>
<text text-anchor="start" x="559.3862" y="-374.8" font-family="Helvetica,sans-Serif" font-size="11.00" fill="#000000"> &#160;</text>
<polygon fill="#ffffff" stroke="transparent" points="568.5,-368.7 568.5,-387.7 635.5,-387.7 635.5,-368.7 568.5,-368.7"/>
<polygon fill="none" stroke="#000000" points="568.5,-368.7 568.5,-387.7 635.5,-387.7 635.5,-368.7 568.5,-368.7"/>
<text text-anchor="start" x="616.9053" y="-374.8" font-family="Helvetica,sans-Serif" font-size="11.00" fill="#000000">0 &gt;</text>
<polygon fill="none" stroke="#000000" stroke-width="2" points="466.5,-367.7 466.5,-565.7 636.5,-565.7 636.5,-367.7 466.5,-367.7"/>
</a>
</g>
</g>
<!-- warehouses -->
<g id="node4" class="node">
<title>warehouses</title>
<g id="a_node4"><a xlink:href="../../tables/warehouses.html" xlink:title="warehouses" target="_top">
<polygon fill="#ffffff" stroke="transparent" points="289,-250.2 289,-443.2 407,-443.2 407,-250.2 289,-250.2"/>
<polygon fill="#f5f5f5" stroke="transparent" points="289,-419.7 289,-442.7 407,-442.7 407,-419.7 289,-419.7"/>
<polygon fill="none" stroke="#000000" points="289,-419.7 289,-442.7 407,-442.7 407,-419.7 289,-419.7"/>
<text text-anchor="start" x="294" y="-428.3" font-family="Helvetica,sans-Serif" font-weight="bold" font-size="11.00" fill="#000000">warehouses</text>
<text text-anchor="start" x="372.0437" y="-427.8" font-family="Helvetica,sans-Serif" font-size="11.00" fill="#000000">[table]</text>
<polygon fill="none" stroke="#000000" points="289,-397.7 289,-419.7 407,-419.7 407,-397.7 289,-397.7"/>
<image xlink:href="../../images/primaryKeys.png" width="11px" height="12px" preserveAspectRatio="xMinYMin meet" x="294" y="-414.7"/>
<text text-anchor="start" x="309" y="-404.8" font-family="Helvetica,sans-Serif" font-size="11.00" fill="#000000">warehouse_id</text>
<polygon fill="none" stroke="#000000" points="289,-375.7 289,-397.7 407,-397.7 407,-375.7 289,-375.7"/>
<image xlink:href="../../images/foreignKeys.png" width="11px" height="12px" preserveAspectRatio="xMinYMin meet" x="294" y="-392.7"/>
<text text-anchor="start" x="309" y="-382.8" font-family="Helvetica,sans-Serif" font-size="11.00" fill="#000000">location_id</text>
<polygon fill="#ffffff" stroke="transparent" points="289,-353.7 289,-375.7 407,-375.7 407,-353.7 289,-353.7"/>
<polygon fill="none" stroke="#000000" points="289,-353.7 289,-375.7 407,-375.7 407,-353.7 289,-353.7"/>
<text text-anchor="start" x="309" y="-360.8" font-family="Helvetica,sans-Serif" font-size="11.00" fill="#000000">warehouse_code</text>
<polygon fill="none" stroke="#000000" points="289,-331.7 289,-353.7 407,-353.7 407,-331.7 289,-331.7"/>
<image xlink:href="../../images/foreignKeys.png" width="11px" height="12px" preserveAspectRatio="xMinYMin meet" x="294" y="-348.7"/>
<text text-anchor="start" x="309" y="-338.8" font-family="Helvetica,sans-Serif" font-size="11.00" fill="#000000">contact_user_id</text>
<polygon fill="none" stroke="#000000" points="289,-309.7 289,-331.7 407,-331.7 407,-309.7 289,-309.7"/>
<image xlink:href="../../images/foreignKeys.png" width="11px" height="12px" preserveAspectRatio="xMinYMin meet" x="294" y="-326.7"/>
<text text-anchor="start" x="309" y="-316.8" font-family="Helvetica,sans-Serif" font-size="11.00" fill="#000000">created_by</text>
<polygon fill="none" stroke="#000000" points="289,-287.7 289,-309.7 407,-309.7 407,-287.7 289,-287.7"/>
<image xlink:href="../../images/foreignKeys.png" width="11px" height="12px" preserveAspectRatio="xMinYMin meet" x="294" y="-304.7"/>
<text text-anchor="start" x="309" y="-294.8" font-family="Helvetica,sans-Serif" font-size="11.00" fill="#000000">updated_by</text>
<polygon fill="none" stroke="#000000" points="289,-268.7 289,-287.7 407,-287.7 407,-268.7 289,-268.7"/>
<text text-anchor="start" x="292" y="-274.8" font-family="Helvetica,sans-Serif" font-size="11.00" fill="#000000">...</text>
<polygon fill="#ffffff" stroke="transparent" points="289,-249.7 289,-268.7 342,-268.7 342,-249.7 289,-249.7"/>
<polygon fill="none" stroke="#000000" points="289,-249.7 289,-268.7 342,-268.7 342,-249.7 289,-249.7"/>
<text text-anchor="start" x="292" y="-255.8" font-family="Helvetica,sans-Serif" font-size="11.00" fill="#000000">&lt; 4</text>
<polygon fill="#ffffff" stroke="transparent" points="342,-249.7 342,-268.7 370,-268.7 370,-249.7 342,-249.7"/>
<polygon fill="none" stroke="#000000" points="342,-249.7 342,-268.7 370,-268.7 370,-249.7 342,-249.7"/>
<text text-anchor="start" x="360.8862" y="-255.8" font-family="Helvetica,sans-Serif" font-size="11.00" fill="#000000"> &#160;</text>
<polygon fill="#ffffff" stroke="transparent" points="370,-249.7 370,-268.7 407,-268.7 407,-249.7 370,-249.7"/>
<polygon fill="none" stroke="#000000" points="370,-249.7 370,-268.7 407,-268.7 407,-249.7 370,-249.7"/>
<text text-anchor="start" x="388.4053" y="-255.8" font-family="Helvetica,sans-Serif" font-size="11.00" fill="#000000">6 &gt;</text>
</a>
</g>
</g>
<!-- shift_dim&#45;&gt;warehouses -->
<g id="edge3" class="edge">
<title>shift_dim:w&#45;&gt;warehouses:e</title>
<path fill="none" stroke="#000000" d="M453.2398,-505.1409C424.1619,-487.327 453.0609,-408.7 407,-408.7"/>
<polygon fill="#000000" stroke="#000000" points="459.7381,-506.7628 466.6282,-512.1929 463.619,-507.7314 467.5,-508.7 467.5,-508.7 467.5,-508.7 463.619,-507.7314 468.3718,-505.2071 459.7381,-506.7628 459.7381,-506.7628"/>
<ellipse fill="none" stroke="#000000" cx="456.6333" cy="-505.9879" rx="3.2" ry="3.2"/>
</g>
<!-- warehouses&#45;&gt;locations -->
<g id="edge6" class="edge">
<title>warehouses:w&#45;&gt;locations:e</title>
<path fill="none" stroke="#000000" d="M275.0877,-382.0564C255.4771,-364.7098 276.7222,-304.7 240.5,-304.7"/>
<polygon fill="#000000" stroke="#000000" points="281.4115,-384.1671 287.8602,-390.1148 285.2058,-385.4336 289,-386.7 289,-386.7 289,-386.7 285.2058,-385.4336 290.1398,-383.2852 281.4115,-384.1671 281.4115,-384.1671"/>
<ellipse fill="none" stroke="#000000" cx="278.3762" cy="-383.1539" rx="3.2" ry="3.2"/>
</g>
<!-- warehouses&#45;&gt;users -->
<g id="edge4" class="edge">
<title>warehouses:w&#45;&gt;users:e</title>
<path fill="none" stroke="#000000" d="M275.2,-347.0594C266.252,-354.0764 263.5938,-367.6042 248,-372.7 202.7968,-387.4717 179.144,-401.1001 141,-372.7 90.0213,-334.7437 163.5571,-235.7 100,-235.7"/>
<polygon fill="#000000" stroke="#000000" points="281.3716,-345.1099 290.0844,-346.1328 285.1858,-343.9049 289,-342.7 289,-342.7 289,-342.7 285.1858,-343.9049 287.9156,-339.2672 281.3716,-345.1099 281.3716,-345.1099"/>
<ellipse fill="none" stroke="#000000" cx="278.3202" cy="-346.0738" rx="3.2" ry="3.2"/>
</g>
<!-- warehouses&#45;&gt;users -->
<g id="edge5" class="edge">
<title>warehouses:w&#45;&gt;users:e</title>
<path fill="none" stroke="#000000" d="M275.0726,-324.9879C266.3052,-331.6023 263.1536,-344.0193 248,-348.7 202.5627,-362.7349 179.9415,-375.9963 141,-348.7 97.2515,-318.0342 153.4258,-235.7 100,-235.7"/>
<polygon fill="#000000" stroke="#000000" points="281.3542,-323.054 290.0593,-324.1406 285.1771,-321.877 289,-320.7 289,-320.7 289,-320.7 285.1771,-321.877 287.9407,-317.2594 281.3542,-323.054 281.3542,-323.054"/>
<ellipse fill="none" stroke="#000000" cx="278.2958" cy="-323.9956" rx="3.2" ry="3.2"/>
</g>
<!-- warehouses&#45;&gt;users -->
<g id="edge7" class="edge">
<title>warehouses:w&#45;&gt;users:e</title>
<path fill="none" stroke="#000000" d="M275.1834,-294.6389C265.8251,-287.7549 263.3973,-273.8475 248,-266.7 187.0423,-238.4033 167.2052,-235.7 100,-235.7"/>
<polygon fill="#000000" stroke="#000000" points="281.3247,-296.444 287.9848,-302.1539 285.1623,-297.572 289,-298.7 289,-298.7 289,-298.7 285.1623,-297.572 290.0152,-295.2461 281.3247,-296.444 281.3247,-296.444"/>
<ellipse fill="none" stroke="#000000" cx="278.2546" cy="-295.5416" rx="3.2" ry="3.2"/>
</g>
<!-- wms.inbound_receipt -->
<g id="node5" class="node">
<title>wms.inbound_receipt</title>
<g id="a_node5"><a xlink:href="../../../wms/tables/inbound_receipt.html" xlink:title="wms.inbound_receipt" target="_top">
<polygon fill="#ffffff" stroke="transparent" points="470.5,-588.2 470.5,-649.2 632.5,-649.2 632.5,-588.2 470.5,-588.2"/>
<polygon fill="#f5f5f5" stroke="transparent" points="470.5,-625.7 470.5,-648.7 632.5,-648.7 632.5,-625.7 470.5,-625.7"/>
<polygon fill="none" stroke="#000000" points="470.5,-625.7 470.5,-648.7 632.5,-648.7 632.5,-625.7 470.5,-625.7"/>
<text text-anchor="start" x="475.5" y="-634.3" font-family="Helvetica,sans-Serif" font-weight="bold" font-size="11.00" fill="#000000">wms.inbound_receipt</text>
<text text-anchor="start" x="598.0219" y="-633.8" font-family="Helvetica,sans-Serif" font-size="11.00" fill="#000000">[table]</text>
<polygon fill="none" stroke="#000000" points="470.5,-606.7 470.5,-625.7 632.5,-625.7 632.5,-606.7 470.5,-606.7"/>
<text text-anchor="start" x="473.5" y="-612.8" font-family="Helvetica,sans-Serif" font-size="11.00" fill="#000000">...</text>
<polygon fill="#ffffff" stroke="transparent" points="470.5,-587.7 470.5,-606.7 536.5,-606.7 536.5,-587.7 470.5,-587.7"/>
<polygon fill="none" stroke="#000000" points="470.5,-587.7 470.5,-606.7 536.5,-606.7 536.5,-587.7 470.5,-587.7"/>
<text text-anchor="start" x="473.5" y="-593.8" font-family="Helvetica,sans-Serif" font-size="11.00" fill="#000000">&lt; 6</text>
<polygon fill="#ffffff" stroke="transparent" points="536.5,-587.7 536.5,-606.7 597.5,-606.7 597.5,-587.7 536.5,-587.7"/>
<polygon fill="none" stroke="#000000" points="536.5,-587.7 536.5,-606.7 597.5,-606.7 597.5,-587.7 536.5,-587.7"/>
<text text-anchor="start" x="562.1105" y="-593.8" font-family="Helvetica,sans-Serif" font-size="11.00" fill="#000000">0 rows</text>
<polygon fill="#ffffff" stroke="transparent" points="597.5,-587.7 597.5,-606.7 632.5,-606.7 632.5,-587.7 597.5,-587.7"/>
<polygon fill="none" stroke="#000000" points="597.5,-587.7 597.5,-606.7 632.5,-606.7 632.5,-587.7 597.5,-587.7"/>
<text text-anchor="start" x="623.3862" y="-593.8" font-family="Helvetica,sans-Serif" font-size="11.00" fill="#000000"> &#160;</text>
</a>
</g>
</g>
<!-- wms.inbound_receipt&#45;&gt;users -->
<g id="edge8" class="edge">
<title>wms.inbound_receipt:w&#45;&gt;users:e</title>
<path fill="none" stroke="#000000" d="M455.7365,-615.5074C290.3049,-611.107 240.4333,-531.4235 141,-390.7 99.8793,-332.5037 171.2582,-235.7 100,-235.7"/>
<polygon fill="#000000" stroke="#000000" points="462.5007,-615.5956 470.453,-619.2997 466.5003,-615.6478 470.5,-615.7 470.5,-615.7 470.5,-615.7 466.5003,-615.6478 470.547,-612.1003 462.5007,-615.5956 462.5007,-615.5956"/>
<ellipse fill="none" stroke="#000000" cx="459.301" cy="-615.5539" rx="3.2" ry="3.2"/>
</g>
<!-- wms.inbound_receipt&#45;&gt;users -->
<g id="edge9" class="edge">
<title>wms.inbound_receipt:w&#45;&gt;users:e</title>
<path fill="none" stroke="#000000" d="M455.9075,-615.0198C289.4266,-605.0168 240.929,-522.3797 141,-380.7 100.9183,-323.8721 169.541,-229.7 100,-235.7"/>
<polygon fill="#000000" stroke="#000000" points="462.5087,-615.3274 470.3323,-619.2961 466.5043,-615.5137 470.5,-615.7 470.5,-615.7 470.5,-615.7 466.5043,-615.5137 470.6677,-612.1039 462.5087,-615.3274 462.5087,-615.3274"/>
<ellipse fill="none" stroke="#000000" cx="459.3121" cy="-615.1784" rx="3.2" ry="3.2"/>
</g>
<!-- wms.inbound_receipt&#45;&gt;users -->
<g id="edge10" class="edge">
<title>wms.inbound_receipt:w&#45;&gt;users:e</title>
<path fill="none" stroke="#000000" d="M455.9075,-616.0753C289.4266,-618.0168 240.929,-535.3797 141,-393.7 100.9183,-336.8721 169.541,-242.7 100,-235.7"/>
<polygon fill="#000000" stroke="#000000" points="462.5026,-615.9057 470.5926,-619.2988 466.5013,-615.8029 470.5,-615.7 470.5,-615.7 470.5,-615.7 466.5013,-615.8029 470.4074,-612.1012 462.5026,-615.9057 462.5026,-615.9057"/>
<ellipse fill="none" stroke="#000000" cx="459.3037" cy="-615.988" rx="3.2" ry="3.2"/>
</g>
<!-- wms.inbound_receipt&#45;&gt;warehouses -->
<g id="edge11" class="edge">
<title>wms.inbound_receipt:w&#45;&gt;warehouses:e</title>
<path fill="none" stroke="#000000" d="M455.8131,-613.6512C388.6082,-592.1529 497.5929,-408.7 407,-408.7"/>
<polygon fill="#000000" stroke="#000000" points="462.5767,-614.5947 470.0026,-619.2655 466.5384,-615.1473 470.5,-615.7 470.5,-615.7 470.5,-615.7 466.5384,-615.1473 470.9974,-612.1345 462.5767,-614.5947 462.5767,-614.5947"/>
<ellipse fill="none" stroke="#000000" cx="459.4074" cy="-614.1526" rx="3.2" ry="3.2"/>
</g>
<!-- wms.inventory_lots -->
<g id="node6" class="node">
<title>wms.inventory_lots</title>
<g id="a_node6"><a xlink:href="../../../wms/tables/inventory_lots.html" xlink:title="wms.inventory_lots" target="_top">
<polygon fill="#ffffff" stroke="transparent" points="476,-202.2 476,-263.2 627,-263.2 627,-202.2 476,-202.2"/>
<polygon fill="#f5f5f5" stroke="transparent" points="476.5,-239.7 476.5,-262.7 627.5,-262.7 627.5,-239.7 476.5,-239.7"/>
<polygon fill="none" stroke="#000000" points="476.5,-239.7 476.5,-262.7 627.5,-262.7 627.5,-239.7 476.5,-239.7"/>
<text text-anchor="start" x="481.5" y="-248.3" font-family="Helvetica,sans-Serif" font-weight="bold" font-size="11.00" fill="#000000">wms.inventory_lots</text>
<text text-anchor="start" x="593.0219" y="-247.8" font-family="Helvetica,sans-Serif" font-size="11.00" fill="#000000">[table]</text>
<polygon fill="none" stroke="#000000" points="476.5,-220.7 476.5,-239.7 627.5,-239.7 627.5,-220.7 476.5,-220.7"/>
<text text-anchor="start" x="479.5" y="-226.8" font-family="Helvetica,sans-Serif" font-size="11.00" fill="#000000">...</text>
<polygon fill="#ffffff" stroke="transparent" points="476.5,-201.7 476.5,-220.7 537.5,-220.7 537.5,-201.7 476.5,-201.7"/>
<polygon fill="none" stroke="#000000" points="476.5,-201.7 476.5,-220.7 537.5,-220.7 537.5,-201.7 476.5,-201.7"/>
<text text-anchor="start" x="479.5" y="-207.8" font-family="Helvetica,sans-Serif" font-size="11.00" fill="#000000">&lt; 5</text>
<polygon fill="#ffffff" stroke="transparent" points="537.5,-201.7 537.5,-220.7 595.5,-220.7 595.5,-201.7 537.5,-201.7"/>
<polygon fill="none" stroke="#000000" points="537.5,-201.7 537.5,-220.7 595.5,-220.7 595.5,-201.7 537.5,-201.7"/>
<text text-anchor="start" x="560.1105" y="-207.8" font-family="Helvetica,sans-Serif" font-size="11.00" fill="#000000">0 rows</text>
<polygon fill="#ffffff" stroke="transparent" points="595.5,-201.7 595.5,-220.7 627.5,-220.7 627.5,-201.7 595.5,-201.7"/>
<polygon fill="none" stroke="#000000" points="595.5,-201.7 595.5,-220.7 627.5,-220.7 627.5,-201.7 595.5,-201.7"/>
<text text-anchor="start" x="618.3862" y="-207.8" font-family="Helvetica,sans-Serif" font-size="11.00" fill="#000000"> &#160;</text>
</a>
</g>
</g>
<!-- wms.inventory_lots&#45;&gt;users -->
<g id="edge12" class="edge">
<title>wms.inventory_lots:w&#45;&gt;users:e</title>
<path fill="none" stroke="#000000" d="M461.6391,-229.7162C306.5,-230.0578 262.2882,-235.7 100,-235.7"/>
<polygon fill="#000000" stroke="#000000" points="468.5,-229.7088 476.5039,-233.3 472.5,-229.7044 476.5,-229.7 476.5,-229.7 476.5,-229.7 472.5,-229.7044 476.4961,-226.1 468.5,-229.7088 468.5,-229.7088"/>
<ellipse fill="none" stroke="#000000" cx="465.3" cy="-229.7123" rx="3.2" ry="3.2"/>
</g>
<!-- wms.inventory_lots&#45;&gt;users -->
<g id="edge13" class="edge">
<title>wms.inventory_lots:w&#45;&gt;users:e</title>
<path fill="none" stroke="#000000" d="M461.6391,-229.7162C306.5,-230.0578 262.2882,-235.7 100,-235.7"/>
<polygon fill="#000000" stroke="#000000" points="468.5,-229.7088 476.5039,-233.3 472.5,-229.7044 476.5,-229.7 476.5,-229.7 476.5,-229.7 472.5,-229.7044 476.4961,-226.1 468.5,-229.7088 468.5,-229.7088"/>
<ellipse fill="none" stroke="#000000" cx="465.3" cy="-229.7123" rx="3.2" ry="3.2"/>
</g>
<!-- wms.inventory_lots&#45;&gt;warehouses -->
<g id="edge14" class="edge">
<title>wms.inventory_lots:w&#45;&gt;warehouses:e</title>
<path fill="none" stroke="#000000" d="M462.2231,-231.835C403.4266,-252.0306 486.8412,-408.7 407,-408.7"/>
<polygon fill="#000000" stroke="#000000" points="468.588,-230.8832 477.0324,-233.2604 472.544,-230.2916 476.5,-229.7 476.5,-229.7 476.5,-229.7 472.544,-230.2916 475.9676,-226.1396 468.588,-230.8832 468.588,-230.8832"/>
<ellipse fill="none" stroke="#000000" cx="465.4232" cy="-231.3565" rx="3.2" ry="3.2"/>
</g>
<!-- wms.outbound_shipments -->
<g id="node7" class="node">
<title>wms.outbound_shipments</title>
<g id="a_node7"><a xlink:href="../../../wms/tables/outbound_shipments.html" xlink:title="wms.outbound_shipments" target="_top">
<polygon fill="#ffffff" stroke="transparent" points="456,-120.2 456,-181.2 647,-181.2 647,-120.2 456,-120.2"/>
<polygon fill="#f5f5f5" stroke="transparent" points="456.5,-157.7 456.5,-180.7 647.5,-180.7 647.5,-157.7 456.5,-157.7"/>
<polygon fill="none" stroke="#000000" points="456.5,-157.7 456.5,-180.7 647.5,-180.7 647.5,-157.7 456.5,-157.7"/>
<text text-anchor="start" x="461.5" y="-166.3" font-family="Helvetica,sans-Serif" font-weight="bold" font-size="11.00" fill="#000000">wms.outbound_shipments</text>
<text text-anchor="start" x="613.0219" y="-165.8" font-family="Helvetica,sans-Serif" font-size="11.00" fill="#000000">[table]</text>
<polygon fill="none" stroke="#000000" points="456.5,-138.7 456.5,-157.7 647.5,-157.7 647.5,-138.7 456.5,-138.7"/>
<text text-anchor="start" x="459.5" y="-144.8" font-family="Helvetica,sans-Serif" font-size="11.00" fill="#000000">...</text>
<polygon fill="#ffffff" stroke="transparent" points="456.5,-119.7 456.5,-138.7 537.5,-138.7 537.5,-119.7 456.5,-119.7"/>
<polygon fill="none" stroke="#000000" points="456.5,-119.7 456.5,-138.7 537.5,-138.7 537.5,-119.7 456.5,-119.7"/>
<text text-anchor="start" x="459.5" y="-125.8" font-family="Helvetica,sans-Serif" font-size="11.00" fill="#000000">&lt; 8</text>
<polygon fill="#ffffff" stroke="transparent" points="537.5,-119.7 537.5,-138.7 605.5,-138.7 605.5,-119.7 537.5,-119.7"/>
<polygon fill="none" stroke="#000000" points="537.5,-119.7 537.5,-138.7 605.5,-138.7 605.5,-119.7 537.5,-119.7"/>
<text text-anchor="start" x="570.1105" y="-125.8" font-family="Helvetica,sans-Serif" font-size="11.00" fill="#000000">0 rows</text>
<polygon fill="#ffffff" stroke="transparent" points="605.5,-119.7 605.5,-138.7 647.5,-138.7 647.5,-119.7 605.5,-119.7"/>
<polygon fill="none" stroke="#000000" points="605.5,-119.7 605.5,-138.7 647.5,-138.7 647.5,-119.7 605.5,-119.7"/>
<text text-anchor="start" x="638.3862" y="-125.8" font-family="Helvetica,sans-Serif" font-size="11.00" fill="#000000"> &#160;</text>
</a>
</g>
</g>
<!-- wms.outbound_shipments&#45;&gt;locations -->
<g id="edge16" class="edge">
<title>wms.outbound_shipments:w&#45;&gt;locations:e</title>
<path fill="none" stroke="#000000" d="M442.2441,-150.4195C433.0171,-154.5847 428.1338,-162.7883 415,-169.7 355.5389,-200.9913 330.2785,-194.0229 281,-239.7 256.0368,-262.8388 274.5377,-304.7 240.5,-304.7"/>
<polygon fill="#000000" stroke="#000000" points="448.6417,-149.1991 457.1746,-151.2362 452.5709,-148.4496 456.5,-147.7 456.5,-147.7 456.5,-147.7 452.5709,-148.4496 455.8254,-144.1638 448.6417,-149.1991 448.6417,-149.1991"/>
<ellipse fill="none" stroke="#000000" cx="445.4984" cy="-149.7988" rx="3.2" ry="3.2"/>
</g>
<!-- wms.outbound_shipments&#45;&gt;users -->
<g id="edge15" class="edge">
<title>wms.outbound_shipments:w&#45;&gt;users:e</title>
<path fill="none" stroke="#000000" d="M441.9848,-147.7585C374.9736,-148.3369 352.53,-153.3816 281,-170.7 239.4629,-180.7567 142.7372,-235.7 100,-235.7"/>
<polygon fill="#000000" stroke="#000000" points="448.5001,-147.7323 456.5145,-151.3 452.5,-147.7161 456.5,-147.7 456.5,-147.7 456.5,-147.7 452.5,-147.7161 456.4855,-144.1 448.5001,-147.7323 448.5001,-147.7323"/>
<ellipse fill="none" stroke="#000000" cx="445.3001" cy="-147.7452" rx="3.2" ry="3.2"/>
</g>
<!-- wms.outbound_shipments&#45;&gt;users -->
<g id="edge17" class="edge">
<title>wms.outbound_shipments:w&#45;&gt;users:e</title>
<path fill="none" stroke="#000000" d="M441.945,-146.7174C374.7806,-142.8166 352.7351,-151.2322 281,-168.7 239.76,-178.7421 142.445,-229.7 100,-235.7"/>
<polygon fill="#000000" stroke="#000000" points="448.5182,-147.1611 456.2575,-151.2918 452.5091,-147.4305 456.5,-147.7 456.5,-147.7 456.5,-147.7 452.5091,-147.4305 456.7425,-144.1082 448.5182,-147.1611 448.5182,-147.1611"/>
<ellipse fill="none" stroke="#000000" cx="445.3254" cy="-146.9455" rx="3.2" ry="3.2"/>
</g>
<!-- wms.outbound_shipments&#45;&gt;users -->
<g id="edge18" class="edge">
<title>wms.outbound_shipments:w&#45;&gt;users:e</title>
<path fill="none" stroke="#000000" d="M441.945,-149.0725C374.7806,-155.8166 352.7351,-164.2322 281,-181.7 239.76,-191.7421 142.445,-242.7 100,-235.7"/>
<polygon fill="#000000" stroke="#000000" points="448.5353,-148.4511 456.838,-151.2841 452.5177,-148.0755 456.5,-147.7 456.5,-147.7 456.5,-147.7 452.5177,-148.0755 456.162,-144.1159 448.5353,-148.4511 448.5353,-148.4511"/>
<ellipse fill="none" stroke="#000000" cx="445.3495" cy="-148.7515" rx="3.2" ry="3.2"/>
</g>
<!-- wms.outbound_shipments&#45;&gt;warehouses -->
<g id="edge19" class="edge">
<title>wms.outbound_shipments:w&#45;&gt;warehouses:e</title>
<path fill="none" stroke="#000000" d="M443.0509,-154.1517C409.2011,-194.3436 460.4995,-408.7 407,-408.7"/>
<polygon fill="#000000" stroke="#000000" points="449.287,-151.1602 458.0571,-150.9458 452.8935,-149.4301 456.5,-147.7 456.5,-147.7 456.5,-147.7 452.8935,-149.4301 454.9429,-144.4542 449.287,-151.1602 449.287,-151.1602"/>
<ellipse fill="none" stroke="#000000" cx="446.4018" cy="-152.5443" rx="3.2" ry="3.2"/>
</g>
<!-- wms.putaway_tasks -->
<g id="node8" class="node">
<title>wms.putaway_tasks</title>
<g id="a_node8"><a xlink:href="../../../wms/tables/putaway_tasks.html" xlink:title="wms.putaway_tasks" target="_top">
<polygon fill="#ffffff" stroke="transparent" points="474.5,-284.2 474.5,-345.2 628.5,-345.2 628.5,-284.2 474.5,-284.2"/>
<polygon fill="#f5f5f5" stroke="transparent" points="474.5,-321.7 474.5,-344.7 628.5,-344.7 628.5,-321.7 474.5,-321.7"/>
<polygon fill="none" stroke="#000000" points="474.5,-321.7 474.5,-344.7 628.5,-344.7 628.5,-321.7 474.5,-321.7"/>
<text text-anchor="start" x="479.5" y="-330.3" font-family="Helvetica,sans-Serif" font-weight="bold" font-size="11.00" fill="#000000">wms.putaway_tasks</text>
<text text-anchor="start" x="594.0219" y="-329.8" font-family="Helvetica,sans-Serif" font-size="11.00" fill="#000000">[table]</text>
<polygon fill="none" stroke="#000000" points="474.5,-302.7 474.5,-321.7 628.5,-321.7 628.5,-302.7 474.5,-302.7"/>
<text text-anchor="start" x="477.5" y="-308.8" font-family="Helvetica,sans-Serif" font-size="11.00" fill="#000000">...</text>
<polygon fill="#ffffff" stroke="transparent" points="474.5,-283.7 474.5,-302.7 536.5,-302.7 536.5,-283.7 474.5,-283.7"/>
<polygon fill="none" stroke="#000000" points="474.5,-283.7 474.5,-302.7 536.5,-302.7 536.5,-283.7 474.5,-283.7"/>
<text text-anchor="start" x="477.5" y="-289.8" font-family="Helvetica,sans-Serif" font-size="11.00" fill="#000000">&lt; 1</text>
<polygon fill="#ffffff" stroke="transparent" points="536.5,-283.7 536.5,-302.7 595.5,-302.7 595.5,-283.7 536.5,-283.7"/>
<polygon fill="none" stroke="#000000" points="536.5,-283.7 536.5,-302.7 595.5,-302.7 595.5,-283.7 536.5,-283.7"/>
<text text-anchor="start" x="560.1105" y="-289.8" font-family="Helvetica,sans-Serif" font-size="11.00" fill="#000000">0 rows</text>
<polygon fill="#ffffff" stroke="transparent" points="595.5,-283.7 595.5,-302.7 628.5,-302.7 628.5,-283.7 595.5,-283.7"/>
<polygon fill="none" stroke="#000000" points="595.5,-283.7 595.5,-302.7 628.5,-302.7 628.5,-283.7 595.5,-283.7"/>
<text text-anchor="start" x="619.3862" y="-289.8" font-family="Helvetica,sans-Serif" font-size="11.00" fill="#000000"> &#160;</text>
</a>
</g>
</g>
<!-- wms.putaway_tasks&#45;&gt;warehouses -->
<g id="edge20" class="edge">
<title>wms.putaway_tasks:w&#45;&gt;warehouses:e</title>
<path fill="none" stroke="#000000" d="M460.2629,-314.9274C429.1133,-331.7583 453.7775,-408.7 407,-408.7"/>
<polygon fill="#000000" stroke="#000000" points="466.6979,-313.4687 475.2959,-315.2109 470.599,-312.5843 474.5,-311.7 474.5,-311.7 474.5,-311.7 470.599,-312.5843 473.7041,-308.1891 466.6979,-313.4687 466.6979,-313.4687"/>
<ellipse fill="none" stroke="#000000" cx="463.5771" cy="-314.1761" rx="3.2" ry="3.2"/>
</g>
<!-- wms.wms_labor_logs -->
<g id="node9" class="node">
<title>wms.wms_labor_logs</title>
<g id="a_node9"><a xlink:href="../../../wms/tables/wms_labor_logs.html" xlink:title="wms.wms_labor_logs" target="_top">
<polygon fill="#ffffff" stroke="transparent" points="470,-38.2 470,-99.2 633,-99.2 633,-38.2 470,-38.2"/>
<polygon fill="#f5f5f5" stroke="transparent" points="470.5,-75.7 470.5,-98.7 633.5,-98.7 633.5,-75.7 470.5,-75.7"/>
<polygon fill="none" stroke="#000000" points="470.5,-75.7 470.5,-98.7 633.5,-98.7 633.5,-75.7 470.5,-75.7"/>
<text text-anchor="start" x="475.5" y="-84.3" font-family="Helvetica,sans-Serif" font-weight="bold" font-size="11.00" fill="#000000">wms.wms_labor_logs</text>
<text text-anchor="start" x="599.0219" y="-83.8" font-family="Helvetica,sans-Serif" font-size="11.00" fill="#000000">[table]</text>
<polygon fill="none" stroke="#000000" points="470.5,-56.7 470.5,-75.7 633.5,-75.7 633.5,-56.7 470.5,-56.7"/>
<text text-anchor="start" x="473.5" y="-62.8" font-family="Helvetica,sans-Serif" font-size="11.00" fill="#000000">...</text>
<polygon fill="#ffffff" stroke="transparent" points="470.5,-37.7 470.5,-56.7 537.5,-56.7 537.5,-37.7 470.5,-37.7"/>
<polygon fill="none" stroke="#000000" points="470.5,-37.7 470.5,-56.7 537.5,-56.7 537.5,-37.7 470.5,-37.7"/>
<text text-anchor="start" x="473.5" y="-43.8" font-family="Helvetica,sans-Serif" font-size="11.00" fill="#000000">&lt; 4</text>
<polygon fill="#ffffff" stroke="transparent" points="537.5,-37.7 537.5,-56.7 598.5,-56.7 598.5,-37.7 537.5,-37.7"/>
<polygon fill="none" stroke="#000000" points="537.5,-37.7 537.5,-56.7 598.5,-56.7 598.5,-37.7 537.5,-37.7"/>
<text text-anchor="start" x="563.1105" y="-43.8" font-family="Helvetica,sans-Serif" font-size="11.00" fill="#000000">0 rows</text>
<polygon fill="#ffffff" stroke="transparent" points="598.5,-37.7 598.5,-56.7 633.5,-56.7 633.5,-37.7 598.5,-37.7"/>
<polygon fill="none" stroke="#000000" points="598.5,-37.7 598.5,-56.7 633.5,-56.7 633.5,-37.7 598.5,-37.7"/>
<text text-anchor="start" x="624.3862" y="-43.8" font-family="Helvetica,sans-Serif" font-size="11.00" fill="#000000"> &#160;</text>
</a>
</g>
</g>
<!-- wms.wms_labor_logs&#45;&gt;users -->
<g id="edge21" class="edge">
<title>wms.wms_labor_logs:w&#45;&gt;users:e</title>
<path fill="none" stroke="#000000" d="M455.8034,-65.7819C311.9079,-67.4339 262.8073,-94.4872 141,-182.7 116.8797,-200.1679 129.7811,-235.7 100,-235.7"/>
<polygon fill="#000000" stroke="#000000" points="462.5001,-65.7446 470.5201,-69.2999 466.5001,-65.7223 470.5,-65.7 470.5,-65.7 470.5,-65.7 466.5001,-65.7223 470.4799,-62.1001 462.5001,-65.7446 462.5001,-65.7446"/>
<ellipse fill="none" stroke="#000000" cx="459.3002" cy="-65.7625" rx="3.2" ry="3.2"/>
</g>
<!-- wms.wms_labor_logs&#45;&gt;users -->
<g id="edge22" class="edge">
<title>wms.wms_labor_logs:w&#45;&gt;users:e</title>
<path fill="none" stroke="#000000" d="M455.754,-65.2367C311.4508,-61.7747 264.49,-93.8389 141,-180.7 117.7743,-197.0367 128.3958,-229.7 100,-235.7"/>
<polygon fill="#000000" stroke="#000000" points="462.5039,-65.4487 470.3869,-69.2982 466.502,-65.5744 470.5,-65.7 470.5,-65.7 470.5,-65.7 466.502,-65.5744 470.6131,-62.1018 462.5039,-65.4487 462.5039,-65.4487"/>
<ellipse fill="none" stroke="#000000" cx="459.3055" cy="-65.3482" rx="3.2" ry="3.2"/>
</g>
<!-- wms.wms_labor_logs&#45;&gt;users -->
<g id="edge23" class="edge">
<title>wms.wms_labor_logs:w&#45;&gt;users:e</title>
<path fill="none" stroke="#000000" d="M455.754,-66.4534C311.4508,-74.7747 264.49,-106.8389 141,-193.7 117.7743,-210.0367 128.3958,-242.7 100,-235.7"/>
<polygon fill="#000000" stroke="#000000" points="462.5104,-66.1083 470.6837,-69.2953 466.5052,-65.9041 470.5,-65.7 470.5,-65.7 470.5,-65.7 466.5052,-65.9041 470.3163,-62.1047 462.5104,-66.1083 462.5104,-66.1083"/>
<ellipse fill="none" stroke="#000000" cx="459.3146" cy="-66.2716" rx="3.2" ry="3.2"/>
</g>
<!-- wms.wms_labor_logs&#45;&gt;warehouses -->
<g id="edge24" class="edge">
<title>wms.wms_labor_logs:w&#45;&gt;warehouses:e</title>
<path fill="none" stroke="#000000" d="M456.5384,-70.5488C405.0189,-112.2386 479.067,-408.7 407,-408.7"/>
<polygon fill="#000000" stroke="#000000" points="462.9428,-68.3246 471.6811,-69.1008 466.7214,-67.0123 470.5,-65.7 470.5,-65.7 470.5,-65.7 466.7214,-67.0123 469.3189,-62.2992 462.9428,-68.3246 462.9428,-68.3246"/>
<ellipse fill="none" stroke="#000000" cx="459.9199" cy="-69.3745" rx="3.2" ry="3.2"/>
</g>
</g>
</svg>
