<?xml version="1.0" encoding="UTF-8" standalone="no"?>
<!DOCTYPE svg PUBLIC "-//W3C//DTD SVG 1.1//EN"
 "http://www.w3.org/Graphics/SVG/1.1/DTD/svg11.dtd">
<!-- Generated by graphviz version 2.40.1 (20161225.0304)
 -->
<!-- Title: oneDegreeRelationshipsDiagram Pages: 1 -->
<svg width="363pt" height="267pt"
 viewBox="0.00 0.00 363.00 266.70" xmlns="http://www.w3.org/2000/svg" xmlns:xlink="http://www.w3.org/1999/xlink">
<g id="graph0" class="graph" transform="scale(1 1) rotate(0) translate(4 262.7)">
<title>oneDegreeRelationshipsDiagram</title>
<polygon fill="#ffffff" stroke="transparent" points="-4,4 -4,-262.7 359,-262.7 359,4 -4,4"/>
<text text-anchor="middle" x="72.4936" y="-7.3" font-family="Helvetica,sans-Serif" font-size="11.00" fill="#000000">Generated by SchemaSpy</text>
<!-- shift_dim -->
<g id="node1" class="node">
<title>shift_dim</title>
<g id="a_node1"><a xlink:href="../../tables/shift_dim.html" xlink:title="shift_dim" target="_top">
<polygon fill="#ffffff" stroke="transparent" points="175,-54.7 175,-254.7 347,-254.7 347,-54.7 175,-54.7"/>
<polygon fill="#f5f5f5" stroke="transparent" points="177,-229.7 177,-252.7 345,-252.7 345,-229.7 177,-229.7"/>
<polygon fill="none" stroke="#000000" points="177,-229.7 177,-252.7 345,-252.7 345,-229.7 177,-229.7"/>
<text text-anchor="start" x="182" y="-238.3" font-family="Helvetica,sans-Serif" font-weight="bold" font-size="11.00" fill="#000000">shift_dim</text>
<text text-anchor="start" x="310.0437" y="-237.8" font-family="Helvetica,sans-Serif" font-size="11.00" fill="#000000">[table]</text>
<polygon fill="none" stroke="#000000" points="177,-207.7 177,-229.7 278,-229.7 278,-207.7 177,-207.7"/>
<image xlink:href="../../images/primaryKeys.png" width="11px" height="12px" preserveAspectRatio="xMinYMin meet" x="182" y="-224.7"/>
<text text-anchor="start" x="197" y="-214.8" font-family="Helvetica,sans-Serif" font-size="11.00" fill="#000000">shift_id</text>
<polygon fill="none" stroke="#000000" points="278,-207.7 278,-229.7 345,-229.7 345,-207.7 278,-207.7"/>
<text text-anchor="start" x="281" y="-215.4" font-family="Helvetica,sans-Serif" font-size="11.00" fill="#000000">int8[19]</text>
<polygon fill="none" stroke="#000000" points="177,-185.7 177,-207.7 278,-207.7 278,-185.7 177,-185.7"/>
<image xlink:href="../../images/foreignKeys.png" width="11px" height="12px" preserveAspectRatio="xMinYMin meet" x="182" y="-202.7"/>
<text text-anchor="start" x="197" y="-192.8" font-family="Helvetica,sans-Serif" font-size="11.00" fill="#000000">warehouse_id</text>
<polygon fill="none" stroke="#000000" points="278,-185.7 278,-207.7 345,-207.7 345,-185.7 278,-185.7"/>
<text text-anchor="start" x="281" y="-193.4" font-family="Helvetica,sans-Serif" font-size="11.00" fill="#000000">int8[19]</text>
<polygon fill="none" stroke="#000000" points="177,-163.7 177,-185.7 278,-185.7 278,-163.7 177,-163.7"/>
<text text-anchor="start" x="197" y="-170.8" font-family="Helvetica,sans-Serif" font-size="11.00" fill="#000000">shift_code</text>
<polygon fill="none" stroke="#000000" points="278,-163.7 278,-185.7 345,-185.7 345,-163.7 278,-163.7"/>
<text text-anchor="start" x="281" y="-171.4" font-family="Helvetica,sans-Serif" font-size="11.00" fill="#000000">varchar[50]</text>
<polygon fill="none" stroke="#000000" points="177,-141.7 177,-163.7 278,-163.7 278,-141.7 177,-141.7"/>
<text text-anchor="start" x="197" y="-148.8" font-family="Helvetica,sans-Serif" font-size="11.00" fill="#000000">description</text>
<polygon fill="none" stroke="#000000" points="278,-141.7 278,-163.7 345,-163.7 345,-141.7 278,-141.7"/>
<text text-anchor="start" x="280.9365" y="-149.4" font-family="Helvetica,sans-Serif" font-size="11.00" fill="#000000">varchar[200]</text>
<polygon fill="none" stroke="#000000" points="177,-119.7 177,-141.7 278,-141.7 278,-119.7 177,-119.7"/>
<text text-anchor="start" x="197" y="-126.8" font-family="Helvetica,sans-Serif" font-size="11.00" fill="#000000">start_time</text>
<polygon fill="none" stroke="#000000" points="278,-119.7 278,-141.7 345,-141.7 345,-119.7 278,-119.7"/>
<text text-anchor="start" x="281" y="-127.4" font-family="Helvetica,sans-Serif" font-size="11.00" fill="#000000">time[15,6]</text>
<polygon fill="none" stroke="#000000" points="177,-97.7 177,-119.7 278,-119.7 278,-97.7 177,-97.7"/>
<text text-anchor="start" x="197" y="-104.8" font-family="Helvetica,sans-Serif" font-size="11.00" fill="#000000">end_time</text>
<polygon fill="none" stroke="#000000" points="278,-97.7 278,-119.7 345,-119.7 345,-97.7 278,-97.7"/>
<text text-anchor="start" x="281" y="-105.4" font-family="Helvetica,sans-Serif" font-size="11.00" fill="#000000">time[15,6]</text>
<polygon fill="none" stroke="#000000" points="177,-75.7 177,-97.7 278,-97.7 278,-75.7 177,-75.7"/>
<text text-anchor="start" x="197" y="-82.8" font-family="Helvetica,sans-Serif" font-size="11.00" fill="#000000">is_active</text>
<polygon fill="none" stroke="#000000" points="278,-75.7 278,-97.7 345,-97.7 345,-75.7 278,-75.7"/>
<text text-anchor="start" x="281" y="-83.4" font-family="Helvetica,sans-Serif" font-size="11.00" fill="#000000">bool[1]</text>
<polygon fill="#ffffff" stroke="transparent" points="177,-56.7 177,-75.7 232,-75.7 232,-56.7 177,-56.7"/>
<polygon fill="none" stroke="#000000" points="177,-56.7 177,-75.7 232,-75.7 232,-56.7 177,-56.7"/>
<text text-anchor="start" x="180" y="-62.8" font-family="Helvetica,sans-Serif" font-size="11.00" fill="#000000">&lt; 1</text>
<polygon fill="#ffffff" stroke="transparent" points="232,-56.7 232,-75.7 278,-75.7 278,-56.7 232,-56.7"/>
<polygon fill="none" stroke="#000000" points="232,-56.7 232,-75.7 278,-75.7 278,-56.7 232,-56.7"/>
<text text-anchor="start" x="268.8862" y="-62.8" font-family="Helvetica,sans-Serif" font-size="11.00" fill="#000000"> &#160;</text>
<polygon fill="#ffffff" stroke="transparent" points="278,-56.7 278,-75.7 345,-75.7 345,-56.7 278,-56.7"/>
<polygon fill="none" stroke="#000000" points="278,-56.7 278,-75.7 345,-75.7 345,-56.7 278,-56.7"/>
<text text-anchor="start" x="326.4053" y="-62.8" font-family="Helvetica,sans-Serif" font-size="11.00" fill="#000000">0 &gt;</text>
<polygon fill="none" stroke="#000000" stroke-width="2" points="176,-55.7 176,-253.7 346,-253.7 346,-55.7 176,-55.7"/>
</a>
</g>
</g>
<!-- warehouses -->
<g id="node2" class="node">
<title>warehouses</title>
<g id="a_node2"><a xlink:href="../../tables/warehouses.html" xlink:title="warehouses" target="_top">
<polygon fill="#ffffff" stroke="transparent" points="8,-38.2 8,-231.2 126,-231.2 126,-38.2 8,-38.2"/>
<polygon fill="#f5f5f5" stroke="transparent" points="8,-207.7 8,-230.7 126,-230.7 126,-207.7 8,-207.7"/>
<polygon fill="none" stroke="#000000" points="8,-207.7 8,-230.7 126,-230.7 126,-207.7 8,-207.7"/>
<text text-anchor="start" x="13" y="-216.3" font-family="Helvetica,sans-Serif" font-weight="bold" font-size="11.00" fill="#000000">warehouses</text>
<text text-anchor="start" x="91.0437" y="-215.8" font-family="Helvetica,sans-Serif" font-size="11.00" fill="#000000">[table]</text>
<polygon fill="none" stroke="#000000" points="8,-185.7 8,-207.7 126,-207.7 126,-185.7 8,-185.7"/>
<image xlink:href="../../images/primaryKeys.png" width="11px" height="12px" preserveAspectRatio="xMinYMin meet" x="13" y="-202.7"/>
<text text-anchor="start" x="28" y="-192.8" font-family="Helvetica,sans-Serif" font-size="11.00" fill="#000000">warehouse_id</text>
<polygon fill="none" stroke="#000000" points="8,-163.7 8,-185.7 126,-185.7 126,-163.7 8,-163.7"/>
<image xlink:href="../../images/foreignKeys.png" width="11px" height="12px" preserveAspectRatio="xMinYMin meet" x="13" y="-180.7"/>
<text text-anchor="start" x="28" y="-170.8" font-family="Helvetica,sans-Serif" font-size="11.00" fill="#000000">location_id</text>
<polygon fill="#ffffff" stroke="transparent" points="8,-141.7 8,-163.7 126,-163.7 126,-141.7 8,-141.7"/>
<polygon fill="none" stroke="#000000" points="8,-141.7 8,-163.7 126,-163.7 126,-141.7 8,-141.7"/>
<text text-anchor="start" x="28" y="-148.8" font-family="Helvetica,sans-Serif" font-size="11.00" fill="#000000">warehouse_code</text>
<polygon fill="none" stroke="#000000" points="8,-119.7 8,-141.7 126,-141.7 126,-119.7 8,-119.7"/>
<image xlink:href="../../images/foreignKeys.png" width="11px" height="12px" preserveAspectRatio="xMinYMin meet" x="13" y="-136.7"/>
<text text-anchor="start" x="28" y="-126.8" font-family="Helvetica,sans-Serif" font-size="11.00" fill="#000000">contact_user_id</text>
<polygon fill="none" stroke="#000000" points="8,-97.7 8,-119.7 126,-119.7 126,-97.7 8,-97.7"/>
<image xlink:href="../../images/foreignKeys.png" width="11px" height="12px" preserveAspectRatio="xMinYMin meet" x="13" y="-114.7"/>
<text text-anchor="start" x="28" y="-104.8" font-family="Helvetica,sans-Serif" font-size="11.00" fill="#000000">created_by</text>
<polygon fill="none" stroke="#000000" points="8,-75.7 8,-97.7 126,-97.7 126,-75.7 8,-75.7"/>
<image xlink:href="../../images/foreignKeys.png" width="11px" height="12px" preserveAspectRatio="xMinYMin meet" x="13" y="-92.7"/>
<text text-anchor="start" x="28" y="-82.8" font-family="Helvetica,sans-Serif" font-size="11.00" fill="#000000">updated_by</text>
<polygon fill="none" stroke="#000000" points="8,-56.7 8,-75.7 126,-75.7 126,-56.7 8,-56.7"/>
<text text-anchor="start" x="11" y="-62.8" font-family="Helvetica,sans-Serif" font-size="11.00" fill="#000000">...</text>
<polygon fill="#ffffff" stroke="transparent" points="8,-37.7 8,-56.7 61,-56.7 61,-37.7 8,-37.7"/>
<polygon fill="none" stroke="#000000" points="8,-37.7 8,-56.7 61,-56.7 61,-37.7 8,-37.7"/>
<text text-anchor="start" x="11" y="-43.8" font-family="Helvetica,sans-Serif" font-size="11.00" fill="#000000">&lt; 4</text>
<polygon fill="#ffffff" stroke="transparent" points="61,-37.7 61,-56.7 89,-56.7 89,-37.7 61,-37.7"/>
<polygon fill="none" stroke="#000000" points="61,-37.7 61,-56.7 89,-56.7 89,-37.7 61,-37.7"/>
<text text-anchor="start" x="79.8862" y="-43.8" font-family="Helvetica,sans-Serif" font-size="11.00" fill="#000000"> &#160;</text>
<polygon fill="#ffffff" stroke="transparent" points="89,-37.7 89,-56.7 126,-56.7 126,-37.7 89,-37.7"/>
<polygon fill="none" stroke="#000000" points="89,-37.7 89,-56.7 126,-56.7 126,-37.7 89,-37.7"/>
<text text-anchor="start" x="107.4053" y="-43.8" font-family="Helvetica,sans-Serif" font-size="11.00" fill="#000000">6 &gt;</text>
</a>
</g>
</g>
<!-- shift_dim&#45;&gt;warehouses -->
<g id="edge1" class="edge">
<title>shift_dim:w&#45;&gt;warehouses:e</title>
<path fill="none" stroke="#000000" d="M162.276,-196.7C150.2815,-196.7 142.8229,-196.7 126,-196.7"/>
<polygon fill="#000000" stroke="#000000" points="169,-196.7001 177,-200.3 173,-196.7 177,-196.7 177,-196.7 177,-196.7 173,-196.7 177,-193.1 169,-196.7001 169,-196.7001"/>
<ellipse fill="none" stroke="#000000" cx="165.8" cy="-196.7001" rx="3.2" ry="3.2"/>
</g>
</g>
</svg>
