<?xml version="1.0" encoding="UTF-8" standalone="no"?>
<!DOCTYPE svg PUBLIC "-//W3C//DTD SVG 1.1//EN"
 "http://www.w3.org/Graphics/SVG/1.1/DTD/svg11.dtd">
<!-- Generated by graphviz version 2.40.1 (20161225.0304)
 -->
<!-- Title: oneDegreeRelationshipsDiagram Pages: 1 -->
<svg width="797pt" height="638pt"
 viewBox="0.00 0.00 797.00 637.96" xmlns="http://www.w3.org/2000/svg" xmlns:xlink="http://www.w3.org/1999/xlink">
<g id="graph0" class="graph" transform="scale(1 1) rotate(0) translate(4 633.9575)">
<title>oneDegreeRelationshipsDiagram</title>
<polygon fill="#ffffff" stroke="transparent" points="-4,4 -4,-633.9575 793,-633.9575 793,4 -4,4"/>
<text text-anchor="middle" x="72.4936" y="-7.3" font-family="Helvetica,sans-Serif" font-size="11.00" fill="#000000">Generated by SchemaSpy</text>
<!-- departments -->
<g id="node1" class="node">
<title>departments</title>
<g id="a_node1"><a xlink:href="../../tables/departments.html" xlink:title="departments" target="_top">
<polygon fill="#ffffff" stroke="transparent" points="168,-201.2 168,-372.2 279,-372.2 279,-201.2 168,-201.2"/>
<polygon fill="#f5f5f5" stroke="transparent" points="168.5,-348.7 168.5,-371.7 279.5,-371.7 279.5,-348.7 168.5,-348.7"/>
<polygon fill="none" stroke="#000000" points="168.5,-348.7 168.5,-371.7 279.5,-371.7 279.5,-348.7 168.5,-348.7"/>
<text text-anchor="start" x="173.5" y="-357.3" font-family="Helvetica,sans-Serif" font-weight="bold" font-size="11.00" fill="#000000">departments</text>
<text text-anchor="start" x="245.0219" y="-356.8" font-family="Helvetica,sans-Serif" font-size="11.00" fill="#000000">[table]</text>
<polygon fill="none" stroke="#000000" points="168.5,-326.7 168.5,-348.7 279.5,-348.7 279.5,-326.7 168.5,-326.7"/>
<image xlink:href="../../images/primaryKeys.png" width="11px" height="12px" preserveAspectRatio="xMinYMin meet" x="173.5" y="-343.7"/>
<text text-anchor="start" x="197.5" y="-333.8" font-family="Helvetica,sans-Serif" font-size="11.00" fill="#000000">id</text>
<polygon fill="#ffffff" stroke="transparent" points="168.5,-304.7 168.5,-326.7 279.5,-326.7 279.5,-304.7 168.5,-304.7"/>
<polygon fill="none" stroke="#000000" points="168.5,-304.7 168.5,-326.7 279.5,-326.7 279.5,-304.7 168.5,-304.7"/>
<text text-anchor="start" x="197.5" y="-311.8" font-family="Helvetica,sans-Serif" font-size="11.00" fill="#000000">code</text>
<polygon fill="none" stroke="#000000" points="168.5,-282.7 168.5,-304.7 279.5,-304.7 279.5,-282.7 168.5,-282.7"/>
<image xlink:href="../../images/foreignKeys.png" width="11px" height="12px" preserveAspectRatio="xMinYMin meet" x="173.5" y="-299.7"/>
<text text-anchor="start" x="197.5" y="-289.8" font-family="Helvetica,sans-Serif" font-size="11.00" fill="#000000">parent_id</text>
<polygon fill="none" stroke="#000000" points="168.5,-260.7 168.5,-282.7 279.5,-282.7 279.5,-260.7 168.5,-260.7"/>
<image xlink:href="../../images/foreignKeys.png" width="11px" height="12px" preserveAspectRatio="xMinYMin meet" x="173.5" y="-277.7"/>
<text text-anchor="start" x="197.5" y="-267.8" font-family="Helvetica,sans-Serif" font-size="11.00" fill="#000000">created_by</text>
<polygon fill="none" stroke="#000000" points="168.5,-238.7 168.5,-260.7 279.5,-260.7 279.5,-238.7 168.5,-238.7"/>
<image xlink:href="../../images/foreignKeys.png" width="11px" height="12px" preserveAspectRatio="xMinYMin meet" x="173.5" y="-255.7"/>
<text text-anchor="start" x="197.5" y="-245.8" font-family="Helvetica,sans-Serif" font-size="11.00" fill="#000000">updated_by</text>
<polygon fill="none" stroke="#000000" points="168.5,-219.7 168.5,-238.7 279.5,-238.7 279.5,-219.7 168.5,-219.7"/>
<text text-anchor="start" x="171.5" y="-225.8" font-family="Helvetica,sans-Serif" font-size="11.00" fill="#000000">...</text>
<polygon fill="#ffffff" stroke="transparent" points="168.5,-200.7 168.5,-219.7 201.5,-219.7 201.5,-200.7 168.5,-200.7"/>
<polygon fill="none" stroke="#000000" points="168.5,-200.7 168.5,-219.7 201.5,-219.7 201.5,-200.7 168.5,-200.7"/>
<text text-anchor="start" x="171.5" y="-206.8" font-family="Helvetica,sans-Serif" font-size="11.00" fill="#000000">&lt; 3</text>
<polygon fill="#ffffff" stroke="transparent" points="201.5,-200.7 201.5,-219.7 251.5,-219.7 251.5,-200.7 201.5,-200.7"/>
<polygon fill="none" stroke="#000000" points="201.5,-200.7 201.5,-219.7 251.5,-219.7 251.5,-200.7 201.5,-200.7"/>
<text text-anchor="start" x="209.9956" y="-206.8" font-family="Helvetica,sans-Serif" font-size="11.00" fill="#000000">11 rows</text>
<polygon fill="#ffffff" stroke="transparent" points="251.5,-200.7 251.5,-219.7 279.5,-219.7 279.5,-200.7 251.5,-200.7"/>
<polygon fill="none" stroke="#000000" points="251.5,-200.7 251.5,-219.7 279.5,-219.7 279.5,-200.7 251.5,-200.7"/>
<text text-anchor="start" x="260.9053" y="-206.8" font-family="Helvetica,sans-Serif" font-size="11.00" fill="#000000">3 &gt;</text>
</a>
</g>
</g>
<!-- users -->
<g id="node2" class="node">
<title>users</title>
<g id="a_node2"><a xlink:href="../../tables/users.html" xlink:title="users" target="_top">
<polygon fill="#ffffff" stroke="transparent" points="8,-175.2 8,-368.2 119,-368.2 119,-175.2 8,-175.2"/>
<polygon fill="#f5f5f5" stroke="transparent" points="8.5,-344.7 8.5,-367.7 119.5,-367.7 119.5,-344.7 8.5,-344.7"/>
<polygon fill="none" stroke="#000000" points="8.5,-344.7 8.5,-367.7 119.5,-367.7 119.5,-344.7 8.5,-344.7"/>
<text text-anchor="start" x="13.5" y="-353.3" font-family="Helvetica,sans-Serif" font-weight="bold" font-size="11.00" fill="#000000">users</text>
<text text-anchor="start" x="84.5437" y="-352.8" font-family="Helvetica,sans-Serif" font-size="11.00" fill="#000000">[table]</text>
<polygon fill="none" stroke="#000000" points="8.5,-322.7 8.5,-344.7 119.5,-344.7 119.5,-322.7 8.5,-322.7"/>
<image xlink:href="../../images/primaryKeys.png" width="11px" height="12px" preserveAspectRatio="xMinYMin meet" x="13.5" y="-339.7"/>
<text text-anchor="start" x="28.5" y="-329.8" font-family="Helvetica,sans-Serif" font-size="11.00" fill="#000000">id</text>
<polygon fill="#ffffff" stroke="transparent" points="8.5,-300.7 8.5,-322.7 119.5,-322.7 119.5,-300.7 8.5,-300.7"/>
<polygon fill="none" stroke="#000000" points="8.5,-300.7 8.5,-322.7 119.5,-322.7 119.5,-300.7 8.5,-300.7"/>
<text text-anchor="start" x="28.5" y="-307.8" font-family="Helvetica,sans-Serif" font-size="11.00" fill="#000000">username</text>
<polygon fill="#ffffff" stroke="transparent" points="8.5,-278.7 8.5,-300.7 119.5,-300.7 119.5,-278.7 8.5,-278.7"/>
<polygon fill="none" stroke="#000000" points="8.5,-278.7 8.5,-300.7 119.5,-300.7 119.5,-278.7 8.5,-278.7"/>
<text text-anchor="start" x="28.5" y="-285.8" font-family="Helvetica,sans-Serif" font-size="11.00" fill="#000000">email</text>
<polygon fill="#ffffff" stroke="transparent" points="8.5,-256.7 8.5,-278.7 119.5,-278.7 119.5,-256.7 8.5,-256.7"/>
<polygon fill="none" stroke="#000000" points="8.5,-256.7 8.5,-278.7 119.5,-278.7 119.5,-256.7 8.5,-256.7"/>
<image xlink:href="../../images/foreignKeys.png" width="11px" height="12px" preserveAspectRatio="xMinYMin meet" x="13.5" y="-273.7"/>
<text text-anchor="start" x="28.5" y="-263.8" font-family="Helvetica,sans-Serif" font-size="11.00" fill="#000000">department_id</text>
<polygon fill="none" stroke="#000000" points="8.5,-234.7 8.5,-256.7 119.5,-256.7 119.5,-234.7 8.5,-234.7"/>
<image xlink:href="../../images/foreignKeys.png" width="11px" height="12px" preserveAspectRatio="xMinYMin meet" x="13.5" y="-251.7"/>
<text text-anchor="start" x="28.5" y="-241.8" font-family="Helvetica,sans-Serif" font-size="11.00" fill="#000000">created_by</text>
<polygon fill="none" stroke="#000000" points="8.5,-212.7 8.5,-234.7 119.5,-234.7 119.5,-212.7 8.5,-212.7"/>
<image xlink:href="../../images/foreignKeys.png" width="11px" height="12px" preserveAspectRatio="xMinYMin meet" x="13.5" y="-229.7"/>
<text text-anchor="start" x="28.5" y="-219.8" font-family="Helvetica,sans-Serif" font-size="11.00" fill="#000000">updated_by</text>
<polygon fill="none" stroke="#000000" points="8.5,-193.7 8.5,-212.7 119.5,-212.7 119.5,-193.7 8.5,-193.7"/>
<text text-anchor="start" x="11.5" y="-199.8" font-family="Helvetica,sans-Serif" font-size="11.00" fill="#000000">...</text>
<polygon fill="#ffffff" stroke="transparent" points="8.5,-174.7 8.5,-193.7 38.5,-193.7 38.5,-174.7 8.5,-174.7"/>
<polygon fill="none" stroke="#000000" points="8.5,-174.7 8.5,-193.7 38.5,-193.7 38.5,-174.7 8.5,-174.7"/>
<text text-anchor="start" x="11.5" y="-180.8" font-family="Helvetica,sans-Serif" font-size="11.00" fill="#000000">&lt; 3</text>
<polygon fill="#ffffff" stroke="transparent" points="38.5,-174.7 38.5,-193.7 87.5,-193.7 87.5,-174.7 38.5,-174.7"/>
<polygon fill="none" stroke="#000000" points="38.5,-174.7 38.5,-193.7 87.5,-193.7 87.5,-174.7 38.5,-174.7"/>
<text text-anchor="start" x="45.9956" y="-180.8" font-family="Helvetica,sans-Serif" font-size="11.00" fill="#000000">10 rows</text>
<polygon fill="#ffffff" stroke="transparent" points="87.5,-174.7 87.5,-193.7 119.5,-193.7 119.5,-174.7 87.5,-174.7"/>
<polygon fill="none" stroke="#000000" points="87.5,-174.7 87.5,-193.7 119.5,-193.7 119.5,-174.7 87.5,-174.7"/>
<text text-anchor="start" x="94.7904" y="-180.8" font-family="Helvetica,sans-Serif" font-size="11.00" fill="#000000">66 &gt;</text>
</a>
</g>
</g>
<!-- departments&#45;&gt;users -->
<g id="edge1" class="edge">
<title>departments:w&#45;&gt;users:e</title>
<path fill="none" stroke="#000000" d="M154.8131,-276.565C139.0154,-291.181 148.5857,-333.7 119.5,-333.7"/>
<polygon fill="#000000" stroke="#000000" points="160.962,-274.3794 169.7057,-275.0921 164.731,-273.0397 168.5,-271.7 168.5,-271.7 168.5,-271.7 164.731,-273.0397 167.2943,-268.3079 160.962,-274.3794 160.962,-274.3794"/>
<ellipse fill="none" stroke="#000000" cx="157.9468" cy="-275.4512" rx="3.2" ry="3.2"/>
</g>
<!-- departments&#45;&gt;users -->
<g id="edge2" class="edge">
<title>departments:w&#45;&gt;users:e</title>
<path fill="none" stroke="#000000" d="M154.603,-254.2162C134.2145,-271.6639 156.643,-333.7 119.5,-333.7"/>
<polygon fill="#000000" stroke="#000000" points="160.8917,-252.1726 169.6127,-253.1237 164.6958,-250.9363 168.5,-249.7 168.5,-249.7 168.5,-249.7 164.6958,-250.9363 167.3873,-246.2763 160.8917,-252.1726 160.8917,-252.1726"/>
<ellipse fill="none" stroke="#000000" cx="157.8483" cy="-253.1616" rx="3.2" ry="3.2"/>
</g>
<!-- users&#45;&gt;departments -->
<g id="edge6" class="edge">
<title>users:w&#45;&gt;departments:e</title>
<path fill="none" stroke="#000000" d="M19.8623,-258.4472C49.5219,-234.294 127,-171.2 127,-171.2 197.249,-231.045 89.751,-316.355 160,-376.2 160,-376.2 279.5,-337.7 279.5,-337.7"/>
<polygon fill="#000000" stroke="#000000" points="14.7033,-262.6483 6.2268,-264.9085 11.6017,-265.1742 8.5,-267.7 8.5,-267.7 8.5,-267.7 11.6017,-265.1742 10.7732,-270.4915 14.7033,-262.6483 14.7033,-262.6483"/>
<ellipse fill="none" stroke="#000000" cx="17.1846" cy="-260.6277" rx="3.2" ry="3.2"/>
</g>
<!-- trailers -->
<g id="node3" class="node">
<title>trailers</title>
<g id="a_node3"><a xlink:href="../../tables/trailers.html" xlink:title="trailers" target="_top">
<polygon fill="#ffffff" stroke="transparent" points="328,-200.7 328,-532.7 541,-532.7 541,-200.7 328,-200.7"/>
<polygon fill="#f5f5f5" stroke="transparent" points="330.5,-507.7 330.5,-530.7 539.5,-530.7 539.5,-507.7 330.5,-507.7"/>
<polygon fill="none" stroke="#000000" points="330.5,-507.7 330.5,-530.7 539.5,-530.7 539.5,-507.7 330.5,-507.7"/>
<text text-anchor="start" x="335.5" y="-516.3" font-family="Helvetica,sans-Serif" font-weight="bold" font-size="11.00" fill="#000000">trailers</text>
<text text-anchor="start" x="504.5437" y="-515.8" font-family="Helvetica,sans-Serif" font-size="11.00" fill="#000000">[table]</text>
<polygon fill="none" stroke="#000000" points="330.5,-485.7 330.5,-507.7 447.5,-507.7 447.5,-485.7 330.5,-485.7"/>
<image xlink:href="../../images/primaryKeys.png" width="11px" height="12px" preserveAspectRatio="xMinYMin meet" x="335.5" y="-502.7"/>
<text text-anchor="start" x="350.5" y="-492.8" font-family="Helvetica,sans-Serif" font-size="11.00" fill="#000000">trailer_id</text>
<polygon fill="none" stroke="#000000" points="447.5,-485.7 447.5,-507.7 539.5,-507.7 539.5,-485.7 447.5,-485.7"/>
<text text-anchor="start" x="450.5" y="-493.4" font-family="Helvetica,sans-Serif" font-size="11.00" fill="#000000">int8[19]</text>
<polygon fill="none" stroke="#000000" points="330.5,-463.7 330.5,-485.7 447.5,-485.7 447.5,-463.7 330.5,-463.7"/>
<image xlink:href="../../images/foreignKeys.png" width="11px" height="12px" preserveAspectRatio="xMinYMin meet" x="335.5" y="-480.7"/>
<text text-anchor="start" x="350.5" y="-470.8" font-family="Helvetica,sans-Serif" font-size="11.00" fill="#000000">department_id</text>
<polygon fill="none" stroke="#000000" points="447.5,-463.7 447.5,-485.7 539.5,-485.7 539.5,-463.7 447.5,-463.7"/>
<text text-anchor="start" x="450.5" y="-471.4" font-family="Helvetica,sans-Serif" font-size="11.00" fill="#000000">int8[19]</text>
<polygon fill="#ffffff" stroke="transparent" points="330.5,-441.7 330.5,-463.7 447.5,-463.7 447.5,-441.7 330.5,-441.7"/>
<polygon fill="none" stroke="#000000" points="330.5,-441.7 330.5,-463.7 447.5,-463.7 447.5,-441.7 330.5,-441.7"/>
<text text-anchor="start" x="350.5" y="-448.8" font-family="Helvetica,sans-Serif" font-size="11.00" fill="#000000">trailer_code</text>
<polygon fill="none" stroke="#000000" points="447.5,-441.7 447.5,-463.7 539.5,-463.7 539.5,-441.7 447.5,-441.7"/>
<text text-anchor="start" x="450.5" y="-449.4" font-family="Helvetica,sans-Serif" font-size="11.00" fill="#000000">varchar[50]</text>
<polygon fill="none" stroke="#000000" points="330.5,-419.7 330.5,-441.7 447.5,-441.7 447.5,-419.7 330.5,-419.7"/>
<text text-anchor="start" x="350.5" y="-426.8" font-family="Helvetica,sans-Serif" font-size="11.00" fill="#000000">trailer_type</text>
<polygon fill="none" stroke="#000000" points="447.5,-419.7 447.5,-441.7 539.5,-441.7 539.5,-419.7 447.5,-419.7"/>
<text text-anchor="start" x="450.5" y="-427.4" font-family="Helvetica,sans-Serif" font-size="11.00" fill="#000000">varchar[50]</text>
<polygon fill="none" stroke="#000000" points="330.5,-397.7 330.5,-419.7 447.5,-419.7 447.5,-397.7 330.5,-397.7"/>
<text text-anchor="start" x="350.5" y="-404.8" font-family="Helvetica,sans-Serif" font-size="11.00" fill="#000000">length_feet</text>
<polygon fill="none" stroke="#000000" points="447.5,-397.7 447.5,-419.7 539.5,-419.7 539.5,-397.7 447.5,-397.7"/>
<text text-anchor="start" x="450.5" y="-405.4" font-family="Helvetica,sans-Serif" font-size="11.00" fill="#000000">numeric[5,2]</text>
<polygon fill="none" stroke="#000000" points="330.5,-375.7 330.5,-397.7 447.5,-397.7 447.5,-375.7 330.5,-375.7"/>
<text text-anchor="start" x="350.5" y="-382.8" font-family="Helvetica,sans-Serif" font-size="11.00" fill="#000000">capacity_weight</text>
<polygon fill="none" stroke="#000000" points="447.5,-375.7 447.5,-397.7 539.5,-397.7 539.5,-375.7 447.5,-375.7"/>
<text text-anchor="start" x="450.5" y="-383.4" font-family="Helvetica,sans-Serif" font-size="11.00" fill="#000000">numeric[12,2]</text>
<polygon fill="none" stroke="#000000" points="330.5,-353.7 330.5,-375.7 447.5,-375.7 447.5,-353.7 330.5,-353.7"/>
<text text-anchor="start" x="350.5" y="-360.8" font-family="Helvetica,sans-Serif" font-size="11.00" fill="#000000">capacity_volume</text>
<polygon fill="none" stroke="#000000" points="447.5,-353.7 447.5,-375.7 539.5,-375.7 539.5,-353.7 447.5,-353.7"/>
<text text-anchor="start" x="450.5" y="-361.4" font-family="Helvetica,sans-Serif" font-size="11.00" fill="#000000">numeric[12,2]</text>
<polygon fill="none" stroke="#000000" points="330.5,-331.7 330.5,-353.7 447.5,-353.7 447.5,-331.7 330.5,-331.7"/>
<text text-anchor="start" x="350.5" y="-338.8" font-family="Helvetica,sans-Serif" font-size="11.00" fill="#000000">status</text>
<polygon fill="none" stroke="#000000" points="447.5,-331.7 447.5,-353.7 539.5,-353.7 539.5,-331.7 447.5,-331.7"/>
<text text-anchor="start" x="450.5" y="-339.4" font-family="Helvetica,sans-Serif" font-size="11.00" fill="#000000">varchar[50]</text>
<polygon fill="none" stroke="#000000" points="330.5,-309.7 330.5,-331.7 447.5,-331.7 447.5,-309.7 330.5,-309.7"/>
<text text-anchor="start" x="350.5" y="-316.8" font-family="Helvetica,sans-Serif" font-size="11.00" fill="#000000">notes</text>
<polygon fill="none" stroke="#000000" points="447.5,-309.7 447.5,-331.7 539.5,-331.7 539.5,-309.7 447.5,-309.7"/>
<text text-anchor="start" x="450.5" y="-317.4" font-family="Helvetica,sans-Serif" font-size="11.00" fill="#000000">text[2147483647]</text>
<polygon fill="none" stroke="#000000" points="330.5,-287.7 330.5,-309.7 447.5,-309.7 447.5,-287.7 330.5,-287.7"/>
<text text-anchor="start" x="350.5" y="-294.8" font-family="Helvetica,sans-Serif" font-size="11.00" fill="#000000">created_at</text>
<polygon fill="none" stroke="#000000" points="447.5,-287.7 447.5,-309.7 539.5,-309.7 539.5,-287.7 447.5,-287.7"/>
<text text-anchor="start" x="450.1023" y="-295.4" font-family="Helvetica,sans-Serif" font-size="11.00" fill="#000000">timestamptz[35,6]</text>
<polygon fill="none" stroke="#000000" points="330.5,-265.7 330.5,-287.7 447.5,-287.7 447.5,-265.7 330.5,-265.7"/>
<text text-anchor="start" x="350.5" y="-272.8" font-family="Helvetica,sans-Serif" font-size="11.00" fill="#000000">updated_at</text>
<polygon fill="none" stroke="#000000" points="447.5,-265.7 447.5,-287.7 539.5,-287.7 539.5,-265.7 447.5,-265.7"/>
<text text-anchor="start" x="450.1023" y="-273.4" font-family="Helvetica,sans-Serif" font-size="11.00" fill="#000000">timestamptz[35,6]</text>
<polygon fill="none" stroke="#000000" points="330.5,-243.7 330.5,-265.7 447.5,-265.7 447.5,-243.7 330.5,-243.7"/>
<image xlink:href="../../images/foreignKeys.png" width="11px" height="12px" preserveAspectRatio="xMinYMin meet" x="335.5" y="-260.7"/>
<text text-anchor="start" x="350.5" y="-250.8" font-family="Helvetica,sans-Serif" font-size="11.00" fill="#000000">created_by</text>
<polygon fill="none" stroke="#000000" points="447.5,-243.7 447.5,-265.7 539.5,-265.7 539.5,-243.7 447.5,-243.7"/>
<text text-anchor="start" x="450.5" y="-251.4" font-family="Helvetica,sans-Serif" font-size="11.00" fill="#000000">int8[19]</text>
<polygon fill="none" stroke="#000000" points="330.5,-221.7 330.5,-243.7 447.5,-243.7 447.5,-221.7 330.5,-221.7"/>
<image xlink:href="../../images/foreignKeys.png" width="11px" height="12px" preserveAspectRatio="xMinYMin meet" x="335.5" y="-238.7"/>
<text text-anchor="start" x="350.5" y="-228.8" font-family="Helvetica,sans-Serif" font-size="11.00" fill="#000000">updated_by</text>
<polygon fill="none" stroke="#000000" points="447.5,-221.7 447.5,-243.7 539.5,-243.7 539.5,-221.7 447.5,-221.7"/>
<text text-anchor="start" x="450.5" y="-229.4" font-family="Helvetica,sans-Serif" font-size="11.00" fill="#000000">int8[19]</text>
<polygon fill="#ffffff" stroke="transparent" points="330.5,-202.7 330.5,-221.7 393.5,-221.7 393.5,-202.7 330.5,-202.7"/>
<polygon fill="none" stroke="#000000" points="330.5,-202.7 330.5,-221.7 393.5,-221.7 393.5,-202.7 330.5,-202.7"/>
<text text-anchor="start" x="333.5" y="-208.8" font-family="Helvetica,sans-Serif" font-size="11.00" fill="#000000">&lt; 3</text>
<polygon fill="#ffffff" stroke="transparent" points="393.5,-202.7 393.5,-221.7 447.5,-221.7 447.5,-202.7 393.5,-202.7"/>
<polygon fill="none" stroke="#000000" points="393.5,-202.7 393.5,-221.7 447.5,-221.7 447.5,-202.7 393.5,-202.7"/>
<text text-anchor="start" x="438.3862" y="-208.8" font-family="Helvetica,sans-Serif" font-size="11.00" fill="#000000"> &#160;</text>
<polygon fill="#ffffff" stroke="transparent" points="447.5,-202.7 447.5,-221.7 539.5,-221.7 539.5,-202.7 447.5,-202.7"/>
<polygon fill="none" stroke="#000000" points="447.5,-202.7 447.5,-221.7 539.5,-221.7 539.5,-202.7 447.5,-202.7"/>
<text text-anchor="start" x="520.9053" y="-208.8" font-family="Helvetica,sans-Serif" font-size="11.00" fill="#000000">2 &gt;</text>
<polygon fill="none" stroke="#000000" stroke-width="2" points="329,-201.7 329,-531.7 540,-531.7 540,-201.7 329,-201.7"/>
</a>
</g>
</g>
<!-- trailers&#45;&gt;departments -->
<g id="edge4" class="edge">
<title>trailers:w&#45;&gt;departments:e</title>
<path fill="none" stroke="#000000" d="M316.2645,-471.5812C278.5522,-451.1887 338.6338,-337.7 279.5,-337.7"/>
<polygon fill="#000000" stroke="#000000" points="322.6854,-472.9879 329.7295,-478.2166 326.5927,-473.8439 330.5,-474.7 330.5,-474.7 330.5,-474.7 326.5927,-473.8439 331.2705,-471.1834 322.6854,-472.9879 322.6854,-472.9879"/>
<ellipse fill="none" stroke="#000000" cx="319.5595" cy="-472.303" rx="3.2" ry="3.2"/>
</g>
<!-- trailers&#45;&gt;users -->
<g id="edge3" class="edge">
<title>trailers:w&#45;&gt;users:e</title>
<path fill="none" stroke="#000000" d="M316.1379,-256.8167C272.8938,-272.2437 338.5047,-367.8675 287,-406.7 241.9303,-440.6808 208.6395,-435.3387 160,-406.7 128.0274,-387.8747 156.6031,-333.7 119.5,-333.7"/>
<polygon fill="#000000" stroke="#000000" points="322.5855,-255.8665 331.0249,-258.2615 326.5427,-255.2833 330.5,-254.7 330.5,-254.7 330.5,-254.7 326.5427,-255.2833 329.9751,-251.1385 322.5855,-255.8665 322.5855,-255.8665"/>
<ellipse fill="none" stroke="#000000" cx="319.4197" cy="-256.3331" rx="3.2" ry="3.2"/>
</g>
<!-- trailers&#45;&gt;users -->
<g id="edge5" class="edge">
<title>trailers:w&#45;&gt;users:e</title>
<path fill="none" stroke="#000000" d="M316.0321,-234.8882C273.7956,-250.4227 337.8377,-344.5107 287,-382.7 241.8705,-416.6014 211.0672,-406.7441 160,-382.7 134.4379,-370.6645 147.7537,-333.7 119.5,-333.7"/>
<polygon fill="#000000" stroke="#000000" points="322.59,-233.8964 331.0384,-236.2595 326.545,-233.2982 330.5,-232.7 330.5,-232.7 330.5,-232.7 326.545,-233.2982 329.9616,-229.1405 322.59,-233.8964 322.59,-233.8964"/>
<ellipse fill="none" stroke="#000000" cx="319.4259" cy="-234.375" rx="3.2" ry="3.2"/>
</g>
<!-- tms.containers -->
<g id="node4" class="node">
<title>tms.containers</title>
<g id="a_node4"><a xlink:href="../../../tms/tables/containers.html" xlink:title="tms.containers" target="_top">
<polygon fill="#ffffff" stroke="transparent" points="623.5,-464.2 623.5,-613.2 747.5,-613.2 747.5,-464.2 623.5,-464.2"/>
<polygon fill="#f5f5f5" stroke="transparent" points="623.5,-589.7 623.5,-612.7 747.5,-612.7 747.5,-589.7 623.5,-589.7"/>
<polygon fill="none" stroke="#000000" points="623.5,-589.7 623.5,-612.7 747.5,-612.7 747.5,-589.7 623.5,-589.7"/>
<text text-anchor="start" x="628.5" y="-598.3" font-family="Helvetica,sans-Serif" font-weight="bold" font-size="11.00" fill="#000000">tms.containers</text>
<text text-anchor="start" x="713.0219" y="-597.8" font-family="Helvetica,sans-Serif" font-size="11.00" fill="#000000">[table]</text>
<polygon fill="none" stroke="#000000" points="623.5,-567.7 623.5,-589.7 747.5,-589.7 747.5,-567.7 623.5,-567.7"/>
<image xlink:href="../../images/foreignKeys.png" width="11px" height="12px" preserveAspectRatio="xMinYMin meet" x="628.5" y="-584.7"/>
<text text-anchor="start" x="659.5" y="-574.8" font-family="Helvetica,sans-Serif" font-size="11.00" fill="#000000">created_by</text>
<polygon fill="none" stroke="#000000" points="623.5,-545.7 623.5,-567.7 747.5,-567.7 747.5,-545.7 623.5,-545.7"/>
<image xlink:href="../../images/foreignKeys.png" width="11px" height="12px" preserveAspectRatio="xMinYMin meet" x="628.5" y="-562.7"/>
<text text-anchor="start" x="659.5" y="-552.8" font-family="Helvetica,sans-Serif" font-size="11.00" fill="#000000">updated_by</text>
<polygon fill="none" stroke="#000000" points="623.5,-523.7 623.5,-545.7 747.5,-545.7 747.5,-523.7 623.5,-523.7"/>
<image xlink:href="../../images/foreignKeys.png" width="11px" height="12px" preserveAspectRatio="xMinYMin meet" x="628.5" y="-540.7"/>
<text text-anchor="start" x="659.5" y="-530.8" font-family="Helvetica,sans-Serif" font-size="11.00" fill="#000000">order_id</text>
<polygon fill="none" stroke="#000000" points="623.5,-501.7 623.5,-523.7 747.5,-523.7 747.5,-501.7 623.5,-501.7"/>
<image xlink:href="../../images/foreignKeys.png" width="11px" height="12px" preserveAspectRatio="xMinYMin meet" x="628.5" y="-518.7"/>
<text text-anchor="start" x="659.5" y="-508.8" font-family="Helvetica,sans-Serif" font-size="11.00" fill="#000000">trailer_id</text>
<polygon fill="none" stroke="#000000" points="623.5,-482.7 623.5,-501.7 747.5,-501.7 747.5,-482.7 623.5,-482.7"/>
<text text-anchor="start" x="626.5" y="-488.8" font-family="Helvetica,sans-Serif" font-size="11.00" fill="#000000">...</text>
<polygon fill="#ffffff" stroke="transparent" points="623.5,-463.7 623.5,-482.7 670.5,-482.7 670.5,-463.7 623.5,-463.7"/>
<polygon fill="none" stroke="#000000" points="623.5,-463.7 623.5,-482.7 670.5,-482.7 670.5,-463.7 623.5,-463.7"/>
<text text-anchor="start" x="626.5" y="-469.8" font-family="Helvetica,sans-Serif" font-size="11.00" fill="#000000">&lt; 4</text>
<polygon fill="#ffffff" stroke="transparent" points="670.5,-463.7 670.5,-482.7 721.5,-482.7 721.5,-463.7 670.5,-463.7"/>
<polygon fill="none" stroke="#000000" points="670.5,-463.7 670.5,-482.7 721.5,-482.7 721.5,-463.7 670.5,-463.7"/>
<text text-anchor="start" x="686.1105" y="-469.8" font-family="Helvetica,sans-Serif" font-size="11.00" fill="#000000">0 rows</text>
<polygon fill="#ffffff" stroke="transparent" points="721.5,-463.7 721.5,-482.7 747.5,-482.7 747.5,-463.7 721.5,-463.7"/>
<polygon fill="none" stroke="#000000" points="721.5,-463.7 721.5,-482.7 747.5,-482.7 747.5,-463.7 721.5,-463.7"/>
<text text-anchor="start" x="738.3862" y="-469.8" font-family="Helvetica,sans-Serif" font-size="11.00" fill="#000000"> &#160;</text>
</a>
</g>
</g>
<!-- tms.containers&#45;&gt;users -->
<g id="edge7" class="edge">
<title>tms.containers:w&#45;&gt;users:e</title>
<path fill="none" stroke="#000000" d="M608.8864,-578.9055C412.5446,-584.4231 312.2352,-698.158 160,-566.7 80.447,-498.0045 224.6083,-333.7 119.5,-333.7"/>
<polygon fill="#000000" stroke="#000000" points="615.5008,-578.8125 623.5506,-582.2996 619.5004,-578.7563 623.5,-578.7 623.5,-578.7 623.5,-578.7 619.5004,-578.7563 623.4494,-575.1004 615.5008,-578.8125 615.5008,-578.8125"/>
<ellipse fill="none" stroke="#000000" cx="612.3011" cy="-578.8575" rx="3.2" ry="3.2"/>
</g>
<!-- tms.containers&#45;&gt;users -->
<g id="edge9" class="edge">
<title>tms.containers:w&#45;&gt;users:e</title>
<path fill="none" stroke="#000000" d="M608.8485,-556.8242C485.3266,-558.9258 442.7731,-586.4479 320,-543.7 237.0506,-514.8182 214.8975,-496.2641 160,-427.7 131.5677,-392.1896 164.9905,-333.7 119.5,-333.7"/>
<polygon fill="#000000" stroke="#000000" points="615.5003,-556.7679 623.5305,-560.2999 619.5001,-556.7339 623.5,-556.7 623.5,-556.7 623.5,-556.7 619.5001,-556.7339 623.4695,-553.1001 615.5003,-556.7679 615.5003,-556.7679"/>
<ellipse fill="none" stroke="#000000" cx="612.3004" cy="-556.795" rx="3.2" ry="3.2"/>
</g>
<!-- tms.containers&#45;&gt;trailers -->
<g id="edge8" class="edge">
<title>tms.containers:w&#45;&gt;trailers:e</title>
<path fill="none" stroke="#000000" d="M609.0805,-511.8398C582.6545,-508.5164 572.1602,-496.7 539.5,-496.7"/>
<polygon fill="#000000" stroke="#000000" points="615.5142,-512.2235 623.2856,-516.2936 619.5071,-512.4618 623.5,-512.7 623.5,-512.7 623.5,-512.7 619.5071,-512.4618 623.7144,-509.1064 615.5142,-512.2235 615.5142,-512.2235"/>
<ellipse fill="none" stroke="#000000" cx="612.3199" cy="-512.033" rx="3.2" ry="3.2"/>
</g>
<!-- wms.outbound_shipments -->
<g id="node5" class="node">
<title>wms.outbound_shipments</title>
<g id="a_node5"><a xlink:href="../../../wms/tables/outbound_shipments.html" xlink:title="wms.outbound_shipments" target="_top">
<polygon fill="#ffffff" stroke="transparent" points="590,-38.2 590,-275.2 781,-275.2 781,-38.2 590,-38.2"/>
<polygon fill="#f5f5f5" stroke="transparent" points="590.5,-251.7 590.5,-274.7 781.5,-274.7 781.5,-251.7 590.5,-251.7"/>
<polygon fill="none" stroke="#000000" points="590.5,-251.7 590.5,-274.7 781.5,-274.7 781.5,-251.7 590.5,-251.7"/>
<text text-anchor="start" x="595.5" y="-260.3" font-family="Helvetica,sans-Serif" font-weight="bold" font-size="11.00" fill="#000000">wms.outbound_shipments</text>
<text text-anchor="start" x="747.0219" y="-259.8" font-family="Helvetica,sans-Serif" font-size="11.00" fill="#000000">[table]</text>
<polygon fill="none" stroke="#000000" points="590.5,-229.7 590.5,-251.7 781.5,-251.7 781.5,-229.7 590.5,-229.7"/>
<image xlink:href="../../images/foreignKeys.png" width="11px" height="12px" preserveAspectRatio="xMinYMin meet" x="595.5" y="-246.7"/>
<text text-anchor="start" x="623.5" y="-236.8" font-family="Helvetica,sans-Serif" font-size="11.00" fill="#000000">warehouse_id</text>
<polygon fill="none" stroke="#000000" points="590.5,-207.7 590.5,-229.7 781.5,-229.7 781.5,-207.7 590.5,-207.7"/>
<image xlink:href="../../images/foreignKeys.png" width="11px" height="12px" preserveAspectRatio="xMinYMin meet" x="595.5" y="-224.7"/>
<text text-anchor="start" x="623.5" y="-214.8" font-family="Helvetica,sans-Serif" font-size="11.00" fill="#000000">destination_location_id</text>
<polygon fill="none" stroke="#000000" points="590.5,-185.7 590.5,-207.7 781.5,-207.7 781.5,-185.7 590.5,-185.7"/>
<image xlink:href="../../images/foreignKeys.png" width="11px" height="12px" preserveAspectRatio="xMinYMin meet" x="595.5" y="-202.7"/>
<text text-anchor="start" x="623.5" y="-192.8" font-family="Helvetica,sans-Serif" font-size="11.00" fill="#000000">trailer_id</text>
<polygon fill="none" stroke="#000000" points="590.5,-163.7 590.5,-185.7 781.5,-185.7 781.5,-163.7 590.5,-163.7"/>
<image xlink:href="../../images/foreignKeys.png" width="11px" height="12px" preserveAspectRatio="xMinYMin meet" x="595.5" y="-180.7"/>
<text text-anchor="start" x="623.5" y="-170.8" font-family="Helvetica,sans-Serif" font-size="11.00" fill="#000000">loaded_by</text>
<polygon fill="none" stroke="#000000" points="590.5,-141.7 590.5,-163.7 781.5,-163.7 781.5,-141.7 590.5,-141.7"/>
<image xlink:href="../../images/foreignKeys.png" width="11px" height="12px" preserveAspectRatio="xMinYMin meet" x="595.5" y="-158.7"/>
<text text-anchor="start" x="623.5" y="-148.8" font-family="Helvetica,sans-Serif" font-size="11.00" fill="#000000">created_by</text>
<polygon fill="none" stroke="#000000" points="590.5,-119.7 590.5,-141.7 781.5,-141.7 781.5,-119.7 590.5,-119.7"/>
<image xlink:href="../../images/foreignKeys.png" width="11px" height="12px" preserveAspectRatio="xMinYMin meet" x="595.5" y="-136.7"/>
<text text-anchor="start" x="623.5" y="-126.8" font-family="Helvetica,sans-Serif" font-size="11.00" fill="#000000">updated_by</text>
<polygon fill="none" stroke="#000000" points="590.5,-97.7 590.5,-119.7 781.5,-119.7 781.5,-97.7 590.5,-97.7"/>
<image xlink:href="../../images/foreignKeys.png" width="11px" height="12px" preserveAspectRatio="xMinYMin meet" x="595.5" y="-114.7"/>
<text text-anchor="start" x="623.5" y="-104.8" font-family="Helvetica,sans-Serif" font-size="11.00" fill="#000000">bol_document_id</text>
<polygon fill="none" stroke="#000000" points="590.5,-75.7 590.5,-97.7 781.5,-97.7 781.5,-75.7 590.5,-75.7"/>
<image xlink:href="../../images/foreignKeys.png" width="11px" height="12px" preserveAspectRatio="xMinYMin meet" x="595.5" y="-92.7"/>
<text text-anchor="start" x="623.5" y="-82.8" font-family="Helvetica,sans-Serif" font-size="11.00" fill="#000000">load_sheet_document_id</text>
<polygon fill="none" stroke="#000000" points="590.5,-56.7 590.5,-75.7 781.5,-75.7 781.5,-56.7 590.5,-56.7"/>
<text text-anchor="start" x="593.5" y="-62.8" font-family="Helvetica,sans-Serif" font-size="11.00" fill="#000000">...</text>
<polygon fill="#ffffff" stroke="transparent" points="590.5,-37.7 590.5,-56.7 671.5,-56.7 671.5,-37.7 590.5,-37.7"/>
<polygon fill="none" stroke="#000000" points="590.5,-37.7 590.5,-56.7 671.5,-56.7 671.5,-37.7 590.5,-37.7"/>
<text text-anchor="start" x="593.5" y="-43.8" font-family="Helvetica,sans-Serif" font-size="11.00" fill="#000000">&lt; 8</text>
<polygon fill="#ffffff" stroke="transparent" points="671.5,-37.7 671.5,-56.7 739.5,-56.7 739.5,-37.7 671.5,-37.7"/>
<polygon fill="none" stroke="#000000" points="671.5,-37.7 671.5,-56.7 739.5,-56.7 739.5,-37.7 671.5,-37.7"/>
<text text-anchor="start" x="704.1105" y="-43.8" font-family="Helvetica,sans-Serif" font-size="11.00" fill="#000000">0 rows</text>
<polygon fill="#ffffff" stroke="transparent" points="739.5,-37.7 739.5,-56.7 781.5,-56.7 781.5,-37.7 739.5,-37.7"/>
<polygon fill="none" stroke="#000000" points="739.5,-37.7 739.5,-56.7 781.5,-56.7 781.5,-37.7 739.5,-37.7"/>
<text text-anchor="start" x="772.3862" y="-43.8" font-family="Helvetica,sans-Serif" font-size="11.00" fill="#000000"> &#160;</text>
</a>
</g>
</g>
<!-- wms.outbound_shipments&#45;&gt;users -->
<g id="edge10" class="edge">
<title>wms.outbound_shipments:w&#45;&gt;users:e</title>
<path fill="none" stroke="#000000" d="M575.9896,-152.41C470.7685,-148.5859 230.7837,-109.1442 160,-166.7 100.7434,-214.8829 195.8737,-333.7 119.5,-333.7"/>
<polygon fill="#000000" stroke="#000000" points="582.5016,-152.5401 590.428,-156.2993 586.5008,-152.62 590.5,-152.7 590.5,-152.7 590.5,-152.7 586.5008,-152.62 590.572,-149.1007 582.5016,-152.5401 582.5016,-152.5401"/>
<ellipse fill="none" stroke="#000000" cx="579.3022" cy="-152.4761" rx="3.2" ry="3.2"/>
</g>
<!-- wms.outbound_shipments&#45;&gt;users -->
<g id="edge11" class="edge">
<title>wms.outbound_shipments:w&#45;&gt;users:e</title>
<path fill="none" stroke="#000000" d="M575.9518,-174.5136C495.0068,-172.984 194.9548,-163.235 160,-190.7 108.0598,-231.5109 185.5553,-333.7 119.5,-333.7"/>
<polygon fill="#000000" stroke="#000000" points="582.5007,-174.5975 590.4539,-178.2997 586.5003,-174.6487 590.5,-174.7 590.5,-174.7 590.5,-174.7 586.5003,-174.6487 590.5461,-171.1003 582.5007,-174.5975 582.5007,-174.5975"/>
<ellipse fill="none" stroke="#000000" cx="579.3009" cy="-174.5564" rx="3.2" ry="3.2"/>
</g>
<!-- wms.outbound_shipments&#45;&gt;users -->
<g id="edge13" class="edge">
<title>wms.outbound_shipments:w&#45;&gt;users:e</title>
<path fill="none" stroke="#000000" d="M575.8431,-130.4678C394.3901,-124.7202 303.8703,-15.2044 160,-133.7 89.9947,-191.3584 210.1931,-333.7 119.5,-333.7"/>
<polygon fill="#000000" stroke="#000000" points="582.501,-130.5732 590.443,-134.2995 586.5005,-130.6366 590.5,-130.7 590.5,-130.7 590.5,-130.7 586.5005,-130.6366 590.557,-127.1005 582.501,-130.5732 582.501,-130.5732"/>
<ellipse fill="none" stroke="#000000" cx="579.3014" cy="-130.5225" rx="3.2" ry="3.2"/>
</g>
<!-- wms.outbound_shipments&#45;&gt;trailers -->
<g id="edge12" class="edge">
<title>wms.outbound_shipments:w&#45;&gt;trailers:e</title>
<path fill="none" stroke="#000000" d="M577.0202,-202.1632C535.3956,-242.8231 601.708,-496.7 539.5,-496.7"/>
<polygon fill="#000000" stroke="#000000" points="583.0858,-199.7049 591.8522,-200.0364 586.7929,-198.2025 590.5,-196.7 590.5,-196.7 590.5,-196.7 586.7929,-198.2025 589.1478,-193.3636 583.0858,-199.7049 583.0858,-199.7049"/>
<ellipse fill="none" stroke="#000000" cx="580.1201" cy="-200.9069" rx="3.2" ry="3.2"/>
</g>
</g>
</svg>
