<?xml version="1.0" encoding="UTF-8" standalone="no"?>
<!DOCTYPE svg PUBLIC "-//W3C//DTD SVG 1.1//EN"
 "http://www.w3.org/Graphics/SVG/1.1/DTD/svg11.dtd">
<!-- Generated by graphviz version 2.40.1 (20161225.0304)
 -->
<!-- Title: oneDegreeRelationshipsDiagram Pages: 1 -->
<svg width="608pt" height="394pt"
 viewBox="0.00 0.00 608.00 393.70" xmlns="http://www.w3.org/2000/svg" xmlns:xlink="http://www.w3.org/1999/xlink">
<g id="graph0" class="graph" transform="scale(1 1) rotate(0) translate(4 389.7)">
<title>oneDegreeRelationshipsDiagram</title>
<polygon fill="#ffffff" stroke="transparent" points="-4,4 -4,-389.7 604,-389.7 604,4 -4,4"/>
<text text-anchor="middle" x="72.4936" y="-7.3" font-family="Helvetica,sans-Serif" font-size="11.00" fill="#000000">Generated by SchemaSpy</text>
<!-- unload_methods -->
<g id="node1" class="node">
<title>unload_methods</title>
<g id="a_node1"><a xlink:href="../../tables/unload_methods.html" xlink:title="unload_methods" target="_top">
<polygon fill="#ffffff" stroke="transparent" points="168,-38.2 168,-238.2 381,-238.2 381,-38.2 168,-38.2"/>
<polygon fill="#f5f5f5" stroke="transparent" points="170.5,-213.2 170.5,-236.2 379.5,-236.2 379.5,-213.2 170.5,-213.2"/>
<polygon fill="none" stroke="#000000" points="170.5,-213.2 170.5,-236.2 379.5,-236.2 379.5,-213.2 170.5,-213.2"/>
<text text-anchor="start" x="175.5" y="-221.8" font-family="Helvetica,sans-Serif" font-weight="bold" font-size="11.00" fill="#000000">unload_methods</text>
<text text-anchor="start" x="344.5437" y="-221.3" font-family="Helvetica,sans-Serif" font-size="11.00" fill="#000000">[table]</text>
<polygon fill="none" stroke="#000000" points="170.5,-191.2 170.5,-213.2 287.5,-213.2 287.5,-191.2 170.5,-191.2"/>
<image xlink:href="../../images/primaryKeys.png" width="11px" height="12px" preserveAspectRatio="xMinYMin meet" x="175.5" y="-208.2"/>
<text text-anchor="start" x="190.5" y="-198.3" font-family="Helvetica,sans-Serif" font-size="11.00" fill="#000000">method_code</text>
<polygon fill="none" stroke="#000000" points="287.5,-191.2 287.5,-213.2 379.5,-213.2 379.5,-191.2 287.5,-191.2"/>
<text text-anchor="start" x="290.5" y="-198.9" font-family="Helvetica,sans-Serif" font-size="11.00" fill="#000000">varchar[50]</text>
<polygon fill="none" stroke="#000000" points="170.5,-169.2 170.5,-191.2 287.5,-191.2 287.5,-169.2 170.5,-169.2"/>
<text text-anchor="start" x="190.5" y="-176.3" font-family="Helvetica,sans-Serif" font-size="11.00" fill="#000000">description</text>
<polygon fill="none" stroke="#000000" points="287.5,-169.2 287.5,-191.2 379.5,-191.2 379.5,-169.2 287.5,-169.2"/>
<text text-anchor="start" x="290.5" y="-176.9" font-family="Helvetica,sans-Serif" font-size="11.00" fill="#000000">varchar[200]</text>
<polygon fill="none" stroke="#000000" points="170.5,-147.2 170.5,-169.2 287.5,-169.2 287.5,-147.2 170.5,-147.2"/>
<text text-anchor="start" x="190.5" y="-154.3" font-family="Helvetica,sans-Serif" font-size="11.00" fill="#000000">is_active</text>
<polygon fill="none" stroke="#000000" points="287.5,-147.2 287.5,-169.2 379.5,-169.2 379.5,-147.2 287.5,-147.2"/>
<text text-anchor="start" x="290.5" y="-154.9" font-family="Helvetica,sans-Serif" font-size="11.00" fill="#000000">bool[1]</text>
<polygon fill="none" stroke="#000000" points="170.5,-125.2 170.5,-147.2 287.5,-147.2 287.5,-125.2 170.5,-125.2"/>
<text text-anchor="start" x="190.5" y="-132.3" font-family="Helvetica,sans-Serif" font-size="11.00" fill="#000000">created_at</text>
<polygon fill="none" stroke="#000000" points="287.5,-125.2 287.5,-147.2 379.5,-147.2 379.5,-125.2 287.5,-125.2"/>
<text text-anchor="start" x="290.1023" y="-132.9" font-family="Helvetica,sans-Serif" font-size="11.00" fill="#000000">timestamptz[35,6]</text>
<polygon fill="none" stroke="#000000" points="170.5,-103.2 170.5,-125.2 287.5,-125.2 287.5,-103.2 170.5,-103.2"/>
<text text-anchor="start" x="190.5" y="-110.3" font-family="Helvetica,sans-Serif" font-size="11.00" fill="#000000">updated_at</text>
<polygon fill="none" stroke="#000000" points="287.5,-103.2 287.5,-125.2 379.5,-125.2 379.5,-103.2 287.5,-103.2"/>
<text text-anchor="start" x="290.1023" y="-110.9" font-family="Helvetica,sans-Serif" font-size="11.00" fill="#000000">timestamptz[35,6]</text>
<polygon fill="none" stroke="#000000" points="170.5,-81.2 170.5,-103.2 287.5,-103.2 287.5,-81.2 170.5,-81.2"/>
<image xlink:href="../../images/foreignKeys.png" width="11px" height="12px" preserveAspectRatio="xMinYMin meet" x="175.5" y="-98.2"/>
<text text-anchor="start" x="190.5" y="-88.3" font-family="Helvetica,sans-Serif" font-size="11.00" fill="#000000">created_by</text>
<polygon fill="none" stroke="#000000" points="287.5,-81.2 287.5,-103.2 379.5,-103.2 379.5,-81.2 287.5,-81.2"/>
<text text-anchor="start" x="290.5" y="-88.9" font-family="Helvetica,sans-Serif" font-size="11.00" fill="#000000">int8[19]</text>
<polygon fill="none" stroke="#000000" points="170.5,-59.2 170.5,-81.2 287.5,-81.2 287.5,-59.2 170.5,-59.2"/>
<image xlink:href="../../images/foreignKeys.png" width="11px" height="12px" preserveAspectRatio="xMinYMin meet" x="175.5" y="-76.2"/>
<text text-anchor="start" x="190.5" y="-66.3" font-family="Helvetica,sans-Serif" font-size="11.00" fill="#000000">updated_by</text>
<polygon fill="none" stroke="#000000" points="287.5,-59.2 287.5,-81.2 379.5,-81.2 379.5,-59.2 287.5,-59.2"/>
<text text-anchor="start" x="290.5" y="-66.9" font-family="Helvetica,sans-Serif" font-size="11.00" fill="#000000">int8[19]</text>
<polygon fill="#ffffff" stroke="transparent" points="170.5,-40.2 170.5,-59.2 233.5,-59.2 233.5,-40.2 170.5,-40.2"/>
<polygon fill="none" stroke="#000000" points="170.5,-40.2 170.5,-59.2 233.5,-59.2 233.5,-40.2 170.5,-40.2"/>
<text text-anchor="start" x="173.5" y="-46.3" font-family="Helvetica,sans-Serif" font-size="11.00" fill="#000000">&lt; 2</text>
<polygon fill="#ffffff" stroke="transparent" points="233.5,-40.2 233.5,-59.2 287.5,-59.2 287.5,-40.2 233.5,-40.2"/>
<polygon fill="none" stroke="#000000" points="233.5,-40.2 233.5,-59.2 287.5,-59.2 287.5,-40.2 233.5,-40.2"/>
<text text-anchor="start" x="278.3862" y="-46.3" font-family="Helvetica,sans-Serif" font-size="11.00" fill="#000000"> &#160;</text>
<polygon fill="#ffffff" stroke="transparent" points="287.5,-40.2 287.5,-59.2 379.5,-59.2 379.5,-40.2 287.5,-40.2"/>
<polygon fill="none" stroke="#000000" points="287.5,-40.2 287.5,-59.2 379.5,-59.2 379.5,-40.2 287.5,-40.2"/>
<text text-anchor="start" x="360.9053" y="-46.3" font-family="Helvetica,sans-Serif" font-size="11.00" fill="#000000">1 &gt;</text>
<polygon fill="none" stroke="#000000" stroke-width="2" points="169,-39.2 169,-237.2 380,-237.2 380,-39.2 169,-39.2"/>
</a>
</g>
</g>
<!-- users -->
<g id="node2" class="node">
<title>users</title>
<g id="a_node2"><a xlink:href="../../tables/users.html" xlink:title="users" target="_top">
<polygon fill="#ffffff" stroke="transparent" points="8,-103.7 8,-296.7 119,-296.7 119,-103.7 8,-103.7"/>
<polygon fill="#f5f5f5" stroke="transparent" points="8.5,-273.2 8.5,-296.2 119.5,-296.2 119.5,-273.2 8.5,-273.2"/>
<polygon fill="none" stroke="#000000" points="8.5,-273.2 8.5,-296.2 119.5,-296.2 119.5,-273.2 8.5,-273.2"/>
<text text-anchor="start" x="13.5" y="-281.8" font-family="Helvetica,sans-Serif" font-weight="bold" font-size="11.00" fill="#000000">users</text>
<text text-anchor="start" x="84.5437" y="-281.3" font-family="Helvetica,sans-Serif" font-size="11.00" fill="#000000">[table]</text>
<polygon fill="none" stroke="#000000" points="8.5,-251.2 8.5,-273.2 119.5,-273.2 119.5,-251.2 8.5,-251.2"/>
<image xlink:href="../../images/primaryKeys.png" width="11px" height="12px" preserveAspectRatio="xMinYMin meet" x="13.5" y="-268.2"/>
<text text-anchor="start" x="28.5" y="-258.3" font-family="Helvetica,sans-Serif" font-size="11.00" fill="#000000">id</text>
<polygon fill="#ffffff" stroke="transparent" points="8.5,-229.2 8.5,-251.2 119.5,-251.2 119.5,-229.2 8.5,-229.2"/>
<polygon fill="none" stroke="#000000" points="8.5,-229.2 8.5,-251.2 119.5,-251.2 119.5,-229.2 8.5,-229.2"/>
<text text-anchor="start" x="28.5" y="-236.3" font-family="Helvetica,sans-Serif" font-size="11.00" fill="#000000">username</text>
<polygon fill="#ffffff" stroke="transparent" points="8.5,-207.2 8.5,-229.2 119.5,-229.2 119.5,-207.2 8.5,-207.2"/>
<polygon fill="none" stroke="#000000" points="8.5,-207.2 8.5,-229.2 119.5,-229.2 119.5,-207.2 8.5,-207.2"/>
<text text-anchor="start" x="28.5" y="-214.3" font-family="Helvetica,sans-Serif" font-size="11.00" fill="#000000">email</text>
<polygon fill="#ffffff" stroke="transparent" points="8.5,-185.2 8.5,-207.2 119.5,-207.2 119.5,-185.2 8.5,-185.2"/>
<polygon fill="none" stroke="#000000" points="8.5,-185.2 8.5,-207.2 119.5,-207.2 119.5,-185.2 8.5,-185.2"/>
<image xlink:href="../../images/foreignKeys.png" width="11px" height="12px" preserveAspectRatio="xMinYMin meet" x="13.5" y="-202.2"/>
<text text-anchor="start" x="28.5" y="-192.3" font-family="Helvetica,sans-Serif" font-size="11.00" fill="#000000">department_id</text>
<polygon fill="none" stroke="#000000" points="8.5,-163.2 8.5,-185.2 119.5,-185.2 119.5,-163.2 8.5,-163.2"/>
<image xlink:href="../../images/foreignKeys.png" width="11px" height="12px" preserveAspectRatio="xMinYMin meet" x="13.5" y="-180.2"/>
<text text-anchor="start" x="28.5" y="-170.3" font-family="Helvetica,sans-Serif" font-size="11.00" fill="#000000">created_by</text>
<polygon fill="none" stroke="#000000" points="8.5,-141.2 8.5,-163.2 119.5,-163.2 119.5,-141.2 8.5,-141.2"/>
<image xlink:href="../../images/foreignKeys.png" width="11px" height="12px" preserveAspectRatio="xMinYMin meet" x="13.5" y="-158.2"/>
<text text-anchor="start" x="28.5" y="-148.3" font-family="Helvetica,sans-Serif" font-size="11.00" fill="#000000">updated_by</text>
<polygon fill="none" stroke="#000000" points="8.5,-122.2 8.5,-141.2 119.5,-141.2 119.5,-122.2 8.5,-122.2"/>
<text text-anchor="start" x="11.5" y="-128.3" font-family="Helvetica,sans-Serif" font-size="11.00" fill="#000000">...</text>
<polygon fill="#ffffff" stroke="transparent" points="8.5,-103.2 8.5,-122.2 38.5,-122.2 38.5,-103.2 8.5,-103.2"/>
<polygon fill="none" stroke="#000000" points="8.5,-103.2 8.5,-122.2 38.5,-122.2 38.5,-103.2 8.5,-103.2"/>
<text text-anchor="start" x="11.5" y="-109.3" font-family="Helvetica,sans-Serif" font-size="11.00" fill="#000000">&lt; 3</text>
<polygon fill="#ffffff" stroke="transparent" points="38.5,-103.2 38.5,-122.2 87.5,-122.2 87.5,-103.2 38.5,-103.2"/>
<polygon fill="none" stroke="#000000" points="38.5,-103.2 38.5,-122.2 87.5,-122.2 87.5,-103.2 38.5,-103.2"/>
<text text-anchor="start" x="45.9956" y="-109.3" font-family="Helvetica,sans-Serif" font-size="11.00" fill="#000000">10 rows</text>
<polygon fill="#ffffff" stroke="transparent" points="87.5,-103.2 87.5,-122.2 119.5,-122.2 119.5,-103.2 87.5,-103.2"/>
<polygon fill="none" stroke="#000000" points="87.5,-103.2 87.5,-122.2 119.5,-122.2 119.5,-103.2 87.5,-103.2"/>
<text text-anchor="start" x="94.7904" y="-109.3" font-family="Helvetica,sans-Serif" font-size="11.00" fill="#000000">66 &gt;</text>
</a>
</g>
</g>
<!-- unload_methods&#45;&gt;users -->
<g id="edge1" class="edge">
<title>unload_methods:w&#45;&gt;users:e</title>
<path fill="none" stroke="#000000" d="M156.167,-94.7351C106.079,-115.8825 192.6818,-262.2 119.5,-262.2"/>
<polygon fill="#000000" stroke="#000000" points="162.6223,-93.5934 171.127,-95.745 166.5611,-92.8967 170.5,-92.2 170.5,-92.2 170.5,-92.2 166.5611,-92.8967 169.873,-88.655 162.6223,-93.5934 162.6223,-93.5934"/>
<ellipse fill="none" stroke="#000000" cx="159.4712" cy="-94.1507" rx="3.2" ry="3.2"/>
</g>
<!-- unload_methods&#45;&gt;users -->
<g id="edge2" class="edge">
<title>unload_methods:w&#45;&gt;users:e</title>
<path fill="none" stroke="#000000" d="M155.9788,-72.49C97.5077,-94.1524 202.1017,-262.2 119.5,-262.2"/>
<polygon fill="#000000" stroke="#000000" points="162.5977,-71.4462 171.0608,-73.7561 166.5488,-70.8231 170.5,-70.2 170.5,-70.2 170.5,-70.2 166.5488,-70.8231 169.9392,-66.6439 162.5977,-71.4462 162.5977,-71.4462"/>
<ellipse fill="none" stroke="#000000" cx="159.4367" cy="-71.9447" rx="3.2" ry="3.2"/>
</g>
<!-- wms.inbound_receipt -->
<g id="node3" class="node">
<title>wms.inbound_receipt</title>
<g id="a_node3"><a xlink:href="../../../wms/tables/inbound_receipt.html" xlink:title="wms.inbound_receipt" target="_top">
<polygon fill="#ffffff" stroke="transparent" points="430,-188.7 430,-381.7 592,-381.7 592,-188.7 430,-188.7"/>
<polygon fill="#f5f5f5" stroke="transparent" points="430,-358.2 430,-381.2 592,-381.2 592,-358.2 430,-358.2"/>
<polygon fill="none" stroke="#000000" points="430,-358.2 430,-381.2 592,-381.2 592,-358.2 430,-358.2"/>
<text text-anchor="start" x="435" y="-366.8" font-family="Helvetica,sans-Serif" font-weight="bold" font-size="11.00" fill="#000000">wms.inbound_receipt</text>
<text text-anchor="start" x="557.5219" y="-366.3" font-family="Helvetica,sans-Serif" font-size="11.00" fill="#000000">[table]</text>
<polygon fill="none" stroke="#000000" points="430,-336.2 430,-358.2 592,-358.2 592,-336.2 430,-336.2"/>
<image xlink:href="../../images/foreignKeys.png" width="11px" height="12px" preserveAspectRatio="xMinYMin meet" x="435" y="-353.2"/>
<text text-anchor="start" x="459" y="-343.3" font-family="Helvetica,sans-Serif" font-size="11.00" fill="#000000">order_id</text>
<polygon fill="none" stroke="#000000" points="430,-314.2 430,-336.2 592,-336.2 592,-314.2 430,-314.2"/>
<image xlink:href="../../images/foreignKeys.png" width="11px" height="12px" preserveAspectRatio="xMinYMin meet" x="435" y="-331.2"/>
<text text-anchor="start" x="459" y="-321.3" font-family="Helvetica,sans-Serif" font-size="11.00" fill="#000000">received_by</text>
<polygon fill="none" stroke="#000000" points="430,-292.2 430,-314.2 592,-314.2 592,-292.2 430,-292.2"/>
<image xlink:href="../../images/foreignKeys.png" width="11px" height="12px" preserveAspectRatio="xMinYMin meet" x="435" y="-309.2"/>
<text text-anchor="start" x="459" y="-299.3" font-family="Helvetica,sans-Serif" font-size="11.00" fill="#000000">warehouse_id</text>
<polygon fill="none" stroke="#000000" points="430,-270.2 430,-292.2 592,-292.2 592,-270.2 430,-270.2"/>
<image xlink:href="../../images/foreignKeys.png" width="11px" height="12px" preserveAspectRatio="xMinYMin meet" x="435" y="-287.2"/>
<text text-anchor="start" x="459" y="-277.3" font-family="Helvetica,sans-Serif" font-size="11.00" fill="#000000">created_by</text>
<polygon fill="none" stroke="#000000" points="430,-248.2 430,-270.2 592,-270.2 592,-248.2 430,-248.2"/>
<image xlink:href="../../images/foreignKeys.png" width="11px" height="12px" preserveAspectRatio="xMinYMin meet" x="435" y="-265.2"/>
<text text-anchor="start" x="459" y="-255.3" font-family="Helvetica,sans-Serif" font-size="11.00" fill="#000000">updated_by</text>
<polygon fill="none" stroke="#000000" points="430,-226.2 430,-248.2 592,-248.2 592,-226.2 430,-226.2"/>
<image xlink:href="../../images/foreignKeys.png" width="11px" height="12px" preserveAspectRatio="xMinYMin meet" x="435" y="-243.2"/>
<text text-anchor="start" x="459" y="-233.3" font-family="Helvetica,sans-Serif" font-size="11.00" fill="#000000">unload_method_code</text>
<polygon fill="none" stroke="#000000" points="430,-207.2 430,-226.2 592,-226.2 592,-207.2 430,-207.2"/>
<text text-anchor="start" x="433" y="-213.3" font-family="Helvetica,sans-Serif" font-size="11.00" fill="#000000">...</text>
<polygon fill="#ffffff" stroke="transparent" points="430,-188.2 430,-207.2 496,-207.2 496,-188.2 430,-188.2"/>
<polygon fill="none" stroke="#000000" points="430,-188.2 430,-207.2 496,-207.2 496,-188.2 430,-188.2"/>
<text text-anchor="start" x="433" y="-194.3" font-family="Helvetica,sans-Serif" font-size="11.00" fill="#000000">&lt; 6</text>
<polygon fill="#ffffff" stroke="transparent" points="496,-188.2 496,-207.2 557,-207.2 557,-188.2 496,-188.2"/>
<polygon fill="none" stroke="#000000" points="496,-188.2 496,-207.2 557,-207.2 557,-188.2 496,-188.2"/>
<text text-anchor="start" x="521.6105" y="-194.3" font-family="Helvetica,sans-Serif" font-size="11.00" fill="#000000">0 rows</text>
<polygon fill="#ffffff" stroke="transparent" points="557,-188.2 557,-207.2 592,-207.2 592,-188.2 557,-188.2"/>
<polygon fill="none" stroke="#000000" points="557,-188.2 557,-207.2 592,-207.2 592,-188.2 557,-188.2"/>
<text text-anchor="start" x="582.8862" y="-194.3" font-family="Helvetica,sans-Serif" font-size="11.00" fill="#000000"> &#160;</text>
</a>
</g>
</g>
<!-- wms.inbound_receipt&#45;&gt;unload_methods -->
<g id="edge5" class="edge">
<title>wms.inbound_receipt:w&#45;&gt;unload_methods:e</title>
<path fill="none" stroke="#000000" d="M415.9323,-232.9083C402.9891,-223.5623 400.8344,-202.2 379.5,-202.2"/>
<polygon fill="#000000" stroke="#000000" points="422.3482,-234.8656 428.9495,-240.6433 426.1741,-236.0328 430,-237.2 430,-237.2 430,-237.2 426.1741,-236.0328 431.0505,-233.7567 422.3482,-234.8656 422.3482,-234.8656"/>
<ellipse fill="none" stroke="#000000" cx="419.2874" cy="-233.9318" rx="3.2" ry="3.2"/>
</g>
<!-- wms.inbound_receipt&#45;&gt;users -->
<g id="edge3" class="edge">
<title>wms.inbound_receipt:w&#45;&gt;users:e</title>
<path fill="none" stroke="#000000" d="M415.3325,-281.2372C307.1745,-281.786 273.9361,-287.9885 160,-272.2 141.6349,-269.6551 138.0406,-262.2 119.5,-262.2"/>
<polygon fill="#000000" stroke="#000000" points="422,-281.2204 430.0092,-284.8 426,-281.2102 430,-281.2 430,-281.2 430,-281.2 426,-281.2102 429.9908,-277.6 422,-281.2204 422,-281.2204"/>
<ellipse fill="none" stroke="#000000" cx="418.8" cy="-281.2285" rx="3.2" ry="3.2"/>
</g>
<!-- wms.inbound_receipt&#45;&gt;users -->
<g id="edge4" class="edge">
<title>wms.inbound_receipt:w&#45;&gt;users:e</title>
<path fill="none" stroke="#000000" d="M415.5132,-325.2126C305.8267,-325.3836 269.3083,-326.6586 160,-287.2 140.1035,-280.0177 140.6532,-262.2 119.5,-262.2"/>
<polygon fill="#000000" stroke="#000000" points="422,-325.207 430.0032,-328.8 426,-325.2035 430,-325.2 430,-325.2 430,-325.2 426,-325.2035 429.9968,-321.6 422,-325.207 422,-325.207"/>
<ellipse fill="none" stroke="#000000" cx="418.8" cy="-325.2098" rx="3.2" ry="3.2"/>
</g>
<!-- wms.inbound_receipt&#45;&gt;users -->
<g id="edge6" class="edge">
<title>wms.inbound_receipt:w&#45;&gt;users:e</title>
<path fill="none" stroke="#000000" d="M415.436,-259.2115C289.3662,-259.4129 252.5199,-262.2 119.5,-262.2"/>
<polygon fill="#000000" stroke="#000000" points="422,-259.2064 430.0029,-262.8 426,-259.2032 430,-259.2 430,-259.2 430,-259.2 426,-259.2032 429.9971,-255.6 422,-259.2064 422,-259.2064"/>
<ellipse fill="none" stroke="#000000" cx="418.8" cy="-259.2089" rx="3.2" ry="3.2"/>
</g>
</g>
</svg>
