<?xml version="1.0" encoding="UTF-8" standalone="no"?>
<!DOCTYPE svg PUBLIC "-//W3C//DTD SVG 1.1//EN"
 "http://www.w3.org/Graphics/SVG/1.1/DTD/svg11.dtd">
<!-- Generated by graphviz version 2.40.1 (20161225.0304)
 -->
<!-- Title: oneDegreeRelationshipsDiagram Pages: 1 -->
<svg width="743pt" height="573pt"
 viewBox="0.00 0.00 743.00 573.47" xmlns="http://www.w3.org/2000/svg" xmlns:xlink="http://www.w3.org/1999/xlink">
<g id="graph0" class="graph" transform="scale(1 1) rotate(0) translate(4 569.4677)">
<title>oneDegreeRelationshipsDiagram</title>
<polygon fill="#ffffff" stroke="transparent" points="-4,4 -4,-569.4677 739,-569.4677 739,4 -4,4"/>
<text text-anchor="middle" x="72.4936" y="-7.3" font-family="Helvetica,sans-Serif" font-size="11.00" fill="#000000">Generated by SchemaSpy</text>
<!-- carriers -->
<g id="node1" class="node">
<title>carriers</title>
<g id="a_node1"><a xlink:href="../../tables/carriers.html" xlink:title="carriers" target="_top">
<polygon fill="#ffffff" stroke="transparent" points="168,-275.2 168,-446.2 261,-446.2 261,-275.2 168,-275.2"/>
<polygon fill="#f5f5f5" stroke="transparent" points="168.5,-422.7 168.5,-445.7 261.5,-445.7 261.5,-422.7 168.5,-422.7"/>
<polygon fill="none" stroke="#000000" points="168.5,-422.7 168.5,-445.7 261.5,-445.7 261.5,-422.7 168.5,-422.7"/>
<text text-anchor="start" x="173.5" y="-431.3" font-family="Helvetica,sans-Serif" font-weight="bold" font-size="11.00" fill="#000000">carriers</text>
<text text-anchor="start" x="226.5437" y="-430.8" font-family="Helvetica,sans-Serif" font-size="11.00" fill="#000000">[table]</text>
<polygon fill="none" stroke="#000000" points="168.5,-400.7 168.5,-422.7 261.5,-422.7 261.5,-400.7 168.5,-400.7"/>
<image xlink:href="../../images/primaryKeys.png" width="11px" height="12px" preserveAspectRatio="xMinYMin meet" x="173.5" y="-417.7"/>
<text text-anchor="start" x="188.5" y="-407.8" font-family="Helvetica,sans-Serif" font-size="11.00" fill="#000000">carrier_id</text>
<polygon fill="#ffffff" stroke="transparent" points="168.5,-378.7 168.5,-400.7 261.5,-400.7 261.5,-378.7 168.5,-378.7"/>
<polygon fill="none" stroke="#000000" points="168.5,-378.7 168.5,-400.7 261.5,-400.7 261.5,-378.7 168.5,-378.7"/>
<text text-anchor="start" x="188.5" y="-385.8" font-family="Helvetica,sans-Serif" font-size="11.00" fill="#000000">carrier_code</text>
<polygon fill="none" stroke="#000000" points="168.5,-356.7 168.5,-378.7 261.5,-378.7 261.5,-356.7 168.5,-356.7"/>
<image xlink:href="../../images/foreignKeys.png" width="11px" height="12px" preserveAspectRatio="xMinYMin meet" x="173.5" y="-373.7"/>
<text text-anchor="start" x="188.5" y="-363.8" font-family="Helvetica,sans-Serif" font-size="11.00" fill="#000000">contact_id</text>
<polygon fill="none" stroke="#000000" points="168.5,-334.7 168.5,-356.7 261.5,-356.7 261.5,-334.7 168.5,-334.7"/>
<image xlink:href="../../images/foreignKeys.png" width="11px" height="12px" preserveAspectRatio="xMinYMin meet" x="173.5" y="-351.7"/>
<text text-anchor="start" x="188.5" y="-341.8" font-family="Helvetica,sans-Serif" font-size="11.00" fill="#000000">created_by</text>
<polygon fill="none" stroke="#000000" points="168.5,-312.7 168.5,-334.7 261.5,-334.7 261.5,-312.7 168.5,-312.7"/>
<image xlink:href="../../images/foreignKeys.png" width="11px" height="12px" preserveAspectRatio="xMinYMin meet" x="173.5" y="-329.7"/>
<text text-anchor="start" x="188.5" y="-319.8" font-family="Helvetica,sans-Serif" font-size="11.00" fill="#000000">updated_by</text>
<polygon fill="none" stroke="#000000" points="168.5,-293.7 168.5,-312.7 261.5,-312.7 261.5,-293.7 168.5,-293.7"/>
<text text-anchor="start" x="171.5" y="-299.8" font-family="Helvetica,sans-Serif" font-size="11.00" fill="#000000">...</text>
<polygon fill="#ffffff" stroke="transparent" points="168.5,-274.7 168.5,-293.7 208.5,-293.7 208.5,-274.7 168.5,-274.7"/>
<polygon fill="none" stroke="#000000" points="168.5,-274.7 168.5,-293.7 208.5,-293.7 208.5,-274.7 168.5,-274.7"/>
<text text-anchor="start" x="171.5" y="-280.8" font-family="Helvetica,sans-Serif" font-size="11.00" fill="#000000">&lt; 3</text>
<polygon fill="#ffffff" stroke="transparent" points="208.5,-274.7 208.5,-293.7 230.5,-293.7 230.5,-274.7 208.5,-274.7"/>
<polygon fill="none" stroke="#000000" points="208.5,-274.7 208.5,-293.7 230.5,-293.7 230.5,-274.7 208.5,-274.7"/>
<text text-anchor="start" x="221.3862" y="-280.8" font-family="Helvetica,sans-Serif" font-size="11.00" fill="#000000"> &#160;</text>
<polygon fill="#ffffff" stroke="transparent" points="230.5,-274.7 230.5,-293.7 261.5,-293.7 261.5,-274.7 230.5,-274.7"/>
<polygon fill="none" stroke="#000000" points="230.5,-274.7 230.5,-293.7 261.5,-293.7 261.5,-274.7 230.5,-274.7"/>
<text text-anchor="start" x="242.9053" y="-280.8" font-family="Helvetica,sans-Serif" font-size="11.00" fill="#000000">5 &gt;</text>
</a>
</g>
</g>
<!-- users -->
<g id="node2" class="node">
<title>users</title>
<g id="a_node2"><a xlink:href="../../tables/users.html" xlink:title="users" target="_top">
<polygon fill="#ffffff" stroke="transparent" points="8,-38.2 8,-231.2 119,-231.2 119,-38.2 8,-38.2"/>
<polygon fill="#f5f5f5" stroke="transparent" points="8.5,-207.7 8.5,-230.7 119.5,-230.7 119.5,-207.7 8.5,-207.7"/>
<polygon fill="none" stroke="#000000" points="8.5,-207.7 8.5,-230.7 119.5,-230.7 119.5,-207.7 8.5,-207.7"/>
<text text-anchor="start" x="13.5" y="-216.3" font-family="Helvetica,sans-Serif" font-weight="bold" font-size="11.00" fill="#000000">users</text>
<text text-anchor="start" x="84.5437" y="-215.8" font-family="Helvetica,sans-Serif" font-size="11.00" fill="#000000">[table]</text>
<polygon fill="none" stroke="#000000" points="8.5,-185.7 8.5,-207.7 119.5,-207.7 119.5,-185.7 8.5,-185.7"/>
<image xlink:href="../../images/primaryKeys.png" width="11px" height="12px" preserveAspectRatio="xMinYMin meet" x="13.5" y="-202.7"/>
<text text-anchor="start" x="28.5" y="-192.8" font-family="Helvetica,sans-Serif" font-size="11.00" fill="#000000">id</text>
<polygon fill="#ffffff" stroke="transparent" points="8.5,-163.7 8.5,-185.7 119.5,-185.7 119.5,-163.7 8.5,-163.7"/>
<polygon fill="none" stroke="#000000" points="8.5,-163.7 8.5,-185.7 119.5,-185.7 119.5,-163.7 8.5,-163.7"/>
<text text-anchor="start" x="28.5" y="-170.8" font-family="Helvetica,sans-Serif" font-size="11.00" fill="#000000">username</text>
<polygon fill="#ffffff" stroke="transparent" points="8.5,-141.7 8.5,-163.7 119.5,-163.7 119.5,-141.7 8.5,-141.7"/>
<polygon fill="none" stroke="#000000" points="8.5,-141.7 8.5,-163.7 119.5,-163.7 119.5,-141.7 8.5,-141.7"/>
<text text-anchor="start" x="28.5" y="-148.8" font-family="Helvetica,sans-Serif" font-size="11.00" fill="#000000">email</text>
<polygon fill="#ffffff" stroke="transparent" points="8.5,-119.7 8.5,-141.7 119.5,-141.7 119.5,-119.7 8.5,-119.7"/>
<polygon fill="none" stroke="#000000" points="8.5,-119.7 8.5,-141.7 119.5,-141.7 119.5,-119.7 8.5,-119.7"/>
<image xlink:href="../../images/foreignKeys.png" width="11px" height="12px" preserveAspectRatio="xMinYMin meet" x="13.5" y="-136.7"/>
<text text-anchor="start" x="28.5" y="-126.8" font-family="Helvetica,sans-Serif" font-size="11.00" fill="#000000">department_id</text>
<polygon fill="none" stroke="#000000" points="8.5,-97.7 8.5,-119.7 119.5,-119.7 119.5,-97.7 8.5,-97.7"/>
<image xlink:href="../../images/foreignKeys.png" width="11px" height="12px" preserveAspectRatio="xMinYMin meet" x="13.5" y="-114.7"/>
<text text-anchor="start" x="28.5" y="-104.8" font-family="Helvetica,sans-Serif" font-size="11.00" fill="#000000">created_by</text>
<polygon fill="none" stroke="#000000" points="8.5,-75.7 8.5,-97.7 119.5,-97.7 119.5,-75.7 8.5,-75.7"/>
<image xlink:href="../../images/foreignKeys.png" width="11px" height="12px" preserveAspectRatio="xMinYMin meet" x="13.5" y="-92.7"/>
<text text-anchor="start" x="28.5" y="-82.8" font-family="Helvetica,sans-Serif" font-size="11.00" fill="#000000">updated_by</text>
<polygon fill="none" stroke="#000000" points="8.5,-56.7 8.5,-75.7 119.5,-75.7 119.5,-56.7 8.5,-56.7"/>
<text text-anchor="start" x="11.5" y="-62.8" font-family="Helvetica,sans-Serif" font-size="11.00" fill="#000000">...</text>
<polygon fill="#ffffff" stroke="transparent" points="8.5,-37.7 8.5,-56.7 38.5,-56.7 38.5,-37.7 8.5,-37.7"/>
<polygon fill="none" stroke="#000000" points="8.5,-37.7 8.5,-56.7 38.5,-56.7 38.5,-37.7 8.5,-37.7"/>
<text text-anchor="start" x="11.5" y="-43.8" font-family="Helvetica,sans-Serif" font-size="11.00" fill="#000000">&lt; 3</text>
<polygon fill="#ffffff" stroke="transparent" points="38.5,-37.7 38.5,-56.7 87.5,-56.7 87.5,-37.7 38.5,-37.7"/>
<polygon fill="none" stroke="#000000" points="38.5,-37.7 38.5,-56.7 87.5,-56.7 87.5,-37.7 38.5,-37.7"/>
<text text-anchor="start" x="45.9956" y="-43.8" font-family="Helvetica,sans-Serif" font-size="11.00" fill="#000000">10 rows</text>
<polygon fill="#ffffff" stroke="transparent" points="87.5,-37.7 87.5,-56.7 119.5,-56.7 119.5,-37.7 87.5,-37.7"/>
<polygon fill="none" stroke="#000000" points="87.5,-37.7 87.5,-56.7 119.5,-56.7 119.5,-37.7 87.5,-37.7"/>
<text text-anchor="start" x="94.7904" y="-43.8" font-family="Helvetica,sans-Serif" font-size="11.00" fill="#000000">66 &gt;</text>
</a>
</g>
</g>
<!-- carriers&#45;&gt;users -->
<g id="edge1" class="edge">
<title>carriers:w&#45;&gt;users:e</title>
<path fill="none" stroke="#000000" d="M154.1348,-342.7237C112.8474,-321.7236 183.3566,-196.7 119.5,-196.7"/>
<polygon fill="#000000" stroke="#000000" points="160.6664,-344.0769 167.7696,-349.2251 164.5832,-344.8885 168.5,-345.7 168.5,-345.7 168.5,-345.7 164.5832,-344.8885 169.2304,-342.1749 160.6664,-344.0769 160.6664,-344.0769"/>
<ellipse fill="none" stroke="#000000" cx="157.5329" cy="-343.4277" rx="3.2" ry="3.2"/>
</g>
<!-- carriers&#45;&gt;users -->
<g id="edge2" class="edge">
<title>carriers:w&#45;&gt;users:e</title>
<path fill="none" stroke="#000000" d="M154.3195,-320.3031C120.7989,-300.1065 174.0918,-196.7 119.5,-196.7"/>
<polygon fill="#000000" stroke="#000000" points="160.7201,-321.8363 167.6613,-327.201 164.6101,-322.7681 168.5,-323.7 168.5,-323.7 168.5,-323.7 164.6101,-322.7681 169.3387,-320.199 160.7201,-321.8363 160.7201,-321.8363"/>
<ellipse fill="none" stroke="#000000" cx="157.6081" cy="-321.0908" rx="3.2" ry="3.2"/>
</g>
<!-- vehicles -->
<g id="node3" class="node">
<title>vehicles</title>
<g id="a_node3"><a xlink:href="../../tables/vehicles.html" xlink:title="vehicles" target="_top">
<polygon fill="#ffffff" stroke="transparent" points="310,-154.7 310,-508.7 523,-508.7 523,-154.7 310,-154.7"/>
<polygon fill="#f5f5f5" stroke="transparent" points="312.5,-483.7 312.5,-506.7 521.5,-506.7 521.5,-483.7 312.5,-483.7"/>
<polygon fill="none" stroke="#000000" points="312.5,-483.7 312.5,-506.7 521.5,-506.7 521.5,-483.7 312.5,-483.7"/>
<text text-anchor="start" x="317.5" y="-492.3" font-family="Helvetica,sans-Serif" font-weight="bold" font-size="11.00" fill="#000000">vehicles</text>
<text text-anchor="start" x="486.5437" y="-491.8" font-family="Helvetica,sans-Serif" font-size="11.00" fill="#000000">[table]</text>
<polygon fill="none" stroke="#000000" points="312.5,-461.7 312.5,-483.7 429.5,-483.7 429.5,-461.7 312.5,-461.7"/>
<image xlink:href="../../images/primaryKeys.png" width="11px" height="12px" preserveAspectRatio="xMinYMin meet" x="317.5" y="-478.7"/>
<text text-anchor="start" x="332.5" y="-468.8" font-family="Helvetica,sans-Serif" font-size="11.00" fill="#000000">vehicle_id</text>
<polygon fill="none" stroke="#000000" points="429.5,-461.7 429.5,-483.7 521.5,-483.7 521.5,-461.7 429.5,-461.7"/>
<text text-anchor="start" x="432.5" y="-469.4" font-family="Helvetica,sans-Serif" font-size="11.00" fill="#000000">int8[19]</text>
<polygon fill="none" stroke="#000000" points="312.5,-439.7 312.5,-461.7 429.5,-461.7 429.5,-439.7 312.5,-439.7"/>
<image xlink:href="../../images/foreignKeys.png" width="11px" height="12px" preserveAspectRatio="xMinYMin meet" x="317.5" y="-456.7"/>
<text text-anchor="start" x="332.5" y="-446.8" font-family="Helvetica,sans-Serif" font-size="11.00" fill="#000000">carrier_id</text>
<polygon fill="none" stroke="#000000" points="429.5,-439.7 429.5,-461.7 521.5,-461.7 521.5,-439.7 429.5,-439.7"/>
<text text-anchor="start" x="432.5" y="-447.4" font-family="Helvetica,sans-Serif" font-size="11.00" fill="#000000">int8[19]</text>
<polygon fill="#ffffff" stroke="transparent" points="312.5,-417.7 312.5,-439.7 429.5,-439.7 429.5,-417.7 312.5,-417.7"/>
<polygon fill="none" stroke="#000000" points="312.5,-417.7 312.5,-439.7 429.5,-439.7 429.5,-417.7 312.5,-417.7"/>
<text text-anchor="start" x="332.5" y="-424.8" font-family="Helvetica,sans-Serif" font-size="11.00" fill="#000000">vehicle_code</text>
<polygon fill="none" stroke="#000000" points="429.5,-417.7 429.5,-439.7 521.5,-439.7 521.5,-417.7 429.5,-417.7"/>
<text text-anchor="start" x="432.5" y="-425.4" font-family="Helvetica,sans-Serif" font-size="11.00" fill="#000000">varchar[50]</text>
<polygon fill="#ffffff" stroke="transparent" points="312.5,-395.7 312.5,-417.7 429.5,-417.7 429.5,-395.7 312.5,-395.7"/>
<polygon fill="none" stroke="#000000" points="312.5,-395.7 312.5,-417.7 429.5,-417.7 429.5,-395.7 312.5,-395.7"/>
<text text-anchor="start" x="332.5" y="-402.8" font-family="Helvetica,sans-Serif" font-size="11.00" fill="#000000">plate_number</text>
<polygon fill="none" stroke="#000000" points="429.5,-395.7 429.5,-417.7 521.5,-417.7 521.5,-395.7 429.5,-395.7"/>
<text text-anchor="start" x="432.5" y="-403.4" font-family="Helvetica,sans-Serif" font-size="11.00" fill="#000000">varchar[50]</text>
<polygon fill="none" stroke="#000000" points="312.5,-373.7 312.5,-395.7 429.5,-395.7 429.5,-373.7 312.5,-373.7"/>
<text text-anchor="start" x="332.5" y="-380.8" font-family="Helvetica,sans-Serif" font-size="11.00" fill="#000000">vehicle_type</text>
<polygon fill="none" stroke="#000000" points="429.5,-373.7 429.5,-395.7 521.5,-395.7 521.5,-373.7 429.5,-373.7"/>
<text text-anchor="start" x="432.5" y="-381.4" font-family="Helvetica,sans-Serif" font-size="11.00" fill="#000000">varchar[50]</text>
<polygon fill="none" stroke="#000000" points="312.5,-351.7 312.5,-373.7 429.5,-373.7 429.5,-351.7 312.5,-351.7"/>
<text text-anchor="start" x="332.5" y="-358.8" font-family="Helvetica,sans-Serif" font-size="11.00" fill="#000000">vin</text>
<polygon fill="none" stroke="#000000" points="429.5,-351.7 429.5,-373.7 521.5,-373.7 521.5,-351.7 429.5,-351.7"/>
<text text-anchor="start" x="432.5" y="-359.4" font-family="Helvetica,sans-Serif" font-size="11.00" fill="#000000">varchar[100]</text>
<polygon fill="none" stroke="#000000" points="312.5,-329.7 312.5,-351.7 429.5,-351.7 429.5,-329.7 312.5,-329.7"/>
<text text-anchor="start" x="332.5" y="-336.8" font-family="Helvetica,sans-Serif" font-size="11.00" fill="#000000">capacity_weight</text>
<polygon fill="none" stroke="#000000" points="429.5,-329.7 429.5,-351.7 521.5,-351.7 521.5,-329.7 429.5,-329.7"/>
<text text-anchor="start" x="432.5" y="-337.4" font-family="Helvetica,sans-Serif" font-size="11.00" fill="#000000">numeric[12,2]</text>
<polygon fill="none" stroke="#000000" points="312.5,-307.7 312.5,-329.7 429.5,-329.7 429.5,-307.7 312.5,-307.7"/>
<text text-anchor="start" x="332.5" y="-314.8" font-family="Helvetica,sans-Serif" font-size="11.00" fill="#000000">capacity_volume</text>
<polygon fill="none" stroke="#000000" points="429.5,-307.7 429.5,-329.7 521.5,-329.7 521.5,-307.7 429.5,-307.7"/>
<text text-anchor="start" x="432.5" y="-315.4" font-family="Helvetica,sans-Serif" font-size="11.00" fill="#000000">numeric[12,2]</text>
<polygon fill="none" stroke="#000000" points="312.5,-285.7 312.5,-307.7 429.5,-307.7 429.5,-285.7 312.5,-285.7"/>
<text text-anchor="start" x="332.5" y="-292.8" font-family="Helvetica,sans-Serif" font-size="11.00" fill="#000000">status</text>
<polygon fill="none" stroke="#000000" points="429.5,-285.7 429.5,-307.7 521.5,-307.7 521.5,-285.7 429.5,-285.7"/>
<text text-anchor="start" x="432.5" y="-293.4" font-family="Helvetica,sans-Serif" font-size="11.00" fill="#000000">varchar[50]</text>
<polygon fill="none" stroke="#000000" points="312.5,-263.7 312.5,-285.7 429.5,-285.7 429.5,-263.7 312.5,-263.7"/>
<text text-anchor="start" x="332.5" y="-270.8" font-family="Helvetica,sans-Serif" font-size="11.00" fill="#000000">notes</text>
<polygon fill="none" stroke="#000000" points="429.5,-263.7 429.5,-285.7 521.5,-285.7 521.5,-263.7 429.5,-263.7"/>
<text text-anchor="start" x="432.5" y="-271.4" font-family="Helvetica,sans-Serif" font-size="11.00" fill="#000000">text[2147483647]</text>
<polygon fill="none" stroke="#000000" points="312.5,-241.7 312.5,-263.7 429.5,-263.7 429.5,-241.7 312.5,-241.7"/>
<text text-anchor="start" x="332.5" y="-248.8" font-family="Helvetica,sans-Serif" font-size="11.00" fill="#000000">created_at</text>
<polygon fill="none" stroke="#000000" points="429.5,-241.7 429.5,-263.7 521.5,-263.7 521.5,-241.7 429.5,-241.7"/>
<text text-anchor="start" x="432.1023" y="-249.4" font-family="Helvetica,sans-Serif" font-size="11.00" fill="#000000">timestamptz[35,6]</text>
<polygon fill="none" stroke="#000000" points="312.5,-219.7 312.5,-241.7 429.5,-241.7 429.5,-219.7 312.5,-219.7"/>
<text text-anchor="start" x="332.5" y="-226.8" font-family="Helvetica,sans-Serif" font-size="11.00" fill="#000000">updated_at</text>
<polygon fill="none" stroke="#000000" points="429.5,-219.7 429.5,-241.7 521.5,-241.7 521.5,-219.7 429.5,-219.7"/>
<text text-anchor="start" x="432.1023" y="-227.4" font-family="Helvetica,sans-Serif" font-size="11.00" fill="#000000">timestamptz[35,6]</text>
<polygon fill="none" stroke="#000000" points="312.5,-197.7 312.5,-219.7 429.5,-219.7 429.5,-197.7 312.5,-197.7"/>
<image xlink:href="../../images/foreignKeys.png" width="11px" height="12px" preserveAspectRatio="xMinYMin meet" x="317.5" y="-214.7"/>
<text text-anchor="start" x="332.5" y="-204.8" font-family="Helvetica,sans-Serif" font-size="11.00" fill="#000000">created_by</text>
<polygon fill="none" stroke="#000000" points="429.5,-197.7 429.5,-219.7 521.5,-219.7 521.5,-197.7 429.5,-197.7"/>
<text text-anchor="start" x="432.5" y="-205.4" font-family="Helvetica,sans-Serif" font-size="11.00" fill="#000000">int8[19]</text>
<polygon fill="none" stroke="#000000" points="312.5,-175.7 312.5,-197.7 429.5,-197.7 429.5,-175.7 312.5,-175.7"/>
<image xlink:href="../../images/foreignKeys.png" width="11px" height="12px" preserveAspectRatio="xMinYMin meet" x="317.5" y="-192.7"/>
<text text-anchor="start" x="332.5" y="-182.8" font-family="Helvetica,sans-Serif" font-size="11.00" fill="#000000">updated_by</text>
<polygon fill="none" stroke="#000000" points="429.5,-175.7 429.5,-197.7 521.5,-197.7 521.5,-175.7 429.5,-175.7"/>
<text text-anchor="start" x="432.5" y="-183.4" font-family="Helvetica,sans-Serif" font-size="11.00" fill="#000000">int8[19]</text>
<polygon fill="#ffffff" stroke="transparent" points="312.5,-156.7 312.5,-175.7 375.5,-175.7 375.5,-156.7 312.5,-156.7"/>
<polygon fill="none" stroke="#000000" points="312.5,-156.7 312.5,-175.7 375.5,-175.7 375.5,-156.7 312.5,-156.7"/>
<text text-anchor="start" x="315.5" y="-162.8" font-family="Helvetica,sans-Serif" font-size="11.00" fill="#000000">&lt; 3</text>
<polygon fill="#ffffff" stroke="transparent" points="375.5,-156.7 375.5,-175.7 429.5,-175.7 429.5,-156.7 375.5,-156.7"/>
<polygon fill="none" stroke="#000000" points="375.5,-156.7 375.5,-175.7 429.5,-175.7 429.5,-156.7 375.5,-156.7"/>
<text text-anchor="start" x="420.3862" y="-162.8" font-family="Helvetica,sans-Serif" font-size="11.00" fill="#000000"> &#160;</text>
<polygon fill="#ffffff" stroke="transparent" points="429.5,-156.7 429.5,-175.7 521.5,-175.7 521.5,-156.7 429.5,-156.7"/>
<polygon fill="none" stroke="#000000" points="429.5,-156.7 429.5,-175.7 521.5,-175.7 521.5,-156.7 429.5,-156.7"/>
<text text-anchor="start" x="502.9053" y="-162.8" font-family="Helvetica,sans-Serif" font-size="11.00" fill="#000000">1 &gt;</text>
<polygon fill="none" stroke="#000000" stroke-width="2" points="311,-155.7 311,-507.7 522,-507.7 522,-155.7 311,-155.7"/>
</a>
</g>
</g>
<!-- vehicles&#45;&gt;carriers -->
<g id="edge3" class="edge">
<title>vehicles:w&#45;&gt;carriers:e</title>
<path fill="none" stroke="#000000" d="M298.4125,-446.2262C284.9862,-435.9822 284.0156,-411.7 261.5,-411.7"/>
<polygon fill="#000000" stroke="#000000" points="304.8752,-448.2786 311.4104,-454.1311 308.6876,-449.4893 312.5,-450.7 312.5,-450.7 312.5,-450.7 308.6876,-449.4893 313.5896,-447.2689 304.8752,-448.2786 304.8752,-448.2786"/>
<ellipse fill="none" stroke="#000000" cx="301.8253" cy="-447.31" rx="3.2" ry="3.2"/>
</g>
<!-- vehicles&#45;&gt;users -->
<g id="edge4" class="edge">
<title>vehicles:w&#45;&gt;users:e</title>
<path fill="none" stroke="#000000" d="M298.0344,-208.5812C223.8598,-207.3349 200.4077,-196.7 119.5,-196.7"/>
<polygon fill="#000000" stroke="#000000" points="304.5003,-208.6343 312.4704,-212.2999 308.5001,-208.6671 312.5,-208.7 312.5,-208.7 312.5,-208.7 308.5001,-208.6671 312.5296,-205.1001 304.5003,-208.6343 304.5003,-208.6343"/>
<ellipse fill="none" stroke="#000000" cx="301.3004" cy="-208.608" rx="3.2" ry="3.2"/>
</g>
<!-- vehicles&#45;&gt;users -->
<g id="edge5" class="edge">
<title>vehicles:w&#45;&gt;users:e</title>
<path fill="none" stroke="#000000" d="M298.0709,-187.3717C253.8898,-189.6138 124.019,-196.7 119.5,-196.7"/>
<polygon fill="#000000" stroke="#000000" points="304.5087,-187.072 312.6674,-190.2961 308.5043,-186.886 312.5,-186.7 312.5,-186.7 312.5,-186.7 308.5043,-186.886 312.3326,-183.1039 304.5087,-187.072 304.5087,-187.072"/>
<ellipse fill="none" stroke="#000000" cx="301.3121" cy="-187.2209" rx="3.2" ry="3.2"/>
</g>
<!-- tms.container_legs -->
<g id="node4" class="node">
<title>tms.container_legs</title>
<g id="a_node4"><a xlink:href="../../../tms/tables/container_legs.html" xlink:title="tms.container_legs" target="_top">
<polygon fill="#ffffff" stroke="transparent" points="572,-220.2 572,-413.2 727,-413.2 727,-220.2 572,-220.2"/>
<polygon fill="#f5f5f5" stroke="transparent" points="572.5,-389.7 572.5,-412.7 727.5,-412.7 727.5,-389.7 572.5,-389.7"/>
<polygon fill="none" stroke="#000000" points="572.5,-389.7 572.5,-412.7 727.5,-412.7 727.5,-389.7 572.5,-389.7"/>
<text text-anchor="start" x="577.5" y="-398.3" font-family="Helvetica,sans-Serif" font-weight="bold" font-size="11.00" fill="#000000">tms.container_legs</text>
<text text-anchor="start" x="692.5437" y="-397.8" font-family="Helvetica,sans-Serif" font-size="11.00" fill="#000000">[table]</text>
<polygon fill="none" stroke="#000000" points="572.5,-367.7 572.5,-389.7 727.5,-389.7 727.5,-367.7 572.5,-367.7"/>
<image xlink:href="../../images/foreignKeys.png" width="11px" height="12px" preserveAspectRatio="xMinYMin meet" x="577.5" y="-384.7"/>
<text text-anchor="start" x="592.5" y="-374.8" font-family="Helvetica,sans-Serif" font-size="11.00" fill="#000000">origin_location_id</text>
<polygon fill="none" stroke="#000000" points="572.5,-345.7 572.5,-367.7 727.5,-367.7 727.5,-345.7 572.5,-345.7"/>
<image xlink:href="../../images/foreignKeys.png" width="11px" height="12px" preserveAspectRatio="xMinYMin meet" x="577.5" y="-362.7"/>
<text text-anchor="start" x="592.5" y="-352.8" font-family="Helvetica,sans-Serif" font-size="11.00" fill="#000000">destination_location_id</text>
<polygon fill="none" stroke="#000000" points="572.5,-323.7 572.5,-345.7 727.5,-345.7 727.5,-323.7 572.5,-323.7"/>
<image xlink:href="../../images/foreignKeys.png" width="11px" height="12px" preserveAspectRatio="xMinYMin meet" x="577.5" y="-340.7"/>
<text text-anchor="start" x="592.5" y="-330.8" font-family="Helvetica,sans-Serif" font-size="11.00" fill="#000000">carrier_id</text>
<polygon fill="none" stroke="#000000" points="572.5,-301.7 572.5,-323.7 727.5,-323.7 727.5,-301.7 572.5,-301.7"/>
<image xlink:href="../../images/foreignKeys.png" width="11px" height="12px" preserveAspectRatio="xMinYMin meet" x="577.5" y="-318.7"/>
<text text-anchor="start" x="592.5" y="-308.8" font-family="Helvetica,sans-Serif" font-size="11.00" fill="#000000">vehicle_id</text>
<polygon fill="none" stroke="#000000" points="572.5,-279.7 572.5,-301.7 727.5,-301.7 727.5,-279.7 572.5,-279.7"/>
<image xlink:href="../../images/foreignKeys.png" width="11px" height="12px" preserveAspectRatio="xMinYMin meet" x="577.5" y="-296.7"/>
<text text-anchor="start" x="592.5" y="-286.8" font-family="Helvetica,sans-Serif" font-size="11.00" fill="#000000">created_by</text>
<polygon fill="none" stroke="#000000" points="572.5,-257.7 572.5,-279.7 727.5,-279.7 727.5,-257.7 572.5,-257.7"/>
<image xlink:href="../../images/foreignKeys.png" width="11px" height="12px" preserveAspectRatio="xMinYMin meet" x="577.5" y="-274.7"/>
<text text-anchor="start" x="592.5" y="-264.8" font-family="Helvetica,sans-Serif" font-size="11.00" fill="#000000">updated_by</text>
<polygon fill="none" stroke="#000000" points="572.5,-238.7 572.5,-257.7 727.5,-257.7 727.5,-238.7 572.5,-238.7"/>
<text text-anchor="start" x="575.5" y="-244.8" font-family="Helvetica,sans-Serif" font-size="11.00" fill="#000000">...</text>
<polygon fill="#ffffff" stroke="transparent" points="572.5,-219.7 572.5,-238.7 635.5,-238.7 635.5,-219.7 572.5,-219.7"/>
<polygon fill="none" stroke="#000000" points="572.5,-219.7 572.5,-238.7 635.5,-238.7 635.5,-219.7 572.5,-219.7"/>
<text text-anchor="start" x="575.5" y="-225.8" font-family="Helvetica,sans-Serif" font-size="11.00" fill="#000000">&lt; 6</text>
<polygon fill="#ffffff" stroke="transparent" points="635.5,-219.7 635.5,-238.7 694.5,-238.7 694.5,-219.7 635.5,-219.7"/>
<polygon fill="none" stroke="#000000" points="635.5,-219.7 635.5,-238.7 694.5,-238.7 694.5,-219.7 635.5,-219.7"/>
<text text-anchor="start" x="659.1105" y="-225.8" font-family="Helvetica,sans-Serif" font-size="11.00" fill="#000000">0 rows</text>
<polygon fill="#ffffff" stroke="transparent" points="694.5,-219.7 694.5,-238.7 727.5,-238.7 727.5,-219.7 694.5,-219.7"/>
<polygon fill="none" stroke="#000000" points="694.5,-219.7 694.5,-238.7 727.5,-238.7 727.5,-219.7 694.5,-219.7"/>
<text text-anchor="start" x="718.3862" y="-225.8" font-family="Helvetica,sans-Serif" font-size="11.00" fill="#000000"> &#160;</text>
</a>
</g>
</g>
<!-- tms.container_legs&#45;&gt;carriers -->
<g id="edge6" class="edge">
<title>tms.container_legs:w&#45;&gt;carriers:e</title>
<path fill="none" stroke="#000000" d="M558.156,-336.3887C501.8823,-351.9249 592.415,-470.5356 531,-519.7 451.5454,-583.3056 385.6538,-577.6721 302,-519.7 259.8648,-490.5003 312.764,-411.7 261.5,-411.7"/>
<polygon fill="#000000" stroke="#000000" points="564.5549,-335.6354 572.9209,-338.2753 568.5274,-335.1677 572.5,-334.7 572.5,-334.7 572.5,-334.7 568.5274,-335.1677 572.0791,-331.1247 564.5549,-335.6354 564.5549,-335.6354"/>
<ellipse fill="none" stroke="#000000" cx="561.3768" cy="-336.0096" rx="3.2" ry="3.2"/>
</g>
<!-- tms.container_legs&#45;&gt;users -->
<g id="edge7" class="edge">
<title>tms.container_legs:w&#45;&gt;users:e</title>
<path fill="none" stroke="#000000" d="M558.1923,-288.474C517.7674,-273.0724 580.2026,-181.866 531,-144.7 449.7875,-83.3547 402.7991,-130.6198 302,-144.7 296.7795,-145.4292 124.7712,-196.7 119.5,-196.7"/>
<polygon fill="#000000" stroke="#000000" points="564.5951,-289.4701 571.9466,-294.2572 568.5475,-290.0851 572.5,-290.7 572.5,-290.7 572.5,-290.7 568.5475,-290.0851 573.0534,-287.1428 564.5951,-289.4701 564.5951,-289.4701"/>
<ellipse fill="none" stroke="#000000" cx="561.4331" cy="-288.9782" rx="3.2" ry="3.2"/>
</g>
<!-- tms.container_legs&#45;&gt;users -->
<g id="edge8" class="edge">
<title>tms.container_legs:w&#45;&gt;users:e</title>
<path fill="none" stroke="#000000" d="M558.0508,-266.5601C514.7116,-250.9636 582.6527,-154.276 531,-114.7 399.4984,-13.9444 301.3537,-64.3087 160,-150.7 136.7579,-164.9049 146.7392,-196.7 119.5,-196.7"/>
<polygon fill="#000000" stroke="#000000" points="564.5863,-267.528 571.9726,-272.2612 568.5432,-268.114 572.5,-268.7 572.5,-268.7 572.5,-268.7 568.5432,-268.114 573.0274,-265.1388 564.5863,-267.528 564.5863,-267.528"/>
<ellipse fill="none" stroke="#000000" cx="561.4208" cy="-267.0591" rx="3.2" ry="3.2"/>
</g>
<!-- tms.container_legs&#45;&gt;vehicles -->
<g id="edge9" class="edge">
<title>tms.container_legs:w&#45;&gt;vehicles:e</title>
<path fill="none" stroke="#000000" d="M558.3013,-315.3436C511.8317,-336.1467 590.4511,-472.7 521.5,-472.7"/>
<polygon fill="#000000" stroke="#000000" points="564.6352,-314.1644 573.159,-316.2392 568.5676,-313.4322 572.5,-312.7 572.5,-312.7 572.5,-312.7 568.5676,-313.4322 571.841,-309.1608 564.6352,-314.1644 564.6352,-314.1644"/>
<ellipse fill="none" stroke="#000000" cx="561.4892" cy="-314.7501" rx="3.2" ry="3.2"/>
</g>
</g>
</svg>
